<?xml version="1.0" encoding="utf-8" standalone="no"?>
<!DOCTYPE svg PUBLIC "-//W3C//DTD SVG 1.1//EN"
  "http://www.w3.org/Graphics/SVG/1.1/DTD/svg11.dtd">
<svg xmlns:xlink="http://www.w3.org/1999/xlink" width="856.407187pt" height="453.584062pt" viewBox="0 0 856.407187 453.584062" xmlns="http://www.w3.org/2000/svg" version="1.1">
 <metadata>
  <rdf:RDF xmlns:dc="http://purl.org/dc/elements/1.1/" xmlns:cc="http://creativecommons.org/ns#" xmlns:rdf="http://www.w3.org/1999/02/22-rdf-syntax-ns#">
   <cc:Work>
    <dc:type rdf:resource="http://purl.org/dc/dcmitype/StillImage"/>
    <dc:date>2026-06-06T01:21:17.590092</dc:date>
    <dc:format>image/svg+xml</dc:format>
    <dc:creator>
     <cc:Agent>
      <dc:title>Matplotlib v3.10.0, https://matplotlib.org/</dc:title>
     </cc:Agent>
    </dc:creator>
   </cc:Work>
  </rdf:RDF>
 </metadata>
 <defs>
  <style type="text/css">*{stroke-linejoin: round; stroke-linecap: butt}</style>
 </defs>
 <g id="figure_1">
  <g id="patch_1">
   <path d="M 0 453.584062 
L 856.407187 453.584062 
L 856.407187 0 
L 0 0 
z
" style="fill: #ffffff"/>
  </g>
  <g id="axes_1">
   <g id="patch_2">
    <path d="M 71.480937 405.58 
L 849.207188 405.58 
L 849.207188 39.055 
L 71.480937 39.055 
z
" style="fill: #ffffff"/>
   </g>
   <g id="matplotlib.axis_1">
    <g id="xtick_1">
     <g id="line2d_1">
      <defs>
       <path id="m88bf46ded8" d="M 0 0 
L 0 3.5 
" style="stroke: #111111; stroke-width: 0.8"/>
      </defs>
      <g>
       <use xlink:href="#m88bf46ded8" x="185.390338" y="405.58" style="fill: #111111; stroke: #111111; stroke-width: 0.8"/>
      </g>
     </g>
     <g id="text_1">
      <!-- 2016 -->
      <g style="fill: #111111" transform="translate(166.790338 423.319062) scale(0.15 -0.15)">
       <defs>
        <path id="STZhongsong-32" d="M 723 2714 
L 422 2675 
Q 397 2835 397 2989 
Q 397 3616 832 4025 
Q 1267 4435 1978 4435 
Q 2630 4435 3043 4064 
Q 3456 3693 3456 3098 
Q 3456 2669 3286 2349 
Q 3117 2029 2611 1603 
Q 2106 1178 1037 467 
L 2662 467 
Q 2963 467 3062 544 
Q 3162 621 3200 838 
L 3232 1018 
L 3494 1018 
L 3283 -154 
L 3085 -154 
L 3053 0 
L 320 0 
L 320 262 
L 819 640 
Q 1901 1453 2377 1977 
Q 2854 2502 2854 3066 
Q 2854 3507 2569 3788 
Q 2285 4070 1837 4070 
Q 1325 4070 1017 3753 
Q 710 3437 710 2918 
Q 710 2822 723 2714 
z
" transform="scale(0.015625)"/>
        <path id="STZhongsong-30" d="M 326 2182 
Q 326 3251 774 3843 
Q 1222 4435 1997 4435 
Q 2752 4435 3197 3827 
Q 3642 3219 3642 2144 
Q 3642 1139 3178 531 
Q 2714 -77 1952 -77 
Q 1229 -77 777 524 
Q 326 1126 326 2182 
z
M 3040 2182 
Q 3040 3104 2758 3616 
Q 2477 4128 1978 4128 
Q 1478 4128 1200 3590 
Q 922 3053 922 2118 
Q 922 1229 1210 733 
Q 1498 237 1971 237 
Q 2470 237 2755 752 
Q 3040 1267 3040 2182 
z
" transform="scale(0.015625)"/>
        <path id="STZhongsong-31" d="M 2150 4358 
L 2387 4358 
L 2387 742 
Q 2387 422 2464 342 
Q 2541 262 2822 262 
L 3130 262 
L 3130 0 
L 1069 0 
L 1069 262 
L 1408 262 
Q 1670 262 1766 348 
Q 1862 435 1862 742 
L 1862 3718 
L 1069 3718 
L 1069 3987 
Q 1709 4070 2150 4358 
z
" transform="scale(0.015625)"/>
        <path id="STZhongsong-36" d="M 3238 4442 
L 3238 4154 
Q 2131 4141 1603 3686 
Q 1075 3232 1037 2227 
Q 1446 2893 2240 2893 
Q 2880 2893 3289 2486 
Q 3699 2080 3699 1440 
Q 3699 742 3257 332 
Q 2816 -77 2093 -77 
Q 1286 -77 848 444 
Q 410 966 410 1926 
Q 410 3046 1056 3744 
Q 1702 4442 2995 4442 
L 3238 4442 
z
M 3072 1414 
Q 3072 1933 2800 2246 
Q 2528 2560 2099 2560 
Q 1658 2560 1363 2224 
Q 1069 1888 1069 1402 
Q 1069 890 1350 550 
Q 1632 211 2074 211 
Q 2509 211 2790 544 
Q 3072 877 3072 1414 
z
" transform="scale(0.015625)"/>
       </defs>
       <use xlink:href="#STZhongsong-32"/>
       <use xlink:href="#STZhongsong-30" transform="translate(61.999985 0)"/>
       <use xlink:href="#STZhongsong-31" transform="translate(123.999969 0)"/>
       <use xlink:href="#STZhongsong-36" transform="translate(185.999954 0)"/>
      </g>
     </g>
    </g>
    <g id="xtick_2">
     <g id="line2d_2">
      <g>
       <use xlink:href="#m88bf46ded8" x="342.506752" y="405.58" style="fill: #111111; stroke: #111111; stroke-width: 0.8"/>
      </g>
     </g>
     <g id="text_2">
      <!-- 2018 -->
      <g style="fill: #111111" transform="translate(323.906752 423.319062) scale(0.15 -0.15)">
       <defs>
        <path id="STZhongsong-38" d="M 2477 2419 
Q 3021 2208 3315 1923 
Q 3610 1638 3610 1197 
Q 3610 659 3152 291 
Q 2694 -77 1971 -77 
Q 1274 -77 816 272 
Q 358 621 358 1120 
Q 358 1485 633 1779 
Q 909 2074 1440 2259 
Q 1011 2451 800 2691 
Q 589 2931 589 3315 
Q 589 3814 998 4124 
Q 1408 4435 2035 4435 
Q 2618 4435 2998 4134 
Q 3379 3834 3379 3424 
Q 3379 2790 2477 2419 
z
M 2189 2534 
Q 2451 2707 2662 2918 
Q 2874 3130 2874 3418 
Q 2874 3706 2621 3923 
Q 2368 4141 1971 4141 
Q 1594 4141 1331 3926 
Q 1069 3712 1069 3430 
Q 1069 3168 1270 2989 
Q 1472 2810 1824 2675 
L 2189 2534 
z
M 1747 2131 
Q 1325 1939 1088 1670 
Q 851 1402 851 1126 
Q 851 762 1177 490 
Q 1504 218 1984 218 
Q 2438 218 2774 483 
Q 3110 749 3110 1082 
Q 3110 1594 2253 1933 
L 1747 2131 
z
" transform="scale(0.015625)"/>
       </defs>
       <use xlink:href="#STZhongsong-32"/>
       <use xlink:href="#STZhongsong-30" transform="translate(61.999985 0)"/>
       <use xlink:href="#STZhongsong-31" transform="translate(123.999969 0)"/>
       <use xlink:href="#STZhongsong-38" transform="translate(185.999954 0)"/>
      </g>
     </g>
    </g>
    <g id="xtick_3">
     <g id="line2d_3">
      <g>
       <use xlink:href="#m88bf46ded8" x="499.623166" y="405.58" style="fill: #111111; stroke: #111111; stroke-width: 0.8"/>
      </g>
     </g>
     <g id="text_3">
      <!-- 2020 -->
      <g style="fill: #111111" transform="translate(481.023166 423.319062) scale(0.15 -0.15)">
       <use xlink:href="#STZhongsong-32"/>
       <use xlink:href="#STZhongsong-30" transform="translate(61.999985 0)"/>
       <use xlink:href="#STZhongsong-32" transform="translate(123.999969 0)"/>
       <use xlink:href="#STZhongsong-30" transform="translate(185.999954 0)"/>
      </g>
     </g>
    </g>
    <g id="xtick_4">
     <g id="line2d_4">
      <g>
       <use xlink:href="#m88bf46ded8" x="656.73958" y="405.58" style="fill: #111111; stroke: #111111; stroke-width: 0.8"/>
      </g>
     </g>
     <g id="text_4">
      <!-- 2022 -->
      <g style="fill: #111111" transform="translate(638.13958 423.319062) scale(0.15 -0.15)">
       <use xlink:href="#STZhongsong-32"/>
       <use xlink:href="#STZhongsong-30" transform="translate(61.999985 0)"/>
       <use xlink:href="#STZhongsong-32" transform="translate(123.999969 0)"/>
       <use xlink:href="#STZhongsong-32" transform="translate(185.999954 0)"/>
      </g>
     </g>
    </g>
    <g id="xtick_5">
     <g id="line2d_5">
      <g>
       <use xlink:href="#m88bf46ded8" x="813.855994" y="405.58" style="fill: #111111; stroke: #111111; stroke-width: 0.8"/>
      </g>
     </g>
     <g id="text_5">
      <!-- 2024 -->
      <g style="fill: #111111" transform="translate(795.255994 423.319062) scale(0.15 -0.15)">
       <defs>
        <path id="STZhongsong-34" d="M 3494 1242 
L 2906 1242 
L 2906 518 
Q 2906 275 3213 250 
L 3213 45 
L 1882 45 
L 1882 250 
Q 2054 262 2156 336 
Q 2259 410 2259 518 
L 2259 1242 
L 550 1242 
L 550 1658 
L 2483 4365 
L 2906 4365 
L 2906 1581 
L 3494 1581 
L 3494 1242 
z
M 2259 1581 
L 2259 3462 
L 902 1581 
L 2259 1581 
z
" transform="scale(0.015625)"/>
       </defs>
       <use xlink:href="#STZhongsong-32"/>
       <use xlink:href="#STZhongsong-30" transform="translate(61.999985 0)"/>
       <use xlink:href="#STZhongsong-32" transform="translate(123.999969 0)"/>
       <use xlink:href="#STZhongsong-34" transform="translate(185.999954 0)"/>
      </g>
     </g>
    </g>
    <g id="text_6">
     <!-- 年份 -->
     <g style="fill: #111111" transform="translate(443.344063 442.984062) scale(0.17 -0.17)">
      <defs>
       <path id="STZhongsong-5e74" d="M 1939 3827 
L 4794 3827 
L 5082 4237 
Q 5133 4314 5171 4314 
Q 5210 4314 5328 4224 
Q 5446 4134 5612 3993 
Q 5779 3853 5840 3789 
Q 5901 3725 5901 3686 
Q 5901 3616 5811 3616 
L 3744 3616 
L 3744 2496 
L 4474 2496 
L 4736 2874 
Q 4787 2938 4822 2938 
Q 4858 2938 4970 2858 
Q 5082 2778 5232 2643 
Q 5382 2509 5414 2461 
Q 5446 2413 5446 2368 
Q 5446 2272 5350 2272 
L 3744 2272 
L 3744 1043 
L 5254 1043 
L 5542 1427 
Q 5587 1485 5654 1485 
Q 5722 1485 6013 1213 
Q 6304 941 6304 883 
Q 6304 826 6195 826 
L 3744 826 
Q 3744 19 3750 -294 
L 3763 -864 
Q 3763 -909 3731 -941 
Q 3699 -973 3475 -1056 
Q 3251 -1139 3203 -1139 
Q 3155 -1139 3155 -1037 
L 3168 -390 
Q 3174 -38 3174 826 
L 653 826 
Q 480 826 384 781 
L 269 1075 
Q 403 1043 589 1043 
L 1498 1043 
L 1498 2170 
Q 1498 2643 1485 2739 
Q 1856 2630 2138 2496 
L 3174 2496 
L 3174 3616 
L 1798 3616 
Q 1440 3046 1136 2713 
Q 832 2381 339 1984 
L 243 2086 
Q 1261 3174 1741 4909 
Q 2259 4704 2400 4611 
Q 2541 4518 2541 4457 
Q 2541 4397 2435 4384 
Q 2330 4371 2253 4288 
Q 2176 4205 1939 3827 
z
M 3174 2272 
L 2054 2272 
L 2054 1043 
L 3174 1043 
L 3174 2272 
z
" transform="scale(0.015625)"/>
       <path id="STZhongsong-4efd" d="M 1190 2470 
Q 736 1830 237 1389 
L 141 1472 
Q 1158 2701 1702 4838 
Q 1894 4768 2115 4672 
Q 2336 4576 2374 4544 
Q 2413 4512 2413 4477 
Q 2413 4442 2326 4419 
Q 2240 4397 2205 4345 
Q 2170 4294 2099 4115 
Q 1888 3578 1530 2982 
Q 1837 2912 1837 2842 
Q 1837 2803 1709 2720 
L 1709 -806 
Q 1709 -883 1670 -928 
Q 1632 -973 1453 -1049 
Q 1274 -1126 1219 -1126 
Q 1165 -1126 1165 -1056 
L 1178 -563 
Q 1190 -262 1190 70 
L 1190 2470 
z
M 6272 2355 
L 6259 2227 
Q 6170 2240 6099 2240 
Q 5786 2240 5658 1971 
Q 5638 1926 5587 1926 
Q 5408 1926 4813 2630 
Q 4218 3334 4102 4806 
Q 4742 4742 4742 4627 
Q 4742 4589 4672 4570 
Q 4467 4518 4467 4323 
Q 4467 4128 4636 3712 
Q 4806 3296 5209 2925 
Q 5613 2554 6272 2355 
z
M 3174 4506 
Q 3635 4346 3753 4285 
Q 3872 4224 3872 4182 
Q 3872 4141 3753 4105 
Q 3635 4070 3546 3834 
Q 3034 2477 1888 1421 
L 1798 1491 
Q 2765 2810 3174 4506 
z
M 3232 1920 
L 3072 1920 
Q 2906 1920 2803 1875 
L 2662 2157 
Q 2797 2125 2982 2125 
L 4461 2125 
L 4614 2330 
Q 4659 2381 4704 2381 
Q 4749 2381 4937 2246 
Q 5126 2112 5212 2041 
Q 5299 1971 5299 1920 
Q 5299 1869 5139 1760 
Q 5114 1011 5066 432 
Q 5018 -147 4966 -355 
Q 4915 -563 4796 -700 
Q 4678 -838 4451 -944 
Q 4224 -1050 4169 -1050 
Q 4115 -1050 4090 -966 
Q 4038 -774 3856 -640 
Q 3674 -506 3328 -378 
L 3373 -243 
Q 3910 -384 4076 -384 
Q 4243 -384 4307 -326 
Q 4371 -269 4432 -73 
Q 4493 122 4528 541 
Q 4563 960 4576 1920 
L 3782 1920 
Q 3738 730 3389 125 
Q 3040 -480 1946 -1094 
L 1869 -1011 
Q 2669 -358 2934 237 
Q 3200 832 3232 1920 
z
" transform="scale(0.015625)"/>
      </defs>
      <use xlink:href="#STZhongsong-5e74"/>
      <use xlink:href="#STZhongsong-4efd" transform="translate(99.999985 0)"/>
     </g>
    </g>
   </g>
   <g id="matplotlib.axis_2">
    <g id="ytick_1">
     <g id="line2d_6">
      <path d="M 71.480937 394.90586 
L 849.207188 394.90586 
" clip-path="url(#pe9990a34c4)" style="fill: none; stroke: #ececec; stroke-width: 0.9; stroke-linecap: square"/>
     </g>
     <g id="line2d_7">
      <defs>
       <path id="m6c6f501f0f" d="M 0 0 
L -3.5 0 
" style="stroke: #111111; stroke-width: 0.8"/>
      </defs>
      <g>
       <use xlink:href="#m6c6f501f0f" x="71.480937" y="394.90586" style="fill: #111111; stroke: #111111; stroke-width: 0.8"/>
      </g>
     </g>
     <g id="text_7">
      <!-- 0 -->
      <g style="fill: #111111" transform="translate(55.180937 400.275392) scale(0.15 -0.15)">
       <use xlink:href="#STZhongsong-30"/>
      </g>
     </g>
    </g>
    <g id="ytick_2">
     <g id="line2d_8">
      <path d="M 71.480937 331.894411 
L 849.207188 331.894411 
" clip-path="url(#pe9990a34c4)" style="fill: none; stroke: #ececec; stroke-width: 0.9; stroke-linecap: square"/>
     </g>
     <g id="line2d_9">
      <g>
       <use xlink:href="#m6c6f501f0f" x="71.480937" y="331.894411" style="fill: #111111; stroke: #111111; stroke-width: 0.8"/>
      </g>
     </g>
     <g id="text_8">
      <!-- 1000 -->
      <g style="fill: #111111" transform="translate(27.280938 337.263942) scale(0.15 -0.15)">
       <use xlink:href="#STZhongsong-31"/>
       <use xlink:href="#STZhongsong-30" transform="translate(61.999985 0)"/>
       <use xlink:href="#STZhongsong-30" transform="translate(123.999969 0)"/>
       <use xlink:href="#STZhongsong-30" transform="translate(185.999954 0)"/>
      </g>
     </g>
    </g>
    <g id="ytick_3">
     <g id="line2d_10">
      <path d="M 71.480937 268.882961 
L 849.207188 268.882961 
" clip-path="url(#pe9990a34c4)" style="fill: none; stroke: #ececec; stroke-width: 0.9; stroke-linecap: square"/>
     </g>
     <g id="line2d_11">
      <g>
       <use xlink:href="#m6c6f501f0f" x="71.480937" y="268.882961" style="fill: #111111; stroke: #111111; stroke-width: 0.8"/>
      </g>
     </g>
     <g id="text_9">
      <!-- 2000 -->
      <g style="fill: #111111" transform="translate(27.280938 274.252493) scale(0.15 -0.15)">
       <use xlink:href="#STZhongsong-32"/>
       <use xlink:href="#STZhongsong-30" transform="translate(61.999985 0)"/>
       <use xlink:href="#STZhongsong-30" transform="translate(123.999969 0)"/>
       <use xlink:href="#STZhongsong-30" transform="translate(185.999954 0)"/>
      </g>
     </g>
    </g>
    <g id="ytick_4">
     <g id="line2d_12">
      <path d="M 71.480937 205.871512 
L 849.207188 205.871512 
" clip-path="url(#pe9990a34c4)" style="fill: none; stroke: #ececec; stroke-width: 0.9; stroke-linecap: square"/>
     </g>
     <g id="line2d_13">
      <g>
       <use xlink:href="#m6c6f501f0f" x="71.480937" y="205.871512" style="fill: #111111; stroke: #111111; stroke-width: 0.8"/>
      </g>
     </g>
     <g id="text_10">
      <!-- 3000 -->
      <g style="fill: #111111" transform="translate(27.280938 211.241043) scale(0.15 -0.15)">
       <defs>
        <path id="STZhongsong-33" d="M 934 3194 
L 634 3238 
Q 717 3827 1097 4131 
Q 1478 4435 2061 4435 
Q 2662 4435 3046 4124 
Q 3430 3814 3430 3360 
Q 3430 3021 3190 2761 
Q 2950 2502 2502 2374 
Q 3046 2298 3334 1974 
Q 3622 1651 3622 1222 
Q 3622 698 3155 310 
Q 2688 -77 1997 -77 
Q 1299 -77 844 275 
Q 390 627 390 960 
Q 390 1114 505 1184 
Q 621 1254 710 1254 
Q 922 1254 1043 858 
Q 1133 544 1369 377 
Q 1606 211 1952 211 
Q 2419 211 2720 512 
Q 3021 813 3021 1267 
Q 3021 1702 2717 1952 
Q 2413 2202 1862 2202 
L 1568 2202 
L 1568 2502 
L 1754 2502 
Q 2829 2502 2829 3283 
Q 2829 3629 2592 3843 
Q 2355 4058 1952 4058 
Q 1107 4058 934 3194 
z
" transform="scale(0.015625)"/>
       </defs>
       <use xlink:href="#STZhongsong-33"/>
       <use xlink:href="#STZhongsong-30" transform="translate(61.999985 0)"/>
       <use xlink:href="#STZhongsong-30" transform="translate(123.999969 0)"/>
       <use xlink:href="#STZhongsong-30" transform="translate(185.999954 0)"/>
      </g>
     </g>
    </g>
    <g id="ytick_5">
     <g id="line2d_14">
      <path d="M 71.480937 142.860062 
L 849.207188 142.860062 
" clip-path="url(#pe9990a34c4)" style="fill: none; stroke: #ececec; stroke-width: 0.9; stroke-linecap: square"/>
     </g>
     <g id="line2d_15">
      <g>
       <use xlink:href="#m6c6f501f0f" x="71.480937" y="142.860062" style="fill: #111111; stroke: #111111; stroke-width: 0.8"/>
      </g>
     </g>
     <g id="text_11">
      <!-- 4000 -->
      <g style="fill: #111111" transform="translate(27.280938 148.229593) scale(0.15 -0.15)">
       <use xlink:href="#STZhongsong-34"/>
       <use xlink:href="#STZhongsong-30" transform="translate(61.999985 0)"/>
       <use xlink:href="#STZhongsong-30" transform="translate(123.999969 0)"/>
       <use xlink:href="#STZhongsong-30" transform="translate(185.999954 0)"/>
      </g>
     </g>
    </g>
    <g id="ytick_6">
     <g id="line2d_16">
      <path d="M 71.480937 79.848612 
L 849.207188 79.848612 
" clip-path="url(#pe9990a34c4)" style="fill: none; stroke: #ececec; stroke-width: 0.9; stroke-linecap: square"/>
     </g>
     <g id="line2d_17">
      <g>
       <use xlink:href="#m6c6f501f0f" x="71.480937" y="79.848612" style="fill: #111111; stroke: #111111; stroke-width: 0.8"/>
      </g>
     </g>
     <g id="text_12">
      <!-- 5000 -->
      <g style="fill: #111111" transform="translate(27.280938 85.218144) scale(0.15 -0.15)">
       <defs>
        <path id="STZhongsong-35" d="M 934 4358 
L 2880 4358 
Q 3046 4358 3097 4387 
Q 3149 4416 3155 4512 
L 3386 4512 
L 3386 3853 
L 1229 3853 
L 1171 2752 
Q 1530 2848 1990 2848 
Q 2771 2848 3228 2451 
Q 3686 2054 3686 1414 
Q 3686 787 3212 355 
Q 2739 -77 2029 -77 
Q 1414 -77 982 236 
Q 550 550 550 890 
Q 550 1037 640 1123 
Q 730 1210 838 1210 
Q 1062 1210 1203 813 
Q 1421 218 2042 218 
Q 2515 218 2819 528 
Q 3123 838 3123 1312 
Q 3123 1824 2777 2128 
Q 2432 2432 1843 2432 
Q 1280 2432 832 2246 
L 934 4358 
z
" transform="scale(0.015625)"/>
       </defs>
       <use xlink:href="#STZhongsong-35"/>
       <use xlink:href="#STZhongsong-30" transform="translate(61.999985 0)"/>
       <use xlink:href="#STZhongsong-30" transform="translate(123.999969 0)"/>
       <use xlink:href="#STZhongsong-30" transform="translate(185.999954 0)"/>
      </g>
     </g>
    </g>
    <g id="text_13">
     <!-- 企业年度记录数 -->
     <g style="fill: #111111" transform="translate(19.880937 281.8175) rotate(-90) scale(0.17 -0.17)">
      <defs>
       <path id="STZhongsong-4f01" d="M 3232 4314 
Q 3174 4243 3130 4160 
Q 2726 3469 2377 3046 
Q 2029 2624 1542 2272 
Q 1056 1920 218 1459 
L 154 1562 
Q 1139 2291 1696 2979 
Q 2253 3667 2771 4832 
Q 3482 4576 3482 4506 
Q 3482 4467 3341 4410 
Q 4179 3034 6259 2554 
L 6246 2432 
Q 5946 2432 5786 2371 
Q 5626 2310 5472 2112 
Q 5427 2061 5389 2061 
Q 5318 2061 4774 2432 
Q 4230 2803 3852 3251 
Q 3475 3699 3232 4314 
z
M 3558 1414 
L 4179 1414 
L 4429 1754 
Q 4486 1830 4557 1830 
Q 4614 1830 4761 1721 
Q 4909 1613 5056 1472 
Q 5203 1331 5203 1286 
Q 5203 1216 5062 1216 
L 3558 1216 
L 3558 -461 
L 4870 -461 
L 5171 -45 
Q 5235 45 5280 45 
Q 5344 45 5696 -240 
Q 6048 -525 6048 -598 
Q 6048 -672 5933 -672 
L 723 -672 
Q 550 -672 454 -717 
L 339 -429 
Q 474 -461 659 -461 
L 1466 -461 
L 1466 1370 
Q 1466 1690 1453 1939 
Q 1971 1805 2076 1763 
Q 2182 1722 2182 1677 
Q 2182 1632 2016 1549 
L 2016 -461 
L 3034 -461 
L 3034 2413 
Q 3034 2733 3021 2982 
Q 3360 2899 3568 2816 
Q 3776 2733 3776 2682 
Q 3776 2611 3558 2502 
L 3558 1414 
z
" transform="scale(0.015625)"/>
       <path id="STZhongsong-4e1a" d="M 3552 -422 
L 3552 4154 
Q 3552 4646 3539 4755 
Q 3821 4698 4096 4608 
Q 4371 4518 4371 4448 
Q 4371 4378 4096 4243 
L 4096 768 
Q 4659 1626 5158 3341 
Q 5747 3053 5843 2989 
Q 5939 2925 5939 2873 
Q 5939 2822 5818 2810 
Q 5766 2803 5731 2771 
Q 5696 2739 5619 2618 
Q 4813 1210 4096 442 
L 4096 -422 
L 5056 -422 
L 5370 -26 
Q 5440 58 5485 58 
Q 5530 58 5616 -16 
Q 5702 -90 5862 -240 
Q 6022 -390 6092 -476 
Q 6163 -563 6163 -608 
Q 6163 -653 6048 -653 
L 640 -653 
Q 499 -653 416 -685 
L 282 -390 
Q 384 -422 538 -422 
L 2278 -422 
L 2278 4115 
Q 2278 4608 2266 4717 
Q 2886 4576 3001 4531 
Q 3117 4486 3117 4422 
Q 3117 4358 2822 4256 
L 2822 -422 
L 3552 -422 
z
M 787 3181 
Q 1357 2458 1645 2000 
Q 1933 1542 1933 1273 
Q 1933 1005 1757 758 
Q 1581 512 1434 512 
Q 1363 512 1340 557 
Q 1318 602 1318 781 
Q 1318 1754 698 3104 
L 787 3181 
z
" transform="scale(0.015625)"/>
       <path id="STZhongsong-5ea6" d="M 3296 3987 
Q 3219 4301 3120 4473 
Q 3021 4646 2810 4832 
L 2854 4915 
Q 3878 4736 3878 4365 
Q 3878 4269 3814 4166 
Q 3750 4064 3610 3987 
L 5075 3987 
L 5376 4346 
Q 5427 4410 5466 4410 
Q 5536 4410 5808 4163 
Q 6080 3917 6080 3859 
Q 6080 3802 5965 3802 
L 1754 3802 
Q 1754 3488 1741 2931 
L 2656 2931 
L 2656 3277 
Q 2656 3488 2637 3744 
Q 3059 3648 3200 3600 
Q 3341 3552 3341 3507 
Q 3341 3456 3174 3360 
L 3174 2931 
L 4179 2931 
L 4179 3270 
Q 4179 3482 4160 3738 
Q 4653 3629 4765 3581 
Q 4877 3533 4877 3501 
Q 4877 3450 4710 3354 
L 4710 2931 
L 5094 2931 
L 5363 3309 
Q 5402 3360 5434 3360 
Q 5498 3360 5750 3107 
Q 6003 2854 6003 2803 
Q 6003 2752 5888 2752 
L 4710 2752 
L 4710 2355 
Q 4710 2067 4717 1946 
L 4730 1747 
Q 4730 1702 4678 1673 
Q 4627 1645 4457 1590 
Q 4288 1536 4218 1536 
Q 4179 1536 4179 1600 
L 4179 1888 
L 3174 1888 
L 3174 1722 
Q 3174 1677 3164 1648 
Q 3155 1619 2934 1552 
Q 2714 1485 2672 1485 
Q 2630 1485 2630 1530 
L 2643 1754 
Q 2656 1920 2656 2150 
L 2656 2752 
L 1734 2752 
Q 1696 1491 1606 963 
Q 1517 435 1238 -51 
Q 960 -538 358 -1082 
L 275 -1005 
Q 832 -262 1011 477 
Q 1190 1216 1190 2477 
Q 1190 3738 1158 4320 
Q 1510 4198 1843 3987 
L 3296 3987 
z
M 4179 2752 
L 3174 2752 
L 3174 2074 
L 4179 2074 
L 4179 2752 
z
M 3674 -250 
Q 2842 -806 1139 -1069 
L 1139 -941 
Q 2432 -627 3354 19 
Q 2944 422 2669 1133 
L 2387 1133 
Q 2214 1133 2118 1088 
L 2003 1350 
Q 2138 1318 2323 1318 
L 4467 1318 
L 4602 1472 
Q 4653 1530 4697 1530 
Q 4742 1530 5024 1331 
Q 5306 1133 5306 1078 
Q 5306 1024 5206 1017 
Q 5107 1011 5062 995 
Q 5018 979 4954 902 
Q 4506 403 4090 51 
Q 4858 -294 6227 -416 
L 6182 -557 
Q 5894 -557 5721 -643 
Q 5549 -730 5459 -922 
Q 5427 -992 5376 -992 
Q 5280 -992 4681 -768 
Q 4083 -544 3674 -250 
z
M 3686 269 
Q 4166 685 4403 1133 
L 2848 1133 
Q 3187 602 3686 269 
z
" transform="scale(0.015625)"/>
       <path id="STZhongsong-8bb0" d="M 883 4915 
Q 1485 4685 1789 4473 
Q 2093 4262 2093 4035 
Q 2093 3808 1968 3613 
Q 1843 3418 1690 3418 
Q 1568 3418 1491 3674 
Q 1325 4262 819 4826 
L 883 4915 
z
M 4787 2438 
L 4787 4026 
L 2912 4026 
Q 2739 4026 2643 3981 
L 2528 4262 
Q 2662 4230 2848 4230 
L 4742 4230 
L 4909 4538 
Q 4941 4595 4979 4595 
Q 5050 4595 5363 4400 
Q 5677 4205 5677 4137 
Q 5677 4070 5395 3936 
L 5395 2515 
L 5408 2106 
Q 5408 2016 5376 1981 
Q 5344 1946 5142 1862 
Q 4941 1779 4838 1779 
Q 4787 1779 4787 1856 
L 4787 2253 
L 3373 2253 
L 3373 147 
Q 3373 -13 3398 -57 
Q 3424 -102 3485 -128 
Q 3546 -154 3853 -179 
Q 4160 -205 4435 -205 
Q 4710 -205 4969 -169 
Q 5229 -134 5309 -89 
Q 5389 -45 5443 86 
Q 5498 218 5542 474 
Q 5587 730 5658 1267 
L 5792 1267 
Q 5786 723 5853 396 
Q 5920 70 6086 -45 
Q 6170 -102 6170 -172 
Q 6170 -243 6003 -438 
Q 5837 -634 5539 -685 
Q 5242 -736 4474 -736 
Q 3366 -736 3091 -621 
Q 2816 -506 2816 -122 
L 2816 2080 
Q 2816 2515 2797 2797 
Q 3155 2650 3526 2438 
L 4787 2438 
z
M 2662 979 
Q 1984 102 1721 -256 
Q 1459 -614 1293 -896 
Q 1254 -954 1235 -954 
Q 1178 -954 781 -403 
Q 1082 -45 1082 269 
L 1082 2547 
L 512 2547 
Q 397 2547 301 2515 
L 128 2778 
Q 237 2746 397 2746 
L 1024 2746 
L 1216 3034 
Q 1248 3091 1302 3091 
Q 1357 3091 1561 2953 
Q 1766 2816 1849 2765 
Q 1933 2714 1933 2669 
Q 1933 2624 1632 2445 
L 1632 282 
L 2586 1082 
L 2662 979 
z
" transform="scale(0.015625)"/>
       <path id="STZhongsong-5f55" d="M 4250 2637 
L 4275 3347 
L 1766 3347 
Q 1594 3347 1498 3302 
L 1382 3578 
Q 1517 3546 1702 3546 
L 4282 3546 
L 4307 4230 
L 1421 4230 
Q 1248 4230 1152 4186 
L 1037 4461 
Q 1171 4429 1357 4429 
L 4262 4429 
L 4467 4730 
Q 4506 4787 4538 4787 
Q 4595 4787 4889 4553 
Q 5184 4320 5184 4259 
Q 5184 4198 4870 4051 
L 4813 2637 
L 5146 2637 
L 5408 3014 
Q 5478 3117 5539 3117 
Q 5600 3117 5888 2845 
Q 6176 2573 6176 2502 
Q 6176 2419 5965 2419 
L 3501 2419 
Q 3750 1715 4160 1222 
Q 4678 1696 5005 2176 
Q 5427 1811 5494 1744 
Q 5562 1677 5562 1632 
Q 5562 1587 5514 1587 
Q 5466 1587 5430 1593 
Q 5395 1600 5370 1600 
Q 5235 1600 4262 1114 
Q 4947 365 6272 -6 
L 6246 -122 
Q 5901 -102 5680 -172 
Q 5459 -243 5325 -429 
Q 5293 -474 5261 -474 
Q 5171 -474 4704 -74 
Q 4237 326 3933 812 
Q 3629 1299 3469 1952 
L 3469 -32 
Q 3469 -410 3421 -538 
Q 3373 -666 3117 -806 
Q 2861 -947 2809 -947 
Q 2758 -947 2746 -870 
Q 2707 -627 2547 -492 
Q 2387 -358 1952 -230 
L 1952 -102 
Q 2528 -192 2688 -192 
Q 2848 -192 2886 -134 
Q 2925 -77 2925 96 
L 2925 2419 
L 640 2419 
Q 480 2419 365 2387 
L 256 2669 
Q 390 2637 576 2637 
L 4250 2637 
z
M 1114 2202 
Q 1664 1958 1865 1820 
Q 2067 1683 2128 1603 
Q 2189 1523 2189 1369 
Q 2189 1216 2077 1062 
Q 1965 909 1878 909 
Q 1792 909 1734 1075 
Q 1574 1536 1056 2118 
L 1114 2202 
z
M 2714 851 
Q 1805 307 1488 73 
Q 1171 -160 1110 -278 
Q 1050 -397 973 -397 
Q 896 -397 838 -339 
L 365 173 
Q 1587 538 2662 973 
L 2714 851 
z
" transform="scale(0.015625)"/>
       <path id="STZhongsong-6570" d="M 2394 3334 
L 2938 3334 
L 3136 3616 
Q 3181 3680 3245 3680 
Q 3309 3680 3520 3462 
Q 3731 3245 3731 3193 
Q 3731 3142 3610 3142 
L 2394 3142 
L 2394 3027 
Q 2784 2938 3069 2819 
Q 3354 2701 3354 2515 
Q 3354 2381 3296 2227 
Q 3238 2074 3171 2074 
Q 3104 2074 3069 2109 
Q 3034 2144 2963 2259 
Q 2893 2374 2720 2556 
Q 2547 2739 2394 2854 
Q 2406 2381 2406 2259 
Q 2406 2138 2393 2099 
Q 2381 2061 2217 2006 
Q 2054 1952 1971 1933 
Q 2291 1811 2291 1722 
Q 2291 1670 2227 1660 
Q 2163 1651 2118 1609 
Q 2074 1568 1990 1434 
L 2637 1434 
L 2803 1619 
Q 2854 1677 2892 1677 
Q 2931 1677 3190 1481 
Q 3450 1286 3450 1228 
Q 3450 1171 3338 1148 
Q 3226 1126 3168 1088 
Q 3110 1050 3053 941 
Q 2848 563 2637 307 
Q 3040 205 3133 38 
Q 3226 -128 3226 -262 
Q 3226 -397 3187 -467 
Q 3149 -538 3101 -538 
Q 3053 -538 2816 -378 
Q 2579 -218 2278 -51 
Q 1664 -589 384 -992 
L 333 -877 
Q 1338 -371 1875 141 
Q 1440 326 845 474 
Q 1184 954 1331 1222 
L 691 1222 
Q 518 1222 422 1190 
L 307 1453 
Q 410 1434 627 1434 
L 1440 1434 
Q 1626 1824 1690 2035 
Q 1818 1997 1869 1978 
Q 1888 2515 1888 2874 
Q 1421 2125 282 1613 
L 243 1715 
Q 1075 2330 1549 3142 
L 589 3142 
Q 467 3142 390 3110 
L 301 3366 
Q 416 3334 550 3334 
L 1888 3334 
L 1888 4147 
Q 1888 4698 1875 4877 
Q 2592 4723 2592 4653 
Q 2592 4608 2394 4499 
L 2394 3334 
z
M 1856 1222 
L 1427 570 
Q 1914 480 2138 429 
Q 2413 762 2630 1222 
L 1856 1222 
z
M 4326 3270 
L 5222 3270 
L 5485 3590 
Q 5549 3661 5609 3661 
Q 5670 3661 5939 3421 
Q 6208 3181 6208 3117 
Q 6208 3072 6054 3072 
L 5050 3072 
Q 5638 2925 5638 2810 
Q 5638 2771 5542 2742 
Q 5446 2714 5404 2643 
Q 5363 2573 5338 2438 
Q 5088 1069 4749 518 
Q 5261 -186 6304 -646 
L 6246 -774 
Q 6080 -730 5933 -730 
Q 5658 -730 5446 -902 
Q 5389 -947 5363 -947 
Q 5299 -947 4934 -534 
Q 4570 -122 4448 102 
Q 4115 -301 3657 -579 
Q 3200 -858 2470 -1139 
L 2413 -1005 
Q 3642 -307 4211 544 
Q 3942 1152 3878 2342 
Q 3654 1946 3322 1491 
L 3213 1555 
Q 3949 2963 4109 4877 
Q 4333 4832 4563 4761 
Q 4794 4691 4858 4649 
Q 4922 4608 4922 4563 
Q 4922 4518 4813 4492 
Q 4704 4467 4653 4384 
Q 4602 4301 4538 3974 
Q 4474 3648 4326 3270 
z
M 4870 3072 
L 4250 3072 
L 4064 2682 
Q 4141 1594 4454 979 
Q 4723 1619 4870 3072 
z
M 3104 4602 
Q 3264 4525 3453 4422 
Q 3642 4320 3670 4288 
Q 3699 4256 3699 4221 
Q 3699 4186 3673 4170 
Q 3648 4154 3539 4154 
Q 3430 4154 3315 4038 
Q 2957 3680 2528 3392 
L 2464 3488 
Q 2906 4102 3104 4602 
z
M 653 4512 
Q 1171 4326 1353 4201 
Q 1536 4077 1536 3901 
Q 1536 3725 1453 3590 
Q 1370 3456 1286 3456 
Q 1203 3456 1164 3494 
Q 1126 3533 1084 3673 
Q 1043 3814 899 4038 
Q 755 4262 589 4429 
L 653 4512 
z
" transform="scale(0.015625)"/>
      </defs>
      <use xlink:href="#STZhongsong-4f01"/>
      <use xlink:href="#STZhongsong-4e1a" transform="translate(99.999985 0)"/>
      <use xlink:href="#STZhongsong-5e74" transform="translate(199.999969 0)"/>
      <use xlink:href="#STZhongsong-5ea6" transform="translate(299.999954 0)"/>
      <use xlink:href="#STZhongsong-8bb0" transform="translate(399.999939 0)"/>
      <use xlink:href="#STZhongsong-5f55" transform="translate(499.999924 0)"/>
      <use xlink:href="#STZhongsong-6570" transform="translate(599.999908 0)"/>
     </g>
    </g>
   </g>
   <g id="line2d_18">
    <path d="M 106.832131 344.811758 
L 185.390338 267.118641 
L 263.948545 157.289684 
L 342.506752 83.062196 
L 421.064959 77.013097 
L 499.623166 93.585108 
L 578.181373 100.516368 
L 656.73958 85.8347 
L 735.297787 72.224227 
L 813.855994 55.715227 
" clip-path="url(#pe9990a34c4)" style="fill: none; stroke: #4c78a8; stroke-width: 3.1; stroke-linecap: square"/>
    <defs>
     <path id="mb8ce725555" d="M 0 4.3 
C 1.140373 4.3 2.234193 3.846925 3.040559 3.040559 
C 3.846925 2.234193 4.3 1.140373 4.3 0 
C 4.3 -1.140373 3.846925 -2.234193 3.040559 -3.040559 
C 2.234193 -3.846925 1.140373 -4.3 0 -4.3 
C -1.140373 -4.3 -2.234193 -3.846925 -3.040559 -3.040559 
C -3.846925 -2.234193 -4.3 -1.140373 -4.3 0 
C -4.3 1.140373 -3.846925 2.234193 -3.040559 3.040559 
C -2.234193 3.846925 -1.140373 4.3 0 4.3 
z
" style="stroke: #4c78a8"/>
    </defs>
    <g clip-path="url(#pe9990a34c4)">
     <use xlink:href="#mb8ce725555" x="106.832131" y="344.811758" style="fill: #4c78a8; stroke: #4c78a8"/>
     <use xlink:href="#mb8ce725555" x="185.390338" y="267.118641" style="fill: #4c78a8; stroke: #4c78a8"/>
     <use xlink:href="#mb8ce725555" x="263.948545" y="157.289684" style="fill: #4c78a8; stroke: #4c78a8"/>
     <use xlink:href="#mb8ce725555" x="342.506752" y="83.062196" style="fill: #4c78a8; stroke: #4c78a8"/>
     <use xlink:href="#mb8ce725555" x="421.064959" y="77.013097" style="fill: #4c78a8; stroke: #4c78a8"/>
     <use xlink:href="#mb8ce725555" x="499.623166" y="93.585108" style="fill: #4c78a8; stroke: #4c78a8"/>
     <use xlink:href="#mb8ce725555" x="578.181373" y="100.516368" style="fill: #4c78a8; stroke: #4c78a8"/>
     <use xlink:href="#mb8ce725555" x="656.73958" y="85.8347" style="fill: #4c78a8; stroke: #4c78a8"/>
     <use xlink:href="#mb8ce725555" x="735.297787" y="72.224227" style="fill: #4c78a8; stroke: #4c78a8"/>
     <use xlink:href="#mb8ce725555" x="813.855994" y="55.715227" style="fill: #4c78a8; stroke: #4c78a8"/>
    </g>
   </g>
   <g id="line2d_19">
    <path d="M 106.832131 359.178369 
L 185.390338 300.388686 
L 263.948545 215.134195 
L 342.506752 147.711944 
L 421.064959 136.810963 
L 499.623166 150.673482 
L 578.181373 153.256951 
L 656.73958 135.80278 
L 735.297787 114.756956 
L 813.855994 100.705402 
" clip-path="url(#pe9990a34c4)" style="fill: none; stroke: #72b7b2; stroke-width: 3.1; stroke-linecap: square"/>
    <defs>
     <path id="m4db571aea4" d="M 0 4.3 
C 1.140373 4.3 2.234193 3.846925 3.040559 3.040559 
C 3.846925 2.234193 4.3 1.140373 4.3 0 
C 4.3 -1.140373 3.846925 -2.234193 3.040559 -3.040559 
C 2.234193 -3.846925 1.140373 -4.3 0 -4.3 
C -1.140373 -4.3 -2.234193 -3.846925 -3.040559 -3.040559 
C -3.846925 -2.234193 -4.3 -1.140373 -4.3 0 
C -4.3 1.140373 -3.846925 2.234193 -3.040559 3.040559 
C -2.234193 3.846925 -1.140373 4.3 0 4.3 
z
" style="stroke: #72b7b2"/>
    </defs>
    <g clip-path="url(#pe9990a34c4)">
     <use xlink:href="#m4db571aea4" x="106.832131" y="359.178369" style="fill: #72b7b2; stroke: #72b7b2"/>
     <use xlink:href="#m4db571aea4" x="185.390338" y="300.388686" style="fill: #72b7b2; stroke: #72b7b2"/>
     <use xlink:href="#m4db571aea4" x="263.948545" y="215.134195" style="fill: #72b7b2; stroke: #72b7b2"/>
     <use xlink:href="#m4db571aea4" x="342.506752" y="147.711944" style="fill: #72b7b2; stroke: #72b7b2"/>
     <use xlink:href="#m4db571aea4" x="421.064959" y="136.810963" style="fill: #72b7b2; stroke: #72b7b2"/>
     <use xlink:href="#m4db571aea4" x="499.623166" y="150.673482" style="fill: #72b7b2; stroke: #72b7b2"/>
     <use xlink:href="#m4db571aea4" x="578.181373" y="153.256951" style="fill: #72b7b2; stroke: #72b7b2"/>
     <use xlink:href="#m4db571aea4" x="656.73958" y="135.80278" style="fill: #72b7b2; stroke: #72b7b2"/>
     <use xlink:href="#m4db571aea4" x="735.297787" y="114.756956" style="fill: #72b7b2; stroke: #72b7b2"/>
     <use xlink:href="#m4db571aea4" x="813.855994" y="100.705402" style="fill: #72b7b2; stroke: #72b7b2"/>
    </g>
   </g>
   <g id="line2d_20">
    <path d="M 106.832131 381.295387 
L 185.390338 364.975422 
L 263.948545 341.661186 
L 342.506752 318.031892 
L 421.064959 315.952514 
L 499.623166 317.96888 
L 578.181373 322.253659 
L 656.73958 313.18001 
L 735.297787 305.177556 
L 813.855994 303.035167 
" clip-path="url(#pe9990a34c4)" style="fill: none; stroke: #59a14f; stroke-width: 3.1; stroke-linecap: square"/>
    <defs>
     <path id="m332eb30177" d="M 0 4.3 
C 1.140373 4.3 2.234193 3.846925 3.040559 3.040559 
C 3.846925 2.234193 4.3 1.140373 4.3 0 
C 4.3 -1.140373 3.846925 -2.234193 3.040559 -3.040559 
C 2.234193 -3.846925 1.140373 -4.3 0 -4.3 
C -1.140373 -4.3 -2.234193 -3.846925 -3.040559 -3.040559 
C -3.846925 -2.234193 -4.3 -1.140373 -4.3 0 
C -4.3 1.140373 -3.846925 2.234193 -3.040559 3.040559 
C -2.234193 3.846925 -1.140373 4.3 0 4.3 
z
" style="stroke: #59a14f"/>
    </defs>
    <g clip-path="url(#pe9990a34c4)">
     <use xlink:href="#m332eb30177" x="106.832131" y="381.295387" style="fill: #59a14f; stroke: #59a14f"/>
     <use xlink:href="#m332eb30177" x="185.390338" y="364.975422" style="fill: #59a14f; stroke: #59a14f"/>
     <use xlink:href="#m332eb30177" x="263.948545" y="341.661186" style="fill: #59a14f; stroke: #59a14f"/>
     <use xlink:href="#m332eb30177" x="342.506752" y="318.031892" style="fill: #59a14f; stroke: #59a14f"/>
     <use xlink:href="#m332eb30177" x="421.064959" y="315.952514" style="fill: #59a14f; stroke: #59a14f"/>
     <use xlink:href="#m332eb30177" x="499.623166" y="317.96888" style="fill: #59a14f; stroke: #59a14f"/>
     <use xlink:href="#m332eb30177" x="578.181373" y="322.253659" style="fill: #59a14f; stroke: #59a14f"/>
     <use xlink:href="#m332eb30177" x="656.73958" y="313.18001" style="fill: #59a14f; stroke: #59a14f"/>
     <use xlink:href="#m332eb30177" x="735.297787" y="305.177556" style="fill: #59a14f; stroke: #59a14f"/>
     <use xlink:href="#m332eb30177" x="813.855994" y="303.035167" style="fill: #59a14f; stroke: #59a14f"/>
    </g>
   </g>
   <g id="line2d_21">
    <path d="M 106.832131 387.407498 
L 185.390338 377.5147 
L 263.948545 363.463147 
L 342.506752 353.003246 
L 421.064959 350.10472 
L 499.623166 350.797846 
L 578.181373 348.403411 
L 656.73958 342.606357 
L 735.297787 335.486063 
L 813.855994 332.209468 
" clip-path="url(#pe9990a34c4)" style="fill: none; stroke: #f28e2b; stroke-width: 3.1; stroke-linecap: square"/>
    <defs>
     <path id="ma02b514916" d="M 0 4.3 
C 1.140373 4.3 2.234193 3.846925 3.040559 3.040559 
C 3.846925 2.234193 4.3 1.140373 4.3 0 
C 4.3 -1.140373 3.846925 -2.234193 3.040559 -3.040559 
C 2.234193 -3.846925 1.140373 -4.3 0 -4.3 
C -1.140373 -4.3 -2.234193 -3.846925 -3.040559 -3.040559 
C -3.846925 -2.234193 -4.3 -1.140373 -4.3 0 
C -4.3 1.140373 -3.846925 2.234193 -3.040559 3.040559 
C -2.234193 3.846925 -1.140373 4.3 0 4.3 
z
" style="stroke: #f28e2b"/>
    </defs>
    <g clip-path="url(#pe9990a34c4)">
     <use xlink:href="#ma02b514916" x="106.832131" y="387.407498" style="fill: #f28e2b; stroke: #f28e2b"/>
     <use xlink:href="#ma02b514916" x="185.390338" y="377.5147" style="fill: #f28e2b; stroke: #f28e2b"/>
     <use xlink:href="#ma02b514916" x="263.948545" y="363.463147" style="fill: #f28e2b; stroke: #f28e2b"/>
     <use xlink:href="#ma02b514916" x="342.506752" y="353.003246" style="fill: #f28e2b; stroke: #f28e2b"/>
     <use xlink:href="#ma02b514916" x="421.064959" y="350.10472" style="fill: #f28e2b; stroke: #f28e2b"/>
     <use xlink:href="#ma02b514916" x="499.623166" y="350.797846" style="fill: #f28e2b; stroke: #f28e2b"/>
     <use xlink:href="#ma02b514916" x="578.181373" y="348.403411" style="fill: #f28e2b; stroke: #f28e2b"/>
     <use xlink:href="#ma02b514916" x="656.73958" y="342.606357" style="fill: #f28e2b; stroke: #f28e2b"/>
     <use xlink:href="#ma02b514916" x="735.297787" y="335.486063" style="fill: #f28e2b; stroke: #f28e2b"/>
     <use xlink:href="#ma02b514916" x="813.855994" y="332.209468" style="fill: #f28e2b; stroke: #f28e2b"/>
    </g>
   </g>
   <g id="line2d_22">
    <path d="M 106.832131 388.919773 
L 185.390338 382.933685 
L 263.948545 377.325666 
L 342.506752 371.780658 
L 421.064959 370.709464 
L 499.623166 369.386223 
L 578.181373 368.882132 
L 656.73958 366.109628 
L 735.297787 364.156273 
L 813.855994 364.282296 
" clip-path="url(#pe9990a34c4)" style="fill: none; stroke: #b07aa1; stroke-width: 3.1; stroke-linecap: square"/>
    <defs>
     <path id="m328364e572" d="M 0 4.3 
C 1.140373 4.3 2.234193 3.846925 3.040559 3.040559 
C 3.846925 2.234193 4.3 1.140373 4.3 0 
C 4.3 -1.140373 3.846925 -2.234193 3.040559 -3.040559 
C 2.234193 -3.846925 1.140373 -4.3 0 -4.3 
C -1.140373 -4.3 -2.234193 -3.846925 -3.040559 -3.040559 
C -3.846925 -2.234193 -4.3 -1.140373 -4.3 0 
C -4.3 1.140373 -3.846925 2.234193 -3.040559 3.040559 
C -2.234193 3.846925 -1.140373 4.3 0 4.3 
z
" style="stroke: #b07aa1"/>
    </defs>
    <g clip-path="url(#pe9990a34c4)">
     <use xlink:href="#m328364e572" x="106.832131" y="388.919773" style="fill: #b07aa1; stroke: #b07aa1"/>
     <use xlink:href="#m328364e572" x="185.390338" y="382.933685" style="fill: #b07aa1; stroke: #b07aa1"/>
     <use xlink:href="#m328364e572" x="263.948545" y="377.325666" style="fill: #b07aa1; stroke: #b07aa1"/>
     <use xlink:href="#m328364e572" x="342.506752" y="371.780658" style="fill: #b07aa1; stroke: #b07aa1"/>
     <use xlink:href="#m328364e572" x="421.064959" y="370.709464" style="fill: #b07aa1; stroke: #b07aa1"/>
     <use xlink:href="#m328364e572" x="499.623166" y="369.386223" style="fill: #b07aa1; stroke: #b07aa1"/>
     <use xlink:href="#m328364e572" x="578.181373" y="368.882132" style="fill: #b07aa1; stroke: #b07aa1"/>
     <use xlink:href="#m328364e572" x="656.73958" y="366.109628" style="fill: #b07aa1; stroke: #b07aa1"/>
     <use xlink:href="#m328364e572" x="735.297787" y="364.156273" style="fill: #b07aa1; stroke: #b07aa1"/>
     <use xlink:href="#m328364e572" x="813.855994" y="364.282296" style="fill: #b07aa1; stroke: #b07aa1"/>
    </g>
   </g>
   <g id="patch_3">
    <path d="M 71.480937 405.58 
L 71.480937 39.055 
" style="fill: none; stroke: #111111; stroke-width: 1.35; stroke-linejoin: miter; stroke-linecap: square"/>
   </g>
   <g id="patch_4">
    <path d="M 71.480937 405.58 
L 849.207187 405.58 
" style="fill: none; stroke: #111111; stroke-width: 1.35; stroke-linejoin: miter; stroke-linecap: square"/>
   </g>
   <g id="text_14">
    <!-- 主要技术门类年度数量变化 -->
    <g style="fill: #111111" transform="translate(334.344063 23.055) scale(0.21 -0.21)">
     <defs>
      <path id="STZhongsong-4e3b" d="M 2515 4973 
Q 3578 4512 3578 4038 
Q 3578 3878 3450 3731 
Q 3322 3584 3162 3584 
Q 3085 3584 3046 3613 
Q 3008 3642 2960 3894 
Q 2912 4147 2813 4358 
Q 2714 4570 2451 4870 
L 2515 4973 
z
M 2848 3238 
L 992 3238 
Q 819 3238 723 3194 
L 608 3475 
Q 742 3443 928 3443 
L 4774 3443 
L 5107 3917 
Q 5152 3981 5184 3981 
Q 5248 3981 5571 3696 
Q 5894 3411 5894 3324 
Q 5894 3238 5766 3238 
L 3482 3238 
L 3482 1670 
L 4576 1670 
L 4781 1984 
Q 4851 2086 4934 2086 
Q 5018 2086 5331 1836 
Q 5645 1587 5645 1526 
Q 5645 1466 5485 1466 
L 3482 1466 
L 3482 -314 
L 5101 -314 
L 5408 96 
Q 5466 173 5504 173 
Q 5574 173 5897 -99 
Q 6221 -371 6221 -444 
Q 6221 -518 6086 -518 
L 538 -518 
Q 365 -518 269 -563 
L 154 -282 
Q 288 -314 474 -314 
L 2848 -314 
L 2848 1466 
L 1261 1466 
Q 1088 1466 992 1421 
L 877 1702 
Q 1011 1670 1197 1670 
L 2848 1670 
L 2848 3238 
z
" transform="scale(0.015625)"/>
      <path id="STZhongsong-8981" d="M 2221 4166 
L 698 4166 
Q 525 4166 429 4122 
L 314 4378 
Q 448 4346 634 4346 
L 4928 4346 
L 5222 4787 
Q 5280 4864 5347 4864 
Q 5414 4864 5728 4601 
Q 6042 4339 6042 4256 
Q 6042 4166 5830 4166 
L 4045 4166 
L 4045 3507 
L 4730 3507 
L 4909 3770 
Q 4960 3846 4995 3846 
Q 5030 3846 5331 3660 
Q 5632 3475 5632 3418 
Q 5632 3354 5363 3232 
L 5363 2342 
Q 5363 2240 5370 2163 
L 5382 2022 
Q 5382 1946 5161 1859 
Q 4941 1773 4864 1773 
Q 4813 1773 4813 1850 
L 4813 2170 
L 1523 2170 
L 1523 2061 
Q 1523 1952 1481 1913 
Q 1440 1875 1273 1824 
Q 1107 1773 1011 1773 
Q 966 1773 973 1850 
Q 998 2080 998 2310 
L 998 3226 
Q 998 3469 979 3738 
Q 1370 3635 1574 3507 
L 2221 3507 
L 2221 4166 
z
M 3475 4166 
L 2758 4166 
L 2758 3507 
L 3475 3507 
L 3475 4166 
z
M 2221 2342 
L 2221 3341 
L 1523 3341 
L 1523 2342 
L 2221 2342 
z
M 4045 3341 
L 4045 2342 
L 4813 2342 
L 4813 3341 
L 4045 3341 
z
M 3475 2342 
L 3475 3341 
L 2758 3341 
L 2758 2342 
L 3475 2342 
z
M 2061 1203 
L 640 1203 
Q 480 1203 397 1165 
L 288 1402 
Q 416 1370 582 1370 
L 2176 1370 
Q 2451 1773 2618 2131 
Q 2899 2061 3116 1942 
Q 3334 1824 3334 1773 
Q 3334 1722 3228 1702 
Q 3123 1683 3062 1628 
Q 3002 1574 2931 1484 
Q 2861 1395 2842 1370 
L 5082 1370 
L 5382 1798 
Q 5440 1882 5526 1882 
Q 5613 1882 5897 1603 
Q 6182 1325 6182 1248 
Q 6182 1203 6067 1203 
L 4640 1203 
Q 4333 614 3808 179 
Q 4960 -45 5238 -269 
Q 5517 -493 5517 -794 
Q 5517 -909 5469 -979 
Q 5421 -1050 5338 -1050 
Q 5261 -1050 4979 -832 
Q 4358 -352 3469 -70 
Q 2394 -794 557 -934 
L 563 -806 
Q 2029 -570 2963 58 
Q 2246 224 1274 294 
Q 1786 813 2061 1203 
z
M 3974 1203 
L 2714 1203 
Q 2298 678 2106 467 
Q 2637 390 3258 282 
Q 3744 698 3974 1203 
z
" transform="scale(0.015625)"/>
      <path id="STZhongsong-6280" d="M 3917 70 
Q 3034 -602 1926 -915 
L 1875 -787 
Q 2989 -288 3629 397 
Q 3123 1088 2963 2234 
L 2784 2234 
Q 2650 2234 2547 2195 
L 2470 2387 
L 1779 1971 
L 1779 -275 
Q 1779 -550 1689 -662 
Q 1600 -774 1376 -892 
Q 1152 -1011 1101 -1011 
Q 1050 -1011 1018 -909 
Q 960 -691 816 -585 
Q 672 -480 211 -339 
L 230 -224 
Q 730 -262 938 -262 
Q 1146 -262 1197 -224 
Q 1248 -186 1248 -77 
L 1248 1658 
Q 730 1350 666 1308 
Q 602 1267 576 1267 
Q 550 1267 534 1286 
Q 518 1306 435 1437 
Q 352 1568 230 1786 
Q 659 1888 1248 2131 
L 1248 3174 
L 486 3174 
Q 326 3174 211 3142 
L 102 3405 
Q 237 3373 422 3373 
L 1248 3373 
L 1248 4154 
Q 1248 4525 1235 4845 
Q 1958 4640 1958 4557 
Q 1958 4506 1779 4384 
L 1779 3373 
L 1952 3373 
L 2170 3661 
Q 2227 3738 2278 3738 
Q 2330 3738 2557 3510 
Q 2784 3283 2784 3232 
Q 2784 3174 2669 3174 
L 1779 3174 
L 1779 2342 
L 2790 2752 
L 2848 2618 
L 2547 2438 
Q 2598 2432 2726 2432 
L 3706 2432 
L 3706 3456 
L 3027 3456 
Q 2880 3456 2790 3411 
L 2682 3686 
Q 2810 3654 2970 3654 
L 3706 3654 
L 3706 4390 
Q 3706 4678 3693 4902 
Q 3955 4838 4166 4768 
Q 4378 4698 4432 4669 
Q 4486 4640 4486 4589 
Q 4486 4538 4282 4403 
L 4282 3654 
L 5018 3654 
L 5274 4026 
Q 5325 4102 5363 4102 
Q 5434 4102 5709 3846 
Q 5984 3590 5984 3526 
Q 5984 3456 5837 3456 
L 4282 3456 
L 4282 2432 
L 4723 2432 
L 4909 2688 
Q 4947 2739 4986 2739 
Q 5037 2739 5325 2569 
Q 5613 2400 5613 2352 
Q 5613 2304 5504 2262 
Q 5395 2221 5350 2169 
Q 5306 2118 5261 2016 
Q 4800 979 4320 454 
Q 4870 13 6208 -307 
L 6208 -435 
Q 5888 -448 5747 -534 
Q 5606 -621 5491 -845 
Q 5459 -902 5434 -902 
Q 5363 -902 4873 -624 
Q 4384 -346 3917 70 
z
M 3949 762 
Q 4378 1248 4730 2234 
L 3155 2234 
Q 3418 1325 3949 762 
z
" transform="scale(0.015625)"/>
      <path id="STZhongsong-672f" d="M 2880 3002 
L 2880 4141 
Q 2880 4563 2861 4870 
Q 3142 4806 3388 4713 
Q 3635 4621 3686 4592 
Q 3738 4563 3738 4531 
Q 3738 4474 3494 4346 
L 3494 3002 
L 5011 3002 
L 5325 3443 
Q 5382 3520 5427 3520 
Q 5510 3520 5824 3229 
Q 6138 2938 6138 2864 
Q 6138 2790 5958 2790 
L 3808 2790 
Q 4096 1862 4717 1206 
Q 5338 550 6234 256 
L 6208 115 
Q 6112 122 5981 122 
Q 5850 122 5718 67 
Q 5587 13 5421 -198 
Q 5382 -250 5350 -250 
Q 5261 -250 4793 220 
Q 4326 691 4003 1340 
Q 3680 1990 3590 2790 
L 3494 2790 
L 3494 64 
L 3507 -768 
Q 3507 -832 3491 -854 
Q 3475 -877 3353 -934 
Q 3232 -992 3088 -1027 
Q 2944 -1062 2902 -1062 
Q 2861 -1062 2861 -1004 
Q 2861 -947 2870 -713 
Q 2880 -480 2880 -134 
L 2880 2163 
Q 2374 1267 1766 652 
Q 1158 38 230 -512 
L 154 -410 
Q 1869 1056 2451 2790 
L 762 2790 
Q 595 2790 486 2758 
L 378 3034 
Q 512 3002 698 3002 
L 2880 3002 
z
M 4006 4486 
Q 4461 4275 4742 4086 
Q 5024 3898 5024 3699 
Q 5024 3571 4937 3395 
Q 4851 3219 4698 3219 
Q 4608 3219 4569 3264 
Q 4531 3309 4486 3469 
Q 4442 3629 4275 3913 
Q 4109 4198 3936 4390 
L 4006 4486 
z
" transform="scale(0.015625)"/>
      <path id="STZhongsong-95e8" d="M 1261 4928 
Q 1939 4570 2172 4349 
Q 2406 4128 2406 3872 
Q 2406 3616 2275 3481 
Q 2144 3347 2045 3347 
Q 1946 3347 1901 3408 
Q 1856 3469 1824 3616 
Q 1677 4339 1203 4826 
L 1261 4928 
z
M 4858 4058 
L 5043 4397 
Q 5069 4442 5107 4442 
Q 5146 4442 5363 4314 
Q 5581 4186 5702 4093 
Q 5824 4000 5824 3962 
Q 5824 3885 5517 3750 
L 5517 -58 
Q 5517 -339 5481 -476 
Q 5446 -614 5337 -707 
Q 5229 -800 4966 -899 
Q 4704 -998 4637 -998 
Q 4570 -998 4531 -883 
Q 4486 -723 4406 -617 
Q 4326 -512 4134 -413 
Q 3942 -314 3571 -198 
L 3597 -70 
Q 4442 -256 4630 -256 
Q 4819 -256 4876 -214 
Q 4934 -173 4934 -45 
L 4934 3872 
L 3136 3872 
Q 3014 3872 2906 3827 
L 2739 4083 
Q 2886 4058 3059 4058 
L 4858 4058 
z
M 762 3674 
Q 1542 3456 1542 3360 
Q 1542 3315 1363 3213 
L 1363 -691 
Q 1363 -755 1340 -771 
Q 1318 -787 1206 -851 
Q 1094 -915 944 -960 
Q 794 -1005 768 -1005 
Q 742 -1005 742 -973 
L 762 -595 
Q 774 -371 774 -77 
L 774 3104 
Q 774 3424 762 3674 
z
" transform="scale(0.015625)"/>
      <path id="STZhongsong-7c7b" d="M 3757 3251 
Q 4102 3763 4467 4557 
Q 4883 4326 4985 4249 
Q 5088 4173 5088 4128 
Q 5088 4064 4985 4061 
Q 4883 4058 4755 3930 
Q 4499 3686 3987 3251 
L 4973 3251 
L 5197 3590 
Q 5261 3686 5315 3686 
Q 5370 3686 5686 3430 
Q 6003 3174 6003 3116 
Q 6003 3059 5862 3059 
L 3514 3059 
L 3514 2861 
Q 4365 2675 4800 2524 
Q 5235 2374 5379 2227 
Q 5523 2080 5523 1904 
Q 5523 1728 5472 1635 
Q 5421 1542 5344 1542 
Q 5267 1542 5088 1696 
Q 4742 1984 4448 2179 
Q 4154 2374 3514 2714 
L 3526 1965 
Q 3526 1901 3462 1856 
Q 3398 1811 3251 1769 
Q 3104 1728 2982 1728 
Q 2925 1728 2925 1786 
L 2938 2086 
Q 2950 2458 2950 2752 
Q 2528 2221 2061 1952 
Q 1594 1683 595 1382 
L 557 1485 
Q 1786 2074 2483 3059 
L 877 3059 
Q 717 3059 608 3027 
L 499 3283 
Q 634 3251 813 3251 
L 2950 3251 
L 2950 4160 
Q 2950 4582 2931 4890 
Q 3763 4678 3763 4570 
Q 3763 4499 3514 4403 
L 3514 3251 
L 3757 3251 
z
M 1517 4493 
Q 1971 4314 2211 4141 
Q 2451 3968 2451 3798 
Q 2451 3629 2348 3478 
Q 2246 3328 2106 3328 
Q 2042 3328 2019 3366 
Q 1997 3405 1965 3507 
Q 1830 3968 1472 4410 
L 1517 4493 
z
M 3309 864 
Q 3155 314 3027 115 
Q 2899 -83 2550 -332 
Q 2202 -582 1702 -752 
Q 1203 -922 326 -1043 
L 314 -928 
Q 813 -800 1213 -627 
Q 1613 -454 1958 -198 
Q 2304 58 2467 285 
Q 2630 512 2720 864 
L 640 864 
Q 486 864 371 832 
L 262 1088 
Q 397 1056 576 1056 
L 2765 1056 
Q 2822 1389 2829 1715 
Q 3590 1555 3590 1472 
Q 3590 1434 3510 1395 
Q 3430 1357 3414 1277 
Q 3398 1197 3360 1056 
L 5210 1056 
L 5421 1363 
Q 5472 1440 5545 1440 
Q 5619 1440 5891 1200 
Q 6163 960 6163 912 
Q 6163 864 6054 864 
L 3616 864 
Q 4013 237 4598 -86 
Q 5184 -410 6170 -525 
L 6170 -653 
Q 5779 -678 5654 -736 
Q 5530 -794 5402 -986 
Q 5363 -1037 5318 -1037 
Q 5222 -1037 4688 -752 
Q 4154 -467 3885 -124 
Q 3616 218 3418 864 
L 3309 864 
z
" transform="scale(0.015625)"/>
      <path id="STZhongsong-91cf" d="M 2054 4480 
L 4410 4480 
L 4576 4691 
Q 4608 4730 4640 4730 
Q 4691 4730 4969 4582 
Q 5248 4435 5248 4368 
Q 5248 4301 5024 4198 
L 5024 3738 
Q 5024 3552 5037 3341 
L 5043 3142 
Q 5043 3098 5030 3075 
Q 5018 3053 4922 2992 
Q 4826 2931 4685 2876 
Q 4544 2822 4509 2822 
Q 4474 2822 4474 2880 
L 4474 3046 
L 2016 3046 
Q 2029 2989 2006 2960 
Q 1984 2931 1897 2886 
Q 1811 2842 1660 2797 
Q 1510 2752 1475 2752 
Q 1440 2752 1446 2822 
Q 1478 3130 1478 3456 
L 1478 4198 
Q 1478 4467 1459 4742 
Q 1830 4608 2054 4480 
z
M 4474 3853 
L 4474 4294 
L 2016 4294 
L 2016 3853 
L 4474 3853 
z
M 4474 3213 
L 4474 3674 
L 2016 3674 
L 2016 3213 
L 4474 3213 
z
M 5171 2675 
L 5395 3040 
Q 5434 3110 5491 3110 
Q 5549 3110 5690 2989 
L 5984 2746 
Q 6138 2618 6138 2560 
Q 6138 2502 5990 2502 
L 640 2502 
Q 467 2502 371 2458 
L 256 2707 
Q 390 2675 576 2675 
L 5171 2675 
z
M 3482 672 
L 3482 166 
L 4666 166 
L 4864 416 
Q 4902 474 4950 474 
Q 4998 474 5251 285 
Q 5504 96 5504 38 
Q 5504 -19 5286 -19 
L 3482 -19 
L 3482 -550 
L 5203 -550 
L 5434 -230 
Q 5485 -160 5542 -160 
Q 5600 -160 5865 -390 
Q 6131 -621 6131 -691 
Q 6131 -736 5965 -736 
L 582 -736 
Q 410 -736 314 -781 
L 198 -518 
Q 333 -550 518 -550 
L 2931 -550 
L 2931 -19 
L 1274 -19 
Q 1101 -19 1005 -64 
L 877 198 
Q 1011 166 1197 166 
L 2931 166 
L 2931 672 
L 1843 672 
Q 1843 589 1824 569 
Q 1805 550 1725 505 
Q 1645 461 1481 413 
Q 1318 365 1296 365 
Q 1274 365 1280 422 
Q 1312 717 1312 1050 
L 1312 1747 
Q 1312 2074 1293 2355 
Q 1715 2253 1926 2150 
L 4544 2150 
L 4685 2362 
Q 4717 2413 4765 2413 
Q 4813 2413 4944 2333 
Q 5075 2253 5209 2157 
Q 5344 2061 5344 2029 
Q 5344 1971 5126 1850 
L 5126 1363 
Q 5126 1056 5133 954 
L 5139 762 
Q 5139 704 5091 669 
Q 5043 634 4880 592 
Q 4717 550 4627 550 
Q 4576 550 4576 627 
L 4576 672 
L 3482 672 
z
M 2931 1510 
L 2931 1978 
L 1843 1978 
L 1843 1510 
L 2931 1510 
z
M 3482 1978 
L 3482 1510 
L 4576 1510 
L 4576 1978 
L 3482 1978 
z
M 3482 1312 
L 3482 858 
L 4576 858 
L 4576 1312 
L 3482 1312 
z
M 2931 858 
L 2931 1312 
L 1843 1312 
L 1843 858 
L 2931 858 
z
" transform="scale(0.015625)"/>
      <path id="STZhongsong-53d8" d="M 2912 3885 
Q 2835 4390 2330 4787 
L 2381 4915 
Q 2912 4787 3197 4643 
Q 3482 4499 3482 4301 
Q 3482 4211 3430 4092 
Q 3379 3974 3270 3885 
L 4819 3885 
L 5094 4288 
Q 5152 4365 5209 4365 
Q 5267 4365 5564 4080 
Q 5862 3795 5862 3728 
Q 5862 3661 5696 3661 
L 3968 3661 
L 3968 2445 
Q 3968 2182 3974 2048 
L 3987 1837 
Q 3987 1798 3929 1760 
Q 3872 1722 3709 1664 
Q 3546 1606 3469 1606 
Q 3418 1606 3418 1696 
L 3418 3661 
L 2733 3661 
L 2733 1779 
Q 2733 1722 2707 1696 
Q 2682 1670 2474 1600 
Q 2266 1530 2214 1530 
Q 2163 1530 2163 1606 
L 2176 1869 
Q 2182 2138 2182 2451 
L 2182 3661 
L 723 3661 
Q 550 3661 454 3616 
L 339 3917 
Q 474 3885 659 3885 
L 2912 3885 
z
M 1338 3277 
Q 2010 2938 2010 2835 
Q 2010 2784 1917 2768 
Q 1824 2752 1779 2717 
Q 1734 2682 1658 2573 
Q 1382 2150 1065 1859 
Q 749 1568 288 1235 
L 179 1338 
Q 627 1798 873 2214 
Q 1120 2630 1338 3277 
z
M 4275 3238 
Q 4870 2970 5174 2790 
Q 5478 2611 5580 2473 
Q 5683 2336 5683 2137 
Q 5683 1939 5580 1779 
Q 5478 1619 5370 1619 
Q 5306 1619 5261 1683 
Q 5216 1747 5114 1997 
Q 4832 2669 4205 3104 
L 4275 3238 
z
M 3104 -186 
Q 2003 -858 307 -1107 
L 288 -966 
Q 1830 -550 2746 77 
Q 2150 582 1862 1286 
L 1587 1286 
Q 1414 1286 1318 1242 
L 1203 1536 
Q 1338 1504 1523 1504 
L 4077 1504 
L 4288 1715 
Q 4326 1754 4365 1754 
Q 4448 1754 4707 1539 
Q 4966 1325 4966 1274 
Q 4966 1216 4844 1200 
Q 4723 1184 4640 1120 
Q 4557 1056 4378 858 
Q 4013 442 3552 109 
Q 4595 -333 6170 -371 
L 6170 -512 
Q 5830 -538 5622 -630 
Q 5414 -723 5306 -960 
Q 5274 -1018 5222 -1018 
Q 5146 -1018 4643 -874 
Q 4141 -730 3805 -576 
Q 3469 -422 3104 -186 
z
M 3098 333 
Q 3622 736 4026 1286 
L 2074 1286 
Q 2432 710 3098 333 
z
" transform="scale(0.015625)"/>
      <path id="STZhongsong-5316" d="M 1523 2445 
Q 960 1683 237 1114 
L 154 1210 
Q 838 2010 1283 2880 
Q 1728 3750 2010 4890 
Q 2432 4698 2617 4570 
Q 2803 4442 2803 4390 
Q 2803 4326 2630 4301 
Q 2554 4288 2496 4205 
Q 2438 4122 2291 3779 
Q 2144 3437 1933 3072 
Q 2195 2982 2195 2931 
Q 2195 2880 2074 2797 
L 2074 -762 
Q 2074 -819 2013 -864 
Q 1952 -909 1766 -979 
Q 1581 -1050 1536 -1050 
Q 1491 -1050 1491 -986 
L 1504 -531 
Q 1523 -70 1523 518 
L 1523 2445 
z
M 4102 1619 
L 4102 38 
Q 4102 -122 4182 -170 
Q 4262 -218 4745 -218 
Q 5229 -218 5366 -141 
Q 5504 -64 5561 201 
Q 5619 467 5702 1267 
L 5837 1267 
Q 5830 1024 5830 838 
Q 5830 358 5881 182 
Q 5933 6 6054 -58 
Q 6176 -122 6176 -166 
Q 6176 -211 6089 -361 
Q 6003 -512 5907 -598 
Q 5811 -685 5705 -710 
Q 5600 -736 5229 -758 
Q 4858 -781 4454 -781 
Q 4051 -781 3856 -713 
Q 3661 -646 3584 -470 
Q 3507 -294 3507 38 
L 3507 1242 
Q 2957 928 2157 608 
L 2125 749 
Q 2899 1184 3507 1638 
L 3507 4006 
Q 3507 4525 3488 4845 
Q 4384 4570 4384 4461 
Q 4384 4410 4102 4282 
L 4102 2150 
Q 4768 2784 5434 3866 
Q 5664 3635 5824 3408 
Q 5984 3181 5984 3126 
Q 5984 3072 5939 3072 
Q 5894 3072 5856 3081 
Q 5818 3091 5773 3091 
Q 5728 3091 5638 3011 
Q 5549 2931 5357 2733 
Q 4691 2042 4102 1619 
z
" transform="scale(0.015625)"/>
     </defs>
     <use xlink:href="#STZhongsong-4e3b"/>
     <use xlink:href="#STZhongsong-8981" transform="translate(99.999985 0)"/>
     <use xlink:href="#STZhongsong-6280" transform="translate(199.999969 0)"/>
     <use xlink:href="#STZhongsong-672f" transform="translate(299.999954 0)"/>
     <use xlink:href="#STZhongsong-95e8" transform="translate(399.999939 0)"/>
     <use xlink:href="#STZhongsong-7c7b" transform="translate(499.999924 0)"/>
     <use xlink:href="#STZhongsong-5e74" transform="translate(599.999908 0)"/>
     <use xlink:href="#STZhongsong-5ea6" transform="translate(699.999893 0)"/>
     <use xlink:href="#STZhongsong-6570" transform="translate(799.999878 0)"/>
     <use xlink:href="#STZhongsong-91cf" transform="translate(899.999863 0)"/>
     <use xlink:href="#STZhongsong-53d8" transform="translate(999.999847 0)"/>
     <use xlink:href="#STZhongsong-5316" transform="translate(1099.999832 0)"/>
    </g>
   </g>
   <g id="legend_1">
    <g id="line2d_23">
     <path d="M 84.080937 57.550312 
L 98.080937 57.550312 
L 112.080937 57.550312 
" style="fill: none; stroke: #4c78a8; stroke-width: 3.1; stroke-linecap: square"/>
     <g>
      <use xlink:href="#mb8ce725555" x="98.080937" y="57.550312" style="fill: #4c78a8; stroke: #4c78a8"/>
     </g>
    </g>
    <g id="text_15">
     <!-- 电子信息 -->
     <g style="fill: #111111" transform="translate(123.280937 62.450312) scale(0.14 -0.14)">
      <defs>
       <path id="STZhongsong-7535" d="M 1715 3533 
L 2797 3533 
L 2797 4192 
Q 2797 4627 2778 4909 
Q 3104 4832 3337 4745 
Q 3571 4659 3638 4620 
Q 3706 4582 3706 4550 
Q 3706 4480 3366 4326 
L 3366 3533 
L 4512 3533 
L 4691 3821 
Q 4749 3910 4787 3910 
Q 4864 3910 5165 3705 
Q 5466 3501 5466 3449 
Q 5466 3398 5158 3238 
L 5158 1395 
Q 5158 1126 5165 998 
L 5178 794 
Q 5178 736 5133 704 
Q 5088 672 4877 589 
Q 4666 506 4611 506 
Q 4557 506 4557 627 
L 4557 966 
L 3366 966 
L 3366 45 
Q 3366 -122 3385 -179 
Q 3405 -237 3481 -259 
Q 3558 -282 3830 -301 
Q 4102 -320 4604 -320 
Q 5107 -320 5257 -269 
Q 5408 -218 5475 25 
Q 5542 269 5626 1062 
L 5760 1062 
Q 5754 544 5811 259 
Q 5869 -26 6080 -160 
Q 6176 -218 6176 -262 
Q 6176 -346 6013 -554 
Q 5850 -762 5610 -813 
Q 5370 -864 4714 -864 
Q 4058 -864 3661 -838 
Q 3264 -813 3097 -761 
Q 2931 -710 2864 -566 
Q 2797 -422 2797 -96 
L 2797 966 
L 1594 966 
L 1594 621 
Q 1594 563 1574 537 
Q 1555 512 1443 454 
Q 1331 397 1203 355 
Q 1075 314 1030 314 
Q 986 314 992 384 
Q 1024 678 1024 1011 
L 1024 3309 
Q 1024 3635 1005 3917 
Q 1382 3757 1715 3533 
z
M 1594 2317 
L 2797 2317 
L 2797 3334 
L 1594 3334 
L 1594 2317 
z
M 3366 2317 
L 4557 2317 
L 4557 3334 
L 3366 3334 
L 3366 2317 
z
M 2797 2131 
L 1594 2131 
L 1594 1165 
L 2797 1165 
L 2797 2131 
z
M 4557 2131 
L 3366 2131 
L 3366 1165 
L 4557 1165 
L 4557 2131 
z
" transform="scale(0.015625)"/>
       <path id="STZhongsong-5b50" d="M 3475 1843 
L 3475 -38 
Q 3475 -467 3417 -627 
Q 3360 -787 3094 -934 
Q 2829 -1082 2742 -1082 
Q 2656 -1082 2643 -998 
Q 2611 -710 2377 -566 
Q 2144 -422 1715 -346 
L 1715 -198 
Q 2342 -282 2547 -282 
Q 2752 -282 2800 -230 
Q 2848 -179 2848 -38 
L 2848 1843 
L 570 1843 
Q 397 1843 301 1798 
L 186 2080 
Q 320 2048 506 2048 
L 2848 2048 
Q 2848 2931 2822 3181 
Q 3168 3117 3251 3091 
Q 4070 3814 4269 4109 
L 1216 4109 
Q 1043 4109 947 4064 
L 832 4358 
Q 966 4326 1152 4326 
L 4320 4326 
L 4589 4595 
Q 4640 4646 4685 4646 
Q 4730 4646 4822 4576 
Q 4915 4506 5097 4339 
Q 5280 4173 5350 4096 
Q 5421 4019 5421 3984 
Q 5421 3949 5385 3939 
Q 5350 3930 5196 3930 
Q 5043 3930 4745 3773 
Q 4448 3616 3456 3008 
L 3475 3002 
L 3475 2048 
L 4966 2048 
L 5293 2445 
Q 5363 2528 5402 2528 
Q 5472 2528 5769 2253 
Q 6067 1978 6067 1910 
Q 6067 1843 5952 1843 
L 3475 1843 
z
" transform="scale(0.015625)"/>
       <path id="STZhongsong-4fe1" d="M 3821 3866 
Q 3776 3949 3741 4160 
Q 3706 4371 3619 4528 
Q 3533 4685 3296 4922 
L 3347 5018 
Q 3866 4877 4125 4685 
Q 4384 4493 4384 4281 
Q 4384 4070 4154 3866 
L 5114 3866 
L 5344 4250 
Q 5414 4371 5484 4371 
Q 5555 4371 5859 4096 
Q 6163 3821 6163 3753 
Q 6163 3686 6035 3686 
L 2464 3686 
Q 2291 3686 2195 3642 
L 2080 3898 
Q 2214 3866 2400 3866 
L 3821 3866 
z
M 1146 2394 
Q 710 1760 269 1357 
L 166 1440 
Q 1171 2784 1600 4826 
Q 2368 4486 2368 4384 
Q 2368 4346 2246 4320 
Q 2125 4294 2022 4032 
Q 1792 3450 1446 2874 
Q 1709 2797 1776 2758 
Q 1843 2720 1843 2672 
Q 1843 2624 1690 2554 
L 1690 -928 
Q 1690 -992 1642 -1030 
Q 1594 -1069 1405 -1133 
Q 1216 -1197 1152 -1197 
Q 1120 -1197 1120 -1126 
L 1139 -525 
Q 1146 -243 1146 6 
L 1146 2394 
z
M 4710 2970 
L 4909 3328 
Q 4947 3398 4998 3398 
Q 5050 3398 5334 3174 
Q 5619 2950 5619 2860 
Q 5619 2771 5504 2771 
L 2912 2771 
Q 2739 2771 2643 2726 
L 2528 3002 
Q 2662 2970 2848 2970 
L 4710 2970 
z
M 4717 2099 
L 4934 2483 
Q 4966 2534 4998 2534 
Q 5056 2534 5353 2288 
Q 5651 2042 5651 1978 
Q 5651 1914 5530 1914 
L 2950 1914 
Q 2778 1914 2682 1869 
L 2566 2131 
Q 2701 2099 2886 2099 
L 4717 2099 
z
M 3328 1139 
L 4742 1139 
L 4902 1389 
Q 4934 1440 4966 1440 
Q 5011 1440 5318 1267 
Q 5626 1094 5626 1036 
Q 5626 979 5389 870 
L 5389 -378 
Q 5389 -512 5395 -608 
L 5408 -768 
Q 5408 -851 5190 -921 
Q 4973 -992 4870 -992 
Q 4826 -992 4826 -922 
L 4826 -410 
L 3174 -410 
L 3174 -787 
Q 3174 -858 3139 -883 
Q 3104 -909 2893 -976 
Q 2682 -1043 2643 -1043 
Q 2605 -1043 2605 -986 
L 2618 -794 
Q 2624 -544 2624 -422 
L 2624 858 
Q 2624 1126 2605 1402 
Q 3040 1293 3328 1139 
z
M 4826 -211 
L 4826 941 
L 3174 941 
L 3174 -211 
L 4826 -211 
z
" transform="scale(0.015625)"/>
       <path id="STZhongsong-606f" d="M 2534 4102 
Q 2618 4461 2624 4934 
Q 2912 4883 3126 4819 
Q 3341 4755 3379 4729 
Q 3418 4704 3418 4665 
Q 3418 4627 3306 4598 
Q 3194 4570 3088 4470 
Q 2982 4371 2829 4102 
L 4301 4102 
L 4499 4448 
Q 4525 4493 4579 4493 
Q 4634 4493 4858 4352 
Q 5082 4211 5158 4156 
Q 5235 4102 5235 4051 
Q 5235 4000 5030 3853 
L 5030 1875 
Q 5030 1594 5037 1478 
L 5043 1261 
Q 5043 1216 5024 1200 
Q 5005 1184 4896 1139 
Q 4787 1094 4649 1065 
Q 4512 1037 4477 1037 
Q 4442 1037 4442 1216 
L 4442 1453 
L 1952 1453 
L 1952 1222 
Q 1952 1146 1920 1123 
Q 1888 1101 1683 1040 
Q 1478 979 1414 979 
Q 1350 979 1357 1037 
Q 1389 1344 1389 1670 
L 1389 3878 
Q 1389 4326 1382 4422 
Q 1786 4288 2061 4102 
L 2534 4102 
z
M 4442 3270 
L 4442 3923 
L 1952 3923 
L 1952 3270 
L 4442 3270 
z
M 4442 2477 
L 4442 3098 
L 1952 3098 
L 1952 2477 
L 4442 2477 
z
M 4442 1658 
L 4442 2272 
L 1952 2272 
L 1952 1658 
L 4442 1658 
z
M 2854 1267 
Q 3290 1075 3520 918 
Q 3750 762 3750 541 
Q 3750 320 3638 173 
Q 3526 26 3408 26 
Q 3290 26 3245 237 
Q 3123 781 2765 1152 
L 2854 1267 
z
M 4902 1037 
Q 5485 717 5763 451 
Q 6042 186 6042 -83 
Q 6042 -275 5926 -441 
Q 5811 -608 5708 -608 
Q 5606 -608 5564 -557 
Q 5523 -506 5420 -173 
Q 5318 160 5206 368 
Q 5094 576 4800 928 
L 4902 1037 
z
M 4518 742 
Q 4531 19 4832 -237 
Q 4902 -294 4902 -336 
Q 4902 -378 4787 -547 
Q 4672 -717 4550 -790 
Q 4429 -864 4176 -886 
Q 3923 -909 3257 -909 
Q 2592 -909 2304 -867 
Q 2016 -826 1933 -698 
Q 1850 -570 1850 -192 
L 1850 442 
Q 1850 704 1830 966 
Q 2042 922 2246 861 
Q 2451 800 2489 774 
Q 2528 749 2528 707 
Q 2528 666 2387 602 
L 2387 -51 
Q 2387 -224 2406 -285 
Q 2426 -346 2480 -362 
Q 2534 -378 2848 -390 
Q 3162 -403 3379 -403 
Q 3872 -403 4019 -355 
Q 4166 -307 4227 -108 
Q 4288 90 4378 749 
L 4518 742 
z
M 1306 915 
Q 1363 454 1363 186 
Q 1363 -320 1152 -563 
Q 941 -806 710 -806 
Q 563 -806 467 -736 
Q 371 -666 371 -557 
Q 371 -448 563 -269 
Q 858 0 979 262 
Q 1101 525 1165 915 
L 1306 915 
z
" transform="scale(0.015625)"/>
      </defs>
      <use xlink:href="#STZhongsong-7535"/>
      <use xlink:href="#STZhongsong-5b50" transform="translate(99.999985 0)"/>
      <use xlink:href="#STZhongsong-4fe1" transform="translate(199.999969 0)"/>
      <use xlink:href="#STZhongsong-606f" transform="translate(299.999954 0)"/>
     </g>
    </g>
    <g id="line2d_24">
     <path d="M 84.080937 77.780312 
L 98.080937 77.780312 
L 112.080937 77.780312 
" style="fill: none; stroke: #72b7b2; stroke-width: 3.1; stroke-linecap: square"/>
     <g>
      <use xlink:href="#m4db571aea4" x="98.080937" y="77.780312" style="fill: #72b7b2; stroke: #72b7b2"/>
     </g>
    </g>
    <g id="text_16">
     <!-- 高技术服务 -->
     <g style="fill: #111111" transform="translate(123.280937 82.680312) scale(0.14 -0.14)">
      <defs>
       <path id="STZhongsong-9ad8" d="M 3002 4083 
Q 2938 4557 2573 4838 
L 2611 4954 
Q 3629 4845 3629 4474 
Q 3629 4378 3568 4256 
Q 3507 4134 3443 4083 
L 4992 4083 
L 5235 4454 
Q 5306 4563 5405 4563 
Q 5504 4563 5808 4300 
Q 6112 4038 6112 3964 
Q 6112 3891 5984 3891 
L 659 3891 
Q 486 3891 390 3846 
L 275 4115 
Q 410 4083 595 4083 
L 3002 4083 
z
M 4109 2387 
L 2221 2387 
Q 2221 2304 2195 2262 
Q 2170 2221 2003 2166 
Q 1837 2112 1696 2112 
Q 1658 2112 1664 2163 
Q 1696 2477 1696 2739 
L 1696 3226 
Q 1696 3494 1677 3770 
Q 2099 3610 2285 3494 
L 4058 3494 
L 4218 3744 
Q 4243 3789 4304 3789 
Q 4365 3789 4633 3632 
Q 4902 3475 4902 3408 
Q 4902 3341 4653 3251 
L 4653 2861 
Q 4653 2650 4659 2573 
L 4672 2419 
Q 4672 2336 4445 2269 
Q 4218 2202 4147 2202 
Q 4109 2202 4109 2259 
L 4109 2387 
z
M 2221 2573 
L 4109 2573 
L 4109 3296 
L 2221 3296 
L 2221 2573 
z
M 1677 1875 
L 4870 1875 
L 5024 2112 
Q 5056 2157 5097 2157 
Q 5139 2157 5376 2016 
Q 5613 1875 5686 1824 
Q 5760 1773 5760 1725 
Q 5760 1677 5517 1574 
L 5517 -435 
Q 5517 -582 5485 -681 
Q 5453 -781 5353 -861 
Q 5254 -941 5046 -1017 
Q 4838 -1094 4764 -1094 
Q 4691 -1094 4691 -998 
Q 4691 -787 4531 -665 
Q 4371 -544 3878 -435 
L 3910 -288 
Q 4442 -384 4627 -384 
Q 4813 -384 4883 -352 
Q 4954 -320 4954 -218 
L 4954 1696 
L 1485 1696 
L 1485 -813 
Q 1485 -864 1472 -886 
Q 1459 -909 1337 -963 
Q 1216 -1018 1097 -1046 
Q 979 -1075 950 -1075 
Q 922 -1075 922 -1043 
L 941 -698 
Q 954 -480 954 -147 
L 954 1581 
Q 954 1901 941 2150 
Q 1363 2042 1677 1875 
z
M 3744 173 
L 2656 173 
L 2656 32 
Q 2656 -26 2643 -42 
Q 2630 -58 2531 -109 
Q 2432 -160 2317 -192 
Q 2202 -224 2166 -224 
Q 2131 -224 2138 -166 
Q 2170 147 2170 493 
L 2170 883 
Q 2170 1075 2144 1427 
Q 2515 1331 2739 1210 
L 3674 1210 
L 3834 1414 
Q 3878 1472 3926 1472 
Q 3974 1472 4220 1302 
Q 4467 1133 4467 1065 
Q 4467 998 4256 915 
L 4256 531 
Q 4256 365 4262 262 
L 4275 90 
Q 4275 6 4076 -61 
Q 3878 -128 3782 -128 
Q 3744 -128 3744 -70 
L 3744 173 
z
M 2656 358 
L 3744 358 
L 3744 1024 
L 2656 1024 
L 2656 358 
z
" transform="scale(0.015625)"/>
       <path id="STZhongsong-670d" d="M 3770 4422 
L 4845 4422 
L 4992 4666 
Q 5024 4723 5056 4723 
Q 5101 4723 5389 4531 
Q 5677 4339 5677 4284 
Q 5677 4230 5427 4128 
Q 5363 3174 5267 3004 
Q 5171 2835 4934 2704 
Q 4698 2573 4614 2573 
Q 4531 2573 4531 2656 
Q 4525 2861 4361 2957 
Q 4198 3053 3885 3155 
L 3917 3283 
Q 4307 3206 4451 3206 
Q 4595 3206 4659 3232 
Q 4723 3258 4758 3315 
Q 4794 3373 4832 3616 
Q 4870 3859 4890 4198 
L 3699 4198 
L 3699 2291 
L 4909 2291 
L 5062 2509 
Q 5114 2579 5142 2579 
Q 5171 2579 5324 2483 
Q 5478 2387 5603 2294 
Q 5728 2202 5728 2163 
Q 5728 2106 5629 2074 
Q 5530 2042 5491 1987 
Q 5453 1933 5389 1728 
Q 5126 915 4858 538 
Q 5312 77 6259 -262 
L 6259 -390 
Q 5952 -384 5785 -425 
Q 5619 -467 5491 -595 
Q 5434 -646 5395 -646 
Q 5325 -646 4992 -329 
Q 4659 -13 4550 154 
Q 4256 -141 3699 -480 
L 3699 -685 
Q 3699 -781 3667 -816 
Q 3635 -851 3478 -915 
Q 3322 -979 3232 -979 
Q 3181 -979 3181 -896 
L 3194 -544 
Q 3200 -326 3200 -64 
L 3200 4077 
Q 3200 4403 3187 4742 
Q 3533 4602 3770 4422 
z
M 4570 902 
Q 4762 1331 4915 2093 
L 4122 2093 
Q 4282 1350 4570 902 
z
M 3699 2093 
L 3699 -314 
Q 4102 51 4346 461 
Q 4038 1005 3942 2093 
L 3699 2093 
z
M 1427 4448 
L 2080 4448 
L 2195 4685 
Q 2214 4736 2262 4736 
Q 2310 4736 2470 4630 
Q 2630 4525 2739 4457 
Q 2848 4390 2848 4336 
Q 2848 4282 2650 4186 
L 2650 -154 
Q 2650 -480 2550 -608 
Q 2451 -736 2243 -825 
Q 2035 -915 1980 -915 
Q 1926 -915 1875 -876 
Q 1824 -838 1824 -749 
L 1830 -698 
Q 1830 -544 1699 -438 
Q 1568 -333 1306 -250 
L 1331 -115 
Q 1818 -192 1946 -192 
Q 2074 -192 2106 -157 
Q 2138 -122 2138 -26 
L 2138 1568 
L 1376 1568 
Q 1350 704 1126 179 
Q 902 -346 320 -979 
L 211 -896 
Q 614 -269 755 342 
Q 896 954 896 2829 
Q 896 3552 851 4723 
Q 1146 4614 1427 4448 
z
M 1402 3078 
L 2138 3078 
L 2138 4237 
L 1395 4237 
L 1402 3078 
z
M 2138 2867 
L 1395 2867 
Q 1395 2342 1382 1779 
L 2138 1779 
L 2138 2867 
z
" transform="scale(0.015625)"/>
       <path id="STZhongsong-52a1" d="M 2368 3616 
Q 1766 2842 1152 2406 
L 1056 2509 
Q 1882 3296 2419 4915 
Q 2675 4813 2880 4713 
Q 3085 4614 3129 4582 
Q 3174 4550 3174 4512 
Q 3174 4474 3062 4458 
Q 2950 4442 2739 4128 
L 4346 4128 
L 4595 4422 
Q 4640 4474 4688 4474 
Q 4736 4474 4877 4352 
L 5158 4102 
Q 5312 3974 5312 3913 
Q 5312 3853 5184 3846 
Q 5056 3840 5001 3808 
Q 4947 3776 4838 3642 
Q 4314 3008 3814 2618 
Q 4666 2208 6202 2048 
L 6202 1894 
Q 5856 1888 5715 1821 
Q 5574 1754 5472 1555 
Q 5440 1498 5382 1498 
Q 5274 1498 4592 1722 
Q 3910 1946 3398 2330 
Q 3194 2195 2906 2054 
Q 3462 1888 3462 1805 
Q 3462 1779 3398 1740 
Q 3334 1702 3308 1635 
Q 3283 1568 3264 1469 
Q 3245 1370 3219 1280 
L 4307 1280 
L 4461 1517 
Q 4518 1613 4576 1613 
Q 4634 1613 4915 1437 
Q 5197 1261 5197 1209 
Q 5197 1158 4954 1075 
Q 4896 352 4841 0 
Q 4787 -352 4723 -496 
Q 4659 -640 4521 -758 
Q 4384 -877 4166 -966 
Q 3949 -1056 3901 -1056 
Q 3853 -1056 3840 -966 
Q 3821 -736 3632 -614 
Q 3443 -493 3117 -384 
L 3136 -243 
Q 3629 -333 3849 -333 
Q 4070 -333 4144 -246 
Q 4218 -160 4288 227 
Q 4358 614 4358 1075 
L 3174 1075 
Q 2995 326 2729 -13 
Q 2464 -352 2041 -582 
Q 1619 -813 691 -1069 
L 634 -960 
Q 1184 -710 1520 -496 
Q 1856 -282 2019 -112 
Q 2182 58 2348 378 
Q 2515 698 2598 1075 
L 1626 1075 
Q 1453 1075 1357 1030 
L 1242 1312 
Q 1376 1280 1562 1280 
L 2630 1280 
Q 2682 1562 2707 1965 
Q 1888 1594 288 1286 
L 262 1414 
Q 1997 1888 3066 2618 
Q 2656 3021 2368 3616 
z
M 2611 3942 
Q 2566 3872 2490 3776 
Q 2854 3200 3386 2854 
Q 4013 3373 4346 3942 
L 2611 3942 
z
" transform="scale(0.015625)"/>
      </defs>
      <use xlink:href="#STZhongsong-9ad8"/>
      <use xlink:href="#STZhongsong-6280" transform="translate(99.999985 0)"/>
      <use xlink:href="#STZhongsong-672f" transform="translate(199.999969 0)"/>
      <use xlink:href="#STZhongsong-670d" transform="translate(299.999954 0)"/>
      <use xlink:href="#STZhongsong-52a1" transform="translate(399.999939 0)"/>
     </g>
    </g>
    <g id="line2d_25">
     <path d="M 84.080937 98.163437 
L 98.080937 98.163437 
L 112.080937 98.163437 
" style="fill: none; stroke: #59a14f; stroke-width: 3.1; stroke-linecap: square"/>
     <g>
      <use xlink:href="#m332eb30177" x="98.080937" y="98.163437" style="fill: #59a14f; stroke: #59a14f"/>
     </g>
    </g>
    <g id="text_17">
     <!-- 先进制造与自动化技术 -->
     <g style="fill: #111111" transform="translate(123.280937 103.063437) scale(0.14 -0.14)">
      <defs>
       <path id="STZhongsong-5148" d="M 4288 1837 
L 4288 13 
Q 4288 -218 4358 -272 
Q 4429 -326 4803 -326 
Q 5178 -326 5280 -268 
Q 5382 -211 5446 32 
Q 5510 275 5606 960 
L 5760 947 
Q 5747 730 5747 480 
Q 5747 230 5798 48 
Q 5850 -134 6010 -224 
Q 6093 -275 6093 -326 
Q 6093 -378 5949 -566 
Q 5805 -755 5625 -796 
Q 5446 -838 4944 -838 
Q 4442 -838 4157 -793 
Q 3872 -749 3801 -621 
Q 3731 -493 3731 -134 
L 3731 1837 
L 2950 1837 
Q 2944 448 2499 -137 
Q 2054 -723 589 -973 
L 550 -838 
Q 1664 -493 2013 19 
Q 2362 531 2362 1837 
L 742 1837 
Q 570 1837 474 1792 
L 358 2080 
Q 493 2048 678 2048 
L 3168 2048 
L 3168 3155 
L 1869 3155 
Q 1587 2675 1120 2125 
L 986 2202 
Q 1299 2790 1475 3273 
Q 1651 3757 1741 4397 
Q 1984 4307 2205 4201 
Q 2426 4096 2461 4067 
Q 2496 4038 2496 4000 
Q 2496 3962 2403 3936 
Q 2310 3910 2275 3878 
Q 2240 3846 2173 3712 
Q 2106 3578 1978 3354 
L 3168 3354 
L 3168 4160 
Q 3168 4563 3142 4870 
Q 4000 4659 4000 4544 
Q 4000 4474 3718 4365 
L 3718 3354 
L 4646 3354 
L 4922 3731 
Q 4979 3814 5024 3814 
Q 5101 3814 5395 3552 
Q 5690 3290 5690 3213 
Q 5690 3155 5498 3155 
L 3718 3155 
L 3718 2048 
L 5069 2048 
L 5376 2483 
Q 5421 2541 5466 2541 
Q 5542 2541 5824 2262 
Q 6106 1984 6106 1910 
Q 6106 1837 5965 1837 
L 4288 1837 
z
" transform="scale(0.015625)"/>
       <path id="STZhongsong-8fdb" d="M 1075 326 
L 1075 2163 
L 550 2163 
Q 378 2163 282 2118 
L 166 2374 
Q 301 2342 486 2342 
L 973 2342 
L 1133 2630 
Q 1197 2733 1270 2733 
Q 1344 2733 1613 2528 
Q 1882 2323 1882 2278 
Q 1882 2227 1613 2118 
L 1613 256 
Q 1798 6 1984 -109 
Q 2406 320 2611 739 
Q 2816 1158 2880 1722 
L 2170 1722 
Q 2003 1722 1901 1683 
L 1747 1933 
Q 1882 1901 2067 1901 
L 2899 1901 
Q 2938 2330 2938 3187 
L 2381 3187 
Q 2214 3187 2112 3149 
L 1958 3411 
Q 2093 3379 2278 3379 
L 2938 3379 
Q 2938 4026 2912 4838 
Q 3181 4787 3366 4726 
Q 3552 4666 3600 4643 
Q 3648 4621 3648 4589 
Q 3648 4557 3574 4518 
Q 3501 4480 3485 4413 
Q 3469 4346 3469 4090 
Q 3469 3834 3456 3379 
L 4250 3379 
L 4250 4333 
Q 4250 4653 4237 4902 
Q 4518 4858 4768 4774 
Q 5018 4691 5018 4630 
Q 5018 4570 4794 4474 
L 4794 3379 
L 5114 3379 
L 5338 3680 
Q 5395 3763 5462 3763 
Q 5530 3763 5779 3516 
Q 6029 3270 6029 3219 
Q 6029 3187 5888 3187 
L 4794 3187 
L 4794 1901 
L 5197 1901 
L 5478 2272 
Q 5536 2349 5590 2349 
Q 5645 2349 5907 2089 
Q 6170 1830 6170 1760 
Q 6170 1722 6016 1722 
L 4794 1722 
L 4794 678 
L 4806 58 
Q 4806 -32 4774 -64 
Q 4742 -96 4547 -173 
Q 4352 -250 4275 -250 
Q 4230 -250 4230 -160 
L 4243 102 
Q 4250 365 4250 678 
L 4250 1722 
L 3366 1722 
Q 3283 1050 3020 675 
Q 2758 301 2112 -179 
Q 2349 -307 3072 -326 
Q 3795 -346 4403 -346 
Q 5011 -346 6266 -294 
L 6259 -416 
Q 5946 -480 5779 -608 
Q 5613 -736 5594 -890 
Q 5587 -941 5568 -953 
Q 5549 -966 5485 -966 
Q 4762 -966 3904 -905 
Q 3046 -845 2656 -765 
Q 2266 -685 2038 -541 
Q 1811 -397 1574 -51 
Q 1440 141 1334 141 
Q 1229 141 1145 64 
Q 1062 -13 896 -246 
Q 730 -480 595 -742 
Q 563 -806 544 -806 
Q 525 -806 403 -627 
Q 282 -448 154 -218 
Q 838 237 1075 326 
z
M 3392 1901 
L 4250 1901 
L 4250 3187 
L 3456 3187 
Q 3430 2310 3392 1901 
z
M 730 4768 
Q 1254 4576 1555 4390 
Q 1856 4205 1856 3984 
Q 1856 3763 1747 3561 
Q 1638 3360 1504 3360 
Q 1421 3360 1379 3408 
Q 1338 3456 1235 3760 
Q 1133 4064 1005 4262 
Q 877 4461 666 4672 
L 730 4768 
z
" transform="scale(0.015625)"/>
       <path id="STZhongsong-5236" d="M 5178 4877 
Q 5459 4813 5638 4752 
Q 5818 4691 5878 4656 
Q 5939 4621 5939 4569 
Q 5939 4518 5760 4422 
L 5760 -416 
Q 5760 -653 5696 -752 
Q 5632 -851 5305 -979 
Q 4979 -1107 4908 -1107 
Q 4838 -1107 4826 -1011 
Q 4800 -800 4662 -694 
Q 4525 -589 4051 -422 
L 4077 -294 
Q 4742 -384 4928 -384 
Q 5114 -384 5152 -345 
Q 5190 -307 5190 -211 
L 5190 4307 
Q 5190 4627 5178 4877 
z
M 1914 3290 
L 1210 3290 
Q 1088 3066 730 2598 
L 627 2675 
Q 973 3488 1126 4474 
Q 1562 4307 1664 4249 
Q 1766 4192 1766 4147 
Q 1766 4102 1699 4083 
Q 1632 4064 1606 4029 
Q 1581 3994 1475 3782 
Q 1370 3571 1318 3488 
L 1914 3488 
L 1914 4326 
Q 1914 4602 1894 4864 
Q 2669 4659 2669 4550 
Q 2669 4493 2426 4397 
L 2426 3488 
L 2848 3488 
L 3110 3821 
Q 3149 3866 3174 3866 
Q 3238 3866 3478 3642 
Q 3718 3418 3718 3354 
Q 3718 3290 3578 3290 
L 2426 3290 
L 2426 2541 
L 3034 2541 
L 3302 2867 
Q 3354 2925 3392 2925 
Q 3456 2925 3709 2691 
Q 3962 2458 3962 2400 
Q 3962 2342 3853 2342 
L 2426 2342 
L 2426 1690 
L 2950 1690 
L 3117 1914 
Q 3168 1984 3213 1984 
Q 3258 1984 3517 1801 
Q 3776 1619 3776 1568 
Q 3776 1504 3552 1408 
L 3552 134 
Q 3552 -96 3507 -185 
Q 3462 -275 3244 -380 
Q 3027 -486 2976 -486 
Q 2925 -486 2912 -390 
Q 2886 -224 2796 -137 
Q 2707 -51 2470 26 
L 2502 147 
Q 2758 122 2870 122 
Q 2982 122 3011 150 
Q 3040 179 3040 269 
L 3040 1491 
L 2426 1491 
L 2426 -845 
Q 2426 -909 2349 -966 
Q 2272 -1024 2121 -1091 
Q 1971 -1158 1929 -1158 
Q 1888 -1158 1888 -1101 
L 1901 -800 
Q 1914 -486 1914 -237 
L 1914 1491 
L 1370 1491 
L 1370 -224 
Q 1370 -282 1357 -304 
Q 1344 -326 1245 -387 
Q 1146 -448 1030 -489 
Q 915 -531 880 -531 
Q 845 -531 845 -474 
L 858 -186 
Q 870 0 870 211 
L 870 1478 
Q 870 1651 851 1933 
Q 1126 1837 1395 1690 
L 1914 1690 
L 1914 2342 
L 531 2342 
Q 397 2342 314 2298 
L 224 2573 
Q 333 2541 480 2541 
L 1914 2541 
L 1914 3290 
z
M 4122 3789 
Q 4755 3635 4755 3546 
Q 4755 3494 4614 3398 
L 4614 1485 
L 4627 909 
Q 4627 845 4604 819 
Q 4582 794 4400 723 
Q 4218 653 4147 653 
Q 4115 653 4115 710 
L 4128 1069 
Q 4134 1229 4134 1485 
L 4134 3277 
Q 4134 3565 4122 3789 
z
" transform="scale(0.015625)"/>
       <path id="STZhongsong-9020" d="M 2899 3616 
L 3603 3616 
L 3603 4243 
Q 3603 4736 3590 4845 
Q 3878 4813 4140 4713 
Q 4403 4614 4403 4563 
Q 4403 4512 4154 4403 
L 4154 3616 
L 4640 3616 
L 4909 3974 
Q 4947 4032 4986 4032 
Q 5050 4032 5363 3776 
Q 5677 3520 5677 3456 
Q 5677 3418 5549 3418 
L 4154 3418 
L 4154 2496 
L 5075 2496 
L 5325 2810 
Q 5389 2886 5456 2886 
Q 5523 2886 5792 2643 
Q 6061 2400 6061 2336 
Q 6061 2298 5933 2298 
L 2170 2298 
Q 1997 2298 1901 2253 
L 1786 2528 
Q 1920 2496 2106 2496 
L 3603 2496 
L 3603 3418 
L 2790 3418 
Q 2496 2963 2074 2534 
L 1978 2592 
Q 2470 3552 2605 4512 
Q 2874 4442 3101 4323 
Q 3328 4205 3328 4166 
Q 3328 4128 3232 4099 
Q 3136 4070 3085 3996 
Q 3034 3923 2899 3616 
z
M 698 4666 
Q 1216 4365 1472 4118 
Q 1728 3872 1728 3680 
Q 1728 3488 1593 3283 
Q 1459 3078 1347 3078 
Q 1235 3078 1203 3116 
Q 1171 3155 1132 3411 
Q 1094 3667 988 3932 
Q 883 4198 614 4589 
L 698 4666 
z
M 1120 102 
L 1120 2074 
L 512 2074 
Q 339 2074 243 2029 
L 128 2304 
Q 262 2272 448 2272 
L 1114 2272 
L 1267 2483 
Q 1293 2522 1325 2522 
Q 1382 2522 1644 2330 
Q 1907 2138 1907 2083 
Q 1907 2029 1664 1952 
L 1664 141 
Q 1702 122 1766 70 
Q 2016 -134 2243 -214 
Q 2470 -294 2947 -329 
Q 3424 -365 4275 -365 
Q 5126 -365 6157 -326 
L 6157 -442 
Q 5766 -538 5632 -621 
Q 5498 -704 5437 -819 
Q 5376 -934 5357 -950 
Q 5338 -966 5286 -966 
Q 4922 -966 4154 -921 
Q 3386 -877 3037 -841 
Q 2688 -806 2518 -752 
Q 2349 -698 2153 -557 
Q 1958 -416 1664 -134 
Q 1517 6 1453 6 
Q 1344 6 1081 -301 
Q 819 -608 634 -960 
Q 595 -1024 572 -1024 
Q 550 -1024 528 -1005 
Q 506 -986 387 -790 
Q 269 -595 134 -358 
Q 838 0 1120 102 
z
M 3187 1760 
L 4493 1760 
L 4640 1971 
Q 4672 2016 4723 2016 
Q 4774 2016 5052 1827 
Q 5331 1638 5331 1590 
Q 5331 1542 5107 1434 
L 5107 499 
Q 5107 365 5114 269 
L 5126 109 
Q 5126 64 5068 29 
Q 5011 -6 4844 -60 
Q 4678 -115 4608 -115 
Q 4570 -115 4570 -51 
L 4570 371 
L 3078 371 
L 3078 83 
Q 3078 32 3062 6 
Q 3046 -19 2963 -57 
Q 2880 -96 2755 -125 
Q 2630 -154 2595 -154 
Q 2560 -154 2560 -102 
L 2566 122 
Q 2573 224 2573 339 
L 2573 1485 
Q 2573 1754 2554 2029 
Q 2925 1914 3187 1760 
z
M 4570 570 
L 4570 1562 
L 3078 1562 
L 3078 570 
L 4570 570 
z
" transform="scale(0.015625)"/>
       <path id="STZhongsong-4e0e" d="M 2323 3251 
L 2240 2234 
L 4845 2234 
L 4966 2432 
Q 5005 2496 5059 2496 
Q 5114 2496 5354 2339 
Q 5594 2182 5677 2134 
Q 5760 2086 5760 2025 
Q 5760 1965 5459 1818 
Q 5318 358 5260 22 
Q 5203 -314 5043 -592 
Q 4883 -870 4547 -998 
Q 4211 -1126 4109 -1126 
Q 4032 -1126 3987 -979 
Q 3917 -755 3744 -627 
Q 3571 -499 3078 -339 
L 3110 -192 
Q 3795 -333 4057 -333 
Q 4320 -333 4432 -262 
Q 4544 -192 4605 -19 
Q 4666 154 4739 688 
Q 4813 1222 4845 2035 
L 2304 2035 
L 2170 1830 
Q 2118 1747 2060 1747 
Q 2003 1747 1763 1872 
Q 1523 1997 1376 2099 
Q 1562 2214 1613 2275 
Q 1664 2336 1670 2445 
L 1786 4288 
Q 1798 4506 1798 4634 
Q 1798 4762 1792 4858 
Q 2054 4800 2361 4688 
Q 2669 4576 2669 4502 
Q 2669 4429 2419 4352 
L 2342 3462 
L 4864 3462 
L 5126 3891 
Q 5184 3981 5251 3981 
Q 5318 3981 5635 3689 
Q 5952 3398 5952 3324 
Q 5952 3251 5786 3251 
L 2323 3251 
z
M 3418 858 
L 3654 1242 
Q 3706 1325 3795 1325 
Q 3885 1325 4166 1059 
Q 4448 794 4448 704 
Q 4448 653 4314 653 
L 646 653 
Q 474 653 378 608 
L 256 890 
Q 390 858 576 858 
L 3418 858 
z
" transform="scale(0.015625)"/>
       <path id="STZhongsong-81ea" d="M 2042 3770 
L 2419 3770 
Q 2694 4442 2688 4960 
Q 3002 4883 3238 4777 
Q 3475 4672 3513 4640 
Q 3552 4608 3552 4576 
Q 3552 4518 3443 4506 
Q 3206 4474 2733 3770 
L 4378 3770 
L 4570 4077 
Q 4608 4134 4646 4134 
Q 4723 4134 5004 3936 
Q 5286 3738 5286 3664 
Q 5286 3590 5075 3507 
L 5075 -154 
Q 5075 -435 5082 -544 
L 5088 -755 
Q 5088 -813 5033 -851 
Q 4979 -890 4812 -934 
Q 4646 -979 4563 -979 
Q 4480 -979 4461 -969 
Q 4442 -960 4442 -915 
L 4442 -314 
L 1933 -314 
L 1933 -781 
Q 1933 -832 1913 -857 
Q 1894 -883 1776 -944 
Q 1658 -1005 1523 -1033 
Q 1389 -1062 1360 -1062 
Q 1331 -1062 1338 -998 
Q 1370 -704 1370 -365 
L 1370 3494 
Q 1370 3763 1350 4038 
Q 1709 3949 2042 3770 
z
M 4442 2554 
L 4442 3552 
L 1933 3552 
L 1933 2554 
L 4442 2554 
z
M 4442 1331 
L 4442 2336 
L 1933 2336 
L 1933 1331 
L 4442 1331 
z
M 4442 -128 
L 4442 1101 
L 1933 1101 
L 1933 -128 
L 4442 -128 
z
" transform="scale(0.015625)"/>
       <path id="STZhongsong-52a8" d="M 4474 2957 
Q 4365 1498 3942 643 
Q 3520 -211 2400 -1075 
L 2317 -954 
Q 3296 58 3577 912 
Q 3859 1766 3930 2957 
L 3475 2957 
Q 3302 2957 3206 2912 
L 3091 3213 
Q 3226 3181 3411 3181 
L 3942 3181 
Q 3987 3840 3987 4813 
Q 4838 4595 4838 4493 
Q 4838 4448 4694 4371 
Q 4550 4294 4550 4160 
L 4493 3181 
L 5107 3181 
L 5299 3443 
Q 5344 3501 5389 3501 
Q 5434 3501 5632 3373 
L 5920 3181 
Q 6022 3110 6022 3059 
Q 6022 3008 5741 2861 
Q 5741 2470 5696 1548 
Q 5651 627 5606 252 
Q 5562 -122 5414 -346 
Q 5267 -570 4960 -726 
Q 4653 -883 4576 -883 
Q 4499 -883 4474 -762 
Q 4416 -486 4227 -339 
Q 4038 -192 3699 -83 
L 3731 64 
Q 4352 -64 4598 -64 
Q 4845 -64 4931 118 
Q 5018 301 5082 1030 
Q 5146 1760 5158 2957 
L 4474 2957 
z
M 2131 4090 
L 2381 4454 
Q 2426 4518 2474 4518 
Q 2522 4518 2675 4384 
L 2957 4128 
Q 3098 4013 3098 3952 
Q 3098 3891 2976 3891 
L 1088 3891 
Q 915 3891 819 3846 
L 704 4122 
Q 838 4090 1024 4090 
L 2131 4090 
z
M 2502 422 
Q 1581 230 1264 137 
Q 947 45 826 -45 
Q 781 -77 745 -77 
Q 710 -77 640 54 
Q 570 186 435 499 
Q 640 557 755 685 
Q 870 813 1139 1350 
Q 1408 1888 1574 2406 
L 685 2406 
Q 512 2406 416 2362 
L 301 2669 
Q 435 2637 621 2637 
L 2445 2637 
L 2682 2982 
Q 2739 3059 2803 3059 
Q 2867 3059 2940 3004 
Q 3014 2950 3148 2816 
Q 3283 2682 3350 2598 
Q 3418 2515 3418 2460 
Q 3418 2406 3302 2406 
L 1933 2406 
Q 2304 2272 2304 2195 
Q 2304 2112 2195 2106 
Q 2099 2099 2054 2016 
Q 1568 1248 1050 531 
L 2419 646 
Q 2285 979 2022 1293 
L 2099 1408 
Q 2694 1030 2899 796 
Q 3104 563 3104 355 
Q 3104 147 2982 -19 
Q 2861 -186 2726 -186 
Q 2592 -186 2576 16 
Q 2560 218 2502 422 
z
" transform="scale(0.015625)"/>
      </defs>
      <use xlink:href="#STZhongsong-5148"/>
      <use xlink:href="#STZhongsong-8fdb" transform="translate(99.999985 0)"/>
      <use xlink:href="#STZhongsong-5236" transform="translate(199.999969 0)"/>
      <use xlink:href="#STZhongsong-9020" transform="translate(299.999954 0)"/>
      <use xlink:href="#STZhongsong-4e0e" transform="translate(399.999939 0)"/>
      <use xlink:href="#STZhongsong-81ea" transform="translate(499.999924 0)"/>
      <use xlink:href="#STZhongsong-52a8" transform="translate(599.999908 0)"/>
      <use xlink:href="#STZhongsong-5316" transform="translate(699.999893 0)"/>
      <use xlink:href="#STZhongsong-6280" transform="translate(799.999878 0)"/>
      <use xlink:href="#STZhongsong-672f" transform="translate(899.999863 0)"/>
     </g>
    </g>
    <g id="line2d_26">
     <path d="M 291.280937 57.550312 
L 305.280937 57.550312 
L 319.280937 57.550312 
" style="fill: none; stroke: #f28e2b; stroke-width: 3.1; stroke-linecap: square"/>
     <g>
      <use xlink:href="#ma02b514916" x="305.280937" y="57.550312" style="fill: #f28e2b; stroke: #f28e2b"/>
     </g>
    </g>
    <g id="text_18">
     <!-- 新材料技术 -->
     <g style="fill: #111111" transform="translate(330.480937 62.450312) scale(0.14 -0.14)">
      <defs>
       <path id="STZhongsong-65b0" d="M 1754 3904 
Q 1683 3974 1651 4176 
Q 1619 4378 1532 4528 
Q 1446 4678 1312 4838 
L 1376 4922 
Q 1766 4781 1987 4595 
Q 2208 4410 2208 4275 
Q 2208 4102 2022 3904 
L 2445 3904 
L 2656 4205 
Q 2707 4275 2748 4275 
Q 2790 4275 2880 4211 
Q 2970 4147 3117 4019 
Q 3264 3891 3299 3846 
Q 3334 3802 3334 3770 
Q 3334 3706 3200 3706 
L 806 3706 
Q 634 3706 538 3661 
L 422 3936 
Q 557 3904 742 3904 
L 1754 3904 
z
M 4230 4051 
Q 4691 4211 5568 4755 
Q 6035 4166 6035 4083 
Q 6035 4045 5993 4045 
Q 5952 4045 5869 4077 
Q 5786 4109 5706 4109 
Q 5626 4109 5085 3993 
Q 4544 3878 4211 3853 
L 4166 2611 
L 5254 2611 
L 5542 2970 
Q 5600 3040 5632 3040 
Q 5683 3040 5964 2771 
Q 6246 2502 6246 2426 
Q 6246 2381 6118 2381 
L 5306 2381 
L 5306 -179 
Q 5306 -493 5312 -614 
L 5318 -845 
Q 5318 -896 5270 -931 
Q 5222 -966 5043 -1033 
Q 4864 -1101 4816 -1101 
Q 4768 -1101 4768 -1018 
L 4768 2381 
L 4154 2381 
Q 4109 1350 4061 1014 
Q 4013 678 3891 371 
Q 3770 64 3517 -249 
Q 3264 -563 2758 -1018 
L 2630 -909 
Q 3021 -493 3216 -147 
Q 3411 198 3500 643 
Q 3590 1088 3619 1606 
Q 3648 2125 3648 2976 
Q 3648 3827 3635 4326 
Q 3936 4218 4230 4051 
z
M 1971 2432 
Q 2214 3149 2304 3667 
Q 2752 3462 2838 3411 
Q 2925 3360 2925 3328 
Q 2925 3296 2819 3277 
Q 2714 3258 2650 3139 
Q 2586 3021 2195 2432 
L 2618 2432 
L 2880 2733 
Q 2938 2797 2986 2797 
Q 3034 2797 3286 2569 
Q 3539 2342 3539 2288 
Q 3539 2234 3392 2234 
L 2112 2234 
L 2112 1594 
L 2470 1594 
L 2656 1894 
Q 2701 1971 2742 1971 
Q 2784 1971 2941 1859 
Q 3098 1747 3216 1641 
Q 3334 1536 3334 1485 
Q 3334 1395 3174 1395 
L 2112 1395 
L 2112 -51 
Q 2112 -422 2061 -563 
Q 2010 -704 1782 -835 
Q 1555 -966 1488 -966 
Q 1421 -966 1389 -864 
Q 1338 -672 1245 -589 
Q 1152 -506 826 -358 
L 826 -243 
Q 1286 -326 1420 -326 
Q 1555 -326 1587 -275 
Q 1619 -224 1619 -77 
L 1619 1395 
L 787 1395 
Q 614 1395 518 1350 
L 403 1626 
Q 538 1594 723 1594 
L 1619 1594 
L 1619 2234 
L 698 2234 
Q 525 2234 429 2189 
L 314 2464 
Q 448 2432 634 2432 
L 1971 2432 
z
M 973 3629 
Q 1350 3366 1478 3228 
Q 1606 3091 1606 2950 
Q 1606 2810 1516 2650 
Q 1427 2490 1353 2490 
Q 1280 2490 1254 2534 
Q 1229 2579 1193 2790 
Q 1158 3002 1094 3168 
Q 1030 3334 877 3552 
L 973 3629 
z
M 915 1261 
Q 1101 1158 1273 1052 
Q 1446 947 1462 928 
Q 1478 909 1478 890 
Q 1478 832 1370 813 
Q 1312 800 1273 765 
Q 1235 730 1171 614 
Q 864 51 211 -589 
L 109 -506 
Q 653 326 915 1261 
z
M 2304 1210 
Q 2650 1005 2906 803 
Q 3162 602 3162 448 
Q 3162 294 3050 121 
Q 2938 -51 2851 -51 
Q 2765 -51 2720 128 
Q 2573 698 2221 1114 
L 2304 1210 
z
" transform="scale(0.015625)"/>
       <path id="STZhongsong-6750" d="M 2029 3309 
L 2291 3309 
L 2483 3571 
Q 2554 3674 2611 3674 
Q 2669 3674 2896 3462 
Q 3123 3251 3123 3180 
Q 3123 3110 2957 3110 
L 2029 3110 
L 2029 2573 
Q 2438 2394 2643 2266 
Q 2848 2138 2915 2032 
Q 2982 1926 2982 1769 
Q 2982 1613 2876 1472 
Q 2771 1331 2678 1331 
Q 2586 1331 2544 1401 
Q 2502 1472 2470 1574 
Q 2323 2074 2029 2381 
L 2029 -646 
Q 2029 -762 1987 -797 
Q 1946 -832 1773 -883 
Q 1600 -934 1536 -934 
Q 1485 -934 1485 -819 
L 1498 -576 
Q 1504 -326 1504 -19 
L 1504 1862 
Q 1050 858 211 -19 
L 134 58 
Q 653 915 931 1584 
Q 1210 2253 1408 3110 
L 634 3110 
Q 467 3110 358 3078 
L 250 3341 
Q 384 3309 570 3309 
L 1504 3309 
L 1504 4115 
Q 1504 4538 1485 4845 
Q 2285 4678 2285 4595 
Q 2285 4557 2029 4403 
L 2029 3309 
z
M 5165 3245 
L 5254 3245 
L 5472 3558 
Q 5542 3654 5603 3654 
Q 5664 3654 5910 3411 
Q 6157 3168 6157 3101 
Q 6157 3034 6016 3034 
L 5165 3034 
L 5165 -218 
Q 5165 -525 5049 -665 
Q 4934 -806 4694 -902 
Q 4454 -998 4396 -998 
Q 4339 -998 4314 -915 
Q 4243 -691 4041 -540 
Q 3840 -390 3462 -237 
L 3494 -115 
Q 4077 -224 4269 -224 
Q 4461 -224 4537 -185 
Q 4614 -147 4614 -13 
L 4614 2259 
Q 3968 870 2490 -384 
L 2413 -288 
Q 3053 403 3561 1296 
Q 4070 2189 4314 3034 
L 3616 3034 
Q 3443 3034 3347 2989 
L 3174 3277 
Q 3309 3245 3494 3245 
L 4614 3245 
L 4614 4250 
Q 4614 4570 4602 4819 
Q 5395 4710 5395 4614 
Q 5395 4550 5165 4435 
L 5165 3245 
z
" transform="scale(0.015625)"/>
       <path id="STZhongsong-6599" d="M 2029 2598 
L 2342 2598 
L 2534 2906 
Q 2579 2970 2640 2970 
Q 2701 2970 2944 2742 
Q 3187 2515 3187 2457 
Q 3187 2400 3085 2400 
L 2029 2400 
L 2029 2106 
Q 2464 1971 2688 1824 
Q 2912 1677 2912 1434 
Q 2912 1267 2816 1145 
Q 2720 1024 2605 1024 
Q 2547 1024 2496 1190 
Q 2362 1606 2029 1939 
L 2029 -826 
Q 2029 -896 1977 -931 
Q 1926 -966 1740 -1027 
Q 1555 -1088 1520 -1088 
Q 1485 -1088 1485 -1030 
L 1498 -730 
Q 1510 -422 1510 -160 
L 1510 1344 
Q 998 384 275 -288 
L 192 -218 
Q 1075 1088 1440 2400 
L 659 2400 
Q 493 2400 384 2368 
L 275 2630 
Q 410 2598 595 2598 
L 1510 2598 
L 1510 4173 
Q 1510 4595 1491 4902 
Q 1952 4774 2128 4710 
Q 2304 4646 2304 4585 
Q 2304 4525 2029 4403 
L 2029 2598 
z
M 4672 1005 
L 2822 685 
Q 2662 666 2573 589 
L 2413 845 
Q 2586 845 2733 870 
L 4672 1210 
L 4672 4269 
Q 4672 4614 4659 4877 
Q 4864 4832 5113 4758 
Q 5363 4685 5395 4659 
Q 5427 4634 5427 4608 
Q 5427 4531 5210 4422 
L 5210 1306 
L 5395 1338 
L 5568 1734 
Q 5606 1824 5651 1824 
Q 5696 1824 5917 1673 
Q 6138 1523 6224 1446 
Q 6310 1370 6310 1328 
Q 6310 1286 6202 1267 
L 5210 1094 
L 5210 0 
Q 5210 -256 5216 -403 
L 5229 -723 
Q 5229 -781 5171 -819 
Q 5114 -858 4925 -931 
Q 4736 -1005 4691 -1005 
Q 4646 -1005 4646 -934 
L 4666 -576 
Q 4672 -390 4672 -6 
L 4672 1005 
z
M 3418 4454 
Q 3962 4058 4134 3853 
Q 4307 3648 4307 3449 
Q 4307 3251 4188 3100 
Q 4070 2950 3936 2950 
Q 3885 2950 3856 2998 
Q 3827 3046 3795 3200 
Q 3674 3808 3347 4390 
L 3418 4454 
z
M 563 4346 
Q 915 4019 1078 3840 
Q 1242 3661 1286 3561 
Q 1331 3462 1331 3354 
Q 1331 3136 1209 2953 
Q 1088 2771 982 2771 
Q 877 2771 858 2995 
Q 819 3616 486 4282 
L 563 4346 
z
M 2688 4339 
Q 3270 4000 3270 3945 
Q 3270 3891 3155 3885 
Q 3072 3885 2976 3738 
Q 2707 3334 2266 2816 
L 2170 2854 
Q 2458 3501 2688 4339 
z
M 3354 2688 
Q 3738 2400 3930 2192 
Q 4122 1984 4122 1840 
Q 4122 1696 4048 1565 
Q 3974 1434 3923 1392 
Q 3872 1350 3789 1350 
Q 3706 1350 3667 1587 
Q 3571 2080 3290 2624 
L 3354 2688 
z
" transform="scale(0.015625)"/>
      </defs>
      <use xlink:href="#STZhongsong-65b0"/>
      <use xlink:href="#STZhongsong-6750" transform="translate(99.999985 0)"/>
      <use xlink:href="#STZhongsong-6599" transform="translate(199.999969 0)"/>
      <use xlink:href="#STZhongsong-6280" transform="translate(299.999954 0)"/>
      <use xlink:href="#STZhongsong-672f" transform="translate(399.999939 0)"/>
     </g>
    </g>
    <g id="line2d_27">
     <path d="M 291.280937 77.850312 
L 305.280937 77.850312 
L 319.280937 77.850312 
" style="fill: none; stroke: #b07aa1; stroke-width: 3.1; stroke-linecap: square"/>
     <g>
      <use xlink:href="#m328364e572" x="305.280937" y="77.850312" style="fill: #b07aa1; stroke: #b07aa1"/>
     </g>
    </g>
    <g id="text_19">
     <!-- 生物与新医药技术 -->
     <g style="fill: #111111" transform="translate(330.480937 82.750312) scale(0.14 -0.14)">
      <defs>
       <path id="STZhongsong-751f" d="M 3130 1267 
L 1792 1267 
Q 1619 1267 1523 1222 
L 1382 1510 
Q 1517 1478 1702 1478 
L 3130 1478 
L 3130 2925 
L 1894 2925 
Q 1427 1997 742 1242 
L 582 1325 
Q 1408 2637 1722 4467 
Q 2035 4365 2262 4265 
Q 2490 4166 2538 4128 
Q 2586 4090 2586 4045 
Q 2586 4000 2464 3974 
Q 2342 3949 2291 3814 
L 2003 3149 
L 3130 3149 
L 3130 4352 
Q 3130 4678 3117 4954 
Q 3315 4922 3683 4803 
Q 4051 4685 4051 4605 
Q 4051 4525 3731 4435 
L 3731 3149 
L 4794 3149 
L 5050 3526 
Q 5126 3642 5184 3642 
Q 5242 3642 5594 3357 
Q 5946 3072 5946 2976 
Q 5946 2925 5830 2925 
L 3731 2925 
L 3731 1478 
L 4531 1478 
L 4787 1856 
Q 4864 1965 4944 1965 
Q 5024 1965 5350 1677 
Q 5677 1389 5677 1328 
Q 5677 1267 5542 1267 
L 3731 1267 
L 3731 -339 
L 5030 -339 
L 5293 58 
Q 5376 179 5430 179 
Q 5485 179 5581 102 
Q 5677 26 5881 -156 
Q 6086 -339 6150 -409 
Q 6214 -480 6214 -521 
Q 6214 -563 6080 -563 
L 1011 -563 
Q 838 -563 742 -608 
L 621 -307 
Q 755 -339 941 -339 
L 3130 -339 
L 3130 1267 
z
" transform="scale(0.015625)"/>
       <path id="STZhongsong-7269" d="M 1517 2970 
L 966 2970 
Q 730 2426 262 1709 
L 154 1773 
Q 730 3117 781 4211 
Q 1453 4000 1453 3923 
Q 1453 3891 1363 3862 
Q 1274 3834 1222 3661 
Q 1158 3424 1050 3162 
L 1517 3162 
L 1517 4320 
Q 1517 4602 1498 4870 
Q 2285 4621 2285 4538 
Q 2285 4480 2029 4326 
L 2029 3162 
L 2138 3162 
L 2342 3450 
Q 2419 3552 2473 3552 
Q 2528 3552 2601 3475 
Q 2675 3398 2784 3244 
Q 2893 3091 2906 3040 
Q 3302 3795 3590 4954 
Q 4333 4659 4333 4531 
Q 4333 4486 4249 4476 
Q 4166 4467 4067 4387 
Q 3968 4307 3910 4186 
Q 3718 3763 3552 3482 
L 5229 3482 
L 5466 3763 
Q 5510 3808 5536 3808 
Q 5562 3808 5600 3782 
L 5837 3590 
Q 6035 3437 6083 3395 
Q 6131 3354 6131 3322 
Q 6131 3258 5862 3130 
Q 5760 1459 5699 780 
Q 5638 102 5574 -134 
Q 5510 -371 5350 -560 
Q 5190 -749 4918 -867 
Q 4646 -986 4493 -986 
Q 4429 -986 4416 -890 
Q 4371 -493 3693 -275 
L 3706 -141 
Q 4269 -237 4518 -237 
Q 4768 -237 4867 -169 
Q 4966 -102 5030 80 
Q 5094 262 5171 976 
Q 5248 1690 5344 3270 
L 5037 3270 
Q 4826 1747 4230 902 
Q 3635 58 2349 -659 
L 2272 -570 
Q 2765 -205 3091 121 
Q 3418 448 3642 777 
Q 3866 1107 4013 1404 
Q 4160 1702 4301 2262 
Q 4442 2822 4493 3270 
L 4141 3270 
Q 3981 2515 3629 1891 
Q 3277 1267 2394 544 
L 2317 634 
Q 3392 1798 3622 3270 
L 3430 3270 
Q 3027 2605 2426 2010 
L 2349 2080 
Q 2682 2592 2880 2982 
Q 2842 2970 2790 2970 
L 2029 2970 
L 2029 1773 
L 2886 2029 
L 2925 1888 
L 2029 1491 
L 2029 -762 
Q 2029 -858 1805 -989 
Q 1581 -1120 1536 -1120 
Q 1491 -1120 1491 -1062 
L 1504 -755 
Q 1517 -435 1517 -179 
L 1517 1235 
Q 896 883 768 781 
Q 723 749 691 749 
Q 614 749 333 1363 
Q 781 1434 1517 1626 
L 1517 2970 
z
" transform="scale(0.015625)"/>
       <path id="STZhongsong-533b" d="M 1542 4352 
L 4774 4352 
L 5056 4800 
Q 5107 4877 5177 4877 
Q 5248 4877 5549 4598 
Q 5850 4320 5850 4243 
Q 5850 4166 5722 4166 
L 1402 4166 
L 1402 -314 
L 5050 -314 
L 5363 141 
Q 5421 224 5485 224 
Q 5549 224 5865 -83 
Q 6182 -390 6182 -457 
Q 6182 -525 6016 -525 
L 1363 -525 
L 1242 -742 
Q 1190 -826 1152 -826 
Q 1082 -826 576 -461 
Q 742 -314 777 -240 
Q 813 -166 813 6 
L 813 4166 
Q 813 4435 794 4710 
Q 1190 4557 1542 4352 
z
M 2726 2918 
Q 2445 2522 1837 1958 
L 1741 2042 
Q 2426 2880 2701 4083 
Q 2912 4013 3104 3923 
Q 3296 3834 3337 3802 
Q 3379 3770 3379 3734 
Q 3379 3699 3302 3683 
Q 3226 3667 3187 3628 
Q 3149 3590 3043 3408 
Q 2938 3226 2854 3104 
L 4454 3104 
L 4704 3462 
Q 4749 3520 4781 3520 
Q 4813 3520 4889 3462 
Q 4966 3405 5145 3245 
Q 5325 3085 5350 3053 
Q 5376 3021 5376 2989 
Q 5376 2918 5286 2918 
L 3846 2918 
Q 3827 2317 3763 1907 
L 4787 1907 
L 5018 2278 
Q 5075 2368 5136 2368 
Q 5197 2368 5507 2118 
Q 5818 1869 5818 1785 
Q 5818 1702 5683 1702 
L 3731 1702 
Q 3699 1510 3629 1293 
Q 4282 1088 4598 937 
Q 4915 787 5020 649 
Q 5126 512 5126 329 
Q 5126 147 5056 9 
Q 4986 -128 4918 -128 
Q 4851 -128 4816 -93 
Q 4781 -58 4662 144 
Q 4544 346 4237 656 
Q 3930 966 3590 1190 
Q 3418 736 2995 413 
Q 2573 90 1696 -250 
L 1638 -128 
Q 2534 390 2828 761 
Q 3123 1133 3206 1702 
L 1818 1702 
Q 1715 1702 1619 1677 
L 1542 1933 
Q 1651 1907 1773 1907 
L 3232 1907 
Q 3277 2202 3296 2918 
L 2726 2918 
z
" transform="scale(0.015625)"/>
       <path id="STZhongsong-836f" d="M 3718 3821 
L 2669 3821 
L 2669 3315 
Q 2669 3245 2624 3216 
Q 2579 3187 2406 3148 
Q 2234 3110 2170 3110 
Q 2106 3110 2106 3168 
L 2118 3405 
Q 2125 3552 2125 3821 
L 666 3821 
Q 499 3821 397 3782 
L 262 4051 
Q 397 4019 582 4019 
L 2125 4019 
L 2125 4435 
Q 2125 4646 2106 4902 
Q 2880 4717 2880 4634 
Q 2880 4595 2669 4480 
L 2669 4019 
L 3718 4019 
L 3718 4422 
Q 3718 4634 3699 4890 
Q 4467 4730 4467 4646 
Q 4467 4589 4262 4486 
L 4262 4019 
L 5171 4019 
L 5434 4390 
Q 5472 4454 5517 4454 
Q 5587 4454 5907 4201 
Q 6227 3949 6227 3885 
Q 6227 3821 6093 3821 
L 4262 3821 
Q 4262 3642 4269 3552 
L 4282 3386 
Q 4282 3354 4272 3338 
Q 4262 3322 4160 3277 
Q 4058 3232 3923 3200 
Q 4506 3014 4506 2931 
Q 4506 2886 4413 2864 
Q 4320 2842 4259 2778 
Q 4198 2714 4038 2458 
L 4966 2458 
L 5158 2707 
Q 5197 2758 5254 2758 
Q 5312 2758 5453 2643 
L 5728 2432 
Q 5862 2330 5862 2262 
Q 5862 2195 5587 2106 
Q 5568 781 5513 329 
Q 5459 -122 5395 -346 
Q 5331 -570 5168 -707 
Q 5005 -845 4742 -937 
Q 4480 -1030 4416 -1030 
Q 4352 -1030 4320 -934 
Q 4224 -627 4013 -483 
Q 3802 -339 3456 -256 
L 3482 -122 
Q 4179 -269 4419 -269 
Q 4659 -269 4748 -198 
Q 4838 -128 4886 83 
Q 4934 294 4976 777 
Q 5018 1261 5018 2240 
L 3898 2240 
Q 3418 1542 2746 1018 
L 2650 1094 
Q 3450 2074 3776 3168 
Q 3718 3168 3718 3258 
L 3718 3821 
z
M 1875 1728 
Q 1504 1645 1177 1542 
Q 851 1440 768 1395 
Q 685 1350 666 1350 
Q 576 1350 403 1792 
Q 614 1850 777 1974 
Q 941 2099 1241 2544 
Q 1542 2989 1670 3405 
Q 2272 3027 2272 2925 
Q 2272 2899 2253 2889 
Q 2234 2880 2163 2880 
Q 2093 2880 2051 2854 
Q 2010 2829 1952 2758 
Q 1574 2310 1126 1888 
L 2035 1933 
Q 2291 2259 2541 2694 
Q 3085 2336 3085 2227 
Q 3085 2170 2979 2170 
Q 2874 2170 2701 1984 
Q 2253 1485 1421 781 
L 2880 947 
L 2893 813 
Q 1357 429 992 224 
Q 941 192 918 192 
Q 896 192 880 211 
Q 864 230 761 384 
Q 659 538 576 685 
Q 1030 832 1235 1008 
Q 1440 1184 1875 1728 
z
M 3494 1606 
Q 3962 1325 4147 1155 
Q 4333 986 4371 918 
Q 4410 851 4410 762 
Q 4410 563 4269 390 
Q 4128 218 4041 218 
Q 3955 218 3917 410 
Q 3814 979 3411 1517 
L 3494 1606 
z
M 3085 26 
L 1408 -653 
Q 1030 -800 953 -841 
Q 877 -883 857 -883 
Q 838 -883 822 -873 
Q 806 -864 672 -656 
Q 538 -448 474 -339 
Q 1670 -160 3066 147 
L 3085 26 
z
" transform="scale(0.015625)"/>
      </defs>
      <use xlink:href="#STZhongsong-751f"/>
      <use xlink:href="#STZhongsong-7269" transform="translate(99.999985 0)"/>
      <use xlink:href="#STZhongsong-4e0e" transform="translate(199.999969 0)"/>
      <use xlink:href="#STZhongsong-65b0" transform="translate(299.999954 0)"/>
      <use xlink:href="#STZhongsong-533b" transform="translate(399.999939 0)"/>
      <use xlink:href="#STZhongsong-836f" transform="translate(499.999924 0)"/>
      <use xlink:href="#STZhongsong-6280" transform="translate(599.999908 0)"/>
      <use xlink:href="#STZhongsong-672f" transform="translate(699.999893 0)"/>
     </g>
    </g>
   </g>
  </g>
 </g>
 <defs>
  <clipPath id="pe9990a34c4">
   <rect x="71.480937" y="39.055" width="777.72625" height="366.525"/>
  </clipPath>
 </defs>
</svg>
