<?xml version="1.0" encoding="utf-8" standalone="no"?>
<!DOCTYPE svg PUBLIC "-//W3C//DTD SVG 1.1//EN"
  "http://www.w3.org/Graphics/SVG/1.1/DTD/svg11.dtd">
<svg xmlns:xlink="http://www.w3.org/1999/xlink" width="856.945pt" height="450.277598pt" viewBox="0 0 856.945 450.277598" xmlns="http://www.w3.org/2000/svg" version="1.1">
 <metadata>
  <rdf:RDF xmlns:dc="http://purl.org/dc/elements/1.1/" xmlns:cc="http://creativecommons.org/ns#" xmlns:rdf="http://www.w3.org/1999/02/22-rdf-syntax-ns#">
   <cc:Work>
    <dc:type rdf:resource="http://purl.org/dc/dcmitype/StillImage"/>
    <dc:date>2026-06-06T01:21:20.177502</dc:date>
    <dc:format>image/svg+xml</dc:format>
    <dc:creator>
     <cc:Agent>
      <dc:title>Matplotlib v3.10.0, https://matplotlib.org/</dc:title>
     </cc:Agent>
    </dc:creator>
   </cc:Work>
  </rdf:RDF>
 </metadata>
 <defs>
  <style type="text/css">*{stroke-linejoin: round; stroke-linecap: butt}</style>
 </defs>
 <g id="figure_1">
  <g id="patch_1">
   <path d="M -0 450.277598 
L 856.945 450.277598 
L 856.945 0 
L -0 0 
z
" style="fill: #ffffff"/>
  </g>
  <g id="axes_1">
   <g id="patch_2">
    <path d="M 61.995 371.750361 
L 849.745 371.750361 
L 849.745 38.927031 
L 61.995 38.927031 
z
" style="fill: #ffffff"/>
   </g>
   <g id="patch_3">
    <path d="M 97.801818 371.750361 
L 141.158717 371.750361 
L 141.158717 296.08436 
L 97.801818 296.08436 
z
" clip-path="url(#p52baaf6346)" style="fill: #a6cee3"/>
   </g>
   <g id="patch_4">
    <path d="M 172.555092 371.750361 
L 215.911991 371.750361 
L 215.911991 255.839242 
L 172.555092 255.839242 
z
" clip-path="url(#p52baaf6346)" style="fill: #a6cee3"/>
   </g>
   <g id="patch_5">
    <path d="M 247.308366 371.750361 
L 290.665265 371.750361 
L 290.665265 223.281603 
L 247.308366 223.281603 
z
" clip-path="url(#p52baaf6346)" style="fill: #a6cee3"/>
   </g>
   <g id="patch_6">
    <path d="M 322.06164 371.750361 
L 365.418539 371.750361 
L 365.418539 215.704089 
L 322.06164 215.704089 
z
" clip-path="url(#p52baaf6346)" style="fill: #a6cee3"/>
   </g>
   <g id="patch_7">
    <path d="M 396.814914 371.750361 
L 440.171812 371.750361 
L 440.171812 222.253589 
L 396.814914 222.253589 
z
" clip-path="url(#p52baaf6346)" style="fill: #a6cee3"/>
   </g>
   <g id="patch_8">
    <path d="M 471.568188 371.750361 
L 514.925086 371.750361 
L 514.925086 245.166838 
L 471.568188 245.166838 
z
" clip-path="url(#p52baaf6346)" style="fill: #a6cee3"/>
   </g>
   <g id="patch_9">
    <path d="M 546.321461 371.750361 
L 589.67836 371.750361 
L 589.67836 263.188182 
L 546.321461 263.188182 
z
" clip-path="url(#p52baaf6346)" style="fill: #a6cee3"/>
   </g>
   <g id="patch_10">
    <path d="M 621.074735 371.750361 
L 664.431634 371.750361 
L 664.431634 268.58202 
L 621.074735 268.58202 
z
" clip-path="url(#p52baaf6346)" style="fill: #a6cee3"/>
   </g>
   <g id="patch_11">
    <path d="M 695.828009 371.750361 
L 739.184908 371.750361 
L 739.184908 272.824441 
L 695.828009 272.824441 
z
" clip-path="url(#p52baaf6346)" style="fill: #a6cee3"/>
   </g>
   <g id="patch_12">
    <path d="M 770.581283 371.750361 
L 813.938182 371.750361 
L 813.938182 274.682017 
L 770.581283 274.682017 
z
" clip-path="url(#p52baaf6346)" style="fill: #a6cee3"/>
   </g>
   <g id="patch_13">
    <path d="M 97.801818 296.08436 
L 141.158717 296.08436 
L 141.158717 145.644646 
L 97.801818 145.644646 
z
" clip-path="url(#p52baaf6346)" style="fill: #74a9cf"/>
   </g>
   <g id="patch_14">
    <path d="M 172.555092 255.839242 
L 215.911991 255.839242 
L 215.911991 101.864547 
L 172.555092 101.864547 
z
" clip-path="url(#p52baaf6346)" style="fill: #74a9cf"/>
   </g>
   <g id="patch_15">
    <path d="M 247.308366 223.281603 
L 290.665265 223.281603 
L 290.665265 81.653822 
L 247.308366 81.653822 
z
" clip-path="url(#p52baaf6346)" style="fill: #74a9cf"/>
   </g>
   <g id="patch_16">
    <path d="M 322.06164 215.704089 
L 365.418539 215.704089 
L 365.418539 76.967297 
L 322.06164 76.967297 
z
" clip-path="url(#p52baaf6346)" style="fill: #74a9cf"/>
   </g>
   <g id="patch_17">
    <path d="M 396.814914 222.253589 
L 440.171812 222.253589 
L 440.171812 78.62439 
L 396.814914 78.62439 
z
" clip-path="url(#p52baaf6346)" style="fill: #74a9cf"/>
   </g>
   <g id="patch_18">
    <path d="M 471.568188 245.166838 
L 514.925086 245.166838 
L 514.925086 83.483026 
L 471.568188 83.483026 
z
" clip-path="url(#p52baaf6346)" style="fill: #74a9cf"/>
   </g>
   <g id="patch_19">
    <path d="M 546.321461 263.188182 
L 589.67836 263.188182 
L 589.67836 86.693205 
L 546.321461 86.693205 
z
" clip-path="url(#p52baaf6346)" style="fill: #74a9cf"/>
   </g>
   <g id="patch_20">
    <path d="M 621.074735 268.58202 
L 664.431634 268.58202 
L 664.431634 87.024481 
L 621.074735 87.024481 
z
" clip-path="url(#p52baaf6346)" style="fill: #74a9cf"/>
   </g>
   <g id="patch_21">
    <path d="M 695.828009 272.824441 
L 739.184908 272.824441 
L 739.184908 87.759644 
L 695.828009 87.759644 
z
" clip-path="url(#p52baaf6346)" style="fill: #74a9cf"/>
   </g>
   <g id="patch_22">
    <path d="M 770.581283 274.682017 
L 813.938182 274.682017 
L 813.938182 88.593339 
L 770.581283 88.593339 
z
" clip-path="url(#p52baaf6346)" style="fill: #74a9cf"/>
   </g>
   <g id="patch_23">
    <path d="M 97.801818 145.644646 
L 141.158717 145.644646 
L 141.158717 80.329183 
L 97.801818 80.329183 
z
" clip-path="url(#p52baaf6346)" style="fill: #fdbf6f"/>
   </g>
   <g id="patch_24">
    <path d="M 172.555092 101.864547 
L 215.911991 101.864547 
L 215.911991 62.438996 
L 172.555092 62.438996 
z
" clip-path="url(#p52baaf6346)" style="fill: #fdbf6f"/>
   </g>
   <g id="patch_25">
    <path d="M 247.308366 81.653822 
L 290.665265 81.653822 
L 290.665265 54.250821 
L 247.308366 54.250821 
z
" clip-path="url(#p52baaf6346)" style="fill: #fdbf6f"/>
   </g>
   <g id="patch_26">
    <path d="M 322.06164 76.967297 
L 365.418539 76.967297 
L 365.418539 52.206331 
L 322.06164 52.206331 
z
" clip-path="url(#p52baaf6346)" style="fill: #fdbf6f"/>
   </g>
   <g id="patch_27">
    <path d="M 396.814914 78.62439 
L 440.171812 78.62439 
L 440.171812 53.076585 
L 396.814914 53.076585 
z
" clip-path="url(#p52baaf6346)" style="fill: #fdbf6f"/>
   </g>
   <g id="patch_28">
    <path d="M 471.568188 83.483026 
L 514.925086 83.483026 
L 514.925086 54.940257 
L 471.568188 54.940257 
z
" clip-path="url(#p52baaf6346)" style="fill: #fdbf6f"/>
   </g>
   <g id="patch_29">
    <path d="M 546.321461 86.693205 
L 589.67836 86.693205 
L 589.67836 56.546916 
L 546.321461 56.546916 
z
" clip-path="url(#p52baaf6346)" style="fill: #fdbf6f"/>
   </g>
   <g id="patch_30">
    <path d="M 621.074735 87.024481 
L 664.431634 87.024481 
L 664.431634 56.898113 
L 621.074735 56.898113 
z
" clip-path="url(#p52baaf6346)" style="fill: #fdbf6f"/>
   </g>
   <g id="patch_31">
    <path d="M 695.828009 87.759644 
L 739.184908 87.759644 
L 739.184908 56.756852 
L 695.828009 56.756852 
z
" clip-path="url(#p52baaf6346)" style="fill: #fdbf6f"/>
   </g>
   <g id="patch_32">
    <path d="M 770.581283 88.593339 
L 813.938182 88.593339 
L 813.938182 56.893535 
L 770.581283 56.893535 
z
" clip-path="url(#p52baaf6346)" style="fill: #fdbf6f"/>
   </g>
   <g id="patch_33">
    <path d="M 97.801818 80.329183 
L 141.158717 80.329183 
L 141.158717 39.283946 
L 97.801818 39.283946 
z
" clip-path="url(#p52baaf6346)" style="fill: #e6550d"/>
   </g>
   <g id="patch_34">
    <path d="M 172.555092 62.438996 
L 215.911991 62.438996 
L 215.911991 39.213763 
L 172.555092 39.213763 
z
" clip-path="url(#p52baaf6346)" style="fill: #e6550d"/>
   </g>
   <g id="patch_35">
    <path d="M 247.308366 54.250821 
L 290.665265 54.250821 
L 290.665265 39.044305 
L 247.308366 39.044305 
z
" clip-path="url(#p52baaf6346)" style="fill: #e6550d"/>
   </g>
   <g id="patch_36">
    <path d="M 322.06164 52.206331 
L 365.418539 52.206331 
L 365.418539 39.014014 
L 322.06164 39.014014 
z
" clip-path="url(#p52baaf6346)" style="fill: #e6550d"/>
   </g>
   <g id="patch_37">
    <path d="M 396.814914 53.076585 
L 440.171812 53.076585 
L 440.171812 39.039329 
L 396.814914 39.039329 
z
" clip-path="url(#p52baaf6346)" style="fill: #e6550d"/>
   </g>
   <g id="patch_38">
    <path d="M 471.568188 54.940257 
L 514.925086 54.940257 
L 514.925086 39.131954 
L 471.568188 39.131954 
z
" clip-path="url(#p52baaf6346)" style="fill: #e6550d"/>
   </g>
   <g id="patch_39">
    <path d="M 546.321461 56.546916 
L 589.67836 56.546916 
L 589.67836 39.163937 
L 546.321461 39.163937 
z
" clip-path="url(#p52baaf6346)" style="fill: #e6550d"/>
   </g>
   <g id="patch_40">
    <path d="M 621.074735 56.898113 
L 664.431634 56.898113 
L 664.431634 39.119972 
L 621.074735 39.119972 
z
" clip-path="url(#p52baaf6346)" style="fill: #e6550d"/>
   </g>
   <g id="patch_41">
    <path d="M 695.828009 56.756852 
L 739.184908 56.756852 
L 739.184908 39.10713 
L 695.828009 39.10713 
z
" clip-path="url(#p52baaf6346)" style="fill: #e6550d"/>
   </g>
   <g id="patch_42">
    <path d="M 770.581283 56.893535 
L 813.938182 56.893535 
L 813.938182 39.123924 
L 770.581283 39.123924 
z
" clip-path="url(#p52baaf6346)" style="fill: #e6550d"/>
   </g>
   <g id="patch_43">
    <path d="M 97.801818 39.283946 
L 141.158717 39.283946 
L 141.158717 38.927031 
L 97.801818 38.927031 
z
" clip-path="url(#p52baaf6346)" style="fill: #bdbdbd"/>
   </g>
   <g id="patch_44">
    <path d="M 172.555092 39.213763 
L 215.911991 39.213763 
L 215.911991 38.927031 
L 172.555092 38.927031 
z
" clip-path="url(#p52baaf6346)" style="fill: #bdbdbd"/>
   </g>
   <g id="patch_45">
    <path d="M 247.308366 39.044305 
L 290.665265 39.044305 
L 290.665265 38.927031 
L 247.308366 38.927031 
z
" clip-path="url(#p52baaf6346)" style="fill: #bdbdbd"/>
   </g>
   <g id="patch_46">
    <path d="M 322.06164 39.014014 
L 365.418539 39.014014 
L 365.418539 38.927031 
L 322.06164 38.927031 
z
" clip-path="url(#p52baaf6346)" style="fill: #bdbdbd"/>
   </g>
   <g id="patch_47">
    <path d="M 396.814914 39.039329 
L 440.171812 39.039329 
L 440.171812 38.927031 
L 396.814914 38.927031 
z
" clip-path="url(#p52baaf6346)" style="fill: #bdbdbd"/>
   </g>
   <g id="patch_48">
    <path d="M 471.568188 39.131954 
L 514.925086 39.131954 
L 514.925086 38.927031 
L 471.568188 38.927031 
z
" clip-path="url(#p52baaf6346)" style="fill: #bdbdbd"/>
   </g>
   <g id="patch_49">
    <path d="M 546.321461 39.163937 
L 589.67836 39.163937 
L 589.67836 38.927031 
L 546.321461 38.927031 
z
" clip-path="url(#p52baaf6346)" style="fill: #bdbdbd"/>
   </g>
   <g id="patch_50">
    <path d="M 621.074735 39.119972 
L 664.431634 39.119972 
L 664.431634 38.927031 
L 621.074735 38.927031 
z
" clip-path="url(#p52baaf6346)" style="fill: #bdbdbd"/>
   </g>
   <g id="patch_51">
    <path d="M 695.828009 39.10713 
L 739.184908 39.10713 
L 739.184908 38.927031 
L 695.828009 38.927031 
z
" clip-path="url(#p52baaf6346)" style="fill: #bdbdbd"/>
   </g>
   <g id="patch_52">
    <path d="M 770.581283 39.123924 
L 813.938182 39.123924 
L 813.938182 38.927031 
L 770.581283 38.927031 
z
" clip-path="url(#p52baaf6346)" style="fill: #bdbdbd"/>
   </g>
   <g id="matplotlib.axis_1">
    <g id="xtick_1">
     <g id="line2d_1">
      <defs>
       <path id="m11515fefec" d="M 0 0 
L 0 3.5 
" style="stroke: #111111; stroke-width: 0.8"/>
      </defs>
      <g>
       <use xlink:href="#m11515fefec" x="194.233541" y="371.750361" style="fill: #111111; stroke: #111111; stroke-width: 0.8"/>
      </g>
     </g>
     <g id="text_1">
      <!-- 2016 -->
      <g style="fill: #111111" transform="translate(175.633541 389.489424) scale(0.15 -0.15)">
       <defs>
        <path id="STZhongsong-32" d="M 723 2714 
L 422 2675 
Q 397 2835 397 2989 
Q 397 3616 832 4025 
Q 1267 4435 1978 4435 
Q 2630 4435 3043 4064 
Q 3456 3693 3456 3098 
Q 3456 2669 3286 2349 
Q 3117 2029 2611 1603 
Q 2106 1178 1037 467 
L 2662 467 
Q 2963 467 3062 544 
Q 3162 621 3200 838 
L 3232 1018 
L 3494 1018 
L 3283 -154 
L 3085 -154 
L 3053 0 
L 320 0 
L 320 262 
L 819 640 
Q 1901 1453 2377 1977 
Q 2854 2502 2854 3066 
Q 2854 3507 2569 3788 
Q 2285 4070 1837 4070 
Q 1325 4070 1017 3753 
Q 710 3437 710 2918 
Q 710 2822 723 2714 
z
" transform="scale(0.015625)"/>
        <path id="STZhongsong-30" d="M 326 2182 
Q 326 3251 774 3843 
Q 1222 4435 1997 4435 
Q 2752 4435 3197 3827 
Q 3642 3219 3642 2144 
Q 3642 1139 3178 531 
Q 2714 -77 1952 -77 
Q 1229 -77 777 524 
Q 326 1126 326 2182 
z
M 3040 2182 
Q 3040 3104 2758 3616 
Q 2477 4128 1978 4128 
Q 1478 4128 1200 3590 
Q 922 3053 922 2118 
Q 922 1229 1210 733 
Q 1498 237 1971 237 
Q 2470 237 2755 752 
Q 3040 1267 3040 2182 
z
" transform="scale(0.015625)"/>
        <path id="STZhongsong-31" d="M 2150 4358 
L 2387 4358 
L 2387 742 
Q 2387 422 2464 342 
Q 2541 262 2822 262 
L 3130 262 
L 3130 0 
L 1069 0 
L 1069 262 
L 1408 262 
Q 1670 262 1766 348 
Q 1862 435 1862 742 
L 1862 3718 
L 1069 3718 
L 1069 3987 
Q 1709 4070 2150 4358 
z
" transform="scale(0.015625)"/>
        <path id="STZhongsong-36" d="M 3238 4442 
L 3238 4154 
Q 2131 4141 1603 3686 
Q 1075 3232 1037 2227 
Q 1446 2893 2240 2893 
Q 2880 2893 3289 2486 
Q 3699 2080 3699 1440 
Q 3699 742 3257 332 
Q 2816 -77 2093 -77 
Q 1286 -77 848 444 
Q 410 966 410 1926 
Q 410 3046 1056 3744 
Q 1702 4442 2995 4442 
L 3238 4442 
z
M 3072 1414 
Q 3072 1933 2800 2246 
Q 2528 2560 2099 2560 
Q 1658 2560 1363 2224 
Q 1069 1888 1069 1402 
Q 1069 890 1350 550 
Q 1632 211 2074 211 
Q 2509 211 2790 544 
Q 3072 877 3072 1414 
z
" transform="scale(0.015625)"/>
       </defs>
       <use xlink:href="#STZhongsong-32"/>
       <use xlink:href="#STZhongsong-30" transform="translate(61.999985 0)"/>
       <use xlink:href="#STZhongsong-31" transform="translate(123.999969 0)"/>
       <use xlink:href="#STZhongsong-36" transform="translate(185.999954 0)"/>
      </g>
     </g>
    </g>
    <g id="xtick_2">
     <g id="line2d_2">
      <g>
       <use xlink:href="#m11515fefec" x="343.740089" y="371.750361" style="fill: #111111; stroke: #111111; stroke-width: 0.8"/>
      </g>
     </g>
     <g id="text_2">
      <!-- 2018 -->
      <g style="fill: #111111" transform="translate(325.140089 389.489424) scale(0.15 -0.15)">
       <defs>
        <path id="STZhongsong-38" d="M 2477 2419 
Q 3021 2208 3315 1923 
Q 3610 1638 3610 1197 
Q 3610 659 3152 291 
Q 2694 -77 1971 -77 
Q 1274 -77 816 272 
Q 358 621 358 1120 
Q 358 1485 633 1779 
Q 909 2074 1440 2259 
Q 1011 2451 800 2691 
Q 589 2931 589 3315 
Q 589 3814 998 4124 
Q 1408 4435 2035 4435 
Q 2618 4435 2998 4134 
Q 3379 3834 3379 3424 
Q 3379 2790 2477 2419 
z
M 2189 2534 
Q 2451 2707 2662 2918 
Q 2874 3130 2874 3418 
Q 2874 3706 2621 3923 
Q 2368 4141 1971 4141 
Q 1594 4141 1331 3926 
Q 1069 3712 1069 3430 
Q 1069 3168 1270 2989 
Q 1472 2810 1824 2675 
L 2189 2534 
z
M 1747 2131 
Q 1325 1939 1088 1670 
Q 851 1402 851 1126 
Q 851 762 1177 490 
Q 1504 218 1984 218 
Q 2438 218 2774 483 
Q 3110 749 3110 1082 
Q 3110 1594 2253 1933 
L 1747 2131 
z
" transform="scale(0.015625)"/>
       </defs>
       <use xlink:href="#STZhongsong-32"/>
       <use xlink:href="#STZhongsong-30" transform="translate(61.999985 0)"/>
       <use xlink:href="#STZhongsong-31" transform="translate(123.999969 0)"/>
       <use xlink:href="#STZhongsong-38" transform="translate(185.999954 0)"/>
      </g>
     </g>
    </g>
    <g id="xtick_3">
     <g id="line2d_3">
      <g>
       <use xlink:href="#m11515fefec" x="493.246637" y="371.750361" style="fill: #111111; stroke: #111111; stroke-width: 0.8"/>
      </g>
     </g>
     <g id="text_3">
      <!-- 2020 -->
      <g style="fill: #111111" transform="translate(474.646637 389.489424) scale(0.15 -0.15)">
       <use xlink:href="#STZhongsong-32"/>
       <use xlink:href="#STZhongsong-30" transform="translate(61.999985 0)"/>
       <use xlink:href="#STZhongsong-32" transform="translate(123.999969 0)"/>
       <use xlink:href="#STZhongsong-30" transform="translate(185.999954 0)"/>
      </g>
     </g>
    </g>
    <g id="xtick_4">
     <g id="line2d_4">
      <g>
       <use xlink:href="#m11515fefec" x="642.753185" y="371.750361" style="fill: #111111; stroke: #111111; stroke-width: 0.8"/>
      </g>
     </g>
     <g id="text_4">
      <!-- 2022 -->
      <g style="fill: #111111" transform="translate(624.153185 389.489424) scale(0.15 -0.15)">
       <use xlink:href="#STZhongsong-32"/>
       <use xlink:href="#STZhongsong-30" transform="translate(61.999985 0)"/>
       <use xlink:href="#STZhongsong-32" transform="translate(123.999969 0)"/>
       <use xlink:href="#STZhongsong-32" transform="translate(185.999954 0)"/>
      </g>
     </g>
    </g>
    <g id="xtick_5">
     <g id="line2d_5">
      <g>
       <use xlink:href="#m11515fefec" x="792.259732" y="371.750361" style="fill: #111111; stroke: #111111; stroke-width: 0.8"/>
      </g>
     </g>
     <g id="text_5">
      <!-- 2024 -->
      <g style="fill: #111111" transform="translate(773.659732 389.489424) scale(0.15 -0.15)">
       <defs>
        <path id="STZhongsong-34" d="M 3494 1242 
L 2906 1242 
L 2906 518 
Q 2906 275 3213 250 
L 3213 45 
L 1882 45 
L 1882 250 
Q 2054 262 2156 336 
Q 2259 410 2259 518 
L 2259 1242 
L 550 1242 
L 550 1658 
L 2483 4365 
L 2906 4365 
L 2906 1581 
L 3494 1581 
L 3494 1242 
z
M 2259 1581 
L 2259 3462 
L 902 1581 
L 2259 1581 
z
" transform="scale(0.015625)"/>
       </defs>
       <use xlink:href="#STZhongsong-32"/>
       <use xlink:href="#STZhongsong-30" transform="translate(61.999985 0)"/>
       <use xlink:href="#STZhongsong-32" transform="translate(123.999969 0)"/>
       <use xlink:href="#STZhongsong-34" transform="translate(185.999954 0)"/>
      </g>
     </g>
    </g>
    <g id="text_6">
     <!-- 年份 -->
     <g style="fill: #111111" transform="translate(438.87 409.154424) scale(0.17 -0.17)">
      <defs>
       <path id="STZhongsong-5e74" d="M 1939 3827 
L 4794 3827 
L 5082 4237 
Q 5133 4314 5171 4314 
Q 5210 4314 5328 4224 
Q 5446 4134 5612 3993 
Q 5779 3853 5840 3789 
Q 5901 3725 5901 3686 
Q 5901 3616 5811 3616 
L 3744 3616 
L 3744 2496 
L 4474 2496 
L 4736 2874 
Q 4787 2938 4822 2938 
Q 4858 2938 4970 2858 
Q 5082 2778 5232 2643 
Q 5382 2509 5414 2461 
Q 5446 2413 5446 2368 
Q 5446 2272 5350 2272 
L 3744 2272 
L 3744 1043 
L 5254 1043 
L 5542 1427 
Q 5587 1485 5654 1485 
Q 5722 1485 6013 1213 
Q 6304 941 6304 883 
Q 6304 826 6195 826 
L 3744 826 
Q 3744 19 3750 -294 
L 3763 -864 
Q 3763 -909 3731 -941 
Q 3699 -973 3475 -1056 
Q 3251 -1139 3203 -1139 
Q 3155 -1139 3155 -1037 
L 3168 -390 
Q 3174 -38 3174 826 
L 653 826 
Q 480 826 384 781 
L 269 1075 
Q 403 1043 589 1043 
L 1498 1043 
L 1498 2170 
Q 1498 2643 1485 2739 
Q 1856 2630 2138 2496 
L 3174 2496 
L 3174 3616 
L 1798 3616 
Q 1440 3046 1136 2713 
Q 832 2381 339 1984 
L 243 2086 
Q 1261 3174 1741 4909 
Q 2259 4704 2400 4611 
Q 2541 4518 2541 4457 
Q 2541 4397 2435 4384 
Q 2330 4371 2253 4288 
Q 2176 4205 1939 3827 
z
M 3174 2272 
L 2054 2272 
L 2054 1043 
L 3174 1043 
L 3174 2272 
z
" transform="scale(0.015625)"/>
       <path id="STZhongsong-4efd" d="M 1190 2470 
Q 736 1830 237 1389 
L 141 1472 
Q 1158 2701 1702 4838 
Q 1894 4768 2115 4672 
Q 2336 4576 2374 4544 
Q 2413 4512 2413 4477 
Q 2413 4442 2326 4419 
Q 2240 4397 2205 4345 
Q 2170 4294 2099 4115 
Q 1888 3578 1530 2982 
Q 1837 2912 1837 2842 
Q 1837 2803 1709 2720 
L 1709 -806 
Q 1709 -883 1670 -928 
Q 1632 -973 1453 -1049 
Q 1274 -1126 1219 -1126 
Q 1165 -1126 1165 -1056 
L 1178 -563 
Q 1190 -262 1190 70 
L 1190 2470 
z
M 6272 2355 
L 6259 2227 
Q 6170 2240 6099 2240 
Q 5786 2240 5658 1971 
Q 5638 1926 5587 1926 
Q 5408 1926 4813 2630 
Q 4218 3334 4102 4806 
Q 4742 4742 4742 4627 
Q 4742 4589 4672 4570 
Q 4467 4518 4467 4323 
Q 4467 4128 4636 3712 
Q 4806 3296 5209 2925 
Q 5613 2554 6272 2355 
z
M 3174 4506 
Q 3635 4346 3753 4285 
Q 3872 4224 3872 4182 
Q 3872 4141 3753 4105 
Q 3635 4070 3546 3834 
Q 3034 2477 1888 1421 
L 1798 1491 
Q 2765 2810 3174 4506 
z
M 3232 1920 
L 3072 1920 
Q 2906 1920 2803 1875 
L 2662 2157 
Q 2797 2125 2982 2125 
L 4461 2125 
L 4614 2330 
Q 4659 2381 4704 2381 
Q 4749 2381 4937 2246 
Q 5126 2112 5212 2041 
Q 5299 1971 5299 1920 
Q 5299 1869 5139 1760 
Q 5114 1011 5066 432 
Q 5018 -147 4966 -355 
Q 4915 -563 4796 -700 
Q 4678 -838 4451 -944 
Q 4224 -1050 4169 -1050 
Q 4115 -1050 4090 -966 
Q 4038 -774 3856 -640 
Q 3674 -506 3328 -378 
L 3373 -243 
Q 3910 -384 4076 -384 
Q 4243 -384 4307 -326 
Q 4371 -269 4432 -73 
Q 4493 122 4528 541 
Q 4563 960 4576 1920 
L 3782 1920 
Q 3738 730 3389 125 
Q 3040 -480 1946 -1094 
L 1869 -1011 
Q 2669 -358 2934 237 
Q 3200 832 3232 1920 
z
" transform="scale(0.015625)"/>
      </defs>
      <use xlink:href="#STZhongsong-5e74"/>
      <use xlink:href="#STZhongsong-4efd" transform="translate(99.999985 0)"/>
     </g>
    </g>
   </g>
   <g id="matplotlib.axis_2">
    <g id="ytick_1">
     <g id="line2d_6">
      <path d="M 61.995 371.750361 
L 849.745 371.750361 
" clip-path="url(#p52baaf6346)" style="fill: none; stroke: #ececec; stroke-width: 0.9; stroke-linecap: square"/>
     </g>
     <g id="line2d_7">
      <defs>
       <path id="ma515acf55d" d="M 0 0 
L -3.5 0 
" style="stroke: #111111; stroke-width: 0.8"/>
      </defs>
      <g>
       <use xlink:href="#ma515acf55d" x="61.995" y="371.750361" style="fill: #111111; stroke: #111111; stroke-width: 0.8"/>
      </g>
     </g>
     <g id="text_7">
      <!-- 0 -->
      <g style="fill: #111111" transform="translate(45.695 377.119892) scale(0.15 -0.15)">
       <use xlink:href="#STZhongsong-30"/>
      </g>
     </g>
    </g>
    <g id="ytick_2">
     <g id="line2d_8">
      <path d="M 61.995 305.185695 
L 849.745 305.185695 
" clip-path="url(#p52baaf6346)" style="fill: none; stroke: #ececec; stroke-width: 0.9; stroke-linecap: square"/>
     </g>
     <g id="line2d_9">
      <g>
       <use xlink:href="#ma515acf55d" x="61.995" y="305.185695" style="fill: #111111; stroke: #111111; stroke-width: 0.8"/>
      </g>
     </g>
     <g id="text_8">
      <!-- 20 -->
      <g style="fill: #111111" transform="translate(36.395 310.555226) scale(0.15 -0.15)">
       <use xlink:href="#STZhongsong-32"/>
       <use xlink:href="#STZhongsong-30" transform="translate(61.999985 0)"/>
      </g>
     </g>
    </g>
    <g id="ytick_3">
     <g id="line2d_10">
      <path d="M 61.995 238.621029 
L 849.745 238.621029 
" clip-path="url(#p52baaf6346)" style="fill: none; stroke: #ececec; stroke-width: 0.9; stroke-linecap: square"/>
     </g>
     <g id="line2d_11">
      <g>
       <use xlink:href="#ma515acf55d" x="61.995" y="238.621029" style="fill: #111111; stroke: #111111; stroke-width: 0.8"/>
      </g>
     </g>
     <g id="text_9">
      <!-- 40 -->
      <g style="fill: #111111" transform="translate(36.395 243.99056) scale(0.15 -0.15)">
       <use xlink:href="#STZhongsong-34"/>
       <use xlink:href="#STZhongsong-30" transform="translate(61.999985 0)"/>
      </g>
     </g>
    </g>
    <g id="ytick_4">
     <g id="line2d_12">
      <path d="M 61.995 172.056363 
L 849.745 172.056363 
" clip-path="url(#p52baaf6346)" style="fill: none; stroke: #ececec; stroke-width: 0.9; stroke-linecap: square"/>
     </g>
     <g id="line2d_13">
      <g>
       <use xlink:href="#ma515acf55d" x="61.995" y="172.056363" style="fill: #111111; stroke: #111111; stroke-width: 0.8"/>
      </g>
     </g>
     <g id="text_10">
      <!-- 60 -->
      <g style="fill: #111111" transform="translate(36.395 177.425894) scale(0.15 -0.15)">
       <use xlink:href="#STZhongsong-36"/>
       <use xlink:href="#STZhongsong-30" transform="translate(61.999985 0)"/>
      </g>
     </g>
    </g>
    <g id="ytick_5">
     <g id="line2d_14">
      <path d="M 61.995 105.491697 
L 849.745 105.491697 
" clip-path="url(#p52baaf6346)" style="fill: none; stroke: #ececec; stroke-width: 0.9; stroke-linecap: square"/>
     </g>
     <g id="line2d_15">
      <g>
       <use xlink:href="#ma515acf55d" x="61.995" y="105.491697" style="fill: #111111; stroke: #111111; stroke-width: 0.8"/>
      </g>
     </g>
     <g id="text_11">
      <!-- 80 -->
      <g style="fill: #111111" transform="translate(36.395 110.861228) scale(0.15 -0.15)">
       <use xlink:href="#STZhongsong-38"/>
       <use xlink:href="#STZhongsong-30" transform="translate(61.999985 0)"/>
      </g>
     </g>
    </g>
    <g id="ytick_6">
     <g id="line2d_16">
      <path d="M 61.995 38.927031 
L 849.745 38.927031 
" clip-path="url(#p52baaf6346)" style="fill: none; stroke: #ececec; stroke-width: 0.9; stroke-linecap: square"/>
     </g>
     <g id="line2d_17">
      <g>
       <use xlink:href="#ma515acf55d" x="61.995" y="38.927031" style="fill: #111111; stroke: #111111; stroke-width: 0.8"/>
      </g>
     </g>
     <g id="text_12">
      <!-- 100 -->
      <g style="fill: #111111" transform="translate(27.095 44.296562) scale(0.15 -0.15)">
       <use xlink:href="#STZhongsong-31"/>
       <use xlink:href="#STZhongsong-30" transform="translate(61.999985 0)"/>
       <use xlink:href="#STZhongsong-30" transform="translate(123.999969 0)"/>
      </g>
     </g>
    </g>
    <g id="text_13">
     <!-- 占比（%） -->
     <g style="fill: #111111" transform="translate(19.695 246.988696) rotate(-90) scale(0.17 -0.17)">
      <defs>
       <path id="STZhongsong-5360" d="M 3488 3277 
L 5037 3277 
L 5299 3693 
Q 5357 3782 5430 3782 
Q 5504 3782 5638 3642 
L 5933 3334 
Q 6099 3162 6099 3114 
Q 6099 3066 5997 3066 
L 3488 3066 
L 3488 1837 
L 4538 1837 
L 4678 2093 
Q 4704 2150 4771 2150 
Q 4838 2150 5056 2010 
L 5344 1818 
Q 5427 1766 5427 1712 
Q 5427 1658 5197 1491 
L 5197 -493 
Q 5197 -627 5203 -723 
L 5216 -883 
Q 5216 -915 5193 -940 
Q 5171 -966 5046 -1024 
Q 4922 -1082 4797 -1117 
Q 4672 -1152 4630 -1152 
Q 4589 -1152 4589 -1088 
L 4589 -371 
L 1792 -371 
L 1792 -877 
Q 1792 -934 1782 -953 
Q 1773 -973 1635 -1030 
Q 1498 -1088 1376 -1117 
Q 1254 -1146 1228 -1146 
Q 1203 -1146 1203 -1094 
L 1210 -870 
Q 1216 -768 1216 -653 
L 1216 1536 
Q 1216 1805 1197 2080 
Q 1574 1997 1894 1837 
L 2848 1837 
L 2848 4230 
Q 2848 4723 2835 4832 
Q 3366 4742 3552 4688 
Q 3738 4634 3738 4576 
Q 3738 4512 3488 4371 
L 3488 3277 
z
M 4589 -134 
L 4589 1626 
L 1792 1626 
L 1792 -134 
L 4589 -134 
z
" transform="scale(0.015625)"/>
       <path id="STZhongsong-6bd4" d="M 3789 2112 
Q 4435 2579 5126 3494 
Q 5299 3347 5481 3171 
Q 5664 2995 5693 2956 
Q 5722 2918 5722 2886 
Q 5722 2816 5523 2816 
Q 5325 2816 5056 2611 
Q 4493 2176 3789 1875 
L 3789 51 
Q 3789 -77 3808 -134 
Q 3827 -192 3875 -214 
Q 3923 -237 4102 -249 
Q 4282 -262 4499 -262 
Q 4717 -262 4934 -240 
Q 5152 -218 5219 -186 
Q 5286 -154 5334 -38 
Q 5382 77 5427 320 
Q 5472 563 5542 1062 
L 5696 1062 
Q 5690 582 5709 377 
Q 5728 173 5779 89 
Q 5830 6 5942 -64 
Q 6054 -134 6054 -192 
Q 6054 -250 5923 -448 
Q 5792 -646 5555 -732 
Q 5318 -819 4643 -819 
Q 3968 -819 3673 -774 
Q 3379 -730 3305 -602 
Q 3232 -474 3232 -90 
L 3232 4000 
Q 3232 4435 3213 4717 
Q 3674 4595 3862 4521 
Q 4051 4448 4051 4390 
Q 4051 4333 3789 4192 
L 3789 2112 
z
M 1568 2618 
L 2150 2618 
L 2426 3002 
Q 2496 3104 2569 3104 
Q 2643 3104 2889 2832 
Q 3136 2560 3136 2486 
Q 3136 2413 2995 2413 
L 1568 2413 
L 1568 141 
Q 2381 493 3085 762 
L 3162 634 
Q 1344 -563 1213 -675 
Q 1082 -787 1046 -787 
Q 1011 -787 953 -675 
Q 896 -563 723 -179 
Q 902 -90 956 -13 
Q 1011 64 1011 186 
L 1011 4083 
Q 1011 4410 992 4685 
Q 1190 4646 1516 4547 
Q 1843 4448 1843 4371 
Q 1843 4314 1568 4154 
L 1568 2618 
z
" transform="scale(0.015625)"/>
       <path id="STZhongsong-ff08" d="M 5747 4563 
Q 4781 3258 4781 1997 
Q 4781 1075 5011 480 
Q 5242 -115 5741 -826 
L 5587 -966 
Q 4864 -320 4515 368 
Q 4166 1056 4166 1990 
Q 4166 2688 4537 3395 
Q 4909 4102 5619 4698 
L 5747 4563 
z
" transform="scale(0.015625)"/>
       <path id="STZhongsong-25" d="M 224 3264 
Q 224 3808 502 4121 
Q 781 4435 1248 4435 
Q 1715 4435 1987 4115 
Q 2259 3795 2259 3245 
Q 2259 2714 1974 2400 
Q 1690 2086 1222 2086 
Q 774 2086 499 2406 
Q 224 2726 224 3264 
z
M 1830 3264 
Q 1830 3712 1673 3974 
Q 1517 4237 1242 4237 
Q 966 4237 809 3977 
Q 653 3718 653 3232 
Q 653 2790 813 2537 
Q 973 2285 1229 2285 
Q 1491 2285 1660 2547 
Q 1830 2810 1830 3264 
z
M 4518 4435 
L 1613 -77 
L 1242 -77 
L 4141 4435 
L 4518 4435 
z
M 3501 1101 
Q 3501 1645 3776 1955 
Q 4051 2266 4525 2266 
Q 4998 2266 5267 1949 
Q 5536 1632 5536 1075 
Q 5536 557 5248 240 
Q 4960 -77 4499 -77 
Q 4045 -77 3773 240 
Q 3501 557 3501 1101 
z
M 5101 1094 
Q 5101 1555 4947 1814 
Q 4794 2074 4518 2074 
Q 4250 2074 4090 1811 
Q 3930 1549 3930 1069 
Q 3930 634 4093 381 
Q 4256 128 4506 128 
Q 4787 128 4944 377 
Q 5101 627 5101 1094 
z
" transform="scale(0.015625)"/>
       <path id="STZhongsong-ff09" d="M 819 4787 
Q 1536 4166 1904 3433 
Q 2272 2701 2272 1904 
Q 2272 1107 1881 323 
Q 1491 -461 800 -973 
L 646 -832 
Q 1158 -179 1398 486 
Q 1638 1152 1638 1933 
Q 1638 2714 1382 3421 
Q 1126 4128 646 4653 
L 819 4787 
z
" transform="scale(0.015625)"/>
      </defs>
      <use xlink:href="#STZhongsong-5360"/>
      <use xlink:href="#STZhongsong-6bd4" transform="translate(99.999985 0)"/>
      <use xlink:href="#STZhongsong-ff08" transform="translate(199.999969 0)"/>
      <use xlink:href="#STZhongsong-25" transform="translate(299.999954 0)"/>
      <use xlink:href="#STZhongsong-ff09" transform="translate(389.999939 0)"/>
     </g>
    </g>
   </g>
   <g id="patch_53">
    <path d="M 61.995 371.750361 
L 61.995 38.927031 
" style="fill: none; stroke: #111111; stroke-width: 1.35; stroke-linejoin: miter; stroke-linecap: square"/>
   </g>
   <g id="patch_54">
    <path d="M 61.995 371.750361 
L 849.745 371.750361 
" style="fill: none; stroke: #111111; stroke-width: 1.35; stroke-linejoin: miter; stroke-linecap: square"/>
   </g>
   <g id="text_14">
    <!-- 企业规模年度结构变化 -->
    <g style="fill: #111111" transform="translate(350.87 22.927031) scale(0.21 -0.21)">
     <defs>
      <path id="STZhongsong-4f01" d="M 3232 4314 
Q 3174 4243 3130 4160 
Q 2726 3469 2377 3046 
Q 2029 2624 1542 2272 
Q 1056 1920 218 1459 
L 154 1562 
Q 1139 2291 1696 2979 
Q 2253 3667 2771 4832 
Q 3482 4576 3482 4506 
Q 3482 4467 3341 4410 
Q 4179 3034 6259 2554 
L 6246 2432 
Q 5946 2432 5786 2371 
Q 5626 2310 5472 2112 
Q 5427 2061 5389 2061 
Q 5318 2061 4774 2432 
Q 4230 2803 3852 3251 
Q 3475 3699 3232 4314 
z
M 3558 1414 
L 4179 1414 
L 4429 1754 
Q 4486 1830 4557 1830 
Q 4614 1830 4761 1721 
Q 4909 1613 5056 1472 
Q 5203 1331 5203 1286 
Q 5203 1216 5062 1216 
L 3558 1216 
L 3558 -461 
L 4870 -461 
L 5171 -45 
Q 5235 45 5280 45 
Q 5344 45 5696 -240 
Q 6048 -525 6048 -598 
Q 6048 -672 5933 -672 
L 723 -672 
Q 550 -672 454 -717 
L 339 -429 
Q 474 -461 659 -461 
L 1466 -461 
L 1466 1370 
Q 1466 1690 1453 1939 
Q 1971 1805 2076 1763 
Q 2182 1722 2182 1677 
Q 2182 1632 2016 1549 
L 2016 -461 
L 3034 -461 
L 3034 2413 
Q 3034 2733 3021 2982 
Q 3360 2899 3568 2816 
Q 3776 2733 3776 2682 
Q 3776 2611 3558 2502 
L 3558 1414 
z
" transform="scale(0.015625)"/>
      <path id="STZhongsong-4e1a" d="M 3552 -422 
L 3552 4154 
Q 3552 4646 3539 4755 
Q 3821 4698 4096 4608 
Q 4371 4518 4371 4448 
Q 4371 4378 4096 4243 
L 4096 768 
Q 4659 1626 5158 3341 
Q 5747 3053 5843 2989 
Q 5939 2925 5939 2873 
Q 5939 2822 5818 2810 
Q 5766 2803 5731 2771 
Q 5696 2739 5619 2618 
Q 4813 1210 4096 442 
L 4096 -422 
L 5056 -422 
L 5370 -26 
Q 5440 58 5485 58 
Q 5530 58 5616 -16 
Q 5702 -90 5862 -240 
Q 6022 -390 6092 -476 
Q 6163 -563 6163 -608 
Q 6163 -653 6048 -653 
L 640 -653 
Q 499 -653 416 -685 
L 282 -390 
Q 384 -422 538 -422 
L 2278 -422 
L 2278 4115 
Q 2278 4608 2266 4717 
Q 2886 4576 3001 4531 
Q 3117 4486 3117 4422 
Q 3117 4358 2822 4256 
L 2822 -422 
L 3552 -422 
z
M 787 3181 
Q 1357 2458 1645 2000 
Q 1933 1542 1933 1273 
Q 1933 1005 1757 758 
Q 1581 512 1434 512 
Q 1363 512 1340 557 
Q 1318 602 1318 781 
Q 1318 1754 698 3104 
L 787 3181 
z
" transform="scale(0.015625)"/>
      <path id="STZhongsong-89c4" d="M 1824 3206 
Q 1798 2362 1786 2214 
L 2163 2214 
L 2374 2502 
Q 2432 2573 2464 2573 
Q 2528 2573 2761 2349 
Q 2995 2125 2995 2070 
Q 2995 2016 2861 2016 
L 1773 2016 
Q 1760 1722 1709 1389 
Q 2752 813 2752 365 
Q 2752 218 2633 45 
Q 2515 -128 2438 -128 
Q 2362 -128 2326 -77 
Q 2291 -26 2234 186 
Q 2048 877 1683 1235 
Q 1542 493 1251 51 
Q 960 -390 262 -986 
L 166 -896 
Q 499 -525 694 -233 
Q 890 58 1027 502 
Q 1165 947 1216 1180 
Q 1267 1414 1299 2016 
L 627 2016 
Q 454 2016 358 1971 
L 243 2246 
Q 378 2214 563 2214 
L 1306 2214 
L 1331 3206 
L 762 3206 
Q 589 3206 493 3162 
L 378 3450 
Q 512 3418 698 3418 
L 1331 3418 
Q 1344 4122 1312 4838 
Q 2048 4627 2048 4512 
Q 2048 4467 1945 4416 
Q 1843 4365 1837 4230 
L 1824 3418 
L 2042 3418 
L 2266 3699 
Q 2323 3776 2374 3776 
Q 2426 3776 2653 3552 
Q 2880 3328 2880 3267 
Q 2880 3206 2752 3206 
L 1824 3206 
z
M 3610 4256 
L 4832 4256 
L 4986 4499 
Q 5037 4582 5091 4582 
Q 5146 4582 5418 4396 
Q 5690 4211 5690 4134 
Q 5690 4058 5414 3917 
L 5414 1824 
Q 5414 1587 5421 1498 
L 5434 1325 
Q 5434 1261 5206 1165 
Q 4979 1069 4950 1069 
Q 4922 1069 4922 1139 
L 4922 4058 
L 3501 4058 
L 3501 1197 
Q 3501 1146 3469 1120 
Q 3437 1094 3238 995 
Q 3040 896 3014 896 
Q 2989 896 2989 954 
L 3002 1254 
Q 3014 1555 3014 1818 
L 3014 4013 
Q 3014 4294 2995 4563 
Q 3296 4454 3610 4256 
z
M 4102 838 
Q 3667 -250 2042 -1101 
L 1990 -992 
Q 2790 -410 3190 96 
Q 3590 602 3744 1187 
Q 3898 1773 3898 2950 
Q 3898 3251 3885 3584 
Q 4422 3450 4489 3434 
Q 4557 3418 4589 3392 
Q 4621 3366 4621 3318 
Q 4621 3270 4550 3232 
Q 4480 3194 4461 3142 
Q 4442 3091 4435 2912 
Q 4384 1952 4294 1427 
Q 4736 1267 4736 1212 
Q 4736 1158 4602 1075 
L 4602 -211 
Q 4602 -294 4621 -323 
Q 4640 -352 4678 -361 
Q 4717 -371 4877 -390 
Q 5037 -410 5177 -410 
Q 5318 -410 5401 -381 
Q 5485 -352 5561 -99 
Q 5638 154 5709 890 
L 5843 890 
Q 5837 659 5837 512 
Q 5837 90 5894 -57 
Q 5952 -205 6131 -339 
Q 6208 -397 6208 -457 
Q 6208 -518 6073 -675 
Q 5939 -832 5769 -873 
Q 5600 -915 5241 -915 
Q 4883 -915 4611 -873 
Q 4339 -832 4249 -784 
Q 4160 -736 4131 -627 
Q 4102 -518 4102 -269 
L 4102 838 
z
" transform="scale(0.015625)"/>
      <path id="STZhongsong-6a21" d="M 4730 4013 
L 5235 4013 
L 5459 4339 
Q 5504 4403 5536 4403 
Q 5600 4403 5894 4179 
Q 6189 3955 6189 3891 
Q 6189 3827 6035 3827 
L 4730 3827 
L 4749 3450 
Q 4749 3405 4710 3376 
Q 4672 3347 4518 3302 
Q 4365 3258 4310 3258 
Q 4256 3258 4256 3347 
L 4256 3827 
L 3610 3827 
L 3610 3418 
Q 3610 3360 3584 3334 
Q 3558 3309 3430 3270 
Q 3302 3232 3136 3232 
Q 3085 3232 3085 3309 
L 3104 3827 
L 2586 3827 
Q 2419 3827 2349 3795 
L 2208 4045 
Q 2330 4013 2496 4013 
L 3104 4013 
L 3104 4397 
Q 3104 4608 3085 4864 
Q 3770 4730 3770 4653 
Q 3770 4614 3610 4525 
L 3610 4013 
L 4256 4013 
L 4256 4429 
Q 4256 4640 4237 4896 
Q 4614 4800 4764 4755 
Q 4915 4710 4915 4672 
Q 4915 4614 4730 4518 
L 4730 4013 
z
M 1702 3322 
L 1850 3322 
L 1997 3571 
Q 2048 3654 2086 3654 
Q 2118 3654 2355 3478 
Q 2592 3302 2592 3232 
Q 2592 3155 2496 3155 
L 1702 3155 
L 1702 2554 
Q 2118 2413 2336 2269 
Q 2554 2125 2554 1965 
Q 2554 1805 2451 1645 
Q 2349 1485 2246 1485 
Q 2176 1485 2147 1520 
Q 2118 1555 2073 1744 
Q 2029 1933 1923 2147 
Q 1818 2362 1702 2451 
L 1702 -806 
Q 1702 -870 1641 -908 
Q 1581 -947 1414 -1004 
Q 1248 -1062 1190 -1062 
Q 1152 -1062 1152 -998 
L 1165 -736 
Q 1171 -467 1171 -141 
L 1171 1869 
Q 845 1126 192 358 
L 96 435 
Q 442 973 643 1536 
Q 845 2099 1107 3155 
L 589 3155 
Q 422 3155 314 3123 
L 205 3354 
Q 339 3322 525 3322 
L 1171 3322 
L 1171 4166 
Q 1171 4582 1152 4890 
Q 1600 4787 1763 4739 
Q 1926 4691 1926 4640 
Q 1926 4576 1702 4448 
L 1702 3322 
z
M 4090 704 
L 5254 704 
L 5459 1037 
Q 5504 1114 5565 1114 
Q 5626 1114 5898 867 
Q 6170 621 6170 569 
Q 6170 518 6042 518 
L 4269 518 
Q 4698 -237 6208 -467 
L 6208 -595 
Q 5965 -608 5827 -665 
Q 5690 -723 5517 -934 
Q 5485 -973 5453 -973 
Q 5402 -973 4986 -697 
Q 4570 -422 4390 -169 
Q 4211 83 4102 518 
L 4045 518 
Q 3872 -128 3421 -454 
Q 2970 -781 1971 -1158 
L 1907 -1037 
Q 2650 -659 3008 -323 
Q 3366 13 3501 518 
L 2246 518 
Q 2099 518 1997 486 
L 1901 730 
Q 2029 704 2189 704 
L 3546 704 
Q 3610 979 3622 1414 
L 3194 1414 
L 3194 1267 
Q 3194 1203 3152 1168 
Q 3110 1133 2940 1078 
Q 2771 1024 2716 1024 
Q 2662 1024 2662 1082 
L 2675 1248 
Q 2694 1440 2694 1638 
L 2694 2790 
Q 2694 3027 2675 3277 
Q 3014 3181 3251 3066 
L 4755 3066 
L 4928 3296 
Q 4966 3347 5008 3347 
Q 5050 3347 5229 3248 
Q 5408 3149 5501 3097 
Q 5594 3046 5594 2976 
Q 5594 2906 5350 2758 
L 5350 1587 
L 5363 1306 
Q 5363 1229 5139 1149 
Q 4915 1069 4867 1069 
Q 4819 1069 4819 1139 
L 4819 1414 
L 4179 1414 
Q 4160 1043 4090 704 
z
M 3194 2342 
L 4819 2342 
L 4819 2880 
L 3194 2880 
L 3194 2342 
z
M 4819 2157 
L 3194 2157 
L 3194 1587 
L 4819 1587 
L 4819 2157 
z
" transform="scale(0.015625)"/>
      <path id="STZhongsong-5ea6" d="M 3296 3987 
Q 3219 4301 3120 4473 
Q 3021 4646 2810 4832 
L 2854 4915 
Q 3878 4736 3878 4365 
Q 3878 4269 3814 4166 
Q 3750 4064 3610 3987 
L 5075 3987 
L 5376 4346 
Q 5427 4410 5466 4410 
Q 5536 4410 5808 4163 
Q 6080 3917 6080 3859 
Q 6080 3802 5965 3802 
L 1754 3802 
Q 1754 3488 1741 2931 
L 2656 2931 
L 2656 3277 
Q 2656 3488 2637 3744 
Q 3059 3648 3200 3600 
Q 3341 3552 3341 3507 
Q 3341 3456 3174 3360 
L 3174 2931 
L 4179 2931 
L 4179 3270 
Q 4179 3482 4160 3738 
Q 4653 3629 4765 3581 
Q 4877 3533 4877 3501 
Q 4877 3450 4710 3354 
L 4710 2931 
L 5094 2931 
L 5363 3309 
Q 5402 3360 5434 3360 
Q 5498 3360 5750 3107 
Q 6003 2854 6003 2803 
Q 6003 2752 5888 2752 
L 4710 2752 
L 4710 2355 
Q 4710 2067 4717 1946 
L 4730 1747 
Q 4730 1702 4678 1673 
Q 4627 1645 4457 1590 
Q 4288 1536 4218 1536 
Q 4179 1536 4179 1600 
L 4179 1888 
L 3174 1888 
L 3174 1722 
Q 3174 1677 3164 1648 
Q 3155 1619 2934 1552 
Q 2714 1485 2672 1485 
Q 2630 1485 2630 1530 
L 2643 1754 
Q 2656 1920 2656 2150 
L 2656 2752 
L 1734 2752 
Q 1696 1491 1606 963 
Q 1517 435 1238 -51 
Q 960 -538 358 -1082 
L 275 -1005 
Q 832 -262 1011 477 
Q 1190 1216 1190 2477 
Q 1190 3738 1158 4320 
Q 1510 4198 1843 3987 
L 3296 3987 
z
M 4179 2752 
L 3174 2752 
L 3174 2074 
L 4179 2074 
L 4179 2752 
z
M 3674 -250 
Q 2842 -806 1139 -1069 
L 1139 -941 
Q 2432 -627 3354 19 
Q 2944 422 2669 1133 
L 2387 1133 
Q 2214 1133 2118 1088 
L 2003 1350 
Q 2138 1318 2323 1318 
L 4467 1318 
L 4602 1472 
Q 4653 1530 4697 1530 
Q 4742 1530 5024 1331 
Q 5306 1133 5306 1078 
Q 5306 1024 5206 1017 
Q 5107 1011 5062 995 
Q 5018 979 4954 902 
Q 4506 403 4090 51 
Q 4858 -294 6227 -416 
L 6182 -557 
Q 5894 -557 5721 -643 
Q 5549 -730 5459 -922 
Q 5427 -992 5376 -992 
Q 5280 -992 4681 -768 
Q 4083 -544 3674 -250 
z
M 3686 269 
Q 4166 685 4403 1133 
L 2848 1133 
Q 3187 602 3686 269 
z
" transform="scale(0.015625)"/>
      <path id="STZhongsong-7ed3" d="M 4499 3411 
L 4499 2304 
L 5011 2304 
L 5242 2598 
Q 5299 2675 5363 2675 
Q 5427 2675 5676 2435 
Q 5926 2195 5926 2144 
Q 5926 2093 5792 2093 
L 2995 2093 
Q 2822 2093 2726 2048 
L 2611 2336 
Q 2746 2304 2931 2304 
L 3930 2304 
L 3930 3411 
L 3174 3411 
Q 3002 3411 2906 3366 
L 2790 3654 
Q 2931 3622 3123 3622 
L 3930 3622 
L 3930 4288 
Q 3930 4621 3917 4877 
Q 4224 4819 4432 4755 
Q 4640 4691 4694 4662 
Q 4749 4634 4749 4608 
Q 4749 4544 4499 4390 
L 4499 3622 
L 5146 3622 
L 5382 3955 
Q 5440 4032 5485 4032 
Q 5530 4032 5645 3936 
L 5952 3674 
Q 6138 3514 6138 3462 
Q 6138 3411 6016 3411 
L 4499 3411 
z
M 1696 2515 
Q 838 2336 576 2208 
Q 531 2189 508 2189 
Q 486 2189 473 2205 
Q 461 2221 400 2358 
Q 339 2496 288 2675 
Q 563 2720 652 2819 
Q 742 2918 1008 3481 
Q 1274 4045 1542 4870 
Q 1786 4755 1984 4640 
Q 2182 4525 2224 4486 
Q 2266 4448 2266 4416 
Q 2266 4352 2106 4339 
Q 1971 4333 1843 4102 
Q 1389 3315 915 2701 
L 1818 2739 
Q 2093 3264 2291 3699 
Q 2528 3546 2678 3430 
Q 2829 3315 2857 3283 
Q 2886 3251 2886 3226 
Q 2886 3168 2726 3142 
Q 2650 3136 2547 2982 
Q 1971 2125 1286 1331 
L 2662 1453 
L 2669 1325 
Q 1107 902 870 787 
Q 800 755 774 755 
Q 749 755 739 771 
Q 730 787 672 954 
L 563 1286 
Q 787 1331 921 1392 
Q 1056 1453 1296 1840 
Q 1536 2227 1696 2515 
z
M 3578 1402 
L 4883 1402 
L 5037 1651 
Q 5082 1722 5123 1722 
Q 5165 1722 5286 1638 
L 5574 1446 
Q 5741 1338 5741 1277 
Q 5741 1216 5523 1114 
L 5523 -250 
Q 5523 -378 5530 -499 
L 5542 -691 
Q 5542 -755 5481 -800 
Q 5421 -845 5270 -896 
Q 5120 -947 5049 -947 
Q 4979 -947 4969 -918 
Q 4960 -890 4960 -826 
L 4960 -384 
L 3533 -384 
L 3533 -717 
Q 3533 -813 3478 -854 
Q 3424 -896 3254 -960 
Q 3085 -1024 3014 -1024 
Q 2970 -1024 2976 -941 
Q 3002 -685 3002 -371 
L 3002 1101 
Q 3002 1382 2982 1664 
Q 3379 1542 3578 1402 
z
M 4960 -166 
L 4960 1203 
L 3533 1203 
L 3533 -166 
L 4960 -166 
z
M 2720 358 
L 1549 -179 
Q 774 -538 745 -538 
Q 717 -538 701 -522 
Q 685 -506 592 -342 
Q 499 -179 416 6 
Q 883 45 2694 474 
L 2720 358 
z
" transform="scale(0.015625)"/>
      <path id="STZhongsong-6784" d="M 1965 3469 
L 2118 3469 
L 2349 3827 
Q 2394 3898 2426 3898 
Q 2458 3898 2624 3760 
Q 2790 3622 2892 3510 
Q 2995 3398 2995 3334 
Q 2995 3270 2906 3270 
L 1965 3270 
L 1965 2374 
Q 2368 2189 2601 2025 
Q 2835 1862 2835 1689 
Q 2835 1517 2716 1376 
Q 2598 1235 2524 1235 
Q 2451 1235 2412 1283 
Q 2374 1331 2336 1485 
Q 2195 2010 1965 2214 
L 1965 -762 
Q 1965 -806 1942 -825 
Q 1920 -845 1824 -889 
Q 1728 -934 1597 -972 
Q 1466 -1011 1434 -1011 
Q 1402 -1011 1408 -947 
Q 1434 -640 1434 -90 
L 1434 1869 
Q 1274 1459 1027 1104 
Q 781 749 262 179 
L 179 237 
Q 672 1050 909 1638 
Q 1146 2227 1408 3270 
L 851 3270 
Q 685 3270 576 3238 
L 403 3501 
Q 538 3469 723 3469 
L 1434 3469 
L 1434 4166 
Q 1434 4589 1414 4896 
Q 1600 4864 1891 4781 
Q 2182 4698 2182 4646 
Q 2182 4595 1965 4467 
L 1965 3469 
z
M 3699 3443 
Q 3302 2842 2656 2150 
L 2573 2214 
Q 3322 3264 3699 4890 
Q 4000 4781 4182 4685 
Q 4365 4589 4397 4560 
Q 4429 4531 4429 4499 
Q 4429 4435 4320 4416 
Q 4250 4403 4198 4339 
Q 4147 4275 4012 4006 
Q 3878 3738 3821 3642 
L 5267 3642 
L 5421 3878 
Q 5459 3936 5516 3936 
Q 5574 3936 5862 3741 
Q 6150 3546 6150 3475 
Q 6150 3386 5875 3270 
Q 5856 2054 5824 1059 
Q 5792 64 5757 -217 
Q 5722 -499 5603 -633 
Q 5485 -768 5158 -918 
Q 4832 -1069 4781 -1069 
Q 4698 -1069 4646 -909 
Q 4595 -749 4518 -643 
Q 4442 -538 4259 -445 
Q 4077 -352 3725 -243 
L 3744 -128 
Q 4538 -250 4778 -250 
Q 5018 -250 5088 -160 
Q 5158 -70 5193 205 
Q 5229 480 5267 1619 
Q 5306 2758 5306 3443 
L 3699 3443 
z
M 4416 845 
Q 3731 678 3484 582 
Q 3238 486 3002 307 
Q 2963 275 2908 275 
Q 2854 275 2822 313 
Q 2790 352 2579 800 
Q 2886 909 3008 1097 
Q 3130 1286 3395 1884 
Q 3661 2483 3840 3021 
Q 4102 2906 4268 2810 
Q 4435 2714 4460 2685 
Q 4486 2656 4486 2630 
Q 4486 2566 4387 2560 
Q 4288 2554 4224 2458 
L 3859 1888 
Q 3558 1421 3174 870 
L 4365 1030 
Q 4250 1427 4077 1792 
L 4160 1856 
Q 4557 1472 4771 1184 
Q 4986 896 4986 713 
Q 4986 531 4867 380 
Q 4749 230 4614 230 
Q 4525 230 4499 422 
Q 4461 666 4416 845 
z
" transform="scale(0.015625)"/>
      <path id="STZhongsong-53d8" d="M 2912 3885 
Q 2835 4390 2330 4787 
L 2381 4915 
Q 2912 4787 3197 4643 
Q 3482 4499 3482 4301 
Q 3482 4211 3430 4092 
Q 3379 3974 3270 3885 
L 4819 3885 
L 5094 4288 
Q 5152 4365 5209 4365 
Q 5267 4365 5564 4080 
Q 5862 3795 5862 3728 
Q 5862 3661 5696 3661 
L 3968 3661 
L 3968 2445 
Q 3968 2182 3974 2048 
L 3987 1837 
Q 3987 1798 3929 1760 
Q 3872 1722 3709 1664 
Q 3546 1606 3469 1606 
Q 3418 1606 3418 1696 
L 3418 3661 
L 2733 3661 
L 2733 1779 
Q 2733 1722 2707 1696 
Q 2682 1670 2474 1600 
Q 2266 1530 2214 1530 
Q 2163 1530 2163 1606 
L 2176 1869 
Q 2182 2138 2182 2451 
L 2182 3661 
L 723 3661 
Q 550 3661 454 3616 
L 339 3917 
Q 474 3885 659 3885 
L 2912 3885 
z
M 1338 3277 
Q 2010 2938 2010 2835 
Q 2010 2784 1917 2768 
Q 1824 2752 1779 2717 
Q 1734 2682 1658 2573 
Q 1382 2150 1065 1859 
Q 749 1568 288 1235 
L 179 1338 
Q 627 1798 873 2214 
Q 1120 2630 1338 3277 
z
M 4275 3238 
Q 4870 2970 5174 2790 
Q 5478 2611 5580 2473 
Q 5683 2336 5683 2137 
Q 5683 1939 5580 1779 
Q 5478 1619 5370 1619 
Q 5306 1619 5261 1683 
Q 5216 1747 5114 1997 
Q 4832 2669 4205 3104 
L 4275 3238 
z
M 3104 -186 
Q 2003 -858 307 -1107 
L 288 -966 
Q 1830 -550 2746 77 
Q 2150 582 1862 1286 
L 1587 1286 
Q 1414 1286 1318 1242 
L 1203 1536 
Q 1338 1504 1523 1504 
L 4077 1504 
L 4288 1715 
Q 4326 1754 4365 1754 
Q 4448 1754 4707 1539 
Q 4966 1325 4966 1274 
Q 4966 1216 4844 1200 
Q 4723 1184 4640 1120 
Q 4557 1056 4378 858 
Q 4013 442 3552 109 
Q 4595 -333 6170 -371 
L 6170 -512 
Q 5830 -538 5622 -630 
Q 5414 -723 5306 -960 
Q 5274 -1018 5222 -1018 
Q 5146 -1018 4643 -874 
Q 4141 -730 3805 -576 
Q 3469 -422 3104 -186 
z
M 3098 333 
Q 3622 736 4026 1286 
L 2074 1286 
Q 2432 710 3098 333 
z
" transform="scale(0.015625)"/>
      <path id="STZhongsong-5316" d="M 1523 2445 
Q 960 1683 237 1114 
L 154 1210 
Q 838 2010 1283 2880 
Q 1728 3750 2010 4890 
Q 2432 4698 2617 4570 
Q 2803 4442 2803 4390 
Q 2803 4326 2630 4301 
Q 2554 4288 2496 4205 
Q 2438 4122 2291 3779 
Q 2144 3437 1933 3072 
Q 2195 2982 2195 2931 
Q 2195 2880 2074 2797 
L 2074 -762 
Q 2074 -819 2013 -864 
Q 1952 -909 1766 -979 
Q 1581 -1050 1536 -1050 
Q 1491 -1050 1491 -986 
L 1504 -531 
Q 1523 -70 1523 518 
L 1523 2445 
z
M 4102 1619 
L 4102 38 
Q 4102 -122 4182 -170 
Q 4262 -218 4745 -218 
Q 5229 -218 5366 -141 
Q 5504 -64 5561 201 
Q 5619 467 5702 1267 
L 5837 1267 
Q 5830 1024 5830 838 
Q 5830 358 5881 182 
Q 5933 6 6054 -58 
Q 6176 -122 6176 -166 
Q 6176 -211 6089 -361 
Q 6003 -512 5907 -598 
Q 5811 -685 5705 -710 
Q 5600 -736 5229 -758 
Q 4858 -781 4454 -781 
Q 4051 -781 3856 -713 
Q 3661 -646 3584 -470 
Q 3507 -294 3507 38 
L 3507 1242 
Q 2957 928 2157 608 
L 2125 749 
Q 2899 1184 3507 1638 
L 3507 4006 
Q 3507 4525 3488 4845 
Q 4384 4570 4384 4461 
Q 4384 4410 4102 4282 
L 4102 2150 
Q 4768 2784 5434 3866 
Q 5664 3635 5824 3408 
Q 5984 3181 5984 3126 
Q 5984 3072 5939 3072 
Q 5894 3072 5856 3081 
Q 5818 3091 5773 3091 
Q 5728 3091 5638 3011 
Q 5549 2931 5357 2733 
Q 4691 2042 4102 1619 
z
" transform="scale(0.015625)"/>
     </defs>
     <use xlink:href="#STZhongsong-4f01"/>
     <use xlink:href="#STZhongsong-4e1a" transform="translate(99.999985 0)"/>
     <use xlink:href="#STZhongsong-89c4" transform="translate(199.999969 0)"/>
     <use xlink:href="#STZhongsong-6a21" transform="translate(299.999954 0)"/>
     <use xlink:href="#STZhongsong-5e74" transform="translate(399.999939 0)"/>
     <use xlink:href="#STZhongsong-5ea6" transform="translate(499.999924 0)"/>
     <use xlink:href="#STZhongsong-7ed3" transform="translate(599.999908 0)"/>
     <use xlink:href="#STZhongsong-6784" transform="translate(699.999893 0)"/>
     <use xlink:href="#STZhongsong-53d8" transform="translate(799.999878 0)"/>
     <use xlink:href="#STZhongsong-5316" transform="translate(899.999863 0)"/>
    </g>
   </g>
   <g id="legend_1">
    <g id="patch_55">
     <path d="M 231.87 434.677598 
L 259.87 434.677598 
L 259.87 424.877598 
L 231.87 424.877598 
z
" style="fill: #a6cee3"/>
    </g>
    <g id="text_15">
     <!-- 微型 -->
     <g style="fill: #111111" transform="translate(271.07 434.677598) scale(0.14 -0.14)">
      <defs>
       <path id="STZhongsong-5fae" d="M 2938 2848 
L 2938 4198 
Q 2938 4672 2931 4768 
Q 3168 4742 3379 4688 
Q 3590 4634 3590 4589 
Q 3590 4544 3386 4435 
L 3386 2848 
L 3738 2848 
L 3738 3661 
Q 3738 3904 3725 4000 
Q 3866 3994 4086 3936 
Q 4307 3878 4307 3840 
Q 4307 3802 4160 3712 
L 4160 3014 
L 4173 2733 
Q 4173 2669 4131 2630 
Q 4090 2592 3965 2547 
Q 3840 2502 3789 2502 
Q 3738 2502 3738 2560 
L 3738 2675 
L 2598 2675 
L 2483 2534 
Q 2438 2490 2413 2490 
Q 2368 2490 2054 2707 
Q 2144 2797 2163 2845 
Q 2182 2893 2182 3021 
L 2182 3693 
Q 2182 3834 2170 4064 
Q 2726 3936 2726 3891 
Q 2726 3846 2592 3757 
L 2592 2848 
L 2938 2848 
z
M 4800 3059 
L 5427 3059 
L 5645 3354 
Q 5709 3443 5753 3443 
Q 5798 3443 6048 3196 
Q 6298 2950 6298 2912 
Q 6298 2874 6189 2874 
L 5350 2874 
Q 5856 2701 5856 2637 
Q 5856 2611 5785 2569 
Q 5715 2528 5689 2470 
Q 5664 2413 5645 2272 
Q 5472 1050 5120 378 
Q 5536 -243 6336 -736 
L 6336 -832 
Q 6080 -826 5933 -858 
Q 5786 -890 5683 -963 
Q 5581 -1037 5555 -1037 
Q 5536 -1037 5478 -982 
Q 5421 -928 5209 -633 
Q 4998 -339 4851 -51 
Q 4352 -723 3053 -1235 
L 2995 -1139 
Q 3757 -627 4115 -297 
Q 4474 32 4666 365 
Q 4442 992 4365 2221 
Q 4230 2003 3923 1581 
L 3840 1651 
Q 3930 1824 3968 1907 
L 2317 1907 
Q 2157 1907 2042 1875 
L 1933 2112 
Q 2067 2080 2253 2080 
L 3392 2080 
L 3558 2310 
Q 3590 2355 3628 2355 
Q 3667 2355 3801 2233 
Q 3936 2112 4019 2016 
Q 4474 2950 4742 4730 
Q 5459 4480 5459 4403 
Q 5459 4371 5366 4352 
Q 5274 4333 5248 4297 
Q 5222 4262 5091 3843 
Q 4960 3424 4800 3059 
z
M 5210 2874 
L 4717 2874 
Q 4621 2662 4486 2426 
Q 4666 1184 4870 806 
Q 5107 1459 5210 2874 
z
M 1613 4653 
Q 2125 4256 2125 4192 
Q 2125 4166 2086 4163 
Q 2048 4160 1993 4160 
Q 1939 4160 1811 4032 
Q 1408 3648 1123 3430 
Q 838 3213 365 2944 
L 282 3046 
Q 762 3507 1034 3830 
Q 1306 4154 1613 4653 
z
M 1171 1869 
Q 800 1453 211 915 
L 122 1011 
Q 1120 2342 1632 3501 
Q 2157 3206 2157 3149 
Q 2157 3117 2048 3085 
Q 1984 3066 1872 2861 
Q 1760 2656 1600 2413 
Q 1619 2406 1712 2380 
Q 1805 2355 1805 2316 
Q 1805 2278 1658 2189 
L 1658 -237 
L 1670 -890 
Q 1670 -954 1619 -995 
Q 1568 -1037 1411 -1104 
Q 1254 -1171 1212 -1171 
Q 1171 -1171 1171 -1114 
L 1171 1869 
z
M 2720 1440 
L 3194 1440 
L 3347 1626 
Q 3366 1645 3392 1645 
Q 3443 1645 3632 1513 
Q 3821 1382 3821 1350 
Q 3821 1312 3622 1197 
L 3622 192 
L 4314 685 
L 4390 589 
Q 3718 -58 3587 -189 
Q 3456 -320 3421 -387 
Q 3386 -454 3360 -454 
Q 3328 -454 3190 -300 
Q 3053 -147 3008 -77 
Q 3187 51 3187 205 
L 3187 1286 
L 2720 1286 
Q 2701 659 2627 259 
Q 2554 -141 2470 -313 
Q 2387 -486 2227 -659 
Q 2067 -832 1779 -1069 
L 1715 -986 
Q 1946 -666 2016 -531 
Q 2086 -397 2153 -80 
Q 2221 237 2240 659 
Q 2259 1082 2253 1645 
Q 2541 1549 2720 1440 
z
" transform="scale(0.015625)"/>
       <path id="STZhongsong-578b" d="M 5146 4794 
Q 5434 4704 5632 4624 
Q 5830 4544 5862 4521 
Q 5894 4499 5894 4474 
Q 5894 4410 5677 4282 
L 5677 1530 
Q 5677 1248 5609 1155 
Q 5542 1062 5321 950 
Q 5101 838 5024 838 
Q 4947 838 4934 922 
Q 4909 1146 4752 1277 
Q 4595 1408 4339 1504 
L 4358 1594 
Q 4851 1510 4966 1510 
Q 5082 1510 5120 1532 
Q 5158 1555 5158 1632 
L 5158 4166 
Q 5158 4531 5146 4794 
z
M 2029 2682 
Q 1971 1837 1667 1411 
Q 1363 986 422 531 
L 352 640 
Q 954 1024 1219 1462 
Q 1485 1901 1536 2682 
L 858 2682 
Q 717 2682 614 2643 
L 512 2899 
Q 640 2874 800 2874 
L 1549 2874 
Q 1594 3590 1574 4045 
L 1126 4045 
Q 986 4045 883 4006 
L 781 4262 
Q 909 4237 1069 4237 
L 3130 4237 
L 3309 4525 
Q 3366 4614 3420 4614 
Q 3475 4614 3721 4380 
Q 3968 4147 3968 4096 
Q 3968 4045 3872 4045 
L 3104 4045 
L 3104 2874 
L 3302 2874 
L 3456 3117 
Q 3514 3194 3568 3194 
Q 3622 3194 3836 2992 
Q 4051 2790 4051 2736 
Q 4051 2682 3942 2682 
L 3104 2682 
L 3104 1965 
L 3117 1453 
Q 3117 1370 3078 1328 
Q 3040 1286 2864 1200 
Q 2688 1114 2646 1114 
Q 2605 1114 2605 1222 
L 2605 2682 
L 2029 2682 
z
M 2074 4045 
Q 2080 3456 2042 2874 
L 2605 2874 
L 2605 4045 
L 2074 4045 
z
M 4154 4090 
Q 4403 4032 4572 3968 
Q 4742 3904 4784 3885 
Q 4826 3866 4826 3840 
Q 4826 3782 4608 3654 
L 4608 2541 
L 4621 1971 
Q 4621 1914 4585 1872 
Q 4550 1830 4400 1750 
Q 4250 1670 4202 1670 
Q 4154 1670 4154 1715 
Q 4154 1760 4160 1929 
Q 4166 2099 4166 2496 
L 4166 3565 
Q 4166 3859 4154 4090 
z
M 2899 -614 
L 2899 256 
L 1510 256 
Q 1338 256 1242 211 
L 1126 499 
Q 1261 467 1446 467 
L 2899 467 
Q 2899 1075 2886 1184 
Q 3130 1146 3350 1085 
Q 3571 1024 3622 1001 
Q 3674 979 3674 954 
Q 3674 896 3456 768 
L 3456 467 
L 4435 467 
L 4653 762 
Q 4691 819 4739 819 
Q 4787 819 4915 713 
Q 5043 608 5206 483 
Q 5370 358 5370 307 
Q 5370 256 5216 256 
L 3456 256 
L 3456 -614 
L 5120 -614 
L 5414 -243 
Q 5466 -186 5504 -186 
Q 5594 -186 5894 -461 
Q 6195 -736 6195 -781 
Q 6195 -826 6042 -826 
L 698 -826 
Q 525 -826 429 -870 
L 314 -582 
Q 448 -614 634 -614 
L 2899 -614 
z
" transform="scale(0.015625)"/>
      </defs>
      <use xlink:href="#STZhongsong-5fae"/>
      <use xlink:href="#STZhongsong-578b" transform="translate(99.999985 0)"/>
     </g>
    </g>
    <g id="patch_56">
     <path d="M 327.07 434.677598 
L 355.07 434.677598 
L 355.07 424.877598 
L 327.07 424.877598 
z
" style="fill: #74a9cf"/>
    </g>
    <g id="text_16">
     <!-- 小型 -->
     <g style="fill: #111111" transform="translate(366.27 434.677598) scale(0.14 -0.14)">
      <defs>
       <path id="STZhongsong-5c0f" d="M 2899 4838 
Q 3386 4768 3619 4691 
Q 3853 4614 3853 4570 
Q 3853 4506 3533 4358 
L 3533 -96 
Q 3533 -442 3446 -586 
Q 3360 -730 3097 -858 
Q 2835 -986 2742 -986 
Q 2650 -986 2637 -858 
Q 2605 -582 2384 -422 
Q 2163 -262 1702 -134 
L 1722 -6 
Q 2477 -122 2659 -122 
Q 2842 -122 2883 -70 
Q 2925 -19 2925 115 
L 2925 4134 
Q 2925 4557 2899 4838 
z
M 1658 3136 
Q 1792 3104 2109 2973 
Q 2426 2842 2426 2787 
Q 2426 2733 2346 2704 
Q 2266 2675 2205 2595 
Q 2144 2515 2003 2234 
Q 1587 1408 1190 877 
Q 794 346 262 -154 
L 179 -51 
Q 1075 1165 1658 3136 
z
M 4026 2880 
Q 4928 2291 5421 1814 
Q 5914 1338 5914 928 
Q 5914 717 5811 515 
Q 5709 314 5587 314 
Q 5466 314 5392 419 
Q 5318 525 5200 864 
Q 5082 1203 4778 1667 
Q 4474 2131 3930 2778 
L 4026 2880 
z
" transform="scale(0.015625)"/>
      </defs>
      <use xlink:href="#STZhongsong-5c0f"/>
      <use xlink:href="#STZhongsong-578b" transform="translate(99.999985 0)"/>
     </g>
    </g>
    <g id="patch_57">
     <path d="M 422.27 434.677598 
L 450.27 434.677598 
L 450.27 424.877598 
L 422.27 424.877598 
z
" style="fill: #fdbf6f"/>
    </g>
    <g id="text_17">
     <!-- 中型 -->
     <g style="fill: #111111" transform="translate(461.47 434.677598) scale(0.14 -0.14)">
      <defs>
       <path id="STZhongsong-4e2d" d="M 1510 3296 
L 2854 3296 
L 2854 4352 
Q 2854 4685 2842 4922 
Q 3322 4762 3517 4688 
Q 3712 4614 3712 4553 
Q 3712 4493 3450 4390 
L 3450 3296 
L 4883 3296 
L 5050 3610 
Q 5088 3680 5133 3680 
Q 5197 3680 5523 3491 
Q 5850 3302 5850 3232 
Q 5850 3162 5530 3014 
L 5530 1504 
Q 5530 1408 5536 1325 
L 5549 1190 
Q 5549 1146 5485 1107 
Q 5421 1069 5241 1021 
Q 5062 973 4979 973 
Q 4941 973 4941 1037 
L 4941 1376 
L 3450 1376 
L 3450 -64 
Q 3450 -275 3462 -512 
L 3469 -730 
Q 3469 -781 3424 -813 
Q 3379 -845 3145 -918 
Q 2912 -992 2873 -992 
Q 2835 -992 2835 -890 
L 2848 -640 
Q 2854 -384 2854 -64 
L 2854 1376 
L 1382 1376 
L 1382 1101 
Q 1382 1056 1331 1017 
Q 1280 979 1065 908 
Q 851 838 803 838 
Q 755 838 762 902 
Q 794 1120 794 1382 
L 794 3123 
Q 794 3392 774 3667 
Q 1235 3488 1510 3296 
z
M 2854 3110 
L 1382 3110 
L 1382 1562 
L 2854 1562 
L 2854 3110 
z
M 4941 1562 
L 4941 3110 
L 3450 3110 
L 3450 1562 
L 4941 1562 
z
" transform="scale(0.015625)"/>
      </defs>
      <use xlink:href="#STZhongsong-4e2d"/>
      <use xlink:href="#STZhongsong-578b" transform="translate(99.999985 0)"/>
     </g>
    </g>
    <g id="patch_58">
     <path d="M 517.47 434.677598 
L 545.47 434.677598 
L 545.47 424.877598 
L 517.47 424.877598 
z
" style="fill: #e6550d"/>
    </g>
    <g id="text_18">
     <!-- 大型 -->
     <g style="fill: #111111" transform="translate(556.67 434.677598) scale(0.14 -0.14)">
      <defs>
       <path id="STZhongsong-5927" d="M 3296 2899 
L 4973 2899 
L 5318 3302 
Q 5382 3379 5427 3379 
Q 5498 3379 5802 3078 
Q 6106 2778 6106 2720 
Q 6106 2675 5952 2675 
L 3610 2675 
Q 3898 1491 4512 755 
Q 5126 19 6202 -448 
L 6176 -563 
Q 6054 -550 5946 -550 
Q 5517 -550 5267 -794 
Q 5216 -838 5190 -838 
Q 5107 -838 4614 -275 
Q 4122 288 3837 976 
Q 3552 1664 3437 2675 
L 3277 2675 
Q 3200 1427 2710 697 
Q 2221 -32 314 -1005 
L 243 -902 
Q 1709 38 2169 787 
Q 2630 1536 2701 2675 
L 787 2675 
Q 646 2675 518 2630 
L 403 2931 
Q 506 2899 723 2899 
L 2714 2899 
Q 2733 3219 2733 3670 
Q 2733 4122 2701 4902 
Q 3027 4832 3292 4758 
Q 3558 4685 3590 4662 
Q 3622 4640 3622 4608 
Q 3622 4576 3513 4512 
Q 3405 4448 3369 4326 
Q 3334 4205 3321 3686 
Q 3309 3168 3296 2899 
z
" transform="scale(0.015625)"/>
      </defs>
      <use xlink:href="#STZhongsong-5927"/>
      <use xlink:href="#STZhongsong-578b" transform="translate(99.999985 0)"/>
     </g>
    </g>
    <g id="patch_59">
     <path d="M 612.67 434.677598 
L 640.67 434.677598 
L 640.67 424.877598 
L 612.67 424.877598 
z
" style="fill: #bdbdbd"/>
    </g>
    <g id="text_19">
     <!-- 未知 -->
     <g style="fill: #111111" transform="translate(651.87 434.677598) scale(0.14 -0.14)">
      <defs>
       <path id="STZhongsong-672a" d="M 3443 2349 
L 4922 2349 
L 5171 2714 
Q 5222 2784 5283 2784 
Q 5344 2784 5680 2502 
Q 6016 2221 6016 2169 
Q 6016 2118 5830 2118 
L 3693 2118 
Q 4115 1318 4723 822 
Q 5331 326 6240 38 
L 6227 -115 
Q 5914 -96 5731 -147 
Q 5549 -198 5370 -390 
Q 5325 -442 5286 -442 
Q 5216 -442 4790 -70 
Q 4365 301 4032 832 
Q 3699 1363 3501 2118 
L 3443 2118 
L 3443 -51 
L 3456 -787 
Q 3456 -838 3430 -864 
Q 3405 -890 3277 -950 
Q 3149 -1011 3021 -1052 
Q 2893 -1094 2867 -1094 
Q 2842 -1094 2842 -1030 
L 2854 -730 
Q 2867 -422 2867 -166 
L 2867 1683 
Q 2438 915 1868 406 
Q 1299 -102 243 -640 
L 160 -525 
Q 960 38 1488 646 
Q 2016 1254 2451 2118 
L 774 2118 
Q 608 2118 499 2086 
L 390 2381 
Q 525 2349 710 2349 
L 2867 2349 
L 2867 3430 
L 1261 3430 
Q 1094 3430 986 3398 
L 877 3686 
Q 1011 3654 1197 3654 
L 2867 3654 
L 2867 4115 
Q 2867 4538 2848 4845 
Q 3110 4806 3369 4742 
Q 3629 4678 3699 4646 
Q 3770 4614 3770 4576 
Q 3770 4499 3443 4365 
L 3443 3654 
L 4454 3654 
L 4704 4045 
Q 4755 4122 4819 4122 
Q 4883 4122 5030 4010 
Q 5178 3898 5363 3728 
Q 5549 3558 5549 3494 
Q 5549 3430 5408 3430 
L 3443 3430 
L 3443 2349 
z
" transform="scale(0.015625)"/>
       <path id="STZhongsong-77e5" d="M 1478 3322 
Q 1126 2669 608 2048 
L 486 2150 
Q 1126 3226 1434 4819 
Q 1696 4717 1917 4614 
Q 2138 4512 2170 4483 
Q 2202 4454 2202 4406 
Q 2202 4358 2074 4332 
Q 1946 4307 1869 4121 
Q 1792 3936 1587 3526 
L 2579 3526 
L 2835 3846 
Q 2880 3904 2941 3904 
Q 3002 3904 3267 3670 
Q 3533 3437 3533 3379 
Q 3533 3322 3405 3322 
L 2451 3322 
Q 2445 2464 2381 1952 
L 2714 1952 
L 2944 2253 
Q 3002 2330 3059 2330 
Q 3117 2330 3347 2093 
Q 3578 1856 3578 1789 
Q 3578 1722 3469 1722 
L 2362 1722 
Q 2317 1382 2272 1197 
Q 2976 698 3213 438 
Q 3450 179 3450 -73 
Q 3450 -326 3338 -467 
Q 3226 -608 3142 -608 
Q 2995 -608 2938 -390 
Q 2752 390 2227 1024 
Q 2074 448 1696 13 
Q 1318 -422 435 -979 
L 333 -845 
Q 1171 -173 1472 374 
Q 1773 922 1862 1722 
L 832 1722 
Q 672 1722 557 1690 
L 448 1984 
Q 582 1952 768 1952 
L 1888 1952 
Q 1939 2458 1939 3322 
L 1478 3322 
z
M 4282 3821 
L 5011 3821 
L 5210 4058 
Q 5254 4109 5289 4109 
Q 5325 4109 5430 4041 
Q 5536 3974 5677 3868 
Q 5818 3763 5859 3724 
Q 5901 3686 5901 3661 
Q 5901 3590 5658 3469 
L 5658 13 
Q 5658 -269 5664 -384 
L 5670 -595 
Q 5670 -653 5609 -697 
Q 5549 -742 5369 -822 
Q 5190 -902 5155 -902 
Q 5120 -902 5120 -838 
L 5120 -13 
L 4173 -13 
L 4173 -672 
Q 4173 -755 4121 -793 
Q 4070 -832 3888 -902 
Q 3706 -973 3654 -973 
Q 3622 -973 3629 -922 
Q 3661 -602 3661 -275 
L 3661 3648 
Q 3661 3917 3642 4192 
Q 3962 4045 4282 3821 
z
M 5120 218 
L 5120 3590 
L 4173 3590 
L 4173 218 
L 5120 218 
z
" transform="scale(0.015625)"/>
      </defs>
      <use xlink:href="#STZhongsong-672a"/>
      <use xlink:href="#STZhongsong-77e5" transform="translate(99.999985 0)"/>
     </g>
    </g>
   </g>
  </g>
 </g>
 <defs>
  <clipPath id="p52baaf6346">
   <rect x="61.995" y="38.927031" width="787.75" height="332.82333"/>
  </clipPath>
 </defs>
</svg>
