<?xml version="1.0" encoding="utf-8" standalone="no"?>
<!DOCTYPE svg PUBLIC "-//W3C//DTD SVG 1.1//EN"
  "http://www.w3.org/Graphics/SVG/1.1/DTD/svg11.dtd">
<svg xmlns:xlink="http://www.w3.org/1999/xlink" width="856.8pt" height="453.850469pt" viewBox="0 0 856.8 453.850469" xmlns="http://www.w3.org/2000/svg" version="1.1">
 <metadata>
  <rdf:RDF xmlns:dc="http://purl.org/dc/elements/1.1/" xmlns:cc="http://creativecommons.org/ns#" xmlns:rdf="http://www.w3.org/1999/02/22-rdf-syntax-ns#">
   <cc:Work>
    <dc:type rdf:resource="http://purl.org/dc/dcmitype/StillImage"/>
    <dc:date>2026-06-06T01:21:42.207176</dc:date>
    <dc:format>image/svg+xml</dc:format>
    <dc:creator>
     <cc:Agent>
      <dc:title>Matplotlib v3.10.0, https://matplotlib.org/</dc:title>
     </cc:Agent>
    </dc:creator>
   </cc:Work>
  </rdf:RDF>
 </metadata>
 <defs>
  <style type="text/css">*{stroke-linejoin: round; stroke-linecap: butt}</style>
 </defs>
 <g id="figure_1">
  <g id="patch_1">
   <path d="M 0 453.850469 
L 856.8 453.850469 
L 856.8 0 
L 0 0 
z
" style="fill: #ffffff"/>
  </g>
  <g id="axes_1">
   <g id="patch_2">
    <path d="M 74.592 262.029531 
L 226.224 262.029531 
L 226.224 163.565031 
L 74.592 163.565031 
z
" clip-path="url(#p48ea24d6fb)" style="fill: #f7f7f7; stroke: #555555; stroke-width: 1.2; stroke-linejoin: miter"/>
   </g>
   <g id="patch_3">
    <path d="M 268.344 262.029531 
L 419.976 262.029531 
L 419.976 163.565031 
L 268.344 163.565031 
z
" clip-path="url(#p48ea24d6fb)" style="fill: #f7f7f7; stroke: #555555; stroke-width: 1.2; stroke-linejoin: miter"/>
   </g>
   <g id="patch_4">
    <path d="M 462.096 262.029531 
L 613.728 262.029531 
L 613.728 163.565031 
L 462.096 163.565031 
z
" clip-path="url(#p48ea24d6fb)" style="fill: #f7f7f7; stroke: #555555; stroke-width: 1.2; stroke-linejoin: miter"/>
   </g>
   <g id="patch_5">
    <path d="M 655.848 262.029531 
L 807.48 262.029531 
L 807.48 163.565031 
L 655.848 163.565031 
z
" clip-path="url(#p48ea24d6fb)" style="fill: #f7f7f7; stroke: #555555; stroke-width: 1.2; stroke-linejoin: miter"/>
   </g>
   <g id="text_1">
    <!-- 年份 -->
    <g style="fill: #111111" transform="translate(133.408 196.916344) scale(0.17 -0.17)">
     <defs>
      <path id="STZhongsong-5e74" d="M 1939 3827 
L 4794 3827 
L 5082 4237 
Q 5133 4314 5171 4314 
Q 5210 4314 5328 4224 
Q 5446 4134 5612 3993 
Q 5779 3853 5840 3789 
Q 5901 3725 5901 3686 
Q 5901 3616 5811 3616 
L 3744 3616 
L 3744 2496 
L 4474 2496 
L 4736 2874 
Q 4787 2938 4822 2938 
Q 4858 2938 4970 2858 
Q 5082 2778 5232 2643 
Q 5382 2509 5414 2461 
Q 5446 2413 5446 2368 
Q 5446 2272 5350 2272 
L 3744 2272 
L 3744 1043 
L 5254 1043 
L 5542 1427 
Q 5587 1485 5654 1485 
Q 5722 1485 6013 1213 
Q 6304 941 6304 883 
Q 6304 826 6195 826 
L 3744 826 
Q 3744 19 3750 -294 
L 3763 -864 
Q 3763 -909 3731 -941 
Q 3699 -973 3475 -1056 
Q 3251 -1139 3203 -1139 
Q 3155 -1139 3155 -1037 
L 3168 -390 
Q 3174 -38 3174 826 
L 653 826 
Q 480 826 384 781 
L 269 1075 
Q 403 1043 589 1043 
L 1498 1043 
L 1498 2170 
Q 1498 2643 1485 2739 
Q 1856 2630 2138 2496 
L 3174 2496 
L 3174 3616 
L 1798 3616 
Q 1440 3046 1136 2713 
Q 832 2381 339 1984 
L 243 2086 
Q 1261 3174 1741 4909 
Q 2259 4704 2400 4611 
Q 2541 4518 2541 4457 
Q 2541 4397 2435 4384 
Q 2330 4371 2253 4288 
Q 2176 4205 1939 3827 
z
M 3174 2272 
L 2054 2272 
L 2054 1043 
L 3174 1043 
L 3174 2272 
z
" transform="scale(0.015625)"/>
      <path id="STZhongsong-4efd" d="M 1190 2470 
Q 736 1830 237 1389 
L 141 1472 
Q 1158 2701 1702 4838 
Q 1894 4768 2115 4672 
Q 2336 4576 2374 4544 
Q 2413 4512 2413 4477 
Q 2413 4442 2326 4419 
Q 2240 4397 2205 4345 
Q 2170 4294 2099 4115 
Q 1888 3578 1530 2982 
Q 1837 2912 1837 2842 
Q 1837 2803 1709 2720 
L 1709 -806 
Q 1709 -883 1670 -928 
Q 1632 -973 1453 -1049 
Q 1274 -1126 1219 -1126 
Q 1165 -1126 1165 -1056 
L 1178 -563 
Q 1190 -262 1190 70 
L 1190 2470 
z
M 6272 2355 
L 6259 2227 
Q 6170 2240 6099 2240 
Q 5786 2240 5658 1971 
Q 5638 1926 5587 1926 
Q 5408 1926 4813 2630 
Q 4218 3334 4102 4806 
Q 4742 4742 4742 4627 
Q 4742 4589 4672 4570 
Q 4467 4518 4467 4323 
Q 4467 4128 4636 3712 
Q 4806 3296 5209 2925 
Q 5613 2554 6272 2355 
z
M 3174 4506 
Q 3635 4346 3753 4285 
Q 3872 4224 3872 4182 
Q 3872 4141 3753 4105 
Q 3635 4070 3546 3834 
Q 3034 2477 1888 1421 
L 1798 1491 
Q 2765 2810 3174 4506 
z
M 3232 1920 
L 3072 1920 
Q 2906 1920 2803 1875 
L 2662 2157 
Q 2797 2125 2982 2125 
L 4461 2125 
L 4614 2330 
Q 4659 2381 4704 2381 
Q 4749 2381 4937 2246 
Q 5126 2112 5212 2041 
Q 5299 1971 5299 1920 
Q 5299 1869 5139 1760 
Q 5114 1011 5066 432 
Q 5018 -147 4966 -355 
Q 4915 -563 4796 -700 
Q 4678 -838 4451 -944 
Q 4224 -1050 4169 -1050 
Q 4115 -1050 4090 -966 
Q 4038 -774 3856 -640 
Q 3674 -506 3328 -378 
L 3373 -243 
Q 3910 -384 4076 -384 
Q 4243 -384 4307 -326 
Q 4371 -269 4432 -73 
Q 4493 122 4528 541 
Q 4563 960 4576 1920 
L 3782 1920 
Q 3738 730 3389 125 
Q 3040 -480 1946 -1094 
L 1869 -1011 
Q 2669 -358 2934 237 
Q 3200 832 3232 1920 
z
" transform="scale(0.015625)"/>
     </defs>
     <use xlink:href="#STZhongsong-5e74"/>
     <use xlink:href="#STZhongsong-4efd" transform="translate(99.999985 0)"/>
    </g>
   </g>
   <g id="text_2">
    <!-- 10年 -->
    <g style="fill: #111111" transform="translate(134.728 226.908766) scale(0.14 -0.14)">
     <defs>
      <path id="STZhongsong-31" d="M 2150 4358 
L 2387 4358 
L 2387 742 
Q 2387 422 2464 342 
Q 2541 262 2822 262 
L 3130 262 
L 3130 0 
L 1069 0 
L 1069 262 
L 1408 262 
Q 1670 262 1766 348 
Q 1862 435 1862 742 
L 1862 3718 
L 1069 3718 
L 1069 3987 
Q 1709 4070 2150 4358 
z
" transform="scale(0.015625)"/>
      <path id="STZhongsong-30" d="M 326 2182 
Q 326 3251 774 3843 
Q 1222 4435 1997 4435 
Q 2752 4435 3197 3827 
Q 3642 3219 3642 2144 
Q 3642 1139 3178 531 
Q 2714 -77 1952 -77 
Q 1229 -77 777 524 
Q 326 1126 326 2182 
z
M 3040 2182 
Q 3040 3104 2758 3616 
Q 2477 4128 1978 4128 
Q 1478 4128 1200 3590 
Q 922 3053 922 2118 
Q 922 1229 1210 733 
Q 1498 237 1971 237 
Q 2470 237 2755 752 
Q 3040 1267 3040 2182 
z
" transform="scale(0.015625)"/>
     </defs>
     <use xlink:href="#STZhongsong-31"/>
     <use xlink:href="#STZhongsong-30" transform="translate(61.999985 0)"/>
     <use xlink:href="#STZhongsong-5e74" transform="translate(123.999969 0)"/>
    </g>
    <!-- 2015-2024 -->
    <g style="fill: #111111" transform="translate(112.888 243.239984) scale(0.14 -0.14)">
     <defs>
      <path id="STZhongsong-32" d="M 723 2714 
L 422 2675 
Q 397 2835 397 2989 
Q 397 3616 832 4025 
Q 1267 4435 1978 4435 
Q 2630 4435 3043 4064 
Q 3456 3693 3456 3098 
Q 3456 2669 3286 2349 
Q 3117 2029 2611 1603 
Q 2106 1178 1037 467 
L 2662 467 
Q 2963 467 3062 544 
Q 3162 621 3200 838 
L 3232 1018 
L 3494 1018 
L 3283 -154 
L 3085 -154 
L 3053 0 
L 320 0 
L 320 262 
L 819 640 
Q 1901 1453 2377 1977 
Q 2854 2502 2854 3066 
Q 2854 3507 2569 3788 
Q 2285 4070 1837 4070 
Q 1325 4070 1017 3753 
Q 710 3437 710 2918 
Q 710 2822 723 2714 
z
" transform="scale(0.015625)"/>
      <path id="STZhongsong-35" d="M 934 4358 
L 2880 4358 
Q 3046 4358 3097 4387 
Q 3149 4416 3155 4512 
L 3386 4512 
L 3386 3853 
L 1229 3853 
L 1171 2752 
Q 1530 2848 1990 2848 
Q 2771 2848 3228 2451 
Q 3686 2054 3686 1414 
Q 3686 787 3212 355 
Q 2739 -77 2029 -77 
Q 1414 -77 982 236 
Q 550 550 550 890 
Q 550 1037 640 1123 
Q 730 1210 838 1210 
Q 1062 1210 1203 813 
Q 1421 218 2042 218 
Q 2515 218 2819 528 
Q 3123 838 3123 1312 
Q 3123 1824 2777 2128 
Q 2432 2432 1843 2432 
Q 1280 2432 832 2246 
L 934 4358 
z
" transform="scale(0.015625)"/>
      <path id="STZhongsong-2d" d="M 352 1786 
L 2208 1786 
L 2208 1395 
L 352 1395 
L 352 1786 
z
" transform="scale(0.015625)"/>
      <path id="STZhongsong-34" d="M 3494 1242 
L 2906 1242 
L 2906 518 
Q 2906 275 3213 250 
L 3213 45 
L 1882 45 
L 1882 250 
Q 2054 262 2156 336 
Q 2259 410 2259 518 
L 2259 1242 
L 550 1242 
L 550 1658 
L 2483 4365 
L 2906 4365 
L 2906 1581 
L 3494 1581 
L 3494 1242 
z
M 2259 1581 
L 2259 3462 
L 902 1581 
L 2259 1581 
z
" transform="scale(0.015625)"/>
     </defs>
     <use xlink:href="#STZhongsong-32"/>
     <use xlink:href="#STZhongsong-30" transform="translate(61.999985 0)"/>
     <use xlink:href="#STZhongsong-31" transform="translate(123.999969 0)"/>
     <use xlink:href="#STZhongsong-35" transform="translate(185.999954 0)"/>
     <use xlink:href="#STZhongsong-2d" transform="translate(247.999939 0)"/>
     <use xlink:href="#STZhongsong-32" transform="translate(287.999924 0)"/>
     <use xlink:href="#STZhongsong-30" transform="translate(349.999908 0)"/>
     <use xlink:href="#STZhongsong-32" transform="translate(411.999893 0)"/>
     <use xlink:href="#STZhongsong-34" transform="translate(473.999878 0)"/>
    </g>
   </g>
   <g id="patch_6">
    <path d="M 228.227168 212.797281 
Q 243.073511 212.797281 256.354607 212.797281 
" style="fill: none; stroke: #555555; stroke-width: 1.4; stroke-linecap: round"/>
    <path d="M 252.354607 210.797281 
L 256.354607 212.797281 
L 252.354607 214.797281 
" style="fill: none; stroke: #555555; stroke-width: 1.4; stroke-linecap: round"/>
   </g>
   <g id="text_3">
    <!-- 行列 -->
    <g style="fill: #111111" transform="translate(327.16 196.831344) scale(0.17 -0.17)">
     <defs>
      <path id="STZhongsong-884c" d="M 1523 4954 
Q 1894 4806 2080 4697 
Q 2266 4589 2266 4547 
Q 2266 4506 2166 4486 
Q 2067 4467 2016 4425 
Q 1965 4384 1875 4269 
Q 1331 3533 365 2765 
L 275 2848 
Q 1062 3795 1523 4954 
z
M 4704 4179 
L 4922 4538 
Q 4979 4640 5043 4640 
Q 5107 4640 5260 4489 
Q 5414 4339 5552 4217 
Q 5690 4096 5690 4032 
Q 5690 3968 5549 3968 
L 3008 3968 
Q 2835 3968 2739 3923 
L 2624 4211 
Q 2758 4179 2944 4179 
L 4704 4179 
z
M 1171 1722 
Q 832 1376 230 896 
L 147 986 
Q 768 1696 1113 2281 
Q 1459 2867 1722 3642 
Q 2413 3296 2413 3206 
Q 2413 3162 2317 3149 
Q 2221 3136 2173 3097 
Q 2125 3059 1971 2796 
Q 1818 2534 1568 2182 
Q 1901 2080 1901 2006 
Q 1901 1933 1722 1850 
L 1722 -762 
Q 1722 -826 1674 -864 
Q 1626 -902 1434 -966 
Q 1242 -1030 1178 -1030 
Q 1146 -1030 1146 -960 
L 1165 -358 
Q 1171 -77 1171 173 
L 1171 1722 
z
M 4294 2400 
L 2624 2400 
Q 2451 2400 2355 2355 
L 2240 2643 
Q 2374 2611 2560 2611 
L 5146 2611 
L 5389 2976 
Q 5453 3072 5498 3072 
Q 5562 3072 5875 2797 
Q 6189 2522 6189 2451 
Q 6189 2400 6061 2400 
L 4896 2400 
L 4896 -269 
Q 4896 -512 4829 -611 
Q 4762 -710 4470 -864 
Q 4179 -1018 4112 -1018 
Q 4045 -1018 4019 -877 
Q 3981 -653 3811 -518 
Q 3642 -384 3168 -224 
L 3168 -83 
Q 3859 -192 4038 -192 
Q 4218 -192 4256 -157 
Q 4294 -122 4294 -32 
L 4294 2400 
z
" transform="scale(0.015625)"/>
      <path id="STZhongsong-5217" d="M 5203 4794 
Q 5440 4749 5667 4685 
Q 5894 4621 5952 4595 
Q 6010 4570 6010 4525 
Q 6010 4480 5779 4358 
L 5779 -160 
Q 5779 -512 5660 -653 
Q 5542 -794 5296 -896 
Q 5050 -998 4982 -998 
Q 4915 -998 4902 -896 
Q 4877 -717 4803 -614 
Q 4730 -512 4544 -425 
Q 4358 -339 3981 -230 
L 4013 -109 
Q 4730 -250 4906 -250 
Q 5082 -250 5149 -202 
Q 5216 -154 5216 45 
L 5216 4224 
Q 5216 4544 5203 4794 
z
M 1856 2778 
Q 1747 2560 1632 2368 
Q 1914 2125 2064 1878 
Q 2214 1632 2214 1456 
Q 2214 1280 2099 1152 
Q 1984 1024 1824 1024 
Q 1664 1024 1664 1203 
Q 1664 1261 1683 1376 
Q 1702 1491 1702 1606 
Q 1702 1914 1555 2253 
Q 1152 1600 365 838 
L 269 928 
Q 858 1696 1203 2419 
Q 1549 3142 1779 4115 
L 762 4115 
Q 595 4115 486 4083 
L 378 4346 
Q 512 4314 698 4314 
L 2938 4314 
L 3226 4646 
Q 3290 4717 3334 4717 
Q 3379 4717 3507 4608 
L 3795 4358 
Q 3955 4224 3955 4169 
Q 3955 4115 3814 4115 
L 2406 4115 
Q 2195 3482 1958 2982 
L 2688 2982 
L 2848 3200 
Q 2893 3258 2941 3258 
Q 2989 3258 3190 3152 
Q 3392 3046 3491 2988 
Q 3590 2931 3590 2883 
Q 3590 2835 3491 2787 
Q 3392 2739 3353 2681 
Q 3315 2624 3277 2458 
Q 3059 1536 2745 960 
Q 2432 384 1865 -38 
Q 1299 -461 314 -826 
L 282 -730 
Q 1427 -90 2028 764 
Q 2630 1619 2758 2778 
L 1856 2778 
z
M 3981 3898 
Q 4666 3738 4666 3629 
Q 4666 3571 4512 3514 
L 4512 1427 
L 4525 864 
Q 4525 794 4489 765 
Q 4454 736 4284 685 
Q 4115 634 4026 634 
Q 3981 634 3981 730 
L 3994 1466 
L 3994 3386 
Q 3994 3674 3981 3898 
z
" transform="scale(0.015625)"/>
     </defs>
     <use xlink:href="#STZhongsong-884c"/>
     <use xlink:href="#STZhongsong-5217" transform="translate(99.999985 0)"/>
    </g>
   </g>
   <g id="text_4">
    <!-- 305 × 226 -->
    <g style="fill: #111111" transform="translate(306.64 234.870937) scale(0.14 -0.14)">
     <defs>
      <path id="STZhongsong-33" d="M 934 3194 
L 634 3238 
Q 717 3827 1097 4131 
Q 1478 4435 2061 4435 
Q 2662 4435 3046 4124 
Q 3430 3814 3430 3360 
Q 3430 3021 3190 2761 
Q 2950 2502 2502 2374 
Q 3046 2298 3334 1974 
Q 3622 1651 3622 1222 
Q 3622 698 3155 310 
Q 2688 -77 1997 -77 
Q 1299 -77 844 275 
Q 390 627 390 960 
Q 390 1114 505 1184 
Q 621 1254 710 1254 
Q 922 1254 1043 858 
Q 1133 544 1369 377 
Q 1606 211 1952 211 
Q 2419 211 2720 512 
Q 3021 813 3021 1267 
Q 3021 1702 2717 1952 
Q 2413 2202 1862 2202 
L 1568 2202 
L 1568 2502 
L 1754 2502 
Q 2829 2502 2829 3283 
Q 2829 3629 2592 3843 
Q 2355 4058 1952 4058 
Q 1107 4058 934 3194 
z
" transform="scale(0.015625)"/>
      <path id="STZhongsong-20" transform="scale(0.015625)"/>
      <path id="STZhongsong-d7" d="M 5197 3482 
L 3558 1818 
L 5216 160 
L 4870 -160 
L 3213 1498 
L 1555 -160 
L 1229 160 
L 2893 1818 
L 1229 3482 
L 1574 3802 
L 3238 2138 
L 4877 3802 
L 5197 3482 
z
" transform="scale(0.015625)"/>
      <path id="STZhongsong-36" d="M 3238 4442 
L 3238 4154 
Q 2131 4141 1603 3686 
Q 1075 3232 1037 2227 
Q 1446 2893 2240 2893 
Q 2880 2893 3289 2486 
Q 3699 2080 3699 1440 
Q 3699 742 3257 332 
Q 2816 -77 2093 -77 
Q 1286 -77 848 444 
Q 410 966 410 1926 
Q 410 3046 1056 3744 
Q 1702 4442 2995 4442 
L 3238 4442 
z
M 3072 1414 
Q 3072 1933 2800 2246 
Q 2528 2560 2099 2560 
Q 1658 2560 1363 2224 
Q 1069 1888 1069 1402 
Q 1069 890 1350 550 
Q 1632 211 2074 211 
Q 2509 211 2790 544 
Q 3072 877 3072 1414 
z
" transform="scale(0.015625)"/>
     </defs>
     <use xlink:href="#STZhongsong-33"/>
     <use xlink:href="#STZhongsong-30" transform="translate(61.999985 0)"/>
     <use xlink:href="#STZhongsong-35" transform="translate(123.999969 0)"/>
     <use xlink:href="#STZhongsong-20" transform="translate(185.999954 0)"/>
     <use xlink:href="#STZhongsong-d7" transform="translate(217.999939 0)"/>
     <use xlink:href="#STZhongsong-20" transform="translate(317.999924 0)"/>
     <use xlink:href="#STZhongsong-32" transform="translate(349.999908 0)"/>
     <use xlink:href="#STZhongsong-32" transform="translate(411.999893 0)"/>
     <use xlink:href="#STZhongsong-36" transform="translate(473.999878 0)"/>
    </g>
   </g>
   <g id="patch_7">
    <path d="M 421.979168 212.797281 
Q 436.825511 212.797281 450.106607 212.797281 
" style="fill: none; stroke: #555555; stroke-width: 1.4; stroke-linecap: round"/>
    <path d="M 446.106607 210.797281 
L 450.106607 212.797281 
L 446.106607 214.797281 
" style="fill: none; stroke: #555555; stroke-width: 1.4; stroke-linecap: round"/>
   </g>
   <g id="text_5">
    <!-- 特征 -->
    <g style="fill: #111111" transform="translate(520.912 196.772906) scale(0.17 -0.17)">
     <defs>
      <path id="STZhongsong-7279" d="M 3674 2515 
L 3674 3571 
L 2867 3571 
Q 2714 3571 2598 3520 
L 2470 3789 
Q 2605 3757 2790 3757 
L 3674 3757 
L 3674 4256 
Q 3674 4640 3654 4858 
Q 4058 4787 4246 4716 
Q 4435 4646 4435 4608 
Q 4435 4557 4224 4454 
L 4224 3757 
L 4723 3757 
L 4954 4090 
Q 5018 4186 5078 4186 
Q 5139 4186 5254 4102 
Q 5370 4019 5517 3900 
Q 5664 3782 5715 3731 
Q 5766 3680 5766 3648 
Q 5766 3571 5587 3571 
L 4224 3571 
L 4224 2515 
L 5242 2515 
L 5485 2854 
Q 5549 2944 5616 2944 
Q 5683 2944 5952 2688 
Q 6221 2432 6221 2381 
Q 6221 2323 6016 2323 
L 2611 2323 
Q 2438 2323 2342 2278 
L 2227 2547 
Q 2362 2515 2547 2515 
L 3674 2515 
z
M 1485 2822 
L 922 2822 
Q 659 2086 275 1562 
L 160 1594 
Q 576 2598 672 4045 
Q 774 4026 1030 3952 
Q 1286 3878 1331 3852 
Q 1376 3827 1376 3788 
Q 1376 3750 1315 3724 
Q 1254 3699 1200 3619 
Q 1146 3539 1110 3411 
Q 1075 3283 986 3008 
L 1485 3008 
L 1485 4275 
Q 1485 4550 1466 4813 
Q 2246 4621 2246 4525 
Q 2246 4454 2003 4358 
L 2003 3008 
L 2182 3008 
L 2362 3296 
Q 2413 3379 2473 3379 
Q 2534 3379 2777 3177 
Q 3021 2976 3021 2906 
Q 3021 2822 2854 2822 
L 2003 2822 
L 2003 1773 
L 2842 2112 
L 2893 1984 
L 2003 1453 
L 2003 -774 
Q 2003 -838 1936 -886 
Q 1869 -934 1702 -1004 
Q 1536 -1075 1497 -1075 
Q 1459 -1075 1459 -1018 
L 1472 -717 
Q 1485 -403 1485 -154 
L 1485 1139 
Q 890 774 800 684 
Q 710 595 672 595 
Q 634 595 576 665 
Q 518 736 230 1184 
Q 826 1331 1485 1562 
L 1485 2822 
z
M 5018 1510 
L 5261 1510 
L 5453 1786 
Q 5504 1862 5574 1862 
Q 5645 1862 5901 1628 
Q 6157 1395 6157 1338 
Q 6157 1306 6042 1306 
L 5018 1306 
L 5018 -397 
Q 5018 -595 4950 -713 
Q 4883 -832 4636 -957 
Q 4390 -1082 4301 -1082 
Q 4243 -1082 4230 -986 
Q 4205 -742 4067 -636 
Q 3930 -531 3456 -397 
L 3488 -275 
Q 4045 -346 4211 -346 
Q 4378 -346 4416 -307 
Q 4454 -269 4454 -173 
L 4454 1306 
L 2797 1306 
Q 2637 1306 2522 1274 
L 2413 1542 
Q 2547 1510 2733 1510 
L 4454 1510 
Q 4454 2170 4442 2278 
Q 5158 2182 5158 2106 
Q 5158 2061 5018 1978 
L 5018 1510 
z
M 2906 1158 
Q 3302 941 3497 765 
Q 3693 589 3693 403 
Q 3693 218 3549 86 
Q 3405 -45 3312 -45 
Q 3219 -45 3196 -6 
Q 3174 32 3161 262 
Q 3149 493 3075 685 
Q 3002 877 2848 1082 
L 2906 1158 
z
" transform="scale(0.015625)"/>
      <path id="STZhongsong-5f81" d="M 1651 4794 
Q 2227 4442 2227 4352 
Q 2227 4314 2121 4298 
Q 2016 4282 1843 4096 
Q 1158 3398 294 2861 
L 230 2944 
Q 973 3642 1651 4794 
z
M 3846 3891 
L 2592 3891 
Q 2419 3891 2323 3846 
L 2208 4134 
Q 2342 4102 2528 4102 
L 5037 4102 
L 5274 4448 
Q 5331 4538 5385 4538 
Q 5440 4538 5702 4275 
Q 5965 4013 5965 3952 
Q 5965 3891 5843 3891 
L 4397 3891 
L 4397 2093 
L 4909 2093 
L 5114 2394 
Q 5190 2502 5254 2502 
Q 5318 2502 5561 2252 
Q 5805 2003 5805 1948 
Q 5805 1894 5683 1894 
L 4397 1894 
L 4397 -403 
L 5261 -403 
L 5517 -19 
Q 5574 70 5625 70 
Q 5677 70 5958 -205 
Q 6240 -480 6240 -541 
Q 6240 -602 6118 -602 
L 2195 -602 
Q 2022 -602 1926 -646 
L 1811 -371 
Q 1946 -403 2131 -403 
L 2656 -403 
L 2656 2099 
Q 2656 2419 2643 2669 
Q 2886 2611 3132 2515 
Q 3379 2419 3379 2371 
Q 3379 2323 3162 2202 
L 3162 -403 
L 3846 -403 
L 3846 3891 
z
M 1165 1926 
Q 576 1331 186 1005 
L 77 1101 
Q 1126 2323 1792 3616 
Q 2336 3264 2336 3194 
Q 2336 3162 2269 3152 
Q 2202 3142 2157 3100 
Q 2112 3059 1961 2844 
Q 1811 2630 1523 2317 
Q 1645 2285 1728 2233 
Q 1811 2182 1811 2153 
Q 1811 2125 1702 2061 
L 1702 -755 
Q 1702 -819 1667 -848 
Q 1632 -877 1427 -937 
Q 1222 -998 1180 -998 
Q 1139 -998 1139 -928 
L 1158 -326 
Q 1165 -45 1165 205 
L 1165 1926 
z
" transform="scale(0.015625)"/>
     </defs>
     <use xlink:href="#STZhongsong-7279"/>
     <use xlink:href="#STZhongsong-5f81" transform="translate(99.999985 0)"/>
    </g>
   </g>
   <g id="text_6">
    <!-- active/entry/persist -->
    <g style="fill: #111111" transform="translate(468.892 226.580148) scale(0.14 -0.14)">
     <defs>
      <path id="STZhongsong-61" d="M 2477 1779 
L 2477 2150 
Q 2477 2797 1734 2797 
Q 1408 2797 1251 2665 
Q 1094 2534 1030 2202 
Q 1005 2067 928 1993 
Q 851 1920 736 1920 
Q 614 1920 537 2009 
Q 461 2099 461 2240 
Q 461 2566 832 2828 
Q 1203 3091 1824 3091 
Q 2451 3091 2736 2835 
Q 3021 2579 3021 2029 
L 3021 794 
Q 3021 512 3049 413 
Q 3078 314 3164 253 
Q 3251 192 3360 192 
Q 3475 192 3680 262 
L 3680 -13 
Q 3443 -77 3226 -77 
Q 2605 -77 2509 448 
Q 2176 179 1872 51 
Q 1568 -77 1216 -77 
Q 800 -77 525 150 
Q 250 378 250 698 
Q 250 1126 682 1379 
Q 1114 1632 2477 1779 
z
M 2477 1504 
Q 1350 1357 1084 1184 
Q 819 1011 819 755 
Q 819 557 976 419 
Q 1133 282 1363 282 
Q 1818 282 2477 749 
L 2477 1504 
z
" transform="scale(0.015625)"/>
      <path id="STZhongsong-63" d="M 2995 870 
L 3194 710 
Q 2605 -77 1786 -77 
Q 1146 -77 704 380 
Q 262 838 262 1517 
Q 262 2202 713 2646 
Q 1165 3091 1869 3091 
Q 2413 3091 2771 2825 
Q 3130 2560 3130 2291 
Q 3130 2157 3046 2077 
Q 2963 1997 2848 1997 
Q 2739 1997 2681 2057 
Q 2624 2118 2413 2534 
Q 2368 2637 2195 2720 
Q 2022 2803 1856 2803 
Q 1434 2803 1152 2454 
Q 870 2106 870 1536 
Q 870 973 1158 611 
Q 1446 250 1875 250 
Q 2483 250 2995 870 
z
" transform="scale(0.015625)"/>
      <path id="STZhongsong-74" d="M 1056 4077 
L 1274 4077 
L 1274 3014 
L 2202 3014 
L 2202 2701 
L 1274 2701 
L 1274 819 
Q 1274 474 1392 358 
Q 1510 243 1690 243 
Q 1990 243 2342 506 
L 2342 205 
Q 1933 -77 1510 -77 
Q 1280 -77 1081 35 
Q 883 147 819 294 
Q 755 442 755 781 
L 755 2701 
L 205 2701 
L 205 2963 
Q 595 3059 784 3299 
Q 973 3539 1056 4077 
z
" transform="scale(0.015625)"/>
      <path id="STZhongsong-69" d="M 640 4077 
Q 640 4230 745 4332 
Q 851 4435 1005 4435 
Q 1152 4435 1257 4329 
Q 1363 4224 1363 4077 
Q 1363 3923 1257 3817 
Q 1152 3712 1005 3712 
Q 851 3712 745 3817 
Q 640 3923 640 4077 
z
M 205 2566 
L 205 2822 
Q 691 2886 1043 3091 
L 1274 3091 
L 1274 582 
Q 1274 371 1376 316 
Q 1478 262 1658 262 
L 1805 262 
L 1805 0 
L 205 0 
L 205 262 
L 333 262 
Q 602 262 675 348 
Q 749 435 749 730 
L 749 2566 
L 205 2566 
z
" transform="scale(0.015625)"/>
      <path id="STZhongsong-76" d="M 0 3014 
L 1434 3014 
L 1434 2752 
L 1344 2752 
Q 1146 2752 1072 2713 
Q 998 2675 998 2586 
Q 998 2522 1069 2330 
L 1779 474 
L 2464 2330 
Q 2522 2483 2522 2566 
Q 2522 2752 2240 2752 
L 2093 2752 
L 2093 3014 
L 3328 3014 
L 3328 2752 
Q 3104 2752 3008 2643 
Q 2912 2534 2829 2330 
L 1843 -77 
L 1466 -77 
L 461 2387 
Q 320 2752 0 2752 
L 0 3014 
z
" transform="scale(0.015625)"/>
      <path id="STZhongsong-65" d="M 3117 806 
L 3315 646 
Q 3021 269 2717 96 
Q 2413 -77 2022 -77 
Q 1549 -77 1190 134 
Q 832 346 649 730 
Q 467 1114 467 1530 
Q 467 2189 889 2640 
Q 1312 3091 1997 3091 
Q 2586 3091 2934 2745 
Q 3283 2400 3296 1773 
L 1088 1773 
Q 1082 1645 1082 1536 
Q 1082 960 1357 605 
Q 1632 250 2093 250 
Q 2400 250 2637 400 
Q 2874 550 3117 806 
z
M 2720 2067 
Q 2598 2797 1984 2797 
Q 1651 2797 1449 2614 
Q 1248 2432 1133 2067 
L 2720 2067 
z
" transform="scale(0.015625)"/>
      <path id="STZhongsong-2f" d="M 3194 4909 
L 928 -1069 
L 467 -1069 
L 2720 4909 
L 3194 4909 
z
" transform="scale(0.015625)"/>
      <path id="STZhongsong-6e" d="M 237 2566 
L 237 2829 
Q 518 2854 662 2905 
Q 806 2957 1050 3091 
L 1274 3091 
L 1274 2496 
Q 1626 2797 1926 2944 
Q 2227 3091 2566 3091 
Q 2797 3091 2979 3020 
Q 3162 2950 3286 2828 
Q 3411 2707 3472 2553 
Q 3533 2400 3533 2086 
L 3533 710 
Q 3533 493 3561 406 
Q 3590 320 3696 291 
Q 3802 262 4064 262 
L 4064 0 
L 2458 0 
L 2458 262 
L 2541 262 
Q 2829 262 2915 345 
Q 3002 429 3002 742 
L 3002 1888 
Q 3002 2259 2941 2396 
Q 2880 2534 2742 2614 
Q 2605 2694 2400 2694 
Q 1856 2694 1299 2182 
L 1299 742 
Q 1299 512 1340 413 
Q 1382 314 1468 288 
Q 1555 262 1754 262 
L 1843 262 
L 1843 0 
L 237 0 
L 237 262 
L 314 262 
Q 525 262 611 291 
Q 698 320 733 425 
Q 768 531 768 787 
L 768 2566 
L 237 2566 
z
" transform="scale(0.015625)"/>
      <path id="STZhongsong-72" d="M 224 2566 
L 224 2822 
Q 640 2848 1037 3091 
L 1274 3091 
L 1274 2502 
Q 1504 2778 1792 2934 
Q 2080 3091 2317 3091 
Q 2541 3091 2665 2982 
Q 2790 2874 2790 2707 
Q 2790 2598 2697 2515 
Q 2605 2432 2490 2432 
Q 2400 2432 2323 2490 
Q 2150 2630 2010 2630 
Q 1862 2630 1660 2496 
Q 1459 2362 1293 2163 
L 1293 723 
Q 1293 461 1376 361 
Q 1459 262 1734 262 
L 1843 262 
L 1843 0 
L 224 0 
L 224 262 
L 358 262 
Q 634 262 701 368 
Q 768 474 768 723 
L 768 2566 
L 224 2566 
z
" transform="scale(0.015625)"/>
      <path id="STZhongsong-79" d="M 0 3014 
L 1517 3014 
L 1517 2752 
L 1389 2752 
Q 1210 2752 1142 2717 
Q 1075 2682 1075 2598 
Q 1075 2509 1165 2310 
L 1862 800 
L 2534 2234 
Q 2650 2490 2650 2598 
Q 2650 2682 2589 2717 
Q 2528 2752 2355 2752 
L 2208 2752 
L 2208 3014 
L 3456 3014 
L 3456 2752 
L 3379 2752 
Q 3194 2752 3120 2681 
Q 3046 2611 2893 2278 
L 1741 -205 
Q 1498 -762 1258 -1005 
Q 1018 -1248 653 -1248 
Q 371 -1248 195 -1120 
Q 19 -992 19 -826 
Q 19 -717 89 -633 
Q 160 -550 256 -550 
Q 378 -550 538 -698 
Q 710 -858 851 -858 
Q 1158 -858 1459 -122 
L 1587 192 
L 589 2310 
Q 454 2605 352 2678 
Q 250 2752 0 2752 
L 0 3014 
z
" transform="scale(0.015625)"/>
      <path id="STZhongsong-70" d="M 198 2566 
L 198 2822 
Q 634 2822 1011 3091 
L 1261 3091 
L 1261 2566 
Q 1562 2816 1834 2953 
Q 2106 3091 2426 3091 
Q 2963 3091 3340 2643 
Q 3718 2195 3718 1530 
Q 3718 813 3318 368 
Q 2918 -77 2278 -77 
Q 1958 -77 1728 28 
Q 1498 134 1261 333 
L 1261 -582 
Q 1261 -800 1289 -883 
Q 1318 -966 1424 -992 
Q 1530 -1018 1811 -1018 
L 1811 -1280 
L 198 -1280 
L 198 -1018 
L 339 -1018 
Q 608 -1018 672 -934 
Q 736 -851 736 -557 
L 736 2566 
L 198 2566 
z
M 1261 2246 
L 1261 1171 
Q 1261 742 1488 502 
Q 1715 262 2112 262 
Q 2573 262 2845 569 
Q 3117 877 3117 1440 
Q 3117 2003 2877 2355 
Q 2637 2707 2285 2707 
Q 1837 2707 1261 2246 
z
" transform="scale(0.015625)"/>
      <path id="STZhongsong-73" d="M 2349 3014 
L 2566 3014 
L 2848 2061 
L 2566 1965 
Q 2387 2355 2089 2572 
Q 1792 2790 1472 2790 
Q 1242 2790 1088 2675 
Q 934 2560 934 2400 
Q 934 2208 1113 2102 
Q 1293 1997 1523 1914 
L 2131 1702 
Q 2592 1542 2806 1337 
Q 3021 1133 3021 826 
Q 3021 461 2697 192 
Q 2374 -77 1882 -77 
Q 1363 -77 986 224 
L 922 0 
L 698 0 
L 307 1024 
L 589 1133 
Q 1158 230 1888 230 
Q 2150 230 2332 374 
Q 2515 518 2515 698 
Q 2515 864 2396 973 
Q 2278 1082 1971 1197 
L 1248 1466 
Q 826 1619 624 1814 
Q 422 2010 422 2291 
Q 422 2611 723 2851 
Q 1024 3091 1466 3091 
Q 1946 3091 2266 2829 
L 2349 3014 
z
" transform="scale(0.015625)"/>
     </defs>
     <use xlink:href="#STZhongsong-61"/>
     <use xlink:href="#STZhongsong-63" transform="translate(57.999985 0)"/>
     <use xlink:href="#STZhongsong-74" transform="translate(109.999969 0)"/>
     <use xlink:href="#STZhongsong-69" transform="translate(147.999954 0)"/>
     <use xlink:href="#STZhongsong-76" transform="translate(177.999939 0)"/>
     <use xlink:href="#STZhongsong-65" transform="translate(229.999924 0)"/>
     <use xlink:href="#STZhongsong-2f" transform="translate(281.999908 0)"/>
     <use xlink:href="#STZhongsong-65" transform="translate(341.999893 0)"/>
     <use xlink:href="#STZhongsong-6e" transform="translate(393.999878 0)"/>
     <use xlink:href="#STZhongsong-74" transform="translate(459.999863 0)"/>
     <use xlink:href="#STZhongsong-72" transform="translate(497.999847 0)"/>
     <use xlink:href="#STZhongsong-79" transform="translate(541.999832 0)"/>
     <use xlink:href="#STZhongsong-2f" transform="translate(595.999817 0)"/>
     <use xlink:href="#STZhongsong-70" transform="translate(655.999802 0)"/>
     <use xlink:href="#STZhongsong-65" transform="translate(717.999786 0)"/>
     <use xlink:href="#STZhongsong-72" transform="translate(769.999771 0)"/>
     <use xlink:href="#STZhongsong-73" transform="translate(813.999756 0)"/>
     <use xlink:href="#STZhongsong-69" transform="translate(865.999741 0)"/>
     <use xlink:href="#STZhongsong-73" transform="translate(895.999725 0)"/>
     <use xlink:href="#STZhongsong-74" transform="translate(947.99971 0)"/>
    </g>
    <!-- renew/capital/size/cat -->
    <g style="fill: #111111" transform="translate(458.812 243.877039) scale(0.14 -0.14)">
     <defs>
      <path id="STZhongsong-77" d="M 0 3014 
L 1434 3014 
L 1434 2752 
L 1331 2752 
Q 1139 2752 1068 2713 
Q 998 2675 998 2579 
Q 998 2502 1069 2304 
L 1715 518 
L 2349 2182 
L 2291 2330 
Q 2195 2592 2086 2669 
Q 1978 2746 1818 2752 
L 1818 3014 
L 3245 3014 
L 3245 2752 
L 3123 2752 
Q 2950 2752 2883 2710 
Q 2816 2669 2816 2573 
Q 2816 2490 2880 2304 
L 3526 518 
L 4154 2330 
Q 4211 2483 4211 2566 
Q 4211 2752 3891 2752 
L 3776 2752 
L 3776 3014 
L 4992 3014 
L 4992 2752 
Q 4794 2752 4691 2646 
Q 4589 2541 4499 2304 
L 3590 -77 
L 3213 -77 
L 2496 1798 
L 1779 -77 
L 1408 -77 
L 486 2304 
Q 384 2560 291 2656 
Q 198 2752 0 2752 
L 0 3014 
z
" transform="scale(0.015625)"/>
      <path id="STZhongsong-6c" d="M 198 4064 
L 198 4320 
Q 634 4358 1024 4582 
L 1254 4582 
L 1254 736 
Q 1254 454 1337 358 
Q 1421 262 1709 262 
L 1805 262 
L 1805 0 
L 198 0 
L 198 262 
L 358 262 
Q 563 262 646 358 
Q 730 454 730 762 
L 730 4064 
L 198 4064 
z
" transform="scale(0.015625)"/>
      <path id="STZhongsong-7a" d="M 640 3014 
L 2918 3014 
L 2918 2752 
L 813 288 
L 1331 288 
Q 1946 288 2266 480 
Q 2586 672 2752 1133 
L 3027 1037 
L 2643 0 
L 115 0 
L 115 262 
L 2221 2701 
L 1600 2701 
Q 1133 2701 899 2525 
Q 666 2349 493 1971 
L 224 2099 
L 640 3014 
z
" transform="scale(0.015625)"/>
     </defs>
     <use xlink:href="#STZhongsong-72"/>
     <use xlink:href="#STZhongsong-65" transform="translate(43.999985 0)"/>
     <use xlink:href="#STZhongsong-6e" transform="translate(95.999969 0)"/>
     <use xlink:href="#STZhongsong-65" transform="translate(161.999954 0)"/>
     <use xlink:href="#STZhongsong-77" transform="translate(213.999939 0)"/>
     <use xlink:href="#STZhongsong-2f" transform="translate(291.999924 0)"/>
     <use xlink:href="#STZhongsong-63" transform="translate(351.999908 0)"/>
     <use xlink:href="#STZhongsong-61" transform="translate(403.999893 0)"/>
     <use xlink:href="#STZhongsong-70" transform="translate(461.999878 0)"/>
     <use xlink:href="#STZhongsong-69" transform="translate(523.999863 0)"/>
     <use xlink:href="#STZhongsong-74" transform="translate(553.999847 0)"/>
     <use xlink:href="#STZhongsong-61" transform="translate(591.999832 0)"/>
     <use xlink:href="#STZhongsong-6c" transform="translate(649.999817 0)"/>
     <use xlink:href="#STZhongsong-2f" transform="translate(679.999802 0)"/>
     <use xlink:href="#STZhongsong-73" transform="translate(739.999786 0)"/>
     <use xlink:href="#STZhongsong-69" transform="translate(791.999771 0)"/>
     <use xlink:href="#STZhongsong-7a" transform="translate(821.999756 0)"/>
     <use xlink:href="#STZhongsong-65" transform="translate(869.999741 0)"/>
     <use xlink:href="#STZhongsong-2f" transform="translate(921.999725 0)"/>
     <use xlink:href="#STZhongsong-63" transform="translate(981.99971 0)"/>
     <use xlink:href="#STZhongsong-61" transform="translate(1033.999695 0)"/>
     <use xlink:href="#STZhongsong-74" transform="translate(1091.99968 0)"/>
    </g>
   </g>
   <g id="patch_8">
    <path d="M 615.731168 212.797281 
Q 630.577511 212.797281 643.858607 212.797281 
" style="fill: none; stroke: #555555; stroke-width: 1.4; stroke-linecap: round"/>
    <path d="M 639.858607 210.797281 
L 643.858607 212.797281 
L 639.858607 214.797281 
" style="fill: none; stroke: #555555; stroke-width: 1.4; stroke-linecap: round"/>
   </g>
   <g id="text_7">
    <!-- 预测目标 -->
    <g style="fill: #111111" transform="translate(697.664 196.865875) scale(0.17 -0.17)">
     <defs>
      <path id="STZhongsong-9884" d="M 4000 4173 
L 3360 4173 
Q 3200 4173 3085 4141 
L 2976 4416 
Q 3110 4384 3296 4384 
L 5171 4384 
L 5414 4762 
Q 5478 4858 5555 4858 
Q 5632 4858 5920 4582 
Q 6208 4307 6208 4224 
Q 6208 4173 6074 4173 
L 4640 4173 
Q 4442 3814 4230 3373 
L 4986 3373 
L 5184 3642 
Q 5229 3699 5267 3699 
Q 5338 3699 5616 3510 
Q 5894 3322 5894 3245 
Q 5894 3181 5651 3066 
L 5651 1024 
Q 5651 806 5658 710 
L 5664 538 
Q 5664 486 5613 454 
Q 5562 422 5360 348 
Q 5158 275 5113 275 
Q 5069 275 5069 365 
L 5069 3174 
L 3584 3174 
L 3584 416 
Q 3584 358 3536 320 
Q 3488 282 3315 218 
Q 3142 154 3097 154 
Q 3053 154 3053 205 
L 3066 563 
Q 3078 774 3078 1069 
L 3078 3091 
Q 3078 3373 3059 3642 
Q 3322 3578 3635 3373 
L 3923 3373 
Q 4019 3789 4000 4173 
z
M 1670 3430 
Q 1862 3725 2144 4211 
L 704 4211 
Q 531 4211 435 4166 
L 320 4429 
Q 454 4397 640 4397 
L 2157 4397 
L 2310 4614 
Q 2355 4678 2403 4678 
Q 2451 4678 2720 4464 
Q 2989 4250 2989 4176 
Q 2989 4102 2829 4096 
Q 2746 4090 2675 4051 
Q 2605 4013 2368 3789 
L 1843 3283 
Q 1933 3168 1933 3017 
Q 1933 2867 1865 2768 
Q 1798 2669 1740 2669 
Q 1683 2669 1648 2701 
Q 1613 2733 1530 2861 
Q 1267 3283 800 3648 
L 845 3750 
Q 1421 3597 1670 3430 
z
M 1286 2451 
L 493 2451 
Q 320 2451 224 2406 
L 109 2669 
Q 243 2637 429 2637 
L 2259 2637 
L 2438 2848 
Q 2483 2899 2515 2899 
Q 2547 2899 2694 2784 
Q 2842 2669 2934 2576 
Q 3027 2483 3027 2406 
Q 3027 2330 2896 2323 
Q 2765 2317 2691 2288 
Q 2618 2259 2509 2137 
Q 2400 2016 2131 1690 
L 2022 1747 
Q 2202 2227 2278 2451 
L 1843 2451 
L 1843 -269 
Q 1843 -646 1536 -787 
Q 1229 -928 1146 -928 
Q 1088 -928 1050 -826 
Q 973 -621 857 -518 
Q 742 -416 384 -256 
L 422 -128 
Q 902 -230 1094 -230 
Q 1286 -230 1286 -115 
L 1286 2451 
z
M 4320 320 
Q 3981 -525 2278 -1030 
L 2234 -909 
Q 2854 -627 3222 -336 
Q 3590 -45 3756 252 
Q 3923 550 4009 1136 
Q 4096 1722 4070 2822 
Q 4365 2746 4544 2691 
Q 4723 2637 4748 2617 
Q 4774 2598 4774 2569 
Q 4774 2541 4691 2473 
Q 4608 2406 4608 2182 
Q 4595 1261 4384 493 
Q 5050 243 5382 70 
Q 5715 -102 5827 -243 
Q 5939 -384 5939 -550 
Q 5939 -717 5852 -848 
Q 5766 -979 5699 -979 
Q 5632 -979 5587 -944 
Q 5542 -909 5440 -755 
Q 5139 -326 4892 -105 
Q 4646 115 4320 320 
z
" transform="scale(0.015625)"/>
      <path id="STZhongsong-6d4b" d="M 5146 4851 
Q 5363 4800 5619 4707 
Q 5875 4614 5875 4563 
Q 5875 4512 5677 4390 
L 5677 -403 
Q 5677 -602 5603 -720 
Q 5530 -838 5290 -976 
Q 5050 -1114 4982 -1114 
Q 4915 -1114 4909 -1018 
Q 4896 -768 4765 -646 
Q 4634 -525 4218 -390 
L 4250 -275 
Q 4794 -371 4941 -371 
Q 5088 -371 5123 -332 
Q 5158 -294 5158 -192 
L 5158 4282 
Q 5158 4602 5146 4851 
z
M 704 4749 
Q 1088 4576 1389 4390 
Q 1690 4205 1690 4035 
Q 1690 3866 1594 3722 
Q 1498 3578 1389 3578 
Q 1357 3578 1328 3613 
Q 1299 3648 1209 3849 
Q 1120 4051 995 4227 
Q 870 4403 627 4666 
L 704 4749 
z
M 2490 4243 
L 3379 4243 
L 3520 4461 
Q 3552 4512 3600 4512 
Q 3648 4512 3881 4349 
Q 4115 4186 4115 4131 
Q 4115 4077 3898 3981 
L 3898 1370 
L 3904 883 
Q 3904 800 3705 707 
Q 3507 614 3475 614 
Q 3443 614 3443 704 
L 3443 4038 
L 2438 4038 
L 2438 838 
Q 2438 755 2396 713 
Q 2355 672 2208 608 
Q 2061 544 2019 544 
Q 1978 544 1978 602 
L 1990 870 
Q 1997 1139 1997 1453 
L 1997 3974 
Q 1997 4179 1984 4525 
Q 2259 4410 2490 4243 
z
M 4294 3853 
Q 4909 3680 4909 3584 
Q 4909 3546 4755 3469 
L 4755 1344 
L 4768 768 
Q 4768 717 4755 694 
Q 4742 672 4646 614 
Q 4550 557 4448 518 
Q 4346 480 4317 480 
Q 4288 480 4288 538 
L 4294 896 
Q 4301 1056 4301 1312 
L 4301 3341 
Q 4301 3763 4294 3853 
z
M 2982 544 
Q 2816 32 2441 -345 
Q 2067 -723 1376 -1120 
L 1286 -1018 
Q 2016 -422 2281 -22 
Q 2547 378 2646 989 
Q 2746 1600 2746 2810 
Q 2746 3213 2733 3616 
Q 3168 3469 3248 3424 
Q 3328 3379 3328 3344 
Q 3328 3309 3273 3270 
Q 3219 3232 3203 3177 
Q 3187 3123 3187 2957 
Q 3187 1222 3021 678 
Q 3514 410 3744 266 
Q 3974 122 4048 22 
Q 4122 -77 4122 -237 
Q 4122 -397 4045 -553 
Q 3968 -710 3885 -710 
Q 3846 -710 3814 -675 
Q 3782 -640 3628 -342 
Q 3475 -45 3324 160 
Q 3174 365 2982 544 
z
M 1894 3501 
L 1408 1715 
Q 1293 1299 1254 1046 
Q 1216 794 1216 522 
Q 1216 250 1251 -96 
Q 1286 -442 1286 -576 
Q 1286 -979 1107 -979 
Q 928 -979 768 -819 
Q 608 -659 608 -486 
Q 608 -442 621 -403 
Q 755 90 755 422 
Q 755 659 592 752 
Q 429 845 192 896 
L 192 1024 
Q 448 992 592 992 
Q 736 992 819 1091 
Q 902 1190 1024 1530 
L 1779 3578 
L 1894 3501 
z
M 307 3251 
Q 774 3098 1004 2938 
Q 1235 2778 1235 2602 
Q 1235 2426 1126 2269 
Q 1018 2112 890 2112 
Q 864 2112 845 2147 
Q 826 2182 768 2336 
Q 589 2810 237 3130 
L 307 3251 
z
" transform="scale(0.015625)"/>
      <path id="STZhongsong-76ee" d="M 2003 4262 
L 4275 4262 
L 4486 4538 
Q 4538 4602 4582 4602 
Q 4627 4602 4838 4435 
L 5133 4205 
Q 5216 4134 5216 4089 
Q 5216 4045 4973 3930 
L 4973 -102 
L 4986 -685 
Q 4986 -742 4973 -764 
Q 4960 -787 4873 -822 
Q 4787 -858 4617 -899 
Q 4448 -941 4406 -941 
Q 4365 -941 4365 -858 
L 4365 -205 
L 1952 -205 
L 1952 -704 
Q 1952 -787 1897 -825 
Q 1843 -864 1644 -934 
Q 1446 -1005 1395 -1005 
Q 1344 -1005 1350 -928 
Q 1382 -640 1382 -307 
L 1382 4038 
Q 1382 4307 1363 4582 
Q 1760 4410 2003 4262 
z
M 1952 2899 
L 4365 2899 
L 4365 4051 
L 1952 4051 
L 1952 2899 
z
M 4365 2701 
L 1952 2701 
L 1952 1453 
L 4365 1453 
L 4365 2701 
z
M 4365 6 
L 4365 1254 
L 1952 1254 
L 1952 6 
L 4365 6 
z
" transform="scale(0.015625)"/>
      <path id="STZhongsong-6807" d="M 1862 3155 
L 2144 3155 
L 2362 3488 
Q 2413 3565 2457 3565 
Q 2502 3565 2630 3456 
L 2912 3219 
Q 3059 3098 3059 3027 
Q 3059 2957 2925 2957 
L 1862 2957 
L 1862 2272 
Q 2310 2144 2550 2003 
Q 2790 1862 2790 1638 
Q 2790 1491 2678 1356 
Q 2566 1222 2470 1222 
Q 2426 1222 2397 1257 
Q 2368 1293 2310 1427 
Q 2106 1901 1862 2093 
L 1862 -723 
Q 1862 -838 1628 -928 
Q 1395 -1018 1350 -1018 
Q 1306 -1018 1306 -986 
Q 1306 -954 1315 -765 
Q 1325 -576 1325 -96 
L 1325 1555 
Q 986 838 262 122 
L 173 198 
Q 627 928 864 1549 
Q 1101 2170 1248 2957 
L 659 2957 
Q 493 2957 384 2925 
L 275 3187 
Q 410 3155 595 3155 
L 1325 3155 
L 1325 4083 
Q 1325 4570 1306 4890 
Q 2150 4659 2150 4570 
Q 2150 4512 1862 4378 
L 1862 3155 
z
M 4819 4070 
L 5075 4448 
Q 5126 4525 5174 4525 
Q 5222 4525 5395 4384 
L 5715 4122 
Q 5869 4000 5869 3942 
Q 5869 3885 5747 3885 
L 3206 3885 
Q 3053 3885 2963 3840 
L 2861 4096 
Q 2989 4070 3149 4070 
L 4819 4070 
z
M 4602 2419 
L 4602 -480 
Q 4602 -659 4544 -745 
Q 4486 -832 4224 -969 
Q 3962 -1107 3894 -1107 
Q 3827 -1107 3795 -1005 
Q 3718 -749 3568 -643 
Q 3418 -538 2944 -422 
L 2944 -294 
Q 3507 -365 3686 -365 
Q 3866 -365 3933 -342 
Q 4000 -320 4000 -230 
L 4000 2419 
L 2822 2419 
Q 2669 2419 2579 2374 
L 2477 2643 
Q 2605 2618 2765 2618 
L 5171 2618 
L 5446 3059 
Q 5498 3136 5546 3136 
Q 5594 3136 5699 3053 
Q 5805 2970 5965 2822 
Q 6125 2675 6179 2611 
Q 6234 2547 6234 2502 
Q 6234 2419 6099 2419 
L 4602 2419 
z
M 3046 2010 
Q 3309 1907 3491 1811 
Q 3674 1715 3712 1686 
Q 3750 1658 3750 1632 
Q 3750 1606 3667 1574 
Q 3546 1530 3450 1331 
Q 3002 371 2330 -499 
L 2221 -435 
Q 2803 723 3046 2010 
z
M 4998 1792 
Q 5498 1299 5741 1011 
Q 5984 723 6057 556 
Q 6131 390 6131 204 
Q 6131 19 5990 -160 
Q 5850 -339 5754 -339 
Q 5594 -339 5542 -51 
Q 5434 518 5315 848 
Q 5197 1178 4902 1696 
L 4998 1792 
z
" transform="scale(0.015625)"/>
     </defs>
     <use xlink:href="#STZhongsong-9884"/>
     <use xlink:href="#STZhongsong-6d4b" transform="translate(99.999985 0)"/>
     <use xlink:href="#STZhongsong-76ee" transform="translate(199.999969 0)"/>
     <use xlink:href="#STZhongsong-6807" transform="translate(299.999954 0)"/>
    </g>
   </g>
   <g id="text_8">
    <!-- 下一年企业数量 -->
    <g style="fill: #111111" transform="translate(682.664 226.634125) scale(0.14 -0.14)">
     <defs>
      <path id="STZhongsong-4e0b" d="M 2733 3949 
L 698 3949 
Q 525 3949 429 3904 
L 314 4166 
Q 448 4134 634 4134 
L 4902 4134 
L 5235 4627 
Q 5280 4685 5325 4685 
Q 5402 4685 5754 4397 
Q 6106 4109 6106 4029 
Q 6106 3949 5978 3949 
L 3315 3949 
L 3315 2682 
Q 4269 2470 4777 2201 
Q 5286 1933 5286 1517 
Q 5286 1325 5206 1187 
Q 5126 1050 5043 1050 
Q 4960 1050 4902 1104 
Q 4845 1158 4742 1293 
Q 4390 1773 4067 2035 
Q 3744 2298 3315 2528 
L 3315 134 
Q 3315 -314 3322 -454 
L 3328 -717 
Q 3328 -749 3312 -768 
Q 3296 -787 3184 -848 
Q 3072 -909 2947 -950 
Q 2822 -992 2761 -992 
Q 2701 -992 2701 -947 
Q 2701 -902 2717 -643 
Q 2733 -384 2733 13 
L 2733 3949 
z
" transform="scale(0.015625)"/>
      <path id="STZhongsong-4e00" d="M 4832 2099 
L 5197 2586 
Q 5274 2688 5331 2688 
Q 5389 2688 5728 2358 
Q 6067 2029 6067 1958 
Q 6067 1888 5914 1888 
L 582 1888 
Q 410 1888 314 1843 
L 186 2131 
Q 320 2099 506 2099 
L 4832 2099 
z
" transform="scale(0.015625)"/>
      <path id="STZhongsong-4f01" d="M 3232 4314 
Q 3174 4243 3130 4160 
Q 2726 3469 2377 3046 
Q 2029 2624 1542 2272 
Q 1056 1920 218 1459 
L 154 1562 
Q 1139 2291 1696 2979 
Q 2253 3667 2771 4832 
Q 3482 4576 3482 4506 
Q 3482 4467 3341 4410 
Q 4179 3034 6259 2554 
L 6246 2432 
Q 5946 2432 5786 2371 
Q 5626 2310 5472 2112 
Q 5427 2061 5389 2061 
Q 5318 2061 4774 2432 
Q 4230 2803 3852 3251 
Q 3475 3699 3232 4314 
z
M 3558 1414 
L 4179 1414 
L 4429 1754 
Q 4486 1830 4557 1830 
Q 4614 1830 4761 1721 
Q 4909 1613 5056 1472 
Q 5203 1331 5203 1286 
Q 5203 1216 5062 1216 
L 3558 1216 
L 3558 -461 
L 4870 -461 
L 5171 -45 
Q 5235 45 5280 45 
Q 5344 45 5696 -240 
Q 6048 -525 6048 -598 
Q 6048 -672 5933 -672 
L 723 -672 
Q 550 -672 454 -717 
L 339 -429 
Q 474 -461 659 -461 
L 1466 -461 
L 1466 1370 
Q 1466 1690 1453 1939 
Q 1971 1805 2076 1763 
Q 2182 1722 2182 1677 
Q 2182 1632 2016 1549 
L 2016 -461 
L 3034 -461 
L 3034 2413 
Q 3034 2733 3021 2982 
Q 3360 2899 3568 2816 
Q 3776 2733 3776 2682 
Q 3776 2611 3558 2502 
L 3558 1414 
z
" transform="scale(0.015625)"/>
      <path id="STZhongsong-4e1a" d="M 3552 -422 
L 3552 4154 
Q 3552 4646 3539 4755 
Q 3821 4698 4096 4608 
Q 4371 4518 4371 4448 
Q 4371 4378 4096 4243 
L 4096 768 
Q 4659 1626 5158 3341 
Q 5747 3053 5843 2989 
Q 5939 2925 5939 2873 
Q 5939 2822 5818 2810 
Q 5766 2803 5731 2771 
Q 5696 2739 5619 2618 
Q 4813 1210 4096 442 
L 4096 -422 
L 5056 -422 
L 5370 -26 
Q 5440 58 5485 58 
Q 5530 58 5616 -16 
Q 5702 -90 5862 -240 
Q 6022 -390 6092 -476 
Q 6163 -563 6163 -608 
Q 6163 -653 6048 -653 
L 640 -653 
Q 499 -653 416 -685 
L 282 -390 
Q 384 -422 538 -422 
L 2278 -422 
L 2278 4115 
Q 2278 4608 2266 4717 
Q 2886 4576 3001 4531 
Q 3117 4486 3117 4422 
Q 3117 4358 2822 4256 
L 2822 -422 
L 3552 -422 
z
M 787 3181 
Q 1357 2458 1645 2000 
Q 1933 1542 1933 1273 
Q 1933 1005 1757 758 
Q 1581 512 1434 512 
Q 1363 512 1340 557 
Q 1318 602 1318 781 
Q 1318 1754 698 3104 
L 787 3181 
z
" transform="scale(0.015625)"/>
      <path id="STZhongsong-6570" d="M 2394 3334 
L 2938 3334 
L 3136 3616 
Q 3181 3680 3245 3680 
Q 3309 3680 3520 3462 
Q 3731 3245 3731 3193 
Q 3731 3142 3610 3142 
L 2394 3142 
L 2394 3027 
Q 2784 2938 3069 2819 
Q 3354 2701 3354 2515 
Q 3354 2381 3296 2227 
Q 3238 2074 3171 2074 
Q 3104 2074 3069 2109 
Q 3034 2144 2963 2259 
Q 2893 2374 2720 2556 
Q 2547 2739 2394 2854 
Q 2406 2381 2406 2259 
Q 2406 2138 2393 2099 
Q 2381 2061 2217 2006 
Q 2054 1952 1971 1933 
Q 2291 1811 2291 1722 
Q 2291 1670 2227 1660 
Q 2163 1651 2118 1609 
Q 2074 1568 1990 1434 
L 2637 1434 
L 2803 1619 
Q 2854 1677 2892 1677 
Q 2931 1677 3190 1481 
Q 3450 1286 3450 1228 
Q 3450 1171 3338 1148 
Q 3226 1126 3168 1088 
Q 3110 1050 3053 941 
Q 2848 563 2637 307 
Q 3040 205 3133 38 
Q 3226 -128 3226 -262 
Q 3226 -397 3187 -467 
Q 3149 -538 3101 -538 
Q 3053 -538 2816 -378 
Q 2579 -218 2278 -51 
Q 1664 -589 384 -992 
L 333 -877 
Q 1338 -371 1875 141 
Q 1440 326 845 474 
Q 1184 954 1331 1222 
L 691 1222 
Q 518 1222 422 1190 
L 307 1453 
Q 410 1434 627 1434 
L 1440 1434 
Q 1626 1824 1690 2035 
Q 1818 1997 1869 1978 
Q 1888 2515 1888 2874 
Q 1421 2125 282 1613 
L 243 1715 
Q 1075 2330 1549 3142 
L 589 3142 
Q 467 3142 390 3110 
L 301 3366 
Q 416 3334 550 3334 
L 1888 3334 
L 1888 4147 
Q 1888 4698 1875 4877 
Q 2592 4723 2592 4653 
Q 2592 4608 2394 4499 
L 2394 3334 
z
M 1856 1222 
L 1427 570 
Q 1914 480 2138 429 
Q 2413 762 2630 1222 
L 1856 1222 
z
M 4326 3270 
L 5222 3270 
L 5485 3590 
Q 5549 3661 5609 3661 
Q 5670 3661 5939 3421 
Q 6208 3181 6208 3117 
Q 6208 3072 6054 3072 
L 5050 3072 
Q 5638 2925 5638 2810 
Q 5638 2771 5542 2742 
Q 5446 2714 5404 2643 
Q 5363 2573 5338 2438 
Q 5088 1069 4749 518 
Q 5261 -186 6304 -646 
L 6246 -774 
Q 6080 -730 5933 -730 
Q 5658 -730 5446 -902 
Q 5389 -947 5363 -947 
Q 5299 -947 4934 -534 
Q 4570 -122 4448 102 
Q 4115 -301 3657 -579 
Q 3200 -858 2470 -1139 
L 2413 -1005 
Q 3642 -307 4211 544 
Q 3942 1152 3878 2342 
Q 3654 1946 3322 1491 
L 3213 1555 
Q 3949 2963 4109 4877 
Q 4333 4832 4563 4761 
Q 4794 4691 4858 4649 
Q 4922 4608 4922 4563 
Q 4922 4518 4813 4492 
Q 4704 4467 4653 4384 
Q 4602 4301 4538 3974 
Q 4474 3648 4326 3270 
z
M 4870 3072 
L 4250 3072 
L 4064 2682 
Q 4141 1594 4454 979 
Q 4723 1619 4870 3072 
z
M 3104 4602 
Q 3264 4525 3453 4422 
Q 3642 4320 3670 4288 
Q 3699 4256 3699 4221 
Q 3699 4186 3673 4170 
Q 3648 4154 3539 4154 
Q 3430 4154 3315 4038 
Q 2957 3680 2528 3392 
L 2464 3488 
Q 2906 4102 3104 4602 
z
M 653 4512 
Q 1171 4326 1353 4201 
Q 1536 4077 1536 3901 
Q 1536 3725 1453 3590 
Q 1370 3456 1286 3456 
Q 1203 3456 1164 3494 
Q 1126 3533 1084 3673 
Q 1043 3814 899 4038 
Q 755 4262 589 4429 
L 653 4512 
z
" transform="scale(0.015625)"/>
      <path id="STZhongsong-91cf" d="M 2054 4480 
L 4410 4480 
L 4576 4691 
Q 4608 4730 4640 4730 
Q 4691 4730 4969 4582 
Q 5248 4435 5248 4368 
Q 5248 4301 5024 4198 
L 5024 3738 
Q 5024 3552 5037 3341 
L 5043 3142 
Q 5043 3098 5030 3075 
Q 5018 3053 4922 2992 
Q 4826 2931 4685 2876 
Q 4544 2822 4509 2822 
Q 4474 2822 4474 2880 
L 4474 3046 
L 2016 3046 
Q 2029 2989 2006 2960 
Q 1984 2931 1897 2886 
Q 1811 2842 1660 2797 
Q 1510 2752 1475 2752 
Q 1440 2752 1446 2822 
Q 1478 3130 1478 3456 
L 1478 4198 
Q 1478 4467 1459 4742 
Q 1830 4608 2054 4480 
z
M 4474 3853 
L 4474 4294 
L 2016 4294 
L 2016 3853 
L 4474 3853 
z
M 4474 3213 
L 4474 3674 
L 2016 3674 
L 2016 3213 
L 4474 3213 
z
M 5171 2675 
L 5395 3040 
Q 5434 3110 5491 3110 
Q 5549 3110 5690 2989 
L 5984 2746 
Q 6138 2618 6138 2560 
Q 6138 2502 5990 2502 
L 640 2502 
Q 467 2502 371 2458 
L 256 2707 
Q 390 2675 576 2675 
L 5171 2675 
z
M 3482 672 
L 3482 166 
L 4666 166 
L 4864 416 
Q 4902 474 4950 474 
Q 4998 474 5251 285 
Q 5504 96 5504 38 
Q 5504 -19 5286 -19 
L 3482 -19 
L 3482 -550 
L 5203 -550 
L 5434 -230 
Q 5485 -160 5542 -160 
Q 5600 -160 5865 -390 
Q 6131 -621 6131 -691 
Q 6131 -736 5965 -736 
L 582 -736 
Q 410 -736 314 -781 
L 198 -518 
Q 333 -550 518 -550 
L 2931 -550 
L 2931 -19 
L 1274 -19 
Q 1101 -19 1005 -64 
L 877 198 
Q 1011 166 1197 166 
L 2931 166 
L 2931 672 
L 1843 672 
Q 1843 589 1824 569 
Q 1805 550 1725 505 
Q 1645 461 1481 413 
Q 1318 365 1296 365 
Q 1274 365 1280 422 
Q 1312 717 1312 1050 
L 1312 1747 
Q 1312 2074 1293 2355 
Q 1715 2253 1926 2150 
L 4544 2150 
L 4685 2362 
Q 4717 2413 4765 2413 
Q 4813 2413 4944 2333 
Q 5075 2253 5209 2157 
Q 5344 2061 5344 2029 
Q 5344 1971 5126 1850 
L 5126 1363 
Q 5126 1056 5133 954 
L 5139 762 
Q 5139 704 5091 669 
Q 5043 634 4880 592 
Q 4717 550 4627 550 
Q 4576 550 4576 627 
L 4576 672 
L 3482 672 
z
M 2931 1510 
L 2931 1978 
L 1843 1978 
L 1843 1510 
L 2931 1510 
z
M 3482 1978 
L 3482 1510 
L 4576 1510 
L 4576 1978 
L 3482 1978 
z
M 3482 1312 
L 3482 858 
L 4576 858 
L 4576 1312 
L 3482 1312 
z
M 2931 858 
L 2931 1312 
L 1843 1312 
L 1843 858 
L 2931 858 
z
" transform="scale(0.015625)"/>
     </defs>
     <use xlink:href="#STZhongsong-4e0b"/>
     <use xlink:href="#STZhongsong-4e00" transform="translate(99.999985 0)"/>
     <use xlink:href="#STZhongsong-5e74" transform="translate(199.999969 0)"/>
     <use xlink:href="#STZhongsong-4f01" transform="translate(299.999954 0)"/>
     <use xlink:href="#STZhongsong-4e1a" transform="translate(399.999939 0)"/>
     <use xlink:href="#STZhongsong-6570" transform="translate(499.999924 0)"/>
     <use xlink:href="#STZhongsong-91cf" transform="translate(599.999908 0)"/>
    </g>
    <!-- 或高增长格网 -->
    <g style="fill: #111111" transform="translate(689.664 243.514625) scale(0.14 -0.14)">
     <defs>
      <path id="STZhongsong-6216" d="M 3482 3450 
L 1018 3450 
Q 813 3450 659 3379 
L 486 3667 
Q 678 3648 909 3648 
L 3475 3648 
Q 3437 4486 3366 4896 
Q 3968 4774 4086 4739 
Q 4205 4704 4205 4659 
Q 4205 4614 4006 4525 
Q 4000 4058 4006 3648 
L 5158 3648 
L 5408 4026 
Q 5478 4141 5571 4137 
Q 5664 4134 5910 3843 
Q 6157 3552 6157 3488 
Q 6157 3450 6042 3450 
L 4006 3450 
Q 4051 2016 4333 1178 
Q 4794 1862 5037 2669 
Q 5222 2560 5440 2422 
Q 5658 2285 5686 2256 
Q 5715 2227 5715 2208 
Q 5715 2157 5616 2144 
Q 5517 2131 5481 2099 
Q 5446 2067 5382 1933 
Q 5030 1190 4563 640 
Q 4781 262 5085 25 
Q 5389 -211 5462 -211 
Q 5536 -211 5574 -147 
Q 5613 -83 5721 230 
Q 5830 544 5965 1062 
L 6074 1030 
Q 5971 339 5971 -57 
Q 5971 -454 6144 -762 
Q 6176 -826 6176 -877 
Q 6176 -1011 5984 -1011 
Q 5824 -1011 5453 -883 
Q 5082 -755 4762 -483 
Q 4442 -211 4179 243 
Q 3264 -602 1702 -998 
L 1658 -902 
Q 3059 -333 3962 704 
Q 3552 1645 3482 3450 
z
M 4365 4787 
Q 4787 4678 5024 4560 
Q 5261 4442 5261 4320 
Q 5261 4198 5145 4012 
Q 5030 3827 4947 3827 
Q 4864 3827 4822 3878 
Q 4781 3930 4736 4058 
Q 4582 4486 4320 4691 
L 4365 4787 
z
M 1696 2822 
L 2464 2822 
L 2637 3085 
Q 2682 3136 2726 3136 
Q 2771 3136 2918 3034 
L 3162 2861 
Q 3251 2797 3251 2733 
Q 3251 2624 3002 2528 
L 3002 1395 
Q 3002 1210 3011 1126 
Q 3021 1043 3021 1024 
Q 3021 922 2800 832 
Q 2579 742 2534 742 
Q 2490 742 2490 851 
L 2490 1165 
L 1600 1165 
L 1600 858 
Q 1600 787 1568 748 
Q 1536 710 1385 656 
Q 1235 602 1133 602 
Q 1088 602 1088 659 
L 1094 1088 
L 1094 2515 
Q 1094 2784 1075 3059 
Q 1466 2950 1696 2822 
z
M 2490 1350 
L 2490 2656 
L 1600 2656 
L 1600 1350 
L 2490 1350 
z
M 3488 550 
L 1811 -83 
Q 1165 -326 1053 -400 
Q 941 -474 893 -474 
Q 845 -474 813 -410 
Q 672 -115 499 166 
Q 1402 282 1984 390 
L 3443 666 
L 3488 550 
z
" transform="scale(0.015625)"/>
      <path id="STZhongsong-9ad8" d="M 3002 4083 
Q 2938 4557 2573 4838 
L 2611 4954 
Q 3629 4845 3629 4474 
Q 3629 4378 3568 4256 
Q 3507 4134 3443 4083 
L 4992 4083 
L 5235 4454 
Q 5306 4563 5405 4563 
Q 5504 4563 5808 4300 
Q 6112 4038 6112 3964 
Q 6112 3891 5984 3891 
L 659 3891 
Q 486 3891 390 3846 
L 275 4115 
Q 410 4083 595 4083 
L 3002 4083 
z
M 4109 2387 
L 2221 2387 
Q 2221 2304 2195 2262 
Q 2170 2221 2003 2166 
Q 1837 2112 1696 2112 
Q 1658 2112 1664 2163 
Q 1696 2477 1696 2739 
L 1696 3226 
Q 1696 3494 1677 3770 
Q 2099 3610 2285 3494 
L 4058 3494 
L 4218 3744 
Q 4243 3789 4304 3789 
Q 4365 3789 4633 3632 
Q 4902 3475 4902 3408 
Q 4902 3341 4653 3251 
L 4653 2861 
Q 4653 2650 4659 2573 
L 4672 2419 
Q 4672 2336 4445 2269 
Q 4218 2202 4147 2202 
Q 4109 2202 4109 2259 
L 4109 2387 
z
M 2221 2573 
L 4109 2573 
L 4109 3296 
L 2221 3296 
L 2221 2573 
z
M 1677 1875 
L 4870 1875 
L 5024 2112 
Q 5056 2157 5097 2157 
Q 5139 2157 5376 2016 
Q 5613 1875 5686 1824 
Q 5760 1773 5760 1725 
Q 5760 1677 5517 1574 
L 5517 -435 
Q 5517 -582 5485 -681 
Q 5453 -781 5353 -861 
Q 5254 -941 5046 -1017 
Q 4838 -1094 4764 -1094 
Q 4691 -1094 4691 -998 
Q 4691 -787 4531 -665 
Q 4371 -544 3878 -435 
L 3910 -288 
Q 4442 -384 4627 -384 
Q 4813 -384 4883 -352 
Q 4954 -320 4954 -218 
L 4954 1696 
L 1485 1696 
L 1485 -813 
Q 1485 -864 1472 -886 
Q 1459 -909 1337 -963 
Q 1216 -1018 1097 -1046 
Q 979 -1075 950 -1075 
Q 922 -1075 922 -1043 
L 941 -698 
Q 954 -480 954 -147 
L 954 1581 
Q 954 1901 941 2150 
Q 1363 2042 1677 1875 
z
M 3744 173 
L 2656 173 
L 2656 32 
Q 2656 -26 2643 -42 
Q 2630 -58 2531 -109 
Q 2432 -160 2317 -192 
Q 2202 -224 2166 -224 
Q 2131 -224 2138 -166 
Q 2170 147 2170 493 
L 2170 883 
Q 2170 1075 2144 1427 
Q 2515 1331 2739 1210 
L 3674 1210 
L 3834 1414 
Q 3878 1472 3926 1472 
Q 3974 1472 4220 1302 
Q 4467 1133 4467 1065 
Q 4467 998 4256 915 
L 4256 531 
Q 4256 365 4262 262 
L 4275 90 
Q 4275 6 4076 -61 
Q 3878 -128 3782 -128 
Q 3744 -128 3744 -70 
L 3744 173 
z
M 2656 358 
L 3744 358 
L 3744 1024 
L 2656 1024 
L 2656 358 
z
" transform="scale(0.015625)"/>
      <path id="STZhongsong-589e" d="M 5331 1907 
L 2982 1907 
Q 2982 1779 2947 1737 
Q 2912 1696 2720 1619 
Q 2528 1542 2470 1542 
Q 2438 1542 2445 1613 
Q 2477 1907 2477 2246 
L 2477 3501 
Q 2477 3770 2458 4045 
Q 2829 3917 3066 3738 
L 3501 3738 
Q 3437 3763 3357 4041 
Q 3277 4320 3161 4502 
Q 3046 4685 2880 4858 
L 2925 4954 
Q 3386 4762 3626 4576 
Q 3866 4390 3866 4186 
Q 3866 4064 3782 3920 
Q 3699 3776 3584 3738 
L 4352 3738 
Q 4678 4326 4890 4922 
Q 5491 4602 5491 4506 
Q 5491 4454 5379 4441 
Q 5267 4429 5132 4307 
Q 4998 4186 4627 3738 
L 5274 3738 
L 5389 3910 
Q 5466 4026 5526 4026 
Q 5587 4026 5830 3859 
Q 6074 3693 6074 3635 
Q 6074 3578 5862 3482 
L 5862 2522 
Q 5862 2170 5869 2067 
L 5882 1875 
Q 5882 1837 5834 1795 
Q 5786 1754 5597 1680 
Q 5408 1606 5357 1606 
Q 5331 1606 5331 1664 
L 5331 1907 
z
M 3898 2112 
L 3898 3552 
L 2982 3552 
L 2982 2112 
L 3898 2112 
z
M 3162 3354 
Q 3533 3066 3619 2957 
Q 3706 2848 3706 2704 
Q 3706 2560 3616 2454 
Q 3526 2349 3424 2349 
Q 3322 2349 3312 2646 
Q 3302 2944 3085 3277 
L 3162 3354 
z
M 4365 3552 
L 4365 2112 
L 5331 2112 
L 5331 3552 
L 4365 3552 
z
M 4794 3354 
Q 5261 3091 5261 3002 
Q 5261 2976 5241 2969 
Q 5222 2963 5136 2963 
Q 5050 2963 4909 2778 
Q 4685 2477 4493 2266 
L 4416 2336 
Q 4672 2906 4794 3354 
z
M 1082 2630 
L 621 2630 
Q 448 2630 352 2586 
L 230 2854 
Q 365 2822 550 2822 
L 1082 2822 
L 1082 4198 
Q 1082 4614 1056 4774 
Q 1408 4678 1625 4585 
Q 1843 4493 1843 4435 
Q 1843 4378 1613 4269 
L 1613 2822 
L 1715 2822 
L 1862 3072 
Q 1920 3162 1984 3162 
Q 2048 3162 2233 2970 
Q 2419 2778 2419 2704 
Q 2419 2630 2298 2630 
L 1613 2630 
L 1613 896 
L 2592 1203 
L 2656 1082 
L 1574 467 
Q 1152 230 1008 134 
Q 864 38 736 -70 
Q 685 -115 659 -115 
Q 634 -115 586 -44 
Q 538 26 288 512 
Q 550 563 1082 723 
L 1082 2630 
z
M 4966 -435 
L 3373 -435 
L 3373 -685 
Q 3373 -749 3357 -771 
Q 3341 -794 3257 -838 
Q 3174 -883 3040 -921 
Q 2906 -960 2870 -960 
Q 2835 -960 2842 -890 
Q 2874 -646 2874 -256 
L 2874 1075 
Q 2874 1344 2854 1619 
Q 3354 1472 3507 1395 
L 4922 1395 
L 5018 1581 
Q 5056 1651 5123 1651 
Q 5190 1651 5456 1497 
Q 5722 1344 5722 1289 
Q 5722 1235 5517 1146 
L 5517 -19 
Q 5517 -224 5530 -429 
L 5536 -614 
Q 5536 -678 5491 -710 
Q 5446 -742 5264 -806 
Q 5082 -870 5024 -870 
Q 4966 -870 4966 -819 
L 4966 -435 
z
M 3373 557 
L 4966 557 
L 4966 1203 
L 3373 1203 
L 3373 557 
z
M 4966 378 
L 3373 378 
L 3373 -250 
L 4966 -250 
L 4966 378 
z
" transform="scale(0.015625)"/>
      <path id="STZhongsong-957f" d="M 1818 2298 
L 1818 4218 
Q 1818 4544 1798 4819 
Q 2643 4666 2643 4544 
Q 2643 4480 2406 4339 
L 2406 2528 
Q 3539 3379 4621 4672 
Q 4890 4461 5053 4294 
Q 5216 4128 5216 4089 
Q 5216 4051 5187 4044 
Q 5158 4038 5075 4038 
Q 4838 4038 4582 3808 
Q 4147 3418 3664 3098 
Q 3181 2778 2406 2355 
L 2406 2298 
L 4966 2298 
L 5242 2694 
Q 5325 2810 5382 2810 
Q 5440 2810 5747 2515 
Q 6054 2221 6054 2150 
Q 6054 2080 5869 2080 
L 3328 2080 
Q 3744 1126 4448 611 
Q 5152 96 6266 -70 
L 6259 -211 
Q 5856 -230 5705 -304 
Q 5555 -378 5395 -614 
Q 5363 -666 5318 -666 
Q 5216 -666 4617 -259 
Q 4019 147 3696 668 
Q 3373 1190 3110 2080 
L 2406 2080 
L 2406 115 
L 3565 506 
L 3635 390 
Q 2630 -198 2278 -448 
Q 1926 -698 1856 -803 
Q 1786 -909 1750 -909 
Q 1715 -909 1692 -889 
Q 1670 -870 1542 -697 
Q 1414 -525 1299 -358 
Q 1619 -115 1718 67 
Q 1818 250 1818 563 
L 1818 2080 
L 653 2080 
Q 480 2080 384 2035 
L 237 2330 
Q 371 2298 557 2298 
L 1818 2298 
z
" transform="scale(0.015625)"/>
      <path id="STZhongsong-683c" d="M 1722 3334 
L 1869 3334 
L 2029 3571 
Q 2093 3667 2147 3667 
Q 2202 3667 2429 3449 
Q 2656 3232 2656 3171 
Q 2656 3110 2522 3110 
L 1722 3110 
L 1722 2573 
Q 2112 2445 2320 2281 
Q 2528 2118 2528 1875 
Q 2528 1760 2413 1638 
Q 2298 1517 2208 1517 
Q 2118 1517 2083 1542 
Q 2048 1568 2022 1709 
Q 1933 2182 1722 2394 
L 1722 -691 
Q 1722 -755 1706 -771 
Q 1690 -787 1597 -844 
Q 1504 -902 1363 -960 
Q 1222 -1018 1200 -1018 
Q 1178 -1018 1178 -960 
L 1190 -691 
Q 1203 -371 1203 -90 
L 1203 1971 
Q 1037 1562 825 1242 
Q 614 922 192 467 
L 102 538 
Q 749 1594 1094 3110 
L 570 3110 
Q 403 3110 294 3078 
L 186 3366 
Q 320 3334 506 3334 
L 1203 3334 
L 1203 4134 
Q 1203 4557 1184 4864 
Q 1965 4685 1965 4614 
Q 1965 4570 1722 4429 
L 1722 3334 
z
M 3341 3398 
Q 2995 2848 2464 2298 
L 2362 2362 
Q 2771 2995 2992 3516 
Q 3213 4038 3373 4806 
Q 3814 4666 3932 4602 
Q 4051 4538 4051 4499 
Q 4051 4461 3955 4416 
Q 3859 4371 3744 4137 
Q 3629 3904 3590 3834 
L 4813 3834 
L 4998 4115 
Q 5030 4166 5065 4166 
Q 5101 4166 5254 4060 
Q 5408 3955 5526 3868 
Q 5645 3782 5680 3737 
Q 5715 3693 5715 3648 
Q 5715 3571 5619 3558 
Q 5523 3546 5404 3456 
Q 5286 3366 5190 3219 
Q 4832 2688 4518 2374 
Q 5178 1952 6182 1754 
L 6182 1651 
Q 5869 1606 5773 1548 
Q 5677 1491 5613 1338 
Q 5587 1267 5520 1267 
Q 5453 1267 4960 1513 
Q 4467 1760 4147 2035 
Q 3725 1702 3034 1376 
Q 3251 1306 3456 1203 
L 4678 1203 
L 4781 1382 
Q 4813 1440 4880 1440 
Q 4947 1440 5190 1289 
Q 5434 1139 5434 1062 
Q 5434 986 5248 922 
L 5248 -186 
Q 5248 -365 5254 -493 
L 5261 -691 
Q 5261 -730 5197 -771 
Q 5133 -813 4973 -873 
Q 4813 -934 4755 -934 
Q 4717 -934 4717 -870 
L 4717 -390 
L 3443 -390 
L 3443 -813 
Q 3443 -877 3424 -896 
Q 3405 -915 3222 -979 
Q 3040 -1043 2963 -1043 
Q 2938 -1043 2938 -992 
L 2944 -755 
Q 2950 -646 2950 -454 
L 2950 794 
Q 2950 1165 2938 1331 
Q 2438 1101 2022 941 
L 1971 1037 
Q 3290 1786 3859 2336 
Q 3539 2746 3341 3398 
z
M 3494 3661 
Q 3469 3610 3456 3590 
Q 3750 3002 4160 2650 
Q 4544 3091 4826 3661 
L 3494 3661 
z
M 3443 -198 
L 4717 -198 
L 4717 1011 
L 3443 1011 
L 3443 -198 
z
" transform="scale(0.015625)"/>
      <path id="STZhongsong-7f51" d="M 1542 4320 
L 4992 4320 
L 5158 4614 
Q 5197 4678 5248 4678 
Q 5299 4678 5603 4464 
Q 5907 4250 5907 4179 
Q 5907 4109 5651 4038 
L 5651 -166 
Q 5651 -499 5584 -646 
Q 5517 -794 5245 -928 
Q 4973 -1062 4890 -1062 
Q 4845 -1062 4819 -966 
Q 4742 -685 4588 -576 
Q 4435 -467 3917 -326 
L 3936 -186 
Q 4608 -301 4800 -301 
Q 4992 -301 5037 -230 
Q 5082 -160 5082 32 
L 5082 4134 
L 1498 4134 
L 1498 -736 
Q 1498 -781 1485 -800 
Q 1472 -819 1360 -883 
Q 1248 -947 1110 -995 
Q 973 -1043 941 -1043 
Q 909 -1043 915 -986 
Q 954 -666 954 -166 
L 954 4141 
Q 954 4461 941 4710 
Q 1197 4608 1542 4320 
z
M 2470 2534 
Q 2637 3104 2778 3776 
Q 3053 3654 3206 3558 
Q 3360 3462 3389 3433 
Q 3418 3405 3418 3373 
Q 3418 3315 3334 3289 
Q 3251 3264 3203 3184 
Q 3155 3104 3027 2768 
Q 2899 2432 2765 2144 
Q 3245 1459 3245 992 
Q 3245 813 3126 653 
Q 3008 493 2938 493 
Q 2822 493 2790 723 
Q 2720 1261 2547 1683 
Q 2093 781 1632 262 
L 1542 390 
Q 2029 1126 2349 2118 
Q 2138 2534 1619 3290 
L 1709 3360 
Q 2138 2938 2470 2534 
z
M 4006 2522 
Q 4179 3104 4288 3712 
Q 4960 3354 4960 3238 
Q 4960 3194 4873 3165 
Q 4787 3136 4723 3056 
Q 4659 2976 4550 2688 
Q 4442 2400 4307 2106 
Q 4883 1235 4883 800 
Q 4883 646 4787 508 
Q 4691 371 4604 371 
Q 4518 371 4461 576 
Q 4320 1088 4096 1658 
Q 3654 787 3014 102 
L 2938 192 
Q 3494 1005 3885 2150 
Q 3686 2586 3347 3136 
L 3462 3181 
Q 3757 2835 4006 2522 
z
" transform="scale(0.015625)"/>
     </defs>
     <use xlink:href="#STZhongsong-6216"/>
     <use xlink:href="#STZhongsong-9ad8" transform="translate(99.999985 0)"/>
     <use xlink:href="#STZhongsong-589e" transform="translate(199.999969 0)"/>
     <use xlink:href="#STZhongsong-957f" transform="translate(299.999954 0)"/>
     <use xlink:href="#STZhongsong-683c" transform="translate(399.999939 0)"/>
     <use xlink:href="#STZhongsong-7f51" transform="translate(499.999924 0)"/>
    </g>
   </g>
   <g id="text_9">
    <!-- 数据组织形式：year × row_id × col_id × feature -->
    <g style="fill: #111111" transform="translate(229.16 348.920312) scale(0.17 -0.17)">
     <defs>
      <path id="STZhongsong-636e" d="M 1261 3085 
L 582 3085 
Q 422 3085 307 3053 
L 198 3302 
Q 333 3270 518 3270 
L 1261 3270 
L 1261 4109 
Q 1261 4480 1248 4800 
Q 1619 4698 1811 4618 
Q 2003 4538 2003 4502 
Q 2003 4467 1779 4378 
L 1779 3270 
L 1882 3270 
L 2080 3558 
Q 2125 3622 2173 3622 
Q 2221 3622 2256 3590 
Q 2291 3558 2441 3408 
Q 2592 3258 2624 3219 
Q 2656 3181 2656 3149 
Q 2656 3085 2547 3085 
L 1779 3085 
L 1779 2234 
L 2554 2605 
L 2605 2483 
L 1779 1901 
L 1779 -282 
Q 1779 -422 1708 -521 
Q 1638 -621 1404 -761 
Q 1171 -902 1114 -902 
Q 1069 -902 1043 -813 
Q 992 -627 861 -531 
Q 730 -435 358 -333 
L 397 -218 
Q 806 -262 985 -262 
Q 1165 -262 1213 -217 
Q 1261 -173 1261 -45 
L 1261 1530 
Q 851 1235 771 1136 
Q 691 1037 643 1037 
Q 595 1037 576 1062 
L 416 1274 
Q 282 1446 192 1581 
Q 800 1773 1261 1990 
L 1261 3085 
z
M 3302 4378 
L 4902 4378 
L 5069 4621 
Q 5120 4704 5171 4704 
Q 5210 4704 5482 4515 
Q 5754 4326 5754 4282 
Q 5754 4224 5517 4109 
L 5517 3373 
Q 5517 3219 5526 3158 
Q 5536 3098 5536 3062 
Q 5536 3027 5475 2985 
Q 5414 2944 5248 2877 
Q 5082 2810 5027 2810 
Q 4973 2810 4973 2906 
L 4973 3136 
L 3226 3136 
Q 3187 2291 3174 2099 
L 4096 2099 
L 4096 2598 
Q 4096 2810 4077 3066 
Q 4755 2963 4755 2880 
Q 4755 2835 4595 2746 
L 4595 2099 
L 5286 2099 
L 5530 2426 
Q 5581 2496 5606 2496 
Q 5651 2496 5923 2243 
Q 6195 1990 6195 1948 
Q 6195 1907 6048 1907 
L 4595 1907 
L 4595 947 
L 4947 947 
L 5062 1165 
Q 5107 1254 5155 1254 
Q 5203 1254 5459 1084 
Q 5715 915 5715 870 
Q 5715 826 5549 749 
L 5549 -346 
L 5562 -640 
Q 5562 -691 5504 -736 
Q 5446 -781 5283 -848 
Q 5120 -915 5065 -915 
Q 5011 -915 5011 -826 
L 5011 -435 
L 3712 -435 
L 3712 -755 
Q 3712 -851 3673 -880 
Q 3635 -909 3475 -963 
Q 3315 -1018 3245 -1018 
Q 3206 -1018 3213 -934 
Q 3238 -723 3238 -480 
L 3238 634 
Q 3238 902 3219 1178 
Q 3494 1094 3763 947 
L 4096 947 
L 4096 1907 
L 3162 1907 
Q 3098 864 2794 288 
Q 2490 -288 1715 -998 
L 1626 -922 
Q 2426 -19 2570 925 
Q 2714 1869 2714 3232 
Q 2714 3827 2682 4646 
Q 3066 4518 3302 4378 
z
M 4973 3315 
L 4973 4186 
L 3258 4186 
Q 3258 3981 3232 3315 
L 4973 3315 
z
M 5011 -262 
L 5011 762 
L 3712 762 
L 3712 -262 
L 5011 -262 
z
" transform="scale(0.015625)"/>
      <path id="STZhongsong-7ec4" d="M 1632 2394 
Q 858 2202 531 2029 
Q 493 2010 461 2010 
Q 429 2010 358 2144 
Q 288 2278 179 2528 
Q 365 2605 461 2665 
Q 557 2726 633 2835 
Q 710 2944 892 3318 
Q 1075 3693 1209 4051 
Q 1344 4410 1446 4806 
Q 1798 4653 2000 4534 
Q 2202 4416 2202 4371 
Q 2202 4326 2080 4314 
Q 1978 4294 1856 4102 
Q 1318 3213 800 2573 
L 1754 2611 
Q 1990 3059 2182 3590 
Q 2790 3174 2790 3078 
Q 2790 3027 2707 3014 
Q 2624 3002 2573 2957 
Q 2522 2912 2413 2758 
Q 1958 2131 1274 1338 
L 2758 1357 
L 2752 1197 
Q 2016 1062 1536 944 
Q 1056 826 909 710 
Q 858 666 813 666 
Q 768 666 736 762 
L 531 1235 
Q 730 1254 829 1302 
Q 928 1350 1005 1443 
Q 1082 1536 1283 1833 
Q 1485 2131 1632 2394 
z
M 3590 4237 
L 4723 4237 
L 4845 4467 
Q 4890 4538 4954 4538 
Q 5018 4538 5312 4365 
Q 5606 4192 5606 4131 
Q 5606 4070 5350 3930 
L 5350 -320 
L 5382 -320 
L 5594 19 
Q 5638 90 5699 90 
Q 5760 90 5987 -137 
Q 6214 -365 6214 -435 
Q 6214 -486 6035 -486 
L 2189 -486 
Q 2016 -486 1920 -531 
L 1805 -288 
Q 1939 -320 2125 -320 
L 2950 -320 
L 2950 3750 
Q 2950 4243 2931 4538 
Q 3283 4422 3590 4237 
z
M 4787 2816 
L 4787 4038 
L 3494 4038 
L 3494 2816 
L 4787 2816 
z
M 4787 1382 
L 4787 2618 
L 3494 2618 
L 3494 1382 
L 4787 1382 
z
M 4787 -320 
L 4787 1171 
L 3494 1171 
L 3494 -320 
L 4787 -320 
z
M 2803 365 
L 1613 -128 
Q 1018 -365 819 -512 
Q 755 -557 723 -557 
Q 646 -557 307 102 
Q 1472 218 2778 480 
L 2803 365 
z
" transform="scale(0.015625)"/>
      <path id="STZhongsong-7ec7" d="M 1658 2426 
Q 954 2298 784 2234 
Q 614 2170 585 2170 
Q 557 2170 531 2198 
Q 506 2227 429 2384 
Q 352 2541 307 2669 
Q 493 2707 569 2768 
Q 646 2829 812 3145 
Q 979 3462 1184 3948 
Q 1389 4435 1555 4934 
Q 2221 4538 2221 4448 
Q 2221 4410 2125 4381 
Q 2029 4352 1984 4307 
Q 1939 4262 1882 4173 
L 896 2669 
L 1805 2688 
Q 2022 3066 2291 3603 
Q 2483 3456 2636 3321 
Q 2790 3187 2816 3152 
Q 2842 3117 2842 3078 
Q 2842 3040 2749 3021 
Q 2656 3002 2605 2973 
Q 2554 2944 2326 2617 
Q 2099 2291 1881 2012 
Q 1664 1734 1261 1293 
L 2675 1440 
L 2682 1293 
Q 1811 1101 1449 989 
Q 1088 877 979 809 
Q 870 742 838 742 
Q 806 742 784 793 
Q 762 845 602 1286 
Q 813 1318 969 1430 
Q 1126 1542 1286 1811 
L 1658 2426 
z
M 3616 4173 
L 4774 4173 
L 4928 4410 
Q 4973 4480 5014 4480 
Q 5056 4480 5347 4281 
Q 5638 4083 5638 4028 
Q 5638 3974 5376 3821 
L 5376 1997 
Q 5376 1862 5382 1760 
L 5395 1581 
Q 5395 1523 5340 1484 
Q 5286 1446 5100 1388 
Q 4915 1331 4838 1331 
Q 4806 1331 4806 1395 
L 4806 1811 
L 3501 1811 
L 3501 1536 
Q 3501 1466 3481 1446 
Q 3462 1427 3257 1366 
Q 3053 1306 2963 1306 
Q 2931 1306 2931 1363 
L 2938 1600 
Q 2944 1709 2944 1837 
L 2944 3898 
Q 2944 4179 2925 4486 
Q 3290 4346 3616 4173 
z
M 4806 2048 
L 4806 3955 
L 3501 3955 
L 3501 2048 
L 4806 2048 
z
M 4397 1312 
Q 5171 851 5558 457 
Q 5946 64 5946 -211 
Q 5946 -326 5837 -560 
Q 5728 -794 5536 -794 
Q 5446 -794 5411 -749 
Q 5376 -704 5325 -525 
Q 5152 77 4918 457 
Q 4685 838 4326 1216 
L 4397 1312 
z
M 3533 1254 
Q 4141 838 4141 755 
Q 4141 710 4035 694 
Q 3930 678 3878 649 
Q 3827 621 3718 525 
Q 2970 -128 2602 -381 
Q 2234 -634 1683 -947 
L 1606 -838 
Q 2438 -147 2796 253 
Q 3155 653 3533 1254 
z
M 2758 474 
L 1466 -83 
Q 1203 -192 985 -304 
Q 768 -416 720 -457 
Q 672 -499 646 -499 
Q 621 -499 598 -476 
Q 576 -454 454 -278 
Q 333 -102 224 96 
Q 947 192 2714 614 
L 2758 474 
z
" transform="scale(0.015625)"/>
      <path id="STZhongsong-5f62" d="M 5331 4768 
Q 5894 4294 5894 4211 
Q 5894 4173 5785 4166 
Q 5677 4160 5632 4141 
Q 5587 4122 5530 4064 
Q 5011 3558 4611 3289 
Q 4211 3021 3738 2797 
L 3654 2893 
Q 4730 3706 5331 4768 
z
M 1894 2163 
Q 1862 1171 1769 697 
Q 1677 224 1437 -118 
Q 1197 -461 486 -1069 
L 397 -960 
Q 902 -429 1142 153 
Q 1382 736 1395 2163 
L 608 2163 
Q 467 2163 365 2125 
L 262 2381 
Q 390 2355 550 2355 
L 1395 2355 
Q 1414 3136 1414 3481 
Q 1414 3827 1408 4070 
L 838 4070 
Q 698 4070 595 4032 
L 493 4294 
Q 621 4269 781 4269 
L 3206 4269 
L 3443 4608 
Q 3494 4678 3533 4678 
Q 3610 4678 3872 4438 
Q 4134 4198 4134 4134 
Q 4134 4070 4019 4070 
L 3162 4070 
L 3162 2355 
L 3328 2355 
L 3546 2643 
Q 3610 2726 3648 2726 
Q 3718 2726 3977 2496 
Q 4237 2266 4237 2214 
Q 4237 2163 4096 2163 
L 3162 2163 
L 3162 186 
L 3174 -352 
Q 3174 -442 3129 -480 
Q 3085 -518 2928 -572 
Q 2771 -627 2682 -627 
Q 2624 -627 2624 -531 
L 2624 2163 
L 1894 2163 
z
M 1926 4070 
Q 1933 3322 1901 2355 
L 2624 2355 
L 2624 4070 
L 1926 4070 
z
M 5466 2899 
L 5754 2592 
Q 5907 2426 5923 2403 
Q 5939 2381 5939 2349 
Q 5939 2285 5849 2285 
Q 5760 2285 5702 2259 
Q 5645 2234 5542 2150 
Q 5075 1754 4627 1507 
Q 4179 1261 3578 1056 
L 3539 1165 
Q 4774 1830 5466 2899 
z
M 5728 1376 
Q 5907 1210 6054 1056 
Q 6202 902 6221 870 
Q 6240 838 6240 806 
Q 6240 774 6217 758 
Q 6195 742 6163 749 
L 6099 749 
Q 5990 749 5869 640 
Q 5082 -128 4266 -518 
Q 3450 -909 2368 -1101 
L 2336 -979 
Q 4384 -358 5728 1376 
z
" transform="scale(0.015625)"/>
      <path id="STZhongsong-5f0f" d="M 3379 3200 
L 813 3200 
Q 640 3200 544 3155 
L 429 3456 
Q 563 3424 749 3424 
L 3366 3424 
L 3347 3866 
Q 3315 4448 3270 4954 
Q 4077 4762 4077 4685 
Q 4077 4634 3891 4499 
Q 3878 3859 3898 3424 
L 5075 3424 
L 5357 3853 
Q 5408 3930 5443 3930 
Q 5478 3930 5561 3862 
Q 5645 3795 5805 3638 
Q 5965 3482 6041 3392 
Q 6118 3302 6118 3251 
Q 6118 3200 6022 3200 
L 3904 3200 
Q 3955 1933 4211 1254 
Q 4467 576 4915 195 
Q 5363 -186 5478 -186 
Q 5530 -186 5562 -122 
Q 5594 -58 5664 198 
Q 5734 454 5843 954 
L 5971 934 
Q 5933 390 5933 96 
Q 5933 -198 5971 -348 
Q 6010 -499 6096 -636 
Q 6182 -774 6182 -864 
Q 6182 -954 6022 -954 
Q 5651 -954 5123 -640 
Q 4595 -326 4208 208 
Q 3821 742 3629 1488 
Q 3437 2234 3379 3200 
z
M 4122 4678 
Q 5165 4474 5165 4038 
Q 5165 3878 5069 3737 
Q 4973 3597 4864 3597 
Q 4806 3597 4771 3641 
Q 4736 3686 4678 3802 
Q 4480 4230 4064 4570 
L 4122 4678 
z
M 1709 2016 
L 1011 2016 
Q 838 2016 742 1971 
L 627 2259 
Q 762 2227 947 2227 
L 2509 2227 
L 2714 2528 
Q 2765 2598 2816 2598 
Q 2867 2598 2992 2467 
Q 3117 2336 3235 2221 
Q 3354 2106 3354 2061 
Q 3354 2016 3264 2016 
L 2272 2016 
L 2272 416 
L 3565 749 
L 3610 608 
L 1728 -205 
Q 1165 -448 832 -640 
Q 781 -666 762 -666 
Q 742 -666 726 -646 
Q 710 -627 595 -400 
Q 480 -173 403 -6 
Q 966 102 1709 275 
L 1709 2016 
z
" transform="scale(0.015625)"/>
      <path id="STZhongsong-ff1a" d="M 1587 2662 
Q 1754 2662 1875 2540 
Q 1997 2419 1997 2252 
Q 1997 2086 1875 1964 
Q 1754 1843 1587 1843 
Q 1421 1843 1299 1964 
Q 1178 2086 1178 2252 
Q 1178 2419 1299 2540 
Q 1421 2662 1587 2662 
z
M 1587 736 
Q 1754 736 1875 614 
Q 1997 493 1997 326 
Q 1997 160 1875 38 
Q 1754 -83 1587 -83 
Q 1421 -83 1299 38 
Q 1178 160 1178 326 
Q 1178 493 1299 614 
Q 1421 736 1587 736 
z
" transform="scale(0.015625)"/>
      <path id="STZhongsong-6f" d="M 256 1504 
Q 256 2208 685 2649 
Q 1114 3091 1811 3091 
Q 2496 3091 2912 2656 
Q 3328 2221 3328 1510 
Q 3328 794 2905 358 
Q 2483 -77 1773 -77 
Q 1075 -77 665 364 
Q 256 806 256 1504 
z
M 2726 1517 
Q 2726 2106 2480 2448 
Q 2234 2790 1786 2790 
Q 1376 2790 1123 2432 
Q 870 2074 870 1485 
Q 870 877 1110 541 
Q 1350 205 1786 205 
Q 2208 205 2467 560 
Q 2726 915 2726 1517 
z
" transform="scale(0.015625)"/>
      <path id="STZhongsong-5f" d="M 0 -480 
L 3200 -480 
L 3200 -800 
L 0 -800 
L 0 -480 
z
" transform="scale(0.015625)"/>
      <path id="STZhongsong-64" d="M 2176 4058 
L 2176 4320 
Q 2573 4346 3008 4582 
L 3245 4582 
L 3245 794 
Q 3245 544 3273 435 
Q 3302 326 3382 294 
Q 3462 262 3654 262 
L 3789 262 
L 3789 0 
L 2701 -51 
L 2701 448 
Q 2144 -77 1568 -77 
Q 1011 -77 633 374 
Q 256 826 256 1472 
Q 256 2150 669 2620 
Q 1082 3091 1690 3091 
Q 2304 3091 2701 2675 
L 2701 4058 
L 2176 4058 
z
M 2701 755 
L 2701 1939 
Q 2701 2355 2422 2553 
Q 2144 2752 1850 2752 
Q 1421 2752 1139 2406 
Q 858 2061 858 1498 
Q 858 960 1114 624 
Q 1370 288 1722 288 
Q 1926 288 2192 413 
Q 2458 538 2701 755 
z
" transform="scale(0.015625)"/>
      <path id="STZhongsong-66" d="M 211 3014 
L 762 3014 
L 762 3347 
Q 762 3872 1040 4227 
Q 1318 4582 1664 4582 
Q 1843 4582 1945 4502 
Q 2048 4422 2048 4288 
Q 2048 4186 1984 4090 
Q 1920 3994 1786 3994 
Q 1690 3994 1568 4038 
Q 1478 4070 1434 4070 
Q 1331 4070 1299 3932 
Q 1267 3795 1267 3482 
L 1267 3014 
L 1869 3014 
L 1869 2694 
L 1267 2694 
L 1267 666 
Q 1267 397 1337 329 
Q 1408 262 1696 262 
L 1824 262 
L 1824 0 
L 211 0 
L 211 262 
L 307 262 
Q 576 262 669 316 
Q 762 371 762 717 
L 762 2694 
L 211 2694 
L 211 3014 
z
" transform="scale(0.015625)"/>
      <path id="STZhongsong-75" d="M 115 3014 
L 1299 3066 
L 1299 1050 
Q 1299 301 1952 301 
Q 2490 301 3149 832 
L 3149 2291 
Q 3149 2592 3053 2672 
Q 2957 2752 2720 2752 
L 2490 2752 
L 2490 3014 
L 3674 3066 
L 3674 730 
Q 3674 467 3744 352 
Q 3814 237 4122 237 
L 4218 237 
L 4218 -26 
L 3181 -77 
L 3181 525 
Q 2784 218 2461 70 
Q 2138 -77 1786 -77 
Q 1318 -77 1043 192 
Q 768 461 768 896 
L 768 2317 
Q 768 2554 691 2653 
Q 614 2752 403 2752 
L 115 2752 
L 115 3014 
z
" transform="scale(0.015625)"/>
     </defs>
     <use xlink:href="#STZhongsong-6570"/>
     <use xlink:href="#STZhongsong-636e" transform="translate(99.999985 0)"/>
     <use xlink:href="#STZhongsong-7ec4" transform="translate(199.999969 0)"/>
     <use xlink:href="#STZhongsong-7ec7" transform="translate(299.999954 0)"/>
     <use xlink:href="#STZhongsong-5f62" transform="translate(399.999939 0)"/>
     <use xlink:href="#STZhongsong-5f0f" transform="translate(499.999924 0)"/>
     <use xlink:href="#STZhongsong-ff1a" transform="translate(599.999908 0)"/>
     <use xlink:href="#STZhongsong-79" transform="translate(699.999893 0)"/>
     <use xlink:href="#STZhongsong-65" transform="translate(753.999878 0)"/>
     <use xlink:href="#STZhongsong-61" transform="translate(805.999863 0)"/>
     <use xlink:href="#STZhongsong-72" transform="translate(863.999847 0)"/>
     <use xlink:href="#STZhongsong-20" transform="translate(907.999832 0)"/>
     <use xlink:href="#STZhongsong-d7" transform="translate(939.999817 0)"/>
     <use xlink:href="#STZhongsong-20" transform="translate(1039.999802 0)"/>
     <use xlink:href="#STZhongsong-72" transform="translate(1071.999786 0)"/>
     <use xlink:href="#STZhongsong-6f" transform="translate(1115.999771 0)"/>
     <use xlink:href="#STZhongsong-77" transform="translate(1171.999756 0)"/>
     <use xlink:href="#STZhongsong-5f" transform="translate(1249.999741 0)"/>
     <use xlink:href="#STZhongsong-69" transform="translate(1299.999725 0)"/>
     <use xlink:href="#STZhongsong-64" transform="translate(1329.99971 0)"/>
     <use xlink:href="#STZhongsong-20" transform="translate(1391.999695 0)"/>
     <use xlink:href="#STZhongsong-d7" transform="translate(1423.99968 0)"/>
     <use xlink:href="#STZhongsong-20" transform="translate(1523.999664 0)"/>
     <use xlink:href="#STZhongsong-63" transform="translate(1555.999649 0)"/>
     <use xlink:href="#STZhongsong-6f" transform="translate(1607.999634 0)"/>
     <use xlink:href="#STZhongsong-6c" transform="translate(1663.999619 0)"/>
     <use xlink:href="#STZhongsong-5f" transform="translate(1693.999603 0)"/>
     <use xlink:href="#STZhongsong-69" transform="translate(1743.999588 0)"/>
     <use xlink:href="#STZhongsong-64" transform="translate(1773.999573 0)"/>
     <use xlink:href="#STZhongsong-20" transform="translate(1835.999557 0)"/>
     <use xlink:href="#STZhongsong-d7" transform="translate(1867.999542 0)"/>
     <use xlink:href="#STZhongsong-20" transform="translate(1967.999527 0)"/>
     <use xlink:href="#STZhongsong-66" transform="translate(1999.999512 0)"/>
     <use xlink:href="#STZhongsong-65" transform="translate(2031.999496 0)"/>
     <use xlink:href="#STZhongsong-61" transform="translate(2083.999481 0)"/>
     <use xlink:href="#STZhongsong-74" transform="translate(2141.999466 0)"/>
     <use xlink:href="#STZhongsong-75" transform="translate(2179.999451 0)"/>
     <use xlink:href="#STZhongsong-72" transform="translate(2247.999435 0)"/>
     <use xlink:href="#STZhongsong-65" transform="translate(2291.99942 0)"/>
    </g>
   </g>
   <g id="text_10">
    <!-- 时空预测张量组织示意 -->
    <g style="fill: #111111" transform="translate(313.4 24.381719) scale(0.23 -0.23)">
     <defs>
      <path id="STZhongsong-65f6" d="M 5146 3200 
L 5312 3200 
L 5549 3533 
Q 5594 3597 5642 3597 
Q 5690 3597 5926 3341 
Q 6163 3085 6163 3040 
Q 6163 2995 6042 2995 
L 5146 2995 
L 5146 -294 
Q 5146 -499 5117 -608 
Q 5088 -717 4989 -793 
Q 4890 -870 4659 -956 
Q 4429 -1043 4374 -1043 
Q 4320 -1043 4288 -941 
Q 4211 -666 4022 -554 
Q 3834 -442 3501 -346 
L 3520 -218 
Q 4134 -314 4313 -314 
Q 4493 -314 4537 -259 
Q 4582 -205 4582 -58 
L 4582 2995 
L 3136 2995 
Q 2976 2995 2861 2963 
L 2752 3232 
Q 2886 3200 3072 3200 
L 4582 3200 
L 4582 4243 
Q 4582 4595 4570 4922 
Q 4749 4883 5049 4806 
Q 5350 4730 5392 4704 
Q 5434 4678 5434 4653 
Q 5434 4576 5146 4429 
L 5146 3200 
z
M 1306 4045 
L 2061 4045 
L 2208 4301 
Q 2246 4365 2298 4365 
Q 2336 4365 2518 4253 
Q 2701 4141 2809 4057 
Q 2918 3974 2918 3929 
Q 2918 3885 2669 3757 
L 2669 717 
L 2682 141 
Q 2682 64 2669 48 
Q 2656 32 2544 -29 
Q 2432 -90 2310 -128 
Q 2189 -166 2160 -166 
Q 2131 -166 2131 -90 
L 2131 454 
L 1190 454 
L 1190 -166 
Q 1190 -224 1177 -246 
Q 1165 -269 1065 -323 
Q 966 -378 832 -422 
Q 698 -467 669 -467 
Q 640 -467 646 -410 
Q 678 -96 678 230 
L 678 3859 
Q 678 4128 659 4403 
Q 1082 4218 1306 4045 
z
M 2131 2304 
L 2131 3846 
L 1190 3846 
L 1190 2304 
L 2131 2304 
z
M 2131 653 
L 2131 2106 
L 1190 2106 
L 1190 653 
L 2131 653 
z
M 3181 2528 
Q 3603 2227 3827 1984 
Q 4051 1741 4051 1536 
Q 4051 1331 3916 1171 
Q 3782 1011 3629 1011 
Q 3488 1011 3469 1229 
Q 3418 1965 3098 2458 
L 3181 2528 
z
" transform="scale(0.015625)"/>
      <path id="STZhongsong-7a7a" d="M 2438 4909 
Q 2970 4813 3235 4697 
Q 3501 4582 3501 4422 
Q 3501 4262 3379 4076 
Q 3258 3891 3078 3891 
Q 3008 3891 2970 4026 
Q 2848 4454 2387 4806 
L 2438 4909 
z
M 1325 3878 
L 5018 3878 
L 5242 4186 
Q 5280 4237 5309 4237 
Q 5338 4237 5504 4134 
Q 5670 4032 5856 3888 
Q 6042 3744 6077 3702 
Q 6112 3661 6112 3629 
Q 6112 3597 6083 3584 
Q 6054 3571 5952 3571 
Q 5715 3571 5500 3436 
Q 5286 3302 4909 2906 
L 4800 2963 
L 5011 3693 
L 1344 3693 
Q 1370 3245 1181 2989 
Q 992 2733 742 2733 
Q 602 2733 515 2803 
Q 429 2874 429 2950 
Q 429 3027 557 3149 
Q 890 3456 982 3702 
Q 1075 3949 1094 4301 
L 1242 4301 
Q 1293 4102 1325 3878 
z
M 2182 3213 
Q 2470 3072 2640 2957 
Q 2810 2842 2835 2813 
Q 2861 2784 2861 2755 
Q 2861 2726 2829 2713 
Q 2797 2701 2704 2701 
Q 2611 2701 2540 2669 
Q 2470 2637 2355 2554 
Q 1382 1843 518 1414 
L 454 1542 
Q 1382 2189 2182 3213 
z
M 3296 3142 
Q 3981 2976 4393 2848 
Q 4806 2720 5014 2608 
Q 5222 2496 5289 2387 
Q 5357 2278 5357 2092 
Q 5357 1907 5296 1798 
Q 5235 1690 5139 1690 
Q 5069 1690 4922 1869 
Q 4691 2157 4240 2464 
Q 3789 2771 3245 3008 
L 3296 3142 
z
M 2784 1274 
L 1574 1274 
Q 1402 1274 1306 1229 
L 1190 1491 
Q 1325 1459 1510 1459 
L 4141 1459 
L 4454 1837 
Q 4512 1907 4550 1907 
Q 4608 1907 4873 1638 
Q 5139 1370 5139 1322 
Q 5139 1274 5043 1274 
L 3379 1274 
L 3379 -435 
L 4838 -435 
L 5146 -45 
Q 5210 38 5248 38 
Q 5306 38 5616 -243 
Q 5926 -525 5926 -573 
Q 5926 -621 5837 -621 
L 774 -621 
Q 602 -621 506 -666 
L 390 -403 
Q 525 -435 710 -435 
L 2784 -435 
L 2784 1274 
z
" transform="scale(0.015625)"/>
      <path id="STZhongsong-5f20" d="M 3693 2784 
Q 4493 3424 5114 4390 
Q 5434 4192 5616 4041 
Q 5798 3891 5798 3852 
Q 5798 3814 5692 3808 
Q 5587 3802 5510 3763 
Q 5434 3725 5312 3629 
Q 4678 3123 3693 2624 
L 3693 2272 
L 5024 2272 
L 5293 2592 
Q 5363 2682 5414 2682 
Q 5466 2682 5738 2442 
Q 6010 2202 6010 2138 
Q 6010 2074 5818 2074 
L 4307 2074 
Q 4563 1165 5008 630 
Q 5453 96 6221 -262 
L 6214 -365 
Q 5958 -358 5804 -400 
Q 5651 -442 5453 -621 
Q 5408 -659 5382 -659 
Q 5293 -659 4931 -214 
Q 4570 230 4387 768 
Q 4205 1306 4166 2074 
L 3693 2074 
L 3693 -160 
L 4550 224 
L 4602 115 
Q 3622 -646 3462 -954 
Q 3418 -1037 3373 -1037 
Q 3277 -1037 2938 -538 
Q 3162 -262 3162 13 
L 3162 2074 
L 2643 2074 
Q 2470 2074 2374 2029 
L 2259 2304 
Q 2394 2272 2579 2272 
L 3162 2272 
L 3162 4218 
Q 3162 4544 3142 4819 
Q 3942 4653 3942 4538 
Q 3942 4474 3693 4365 
L 3693 2784 
z
M 1312 3072 
L 1933 3072 
L 1933 4192 
L 659 4192 
Q 538 4192 429 4147 
L 262 4403 
Q 416 4390 582 4390 
L 1843 4390 
L 2010 4640 
Q 2067 4723 2128 4723 
Q 2189 4723 2438 4508 
Q 2688 4294 2688 4237 
Q 2688 4179 2470 4109 
L 2470 3475 
Q 2470 3136 2477 3040 
L 2483 2854 
Q 2483 2816 2409 2765 
Q 2336 2714 2179 2650 
Q 2022 2586 1977 2586 
Q 1933 2586 1933 2675 
L 1933 2867 
L 1254 2867 
L 1082 1702 
L 1805 1702 
L 1952 1907 
Q 1997 1971 2035 1971 
Q 2093 1971 2358 1776 
Q 2624 1581 2624 1520 
Q 2624 1459 2400 1350 
Q 2387 1005 2323 419 
Q 2259 -166 2204 -336 
Q 2150 -506 1996 -656 
Q 1843 -806 1606 -908 
Q 1370 -1011 1315 -1011 
Q 1261 -1011 1235 -902 
Q 1190 -704 1036 -579 
Q 883 -454 403 -256 
L 467 -122 
Q 1101 -294 1321 -294 
Q 1542 -294 1622 -185 
Q 1702 -77 1760 323 
Q 1818 723 1869 1517 
L 1120 1517 
L 960 1286 
Q 928 1242 886 1242 
Q 845 1242 691 1322 
Q 538 1402 314 1555 
Q 576 1715 608 1952 
L 730 2886 
Q 768 3123 768 3309 
Q 1075 3200 1312 3072 
z
" transform="scale(0.015625)"/>
      <path id="STZhongsong-793a" d="M 4410 4179 
L 4634 4525 
Q 4685 4614 4755 4614 
Q 4826 4614 5171 4345 
Q 5517 4077 5517 4006 
Q 5517 3936 5370 3936 
L 1427 3936 
Q 1254 3936 1158 3891 
L 1043 4211 
Q 1178 4179 1363 4179 
L 4410 4179 
z
M 3642 2445 
L 3642 -314 
Q 3642 -550 3581 -652 
Q 3520 -755 3219 -896 
Q 2918 -1037 2835 -1037 
Q 2771 -1037 2758 -909 
Q 2746 -768 2694 -678 
Q 2643 -589 2476 -496 
Q 2310 -403 1965 -294 
L 1965 -141 
Q 2637 -237 2797 -237 
Q 2957 -237 2992 -201 
Q 3027 -166 3027 -64 
L 3027 2445 
L 883 2445 
Q 710 2445 614 2400 
L 499 2720 
Q 634 2688 819 2688 
L 5037 2688 
L 5357 3078 
Q 5421 3162 5475 3162 
Q 5530 3162 5642 3072 
Q 5754 2982 5907 2841 
Q 6061 2701 6128 2627 
Q 6195 2554 6195 2499 
Q 6195 2445 6035 2445 
L 3642 2445 
z
M 1818 2067 
Q 2189 1933 2403 1811 
Q 2618 1690 2618 1648 
Q 2618 1606 2515 1577 
Q 2413 1549 2361 1513 
Q 2310 1478 2227 1363 
Q 1786 736 1344 301 
Q 902 -134 262 -614 
L 173 -499 
Q 813 218 1168 778 
Q 1523 1338 1818 2067 
z
M 4128 1888 
Q 4934 1299 5270 1020 
Q 5606 742 5715 560 
Q 5824 378 5824 131 
Q 5824 -115 5712 -278 
Q 5600 -442 5494 -442 
Q 5389 -442 5331 -365 
Q 5274 -288 5158 22 
Q 5043 333 4806 726 
Q 4570 1120 4019 1779 
L 4128 1888 
z
" transform="scale(0.015625)"/>
      <path id="STZhongsong-610f" d="M 3834 3853 
L 1005 3853 
Q 832 3853 736 3808 
L 621 4077 
Q 755 4045 941 4045 
L 2989 4045 
Q 2829 4576 2502 4819 
L 2534 4941 
Q 2950 4896 3228 4797 
Q 3507 4698 3507 4486 
Q 3507 4211 3219 4045 
L 4723 4045 
L 4960 4403 
Q 5011 4474 5062 4474 
Q 5114 4474 5408 4234 
Q 5702 3994 5702 3923 
Q 5702 3853 5562 3853 
L 4045 3853 
Q 4563 3667 4563 3558 
Q 4563 3488 4438 3475 
Q 4314 3462 4189 3376 
Q 4064 3290 3840 3046 
L 5171 3046 
L 5414 3405 
Q 5459 3475 5520 3475 
Q 5581 3475 5878 3222 
Q 6176 2970 6176 2909 
Q 6176 2848 6048 2848 
L 634 2848 
Q 461 2848 365 2803 
L 250 3078 
Q 384 3046 570 3046 
L 2234 3046 
Q 2125 3507 1875 3738 
L 1926 3821 
Q 2720 3699 2720 3379 
Q 2720 3309 2675 3213 
Q 2630 3117 2541 3046 
L 3565 3046 
Q 3731 3411 3834 3853 
z
M 1914 2502 
L 4301 2502 
L 4454 2694 
Q 4493 2746 4534 2746 
Q 4576 2746 4880 2573 
Q 5184 2400 5184 2349 
Q 5184 2285 4922 2138 
L 4922 1651 
Q 4922 1466 4928 1254 
L 4941 1056 
Q 4941 992 4896 960 
Q 4851 928 4697 886 
Q 4544 845 4435 845 
Q 4378 845 4378 890 
L 4378 1011 
L 1875 1011 
Q 1875 941 1846 918 
Q 1818 896 1734 861 
Q 1651 826 1513 797 
Q 1376 768 1341 768 
Q 1306 768 1312 832 
Q 1344 1062 1344 1414 
L 1344 2138 
Q 1344 2413 1325 2682 
Q 1658 2618 1914 2502 
z
M 4378 1869 
L 4378 2310 
L 1875 2310 
L 1875 1869 
L 4378 1869 
z
M 4378 1197 
L 4378 1683 
L 1875 1683 
L 1875 1197 
L 4378 1197 
z
M 2861 928 
Q 3322 845 3533 729 
Q 3744 614 3744 451 
Q 3744 288 3661 144 
Q 3578 0 3440 0 
Q 3302 0 3228 201 
Q 3155 403 3072 531 
Q 2989 659 2803 832 
L 2861 928 
z
M 4499 602 
Q 4499 288 4528 128 
Q 4557 -32 4621 -115 
Q 4685 -198 4819 -282 
Q 4890 -326 4890 -371 
Q 4890 -416 4771 -560 
Q 4653 -704 4480 -758 
Q 4307 -813 3836 -832 
Q 3366 -851 2896 -851 
Q 2426 -851 2205 -812 
Q 1984 -774 1923 -656 
Q 1862 -538 1862 -230 
L 1862 230 
Q 1862 493 1843 755 
Q 2381 653 2457 630 
Q 2534 608 2534 573 
Q 2534 538 2387 448 
L 2387 -166 
Q 2387 -314 2448 -346 
Q 2509 -378 2723 -384 
Q 2938 -390 3421 -390 
Q 3904 -390 4093 -313 
Q 4282 -237 4358 608 
L 4499 602 
z
M 4845 749 
Q 5363 544 5676 336 
Q 5990 128 5990 -93 
Q 5990 -314 5891 -458 
Q 5792 -602 5677 -602 
Q 5606 -602 5552 -544 
Q 5498 -486 5386 -220 
Q 5274 45 5120 253 
Q 4966 461 4774 646 
L 4845 749 
z
M 1229 678 
Q 1280 346 1280 102 
Q 1280 -365 1072 -595 
Q 864 -826 640 -826 
Q 512 -826 406 -749 
Q 301 -672 301 -541 
Q 301 -410 541 -246 
Q 781 -83 902 105 
Q 1024 294 1101 678 
L 1229 678 
z
" transform="scale(0.015625)"/>
     </defs>
     <use xlink:href="#STZhongsong-65f6"/>
     <use xlink:href="#STZhongsong-7a7a" transform="translate(99.999985 0)"/>
     <use xlink:href="#STZhongsong-9884" transform="translate(199.999969 0)"/>
     <use xlink:href="#STZhongsong-6d4b" transform="translate(299.999954 0)"/>
     <use xlink:href="#STZhongsong-5f20" transform="translate(399.999939 0)"/>
     <use xlink:href="#STZhongsong-91cf" transform="translate(499.999924 0)"/>
     <use xlink:href="#STZhongsong-7ec4" transform="translate(599.999908 0)"/>
     <use xlink:href="#STZhongsong-7ec7" transform="translate(699.999893 0)"/>
     <use xlink:href="#STZhongsong-793a" transform="translate(799.999878 0)"/>
     <use xlink:href="#STZhongsong-610f" transform="translate(899.999863 0)"/>
    </g>
   </g>
  </g>
 </g>
 <defs>
  <clipPath id="p48ea24d6fb">
   <rect x="7.2" y="36.381719" width="842.4" height="410.26875"/>
  </clipPath>
 </defs>
</svg>
