<?xml version="1.0" encoding="utf-8" standalone="no"?>
<!DOCTYPE svg PUBLIC "-//W3C//DTD SVG 1.1//EN"
  "http://www.w3.org/Graphics/SVG/1.1/DTD/svg11.dtd">
<svg xmlns:xlink="http://www.w3.org/1999/xlink" width="856.487187pt" height="453.466406pt" viewBox="0 0 856.487187 453.466406" xmlns="http://www.w3.org/2000/svg" version="1.1">
 <metadata>
  <rdf:RDF xmlns:dc="http://purl.org/dc/elements/1.1/" xmlns:cc="http://creativecommons.org/ns#" xmlns:rdf="http://www.w3.org/1999/02/22-rdf-syntax-ns#">
   <cc:Work>
    <dc:type rdf:resource="http://purl.org/dc/dcmitype/StillImage"/>
    <dc:date>2026-06-06T01:21:40.347655</dc:date>
    <dc:format>image/svg+xml</dc:format>
    <dc:creator>
     <cc:Agent>
      <dc:title>Matplotlib v3.10.0, https://matplotlib.org/</dc:title>
     </cc:Agent>
    </dc:creator>
   </cc:Work>
  </rdf:RDF>
 </metadata>
 <defs>
  <style type="text/css">*{stroke-linejoin: round; stroke-linecap: butt}</style>
 </defs>
 <g id="figure_1">
  <g id="patch_1">
   <path d="M -0 453.466406 
L 856.487187 453.466406 
L 856.487187 0 
L -0 0 
z
" style="fill: #ffffff"/>
  </g>
  <g id="axes_1">
   <g id="patch_2">
    <path d="M 52.795938 405.462344 
L 849.287188 405.462344 
L 849.287188 38.802344 
L 52.795938 38.802344 
z
" style="fill: #ffffff"/>
   </g>
   <g id="matplotlib.axis_1">
    <g id="xtick_1">
     <g id="line2d_1">
      <defs>
       <path id="m95e7f2bf13" d="M 0 0 
L 0 3.5 
" style="stroke: #111111; stroke-width: 0.8"/>
      </defs>
      <g>
       <use xlink:href="#m95e7f2bf13" x="169.453747" y="405.462344" style="fill: #111111; stroke: #111111; stroke-width: 0.8"/>
      </g>
     </g>
     <g id="text_1">
      <!-- 2016 -->
      <g style="fill: #111111" transform="translate(150.853747 423.201406) scale(0.15 -0.15)">
       <defs>
        <path id="STZhongsong-32" d="M 723 2714 
L 422 2675 
Q 397 2835 397 2989 
Q 397 3616 832 4025 
Q 1267 4435 1978 4435 
Q 2630 4435 3043 4064 
Q 3456 3693 3456 3098 
Q 3456 2669 3286 2349 
Q 3117 2029 2611 1603 
Q 2106 1178 1037 467 
L 2662 467 
Q 2963 467 3062 544 
Q 3162 621 3200 838 
L 3232 1018 
L 3494 1018 
L 3283 -154 
L 3085 -154 
L 3053 0 
L 320 0 
L 320 262 
L 819 640 
Q 1901 1453 2377 1977 
Q 2854 2502 2854 3066 
Q 2854 3507 2569 3788 
Q 2285 4070 1837 4070 
Q 1325 4070 1017 3753 
Q 710 3437 710 2918 
Q 710 2822 723 2714 
z
" transform="scale(0.015625)"/>
        <path id="STZhongsong-30" d="M 326 2182 
Q 326 3251 774 3843 
Q 1222 4435 1997 4435 
Q 2752 4435 3197 3827 
Q 3642 3219 3642 2144 
Q 3642 1139 3178 531 
Q 2714 -77 1952 -77 
Q 1229 -77 777 524 
Q 326 1126 326 2182 
z
M 3040 2182 
Q 3040 3104 2758 3616 
Q 2477 4128 1978 4128 
Q 1478 4128 1200 3590 
Q 922 3053 922 2118 
Q 922 1229 1210 733 
Q 1498 237 1971 237 
Q 2470 237 2755 752 
Q 3040 1267 3040 2182 
z
" transform="scale(0.015625)"/>
        <path id="STZhongsong-31" d="M 2150 4358 
L 2387 4358 
L 2387 742 
Q 2387 422 2464 342 
Q 2541 262 2822 262 
L 3130 262 
L 3130 0 
L 1069 0 
L 1069 262 
L 1408 262 
Q 1670 262 1766 348 
Q 1862 435 1862 742 
L 1862 3718 
L 1069 3718 
L 1069 3987 
Q 1709 4070 2150 4358 
z
" transform="scale(0.015625)"/>
        <path id="STZhongsong-36" d="M 3238 4442 
L 3238 4154 
Q 2131 4141 1603 3686 
Q 1075 3232 1037 2227 
Q 1446 2893 2240 2893 
Q 2880 2893 3289 2486 
Q 3699 2080 3699 1440 
Q 3699 742 3257 332 
Q 2816 -77 2093 -77 
Q 1286 -77 848 444 
Q 410 966 410 1926 
Q 410 3046 1056 3744 
Q 1702 4442 2995 4442 
L 3238 4442 
z
M 3072 1414 
Q 3072 1933 2800 2246 
Q 2528 2560 2099 2560 
Q 1658 2560 1363 2224 
Q 1069 1888 1069 1402 
Q 1069 890 1350 550 
Q 1632 211 2074 211 
Q 2509 211 2790 544 
Q 3072 877 3072 1414 
z
" transform="scale(0.015625)"/>
       </defs>
       <use xlink:href="#STZhongsong-32"/>
       <use xlink:href="#STZhongsong-30" transform="translate(61.999985 0)"/>
       <use xlink:href="#STZhongsong-31" transform="translate(123.999969 0)"/>
       <use xlink:href="#STZhongsong-36" transform="translate(185.999954 0)"/>
      </g>
     </g>
    </g>
    <g id="xtick_2">
     <g id="line2d_2">
      <g>
       <use xlink:href="#m95e7f2bf13" x="330.36107" y="405.462344" style="fill: #111111; stroke: #111111; stroke-width: 0.8"/>
      </g>
     </g>
     <g id="text_2">
      <!-- 2018 -->
      <g style="fill: #111111" transform="translate(311.76107 423.201406) scale(0.15 -0.15)">
       <defs>
        <path id="STZhongsong-38" d="M 2477 2419 
Q 3021 2208 3315 1923 
Q 3610 1638 3610 1197 
Q 3610 659 3152 291 
Q 2694 -77 1971 -77 
Q 1274 -77 816 272 
Q 358 621 358 1120 
Q 358 1485 633 1779 
Q 909 2074 1440 2259 
Q 1011 2451 800 2691 
Q 589 2931 589 3315 
Q 589 3814 998 4124 
Q 1408 4435 2035 4435 
Q 2618 4435 2998 4134 
Q 3379 3834 3379 3424 
Q 3379 2790 2477 2419 
z
M 2189 2534 
Q 2451 2707 2662 2918 
Q 2874 3130 2874 3418 
Q 2874 3706 2621 3923 
Q 2368 4141 1971 4141 
Q 1594 4141 1331 3926 
Q 1069 3712 1069 3430 
Q 1069 3168 1270 2989 
Q 1472 2810 1824 2675 
L 2189 2534 
z
M 1747 2131 
Q 1325 1939 1088 1670 
Q 851 1402 851 1126 
Q 851 762 1177 490 
Q 1504 218 1984 218 
Q 2438 218 2774 483 
Q 3110 749 3110 1082 
Q 3110 1594 2253 1933 
L 1747 2131 
z
" transform="scale(0.015625)"/>
       </defs>
       <use xlink:href="#STZhongsong-32"/>
       <use xlink:href="#STZhongsong-30" transform="translate(61.999985 0)"/>
       <use xlink:href="#STZhongsong-31" transform="translate(123.999969 0)"/>
       <use xlink:href="#STZhongsong-38" transform="translate(185.999954 0)"/>
      </g>
     </g>
    </g>
    <g id="xtick_3">
     <g id="line2d_3">
      <g>
       <use xlink:href="#m95e7f2bf13" x="491.268393" y="405.462344" style="fill: #111111; stroke: #111111; stroke-width: 0.8"/>
      </g>
     </g>
     <g id="text_3">
      <!-- 2020 -->
      <g style="fill: #111111" transform="translate(472.668393 423.201406) scale(0.15 -0.15)">
       <use xlink:href="#STZhongsong-32"/>
       <use xlink:href="#STZhongsong-30" transform="translate(61.999985 0)"/>
       <use xlink:href="#STZhongsong-32" transform="translate(123.999969 0)"/>
       <use xlink:href="#STZhongsong-30" transform="translate(185.999954 0)"/>
      </g>
     </g>
    </g>
    <g id="xtick_4">
     <g id="line2d_4">
      <g>
       <use xlink:href="#m95e7f2bf13" x="652.175717" y="405.462344" style="fill: #111111; stroke: #111111; stroke-width: 0.8"/>
      </g>
     </g>
     <g id="text_4">
      <!-- 2022 -->
      <g style="fill: #111111" transform="translate(633.575717 423.201406) scale(0.15 -0.15)">
       <use xlink:href="#STZhongsong-32"/>
       <use xlink:href="#STZhongsong-30" transform="translate(61.999985 0)"/>
       <use xlink:href="#STZhongsong-32" transform="translate(123.999969 0)"/>
       <use xlink:href="#STZhongsong-32" transform="translate(185.999954 0)"/>
      </g>
     </g>
    </g>
    <g id="xtick_5">
     <g id="line2d_5">
      <g>
       <use xlink:href="#m95e7f2bf13" x="813.08304" y="405.462344" style="fill: #111111; stroke: #111111; stroke-width: 0.8"/>
      </g>
     </g>
     <g id="text_5">
      <!-- 2024 -->
      <g style="fill: #111111" transform="translate(794.48304 423.201406) scale(0.15 -0.15)">
       <defs>
        <path id="STZhongsong-34" d="M 3494 1242 
L 2906 1242 
L 2906 518 
Q 2906 275 3213 250 
L 3213 45 
L 1882 45 
L 1882 250 
Q 2054 262 2156 336 
Q 2259 410 2259 518 
L 2259 1242 
L 550 1242 
L 550 1658 
L 2483 4365 
L 2906 4365 
L 2906 1581 
L 3494 1581 
L 3494 1242 
z
M 2259 1581 
L 2259 3462 
L 902 1581 
L 2259 1581 
z
" transform="scale(0.015625)"/>
       </defs>
       <use xlink:href="#STZhongsong-32"/>
       <use xlink:href="#STZhongsong-30" transform="translate(61.999985 0)"/>
       <use xlink:href="#STZhongsong-32" transform="translate(123.999969 0)"/>
       <use xlink:href="#STZhongsong-34" transform="translate(185.999954 0)"/>
      </g>
     </g>
    </g>
    <g id="text_6">
     <!-- 年份 -->
     <g style="fill: #111111" transform="translate(434.041563 442.866406) scale(0.17 -0.17)">
      <defs>
       <path id="STZhongsong-5e74" d="M 1939 3827 
L 4794 3827 
L 5082 4237 
Q 5133 4314 5171 4314 
Q 5210 4314 5328 4224 
Q 5446 4134 5612 3993 
Q 5779 3853 5840 3789 
Q 5901 3725 5901 3686 
Q 5901 3616 5811 3616 
L 3744 3616 
L 3744 2496 
L 4474 2496 
L 4736 2874 
Q 4787 2938 4822 2938 
Q 4858 2938 4970 2858 
Q 5082 2778 5232 2643 
Q 5382 2509 5414 2461 
Q 5446 2413 5446 2368 
Q 5446 2272 5350 2272 
L 3744 2272 
L 3744 1043 
L 5254 1043 
L 5542 1427 
Q 5587 1485 5654 1485 
Q 5722 1485 6013 1213 
Q 6304 941 6304 883 
Q 6304 826 6195 826 
L 3744 826 
Q 3744 19 3750 -294 
L 3763 -864 
Q 3763 -909 3731 -941 
Q 3699 -973 3475 -1056 
Q 3251 -1139 3203 -1139 
Q 3155 -1139 3155 -1037 
L 3168 -390 
Q 3174 -38 3174 826 
L 653 826 
Q 480 826 384 781 
L 269 1075 
Q 403 1043 589 1043 
L 1498 1043 
L 1498 2170 
Q 1498 2643 1485 2739 
Q 1856 2630 2138 2496 
L 3174 2496 
L 3174 3616 
L 1798 3616 
Q 1440 3046 1136 2713 
Q 832 2381 339 1984 
L 243 2086 
Q 1261 3174 1741 4909 
Q 2259 4704 2400 4611 
Q 2541 4518 2541 4457 
Q 2541 4397 2435 4384 
Q 2330 4371 2253 4288 
Q 2176 4205 1939 3827 
z
M 3174 2272 
L 2054 2272 
L 2054 1043 
L 3174 1043 
L 3174 2272 
z
" transform="scale(0.015625)"/>
       <path id="STZhongsong-4efd" d="M 1190 2470 
Q 736 1830 237 1389 
L 141 1472 
Q 1158 2701 1702 4838 
Q 1894 4768 2115 4672 
Q 2336 4576 2374 4544 
Q 2413 4512 2413 4477 
Q 2413 4442 2326 4419 
Q 2240 4397 2205 4345 
Q 2170 4294 2099 4115 
Q 1888 3578 1530 2982 
Q 1837 2912 1837 2842 
Q 1837 2803 1709 2720 
L 1709 -806 
Q 1709 -883 1670 -928 
Q 1632 -973 1453 -1049 
Q 1274 -1126 1219 -1126 
Q 1165 -1126 1165 -1056 
L 1178 -563 
Q 1190 -262 1190 70 
L 1190 2470 
z
M 6272 2355 
L 6259 2227 
Q 6170 2240 6099 2240 
Q 5786 2240 5658 1971 
Q 5638 1926 5587 1926 
Q 5408 1926 4813 2630 
Q 4218 3334 4102 4806 
Q 4742 4742 4742 4627 
Q 4742 4589 4672 4570 
Q 4467 4518 4467 4323 
Q 4467 4128 4636 3712 
Q 4806 3296 5209 2925 
Q 5613 2554 6272 2355 
z
M 3174 4506 
Q 3635 4346 3753 4285 
Q 3872 4224 3872 4182 
Q 3872 4141 3753 4105 
Q 3635 4070 3546 3834 
Q 3034 2477 1888 1421 
L 1798 1491 
Q 2765 2810 3174 4506 
z
M 3232 1920 
L 3072 1920 
Q 2906 1920 2803 1875 
L 2662 2157 
Q 2797 2125 2982 2125 
L 4461 2125 
L 4614 2330 
Q 4659 2381 4704 2381 
Q 4749 2381 4937 2246 
Q 5126 2112 5212 2041 
Q 5299 1971 5299 1920 
Q 5299 1869 5139 1760 
Q 5114 1011 5066 432 
Q 5018 -147 4966 -355 
Q 4915 -563 4796 -700 
Q 4678 -838 4451 -944 
Q 4224 -1050 4169 -1050 
Q 4115 -1050 4090 -966 
Q 4038 -774 3856 -640 
Q 3674 -506 3328 -378 
L 3373 -243 
Q 3910 -384 4076 -384 
Q 4243 -384 4307 -326 
Q 4371 -269 4432 -73 
Q 4493 122 4528 541 
Q 4563 960 4576 1920 
L 3782 1920 
Q 3738 730 3389 125 
Q 3040 -480 1946 -1094 
L 1869 -1011 
Q 2669 -358 2934 237 
Q 3200 832 3232 1920 
z
" transform="scale(0.015625)"/>
      </defs>
      <use xlink:href="#STZhongsong-5e74"/>
      <use xlink:href="#STZhongsong-4efd" transform="translate(99.999985 0)"/>
     </g>
    </g>
   </g>
   <g id="matplotlib.axis_2">
    <g id="ytick_1">
     <g id="line2d_6">
      <path d="M 52.795938 366.942634 
L 849.287188 366.942634 
" clip-path="url(#p7539343c66)" style="fill: none; stroke: #ececec; stroke-width: 0.9; stroke-linecap: square"/>
     </g>
     <g id="line2d_7">
      <defs>
       <path id="m62fcec500e" d="M 0 0 
L -3.5 0 
" style="stroke: #111111; stroke-width: 0.8"/>
      </defs>
      <g>
       <use xlink:href="#m62fcec500e" x="52.795938" y="366.942634" style="fill: #111111; stroke: #111111; stroke-width: 0.8"/>
      </g>
     </g>
     <g id="text_7">
      <!-- 2 -->
      <g style="fill: #111111" transform="translate(36.495938 372.312166) scale(0.15 -0.15)">
       <use xlink:href="#STZhongsong-32"/>
      </g>
     </g>
    </g>
    <g id="ytick_2">
     <g id="line2d_8">
      <path d="M 52.795938 297.621368 
L 849.287188 297.621368 
" clip-path="url(#p7539343c66)" style="fill: none; stroke: #ececec; stroke-width: 0.9; stroke-linecap: square"/>
     </g>
     <g id="line2d_9">
      <g>
       <use xlink:href="#m62fcec500e" x="52.795938" y="297.621368" style="fill: #111111; stroke: #111111; stroke-width: 0.8"/>
      </g>
     </g>
     <g id="text_8">
      <!-- 4 -->
      <g style="fill: #111111" transform="translate(36.495938 302.990899) scale(0.15 -0.15)">
       <use xlink:href="#STZhongsong-34"/>
      </g>
     </g>
    </g>
    <g id="ytick_3">
     <g id="line2d_10">
      <path d="M 52.795938 228.300102 
L 849.287188 228.300102 
" clip-path="url(#p7539343c66)" style="fill: none; stroke: #ececec; stroke-width: 0.9; stroke-linecap: square"/>
     </g>
     <g id="line2d_11">
      <g>
       <use xlink:href="#m62fcec500e" x="52.795938" y="228.300102" style="fill: #111111; stroke: #111111; stroke-width: 0.8"/>
      </g>
     </g>
     <g id="text_9">
      <!-- 6 -->
      <g style="fill: #111111" transform="translate(36.495938 233.669633) scale(0.15 -0.15)">
       <use xlink:href="#STZhongsong-36"/>
      </g>
     </g>
    </g>
    <g id="ytick_4">
     <g id="line2d_12">
      <path d="M 52.795938 158.978836 
L 849.287188 158.978836 
" clip-path="url(#p7539343c66)" style="fill: none; stroke: #ececec; stroke-width: 0.9; stroke-linecap: square"/>
     </g>
     <g id="line2d_13">
      <g>
       <use xlink:href="#m62fcec500e" x="52.795938" y="158.978836" style="fill: #111111; stroke: #111111; stroke-width: 0.8"/>
      </g>
     </g>
     <g id="text_10">
      <!-- 8 -->
      <g style="fill: #111111" transform="translate(36.495938 164.348367) scale(0.15 -0.15)">
       <use xlink:href="#STZhongsong-38"/>
      </g>
     </g>
    </g>
    <g id="ytick_5">
     <g id="line2d_14">
      <path d="M 52.795938 89.657569 
L 849.287188 89.657569 
" clip-path="url(#p7539343c66)" style="fill: none; stroke: #ececec; stroke-width: 0.9; stroke-linecap: square"/>
     </g>
     <g id="line2d_15">
      <g>
       <use xlink:href="#m62fcec500e" x="52.795938" y="89.657569" style="fill: #111111; stroke: #111111; stroke-width: 0.8"/>
      </g>
     </g>
     <g id="text_11">
      <!-- 10 -->
      <g style="fill: #111111" transform="translate(27.195938 95.0271) scale(0.15 -0.15)">
       <use xlink:href="#STZhongsong-31"/>
       <use xlink:href="#STZhongsong-30" transform="translate(61.999985 0)"/>
      </g>
     </g>
    </g>
    <g id="text_12">
     <!-- 非零格网比例（%） -->
     <g style="fill: #111111" transform="translate(19.795938 297.782344) rotate(-90) scale(0.17 -0.17)">
      <defs>
       <path id="STZhongsong-975e" d="M 2278 3315 
L 838 3315 
Q 666 3315 570 3270 
L 454 3558 
Q 589 3526 774 3526 
L 2278 3526 
L 2278 4307 
Q 2278 4627 2266 4877 
Q 2605 4774 2781 4704 
Q 2957 4634 3008 4611 
Q 3059 4589 3059 4557 
Q 3059 4512 2842 4390 
L 2842 -749 
Q 2842 -838 2787 -883 
Q 2733 -928 2569 -985 
Q 2406 -1043 2317 -1043 
Q 2259 -1043 2259 -966 
L 2266 -717 
Q 2278 -461 2278 -134 
L 2278 774 
L 819 774 
Q 646 774 550 730 
L 435 998 
Q 570 966 755 966 
L 2278 966 
L 2278 2106 
L 1082 2106 
Q 909 2106 813 2061 
L 698 2323 
Q 832 2291 1018 2291 
L 2278 2291 
L 2278 3315 
z
M 4173 3546 
L 4947 3546 
L 5267 3955 
Q 5338 4045 5376 4045 
Q 5453 4045 5741 3785 
Q 6029 3526 6029 3436 
Q 6029 3347 5888 3347 
L 4173 3347 
L 4173 2304 
L 4832 2304 
L 5082 2637 
Q 5139 2714 5184 2714 
Q 5280 2714 5558 2493 
Q 5837 2272 5837 2182 
Q 5837 2125 5677 2125 
L 4173 2125 
L 4173 928 
L 5088 928 
L 5357 1267 
Q 5427 1350 5488 1350 
Q 5549 1350 5833 1107 
Q 6118 864 6118 800 
Q 6118 736 5952 736 
L 4173 736 
L 4173 -115 
L 4186 -774 
Q 4186 -870 4147 -899 
Q 4109 -928 3917 -982 
Q 3725 -1037 3661 -1037 
Q 3610 -1037 3610 -922 
L 3610 4282 
Q 3610 4602 3597 4851 
Q 4070 4717 4236 4637 
Q 4403 4557 4403 4518 
Q 4403 4467 4173 4333 
L 4173 3546 
z
" transform="scale(0.015625)"/>
       <path id="STZhongsong-96f6" d="M 2982 4256 
L 1619 4256 
Q 1446 4256 1350 4211 
L 1235 4474 
Q 1370 4442 1555 4442 
L 4538 4442 
L 4845 4819 
Q 4890 4877 4922 4877 
Q 4986 4877 5302 4605 
Q 5619 4333 5619 4288 
Q 5619 4256 5491 4256 
L 3533 4256 
L 3533 3789 
L 5318 3789 
L 5466 3942 
Q 5510 3987 5542 3987 
Q 5606 3987 5900 3683 
Q 6195 3379 6195 3289 
Q 6195 3200 6035 3200 
Q 5754 3200 5584 3126 
Q 5414 3053 5165 2810 
L 5050 2854 
Q 5229 3258 5325 3616 
L 3533 3616 
Q 3533 3270 3542 3078 
Q 3552 2886 3552 2874 
Q 3552 2739 3110 2598 
Q 3277 2490 3488 2406 
Q 3603 2355 3603 2313 
Q 3603 2272 3469 2240 
Q 4499 1395 6195 1293 
L 6208 1101 
Q 5939 1094 5772 1017 
Q 5606 941 5536 723 
Q 5510 659 5434 659 
Q 5280 659 4553 1075 
Q 3827 1491 3315 2189 
Q 2976 1907 2746 1709 
Q 3270 1574 3459 1459 
Q 3648 1344 3648 1187 
Q 3648 1030 3571 921 
Q 3494 813 3408 813 
Q 3322 813 3290 835 
Q 3258 858 3149 1050 
Q 3040 1242 2931 1370 
Q 2822 1498 2630 1613 
Q 2150 1222 1628 960 
Q 1107 698 320 454 
L 275 621 
Q 1101 979 1661 1411 
Q 2221 1843 2957 2682 
Q 2982 3110 2982 3616 
L 1280 3616 
Q 1274 3130 1091 2938 
Q 909 2746 733 2746 
Q 557 2746 454 2810 
Q 352 2874 352 2960 
Q 352 3046 601 3241 
Q 851 3437 947 3581 
Q 1043 3725 1114 4058 
L 1274 4051 
Q 1280 3962 1280 3789 
L 2982 3789 
L 2982 4256 
z
M 2630 3014 
L 1344 3014 
L 1344 3181 
L 2630 3181 
L 2630 3014 
z
M 5018 2982 
L 3878 2982 
L 3878 3174 
L 5018 3174 
L 5018 2982 
z
M 2592 2387 
L 1299 2387 
L 1299 2554 
L 2592 2554 
L 2592 2387 
z
M 5094 2355 
L 3846 2355 
L 3846 2522 
L 5094 2522 
L 5094 2355 
z
M 3238 -45 
Q 3686 288 3930 595 
L 1824 595 
Q 1651 595 1555 550 
L 1453 800 
Q 1587 768 1760 768 
L 3962 768 
L 4237 992 
Q 4275 1024 4307 1024 
Q 4371 1024 4646 761 
Q 4922 499 4922 451 
Q 4922 403 4730 396 
Q 4538 390 4454 364 
Q 4371 339 4064 204 
Q 3757 70 3514 -115 
Q 4186 -307 4186 -768 
Q 4186 -915 4134 -1004 
Q 4083 -1094 3987 -1094 
Q 3891 -1094 3712 -934 
Q 3258 -518 2928 -348 
Q 2598 -179 1792 58 
L 1818 147 
Q 2861 45 3238 -45 
z
" transform="scale(0.015625)"/>
       <path id="STZhongsong-683c" d="M 1722 3334 
L 1869 3334 
L 2029 3571 
Q 2093 3667 2147 3667 
Q 2202 3667 2429 3449 
Q 2656 3232 2656 3171 
Q 2656 3110 2522 3110 
L 1722 3110 
L 1722 2573 
Q 2112 2445 2320 2281 
Q 2528 2118 2528 1875 
Q 2528 1760 2413 1638 
Q 2298 1517 2208 1517 
Q 2118 1517 2083 1542 
Q 2048 1568 2022 1709 
Q 1933 2182 1722 2394 
L 1722 -691 
Q 1722 -755 1706 -771 
Q 1690 -787 1597 -844 
Q 1504 -902 1363 -960 
Q 1222 -1018 1200 -1018 
Q 1178 -1018 1178 -960 
L 1190 -691 
Q 1203 -371 1203 -90 
L 1203 1971 
Q 1037 1562 825 1242 
Q 614 922 192 467 
L 102 538 
Q 749 1594 1094 3110 
L 570 3110 
Q 403 3110 294 3078 
L 186 3366 
Q 320 3334 506 3334 
L 1203 3334 
L 1203 4134 
Q 1203 4557 1184 4864 
Q 1965 4685 1965 4614 
Q 1965 4570 1722 4429 
L 1722 3334 
z
M 3341 3398 
Q 2995 2848 2464 2298 
L 2362 2362 
Q 2771 2995 2992 3516 
Q 3213 4038 3373 4806 
Q 3814 4666 3932 4602 
Q 4051 4538 4051 4499 
Q 4051 4461 3955 4416 
Q 3859 4371 3744 4137 
Q 3629 3904 3590 3834 
L 4813 3834 
L 4998 4115 
Q 5030 4166 5065 4166 
Q 5101 4166 5254 4060 
Q 5408 3955 5526 3868 
Q 5645 3782 5680 3737 
Q 5715 3693 5715 3648 
Q 5715 3571 5619 3558 
Q 5523 3546 5404 3456 
Q 5286 3366 5190 3219 
Q 4832 2688 4518 2374 
Q 5178 1952 6182 1754 
L 6182 1651 
Q 5869 1606 5773 1548 
Q 5677 1491 5613 1338 
Q 5587 1267 5520 1267 
Q 5453 1267 4960 1513 
Q 4467 1760 4147 2035 
Q 3725 1702 3034 1376 
Q 3251 1306 3456 1203 
L 4678 1203 
L 4781 1382 
Q 4813 1440 4880 1440 
Q 4947 1440 5190 1289 
Q 5434 1139 5434 1062 
Q 5434 986 5248 922 
L 5248 -186 
Q 5248 -365 5254 -493 
L 5261 -691 
Q 5261 -730 5197 -771 
Q 5133 -813 4973 -873 
Q 4813 -934 4755 -934 
Q 4717 -934 4717 -870 
L 4717 -390 
L 3443 -390 
L 3443 -813 
Q 3443 -877 3424 -896 
Q 3405 -915 3222 -979 
Q 3040 -1043 2963 -1043 
Q 2938 -1043 2938 -992 
L 2944 -755 
Q 2950 -646 2950 -454 
L 2950 794 
Q 2950 1165 2938 1331 
Q 2438 1101 2022 941 
L 1971 1037 
Q 3290 1786 3859 2336 
Q 3539 2746 3341 3398 
z
M 3494 3661 
Q 3469 3610 3456 3590 
Q 3750 3002 4160 2650 
Q 4544 3091 4826 3661 
L 3494 3661 
z
M 3443 -198 
L 4717 -198 
L 4717 1011 
L 3443 1011 
L 3443 -198 
z
" transform="scale(0.015625)"/>
       <path id="STZhongsong-7f51" d="M 1542 4320 
L 4992 4320 
L 5158 4614 
Q 5197 4678 5248 4678 
Q 5299 4678 5603 4464 
Q 5907 4250 5907 4179 
Q 5907 4109 5651 4038 
L 5651 -166 
Q 5651 -499 5584 -646 
Q 5517 -794 5245 -928 
Q 4973 -1062 4890 -1062 
Q 4845 -1062 4819 -966 
Q 4742 -685 4588 -576 
Q 4435 -467 3917 -326 
L 3936 -186 
Q 4608 -301 4800 -301 
Q 4992 -301 5037 -230 
Q 5082 -160 5082 32 
L 5082 4134 
L 1498 4134 
L 1498 -736 
Q 1498 -781 1485 -800 
Q 1472 -819 1360 -883 
Q 1248 -947 1110 -995 
Q 973 -1043 941 -1043 
Q 909 -1043 915 -986 
Q 954 -666 954 -166 
L 954 4141 
Q 954 4461 941 4710 
Q 1197 4608 1542 4320 
z
M 2470 2534 
Q 2637 3104 2778 3776 
Q 3053 3654 3206 3558 
Q 3360 3462 3389 3433 
Q 3418 3405 3418 3373 
Q 3418 3315 3334 3289 
Q 3251 3264 3203 3184 
Q 3155 3104 3027 2768 
Q 2899 2432 2765 2144 
Q 3245 1459 3245 992 
Q 3245 813 3126 653 
Q 3008 493 2938 493 
Q 2822 493 2790 723 
Q 2720 1261 2547 1683 
Q 2093 781 1632 262 
L 1542 390 
Q 2029 1126 2349 2118 
Q 2138 2534 1619 3290 
L 1709 3360 
Q 2138 2938 2470 2534 
z
M 4006 2522 
Q 4179 3104 4288 3712 
Q 4960 3354 4960 3238 
Q 4960 3194 4873 3165 
Q 4787 3136 4723 3056 
Q 4659 2976 4550 2688 
Q 4442 2400 4307 2106 
Q 4883 1235 4883 800 
Q 4883 646 4787 508 
Q 4691 371 4604 371 
Q 4518 371 4461 576 
Q 4320 1088 4096 1658 
Q 3654 787 3014 102 
L 2938 192 
Q 3494 1005 3885 2150 
Q 3686 2586 3347 3136 
L 3462 3181 
Q 3757 2835 4006 2522 
z
" transform="scale(0.015625)"/>
       <path id="STZhongsong-6bd4" d="M 3789 2112 
Q 4435 2579 5126 3494 
Q 5299 3347 5481 3171 
Q 5664 2995 5693 2956 
Q 5722 2918 5722 2886 
Q 5722 2816 5523 2816 
Q 5325 2816 5056 2611 
Q 4493 2176 3789 1875 
L 3789 51 
Q 3789 -77 3808 -134 
Q 3827 -192 3875 -214 
Q 3923 -237 4102 -249 
Q 4282 -262 4499 -262 
Q 4717 -262 4934 -240 
Q 5152 -218 5219 -186 
Q 5286 -154 5334 -38 
Q 5382 77 5427 320 
Q 5472 563 5542 1062 
L 5696 1062 
Q 5690 582 5709 377 
Q 5728 173 5779 89 
Q 5830 6 5942 -64 
Q 6054 -134 6054 -192 
Q 6054 -250 5923 -448 
Q 5792 -646 5555 -732 
Q 5318 -819 4643 -819 
Q 3968 -819 3673 -774 
Q 3379 -730 3305 -602 
Q 3232 -474 3232 -90 
L 3232 4000 
Q 3232 4435 3213 4717 
Q 3674 4595 3862 4521 
Q 4051 4448 4051 4390 
Q 4051 4333 3789 4192 
L 3789 2112 
z
M 1568 2618 
L 2150 2618 
L 2426 3002 
Q 2496 3104 2569 3104 
Q 2643 3104 2889 2832 
Q 3136 2560 3136 2486 
Q 3136 2413 2995 2413 
L 1568 2413 
L 1568 141 
Q 2381 493 3085 762 
L 3162 634 
Q 1344 -563 1213 -675 
Q 1082 -787 1046 -787 
Q 1011 -787 953 -675 
Q 896 -563 723 -179 
Q 902 -90 956 -13 
Q 1011 64 1011 186 
L 1011 4083 
Q 1011 4410 992 4685 
Q 1190 4646 1516 4547 
Q 1843 4448 1843 4371 
Q 1843 4314 1568 4154 
L 1568 2618 
z
" transform="scale(0.015625)"/>
       <path id="STZhongsong-4f8b" d="M 1062 2515 
Q 685 1933 237 1446 
L 154 1517 
Q 1139 3014 1581 4928 
Q 2278 4653 2278 4563 
Q 2278 4512 2163 4486 
Q 2093 4474 2032 4368 
Q 1971 4262 1788 3862 
Q 1606 3462 1453 3181 
Q 1517 3155 1603 3094 
Q 1690 3034 1690 2995 
Q 1690 2957 1562 2899 
L 1562 -659 
Q 1562 -755 1526 -796 
Q 1491 -838 1315 -918 
Q 1139 -998 1088 -998 
Q 1037 -998 1037 -928 
L 1050 -422 
Q 1062 -134 1062 192 
L 1062 2515 
z
M 5222 4877 
Q 5504 4806 5705 4723 
Q 5907 4640 5955 4614 
Q 6003 4589 6003 4557 
Q 6003 4512 5786 4384 
L 5786 -250 
Q 5786 -550 5728 -672 
Q 5670 -794 5414 -922 
Q 5158 -1050 5075 -1050 
Q 5024 -1050 5005 -954 
Q 4947 -698 4806 -573 
Q 4666 -448 4243 -301 
L 4256 -179 
Q 4883 -307 5027 -307 
Q 5171 -307 5203 -252 
Q 5235 -198 5235 -45 
L 5235 4307 
Q 5235 4627 5222 4877 
z
M 2938 2970 
L 3398 2970 
L 3571 3219 
Q 3610 3270 3645 3270 
Q 3680 3270 3750 3226 
L 4083 3014 
Q 4173 2957 4173 2902 
Q 4173 2848 4093 2806 
Q 4013 2765 3987 2707 
Q 3962 2650 3936 2522 
Q 3661 1043 3181 316 
Q 2701 -410 1818 -954 
L 1734 -858 
Q 2598 -134 2982 688 
Q 3366 1510 3450 2784 
L 2861 2784 
Q 2726 2451 2618 2240 
Q 2816 2048 2928 1846 
Q 3040 1645 3040 1507 
Q 3040 1370 2960 1200 
Q 2880 1030 2765 1030 
Q 2701 1030 2678 1075 
Q 2656 1120 2649 1430 
Q 2643 1741 2560 2112 
Q 2195 1408 1824 1062 
L 1754 1152 
Q 2432 2278 2778 4006 
L 2541 4006 
Q 2374 4006 2266 3974 
L 2157 4205 
Q 2291 4173 2477 4173 
L 3603 4173 
L 3834 4531 
Q 3885 4602 3945 4602 
Q 4006 4602 4278 4355 
Q 4550 4109 4550 4057 
Q 4550 4006 4410 4006 
L 3091 4006 
Q 3411 3885 3411 3827 
Q 3411 3795 3331 3763 
Q 3251 3731 3206 3667 
Q 3162 3603 3091 3405 
L 2938 2970 
z
M 4256 3757 
Q 4672 3654 4784 3603 
Q 4896 3552 4896 3501 
Q 4896 3450 4730 3392 
L 4730 1254 
L 4742 698 
Q 4742 614 4681 560 
Q 4621 506 4502 451 
Q 4384 397 4301 397 
Q 4250 397 4250 486 
L 4262 749 
Q 4269 1018 4269 1235 
L 4269 3232 
Q 4269 3526 4256 3757 
z
" transform="scale(0.015625)"/>
       <path id="STZhongsong-ff08" d="M 5747 4563 
Q 4781 3258 4781 1997 
Q 4781 1075 5011 480 
Q 5242 -115 5741 -826 
L 5587 -966 
Q 4864 -320 4515 368 
Q 4166 1056 4166 1990 
Q 4166 2688 4537 3395 
Q 4909 4102 5619 4698 
L 5747 4563 
z
" transform="scale(0.015625)"/>
       <path id="STZhongsong-25" d="M 224 3264 
Q 224 3808 502 4121 
Q 781 4435 1248 4435 
Q 1715 4435 1987 4115 
Q 2259 3795 2259 3245 
Q 2259 2714 1974 2400 
Q 1690 2086 1222 2086 
Q 774 2086 499 2406 
Q 224 2726 224 3264 
z
M 1830 3264 
Q 1830 3712 1673 3974 
Q 1517 4237 1242 4237 
Q 966 4237 809 3977 
Q 653 3718 653 3232 
Q 653 2790 813 2537 
Q 973 2285 1229 2285 
Q 1491 2285 1660 2547 
Q 1830 2810 1830 3264 
z
M 4518 4435 
L 1613 -77 
L 1242 -77 
L 4141 4435 
L 4518 4435 
z
M 3501 1101 
Q 3501 1645 3776 1955 
Q 4051 2266 4525 2266 
Q 4998 2266 5267 1949 
Q 5536 1632 5536 1075 
Q 5536 557 5248 240 
Q 4960 -77 4499 -77 
Q 4045 -77 3773 240 
Q 3501 557 3501 1101 
z
M 5101 1094 
Q 5101 1555 4947 1814 
Q 4794 2074 4518 2074 
Q 4250 2074 4090 1811 
Q 3930 1549 3930 1069 
Q 3930 634 4093 381 
Q 4256 128 4506 128 
Q 4787 128 4944 377 
Q 5101 627 5101 1094 
z
" transform="scale(0.015625)"/>
       <path id="STZhongsong-ff09" d="M 819 4787 
Q 1536 4166 1904 3433 
Q 2272 2701 2272 1904 
Q 2272 1107 1881 323 
Q 1491 -461 800 -973 
L 646 -832 
Q 1158 -179 1398 486 
Q 1638 1152 1638 1933 
Q 1638 2714 1382 3421 
Q 1126 4128 646 4653 
L 819 4787 
z
" transform="scale(0.015625)"/>
      </defs>
      <use xlink:href="#STZhongsong-975e"/>
      <use xlink:href="#STZhongsong-96f6" transform="translate(99.999985 0)"/>
      <use xlink:href="#STZhongsong-683c" transform="translate(199.999969 0)"/>
      <use xlink:href="#STZhongsong-7f51" transform="translate(299.999954 0)"/>
      <use xlink:href="#STZhongsong-6bd4" transform="translate(399.999939 0)"/>
      <use xlink:href="#STZhongsong-4f8b" transform="translate(499.999924 0)"/>
      <use xlink:href="#STZhongsong-ff08" transform="translate(599.999908 0)"/>
      <use xlink:href="#STZhongsong-25" transform="translate(699.999893 0)"/>
      <use xlink:href="#STZhongsong-ff09" transform="translate(789.999878 0)"/>
     </g>
    </g>
   </g>
   <g id="line2d_16">
    <path d="M 89.000085 326.300407 
L 169.453747 232.295597 
L 249.907408 140.73701 
L 330.36107 85.172829 
L 410.814732 77.484704 
L 491.268393 84.240935 
L 571.722055 90.53122 
L 652.175717 79.232005 
L 732.629378 62.457913 
L 813.08304 55.468707 
" clip-path="url(#p7539343c66)" style="fill: none; stroke: #4c78a8; stroke-width: 3.1; stroke-linecap: square"/>
    <defs>
     <path id="m8ce62c6d92" d="M 0 4.3 
C 1.140373 4.3 2.234193 3.846925 3.040559 3.040559 
C 3.846925 2.234193 4.3 1.140373 4.3 0 
C 4.3 -1.140373 3.846925 -2.234193 3.040559 -3.040559 
C 2.234193 -3.846925 1.140373 -4.3 0 -4.3 
C -1.140373 -4.3 -2.234193 -3.846925 -3.040559 -3.040559 
C -3.846925 -2.234193 -4.3 -1.140373 -4.3 0 
C -4.3 1.140373 -3.846925 2.234193 -3.040559 3.040559 
C -2.234193 3.846925 -1.140373 4.3 0 4.3 
z
" style="stroke: #4c78a8"/>
    </defs>
    <g clip-path="url(#p7539343c66)">
     <use xlink:href="#m8ce62c6d92" x="89.000085" y="326.300407" style="fill: #4c78a8; stroke: #4c78a8"/>
     <use xlink:href="#m8ce62c6d92" x="169.453747" y="232.295597" style="fill: #4c78a8; stroke: #4c78a8"/>
     <use xlink:href="#m8ce62c6d92" x="249.907408" y="140.73701" style="fill: #4c78a8; stroke: #4c78a8"/>
     <use xlink:href="#m8ce62c6d92" x="330.36107" y="85.172829" style="fill: #4c78a8; stroke: #4c78a8"/>
     <use xlink:href="#m8ce62c6d92" x="410.814732" y="77.484704" style="fill: #4c78a8; stroke: #4c78a8"/>
     <use xlink:href="#m8ce62c6d92" x="491.268393" y="84.240935" style="fill: #4c78a8; stroke: #4c78a8"/>
     <use xlink:href="#m8ce62c6d92" x="571.722055" y="90.53122" style="fill: #4c78a8; stroke: #4c78a8"/>
     <use xlink:href="#m8ce62c6d92" x="652.175717" y="79.232005" style="fill: #4c78a8; stroke: #4c78a8"/>
     <use xlink:href="#m8ce62c6d92" x="732.629378" y="62.457913" style="fill: #4c78a8; stroke: #4c78a8"/>
     <use xlink:href="#m8ce62c6d92" x="813.08304" y="55.468707" style="fill: #4c78a8; stroke: #4c78a8"/>
    </g>
   </g>
   <g id="line2d_17">
    <path d="M 89.000085 388.79598 
L 169.453747 348.216942 
L 249.907408 308.693864 
L 330.36107 284.708485 
L 410.814732 281.389753 
L 491.268393 284.306214 
L 571.722055 287.02154 
L 652.175717 282.14401 
L 732.629378 274.903141 
L 813.08304 271.886112 
" clip-path="url(#p7539343c66)" style="fill: none; stroke: #e15759; stroke-width: 3.1; stroke-linecap: square"/>
    <defs>
     <path id="mef257d4565" d="M -4.3 4.3 
L 4.3 4.3 
L 4.3 -4.3 
L -4.3 -4.3 
z
" style="stroke: #e15759; stroke-linejoin: miter"/>
    </defs>
    <g clip-path="url(#p7539343c66)">
     <use xlink:href="#mef257d4565" x="89.000085" y="388.79598" style="fill: #e15759; stroke: #e15759; stroke-linejoin: miter"/>
     <use xlink:href="#mef257d4565" x="169.453747" y="348.216942" style="fill: #e15759; stroke: #e15759; stroke-linejoin: miter"/>
     <use xlink:href="#mef257d4565" x="249.907408" y="308.693864" style="fill: #e15759; stroke: #e15759; stroke-linejoin: miter"/>
     <use xlink:href="#mef257d4565" x="330.36107" y="284.708485" style="fill: #e15759; stroke: #e15759; stroke-linejoin: miter"/>
     <use xlink:href="#mef257d4565" x="410.814732" y="281.389753" style="fill: #e15759; stroke: #e15759; stroke-linejoin: miter"/>
     <use xlink:href="#mef257d4565" x="491.268393" y="284.306214" style="fill: #e15759; stroke: #e15759; stroke-linejoin: miter"/>
     <use xlink:href="#mef257d4565" x="571.722055" y="287.02154" style="fill: #e15759; stroke: #e15759; stroke-linejoin: miter"/>
     <use xlink:href="#mef257d4565" x="652.175717" y="282.14401" style="fill: #e15759; stroke: #e15759; stroke-linejoin: miter"/>
     <use xlink:href="#mef257d4565" x="732.629378" y="274.903141" style="fill: #e15759; stroke: #e15759; stroke-linejoin: miter"/>
     <use xlink:href="#mef257d4565" x="813.08304" y="271.886112" style="fill: #e15759; stroke: #e15759; stroke-linejoin: miter"/>
    </g>
   </g>
   <g id="patch_3">
    <path d="M 52.795938 405.462344 
L 52.795938 38.802344 
" style="fill: none; stroke: #111111; stroke-width: 1.35; stroke-linejoin: miter; stroke-linecap: square"/>
   </g>
   <g id="patch_4">
    <path d="M 52.795937 405.462344 
L 849.287187 405.462344 
" style="fill: none; stroke: #111111; stroke-width: 1.35; stroke-linejoin: miter; stroke-linecap: square"/>
   </g>
   <g id="text_13">
    <!-- DL格网面板非零格网比例变化 -->
    <g style="fill: #111111" transform="translate(310.341563 22.802344) scale(0.21 -0.21)">
     <defs>
      <path id="STZhongsong-44" d="M 301 4096 
L 301 4358 
L 1862 4358 
Q 2854 4358 3296 4240 
Q 3738 4122 4077 3811 
Q 4416 3501 4601 3062 
Q 4787 2624 4787 2125 
Q 4787 1261 4230 630 
Q 3674 0 2534 0 
L 301 0 
L 301 262 
L 544 262 
Q 717 243 787 352 
Q 858 461 858 704 
L 858 3622 
Q 858 3955 762 4025 
Q 666 4096 301 4096 
z
M 1440 339 
L 2387 339 
Q 2650 339 3098 435 
Q 3546 531 3834 1004 
Q 4122 1478 4122 2170 
Q 4122 2592 3997 2934 
Q 3872 3277 3648 3513 
Q 3424 3750 3152 3868 
Q 2880 3987 2675 4000 
Q 2470 4013 2080 4013 
L 1440 4013 
L 1440 339 
z
" transform="scale(0.015625)"/>
      <path id="STZhongsong-4c" d="M 294 4358 
L 1984 4358 
L 1984 4096 
L 1830 4096 
Q 1619 4096 1523 4035 
Q 1427 3974 1427 3725 
L 1427 685 
Q 1427 429 1475 381 
Q 1523 333 1779 333 
L 2010 333 
Q 2592 333 2928 592 
Q 3264 851 3533 1459 
L 3808 1363 
L 3322 0 
L 294 0 
L 294 262 
L 429 262 
Q 678 262 761 336 
Q 845 410 845 685 
L 845 3648 
Q 845 3917 777 4006 
Q 710 4096 429 4096 
L 294 4096 
L 294 4358 
z
" transform="scale(0.015625)"/>
      <path id="STZhongsong-9762" d="M 2694 4058 
L 678 4058 
Q 512 4058 403 4026 
L 294 4301 
Q 429 4269 614 4269 
L 4998 4269 
L 5286 4698 
Q 5350 4794 5395 4794 
Q 5459 4794 5788 4509 
Q 6118 4224 6118 4141 
Q 6118 4058 5990 4058 
L 3443 4058 
Q 3226 3622 2874 3091 
L 4723 3091 
L 4864 3328 
Q 4896 3379 4934 3379 
Q 5011 3379 5337 3184 
Q 5664 2989 5664 2899 
Q 5664 2810 5376 2662 
L 5376 -288 
Q 5376 -397 5382 -493 
L 5395 -646 
Q 5395 -672 5382 -688 
Q 5370 -704 5267 -752 
Q 5165 -800 5014 -832 
Q 4864 -864 4825 -864 
Q 4787 -864 4787 -813 
L 4787 -243 
L 1523 -243 
L 1523 -646 
Q 1523 -710 1459 -752 
Q 1395 -794 1200 -867 
Q 1005 -941 934 -941 
Q 909 -941 915 -877 
Q 941 -672 941 -211 
L 941 2912 
Q 941 3290 934 3366 
Q 1216 3290 1587 3091 
L 2477 3091 
Q 2682 3763 2694 4058 
z
M 2739 2880 
L 2739 2074 
L 3584 2074 
L 3584 2880 
L 2739 2880 
z
M 1523 -32 
L 2189 -32 
L 2189 2880 
L 1523 2880 
L 1523 -32 
z
M 4147 -32 
L 4787 -32 
L 4787 2880 
L 4147 2880 
L 4147 -32 
z
M 2739 1862 
L 2739 1056 
L 3584 1056 
L 3584 1862 
L 2739 1862 
z
M 2739 -32 
L 3584 -32 
L 3584 845 
L 2739 845 
L 2739 -32 
z
" transform="scale(0.015625)"/>
      <path id="STZhongsong-677f" d="M 1888 3398 
L 2189 3398 
L 2400 3661 
Q 2464 3738 2512 3738 
Q 2560 3738 2768 3520 
Q 2976 3302 2976 3238 
Q 2976 3200 2842 3200 
L 1888 3200 
L 1888 2675 
Q 2739 2208 2739 1798 
Q 2739 1645 2624 1488 
Q 2509 1331 2422 1331 
Q 2336 1331 2313 1363 
Q 2291 1395 2278 1555 
Q 2240 2022 1888 2547 
L 1888 -640 
Q 1888 -730 1856 -758 
Q 1824 -787 1657 -860 
Q 1491 -934 1408 -934 
Q 1370 -934 1370 -870 
L 1382 -518 
Q 1389 -307 1389 -19 
L 1389 1875 
Q 1011 979 173 77 
L 96 141 
Q 909 1318 1299 3200 
L 800 3200 
Q 634 3200 525 3168 
L 378 3430 
Q 512 3398 698 3398 
L 1389 3398 
L 1389 4134 
Q 1389 4557 1370 4864 
Q 1856 4742 2025 4684 
Q 2195 4627 2195 4569 
Q 2195 4512 1888 4378 
L 1888 3398 
z
M 3654 4147 
Q 4672 4358 5312 4730 
Q 5670 4410 5808 4272 
Q 5946 4134 5946 4080 
Q 5946 4026 5888 4026 
Q 5830 4026 5721 4061 
Q 5613 4096 5536 4096 
Q 5459 4096 5338 4077 
Q 4557 3936 3610 3936 
Q 3603 3418 3558 2854 
L 4896 2854 
L 5056 3053 
Q 5094 3104 5126 3104 
Q 5178 3104 5459 2889 
Q 5741 2675 5741 2617 
Q 5741 2560 5625 2525 
Q 5510 2490 5475 2442 
Q 5440 2394 5389 2208 
Q 5088 1101 4723 563 
Q 5190 -6 6246 -512 
L 6214 -614 
Q 5670 -576 5466 -838 
Q 5427 -883 5395 -883 
Q 5363 -883 5219 -758 
Q 5075 -634 4825 -371 
Q 4576 -109 4403 141 
Q 3802 -512 2534 -1075 
L 2445 -966 
Q 3731 -147 4173 512 
Q 3782 1235 3699 2643 
L 3546 2643 
Q 3469 1779 3408 1356 
Q 3347 934 3206 544 
Q 3066 154 2806 -224 
Q 2547 -602 2112 -1056 
L 2035 -973 
Q 2605 -173 2825 889 
Q 3046 1952 3046 3366 
Q 3046 3878 3021 4448 
Q 3366 4314 3654 4147 
z
M 4442 966 
Q 4736 1562 4909 2643 
L 3891 2643 
Q 4070 1606 4442 966 
z
" transform="scale(0.015625)"/>
      <path id="STZhongsong-53d8" d="M 2912 3885 
Q 2835 4390 2330 4787 
L 2381 4915 
Q 2912 4787 3197 4643 
Q 3482 4499 3482 4301 
Q 3482 4211 3430 4092 
Q 3379 3974 3270 3885 
L 4819 3885 
L 5094 4288 
Q 5152 4365 5209 4365 
Q 5267 4365 5564 4080 
Q 5862 3795 5862 3728 
Q 5862 3661 5696 3661 
L 3968 3661 
L 3968 2445 
Q 3968 2182 3974 2048 
L 3987 1837 
Q 3987 1798 3929 1760 
Q 3872 1722 3709 1664 
Q 3546 1606 3469 1606 
Q 3418 1606 3418 1696 
L 3418 3661 
L 2733 3661 
L 2733 1779 
Q 2733 1722 2707 1696 
Q 2682 1670 2474 1600 
Q 2266 1530 2214 1530 
Q 2163 1530 2163 1606 
L 2176 1869 
Q 2182 2138 2182 2451 
L 2182 3661 
L 723 3661 
Q 550 3661 454 3616 
L 339 3917 
Q 474 3885 659 3885 
L 2912 3885 
z
M 1338 3277 
Q 2010 2938 2010 2835 
Q 2010 2784 1917 2768 
Q 1824 2752 1779 2717 
Q 1734 2682 1658 2573 
Q 1382 2150 1065 1859 
Q 749 1568 288 1235 
L 179 1338 
Q 627 1798 873 2214 
Q 1120 2630 1338 3277 
z
M 4275 3238 
Q 4870 2970 5174 2790 
Q 5478 2611 5580 2473 
Q 5683 2336 5683 2137 
Q 5683 1939 5580 1779 
Q 5478 1619 5370 1619 
Q 5306 1619 5261 1683 
Q 5216 1747 5114 1997 
Q 4832 2669 4205 3104 
L 4275 3238 
z
M 3104 -186 
Q 2003 -858 307 -1107 
L 288 -966 
Q 1830 -550 2746 77 
Q 2150 582 1862 1286 
L 1587 1286 
Q 1414 1286 1318 1242 
L 1203 1536 
Q 1338 1504 1523 1504 
L 4077 1504 
L 4288 1715 
Q 4326 1754 4365 1754 
Q 4448 1754 4707 1539 
Q 4966 1325 4966 1274 
Q 4966 1216 4844 1200 
Q 4723 1184 4640 1120 
Q 4557 1056 4378 858 
Q 4013 442 3552 109 
Q 4595 -333 6170 -371 
L 6170 -512 
Q 5830 -538 5622 -630 
Q 5414 -723 5306 -960 
Q 5274 -1018 5222 -1018 
Q 5146 -1018 4643 -874 
Q 4141 -730 3805 -576 
Q 3469 -422 3104 -186 
z
M 3098 333 
Q 3622 736 4026 1286 
L 2074 1286 
Q 2432 710 3098 333 
z
" transform="scale(0.015625)"/>
      <path id="STZhongsong-5316" d="M 1523 2445 
Q 960 1683 237 1114 
L 154 1210 
Q 838 2010 1283 2880 
Q 1728 3750 2010 4890 
Q 2432 4698 2617 4570 
Q 2803 4442 2803 4390 
Q 2803 4326 2630 4301 
Q 2554 4288 2496 4205 
Q 2438 4122 2291 3779 
Q 2144 3437 1933 3072 
Q 2195 2982 2195 2931 
Q 2195 2880 2074 2797 
L 2074 -762 
Q 2074 -819 2013 -864 
Q 1952 -909 1766 -979 
Q 1581 -1050 1536 -1050 
Q 1491 -1050 1491 -986 
L 1504 -531 
Q 1523 -70 1523 518 
L 1523 2445 
z
M 4102 1619 
L 4102 38 
Q 4102 -122 4182 -170 
Q 4262 -218 4745 -218 
Q 5229 -218 5366 -141 
Q 5504 -64 5561 201 
Q 5619 467 5702 1267 
L 5837 1267 
Q 5830 1024 5830 838 
Q 5830 358 5881 182 
Q 5933 6 6054 -58 
Q 6176 -122 6176 -166 
Q 6176 -211 6089 -361 
Q 6003 -512 5907 -598 
Q 5811 -685 5705 -710 
Q 5600 -736 5229 -758 
Q 4858 -781 4454 -781 
Q 4051 -781 3856 -713 
Q 3661 -646 3584 -470 
Q 3507 -294 3507 38 
L 3507 1242 
Q 2957 928 2157 608 
L 2125 749 
Q 2899 1184 3507 1638 
L 3507 4006 
Q 3507 4525 3488 4845 
Q 4384 4570 4384 4461 
Q 4384 4410 4102 4282 
L 4102 2150 
Q 4768 2784 5434 3866 
Q 5664 3635 5824 3408 
Q 5984 3181 5984 3126 
Q 5984 3072 5939 3072 
Q 5894 3072 5856 3081 
Q 5818 3091 5773 3091 
Q 5728 3091 5638 3011 
Q 5549 2931 5357 2733 
Q 4691 2042 4102 1619 
z
" transform="scale(0.015625)"/>
     </defs>
     <use xlink:href="#STZhongsong-44"/>
     <use xlink:href="#STZhongsong-4c" transform="translate(79.999985 0)"/>
     <use xlink:href="#STZhongsong-683c" transform="translate(139.999969 0)"/>
     <use xlink:href="#STZhongsong-7f51" transform="translate(239.999954 0)"/>
     <use xlink:href="#STZhongsong-9762" transform="translate(339.999939 0)"/>
     <use xlink:href="#STZhongsong-677f" transform="translate(439.999924 0)"/>
     <use xlink:href="#STZhongsong-975e" transform="translate(539.999908 0)"/>
     <use xlink:href="#STZhongsong-96f6" transform="translate(639.999893 0)"/>
     <use xlink:href="#STZhongsong-683c" transform="translate(739.999878 0)"/>
     <use xlink:href="#STZhongsong-7f51" transform="translate(839.999863 0)"/>
     <use xlink:href="#STZhongsong-6bd4" transform="translate(939.999847 0)"/>
     <use xlink:href="#STZhongsong-4f8b" transform="translate(1039.999832 0)"/>
     <use xlink:href="#STZhongsong-53d8" transform="translate(1139.999817 0)"/>
     <use xlink:href="#STZhongsong-5316" transform="translate(1239.999802 0)"/>
    </g>
   </g>
   <g id="legend_1">
    <g id="line2d_18">
     <path d="M 65.395938 56.919219 
L 79.395938 56.919219 
L 93.395938 56.919219 
" style="fill: none; stroke: #4c78a8; stroke-width: 3.1; stroke-linecap: square"/>
     <g>
      <use xlink:href="#m8ce62c6d92" x="79.395938" y="56.919219" style="fill: #4c78a8; stroke: #4c78a8"/>
     </g>
    </g>
    <g id="text_14">
     <!-- 有效格网非零比例 -->
     <g style="fill: #111111" transform="translate(104.595938 61.819219) scale(0.14 -0.14)">
      <defs>
       <path id="STZhongsong-6709" d="M 2611 2861 
L 4512 2861 
L 4666 3130 
Q 4704 3187 4745 3187 
Q 4787 3187 4969 3068 
Q 5152 2950 5283 2870 
Q 5414 2790 5414 2726 
Q 5414 2662 5158 2534 
L 5158 -416 
Q 5158 -653 5100 -752 
Q 5043 -851 4768 -982 
Q 4493 -1114 4432 -1114 
Q 4371 -1114 4346 -998 
Q 4301 -819 4131 -681 
Q 3962 -544 3507 -365 
L 3533 -250 
Q 4186 -371 4323 -371 
Q 4461 -371 4509 -352 
Q 4557 -333 4557 -256 
L 4557 832 
L 2534 832 
L 2534 -781 
Q 2534 -858 2486 -893 
Q 2438 -928 2249 -989 
Q 2061 -1050 1997 -1050 
Q 1933 -1050 1933 -998 
L 1965 -454 
Q 1984 -90 1984 314 
L 1984 2042 
Q 1478 1504 352 755 
L 269 877 
Q 1843 2246 2400 3590 
L 755 3590 
Q 582 3590 486 3546 
L 371 3814 
Q 506 3782 691 3782 
L 2477 3782 
Q 2669 4256 2816 4870 
Q 3629 4557 3629 4435 
Q 3629 4390 3478 4355 
Q 3328 4320 3273 4192 
Q 3219 4064 3091 3782 
L 5094 3782 
L 5357 4166 
Q 5414 4256 5478 4256 
Q 5542 4256 5632 4192 
L 5875 3994 
Q 6029 3866 6118 3773 
Q 6208 3680 6208 3635 
Q 6208 3590 6080 3590 
L 3008 3590 
Q 2816 3174 2611 2861 
z
M 2534 1965 
L 4557 1965 
L 4557 2669 
L 2534 2669 
L 2534 1965 
z
M 4557 1773 
L 2534 1773 
L 2534 1030 
L 4557 1030 
L 4557 1773 
z
" transform="scale(0.015625)"/>
       <path id="STZhongsong-6548" d="M 1274 4915 
Q 1741 4749 1961 4640 
Q 2182 4531 2249 4444 
Q 2317 4358 2317 4217 
Q 2317 4077 2198 3907 
Q 2080 3738 1958 3738 
Q 1888 3738 1859 3766 
Q 1830 3795 1792 3898 
Q 1664 4224 1529 4425 
Q 1395 4627 1216 4819 
L 1274 4915 
z
M 4186 3315 
L 5190 3315 
L 5453 3738 
Q 5498 3808 5549 3808 
Q 5600 3808 5670 3744 
Q 5741 3680 5904 3513 
Q 6067 3347 6131 3270 
Q 6195 3194 6195 3162 
Q 6195 3130 6067 3130 
L 5146 3130 
Q 5325 3078 5488 3008 
Q 5651 2938 5651 2906 
Q 5651 2874 5587 2838 
Q 5523 2803 5497 2752 
Q 5472 2701 5427 2522 
Q 5133 1254 4698 621 
Q 5235 -96 6291 -576 
L 6272 -678 
Q 6182 -672 6044 -672 
Q 5907 -672 5779 -723 
Q 5651 -774 5536 -928 
Q 5498 -979 5466 -979 
Q 5389 -979 4969 -531 
Q 4550 -83 4371 205 
Q 3770 -480 2234 -1056 
L 2170 -973 
Q 3552 -173 4141 634 
Q 3853 1254 3757 2349 
Q 3462 1811 3046 1338 
L 2950 1395 
Q 3360 2093 3568 2787 
Q 3776 3482 4026 4870 
Q 4224 4819 4521 4707 
Q 4819 4595 4819 4550 
Q 4819 4506 4726 4493 
Q 4634 4480 4592 4422 
Q 4550 4365 4451 4057 
Q 4352 3750 4186 3315 
z
M 4922 3130 
L 4115 3130 
Q 3994 2829 3904 2643 
Q 4064 1696 4416 1056 
Q 4768 1862 4922 3130 
z
M 2688 3680 
L 2931 4000 
Q 2989 4077 3037 4077 
Q 3085 4077 3347 3843 
Q 3610 3610 3610 3555 
Q 3610 3501 3507 3501 
L 570 3501 
Q 435 3501 365 3469 
L 275 3706 
Q 390 3680 525 3680 
L 2688 3680 
z
M 2150 3392 
Q 2726 3181 3027 2995 
Q 3328 2810 3328 2611 
Q 3328 2470 3222 2307 
Q 3117 2144 3056 2144 
Q 2995 2144 2963 2176 
Q 2931 2208 2867 2317 
Q 2547 2880 2086 3296 
L 2150 3392 
z
M 1293 3386 
Q 1914 3117 1914 3040 
Q 1914 3014 1798 2989 
Q 1709 2970 1549 2771 
Q 672 1715 250 1344 
L 166 1408 
Q 838 2362 1293 3386 
z
M 2195 1037 
Q 2534 723 2700 508 
Q 2867 294 2867 83 
Q 2867 -128 2764 -285 
Q 2662 -442 2592 -442 
Q 2522 -442 2486 -400 
Q 2451 -358 2374 -186 
Q 2144 346 1933 659 
Q 1350 -109 237 -755 
L 179 -685 
Q 1171 154 1670 1011 
Q 1395 1350 896 1869 
L 979 1965 
Q 1574 1581 1856 1338 
Q 2074 1741 2323 2394 
Q 2509 2310 2710 2179 
Q 2912 2048 2912 2013 
Q 2912 1978 2813 1965 
Q 2714 1952 2605 1747 
Q 2374 1318 2195 1037 
z
" transform="scale(0.015625)"/>
      </defs>
      <use xlink:href="#STZhongsong-6709"/>
      <use xlink:href="#STZhongsong-6548" transform="translate(99.999985 0)"/>
      <use xlink:href="#STZhongsong-683c" transform="translate(199.999969 0)"/>
      <use xlink:href="#STZhongsong-7f51" transform="translate(299.999954 0)"/>
      <use xlink:href="#STZhongsong-975e" transform="translate(399.999939 0)"/>
      <use xlink:href="#STZhongsong-96f6" transform="translate(499.999924 0)"/>
      <use xlink:href="#STZhongsong-6bd4" transform="translate(599.999908 0)"/>
      <use xlink:href="#STZhongsong-4f8b" transform="translate(699.999893 0)"/>
     </g>
    </g>
    <g id="line2d_19">
     <path d="M 65.395938 77.092344 
L 79.395938 77.092344 
L 93.395938 77.092344 
" style="fill: none; stroke: #e15759; stroke-width: 3.1; stroke-linecap: square"/>
     <g>
      <use xlink:href="#mef257d4565" x="79.395938" y="77.092344" style="fill: #e15759; stroke: #e15759; stroke-linejoin: miter"/>
     </g>
    </g>
    <g id="text_15">
     <!-- 完整矩阵非零比例 -->
     <g style="fill: #111111" transform="translate(104.595938 81.992344) scale(0.14 -0.14)">
      <defs>
       <path id="STZhongsong-5b8c" d="M 4851 2784 
Q 4992 2643 4992 2592 
Q 4992 2541 4890 2541 
L 1722 2541 
Q 1549 2541 1453 2496 
L 1338 2758 
Q 1472 2726 1658 2726 
L 4019 2726 
L 4288 3104 
Q 4333 3168 4377 3168 
Q 4422 3168 4483 3117 
Q 4544 3066 4755 2874 
Q 4966 3315 5062 3584 
L 1472 3584 
Q 1472 3059 1296 2816 
Q 1120 2573 890 2573 
Q 742 2573 640 2646 
Q 538 2720 538 2822 
Q 538 2925 672 3034 
Q 966 3270 1100 3516 
Q 1235 3763 1293 4141 
L 1440 4141 
Q 1453 4026 1466 3782 
L 3123 3782 
Q 3021 4192 2893 4413 
Q 2765 4634 2541 4787 
L 2579 4890 
Q 3731 4698 3731 4269 
Q 3731 4166 3638 4019 
Q 3546 3872 3334 3782 
L 5094 3782 
L 5293 4006 
Q 5338 4058 5389 4058 
Q 5440 4058 5552 3962 
Q 5664 3866 5817 3728 
Q 5971 3590 6025 3526 
Q 6080 3462 6080 3411 
Q 6080 3309 5939 3309 
L 5818 3315 
Q 5382 3315 4851 2784 
z
M 3981 1587 
L 3981 -83 
Q 3981 -320 4096 -381 
Q 4211 -442 4675 -442 
Q 5139 -442 5235 -374 
Q 5331 -307 5398 -67 
Q 5466 173 5549 870 
L 5683 870 
Q 5690 218 5744 10 
Q 5798 -198 5958 -301 
Q 6048 -358 6048 -412 
Q 6048 -467 5907 -668 
Q 5766 -870 5561 -921 
Q 5357 -973 4726 -973 
Q 4096 -973 3830 -921 
Q 3565 -870 3488 -723 
Q 3411 -576 3411 -224 
L 3411 1587 
L 2720 1587 
Q 2682 506 2467 112 
Q 2253 -282 1776 -506 
Q 1299 -730 454 -934 
L 397 -819 
Q 1440 -429 1801 3 
Q 2163 435 2150 1587 
L 832 1587 
Q 659 1587 563 1542 
L 448 1805 
Q 582 1773 768 1773 
L 4909 1773 
L 5210 2195 
Q 5254 2253 5292 2253 
Q 5331 2253 5436 2166 
Q 5542 2080 5702 1936 
Q 5862 1792 5920 1731 
Q 5978 1670 5978 1628 
Q 5978 1587 5862 1587 
L 3981 1587 
z
" transform="scale(0.015625)"/>
       <path id="STZhongsong-6574" d="M 1702 3917 
L 723 3917 
Q 557 3917 448 3885 
L 339 4134 
Q 474 4102 659 4102 
L 1702 4102 
Q 1702 4550 1683 4858 
Q 2029 4832 2198 4787 
Q 2368 4742 2368 4704 
Q 2368 4659 2176 4538 
L 2176 4102 
L 2822 4102 
L 2995 4320 
Q 3072 4416 3133 4416 
Q 3194 4416 3386 4214 
Q 3578 4013 3578 3965 
Q 3578 3917 3430 3917 
L 2176 3917 
L 2176 3475 
L 2675 3475 
L 2771 3603 
Q 2822 3667 2854 3667 
Q 2886 3667 3020 3571 
Q 3155 3475 3238 3420 
Q 3322 3366 3322 3328 
Q 3322 3290 3155 3213 
L 3155 2912 
Q 3155 2803 3168 2598 
Q 3859 3757 4038 4851 
Q 4198 4800 4454 4691 
Q 4710 4582 4710 4538 
Q 4710 4512 4601 4464 
Q 4493 4416 4441 4307 
Q 4390 4198 4122 3718 
L 5114 3718 
L 5350 4032 
Q 5427 4134 5481 4134 
Q 5536 4134 5795 3888 
Q 6054 3642 6054 3587 
Q 6054 3533 5907 3533 
L 5146 3533 
Q 5530 3379 5530 3322 
Q 5530 3296 5459 3273 
Q 5389 3251 5357 3206 
Q 5325 3162 5261 3021 
Q 5050 2560 4826 2253 
Q 5325 1990 6285 1850 
L 6259 1734 
Q 6016 1709 5885 1645 
Q 5754 1581 5626 1427 
Q 5581 1376 5542 1376 
Q 5466 1376 5101 1558 
Q 4736 1741 4525 1907 
Q 4051 1459 2970 1146 
L 2931 1261 
Q 3814 1645 4269 2163 
Q 3942 2547 3827 3251 
Q 3648 2982 3251 2477 
L 3149 2547 
Q 3014 2477 2883 2448 
Q 2752 2419 2701 2419 
Q 2682 2419 2682 2470 
L 2682 2566 
L 2176 2566 
L 2176 2304 
Q 2765 2163 2957 2041 
Q 3149 1920 3149 1753 
Q 3149 1587 3085 1494 
Q 3021 1402 2925 1402 
Q 2893 1402 2867 1427 
Q 2842 1453 2778 1542 
Q 2464 1990 2176 2170 
L 2176 1395 
Q 2176 1350 2169 1328 
Q 2163 1306 2076 1264 
Q 1990 1222 1862 1193 
Q 1734 1165 1708 1165 
Q 1683 1165 1683 1216 
L 1696 1498 
Q 1702 1645 1702 2035 
Q 1267 1549 192 992 
L 128 1094 
Q 1069 1722 1645 2566 
L 1152 2566 
L 1152 2483 
Q 1152 2438 1139 2422 
Q 1126 2406 1040 2368 
Q 954 2330 848 2304 
Q 742 2278 713 2278 
Q 685 2278 685 2317 
L 698 2771 
L 698 3219 
Q 698 3501 685 3667 
Q 934 3590 1120 3475 
L 1702 3475 
L 1702 3917 
z
M 4902 3533 
L 4006 3533 
L 3949 3437 
Q 4083 2816 4493 2470 
Q 4781 2918 4902 3533 
z
M 2176 2758 
L 2682 2758 
L 2682 3309 
L 2176 3309 
L 2176 2758 
z
M 1152 2758 
L 1702 2758 
L 1702 3309 
L 1152 3309 
L 1152 2758 
z
M 2906 851 
L 947 851 
Q 774 851 678 806 
L 550 1082 
Q 685 1050 870 1050 
L 4640 1050 
L 4832 1318 
Q 4896 1408 4944 1408 
Q 4992 1408 5257 1187 
Q 5523 966 5523 908 
Q 5523 851 5350 851 
L 3456 851 
L 3456 141 
L 4243 141 
L 4461 454 
Q 4525 550 4582 550 
Q 4640 550 4886 316 
Q 5133 83 5133 25 
Q 5133 -32 4966 -32 
L 3456 -32 
L 3456 -666 
L 4973 -666 
L 5203 -346 
Q 5274 -250 5331 -250 
Q 5389 -250 5635 -496 
Q 5882 -742 5882 -803 
Q 5882 -864 5734 -864 
L 710 -864 
Q 538 -864 442 -909 
L 326 -634 
Q 461 -666 646 -666 
L 1574 -666 
L 1574 32 
Q 1574 525 1562 634 
Q 1715 608 2009 521 
Q 2304 435 2304 380 
Q 2304 326 2080 218 
L 2080 -666 
L 2906 -666 
L 2906 851 
z
" transform="scale(0.015625)"/>
       <path id="STZhongsong-77e9" d="M 1478 3584 
L 2208 3584 
L 2438 3917 
Q 2477 3974 2515 3974 
Q 2573 3974 2832 3747 
Q 3091 3520 3091 3459 
Q 3091 3398 2982 3398 
L 2118 3398 
Q 2099 2547 2054 2016 
L 2355 2016 
L 2586 2355 
Q 2630 2419 2672 2419 
Q 2714 2419 2883 2275 
Q 3053 2131 3155 2016 
L 3155 3962 
Q 3155 4250 3136 4531 
Q 3629 4320 3821 4198 
L 5011 4198 
L 5299 4589 
Q 5338 4646 5382 4646 
Q 5453 4646 5744 4377 
Q 6035 4109 6035 4057 
Q 6035 4006 5952 4006 
L 3661 4006 
L 3661 2816 
L 4883 2816 
L 5043 3066 
Q 5082 3123 5120 3123 
Q 5158 3123 5356 2985 
Q 5555 2848 5667 2777 
Q 5779 2707 5779 2659 
Q 5779 2611 5504 2496 
L 5504 1536 
Q 5504 1293 5510 1184 
L 5517 986 
Q 5517 928 5456 889 
Q 5395 851 5225 800 
Q 5056 749 4992 749 
Q 4941 749 4941 845 
L 4941 1082 
L 3661 1082 
L 3661 -422 
L 5037 -422 
L 5325 -32 
Q 5389 58 5440 58 
Q 5491 58 5788 -227 
Q 6086 -512 6086 -563 
Q 6086 -614 5984 -614 
L 3642 -614 
L 3514 -794 
Q 3462 -864 3430 -864 
Q 3360 -864 2874 -512 
Q 3059 -378 3107 -291 
Q 3155 -205 3155 -38 
L 3155 1824 
L 2035 1824 
Q 1984 1376 1907 1094 
Q 2381 915 2627 729 
Q 2874 544 2874 310 
Q 2874 77 2765 -70 
Q 2656 -218 2512 -218 
Q 2368 -218 2336 0 
Q 2259 493 1862 928 
Q 1702 403 1353 -9 
Q 1005 -422 346 -890 
L 262 -781 
Q 896 -218 1181 358 
Q 1466 934 1555 1824 
L 614 1824 
Q 454 1824 339 1792 
L 230 2048 
Q 365 2016 550 2016 
L 1574 2016 
Q 1626 2605 1632 3398 
L 1382 3398 
Q 1082 2797 499 2138 
L 397 2214 
Q 992 3187 1338 4922 
Q 2093 4646 2093 4582 
Q 2093 4557 1971 4525 
Q 1850 4493 1773 4275 
Q 1632 3904 1478 3584 
z
M 3661 2624 
L 3661 1280 
L 4941 1280 
L 4941 2624 
L 3661 2624 
z
" transform="scale(0.015625)"/>
       <path id="STZhongsong-9635" d="M 3347 3526 
L 2752 3526 
Q 2534 3526 2432 3488 
L 2317 3776 
Q 2451 3744 2637 3744 
L 3424 3744 
Q 3590 4224 3757 4851 
Q 4032 4768 4246 4681 
Q 4461 4595 4502 4553 
Q 4544 4512 4544 4480 
Q 4544 4403 4409 4390 
Q 4275 4378 4218 4237 
L 4013 3744 
L 5114 3744 
L 5370 4090 
Q 5446 4192 5504 4192 
Q 5562 4192 5827 3923 
Q 6093 3654 6093 3590 
Q 6093 3526 5946 3526 
L 3923 3526 
Q 3661 2899 3296 2106 
L 4038 2106 
L 4038 2502 
Q 4038 2822 4026 3072 
Q 4410 3021 4592 2963 
Q 4774 2906 4774 2867 
Q 4774 2816 4589 2707 
L 4589 2106 
L 4960 2106 
L 5197 2394 
Q 5286 2502 5350 2502 
Q 5414 2502 5638 2256 
Q 5862 2010 5862 1958 
Q 5862 1907 5709 1907 
L 4589 1907 
L 4589 826 
L 5242 826 
L 5491 1152 
Q 5568 1254 5613 1254 
Q 5690 1254 5930 1008 
Q 6170 762 6170 678 
Q 6170 627 6022 627 
L 4589 627 
L 4589 -64 
Q 4589 -320 4595 -461 
L 4608 -762 
Q 4608 -813 4553 -848 
Q 4499 -883 4310 -956 
Q 4122 -1030 4067 -1030 
Q 4013 -1030 4013 -992 
Q 4013 -954 4025 -701 
Q 4038 -448 4038 -64 
L 4038 627 
L 2707 627 
Q 2490 627 2387 589 
L 2278 845 
Q 2163 730 1961 637 
Q 1760 544 1696 544 
Q 1632 544 1603 678 
Q 1574 813 1478 902 
Q 1382 992 1184 1082 
L 1184 -723 
Q 1184 -774 1171 -790 
Q 1158 -806 1068 -851 
Q 979 -896 854 -937 
Q 730 -979 691 -979 
Q 653 -979 653 -902 
L 666 -614 
Q 672 -314 672 -51 
L 672 4026 
Q 672 4486 646 4698 
Q 1030 4563 1363 4358 
L 1786 4358 
L 1920 4589 
Q 1971 4678 2035 4678 
Q 2099 4678 2384 4483 
Q 2669 4288 2669 4240 
Q 2669 4192 2537 4166 
Q 2406 4141 2317 3962 
L 1664 2739 
Q 2202 2278 2365 2032 
Q 2528 1786 2528 1472 
Q 2528 1088 2291 864 
Q 2406 826 2592 826 
L 4038 826 
L 4038 1907 
L 3238 1907 
L 3136 1741 
Q 3091 1670 3046 1670 
Q 2925 1670 2579 2080 
Q 2752 2208 2819 2294 
Q 2886 2381 3049 2761 
Q 3213 3142 3347 3526 
z
M 1184 1222 
Q 1453 1184 1632 1184 
Q 1811 1184 1894 1277 
Q 1978 1370 1978 1632 
Q 1978 2170 1408 2707 
Q 1690 3552 1843 4173 
L 1184 4173 
L 1184 1222 
z
" transform="scale(0.015625)"/>
      </defs>
      <use xlink:href="#STZhongsong-5b8c"/>
      <use xlink:href="#STZhongsong-6574" transform="translate(99.999985 0)"/>
      <use xlink:href="#STZhongsong-77e9" transform="translate(199.999969 0)"/>
      <use xlink:href="#STZhongsong-9635" transform="translate(299.999954 0)"/>
      <use xlink:href="#STZhongsong-975e" transform="translate(399.999939 0)"/>
      <use xlink:href="#STZhongsong-96f6" transform="translate(499.999924 0)"/>
      <use xlink:href="#STZhongsong-6bd4" transform="translate(599.999908 0)"/>
      <use xlink:href="#STZhongsong-4f8b" transform="translate(699.999893 0)"/>
     </g>
    </g>
   </g>
  </g>
 </g>
 <defs>
  <clipPath id="p7539343c66">
   <rect x="52.795938" y="38.802344" width="796.49125" height="366.66"/>
  </clipPath>
 </defs>
</svg>
