<?xml version="1.0" encoding="utf-8" standalone="no"?>
<!DOCTYPE svg PUBLIC "-//W3C//DTD SVG 1.1//EN"
  "http://www.w3.org/Graphics/SVG/1.1/DTD/svg11.dtd">
<svg xmlns:xlink="http://www.w3.org/1999/xlink" width="856.43pt" height="453.170937pt" viewBox="0 0 856.43 453.170937" xmlns="http://www.w3.org/2000/svg" version="1.1">
 <metadata>
  <rdf:RDF xmlns:dc="http://purl.org/dc/elements/1.1/" xmlns:cc="http://creativecommons.org/ns#" xmlns:rdf="http://www.w3.org/1999/02/22-rdf-syntax-ns#">
   <cc:Work>
    <dc:type rdf:resource="http://purl.org/dc/dcmitype/StillImage"/>
    <dc:date>2026-06-06T01:21:28.996811</dc:date>
    <dc:format>image/svg+xml</dc:format>
    <dc:creator>
     <cc:Agent>
      <dc:title>Matplotlib v3.10.0, https://matplotlib.org/</dc:title>
     </cc:Agent>
    </dc:creator>
   </cc:Work>
  </rdf:RDF>
 </metadata>
 <defs>
  <style type="text/css">*{stroke-linejoin: round; stroke-linecap: butt}</style>
 </defs>
 <g id="figure_1">
  <g id="patch_1">
   <path d="M 0 453.170937 
L 856.43 453.170937 
L 856.43 0 
L 0 0 
z
" style="fill: #ffffff"/>
  </g>
  <g id="axes_1">
   <g id="patch_2">
    <path d="M 71.38 404.980937 
L 849.23 404.980937 
L 849.23 39.074687 
L 71.38 39.074687 
z
" style="fill: #ffffff"/>
   </g>
   <g id="patch_3">
    <path d="M 106.736818 404.980937 
L 149.548832 404.980937 
L 149.548832 242.419858 
L 106.736818 242.419858 
z
" clip-path="url(#p923366f432)" style="fill: #9cc3a5"/>
   </g>
   <g id="patch_4">
    <path d="M 180.550635 404.980937 
L 223.362649 404.980937 
L 223.362649 157.696335 
L 180.550635 157.696335 
z
" clip-path="url(#p923366f432)" style="fill: #9cc3a5"/>
   </g>
   <g id="patch_5">
    <path d="M 254.364452 404.980937 
L 297.176465 404.980937 
L 297.176465 56.498795 
L 254.364452 56.498795 
z
" clip-path="url(#p923366f432)" style="fill: #9cc3a5"/>
   </g>
   <g id="patch_6">
    <path d="M 328.178268 404.980937 
L 370.990282 404.980937 
L 370.990282 134.249188 
L 328.178268 134.249188 
z
" clip-path="url(#p923366f432)" style="fill: #9cc3a5"/>
   </g>
   <g id="patch_7">
    <path d="M 401.992085 404.980937 
L 444.804099 404.980937 
L 444.804099 245.470602 
L 401.992085 245.470602 
z
" clip-path="url(#p923366f432)" style="fill: #9cc3a5"/>
   </g>
   <g id="patch_8">
    <path d="M 475.805901 404.980937 
L 518.617915 404.980937 
L 518.617915 258.632384 
L 475.805901 258.632384 
z
" clip-path="url(#p923366f432)" style="fill: #9cc3a5"/>
   </g>
   <g id="patch_9">
    <path d="M 549.619718 404.980937 
L 592.431732 404.980937 
L 592.431732 268.569093 
L 549.619718 268.569093 
z
" clip-path="url(#p923366f432)" style="fill: #9cc3a5"/>
   </g>
   <g id="patch_10">
    <path d="M 623.433535 404.980937 
L 666.245548 404.980937 
L 666.245548 239.71777 
L 623.433535 239.71777 
z
" clip-path="url(#p923366f432)" style="fill: #9cc3a5"/>
   </g>
   <g id="patch_11">
    <path d="M 697.247351 404.980937 
L 740.059365 404.980937 
L 740.059365 216.619279 
L 697.247351 216.619279 
z
" clip-path="url(#p923366f432)" style="fill: #9cc3a5"/>
   </g>
   <g id="patch_12">
    <path d="M 771.061168 404.980937 
L 813.873182 404.980937 
L 813.873182 255.058655 
L 771.061168 255.058655 
z
" clip-path="url(#p923366f432)" style="fill: #9cc3a5"/>
   </g>
   <g id="matplotlib.axis_1">
    <g id="xtick_1">
     <g id="line2d_1">
      <defs>
       <path id="m1ebce7ee0a" d="M 0 0 
L 0 3.5 
" style="stroke: #111111; stroke-width: 0.8"/>
      </defs>
      <g>
       <use xlink:href="#m1ebce7ee0a" x="201.956642" y="404.980937" style="fill: #111111; stroke: #111111; stroke-width: 0.8"/>
      </g>
     </g>
     <g id="text_1">
      <!-- 2016 -->
      <g style="fill: #111111" transform="translate(183.356642 422.72) scale(0.15 -0.15)">
       <defs>
        <path id="STZhongsong-32" d="M 723 2714 
L 422 2675 
Q 397 2835 397 2989 
Q 397 3616 832 4025 
Q 1267 4435 1978 4435 
Q 2630 4435 3043 4064 
Q 3456 3693 3456 3098 
Q 3456 2669 3286 2349 
Q 3117 2029 2611 1603 
Q 2106 1178 1037 467 
L 2662 467 
Q 2963 467 3062 544 
Q 3162 621 3200 838 
L 3232 1018 
L 3494 1018 
L 3283 -154 
L 3085 -154 
L 3053 0 
L 320 0 
L 320 262 
L 819 640 
Q 1901 1453 2377 1977 
Q 2854 2502 2854 3066 
Q 2854 3507 2569 3788 
Q 2285 4070 1837 4070 
Q 1325 4070 1017 3753 
Q 710 3437 710 2918 
Q 710 2822 723 2714 
z
" transform="scale(0.015625)"/>
        <path id="STZhongsong-30" d="M 326 2182 
Q 326 3251 774 3843 
Q 1222 4435 1997 4435 
Q 2752 4435 3197 3827 
Q 3642 3219 3642 2144 
Q 3642 1139 3178 531 
Q 2714 -77 1952 -77 
Q 1229 -77 777 524 
Q 326 1126 326 2182 
z
M 3040 2182 
Q 3040 3104 2758 3616 
Q 2477 4128 1978 4128 
Q 1478 4128 1200 3590 
Q 922 3053 922 2118 
Q 922 1229 1210 733 
Q 1498 237 1971 237 
Q 2470 237 2755 752 
Q 3040 1267 3040 2182 
z
" transform="scale(0.015625)"/>
        <path id="STZhongsong-31" d="M 2150 4358 
L 2387 4358 
L 2387 742 
Q 2387 422 2464 342 
Q 2541 262 2822 262 
L 3130 262 
L 3130 0 
L 1069 0 
L 1069 262 
L 1408 262 
Q 1670 262 1766 348 
Q 1862 435 1862 742 
L 1862 3718 
L 1069 3718 
L 1069 3987 
Q 1709 4070 2150 4358 
z
" transform="scale(0.015625)"/>
        <path id="STZhongsong-36" d="M 3238 4442 
L 3238 4154 
Q 2131 4141 1603 3686 
Q 1075 3232 1037 2227 
Q 1446 2893 2240 2893 
Q 2880 2893 3289 2486 
Q 3699 2080 3699 1440 
Q 3699 742 3257 332 
Q 2816 -77 2093 -77 
Q 1286 -77 848 444 
Q 410 966 410 1926 
Q 410 3046 1056 3744 
Q 1702 4442 2995 4442 
L 3238 4442 
z
M 3072 1414 
Q 3072 1933 2800 2246 
Q 2528 2560 2099 2560 
Q 1658 2560 1363 2224 
Q 1069 1888 1069 1402 
Q 1069 890 1350 550 
Q 1632 211 2074 211 
Q 2509 211 2790 544 
Q 3072 877 3072 1414 
z
" transform="scale(0.015625)"/>
       </defs>
       <use xlink:href="#STZhongsong-32"/>
       <use xlink:href="#STZhongsong-30" transform="translate(61.999985 0)"/>
       <use xlink:href="#STZhongsong-31" transform="translate(123.999969 0)"/>
       <use xlink:href="#STZhongsong-36" transform="translate(185.999954 0)"/>
      </g>
     </g>
    </g>
    <g id="xtick_2">
     <g id="line2d_2">
      <g>
       <use xlink:href="#m1ebce7ee0a" x="349.584275" y="404.980937" style="fill: #111111; stroke: #111111; stroke-width: 0.8"/>
      </g>
     </g>
     <g id="text_2">
      <!-- 2018 -->
      <g style="fill: #111111" transform="translate(330.984275 422.72) scale(0.15 -0.15)">
       <defs>
        <path id="STZhongsong-38" d="M 2477 2419 
Q 3021 2208 3315 1923 
Q 3610 1638 3610 1197 
Q 3610 659 3152 291 
Q 2694 -77 1971 -77 
Q 1274 -77 816 272 
Q 358 621 358 1120 
Q 358 1485 633 1779 
Q 909 2074 1440 2259 
Q 1011 2451 800 2691 
Q 589 2931 589 3315 
Q 589 3814 998 4124 
Q 1408 4435 2035 4435 
Q 2618 4435 2998 4134 
Q 3379 3834 3379 3424 
Q 3379 2790 2477 2419 
z
M 2189 2534 
Q 2451 2707 2662 2918 
Q 2874 3130 2874 3418 
Q 2874 3706 2621 3923 
Q 2368 4141 1971 4141 
Q 1594 4141 1331 3926 
Q 1069 3712 1069 3430 
Q 1069 3168 1270 2989 
Q 1472 2810 1824 2675 
L 2189 2534 
z
M 1747 2131 
Q 1325 1939 1088 1670 
Q 851 1402 851 1126 
Q 851 762 1177 490 
Q 1504 218 1984 218 
Q 2438 218 2774 483 
Q 3110 749 3110 1082 
Q 3110 1594 2253 1933 
L 1747 2131 
z
" transform="scale(0.015625)"/>
       </defs>
       <use xlink:href="#STZhongsong-32"/>
       <use xlink:href="#STZhongsong-30" transform="translate(61.999985 0)"/>
       <use xlink:href="#STZhongsong-31" transform="translate(123.999969 0)"/>
       <use xlink:href="#STZhongsong-38" transform="translate(185.999954 0)"/>
      </g>
     </g>
    </g>
    <g id="xtick_3">
     <g id="line2d_3">
      <g>
       <use xlink:href="#m1ebce7ee0a" x="497.211908" y="404.980937" style="fill: #111111; stroke: #111111; stroke-width: 0.8"/>
      </g>
     </g>
     <g id="text_3">
      <!-- 2020 -->
      <g style="fill: #111111" transform="translate(478.611908 422.72) scale(0.15 -0.15)">
       <use xlink:href="#STZhongsong-32"/>
       <use xlink:href="#STZhongsong-30" transform="translate(61.999985 0)"/>
       <use xlink:href="#STZhongsong-32" transform="translate(123.999969 0)"/>
       <use xlink:href="#STZhongsong-30" transform="translate(185.999954 0)"/>
      </g>
     </g>
    </g>
    <g id="xtick_4">
     <g id="line2d_4">
      <g>
       <use xlink:href="#m1ebce7ee0a" x="644.839542" y="404.980937" style="fill: #111111; stroke: #111111; stroke-width: 0.8"/>
      </g>
     </g>
     <g id="text_4">
      <!-- 2022 -->
      <g style="fill: #111111" transform="translate(626.239542 422.72) scale(0.15 -0.15)">
       <use xlink:href="#STZhongsong-32"/>
       <use xlink:href="#STZhongsong-30" transform="translate(61.999985 0)"/>
       <use xlink:href="#STZhongsong-32" transform="translate(123.999969 0)"/>
       <use xlink:href="#STZhongsong-32" transform="translate(185.999954 0)"/>
      </g>
     </g>
    </g>
    <g id="xtick_5">
     <g id="line2d_5">
      <g>
       <use xlink:href="#m1ebce7ee0a" x="792.467175" y="404.980937" style="fill: #111111; stroke: #111111; stroke-width: 0.8"/>
      </g>
     </g>
     <g id="text_5">
      <!-- 2024 -->
      <g style="fill: #111111" transform="translate(773.867175 422.72) scale(0.15 -0.15)">
       <defs>
        <path id="STZhongsong-34" d="M 3494 1242 
L 2906 1242 
L 2906 518 
Q 2906 275 3213 250 
L 3213 45 
L 1882 45 
L 1882 250 
Q 2054 262 2156 336 
Q 2259 410 2259 518 
L 2259 1242 
L 550 1242 
L 550 1658 
L 2483 4365 
L 2906 4365 
L 2906 1581 
L 3494 1581 
L 3494 1242 
z
M 2259 1581 
L 2259 3462 
L 902 1581 
L 2259 1581 
z
" transform="scale(0.015625)"/>
       </defs>
       <use xlink:href="#STZhongsong-32"/>
       <use xlink:href="#STZhongsong-30" transform="translate(61.999985 0)"/>
       <use xlink:href="#STZhongsong-32" transform="translate(123.999969 0)"/>
       <use xlink:href="#STZhongsong-34" transform="translate(185.999954 0)"/>
      </g>
     </g>
    </g>
    <g id="text_6">
     <!-- 首次进入年份 -->
     <g style="fill: #111111" transform="translate(409.305 442.570937) scale(0.17 -0.17)">
      <defs>
       <path id="STZhongsong-9996" d="M 2029 2611 
L 2675 2611 
Q 2771 2957 2835 3315 
L 602 3315 
Q 429 3315 333 3270 
L 218 3539 
Q 352 3507 538 3507 
L 3571 3507 
Q 3840 4083 4122 4890 
Q 4429 4781 4649 4688 
Q 4870 4595 4896 4569 
Q 4922 4544 4922 4512 
Q 4922 4435 4829 4422 
Q 4736 4410 4694 4384 
Q 4653 4358 4409 4083 
Q 4166 3808 3917 3507 
L 5069 3507 
L 5414 3968 
Q 5459 4032 5520 4032 
Q 5581 4032 5750 3878 
Q 5920 3725 6067 3597 
Q 6214 3469 6214 3392 
Q 6214 3315 6093 3315 
L 3558 3315 
Q 3302 3014 3072 2611 
L 4307 2611 
L 4493 2893 
Q 4525 2944 4579 2944 
Q 4634 2944 4838 2816 
L 5171 2605 
Q 5293 2522 5293 2454 
Q 5293 2387 5011 2266 
L 5011 -544 
Q 5011 -653 5018 -749 
L 5030 -902 
Q 5030 -941 4982 -969 
Q 4934 -998 4720 -1065 
Q 4506 -1133 4461 -1133 
Q 4416 -1133 4416 -1075 
L 4416 -474 
L 1939 -474 
L 1939 -890 
Q 1939 -954 1913 -976 
Q 1888 -998 1641 -1075 
Q 1395 -1152 1369 -1152 
Q 1344 -1152 1350 -1088 
Q 1376 -768 1376 -422 
L 1376 2419 
Q 1376 2797 1370 2874 
Q 1709 2790 2029 2611 
z
M 1939 1683 
L 4416 1683 
L 4416 2406 
L 1939 2406 
L 1939 1683 
z
M 4416 1472 
L 1939 1472 
L 1939 717 
L 4416 717 
L 4416 1472 
z
M 4416 -282 
L 4416 518 
L 1939 518 
L 1939 -282 
L 4416 -282 
z
M 1651 4813 
Q 2867 4499 2867 4083 
Q 2867 3917 2707 3734 
Q 2547 3552 2413 3552 
Q 2349 3552 2317 3581 
Q 2285 3610 2240 3738 
Q 2106 4141 1952 4333 
Q 1798 4525 1574 4685 
L 1651 4813 
z
" transform="scale(0.015625)"/>
       <path id="STZhongsong-6b21" d="M 3366 3213 
Q 2912 2298 2272 1523 
L 2150 1587 
Q 3021 3046 3322 4966 
Q 3526 4902 3798 4784 
Q 4070 4666 4108 4627 
Q 4147 4589 4147 4544 
Q 4147 4499 4048 4486 
Q 3949 4474 3904 4422 
Q 3859 4371 3760 4099 
Q 3661 3827 3469 3424 
L 5024 3424 
L 5267 3725 
Q 5338 3808 5376 3808 
Q 5440 3808 5737 3488 
Q 6035 3168 6035 3066 
Q 6035 3021 5996 3011 
Q 5958 3002 5772 3002 
Q 5587 3002 5392 2880 
Q 5197 2758 4742 2317 
L 4614 2394 
Q 4909 2854 5056 3213 
L 3366 3213 
z
M 787 4531 
Q 1517 4141 1725 3917 
Q 1933 3693 1933 3497 
Q 1933 3302 1789 3129 
Q 1645 2957 1498 2957 
Q 1421 2957 1379 3005 
Q 1338 3053 1312 3181 
Q 1210 3661 1078 3907 
Q 947 4154 704 4429 
L 787 4531 
z
M 2483 3469 
L 1786 1766 
Q 1658 1453 1613 1238 
Q 1568 1024 1568 768 
Q 1568 512 1600 198 
Q 1632 -115 1632 -224 
Q 1632 -672 1427 -672 
Q 1222 -672 1030 -531 
Q 838 -390 838 -205 
Q 838 -166 851 -128 
Q 1030 499 1030 748 
Q 1030 998 867 1107 
Q 704 1216 384 1306 
L 397 1427 
Q 666 1382 838 1382 
Q 1011 1382 1132 1446 
Q 1254 1510 1402 1773 
L 2381 3520 
L 2483 3469 
z
M 4115 2534 
Q 4083 2438 4083 2310 
Q 4013 768 3401 22 
Q 2790 -723 1581 -1101 
L 1523 -1005 
Q 2566 -512 3056 285 
Q 3546 1082 3603 3110 
Q 3917 3040 4131 2960 
Q 4346 2880 4384 2845 
Q 4422 2810 4422 2771 
Q 4422 2720 4342 2707 
Q 4262 2694 4218 2669 
Q 4422 1293 4864 553 
Q 5306 -186 6208 -672 
L 6182 -787 
Q 6016 -768 5888 -768 
Q 5613 -768 5370 -915 
Q 5325 -941 5293 -941 
Q 5158 -941 4672 -89 
Q 4186 762 4115 2534 
z
" transform="scale(0.015625)"/>
       <path id="STZhongsong-8fdb" d="M 1075 326 
L 1075 2163 
L 550 2163 
Q 378 2163 282 2118 
L 166 2374 
Q 301 2342 486 2342 
L 973 2342 
L 1133 2630 
Q 1197 2733 1270 2733 
Q 1344 2733 1613 2528 
Q 1882 2323 1882 2278 
Q 1882 2227 1613 2118 
L 1613 256 
Q 1798 6 1984 -109 
Q 2406 320 2611 739 
Q 2816 1158 2880 1722 
L 2170 1722 
Q 2003 1722 1901 1683 
L 1747 1933 
Q 1882 1901 2067 1901 
L 2899 1901 
Q 2938 2330 2938 3187 
L 2381 3187 
Q 2214 3187 2112 3149 
L 1958 3411 
Q 2093 3379 2278 3379 
L 2938 3379 
Q 2938 4026 2912 4838 
Q 3181 4787 3366 4726 
Q 3552 4666 3600 4643 
Q 3648 4621 3648 4589 
Q 3648 4557 3574 4518 
Q 3501 4480 3485 4413 
Q 3469 4346 3469 4090 
Q 3469 3834 3456 3379 
L 4250 3379 
L 4250 4333 
Q 4250 4653 4237 4902 
Q 4518 4858 4768 4774 
Q 5018 4691 5018 4630 
Q 5018 4570 4794 4474 
L 4794 3379 
L 5114 3379 
L 5338 3680 
Q 5395 3763 5462 3763 
Q 5530 3763 5779 3516 
Q 6029 3270 6029 3219 
Q 6029 3187 5888 3187 
L 4794 3187 
L 4794 1901 
L 5197 1901 
L 5478 2272 
Q 5536 2349 5590 2349 
Q 5645 2349 5907 2089 
Q 6170 1830 6170 1760 
Q 6170 1722 6016 1722 
L 4794 1722 
L 4794 678 
L 4806 58 
Q 4806 -32 4774 -64 
Q 4742 -96 4547 -173 
Q 4352 -250 4275 -250 
Q 4230 -250 4230 -160 
L 4243 102 
Q 4250 365 4250 678 
L 4250 1722 
L 3366 1722 
Q 3283 1050 3020 675 
Q 2758 301 2112 -179 
Q 2349 -307 3072 -326 
Q 3795 -346 4403 -346 
Q 5011 -346 6266 -294 
L 6259 -416 
Q 5946 -480 5779 -608 
Q 5613 -736 5594 -890 
Q 5587 -941 5568 -953 
Q 5549 -966 5485 -966 
Q 4762 -966 3904 -905 
Q 3046 -845 2656 -765 
Q 2266 -685 2038 -541 
Q 1811 -397 1574 -51 
Q 1440 141 1334 141 
Q 1229 141 1145 64 
Q 1062 -13 896 -246 
Q 730 -480 595 -742 
Q 563 -806 544 -806 
Q 525 -806 403 -627 
Q 282 -448 154 -218 
Q 838 237 1075 326 
z
M 3392 1901 
L 4250 1901 
L 4250 3187 
L 3456 3187 
Q 3430 2310 3392 1901 
z
M 730 4768 
Q 1254 4576 1555 4390 
Q 1856 4205 1856 3984 
Q 1856 3763 1747 3561 
Q 1638 3360 1504 3360 
Q 1421 3360 1379 3408 
Q 1338 3456 1235 3760 
Q 1133 4064 1005 4262 
Q 877 4461 666 4672 
L 730 4768 
z
" transform="scale(0.015625)"/>
       <path id="STZhongsong-5165" d="M 2925 3693 
Q 2547 3994 1658 4154 
Q 1549 4173 1549 4205 
Q 1549 4250 2054 4691 
Q 2675 4307 2934 4105 
Q 3194 3904 3331 3686 
Q 3469 3469 3622 3046 
Q 4096 1728 4390 1225 
Q 4685 723 5155 304 
Q 5626 -115 6138 -333 
L 6138 -461 
Q 6048 -454 5920 -454 
Q 5792 -454 5645 -499 
Q 5498 -544 5267 -717 
Q 5197 -768 5155 -768 
Q 5114 -768 5075 -730 
L 4864 -493 
Q 4685 -294 4422 96 
Q 4160 486 4003 905 
Q 3846 1325 3597 2099 
L 3315 2976 
Q 2784 1555 2205 793 
Q 1626 32 429 -838 
L 339 -723 
Q 1427 211 1993 1187 
Q 2560 2163 2925 3693 
z
" transform="scale(0.015625)"/>
       <path id="STZhongsong-5e74" d="M 1939 3827 
L 4794 3827 
L 5082 4237 
Q 5133 4314 5171 4314 
Q 5210 4314 5328 4224 
Q 5446 4134 5612 3993 
Q 5779 3853 5840 3789 
Q 5901 3725 5901 3686 
Q 5901 3616 5811 3616 
L 3744 3616 
L 3744 2496 
L 4474 2496 
L 4736 2874 
Q 4787 2938 4822 2938 
Q 4858 2938 4970 2858 
Q 5082 2778 5232 2643 
Q 5382 2509 5414 2461 
Q 5446 2413 5446 2368 
Q 5446 2272 5350 2272 
L 3744 2272 
L 3744 1043 
L 5254 1043 
L 5542 1427 
Q 5587 1485 5654 1485 
Q 5722 1485 6013 1213 
Q 6304 941 6304 883 
Q 6304 826 6195 826 
L 3744 826 
Q 3744 19 3750 -294 
L 3763 -864 
Q 3763 -909 3731 -941 
Q 3699 -973 3475 -1056 
Q 3251 -1139 3203 -1139 
Q 3155 -1139 3155 -1037 
L 3168 -390 
Q 3174 -38 3174 826 
L 653 826 
Q 480 826 384 781 
L 269 1075 
Q 403 1043 589 1043 
L 1498 1043 
L 1498 2170 
Q 1498 2643 1485 2739 
Q 1856 2630 2138 2496 
L 3174 2496 
L 3174 3616 
L 1798 3616 
Q 1440 3046 1136 2713 
Q 832 2381 339 1984 
L 243 2086 
Q 1261 3174 1741 4909 
Q 2259 4704 2400 4611 
Q 2541 4518 2541 4457 
Q 2541 4397 2435 4384 
Q 2330 4371 2253 4288 
Q 2176 4205 1939 3827 
z
M 3174 2272 
L 2054 2272 
L 2054 1043 
L 3174 1043 
L 3174 2272 
z
" transform="scale(0.015625)"/>
       <path id="STZhongsong-4efd" d="M 1190 2470 
Q 736 1830 237 1389 
L 141 1472 
Q 1158 2701 1702 4838 
Q 1894 4768 2115 4672 
Q 2336 4576 2374 4544 
Q 2413 4512 2413 4477 
Q 2413 4442 2326 4419 
Q 2240 4397 2205 4345 
Q 2170 4294 2099 4115 
Q 1888 3578 1530 2982 
Q 1837 2912 1837 2842 
Q 1837 2803 1709 2720 
L 1709 -806 
Q 1709 -883 1670 -928 
Q 1632 -973 1453 -1049 
Q 1274 -1126 1219 -1126 
Q 1165 -1126 1165 -1056 
L 1178 -563 
Q 1190 -262 1190 70 
L 1190 2470 
z
M 6272 2355 
L 6259 2227 
Q 6170 2240 6099 2240 
Q 5786 2240 5658 1971 
Q 5638 1926 5587 1926 
Q 5408 1926 4813 2630 
Q 4218 3334 4102 4806 
Q 4742 4742 4742 4627 
Q 4742 4589 4672 4570 
Q 4467 4518 4467 4323 
Q 4467 4128 4636 3712 
Q 4806 3296 5209 2925 
Q 5613 2554 6272 2355 
z
M 3174 4506 
Q 3635 4346 3753 4285 
Q 3872 4224 3872 4182 
Q 3872 4141 3753 4105 
Q 3635 4070 3546 3834 
Q 3034 2477 1888 1421 
L 1798 1491 
Q 2765 2810 3174 4506 
z
M 3232 1920 
L 3072 1920 
Q 2906 1920 2803 1875 
L 2662 2157 
Q 2797 2125 2982 2125 
L 4461 2125 
L 4614 2330 
Q 4659 2381 4704 2381 
Q 4749 2381 4937 2246 
Q 5126 2112 5212 2041 
Q 5299 1971 5299 1920 
Q 5299 1869 5139 1760 
Q 5114 1011 5066 432 
Q 5018 -147 4966 -355 
Q 4915 -563 4796 -700 
Q 4678 -838 4451 -944 
Q 4224 -1050 4169 -1050 
Q 4115 -1050 4090 -966 
Q 4038 -774 3856 -640 
Q 3674 -506 3328 -378 
L 3373 -243 
Q 3910 -384 4076 -384 
Q 4243 -384 4307 -326 
Q 4371 -269 4432 -73 
Q 4493 122 4528 541 
Q 4563 960 4576 1920 
L 3782 1920 
Q 3738 730 3389 125 
Q 3040 -480 1946 -1094 
L 1869 -1011 
Q 2669 -358 2934 237 
Q 3200 832 3232 1920 
z
" transform="scale(0.015625)"/>
      </defs>
      <use xlink:href="#STZhongsong-9996"/>
      <use xlink:href="#STZhongsong-6b21" transform="translate(99.999985 0)"/>
      <use xlink:href="#STZhongsong-8fdb" transform="translate(199.999969 0)"/>
      <use xlink:href="#STZhongsong-5165" transform="translate(299.999954 0)"/>
      <use xlink:href="#STZhongsong-5e74" transform="translate(399.999939 0)"/>
      <use xlink:href="#STZhongsong-4efd" transform="translate(499.999924 0)"/>
     </g>
    </g>
   </g>
   <g id="matplotlib.axis_2">
    <g id="ytick_1">
     <g id="line2d_6">
      <path d="M 71.38 404.980937 
L 849.23 404.980937 
" clip-path="url(#p923366f432)" style="fill: none; stroke: #ececec; stroke-width: 0.9; stroke-linecap: square"/>
     </g>
     <g id="line2d_7">
      <defs>
       <path id="m4c62e3d674" d="M 0 0 
L -3.5 0 
" style="stroke: #111111; stroke-width: 0.8"/>
      </defs>
      <g>
       <use xlink:href="#m4c62e3d674" x="71.38" y="404.980937" style="fill: #111111; stroke: #111111; stroke-width: 0.8"/>
      </g>
     </g>
     <g id="text_7">
      <!-- 0 -->
      <g style="fill: #111111" transform="translate(55.08 410.350469) scale(0.15 -0.15)">
       <use xlink:href="#STZhongsong-30"/>
      </g>
     </g>
    </g>
    <g id="ytick_2">
     <g id="line2d_8">
      <path d="M 71.38 361.398879 
L 849.23 361.398879 
" clip-path="url(#p923366f432)" style="fill: none; stroke: #ececec; stroke-width: 0.9; stroke-linecap: square"/>
     </g>
     <g id="line2d_9">
      <g>
       <use xlink:href="#m4c62e3d674" x="71.38" y="361.398879" style="fill: #111111; stroke: #111111; stroke-width: 0.8"/>
      </g>
     </g>
     <g id="text_8">
      <!-- 500 -->
      <g style="fill: #111111" transform="translate(36.48 366.76841) scale(0.15 -0.15)">
       <defs>
        <path id="STZhongsong-35" d="M 934 4358 
L 2880 4358 
Q 3046 4358 3097 4387 
Q 3149 4416 3155 4512 
L 3386 4512 
L 3386 3853 
L 1229 3853 
L 1171 2752 
Q 1530 2848 1990 2848 
Q 2771 2848 3228 2451 
Q 3686 2054 3686 1414 
Q 3686 787 3212 355 
Q 2739 -77 2029 -77 
Q 1414 -77 982 236 
Q 550 550 550 890 
Q 550 1037 640 1123 
Q 730 1210 838 1210 
Q 1062 1210 1203 813 
Q 1421 218 2042 218 
Q 2515 218 2819 528 
Q 3123 838 3123 1312 
Q 3123 1824 2777 2128 
Q 2432 2432 1843 2432 
Q 1280 2432 832 2246 
L 934 4358 
z
" transform="scale(0.015625)"/>
       </defs>
       <use xlink:href="#STZhongsong-35"/>
       <use xlink:href="#STZhongsong-30" transform="translate(61.999985 0)"/>
       <use xlink:href="#STZhongsong-30" transform="translate(123.999969 0)"/>
      </g>
     </g>
    </g>
    <g id="ytick_3">
     <g id="line2d_10">
      <path d="M 71.38 317.81682 
L 849.23 317.81682 
" clip-path="url(#p923366f432)" style="fill: none; stroke: #ececec; stroke-width: 0.9; stroke-linecap: square"/>
     </g>
     <g id="line2d_11">
      <g>
       <use xlink:href="#m4c62e3d674" x="71.38" y="317.81682" style="fill: #111111; stroke: #111111; stroke-width: 0.8"/>
      </g>
     </g>
     <g id="text_9">
      <!-- 1000 -->
      <g style="fill: #111111" transform="translate(27.18 323.186351) scale(0.15 -0.15)">
       <use xlink:href="#STZhongsong-31"/>
       <use xlink:href="#STZhongsong-30" transform="translate(61.999985 0)"/>
       <use xlink:href="#STZhongsong-30" transform="translate(123.999969 0)"/>
       <use xlink:href="#STZhongsong-30" transform="translate(185.999954 0)"/>
      </g>
     </g>
    </g>
    <g id="ytick_4">
     <g id="line2d_12">
      <path d="M 71.38 274.234761 
L 849.23 274.234761 
" clip-path="url(#p923366f432)" style="fill: none; stroke: #ececec; stroke-width: 0.9; stroke-linecap: square"/>
     </g>
     <g id="line2d_13">
      <g>
       <use xlink:href="#m4c62e3d674" x="71.38" y="274.234761" style="fill: #111111; stroke: #111111; stroke-width: 0.8"/>
      </g>
     </g>
     <g id="text_10">
      <!-- 1500 -->
      <g style="fill: #111111" transform="translate(27.18 279.604292) scale(0.15 -0.15)">
       <use xlink:href="#STZhongsong-31"/>
       <use xlink:href="#STZhongsong-35" transform="translate(61.999985 0)"/>
       <use xlink:href="#STZhongsong-30" transform="translate(123.999969 0)"/>
       <use xlink:href="#STZhongsong-30" transform="translate(185.999954 0)"/>
      </g>
     </g>
    </g>
    <g id="ytick_5">
     <g id="line2d_14">
      <path d="M 71.38 230.652702 
L 849.23 230.652702 
" clip-path="url(#p923366f432)" style="fill: none; stroke: #ececec; stroke-width: 0.9; stroke-linecap: square"/>
     </g>
     <g id="line2d_15">
      <g>
       <use xlink:href="#m4c62e3d674" x="71.38" y="230.652702" style="fill: #111111; stroke: #111111; stroke-width: 0.8"/>
      </g>
     </g>
     <g id="text_11">
      <!-- 2000 -->
      <g style="fill: #111111" transform="translate(27.18 236.022233) scale(0.15 -0.15)">
       <use xlink:href="#STZhongsong-32"/>
       <use xlink:href="#STZhongsong-30" transform="translate(61.999985 0)"/>
       <use xlink:href="#STZhongsong-30" transform="translate(123.999969 0)"/>
       <use xlink:href="#STZhongsong-30" transform="translate(185.999954 0)"/>
      </g>
     </g>
    </g>
    <g id="ytick_6">
     <g id="line2d_16">
      <path d="M 71.38 187.070643 
L 849.23 187.070643 
" clip-path="url(#p923366f432)" style="fill: none; stroke: #ececec; stroke-width: 0.9; stroke-linecap: square"/>
     </g>
     <g id="line2d_17">
      <g>
       <use xlink:href="#m4c62e3d674" x="71.38" y="187.070643" style="fill: #111111; stroke: #111111; stroke-width: 0.8"/>
      </g>
     </g>
     <g id="text_12">
      <!-- 2500 -->
      <g style="fill: #111111" transform="translate(27.18 192.440174) scale(0.15 -0.15)">
       <use xlink:href="#STZhongsong-32"/>
       <use xlink:href="#STZhongsong-35" transform="translate(61.999985 0)"/>
       <use xlink:href="#STZhongsong-30" transform="translate(123.999969 0)"/>
       <use xlink:href="#STZhongsong-30" transform="translate(185.999954 0)"/>
      </g>
     </g>
    </g>
    <g id="ytick_7">
     <g id="line2d_18">
      <path d="M 71.38 143.488584 
L 849.23 143.488584 
" clip-path="url(#p923366f432)" style="fill: none; stroke: #ececec; stroke-width: 0.9; stroke-linecap: square"/>
     </g>
     <g id="line2d_19">
      <g>
       <use xlink:href="#m4c62e3d674" x="71.38" y="143.488584" style="fill: #111111; stroke: #111111; stroke-width: 0.8"/>
      </g>
     </g>
     <g id="text_13">
      <!-- 3000 -->
      <g style="fill: #111111" transform="translate(27.18 148.858115) scale(0.15 -0.15)">
       <defs>
        <path id="STZhongsong-33" d="M 934 3194 
L 634 3238 
Q 717 3827 1097 4131 
Q 1478 4435 2061 4435 
Q 2662 4435 3046 4124 
Q 3430 3814 3430 3360 
Q 3430 3021 3190 2761 
Q 2950 2502 2502 2374 
Q 3046 2298 3334 1974 
Q 3622 1651 3622 1222 
Q 3622 698 3155 310 
Q 2688 -77 1997 -77 
Q 1299 -77 844 275 
Q 390 627 390 960 
Q 390 1114 505 1184 
Q 621 1254 710 1254 
Q 922 1254 1043 858 
Q 1133 544 1369 377 
Q 1606 211 1952 211 
Q 2419 211 2720 512 
Q 3021 813 3021 1267 
Q 3021 1702 2717 1952 
Q 2413 2202 1862 2202 
L 1568 2202 
L 1568 2502 
L 1754 2502 
Q 2829 2502 2829 3283 
Q 2829 3629 2592 3843 
Q 2355 4058 1952 4058 
Q 1107 4058 934 3194 
z
" transform="scale(0.015625)"/>
       </defs>
       <use xlink:href="#STZhongsong-33"/>
       <use xlink:href="#STZhongsong-30" transform="translate(61.999985 0)"/>
       <use xlink:href="#STZhongsong-30" transform="translate(123.999969 0)"/>
       <use xlink:href="#STZhongsong-30" transform="translate(185.999954 0)"/>
      </g>
     </g>
    </g>
    <g id="ytick_8">
     <g id="line2d_20">
      <path d="M 71.38 99.906525 
L 849.23 99.906525 
" clip-path="url(#p923366f432)" style="fill: none; stroke: #ececec; stroke-width: 0.9; stroke-linecap: square"/>
     </g>
     <g id="line2d_21">
      <g>
       <use xlink:href="#m4c62e3d674" x="71.38" y="99.906525" style="fill: #111111; stroke: #111111; stroke-width: 0.8"/>
      </g>
     </g>
     <g id="text_14">
      <!-- 3500 -->
      <g style="fill: #111111" transform="translate(27.18 105.276057) scale(0.15 -0.15)">
       <use xlink:href="#STZhongsong-33"/>
       <use xlink:href="#STZhongsong-35" transform="translate(61.999985 0)"/>
       <use xlink:href="#STZhongsong-30" transform="translate(123.999969 0)"/>
       <use xlink:href="#STZhongsong-30" transform="translate(185.999954 0)"/>
      </g>
     </g>
    </g>
    <g id="ytick_9">
     <g id="line2d_22">
      <path d="M 71.38 56.324466 
L 849.23 56.324466 
" clip-path="url(#p923366f432)" style="fill: none; stroke: #ececec; stroke-width: 0.9; stroke-linecap: square"/>
     </g>
     <g id="line2d_23">
      <g>
       <use xlink:href="#m4c62e3d674" x="71.38" y="56.324466" style="fill: #111111; stroke: #111111; stroke-width: 0.8"/>
      </g>
     </g>
     <g id="text_15">
      <!-- 4000 -->
      <g style="fill: #111111" transform="translate(27.18 61.693998) scale(0.15 -0.15)">
       <use xlink:href="#STZhongsong-34"/>
       <use xlink:href="#STZhongsong-30" transform="translate(61.999985 0)"/>
       <use xlink:href="#STZhongsong-30" transform="translate(123.999969 0)"/>
       <use xlink:href="#STZhongsong-30" transform="translate(185.999954 0)"/>
      </g>
     </g>
    </g>
    <g id="text_16">
     <!-- 企业数量 -->
     <g style="fill: #111111" transform="translate(19.78 256.027812) rotate(-90) scale(0.17 -0.17)">
      <defs>
       <path id="STZhongsong-4f01" d="M 3232 4314 
Q 3174 4243 3130 4160 
Q 2726 3469 2377 3046 
Q 2029 2624 1542 2272 
Q 1056 1920 218 1459 
L 154 1562 
Q 1139 2291 1696 2979 
Q 2253 3667 2771 4832 
Q 3482 4576 3482 4506 
Q 3482 4467 3341 4410 
Q 4179 3034 6259 2554 
L 6246 2432 
Q 5946 2432 5786 2371 
Q 5626 2310 5472 2112 
Q 5427 2061 5389 2061 
Q 5318 2061 4774 2432 
Q 4230 2803 3852 3251 
Q 3475 3699 3232 4314 
z
M 3558 1414 
L 4179 1414 
L 4429 1754 
Q 4486 1830 4557 1830 
Q 4614 1830 4761 1721 
Q 4909 1613 5056 1472 
Q 5203 1331 5203 1286 
Q 5203 1216 5062 1216 
L 3558 1216 
L 3558 -461 
L 4870 -461 
L 5171 -45 
Q 5235 45 5280 45 
Q 5344 45 5696 -240 
Q 6048 -525 6048 -598 
Q 6048 -672 5933 -672 
L 723 -672 
Q 550 -672 454 -717 
L 339 -429 
Q 474 -461 659 -461 
L 1466 -461 
L 1466 1370 
Q 1466 1690 1453 1939 
Q 1971 1805 2076 1763 
Q 2182 1722 2182 1677 
Q 2182 1632 2016 1549 
L 2016 -461 
L 3034 -461 
L 3034 2413 
Q 3034 2733 3021 2982 
Q 3360 2899 3568 2816 
Q 3776 2733 3776 2682 
Q 3776 2611 3558 2502 
L 3558 1414 
z
" transform="scale(0.015625)"/>
       <path id="STZhongsong-4e1a" d="M 3552 -422 
L 3552 4154 
Q 3552 4646 3539 4755 
Q 3821 4698 4096 4608 
Q 4371 4518 4371 4448 
Q 4371 4378 4096 4243 
L 4096 768 
Q 4659 1626 5158 3341 
Q 5747 3053 5843 2989 
Q 5939 2925 5939 2873 
Q 5939 2822 5818 2810 
Q 5766 2803 5731 2771 
Q 5696 2739 5619 2618 
Q 4813 1210 4096 442 
L 4096 -422 
L 5056 -422 
L 5370 -26 
Q 5440 58 5485 58 
Q 5530 58 5616 -16 
Q 5702 -90 5862 -240 
Q 6022 -390 6092 -476 
Q 6163 -563 6163 -608 
Q 6163 -653 6048 -653 
L 640 -653 
Q 499 -653 416 -685 
L 282 -390 
Q 384 -422 538 -422 
L 2278 -422 
L 2278 4115 
Q 2278 4608 2266 4717 
Q 2886 4576 3001 4531 
Q 3117 4486 3117 4422 
Q 3117 4358 2822 4256 
L 2822 -422 
L 3552 -422 
z
M 787 3181 
Q 1357 2458 1645 2000 
Q 1933 1542 1933 1273 
Q 1933 1005 1757 758 
Q 1581 512 1434 512 
Q 1363 512 1340 557 
Q 1318 602 1318 781 
Q 1318 1754 698 3104 
L 787 3181 
z
" transform="scale(0.015625)"/>
       <path id="STZhongsong-6570" d="M 2394 3334 
L 2938 3334 
L 3136 3616 
Q 3181 3680 3245 3680 
Q 3309 3680 3520 3462 
Q 3731 3245 3731 3193 
Q 3731 3142 3610 3142 
L 2394 3142 
L 2394 3027 
Q 2784 2938 3069 2819 
Q 3354 2701 3354 2515 
Q 3354 2381 3296 2227 
Q 3238 2074 3171 2074 
Q 3104 2074 3069 2109 
Q 3034 2144 2963 2259 
Q 2893 2374 2720 2556 
Q 2547 2739 2394 2854 
Q 2406 2381 2406 2259 
Q 2406 2138 2393 2099 
Q 2381 2061 2217 2006 
Q 2054 1952 1971 1933 
Q 2291 1811 2291 1722 
Q 2291 1670 2227 1660 
Q 2163 1651 2118 1609 
Q 2074 1568 1990 1434 
L 2637 1434 
L 2803 1619 
Q 2854 1677 2892 1677 
Q 2931 1677 3190 1481 
Q 3450 1286 3450 1228 
Q 3450 1171 3338 1148 
Q 3226 1126 3168 1088 
Q 3110 1050 3053 941 
Q 2848 563 2637 307 
Q 3040 205 3133 38 
Q 3226 -128 3226 -262 
Q 3226 -397 3187 -467 
Q 3149 -538 3101 -538 
Q 3053 -538 2816 -378 
Q 2579 -218 2278 -51 
Q 1664 -589 384 -992 
L 333 -877 
Q 1338 -371 1875 141 
Q 1440 326 845 474 
Q 1184 954 1331 1222 
L 691 1222 
Q 518 1222 422 1190 
L 307 1453 
Q 410 1434 627 1434 
L 1440 1434 
Q 1626 1824 1690 2035 
Q 1818 1997 1869 1978 
Q 1888 2515 1888 2874 
Q 1421 2125 282 1613 
L 243 1715 
Q 1075 2330 1549 3142 
L 589 3142 
Q 467 3142 390 3110 
L 301 3366 
Q 416 3334 550 3334 
L 1888 3334 
L 1888 4147 
Q 1888 4698 1875 4877 
Q 2592 4723 2592 4653 
Q 2592 4608 2394 4499 
L 2394 3334 
z
M 1856 1222 
L 1427 570 
Q 1914 480 2138 429 
Q 2413 762 2630 1222 
L 1856 1222 
z
M 4326 3270 
L 5222 3270 
L 5485 3590 
Q 5549 3661 5609 3661 
Q 5670 3661 5939 3421 
Q 6208 3181 6208 3117 
Q 6208 3072 6054 3072 
L 5050 3072 
Q 5638 2925 5638 2810 
Q 5638 2771 5542 2742 
Q 5446 2714 5404 2643 
Q 5363 2573 5338 2438 
Q 5088 1069 4749 518 
Q 5261 -186 6304 -646 
L 6246 -774 
Q 6080 -730 5933 -730 
Q 5658 -730 5446 -902 
Q 5389 -947 5363 -947 
Q 5299 -947 4934 -534 
Q 4570 -122 4448 102 
Q 4115 -301 3657 -579 
Q 3200 -858 2470 -1139 
L 2413 -1005 
Q 3642 -307 4211 544 
Q 3942 1152 3878 2342 
Q 3654 1946 3322 1491 
L 3213 1555 
Q 3949 2963 4109 4877 
Q 4333 4832 4563 4761 
Q 4794 4691 4858 4649 
Q 4922 4608 4922 4563 
Q 4922 4518 4813 4492 
Q 4704 4467 4653 4384 
Q 4602 4301 4538 3974 
Q 4474 3648 4326 3270 
z
M 4870 3072 
L 4250 3072 
L 4064 2682 
Q 4141 1594 4454 979 
Q 4723 1619 4870 3072 
z
M 3104 4602 
Q 3264 4525 3453 4422 
Q 3642 4320 3670 4288 
Q 3699 4256 3699 4221 
Q 3699 4186 3673 4170 
Q 3648 4154 3539 4154 
Q 3430 4154 3315 4038 
Q 2957 3680 2528 3392 
L 2464 3488 
Q 2906 4102 3104 4602 
z
M 653 4512 
Q 1171 4326 1353 4201 
Q 1536 4077 1536 3901 
Q 1536 3725 1453 3590 
Q 1370 3456 1286 3456 
Q 1203 3456 1164 3494 
Q 1126 3533 1084 3673 
Q 1043 3814 899 4038 
Q 755 4262 589 4429 
L 653 4512 
z
" transform="scale(0.015625)"/>
       <path id="STZhongsong-91cf" d="M 2054 4480 
L 4410 4480 
L 4576 4691 
Q 4608 4730 4640 4730 
Q 4691 4730 4969 4582 
Q 5248 4435 5248 4368 
Q 5248 4301 5024 4198 
L 5024 3738 
Q 5024 3552 5037 3341 
L 5043 3142 
Q 5043 3098 5030 3075 
Q 5018 3053 4922 2992 
Q 4826 2931 4685 2876 
Q 4544 2822 4509 2822 
Q 4474 2822 4474 2880 
L 4474 3046 
L 2016 3046 
Q 2029 2989 2006 2960 
Q 1984 2931 1897 2886 
Q 1811 2842 1660 2797 
Q 1510 2752 1475 2752 
Q 1440 2752 1446 2822 
Q 1478 3130 1478 3456 
L 1478 4198 
Q 1478 4467 1459 4742 
Q 1830 4608 2054 4480 
z
M 4474 3853 
L 4474 4294 
L 2016 4294 
L 2016 3853 
L 4474 3853 
z
M 4474 3213 
L 4474 3674 
L 2016 3674 
L 2016 3213 
L 4474 3213 
z
M 5171 2675 
L 5395 3040 
Q 5434 3110 5491 3110 
Q 5549 3110 5690 2989 
L 5984 2746 
Q 6138 2618 6138 2560 
Q 6138 2502 5990 2502 
L 640 2502 
Q 467 2502 371 2458 
L 256 2707 
Q 390 2675 576 2675 
L 5171 2675 
z
M 3482 672 
L 3482 166 
L 4666 166 
L 4864 416 
Q 4902 474 4950 474 
Q 4998 474 5251 285 
Q 5504 96 5504 38 
Q 5504 -19 5286 -19 
L 3482 -19 
L 3482 -550 
L 5203 -550 
L 5434 -230 
Q 5485 -160 5542 -160 
Q 5600 -160 5865 -390 
Q 6131 -621 6131 -691 
Q 6131 -736 5965 -736 
L 582 -736 
Q 410 -736 314 -781 
L 198 -518 
Q 333 -550 518 -550 
L 2931 -550 
L 2931 -19 
L 1274 -19 
Q 1101 -19 1005 -64 
L 877 198 
Q 1011 166 1197 166 
L 2931 166 
L 2931 672 
L 1843 672 
Q 1843 589 1824 569 
Q 1805 550 1725 505 
Q 1645 461 1481 413 
Q 1318 365 1296 365 
Q 1274 365 1280 422 
Q 1312 717 1312 1050 
L 1312 1747 
Q 1312 2074 1293 2355 
Q 1715 2253 1926 2150 
L 4544 2150 
L 4685 2362 
Q 4717 2413 4765 2413 
Q 4813 2413 4944 2333 
Q 5075 2253 5209 2157 
Q 5344 2061 5344 2029 
Q 5344 1971 5126 1850 
L 5126 1363 
Q 5126 1056 5133 954 
L 5139 762 
Q 5139 704 5091 669 
Q 5043 634 4880 592 
Q 4717 550 4627 550 
Q 4576 550 4576 627 
L 4576 672 
L 3482 672 
z
M 2931 1510 
L 2931 1978 
L 1843 1978 
L 1843 1510 
L 2931 1510 
z
M 3482 1978 
L 3482 1510 
L 4576 1510 
L 4576 1978 
L 3482 1978 
z
M 3482 1312 
L 3482 858 
L 4576 858 
L 4576 1312 
L 3482 1312 
z
M 2931 858 
L 2931 1312 
L 1843 1312 
L 1843 858 
L 2931 858 
z
" transform="scale(0.015625)"/>
      </defs>
      <use xlink:href="#STZhongsong-4f01"/>
      <use xlink:href="#STZhongsong-4e1a" transform="translate(99.999985 0)"/>
      <use xlink:href="#STZhongsong-6570" transform="translate(199.999969 0)"/>
      <use xlink:href="#STZhongsong-91cf" transform="translate(299.999954 0)"/>
     </g>
    </g>
   </g>
   <g id="patch_13">
    <path d="M 71.38 404.980937 
L 71.38 39.074687 
" style="fill: none; stroke: #111111; stroke-width: 1.35; stroke-linejoin: miter; stroke-linecap: square"/>
   </g>
   <g id="patch_14">
    <path d="M 71.38 404.980937 
L 849.23 404.980937 
" style="fill: none; stroke: #111111; stroke-width: 1.35; stroke-linejoin: miter; stroke-linecap: square"/>
   </g>
   <g id="text_17">
    <!-- 企业首次进入年份分布 -->
    <g style="fill: #111111" transform="translate(355.305 23.074687) scale(0.21 -0.21)">
     <defs>
      <path id="STZhongsong-5206" d="M 6170 2214 
L 6144 2067 
Q 5805 2086 5670 2019 
Q 5536 1952 5414 1754 
Q 5382 1696 5325 1696 
Q 5146 1696 4518 2473 
Q 3891 3251 3603 4851 
Q 3808 4826 4013 4784 
Q 4218 4742 4256 4713 
Q 4294 4685 4294 4643 
Q 4294 4602 4188 4563 
Q 4083 4525 4083 4384 
Q 4083 4179 4297 3683 
Q 4512 3187 4976 2784 
Q 5440 2381 6170 2214 
z
M 2298 4736 
Q 2982 4326 2982 4224 
Q 2982 4173 2876 4153 
Q 2771 4134 2720 4083 
Q 2669 4032 2579 3853 
Q 2163 3008 1648 2435 
Q 1133 1862 314 1306 
L 237 1395 
Q 1651 2694 2298 4736 
z
M 2272 1965 
L 1875 1965 
Q 1709 1965 1606 1920 
L 1491 2202 
Q 1626 2170 1811 2170 
L 4013 2170 
L 4134 2374 
Q 4173 2438 4211 2438 
Q 4250 2438 4534 2256 
Q 4819 2074 4819 2029 
Q 4819 1984 4640 1920 
Q 4608 1037 4563 512 
Q 4518 -13 4454 -243 
Q 4390 -474 4252 -656 
Q 4115 -838 3888 -956 
Q 3661 -1075 3545 -1075 
Q 3430 -1075 3424 -941 
Q 3405 -672 3216 -509 
Q 3027 -346 2650 -205 
L 2694 -83 
Q 3398 -250 3590 -250 
Q 3757 -250 3827 -131 
Q 3898 -13 3968 435 
Q 4038 883 4070 1965 
L 2880 1965 
Q 2714 634 2218 19 
Q 1722 -595 512 -1107 
L 474 -998 
Q 1440 -435 1817 169 
Q 2195 774 2272 1965 
z
" transform="scale(0.015625)"/>
      <path id="STZhongsong-5e03" d="M 2291 3450 
L 742 3450 
Q 589 3450 467 3418 
L 352 3725 
Q 486 3693 672 3693 
L 2400 3693 
Q 2656 4307 2803 4954 
Q 3053 4896 3293 4809 
Q 3533 4723 3597 4678 
Q 3661 4634 3661 4589 
Q 3661 4518 3501 4493 
Q 3443 4486 3404 4448 
Q 3366 4410 3270 4170 
Q 3174 3930 3059 3693 
L 5005 3693 
L 5293 4102 
Q 5363 4205 5424 4205 
Q 5485 4205 5549 4141 
L 5779 3910 
Q 5939 3744 6006 3635 
Q 6074 3526 6074 3488 
Q 6074 3450 5965 3450 
L 2938 3450 
Q 2624 2842 2202 2323 
L 2278 2285 
L 3168 2285 
L 3168 2688 
Q 3168 3008 3155 3258 
Q 3936 3130 3936 3027 
Q 3936 2970 3731 2893 
L 3731 2285 
L 4794 2285 
L 4922 2515 
Q 4960 2592 5008 2592 
Q 5056 2592 5277 2473 
Q 5498 2355 5603 2278 
Q 5709 2202 5709 2157 
Q 5709 2080 5440 1965 
L 5440 557 
Q 5440 198 5379 60 
Q 5318 -77 5043 -224 
Q 4768 -371 4704 -371 
Q 4640 -371 4614 -256 
Q 4563 -32 4444 93 
Q 4326 218 3949 403 
L 3987 531 
Q 4499 378 4611 378 
Q 4723 378 4761 410 
Q 4800 442 4800 570 
L 4800 2074 
L 3731 2074 
L 3731 -211 
L 3744 -845 
Q 3744 -928 3696 -963 
Q 3648 -998 3475 -1049 
Q 3302 -1101 3200 -1101 
Q 3149 -1101 3149 -1011 
L 3155 -717 
Q 3168 -422 3168 -179 
L 3168 2074 
L 2208 2074 
L 2208 -154 
Q 2208 -262 2160 -300 
Q 2112 -339 1933 -390 
Q 1754 -442 1638 -442 
Q 1581 -442 1581 -365 
L 1594 -6 
Q 1600 218 1600 480 
L 1600 1670 
Q 1101 1190 269 614 
L 192 710 
Q 1030 1446 1600 2246 
Q 1594 2483 1587 2573 
Q 1658 2554 1773 2502 
Q 2074 2970 2291 3450 
z
" transform="scale(0.015625)"/>
     </defs>
     <use xlink:href="#STZhongsong-4f01"/>
     <use xlink:href="#STZhongsong-4e1a" transform="translate(99.999985 0)"/>
     <use xlink:href="#STZhongsong-9996" transform="translate(199.999969 0)"/>
     <use xlink:href="#STZhongsong-6b21" transform="translate(299.999954 0)"/>
     <use xlink:href="#STZhongsong-8fdb" transform="translate(399.999939 0)"/>
     <use xlink:href="#STZhongsong-5165" transform="translate(499.999924 0)"/>
     <use xlink:href="#STZhongsong-5e74" transform="translate(599.999908 0)"/>
     <use xlink:href="#STZhongsong-4efd" transform="translate(699.999893 0)"/>
     <use xlink:href="#STZhongsong-5206" transform="translate(799.999878 0)"/>
     <use xlink:href="#STZhongsong-5e03" transform="translate(899.999863 0)"/>
    </g>
   </g>
  </g>
 </g>
 <defs>
  <clipPath id="p923366f432">
   <rect x="71.38" y="39.074687" width="777.85" height="365.90625"/>
  </clipPath>
 </defs>
</svg>
