<?xml version="1.0" encoding="utf-8" standalone="no"?>
<!DOCTYPE svg PUBLIC "-//W3C//DTD SVG 1.1//EN"
  "http://www.w3.org/Graphics/SVG/1.1/DTD/svg11.dtd">
<svg xmlns:xlink="http://www.w3.org/1999/xlink" width="856.43pt" height="453.32pt" viewBox="0 0 856.43 453.32" xmlns="http://www.w3.org/2000/svg" version="1.1">
 <metadata>
  <rdf:RDF xmlns:dc="http://purl.org/dc/elements/1.1/" xmlns:cc="http://creativecommons.org/ns#" xmlns:rdf="http://www.w3.org/1999/02/22-rdf-syntax-ns#">
   <cc:Work>
    <dc:type rdf:resource="http://purl.org/dc/dcmitype/StillImage"/>
    <dc:date>2026-06-06T01:21:26.901237</dc:date>
    <dc:format>image/svg+xml</dc:format>
    <dc:creator>
     <cc:Agent>
      <dc:title>Matplotlib v3.10.0, https://matplotlib.org/</dc:title>
     </cc:Agent>
    </dc:creator>
   </cc:Work>
  </rdf:RDF>
 </metadata>
 <defs>
  <style type="text/css">*{stroke-linejoin: round; stroke-linecap: butt}</style>
 </defs>
 <g id="figure_1">
  <g id="patch_1">
   <path d="M 0 453.32 
L 856.43 453.32 
L 856.43 0 
L 0 0 
z
" style="fill: #ffffff"/>
  </g>
  <g id="axes_1">
   <g id="patch_2">
    <path d="M 71.38 405.281406 
L 849.23 405.281406 
L 849.23 38.992656 
L 71.38 38.992656 
z
" style="fill: #ffffff"/>
   </g>
   <g id="patch_3">
    <path d="M 106.736818 405.281406 
L 154.367765 405.281406 
L 154.367765 334.608208 
L 106.736818 334.608208 
z
" clip-path="url(#pa52c92b1e5)" style="fill: #80b1d3"/>
   </g>
   <g id="patch_4">
    <path d="M 180.015198 405.281406 
L 227.646145 405.281406 
L 227.646145 315.130082 
L 180.015198 315.130082 
z
" clip-path="url(#pa52c92b1e5)" style="fill: #80b1d3"/>
   </g>
   <g id="patch_5">
    <path d="M 253.293577 405.281406 
L 300.924524 405.281406 
L 300.924524 56.434978 
L 253.293577 56.434978 
z
" clip-path="url(#pa52c92b1e5)" style="fill: #80b1d3"/>
   </g>
   <g id="patch_6">
    <path d="M 326.571957 405.281406 
L 374.202904 405.281406 
L 374.202904 361.165652 
L 326.571957 361.165652 
z
" clip-path="url(#pa52c92b1e5)" style="fill: #80b1d3"/>
   </g>
   <g id="patch_7">
    <path d="M 399.850337 405.281406 
L 447.481284 405.281406 
L 447.481284 354.926252 
L 399.850337 354.926252 
z
" clip-path="url(#pa52c92b1e5)" style="fill: #80b1d3"/>
   </g>
   <g id="patch_8">
    <path d="M 473.128716 405.281406 
L 520.759663 405.281406 
L 520.759663 281.893281 
L 473.128716 281.893281 
z
" clip-path="url(#pa52c92b1e5)" style="fill: #80b1d3"/>
   </g>
   <g id="patch_9">
    <path d="M 546.407096 405.281406 
L 594.038043 405.281406 
L 594.038043 363.005475 
L 546.407096 363.005475 
z
" clip-path="url(#pa52c92b1e5)" style="fill: #80b1d3"/>
   </g>
   <g id="patch_10">
    <path d="M 619.685476 405.281406 
L 667.316423 405.281406 
L 667.316423 355.88616 
L 619.685476 355.88616 
z
" clip-path="url(#pa52c92b1e5)" style="fill: #80b1d3"/>
   </g>
   <g id="patch_11">
    <path d="M 692.963855 405.281406 
L 740.594802 405.281406 
L 740.594802 357.725983 
L 692.963855 357.725983 
z
" clip-path="url(#pa52c92b1e5)" style="fill: #80b1d3"/>
   </g>
   <g id="patch_12">
    <path d="M 766.242235 405.281406 
L 813.873182 405.281406 
L 813.873182 365.845201 
L 766.242235 365.845201 
z
" clip-path="url(#pa52c92b1e5)" style="fill: #80b1d3"/>
   </g>
   <g id="matplotlib.axis_1">
    <g id="xtick_1">
     <g id="line2d_1">
      <defs>
       <path id="m470d1a83f8" d="M 0 0 
L 0 3.5 
" style="stroke: #111111; stroke-width: 0.8"/>
      </defs>
      <g>
       <use xlink:href="#m470d1a83f8" x="203.830671" y="405.281406" style="fill: #111111; stroke: #111111; stroke-width: 0.8"/>
      </g>
     </g>
     <g id="text_1">
      <!-- 2 -->
      <g style="fill: #111111" transform="translate(199.180671 423.020469) scale(0.15 -0.15)">
       <defs>
        <path id="STZhongsong-32" d="M 723 2714 
L 422 2675 
Q 397 2835 397 2989 
Q 397 3616 832 4025 
Q 1267 4435 1978 4435 
Q 2630 4435 3043 4064 
Q 3456 3693 3456 3098 
Q 3456 2669 3286 2349 
Q 3117 2029 2611 1603 
Q 2106 1178 1037 467 
L 2662 467 
Q 2963 467 3062 544 
Q 3162 621 3200 838 
L 3232 1018 
L 3494 1018 
L 3283 -154 
L 3085 -154 
L 3053 0 
L 320 0 
L 320 262 
L 819 640 
Q 1901 1453 2377 1977 
Q 2854 2502 2854 3066 
Q 2854 3507 2569 3788 
Q 2285 4070 1837 4070 
Q 1325 4070 1017 3753 
Q 710 3437 710 2918 
Q 710 2822 723 2714 
z
" transform="scale(0.015625)"/>
       </defs>
       <use xlink:href="#STZhongsong-32"/>
      </g>
     </g>
    </g>
    <g id="xtick_2">
     <g id="line2d_2">
      <g>
       <use xlink:href="#m470d1a83f8" x="350.387431" y="405.281406" style="fill: #111111; stroke: #111111; stroke-width: 0.8"/>
      </g>
     </g>
     <g id="text_2">
      <!-- 4 -->
      <g style="fill: #111111" transform="translate(345.737431 423.020469) scale(0.15 -0.15)">
       <defs>
        <path id="STZhongsong-34" d="M 3494 1242 
L 2906 1242 
L 2906 518 
Q 2906 275 3213 250 
L 3213 45 
L 1882 45 
L 1882 250 
Q 2054 262 2156 336 
Q 2259 410 2259 518 
L 2259 1242 
L 550 1242 
L 550 1658 
L 2483 4365 
L 2906 4365 
L 2906 1581 
L 3494 1581 
L 3494 1242 
z
M 2259 1581 
L 2259 3462 
L 902 1581 
L 2259 1581 
z
" transform="scale(0.015625)"/>
       </defs>
       <use xlink:href="#STZhongsong-34"/>
      </g>
     </g>
    </g>
    <g id="xtick_3">
     <g id="line2d_3">
      <g>
       <use xlink:href="#m470d1a83f8" x="496.94419" y="405.281406" style="fill: #111111; stroke: #111111; stroke-width: 0.8"/>
      </g>
     </g>
     <g id="text_3">
      <!-- 6 -->
      <g style="fill: #111111" transform="translate(492.29419 423.020469) scale(0.15 -0.15)">
       <defs>
        <path id="STZhongsong-36" d="M 3238 4442 
L 3238 4154 
Q 2131 4141 1603 3686 
Q 1075 3232 1037 2227 
Q 1446 2893 2240 2893 
Q 2880 2893 3289 2486 
Q 3699 2080 3699 1440 
Q 3699 742 3257 332 
Q 2816 -77 2093 -77 
Q 1286 -77 848 444 
Q 410 966 410 1926 
Q 410 3046 1056 3744 
Q 1702 4442 2995 4442 
L 3238 4442 
z
M 3072 1414 
Q 3072 1933 2800 2246 
Q 2528 2560 2099 2560 
Q 1658 2560 1363 2224 
Q 1069 1888 1069 1402 
Q 1069 890 1350 550 
Q 1632 211 2074 211 
Q 2509 211 2790 544 
Q 3072 877 3072 1414 
z
" transform="scale(0.015625)"/>
       </defs>
       <use xlink:href="#STZhongsong-36"/>
      </g>
     </g>
    </g>
    <g id="xtick_4">
     <g id="line2d_4">
      <g>
       <use xlink:href="#m470d1a83f8" x="643.500949" y="405.281406" style="fill: #111111; stroke: #111111; stroke-width: 0.8"/>
      </g>
     </g>
     <g id="text_4">
      <!-- 8 -->
      <g style="fill: #111111" transform="translate(638.850949 423.020469) scale(0.15 -0.15)">
       <defs>
        <path id="STZhongsong-38" d="M 2477 2419 
Q 3021 2208 3315 1923 
Q 3610 1638 3610 1197 
Q 3610 659 3152 291 
Q 2694 -77 1971 -77 
Q 1274 -77 816 272 
Q 358 621 358 1120 
Q 358 1485 633 1779 
Q 909 2074 1440 2259 
Q 1011 2451 800 2691 
Q 589 2931 589 3315 
Q 589 3814 998 4124 
Q 1408 4435 2035 4435 
Q 2618 4435 2998 4134 
Q 3379 3834 3379 3424 
Q 3379 2790 2477 2419 
z
M 2189 2534 
Q 2451 2707 2662 2918 
Q 2874 3130 2874 3418 
Q 2874 3706 2621 3923 
Q 2368 4141 1971 4141 
Q 1594 4141 1331 3926 
Q 1069 3712 1069 3430 
Q 1069 3168 1270 2989 
Q 1472 2810 1824 2675 
L 2189 2534 
z
M 1747 2131 
Q 1325 1939 1088 1670 
Q 851 1402 851 1126 
Q 851 762 1177 490 
Q 1504 218 1984 218 
Q 2438 218 2774 483 
Q 3110 749 3110 1082 
Q 3110 1594 2253 1933 
L 1747 2131 
z
" transform="scale(0.015625)"/>
       </defs>
       <use xlink:href="#STZhongsong-38"/>
      </g>
     </g>
    </g>
    <g id="xtick_5">
     <g id="line2d_5">
      <g>
       <use xlink:href="#m470d1a83f8" x="790.057708" y="405.281406" style="fill: #111111; stroke: #111111; stroke-width: 0.8"/>
      </g>
     </g>
     <g id="text_5">
      <!-- 10 -->
      <g style="fill: #111111" transform="translate(780.757708 423.020469) scale(0.15 -0.15)">
       <defs>
        <path id="STZhongsong-31" d="M 2150 4358 
L 2387 4358 
L 2387 742 
Q 2387 422 2464 342 
Q 2541 262 2822 262 
L 3130 262 
L 3130 0 
L 1069 0 
L 1069 262 
L 1408 262 
Q 1670 262 1766 348 
Q 1862 435 1862 742 
L 1862 3718 
L 1069 3718 
L 1069 3987 
Q 1709 4070 2150 4358 
z
" transform="scale(0.015625)"/>
        <path id="STZhongsong-30" d="M 326 2182 
Q 326 3251 774 3843 
Q 1222 4435 1997 4435 
Q 2752 4435 3197 3827 
Q 3642 3219 3642 2144 
Q 3642 1139 3178 531 
Q 2714 -77 1952 -77 
Q 1229 -77 777 524 
Q 326 1126 326 2182 
z
M 3040 2182 
Q 3040 3104 2758 3616 
Q 2477 4128 1978 4128 
Q 1478 4128 1200 3590 
Q 922 3053 922 2118 
Q 922 1229 1210 733 
Q 1498 237 1971 237 
Q 2470 237 2755 752 
Q 3040 1267 3040 2182 
z
" transform="scale(0.015625)"/>
       </defs>
       <use xlink:href="#STZhongsong-31"/>
       <use xlink:href="#STZhongsong-30" transform="translate(61.999985 0)"/>
      </g>
     </g>
    </g>
    <g id="text_6">
     <!-- 样本内活跃年数 -->
     <g style="fill: #111111" transform="translate(400.805 442.72) scale(0.17 -0.17)">
      <defs>
       <path id="STZhongsong-6837" d="M 4307 3373 
Q 4627 4160 4838 4922 
Q 5114 4800 5309 4672 
Q 5504 4544 5504 4499 
Q 5504 4454 5408 4444 
Q 5312 4435 5280 4412 
Q 5248 4390 5197 4314 
Q 4966 3936 4550 3373 
L 5139 3373 
L 5363 3725 
Q 5421 3808 5485 3808 
Q 5549 3808 5805 3558 
Q 6061 3309 6061 3241 
Q 6061 3174 5888 3174 
L 4493 3174 
L 4493 2163 
L 4902 2163 
L 5126 2483 
Q 5190 2573 5260 2573 
Q 5331 2573 5434 2470 
L 5690 2208 
Q 5843 2054 5843 2000 
Q 5843 1946 5677 1946 
L 4493 1946 
L 4493 941 
L 5229 941 
L 5459 1267 
Q 5536 1370 5616 1370 
Q 5696 1370 5814 1251 
Q 5933 1133 6080 976 
Q 6227 819 6227 768 
Q 6227 717 6074 717 
L 4493 717 
L 4493 -128 
L 4506 -787 
Q 4506 -851 4477 -880 
Q 4448 -909 4243 -973 
Q 4038 -1037 3962 -1037 
Q 3910 -1037 3910 -973 
L 3923 -570 
Q 3930 -390 3930 -102 
L 3930 717 
L 2861 717 
Q 2688 717 2592 672 
L 2477 973 
Q 2611 941 2797 941 
L 3930 941 
L 3930 1946 
L 3347 1946 
Q 3174 1946 3078 1901 
L 2963 2195 
Q 3098 2163 3283 2163 
L 3930 2163 
L 3930 3174 
L 3322 3174 
Q 3149 3174 3053 3130 
L 2938 3405 
Q 3072 3373 3258 3373 
L 4307 3373 
z
M 1952 3322 
L 2131 3322 
L 2330 3629 
Q 2400 3738 2473 3738 
Q 2547 3738 2624 3635 
L 2810 3392 
Q 2918 3245 2918 3177 
Q 2918 3110 2720 3110 
L 1952 3110 
L 1952 2554 
Q 2394 2432 2634 2301 
Q 2874 2170 2874 1984 
Q 2874 1798 2771 1644 
Q 2669 1491 2592 1491 
Q 2515 1491 2467 1529 
Q 2419 1568 2374 1702 
Q 2214 2189 1952 2400 
L 1952 -781 
Q 1952 -845 1904 -873 
Q 1856 -902 1664 -960 
Q 1472 -1018 1424 -1018 
Q 1376 -1018 1376 -954 
L 1389 -691 
Q 1395 -422 1395 -96 
L 1395 1984 
Q 1011 1075 173 243 
L 90 320 
Q 915 1555 1280 3110 
L 614 3110 
Q 448 3110 339 3078 
L 230 3354 
Q 365 3322 550 3322 
L 1395 3322 
L 1395 4198 
Q 1395 4614 1376 4922 
Q 1933 4787 2054 4748 
Q 2176 4710 2176 4672 
Q 2176 4634 1952 4493 
L 1952 3322 
z
M 3098 4806 
Q 3571 4570 3814 4362 
Q 4058 4154 4058 3958 
Q 4058 3763 3949 3612 
Q 3840 3462 3699 3462 
Q 3629 3462 3603 3510 
Q 3578 3558 3542 3724 
Q 3507 3891 3353 4201 
Q 3200 4512 3014 4730 
L 3098 4806 
z
" transform="scale(0.015625)"/>
       <path id="STZhongsong-672c" d="M 3475 3552 
L 4922 3552 
L 5242 3974 
Q 5299 4045 5369 4045 
Q 5440 4045 5741 3776 
Q 6042 3507 6042 3430 
Q 6042 3354 5933 3354 
L 3866 3354 
Q 4288 2163 4845 1507 
Q 5402 851 6266 550 
L 6246 435 
Q 6138 442 5984 442 
Q 5830 442 5696 387 
Q 5562 333 5466 186 
Q 5434 134 5395 134 
Q 5318 134 4896 556 
Q 4474 979 4198 1584 
Q 3923 2189 3674 3354 
L 3475 3354 
L 3475 730 
L 3923 730 
L 4096 973 
Q 4179 1094 4224 1094 
Q 4269 1094 4390 976 
Q 4512 858 4637 742 
Q 4762 627 4762 569 
Q 4762 512 4640 512 
L 3475 512 
Q 3475 77 3482 -173 
L 3494 -736 
Q 3494 -794 3440 -832 
Q 3386 -870 3213 -921 
Q 3040 -973 2957 -973 
Q 2918 -973 2918 -890 
L 2931 -358 
Q 2938 -77 2938 512 
L 1997 512 
Q 1830 512 1722 480 
L 1613 762 
Q 1747 730 1933 730 
L 2938 730 
L 2938 2848 
Q 2534 1882 1929 1152 
Q 1325 422 390 -237 
L 314 -141 
Q 1978 1267 2490 3354 
L 838 3354 
Q 672 3354 563 3322 
L 454 3584 
Q 589 3552 774 3552 
L 2938 3552 
Q 2938 4499 2918 4794 
Q 3661 4698 3661 4602 
Q 3661 4550 3475 4384 
L 3475 3552 
z
" transform="scale(0.015625)"/>
       <path id="STZhongsong-5185" d="M 1619 3571 
L 2816 3571 
Q 2822 3827 2822 4108 
Q 2822 4390 2803 4909 
Q 3686 4736 3686 4634 
Q 3686 4595 3593 4556 
Q 3501 4518 3478 4444 
Q 3456 4371 3433 4080 
Q 3411 3789 3379 3571 
L 4742 3571 
L 4915 3814 
Q 4960 3872 5005 3872 
Q 5050 3872 5350 3686 
Q 5651 3501 5651 3437 
Q 5651 3373 5363 3232 
L 5363 -262 
Q 5363 -448 5289 -563 
Q 5216 -678 4950 -822 
Q 4685 -966 4614 -966 
Q 4557 -966 4528 -819 
Q 4499 -672 4425 -576 
Q 4352 -480 4157 -393 
Q 3962 -307 3578 -205 
L 3603 -77 
Q 4282 -160 4490 -160 
Q 4698 -160 4746 -102 
Q 4794 -45 4794 122 
L 4794 3354 
L 3360 3354 
Q 3277 2592 3187 2189 
Q 3853 1920 4201 1670 
Q 4550 1421 4550 1152 
Q 4550 1011 4476 822 
Q 4403 634 4269 634 
Q 4192 634 4147 694 
Q 4102 755 4051 890 
Q 3782 1549 3149 2048 
Q 2880 986 1562 301 
L 1498 416 
Q 2253 1024 2512 1721 
Q 2771 2419 2803 3354 
L 1395 3354 
L 1395 -627 
Q 1395 -698 1379 -723 
Q 1363 -749 1267 -800 
Q 1171 -851 1046 -889 
Q 922 -928 870 -928 
Q 819 -928 819 -880 
Q 819 -832 835 -598 
Q 851 -365 851 -51 
L 851 3398 
Q 851 3712 838 3955 
Q 1235 3859 1619 3571 
z
" transform="scale(0.015625)"/>
       <path id="STZhongsong-6d3b" d="M 1018 4704 
Q 1645 4499 1865 4358 
Q 2086 4218 2086 4032 
Q 2086 3846 1964 3667 
Q 1843 3488 1734 3488 
Q 1683 3488 1657 3520 
Q 1632 3552 1545 3782 
Q 1459 4013 1318 4214 
Q 1178 4416 966 4608 
L 1018 4704 
z
M 3731 3814 
Q 3021 3750 2713 3750 
Q 2406 3750 2304 3757 
L 2298 3891 
Q 3053 4006 3933 4227 
Q 4813 4448 5293 4640 
Q 5414 4531 5580 4342 
Q 5747 4154 5769 4112 
Q 5792 4070 5792 4032 
Q 5792 3994 5734 3994 
Q 5715 3994 5632 4022 
Q 5549 4051 5462 4051 
Q 5376 4051 5081 3990 
Q 4787 3930 4288 3878 
L 4288 2630 
L 5126 2630 
L 5421 2995 
Q 5485 3072 5539 3072 
Q 5594 3072 5891 2800 
Q 6189 2528 6189 2480 
Q 6189 2432 6048 2432 
L 4288 2432 
L 4288 1402 
L 4915 1402 
L 5056 1626 
Q 5114 1709 5149 1709 
Q 5184 1709 5475 1523 
Q 5766 1338 5766 1283 
Q 5766 1229 5517 1082 
L 5517 -352 
Q 5517 -448 5523 -531 
L 5536 -666 
Q 5536 -749 5267 -854 
Q 4998 -960 4960 -960 
Q 4922 -960 4922 -890 
L 4922 -403 
L 3142 -403 
L 3142 -781 
Q 3142 -826 3126 -845 
Q 3110 -864 2860 -957 
Q 2611 -1050 2579 -1050 
Q 2547 -1050 2554 -986 
Q 2586 -768 2586 -506 
L 2586 1152 
Q 2586 1421 2566 1696 
Q 3040 1549 3315 1402 
L 3731 1402 
L 3731 2432 
L 2534 2432 
Q 2362 2432 2266 2387 
L 2131 2662 
Q 2266 2630 2451 2630 
L 3731 2630 
L 3731 3814 
z
M 4922 -198 
L 4922 1216 
L 3142 1216 
L 3142 -198 
L 4922 -198 
z
M 2298 3482 
L 1760 1395 
Q 1606 819 1606 457 
Q 1606 96 1644 -176 
Q 1683 -448 1683 -563 
Q 1683 -992 1485 -992 
Q 1299 -992 1116 -873 
Q 934 -755 934 -557 
Q 934 -512 947 -461 
Q 1075 51 1075 329 
Q 1075 608 956 701 
Q 838 794 320 896 
L 333 1024 
Q 723 1030 896 1059 
Q 1069 1088 1145 1168 
Q 1222 1248 1306 1440 
L 2176 3526 
L 2298 3482 
z
M 390 3245 
Q 826 3066 1088 2890 
Q 1350 2714 1350 2525 
Q 1350 2336 1267 2160 
Q 1184 1984 1049 1984 
Q 915 1984 851 2202 
Q 755 2547 624 2745 
Q 493 2944 320 3123 
L 390 3245 
z
" transform="scale(0.015625)"/>
       <path id="STZhongsong-8dc3" d="M 4525 2272 
Q 4685 1152 5046 525 
Q 5408 -102 6189 -544 
L 6170 -685 
Q 5997 -659 5865 -659 
Q 5734 -659 5632 -694 
Q 5530 -730 5443 -806 
Q 5357 -883 5318 -883 
Q 5203 -883 4819 -105 
Q 4435 672 4333 2272 
L 4243 2272 
Q 4166 1389 4044 982 
Q 3923 576 3628 205 
Q 3334 -166 2876 -480 
Q 2419 -794 1779 -1056 
L 1734 -941 
Q 2803 -224 3193 400 
Q 3584 1024 3699 2272 
L 2893 2272 
Q 2720 2272 2624 2227 
L 2509 2522 
Q 2643 2490 2829 2490 
L 3718 2490 
Q 3782 2976 3782 3350 
Q 3782 3725 3776 3910 
Q 3270 3866 2784 3834 
L 2771 3955 
Q 4186 4282 5357 4749 
Q 5773 4230 5773 4109 
Q 5773 4058 5721 4058 
Q 5670 4058 5593 4086 
Q 5517 4115 5424 4115 
Q 5331 4115 5001 4060 
Q 4672 4006 4358 3968 
Q 4320 3091 4262 2490 
L 4992 2490 
L 5293 2893 
Q 5344 2963 5427 2963 
Q 5510 2963 5808 2697 
Q 6106 2432 6106 2352 
Q 6106 2272 5965 2272 
L 4525 2272 
z
M 1350 4339 
L 2086 4339 
L 2234 4576 
Q 2266 4627 2307 4627 
Q 2349 4627 2537 4486 
Q 2726 4346 2800 4282 
Q 2874 4218 2874 4170 
Q 2874 4122 2624 4038 
L 2624 3232 
Q 2624 2982 2630 2899 
L 2637 2733 
Q 2637 2656 2464 2589 
Q 2291 2522 2195 2522 
Q 2131 2522 2131 2624 
L 2131 2733 
L 1325 2733 
L 1325 2566 
Q 1325 2515 1299 2489 
Q 1274 2464 1114 2406 
Q 954 2349 870 2349 
Q 819 2349 826 2426 
Q 851 2733 851 3034 
L 851 4115 
Q 851 4378 832 4653 
Q 1139 4499 1350 4339 
z
M 2131 2918 
L 2131 4141 
L 1325 4141 
L 1325 2918 
L 2131 2918 
z
M 2054 1440 
L 2214 1440 
L 2426 1747 
Q 2477 1818 2528 1818 
Q 2579 1818 2819 1600 
Q 3059 1382 3059 1306 
Q 3059 1261 2931 1261 
L 2054 1261 
L 2054 218 
L 2963 416 
L 3008 288 
L 1856 -192 
Q 1248 -448 928 -685 
Q 870 -730 825 -730 
Q 781 -730 729 -637 
Q 678 -544 403 -122 
L 762 -64 
L 762 1715 
Q 762 2003 749 2227 
Q 1184 2106 1299 2058 
Q 1414 2010 1414 1965 
Q 1414 1920 1229 1830 
L 1229 38 
L 1581 115 
L 1581 2067 
Q 1581 2355 1568 2579 
Q 1914 2522 2058 2483 
Q 2202 2445 2202 2384 
Q 2202 2323 2054 2266 
L 2054 1440 
z
" transform="scale(0.015625)"/>
       <path id="STZhongsong-5e74" d="M 1939 3827 
L 4794 3827 
L 5082 4237 
Q 5133 4314 5171 4314 
Q 5210 4314 5328 4224 
Q 5446 4134 5612 3993 
Q 5779 3853 5840 3789 
Q 5901 3725 5901 3686 
Q 5901 3616 5811 3616 
L 3744 3616 
L 3744 2496 
L 4474 2496 
L 4736 2874 
Q 4787 2938 4822 2938 
Q 4858 2938 4970 2858 
Q 5082 2778 5232 2643 
Q 5382 2509 5414 2461 
Q 5446 2413 5446 2368 
Q 5446 2272 5350 2272 
L 3744 2272 
L 3744 1043 
L 5254 1043 
L 5542 1427 
Q 5587 1485 5654 1485 
Q 5722 1485 6013 1213 
Q 6304 941 6304 883 
Q 6304 826 6195 826 
L 3744 826 
Q 3744 19 3750 -294 
L 3763 -864 
Q 3763 -909 3731 -941 
Q 3699 -973 3475 -1056 
Q 3251 -1139 3203 -1139 
Q 3155 -1139 3155 -1037 
L 3168 -390 
Q 3174 -38 3174 826 
L 653 826 
Q 480 826 384 781 
L 269 1075 
Q 403 1043 589 1043 
L 1498 1043 
L 1498 2170 
Q 1498 2643 1485 2739 
Q 1856 2630 2138 2496 
L 3174 2496 
L 3174 3616 
L 1798 3616 
Q 1440 3046 1136 2713 
Q 832 2381 339 1984 
L 243 2086 
Q 1261 3174 1741 4909 
Q 2259 4704 2400 4611 
Q 2541 4518 2541 4457 
Q 2541 4397 2435 4384 
Q 2330 4371 2253 4288 
Q 2176 4205 1939 3827 
z
M 3174 2272 
L 2054 2272 
L 2054 1043 
L 3174 1043 
L 3174 2272 
z
" transform="scale(0.015625)"/>
       <path id="STZhongsong-6570" d="M 2394 3334 
L 2938 3334 
L 3136 3616 
Q 3181 3680 3245 3680 
Q 3309 3680 3520 3462 
Q 3731 3245 3731 3193 
Q 3731 3142 3610 3142 
L 2394 3142 
L 2394 3027 
Q 2784 2938 3069 2819 
Q 3354 2701 3354 2515 
Q 3354 2381 3296 2227 
Q 3238 2074 3171 2074 
Q 3104 2074 3069 2109 
Q 3034 2144 2963 2259 
Q 2893 2374 2720 2556 
Q 2547 2739 2394 2854 
Q 2406 2381 2406 2259 
Q 2406 2138 2393 2099 
Q 2381 2061 2217 2006 
Q 2054 1952 1971 1933 
Q 2291 1811 2291 1722 
Q 2291 1670 2227 1660 
Q 2163 1651 2118 1609 
Q 2074 1568 1990 1434 
L 2637 1434 
L 2803 1619 
Q 2854 1677 2892 1677 
Q 2931 1677 3190 1481 
Q 3450 1286 3450 1228 
Q 3450 1171 3338 1148 
Q 3226 1126 3168 1088 
Q 3110 1050 3053 941 
Q 2848 563 2637 307 
Q 3040 205 3133 38 
Q 3226 -128 3226 -262 
Q 3226 -397 3187 -467 
Q 3149 -538 3101 -538 
Q 3053 -538 2816 -378 
Q 2579 -218 2278 -51 
Q 1664 -589 384 -992 
L 333 -877 
Q 1338 -371 1875 141 
Q 1440 326 845 474 
Q 1184 954 1331 1222 
L 691 1222 
Q 518 1222 422 1190 
L 307 1453 
Q 410 1434 627 1434 
L 1440 1434 
Q 1626 1824 1690 2035 
Q 1818 1997 1869 1978 
Q 1888 2515 1888 2874 
Q 1421 2125 282 1613 
L 243 1715 
Q 1075 2330 1549 3142 
L 589 3142 
Q 467 3142 390 3110 
L 301 3366 
Q 416 3334 550 3334 
L 1888 3334 
L 1888 4147 
Q 1888 4698 1875 4877 
Q 2592 4723 2592 4653 
Q 2592 4608 2394 4499 
L 2394 3334 
z
M 1856 1222 
L 1427 570 
Q 1914 480 2138 429 
Q 2413 762 2630 1222 
L 1856 1222 
z
M 4326 3270 
L 5222 3270 
L 5485 3590 
Q 5549 3661 5609 3661 
Q 5670 3661 5939 3421 
Q 6208 3181 6208 3117 
Q 6208 3072 6054 3072 
L 5050 3072 
Q 5638 2925 5638 2810 
Q 5638 2771 5542 2742 
Q 5446 2714 5404 2643 
Q 5363 2573 5338 2438 
Q 5088 1069 4749 518 
Q 5261 -186 6304 -646 
L 6246 -774 
Q 6080 -730 5933 -730 
Q 5658 -730 5446 -902 
Q 5389 -947 5363 -947 
Q 5299 -947 4934 -534 
Q 4570 -122 4448 102 
Q 4115 -301 3657 -579 
Q 3200 -858 2470 -1139 
L 2413 -1005 
Q 3642 -307 4211 544 
Q 3942 1152 3878 2342 
Q 3654 1946 3322 1491 
L 3213 1555 
Q 3949 2963 4109 4877 
Q 4333 4832 4563 4761 
Q 4794 4691 4858 4649 
Q 4922 4608 4922 4563 
Q 4922 4518 4813 4492 
Q 4704 4467 4653 4384 
Q 4602 4301 4538 3974 
Q 4474 3648 4326 3270 
z
M 4870 3072 
L 4250 3072 
L 4064 2682 
Q 4141 1594 4454 979 
Q 4723 1619 4870 3072 
z
M 3104 4602 
Q 3264 4525 3453 4422 
Q 3642 4320 3670 4288 
Q 3699 4256 3699 4221 
Q 3699 4186 3673 4170 
Q 3648 4154 3539 4154 
Q 3430 4154 3315 4038 
Q 2957 3680 2528 3392 
L 2464 3488 
Q 2906 4102 3104 4602 
z
M 653 4512 
Q 1171 4326 1353 4201 
Q 1536 4077 1536 3901 
Q 1536 3725 1453 3590 
Q 1370 3456 1286 3456 
Q 1203 3456 1164 3494 
Q 1126 3533 1084 3673 
Q 1043 3814 899 4038 
Q 755 4262 589 4429 
L 653 4512 
z
" transform="scale(0.015625)"/>
      </defs>
      <use xlink:href="#STZhongsong-6837"/>
      <use xlink:href="#STZhongsong-672c" transform="translate(99.999985 0)"/>
      <use xlink:href="#STZhongsong-5185" transform="translate(199.999969 0)"/>
      <use xlink:href="#STZhongsong-6d3b" transform="translate(299.999954 0)"/>
      <use xlink:href="#STZhongsong-8dc3" transform="translate(399.999939 0)"/>
      <use xlink:href="#STZhongsong-5e74" transform="translate(499.999924 0)"/>
      <use xlink:href="#STZhongsong-6570" transform="translate(599.999908 0)"/>
     </g>
    </g>
   </g>
   <g id="matplotlib.axis_2">
    <g id="ytick_1">
     <g id="line2d_6">
      <path d="M 71.38 405.281406 
L 849.23 405.281406 
" clip-path="url(#pa52c92b1e5)" style="fill: none; stroke: #ececec; stroke-width: 0.9; stroke-linecap: square"/>
     </g>
     <g id="line2d_7">
      <defs>
       <path id="me91055bf9e" d="M 0 0 
L -3.5 0 
" style="stroke: #111111; stroke-width: 0.8"/>
      </defs>
      <g>
       <use xlink:href="#me91055bf9e" x="71.38" y="405.281406" style="fill: #111111; stroke: #111111; stroke-width: 0.8"/>
      </g>
     </g>
     <g id="text_7">
      <!-- 0 -->
      <g style="fill: #111111" transform="translate(55.08 410.650937) scale(0.15 -0.15)">
       <use xlink:href="#STZhongsong-30"/>
      </g>
     </g>
    </g>
    <g id="ytick_2">
     <g id="line2d_8">
      <path d="M 71.38 325.289104 
L 849.23 325.289104 
" clip-path="url(#pa52c92b1e5)" style="fill: none; stroke: #ececec; stroke-width: 0.9; stroke-linecap: square"/>
     </g>
     <g id="line2d_9">
      <g>
       <use xlink:href="#me91055bf9e" x="71.38" y="325.289104" style="fill: #111111; stroke: #111111; stroke-width: 0.8"/>
      </g>
     </g>
     <g id="text_8">
      <!-- 2000 -->
      <g style="fill: #111111" transform="translate(27.18 330.658636) scale(0.15 -0.15)">
       <use xlink:href="#STZhongsong-32"/>
       <use xlink:href="#STZhongsong-30" transform="translate(61.999985 0)"/>
       <use xlink:href="#STZhongsong-30" transform="translate(123.999969 0)"/>
       <use xlink:href="#STZhongsong-30" transform="translate(185.999954 0)"/>
      </g>
     </g>
    </g>
    <g id="ytick_3">
     <g id="line2d_10">
      <path d="M 71.38 245.296802 
L 849.23 245.296802 
" clip-path="url(#pa52c92b1e5)" style="fill: none; stroke: #ececec; stroke-width: 0.9; stroke-linecap: square"/>
     </g>
     <g id="line2d_11">
      <g>
       <use xlink:href="#me91055bf9e" x="71.38" y="245.296802" style="fill: #111111; stroke: #111111; stroke-width: 0.8"/>
      </g>
     </g>
     <g id="text_9">
      <!-- 4000 -->
      <g style="fill: #111111" transform="translate(27.18 250.666334) scale(0.15 -0.15)">
       <use xlink:href="#STZhongsong-34"/>
       <use xlink:href="#STZhongsong-30" transform="translate(61.999985 0)"/>
       <use xlink:href="#STZhongsong-30" transform="translate(123.999969 0)"/>
       <use xlink:href="#STZhongsong-30" transform="translate(185.999954 0)"/>
      </g>
     </g>
    </g>
    <g id="ytick_4">
     <g id="line2d_12">
      <path d="M 71.38 165.304501 
L 849.23 165.304501 
" clip-path="url(#pa52c92b1e5)" style="fill: none; stroke: #ececec; stroke-width: 0.9; stroke-linecap: square"/>
     </g>
     <g id="line2d_13">
      <g>
       <use xlink:href="#me91055bf9e" x="71.38" y="165.304501" style="fill: #111111; stroke: #111111; stroke-width: 0.8"/>
      </g>
     </g>
     <g id="text_10">
      <!-- 6000 -->
      <g style="fill: #111111" transform="translate(27.18 170.674032) scale(0.15 -0.15)">
       <use xlink:href="#STZhongsong-36"/>
       <use xlink:href="#STZhongsong-30" transform="translate(61.999985 0)"/>
       <use xlink:href="#STZhongsong-30" transform="translate(123.999969 0)"/>
       <use xlink:href="#STZhongsong-30" transform="translate(185.999954 0)"/>
      </g>
     </g>
    </g>
    <g id="ytick_5">
     <g id="line2d_14">
      <path d="M 71.38 85.312199 
L 849.23 85.312199 
" clip-path="url(#pa52c92b1e5)" style="fill: none; stroke: #ececec; stroke-width: 0.9; stroke-linecap: square"/>
     </g>
     <g id="line2d_15">
      <g>
       <use xlink:href="#me91055bf9e" x="71.38" y="85.312199" style="fill: #111111; stroke: #111111; stroke-width: 0.8"/>
      </g>
     </g>
     <g id="text_11">
      <!-- 8000 -->
      <g style="fill: #111111" transform="translate(27.18 90.68173) scale(0.15 -0.15)">
       <use xlink:href="#STZhongsong-38"/>
       <use xlink:href="#STZhongsong-30" transform="translate(61.999985 0)"/>
       <use xlink:href="#STZhongsong-30" transform="translate(123.999969 0)"/>
       <use xlink:href="#STZhongsong-30" transform="translate(185.999954 0)"/>
      </g>
     </g>
    </g>
    <g id="text_12">
     <!-- 企业数量 -->
     <g style="fill: #111111" transform="translate(19.78 256.137031) rotate(-90) scale(0.17 -0.17)">
      <defs>
       <path id="STZhongsong-4f01" d="M 3232 4314 
Q 3174 4243 3130 4160 
Q 2726 3469 2377 3046 
Q 2029 2624 1542 2272 
Q 1056 1920 218 1459 
L 154 1562 
Q 1139 2291 1696 2979 
Q 2253 3667 2771 4832 
Q 3482 4576 3482 4506 
Q 3482 4467 3341 4410 
Q 4179 3034 6259 2554 
L 6246 2432 
Q 5946 2432 5786 2371 
Q 5626 2310 5472 2112 
Q 5427 2061 5389 2061 
Q 5318 2061 4774 2432 
Q 4230 2803 3852 3251 
Q 3475 3699 3232 4314 
z
M 3558 1414 
L 4179 1414 
L 4429 1754 
Q 4486 1830 4557 1830 
Q 4614 1830 4761 1721 
Q 4909 1613 5056 1472 
Q 5203 1331 5203 1286 
Q 5203 1216 5062 1216 
L 3558 1216 
L 3558 -461 
L 4870 -461 
L 5171 -45 
Q 5235 45 5280 45 
Q 5344 45 5696 -240 
Q 6048 -525 6048 -598 
Q 6048 -672 5933 -672 
L 723 -672 
Q 550 -672 454 -717 
L 339 -429 
Q 474 -461 659 -461 
L 1466 -461 
L 1466 1370 
Q 1466 1690 1453 1939 
Q 1971 1805 2076 1763 
Q 2182 1722 2182 1677 
Q 2182 1632 2016 1549 
L 2016 -461 
L 3034 -461 
L 3034 2413 
Q 3034 2733 3021 2982 
Q 3360 2899 3568 2816 
Q 3776 2733 3776 2682 
Q 3776 2611 3558 2502 
L 3558 1414 
z
" transform="scale(0.015625)"/>
       <path id="STZhongsong-4e1a" d="M 3552 -422 
L 3552 4154 
Q 3552 4646 3539 4755 
Q 3821 4698 4096 4608 
Q 4371 4518 4371 4448 
Q 4371 4378 4096 4243 
L 4096 768 
Q 4659 1626 5158 3341 
Q 5747 3053 5843 2989 
Q 5939 2925 5939 2873 
Q 5939 2822 5818 2810 
Q 5766 2803 5731 2771 
Q 5696 2739 5619 2618 
Q 4813 1210 4096 442 
L 4096 -422 
L 5056 -422 
L 5370 -26 
Q 5440 58 5485 58 
Q 5530 58 5616 -16 
Q 5702 -90 5862 -240 
Q 6022 -390 6092 -476 
Q 6163 -563 6163 -608 
Q 6163 -653 6048 -653 
L 640 -653 
Q 499 -653 416 -685 
L 282 -390 
Q 384 -422 538 -422 
L 2278 -422 
L 2278 4115 
Q 2278 4608 2266 4717 
Q 2886 4576 3001 4531 
Q 3117 4486 3117 4422 
Q 3117 4358 2822 4256 
L 2822 -422 
L 3552 -422 
z
M 787 3181 
Q 1357 2458 1645 2000 
Q 1933 1542 1933 1273 
Q 1933 1005 1757 758 
Q 1581 512 1434 512 
Q 1363 512 1340 557 
Q 1318 602 1318 781 
Q 1318 1754 698 3104 
L 787 3181 
z
" transform="scale(0.015625)"/>
       <path id="STZhongsong-91cf" d="M 2054 4480 
L 4410 4480 
L 4576 4691 
Q 4608 4730 4640 4730 
Q 4691 4730 4969 4582 
Q 5248 4435 5248 4368 
Q 5248 4301 5024 4198 
L 5024 3738 
Q 5024 3552 5037 3341 
L 5043 3142 
Q 5043 3098 5030 3075 
Q 5018 3053 4922 2992 
Q 4826 2931 4685 2876 
Q 4544 2822 4509 2822 
Q 4474 2822 4474 2880 
L 4474 3046 
L 2016 3046 
Q 2029 2989 2006 2960 
Q 1984 2931 1897 2886 
Q 1811 2842 1660 2797 
Q 1510 2752 1475 2752 
Q 1440 2752 1446 2822 
Q 1478 3130 1478 3456 
L 1478 4198 
Q 1478 4467 1459 4742 
Q 1830 4608 2054 4480 
z
M 4474 3853 
L 4474 4294 
L 2016 4294 
L 2016 3853 
L 4474 3853 
z
M 4474 3213 
L 4474 3674 
L 2016 3674 
L 2016 3213 
L 4474 3213 
z
M 5171 2675 
L 5395 3040 
Q 5434 3110 5491 3110 
Q 5549 3110 5690 2989 
L 5984 2746 
Q 6138 2618 6138 2560 
Q 6138 2502 5990 2502 
L 640 2502 
Q 467 2502 371 2458 
L 256 2707 
Q 390 2675 576 2675 
L 5171 2675 
z
M 3482 672 
L 3482 166 
L 4666 166 
L 4864 416 
Q 4902 474 4950 474 
Q 4998 474 5251 285 
Q 5504 96 5504 38 
Q 5504 -19 5286 -19 
L 3482 -19 
L 3482 -550 
L 5203 -550 
L 5434 -230 
Q 5485 -160 5542 -160 
Q 5600 -160 5865 -390 
Q 6131 -621 6131 -691 
Q 6131 -736 5965 -736 
L 582 -736 
Q 410 -736 314 -781 
L 198 -518 
Q 333 -550 518 -550 
L 2931 -550 
L 2931 -19 
L 1274 -19 
Q 1101 -19 1005 -64 
L 877 198 
Q 1011 166 1197 166 
L 2931 166 
L 2931 672 
L 1843 672 
Q 1843 589 1824 569 
Q 1805 550 1725 505 
Q 1645 461 1481 413 
Q 1318 365 1296 365 
Q 1274 365 1280 422 
Q 1312 717 1312 1050 
L 1312 1747 
Q 1312 2074 1293 2355 
Q 1715 2253 1926 2150 
L 4544 2150 
L 4685 2362 
Q 4717 2413 4765 2413 
Q 4813 2413 4944 2333 
Q 5075 2253 5209 2157 
Q 5344 2061 5344 2029 
Q 5344 1971 5126 1850 
L 5126 1363 
Q 5126 1056 5133 954 
L 5139 762 
Q 5139 704 5091 669 
Q 5043 634 4880 592 
Q 4717 550 4627 550 
Q 4576 550 4576 627 
L 4576 672 
L 3482 672 
z
M 2931 1510 
L 2931 1978 
L 1843 1978 
L 1843 1510 
L 2931 1510 
z
M 3482 1978 
L 3482 1510 
L 4576 1510 
L 4576 1978 
L 3482 1978 
z
M 3482 1312 
L 3482 858 
L 4576 858 
L 4576 1312 
L 3482 1312 
z
M 2931 858 
L 2931 1312 
L 1843 1312 
L 1843 858 
L 2931 858 
z
" transform="scale(0.015625)"/>
      </defs>
      <use xlink:href="#STZhongsong-4f01"/>
      <use xlink:href="#STZhongsong-4e1a" transform="translate(99.999985 0)"/>
      <use xlink:href="#STZhongsong-6570" transform="translate(199.999969 0)"/>
      <use xlink:href="#STZhongsong-91cf" transform="translate(299.999954 0)"/>
     </g>
    </g>
   </g>
   <g id="patch_13">
    <path d="M 71.38 405.281406 
L 71.38 38.992656 
" style="fill: none; stroke: #111111; stroke-width: 1.35; stroke-linejoin: miter; stroke-linecap: square"/>
   </g>
   <g id="patch_14">
    <path d="M 71.38 405.281406 
L 849.23 405.281406 
" style="fill: none; stroke: #111111; stroke-width: 1.35; stroke-linejoin: miter; stroke-linecap: square"/>
   </g>
   <g id="text_13">
    <!-- 1,767 -->
    <g style="fill: #111111" transform="translate(112.352292 326.608208) scale(0.13 -0.13)">
     <defs>
      <path id="STZhongsong-2c" d="M 691 -1133 
L 525 -928 
Q 883 -634 1036 -403 
Q 1190 -173 1158 45 
Q 1037 0 941 0 
Q 800 0 713 99 
Q 627 198 627 339 
Q 627 499 739 604 
Q 851 710 1024 710 
Q 1210 710 1363 540 
Q 1517 371 1517 128 
Q 1517 -211 1331 -486 
Q 1146 -762 691 -1133 
z
" transform="scale(0.015625)"/>
      <path id="STZhongsong-37" d="M 691 4518 
L 902 4518 
L 934 4358 
L 3667 4358 
L 3667 4096 
Q 2163 2317 1901 0 
L 1261 0 
Q 1421 1190 1949 2150 
Q 2477 3110 3174 3891 
L 1222 3891 
Q 1005 3891 899 3862 
Q 794 3834 736 3635 
L 614 3206 
L 352 3264 
L 691 4518 
z
" transform="scale(0.015625)"/>
     </defs>
     <use xlink:href="#STZhongsong-31"/>
     <use xlink:href="#STZhongsong-2c" transform="translate(61.999985 0)"/>
     <use xlink:href="#STZhongsong-37" transform="translate(93.999969 0)"/>
     <use xlink:href="#STZhongsong-36" transform="translate(155.999954 0)"/>
     <use xlink:href="#STZhongsong-37" transform="translate(217.999939 0)"/>
    </g>
   </g>
   <g id="text_14">
    <!-- 2,254 -->
    <g style="fill: #111111" transform="translate(185.630671 307.130082) scale(0.13 -0.13)">
     <defs>
      <path id="STZhongsong-35" d="M 934 4358 
L 2880 4358 
Q 3046 4358 3097 4387 
Q 3149 4416 3155 4512 
L 3386 4512 
L 3386 3853 
L 1229 3853 
L 1171 2752 
Q 1530 2848 1990 2848 
Q 2771 2848 3228 2451 
Q 3686 2054 3686 1414 
Q 3686 787 3212 355 
Q 2739 -77 2029 -77 
Q 1414 -77 982 236 
Q 550 550 550 890 
Q 550 1037 640 1123 
Q 730 1210 838 1210 
Q 1062 1210 1203 813 
Q 1421 218 2042 218 
Q 2515 218 2819 528 
Q 3123 838 3123 1312 
Q 3123 1824 2777 2128 
Q 2432 2432 1843 2432 
Q 1280 2432 832 2246 
L 934 4358 
z
" transform="scale(0.015625)"/>
     </defs>
     <use xlink:href="#STZhongsong-32"/>
     <use xlink:href="#STZhongsong-2c" transform="translate(61.999985 0)"/>
     <use xlink:href="#STZhongsong-32" transform="translate(93.999969 0)"/>
     <use xlink:href="#STZhongsong-35" transform="translate(155.999954 0)"/>
     <use xlink:href="#STZhongsong-34" transform="translate(217.999939 0)"/>
    </g>
   </g>
   <g id="text_15">
    <!-- 8,722 -->
    <g style="fill: #111111" transform="translate(258.909051 48.434978) scale(0.13 -0.13)">
     <use xlink:href="#STZhongsong-38"/>
     <use xlink:href="#STZhongsong-2c" transform="translate(61.999985 0)"/>
     <use xlink:href="#STZhongsong-37" transform="translate(93.999969 0)"/>
     <use xlink:href="#STZhongsong-32" transform="translate(155.999954 0)"/>
     <use xlink:href="#STZhongsong-32" transform="translate(217.999939 0)"/>
    </g>
   </g>
   <g id="text_16">
    <!-- 1,103 -->
    <g style="fill: #111111" transform="translate(332.187431 353.165652) scale(0.13 -0.13)">
     <defs>
      <path id="STZhongsong-33" d="M 934 3194 
L 634 3238 
Q 717 3827 1097 4131 
Q 1478 4435 2061 4435 
Q 2662 4435 3046 4124 
Q 3430 3814 3430 3360 
Q 3430 3021 3190 2761 
Q 2950 2502 2502 2374 
Q 3046 2298 3334 1974 
Q 3622 1651 3622 1222 
Q 3622 698 3155 310 
Q 2688 -77 1997 -77 
Q 1299 -77 844 275 
Q 390 627 390 960 
Q 390 1114 505 1184 
Q 621 1254 710 1254 
Q 922 1254 1043 858 
Q 1133 544 1369 377 
Q 1606 211 1952 211 
Q 2419 211 2720 512 
Q 3021 813 3021 1267 
Q 3021 1702 2717 1952 
Q 2413 2202 1862 2202 
L 1568 2202 
L 1568 2502 
L 1754 2502 
Q 2829 2502 2829 3283 
Q 2829 3629 2592 3843 
Q 2355 4058 1952 4058 
Q 1107 4058 934 3194 
z
" transform="scale(0.015625)"/>
     </defs>
     <use xlink:href="#STZhongsong-31"/>
     <use xlink:href="#STZhongsong-2c" transform="translate(61.999985 0)"/>
     <use xlink:href="#STZhongsong-31" transform="translate(93.999969 0)"/>
     <use xlink:href="#STZhongsong-30" transform="translate(155.999954 0)"/>
     <use xlink:href="#STZhongsong-33" transform="translate(217.999939 0)"/>
    </g>
   </g>
   <g id="text_17">
    <!-- 1,259 -->
    <g style="fill: #111111" transform="translate(405.46581 346.926252) scale(0.13 -0.13)">
     <defs>
      <path id="STZhongsong-39" d="M 736 -77 
L 736 218 
Q 1856 224 2374 688 
Q 2893 1152 2938 2138 
Q 2707 1798 2425 1638 
Q 2144 1478 1734 1478 
Q 1088 1478 681 1884 
Q 275 2291 275 2925 
Q 275 3616 720 4025 
Q 1165 4435 1882 4435 
Q 2688 4435 3126 3916 
Q 3565 3398 3565 2438 
Q 3565 1574 3181 963 
Q 2797 352 2201 137 
Q 1606 -77 979 -77 
L 736 -77 
z
M 896 2950 
Q 896 2445 1174 2128 
Q 1453 1811 1875 1811 
Q 2317 1811 2611 2147 
Q 2906 2483 2906 2970 
Q 2906 3475 2618 3814 
Q 2330 4154 1901 4154 
Q 1459 4154 1177 3824 
Q 896 3494 896 2950 
z
" transform="scale(0.015625)"/>
     </defs>
     <use xlink:href="#STZhongsong-31"/>
     <use xlink:href="#STZhongsong-2c" transform="translate(61.999985 0)"/>
     <use xlink:href="#STZhongsong-32" transform="translate(93.999969 0)"/>
     <use xlink:href="#STZhongsong-35" transform="translate(155.999954 0)"/>
     <use xlink:href="#STZhongsong-39" transform="translate(217.999939 0)"/>
    </g>
   </g>
   <g id="text_18">
    <!-- 3,085 -->
    <g style="fill: #111111" transform="translate(478.74419 273.893281) scale(0.13 -0.13)">
     <use xlink:href="#STZhongsong-33"/>
     <use xlink:href="#STZhongsong-2c" transform="translate(61.999985 0)"/>
     <use xlink:href="#STZhongsong-30" transform="translate(93.999969 0)"/>
     <use xlink:href="#STZhongsong-38" transform="translate(155.999954 0)"/>
     <use xlink:href="#STZhongsong-35" transform="translate(217.999939 0)"/>
    </g>
   </g>
   <g id="text_19">
    <!-- 1,057 -->
    <g style="fill: #111111" transform="translate(552.022569 355.005475) scale(0.13 -0.13)">
     <use xlink:href="#STZhongsong-31"/>
     <use xlink:href="#STZhongsong-2c" transform="translate(61.999985 0)"/>
     <use xlink:href="#STZhongsong-30" transform="translate(93.999969 0)"/>
     <use xlink:href="#STZhongsong-35" transform="translate(155.999954 0)"/>
     <use xlink:href="#STZhongsong-37" transform="translate(217.999939 0)"/>
    </g>
   </g>
   <g id="text_20">
    <!-- 1,235 -->
    <g style="fill: #111111" transform="translate(625.300949 347.88616) scale(0.13 -0.13)">
     <use xlink:href="#STZhongsong-31"/>
     <use xlink:href="#STZhongsong-2c" transform="translate(61.999985 0)"/>
     <use xlink:href="#STZhongsong-32" transform="translate(93.999969 0)"/>
     <use xlink:href="#STZhongsong-33" transform="translate(155.999954 0)"/>
     <use xlink:href="#STZhongsong-35" transform="translate(217.999939 0)"/>
    </g>
   </g>
   <g id="text_21">
    <!-- 1,189 -->
    <g style="fill: #111111" transform="translate(698.579329 349.725983) scale(0.13 -0.13)">
     <use xlink:href="#STZhongsong-31"/>
     <use xlink:href="#STZhongsong-2c" transform="translate(61.999985 0)"/>
     <use xlink:href="#STZhongsong-31" transform="translate(93.999969 0)"/>
     <use xlink:href="#STZhongsong-38" transform="translate(155.999954 0)"/>
     <use xlink:href="#STZhongsong-39" transform="translate(217.999939 0)"/>
    </g>
   </g>
   <g id="text_22">
    <!-- 986 -->
    <g style="fill: #111111" transform="translate(777.967708 357.845201) scale(0.13 -0.13)">
     <use xlink:href="#STZhongsong-39"/>
     <use xlink:href="#STZhongsong-38" transform="translate(61.999985 0)"/>
     <use xlink:href="#STZhongsong-36" transform="translate(123.999969 0)"/>
    </g>
   </g>
   <g id="text_23">
    <!-- 企业样本内活跃年限分布 -->
    <g style="fill: #111111" transform="translate(344.805 22.992656) scale(0.21 -0.21)">
     <defs>
      <path id="STZhongsong-9650" d="M 1338 4422 
L 1939 4422 
L 2080 4634 
Q 2112 4685 2163 4685 
Q 2214 4685 2473 4486 
Q 2733 4288 2733 4240 
Q 2733 4192 2649 4189 
Q 2566 4186 2518 4122 
Q 2470 4058 2227 3654 
L 1696 2797 
Q 2163 2432 2368 2118 
Q 2573 1805 2573 1408 
Q 2573 909 2227 688 
Q 1882 467 1792 467 
Q 1741 467 1709 608 
Q 1677 749 1571 848 
Q 1466 947 1280 1024 
L 1286 1139 
Q 1523 1114 1705 1114 
Q 1888 1114 1977 1200 
Q 2067 1286 2067 1616 
Q 2067 1946 1916 2208 
Q 1766 2470 1446 2739 
Q 1856 3827 1984 4256 
L 1235 4256 
L 1235 -678 
Q 1235 -742 1216 -764 
Q 1197 -787 979 -883 
Q 762 -979 736 -979 
Q 710 -979 710 -934 
L 723 -653 
Q 730 -448 730 -51 
L 730 4064 
Q 730 4525 704 4736 
Q 1037 4602 1338 4422 
z
M 3776 2061 
L 3315 2061 
L 3315 -147 
L 4275 333 
L 4352 211 
Q 3456 -467 3008 -934 
Q 2970 -979 2950 -979 
Q 2906 -979 2618 -384 
Q 2720 -262 2761 -150 
Q 2803 -38 2803 230 
L 2803 4109 
Q 2803 4429 2790 4678 
Q 3155 4544 3424 4365 
L 4877 4365 
L 5037 4602 
Q 5069 4653 5123 4653 
Q 5178 4653 5443 4473 
Q 5709 4294 5709 4236 
Q 5709 4179 5472 4045 
L 5472 2630 
Q 5472 2451 5478 2323 
L 5485 2125 
Q 5485 2080 5453 2061 
L 5344 2003 
Q 5274 1965 5120 1917 
Q 4966 1869 4944 1869 
Q 4922 1869 4922 1926 
L 4922 2061 
L 3949 2061 
Q 4186 1376 4525 909 
Q 5171 1459 5414 1798 
Q 5952 1440 5952 1363 
Q 5952 1331 5837 1328 
Q 5722 1325 5555 1229 
Q 5344 1094 4634 768 
Q 5216 51 6253 -288 
L 6253 -403 
Q 5984 -422 5837 -470 
Q 5690 -518 5581 -678 
Q 5542 -730 5485 -730 
Q 5293 -730 4659 -29 
Q 4026 672 3776 2061 
z
M 3315 3341 
L 4922 3341 
L 4922 4186 
L 3315 4186 
L 3315 3341 
z
M 4922 3142 
L 3315 3142 
L 3315 2253 
L 4922 2253 
L 4922 3142 
z
" transform="scale(0.015625)"/>
      <path id="STZhongsong-5206" d="M 6170 2214 
L 6144 2067 
Q 5805 2086 5670 2019 
Q 5536 1952 5414 1754 
Q 5382 1696 5325 1696 
Q 5146 1696 4518 2473 
Q 3891 3251 3603 4851 
Q 3808 4826 4013 4784 
Q 4218 4742 4256 4713 
Q 4294 4685 4294 4643 
Q 4294 4602 4188 4563 
Q 4083 4525 4083 4384 
Q 4083 4179 4297 3683 
Q 4512 3187 4976 2784 
Q 5440 2381 6170 2214 
z
M 2298 4736 
Q 2982 4326 2982 4224 
Q 2982 4173 2876 4153 
Q 2771 4134 2720 4083 
Q 2669 4032 2579 3853 
Q 2163 3008 1648 2435 
Q 1133 1862 314 1306 
L 237 1395 
Q 1651 2694 2298 4736 
z
M 2272 1965 
L 1875 1965 
Q 1709 1965 1606 1920 
L 1491 2202 
Q 1626 2170 1811 2170 
L 4013 2170 
L 4134 2374 
Q 4173 2438 4211 2438 
Q 4250 2438 4534 2256 
Q 4819 2074 4819 2029 
Q 4819 1984 4640 1920 
Q 4608 1037 4563 512 
Q 4518 -13 4454 -243 
Q 4390 -474 4252 -656 
Q 4115 -838 3888 -956 
Q 3661 -1075 3545 -1075 
Q 3430 -1075 3424 -941 
Q 3405 -672 3216 -509 
Q 3027 -346 2650 -205 
L 2694 -83 
Q 3398 -250 3590 -250 
Q 3757 -250 3827 -131 
Q 3898 -13 3968 435 
Q 4038 883 4070 1965 
L 2880 1965 
Q 2714 634 2218 19 
Q 1722 -595 512 -1107 
L 474 -998 
Q 1440 -435 1817 169 
Q 2195 774 2272 1965 
z
" transform="scale(0.015625)"/>
      <path id="STZhongsong-5e03" d="M 2291 3450 
L 742 3450 
Q 589 3450 467 3418 
L 352 3725 
Q 486 3693 672 3693 
L 2400 3693 
Q 2656 4307 2803 4954 
Q 3053 4896 3293 4809 
Q 3533 4723 3597 4678 
Q 3661 4634 3661 4589 
Q 3661 4518 3501 4493 
Q 3443 4486 3404 4448 
Q 3366 4410 3270 4170 
Q 3174 3930 3059 3693 
L 5005 3693 
L 5293 4102 
Q 5363 4205 5424 4205 
Q 5485 4205 5549 4141 
L 5779 3910 
Q 5939 3744 6006 3635 
Q 6074 3526 6074 3488 
Q 6074 3450 5965 3450 
L 2938 3450 
Q 2624 2842 2202 2323 
L 2278 2285 
L 3168 2285 
L 3168 2688 
Q 3168 3008 3155 3258 
Q 3936 3130 3936 3027 
Q 3936 2970 3731 2893 
L 3731 2285 
L 4794 2285 
L 4922 2515 
Q 4960 2592 5008 2592 
Q 5056 2592 5277 2473 
Q 5498 2355 5603 2278 
Q 5709 2202 5709 2157 
Q 5709 2080 5440 1965 
L 5440 557 
Q 5440 198 5379 60 
Q 5318 -77 5043 -224 
Q 4768 -371 4704 -371 
Q 4640 -371 4614 -256 
Q 4563 -32 4444 93 
Q 4326 218 3949 403 
L 3987 531 
Q 4499 378 4611 378 
Q 4723 378 4761 410 
Q 4800 442 4800 570 
L 4800 2074 
L 3731 2074 
L 3731 -211 
L 3744 -845 
Q 3744 -928 3696 -963 
Q 3648 -998 3475 -1049 
Q 3302 -1101 3200 -1101 
Q 3149 -1101 3149 -1011 
L 3155 -717 
Q 3168 -422 3168 -179 
L 3168 2074 
L 2208 2074 
L 2208 -154 
Q 2208 -262 2160 -300 
Q 2112 -339 1933 -390 
Q 1754 -442 1638 -442 
Q 1581 -442 1581 -365 
L 1594 -6 
Q 1600 218 1600 480 
L 1600 1670 
Q 1101 1190 269 614 
L 192 710 
Q 1030 1446 1600 2246 
Q 1594 2483 1587 2573 
Q 1658 2554 1773 2502 
Q 2074 2970 2291 3450 
z
" transform="scale(0.015625)"/>
     </defs>
     <use xlink:href="#STZhongsong-4f01"/>
     <use xlink:href="#STZhongsong-4e1a" transform="translate(99.999985 0)"/>
     <use xlink:href="#STZhongsong-6837" transform="translate(199.999969 0)"/>
     <use xlink:href="#STZhongsong-672c" transform="translate(299.999954 0)"/>
     <use xlink:href="#STZhongsong-5185" transform="translate(399.999939 0)"/>
     <use xlink:href="#STZhongsong-6d3b" transform="translate(499.999924 0)"/>
     <use xlink:href="#STZhongsong-8dc3" transform="translate(599.999908 0)"/>
     <use xlink:href="#STZhongsong-5e74" transform="translate(699.999893 0)"/>
     <use xlink:href="#STZhongsong-9650" transform="translate(799.999878 0)"/>
     <use xlink:href="#STZhongsong-5206" transform="translate(899.999863 0)"/>
     <use xlink:href="#STZhongsong-5e03" transform="translate(999.999847 0)"/>
    </g>
   </g>
  </g>
 </g>
 <defs>
  <clipPath id="pa52c92b1e5">
   <rect x="71.38" y="38.992656" width="777.85" height="366.28875"/>
  </clipPath>
 </defs>
</svg>
