<?xml version="1.0" encoding="utf-8" standalone="no"?>
<!DOCTYPE svg PUBLIC "-//W3C//DTD SVG 1.1//EN"
  "http://www.w3.org/Graphics/SVG/1.1/DTD/svg11.dtd">
<svg xmlns:xlink="http://www.w3.org/1999/xlink" width="856.55pt" height="453.116406pt" viewBox="0 0 856.55 453.116406" xmlns="http://www.w3.org/2000/svg" version="1.1">
 <metadata>
  <rdf:RDF xmlns:dc="http://purl.org/dc/elements/1.1/" xmlns:cc="http://creativecommons.org/ns#" xmlns:rdf="http://www.w3.org/1999/02/22-rdf-syntax-ns#">
   <cc:Work>
    <dc:type rdf:resource="http://purl.org/dc/dcmitype/StillImage"/>
    <dc:date>2026-06-06T01:21:30.688504</dc:date>
    <dc:format>image/svg+xml</dc:format>
    <dc:creator>
     <cc:Agent>
      <dc:title>Matplotlib v3.10.0, https://matplotlib.org/</dc:title>
     </cc:Agent>
    </dc:creator>
   </cc:Work>
  </rdf:RDF>
 </metadata>
 <defs>
  <style type="text/css">*{stroke-linejoin: round; stroke-linecap: butt}</style>
 </defs>
 <g id="figure_1">
  <g id="patch_1">
   <path d="M -0 453.116406 
L 856.55 453.116406 
L 856.55 0 
L -0 0 
z
" style="fill: #ffffff"/>
  </g>
  <g id="axes_1">
   <g id="patch_2">
    <path d="M 80.68 405.011406 
L 849.35 405.011406 
L 849.35 38.992656 
L 80.68 38.992656 
z
" style="fill: #ffffff"/>
   </g>
   <g id="patch_3">
    <path d="M 115.619545 405.011406 
L 272.712075 405.011406 
L 272.712075 56.422121 
L 115.619545 56.422121 
z
" clip-path="url(#p18046d42bc)" style="fill: #c7a76c"/>
   </g>
   <g id="patch_4">
    <path d="M 386.468735 405.011406 
L 543.561265 405.011406 
L 543.561265 392.68014 
L 386.468735 392.68014 
z
" clip-path="url(#p18046d42bc)" style="fill: #c7a76c"/>
   </g>
   <g id="patch_5">
    <path d="M 657.317925 405.011406 
L 814.410455 405.011406 
L 814.410455 404.963611 
L 657.317925 404.963611 
z
" clip-path="url(#p18046d42bc)" style="fill: #c7a76c"/>
   </g>
   <g id="matplotlib.axis_1">
    <g id="xtick_1">
     <g id="line2d_1">
      <defs>
       <path id="mccd22ede70" d="M 0 0 
L 0 3.5 
" style="stroke: #111111; stroke-width: 0.8"/>
      </defs>
      <g>
       <use xlink:href="#mccd22ede70" x="194.16581" y="405.011406" style="fill: #111111; stroke: #111111; stroke-width: 0.8"/>
      </g>
     </g>
     <g id="text_1">
      <!-- 1 -->
      <g style="fill: #111111" transform="translate(189.51581 422.750469) scale(0.15 -0.15)">
       <defs>
        <path id="STZhongsong-31" d="M 2150 4358 
L 2387 4358 
L 2387 742 
Q 2387 422 2464 342 
Q 2541 262 2822 262 
L 3130 262 
L 3130 0 
L 1069 0 
L 1069 262 
L 1408 262 
Q 1670 262 1766 348 
Q 1862 435 1862 742 
L 1862 3718 
L 1069 3718 
L 1069 3987 
Q 1709 4070 2150 4358 
z
" transform="scale(0.015625)"/>
       </defs>
       <use xlink:href="#STZhongsong-31"/>
      </g>
     </g>
    </g>
    <g id="xtick_2">
     <g id="line2d_2">
      <g>
       <use xlink:href="#mccd22ede70" x="465.015" y="405.011406" style="fill: #111111; stroke: #111111; stroke-width: 0.8"/>
      </g>
     </g>
     <g id="text_2">
      <!-- 2 -->
      <g style="fill: #111111" transform="translate(460.365 422.750469) scale(0.15 -0.15)">
       <defs>
        <path id="STZhongsong-32" d="M 723 2714 
L 422 2675 
Q 397 2835 397 2989 
Q 397 3616 832 4025 
Q 1267 4435 1978 4435 
Q 2630 4435 3043 4064 
Q 3456 3693 3456 3098 
Q 3456 2669 3286 2349 
Q 3117 2029 2611 1603 
Q 2106 1178 1037 467 
L 2662 467 
Q 2963 467 3062 544 
Q 3162 621 3200 838 
L 3232 1018 
L 3494 1018 
L 3283 -154 
L 3085 -154 
L 3053 0 
L 320 0 
L 320 262 
L 819 640 
Q 1901 1453 2377 1977 
Q 2854 2502 2854 3066 
Q 2854 3507 2569 3788 
Q 2285 4070 1837 4070 
Q 1325 4070 1017 3753 
Q 710 3437 710 2918 
Q 710 2822 723 2714 
z
" transform="scale(0.015625)"/>
       </defs>
       <use xlink:href="#STZhongsong-32"/>
      </g>
     </g>
    </g>
    <g id="xtick_3">
     <g id="line2d_3">
      <g>
       <use xlink:href="#mccd22ede70" x="735.86419" y="405.011406" style="fill: #111111; stroke: #111111; stroke-width: 0.8"/>
      </g>
     </g>
     <g id="text_3">
      <!-- 3 -->
      <g style="fill: #111111" transform="translate(731.21419 422.750469) scale(0.15 -0.15)">
       <defs>
        <path id="STZhongsong-33" d="M 934 3194 
L 634 3238 
Q 717 3827 1097 4131 
Q 1478 4435 2061 4435 
Q 2662 4435 3046 4124 
Q 3430 3814 3430 3360 
Q 3430 3021 3190 2761 
Q 2950 2502 2502 2374 
Q 3046 2298 3334 1974 
Q 3622 1651 3622 1222 
Q 3622 698 3155 310 
Q 2688 -77 1997 -77 
Q 1299 -77 844 275 
Q 390 627 390 960 
Q 390 1114 505 1184 
Q 621 1254 710 1254 
Q 922 1254 1043 858 
Q 1133 544 1369 377 
Q 1606 211 1952 211 
Q 2419 211 2720 512 
Q 3021 813 3021 1267 
Q 3021 1702 2717 1952 
Q 2413 2202 1862 2202 
L 1568 2202 
L 1568 2502 
L 1754 2502 
Q 2829 2502 2829 3283 
Q 2829 3629 2592 3843 
Q 2355 4058 1952 4058 
Q 1107 4058 934 3194 
z
" transform="scale(0.015625)"/>
       </defs>
       <use xlink:href="#STZhongsong-33"/>
      </g>
     </g>
    </g>
    <g id="text_4">
     <!-- 企业涉及格网数量 -->
     <g style="fill: #111111" transform="translate(397.015 442.516406) scale(0.17 -0.17)">
      <defs>
       <path id="STZhongsong-4f01" d="M 3232 4314 
Q 3174 4243 3130 4160 
Q 2726 3469 2377 3046 
Q 2029 2624 1542 2272 
Q 1056 1920 218 1459 
L 154 1562 
Q 1139 2291 1696 2979 
Q 2253 3667 2771 4832 
Q 3482 4576 3482 4506 
Q 3482 4467 3341 4410 
Q 4179 3034 6259 2554 
L 6246 2432 
Q 5946 2432 5786 2371 
Q 5626 2310 5472 2112 
Q 5427 2061 5389 2061 
Q 5318 2061 4774 2432 
Q 4230 2803 3852 3251 
Q 3475 3699 3232 4314 
z
M 3558 1414 
L 4179 1414 
L 4429 1754 
Q 4486 1830 4557 1830 
Q 4614 1830 4761 1721 
Q 4909 1613 5056 1472 
Q 5203 1331 5203 1286 
Q 5203 1216 5062 1216 
L 3558 1216 
L 3558 -461 
L 4870 -461 
L 5171 -45 
Q 5235 45 5280 45 
Q 5344 45 5696 -240 
Q 6048 -525 6048 -598 
Q 6048 -672 5933 -672 
L 723 -672 
Q 550 -672 454 -717 
L 339 -429 
Q 474 -461 659 -461 
L 1466 -461 
L 1466 1370 
Q 1466 1690 1453 1939 
Q 1971 1805 2076 1763 
Q 2182 1722 2182 1677 
Q 2182 1632 2016 1549 
L 2016 -461 
L 3034 -461 
L 3034 2413 
Q 3034 2733 3021 2982 
Q 3360 2899 3568 2816 
Q 3776 2733 3776 2682 
Q 3776 2611 3558 2502 
L 3558 1414 
z
" transform="scale(0.015625)"/>
       <path id="STZhongsong-4e1a" d="M 3552 -422 
L 3552 4154 
Q 3552 4646 3539 4755 
Q 3821 4698 4096 4608 
Q 4371 4518 4371 4448 
Q 4371 4378 4096 4243 
L 4096 768 
Q 4659 1626 5158 3341 
Q 5747 3053 5843 2989 
Q 5939 2925 5939 2873 
Q 5939 2822 5818 2810 
Q 5766 2803 5731 2771 
Q 5696 2739 5619 2618 
Q 4813 1210 4096 442 
L 4096 -422 
L 5056 -422 
L 5370 -26 
Q 5440 58 5485 58 
Q 5530 58 5616 -16 
Q 5702 -90 5862 -240 
Q 6022 -390 6092 -476 
Q 6163 -563 6163 -608 
Q 6163 -653 6048 -653 
L 640 -653 
Q 499 -653 416 -685 
L 282 -390 
Q 384 -422 538 -422 
L 2278 -422 
L 2278 4115 
Q 2278 4608 2266 4717 
Q 2886 4576 3001 4531 
Q 3117 4486 3117 4422 
Q 3117 4358 2822 4256 
L 2822 -422 
L 3552 -422 
z
M 787 3181 
Q 1357 2458 1645 2000 
Q 1933 1542 1933 1273 
Q 1933 1005 1757 758 
Q 1581 512 1434 512 
Q 1363 512 1340 557 
Q 1318 602 1318 781 
Q 1318 1754 698 3104 
L 787 3181 
z
" transform="scale(0.015625)"/>
       <path id="STZhongsong-6d89" d="M 4461 3757 
L 5030 3757 
L 5242 4064 
Q 5306 4160 5373 4160 
Q 5440 4160 5709 3917 
Q 5978 3674 5978 3600 
Q 5978 3526 5862 3526 
L 4461 3526 
L 4461 2605 
L 5146 2605 
L 5402 2963 
Q 5472 3066 5533 3066 
Q 5594 3066 5901 2797 
Q 6208 2528 6208 2470 
Q 6208 2413 6010 2413 
L 2445 2413 
Q 2278 2413 2214 2381 
L 2106 2630 
Q 2234 2605 2374 2605 
L 2797 2605 
L 2797 3827 
Q 2797 4147 2784 4397 
Q 3014 4333 3216 4256 
Q 3418 4179 3462 4150 
Q 3507 4122 3507 4090 
Q 3507 4026 3296 3910 
L 3296 2605 
L 3936 2605 
L 3936 4378 
Q 3936 4698 3923 4947 
Q 4134 4896 4380 4822 
Q 4627 4749 4678 4723 
Q 4730 4698 4730 4666 
Q 4730 4595 4461 4480 
L 4461 3757 
z
M 774 4634 
Q 1306 4531 1638 4390 
Q 1971 4250 1971 4019 
Q 1971 3891 1884 3715 
Q 1798 3539 1670 3539 
Q 1626 3539 1594 3571 
Q 1562 3603 1459 3782 
Q 1357 3962 1209 4122 
Q 1062 4282 736 4544 
L 774 4634 
z
M 2464 3853 
L 1715 1715 
Q 1568 1293 1517 1024 
Q 1466 755 1466 502 
Q 1466 250 1494 -44 
Q 1523 -339 1523 -518 
Q 1523 -954 1337 -954 
Q 1152 -954 944 -861 
Q 736 -768 736 -531 
Q 736 -403 794 -237 
Q 966 282 966 544 
Q 966 781 832 886 
Q 698 992 218 1139 
L 250 1280 
Q 518 1235 720 1235 
Q 922 1235 1072 1350 
Q 1222 1466 1408 1875 
L 2330 3917 
L 2464 3853 
z
M 390 3187 
Q 1018 3072 1245 2950 
Q 1472 2829 1472 2653 
Q 1472 2477 1395 2313 
Q 1318 2150 1190 2150 
Q 1133 2150 1094 2195 
Q 1056 2240 921 2457 
Q 787 2675 691 2790 
Q 595 2906 346 3098 
L 390 3187 
z
M 3757 2381 
Q 4173 2285 4336 2230 
Q 4499 2176 4499 2118 
Q 4499 2042 4320 1946 
L 4320 1107 
Q 4320 838 4326 755 
L 4333 589 
Q 4333 499 4093 393 
Q 3853 288 3805 288 
Q 3757 288 3757 336 
Q 3757 384 3766 557 
Q 3776 730 3776 1018 
L 3776 1696 
Q 3776 2163 3757 2381 
z
M 5350 1952 
Q 5562 1805 5741 1664 
Q 5920 1523 5942 1488 
Q 5965 1453 5965 1421 
Q 5965 1344 5856 1344 
Q 5747 1344 5686 1286 
Q 5626 1229 5510 1075 
Q 4922 262 4486 -29 
Q 4051 -320 3472 -563 
Q 2893 -806 1773 -1024 
L 1766 -915 
Q 2720 -602 3446 -208 
Q 4173 186 4582 672 
Q 4992 1158 5350 1952 
z
M 2842 1882 
Q 3482 1510 3482 1443 
Q 3482 1376 3386 1369 
Q 3290 1363 3235 1315 
Q 3181 1267 3072 1101 
Q 2547 282 1920 -224 
L 1824 -173 
Q 2445 800 2842 1882 
z
" transform="scale(0.015625)"/>
       <path id="STZhongsong-53ca" d="M 4147 557 
Q 4666 109 5123 -108 
Q 5581 -326 6189 -448 
L 6182 -576 
Q 5875 -563 5673 -636 
Q 5472 -710 5293 -902 
Q 5261 -934 5235 -934 
Q 5165 -934 4659 -579 
Q 4154 -224 3776 179 
Q 2694 -806 960 -1069 
L 941 -966 
Q 2394 -544 3456 538 
Q 2778 1421 2515 3296 
Q 2349 1459 1878 617 
Q 1408 -224 262 -954 
L 186 -858 
Q 1056 -102 1456 922 
Q 1856 1946 2016 4070 
L 1056 4070 
Q 883 4070 787 4026 
L 672 4346 
Q 806 4314 992 4314 
L 4058 4314 
L 4243 4563 
Q 4275 4608 4304 4608 
Q 4333 4608 4541 4477 
Q 4749 4346 4880 4250 
Q 5011 4154 5011 4115 
Q 5011 4051 4870 4041 
Q 4730 4032 4659 3955 
Q 4589 3878 4521 3756 
Q 4454 3635 4416 3533 
L 4064 2592 
L 4602 2592 
L 4787 2810 
Q 4838 2874 4873 2874 
Q 4909 2874 5085 2758 
Q 5261 2643 5411 2524 
Q 5562 2406 5562 2368 
Q 5562 2310 5331 2266 
Q 5210 2240 5069 1933 
Q 4717 1171 4147 557 
z
M 2573 3942 
Q 2963 1837 3782 896 
Q 4230 1414 4589 2362 
L 4077 2362 
L 3968 2202 
Q 3942 2157 3884 2157 
Q 3827 2157 3609 2256 
Q 3392 2355 3264 2438 
Q 3539 2618 3661 2970 
L 4038 4070 
L 2586 4070 
Q 2586 3974 2573 3942 
z
" transform="scale(0.015625)"/>
       <path id="STZhongsong-683c" d="M 1722 3334 
L 1869 3334 
L 2029 3571 
Q 2093 3667 2147 3667 
Q 2202 3667 2429 3449 
Q 2656 3232 2656 3171 
Q 2656 3110 2522 3110 
L 1722 3110 
L 1722 2573 
Q 2112 2445 2320 2281 
Q 2528 2118 2528 1875 
Q 2528 1760 2413 1638 
Q 2298 1517 2208 1517 
Q 2118 1517 2083 1542 
Q 2048 1568 2022 1709 
Q 1933 2182 1722 2394 
L 1722 -691 
Q 1722 -755 1706 -771 
Q 1690 -787 1597 -844 
Q 1504 -902 1363 -960 
Q 1222 -1018 1200 -1018 
Q 1178 -1018 1178 -960 
L 1190 -691 
Q 1203 -371 1203 -90 
L 1203 1971 
Q 1037 1562 825 1242 
Q 614 922 192 467 
L 102 538 
Q 749 1594 1094 3110 
L 570 3110 
Q 403 3110 294 3078 
L 186 3366 
Q 320 3334 506 3334 
L 1203 3334 
L 1203 4134 
Q 1203 4557 1184 4864 
Q 1965 4685 1965 4614 
Q 1965 4570 1722 4429 
L 1722 3334 
z
M 3341 3398 
Q 2995 2848 2464 2298 
L 2362 2362 
Q 2771 2995 2992 3516 
Q 3213 4038 3373 4806 
Q 3814 4666 3932 4602 
Q 4051 4538 4051 4499 
Q 4051 4461 3955 4416 
Q 3859 4371 3744 4137 
Q 3629 3904 3590 3834 
L 4813 3834 
L 4998 4115 
Q 5030 4166 5065 4166 
Q 5101 4166 5254 4060 
Q 5408 3955 5526 3868 
Q 5645 3782 5680 3737 
Q 5715 3693 5715 3648 
Q 5715 3571 5619 3558 
Q 5523 3546 5404 3456 
Q 5286 3366 5190 3219 
Q 4832 2688 4518 2374 
Q 5178 1952 6182 1754 
L 6182 1651 
Q 5869 1606 5773 1548 
Q 5677 1491 5613 1338 
Q 5587 1267 5520 1267 
Q 5453 1267 4960 1513 
Q 4467 1760 4147 2035 
Q 3725 1702 3034 1376 
Q 3251 1306 3456 1203 
L 4678 1203 
L 4781 1382 
Q 4813 1440 4880 1440 
Q 4947 1440 5190 1289 
Q 5434 1139 5434 1062 
Q 5434 986 5248 922 
L 5248 -186 
Q 5248 -365 5254 -493 
L 5261 -691 
Q 5261 -730 5197 -771 
Q 5133 -813 4973 -873 
Q 4813 -934 4755 -934 
Q 4717 -934 4717 -870 
L 4717 -390 
L 3443 -390 
L 3443 -813 
Q 3443 -877 3424 -896 
Q 3405 -915 3222 -979 
Q 3040 -1043 2963 -1043 
Q 2938 -1043 2938 -992 
L 2944 -755 
Q 2950 -646 2950 -454 
L 2950 794 
Q 2950 1165 2938 1331 
Q 2438 1101 2022 941 
L 1971 1037 
Q 3290 1786 3859 2336 
Q 3539 2746 3341 3398 
z
M 3494 3661 
Q 3469 3610 3456 3590 
Q 3750 3002 4160 2650 
Q 4544 3091 4826 3661 
L 3494 3661 
z
M 3443 -198 
L 4717 -198 
L 4717 1011 
L 3443 1011 
L 3443 -198 
z
" transform="scale(0.015625)"/>
       <path id="STZhongsong-7f51" d="M 1542 4320 
L 4992 4320 
L 5158 4614 
Q 5197 4678 5248 4678 
Q 5299 4678 5603 4464 
Q 5907 4250 5907 4179 
Q 5907 4109 5651 4038 
L 5651 -166 
Q 5651 -499 5584 -646 
Q 5517 -794 5245 -928 
Q 4973 -1062 4890 -1062 
Q 4845 -1062 4819 -966 
Q 4742 -685 4588 -576 
Q 4435 -467 3917 -326 
L 3936 -186 
Q 4608 -301 4800 -301 
Q 4992 -301 5037 -230 
Q 5082 -160 5082 32 
L 5082 4134 
L 1498 4134 
L 1498 -736 
Q 1498 -781 1485 -800 
Q 1472 -819 1360 -883 
Q 1248 -947 1110 -995 
Q 973 -1043 941 -1043 
Q 909 -1043 915 -986 
Q 954 -666 954 -166 
L 954 4141 
Q 954 4461 941 4710 
Q 1197 4608 1542 4320 
z
M 2470 2534 
Q 2637 3104 2778 3776 
Q 3053 3654 3206 3558 
Q 3360 3462 3389 3433 
Q 3418 3405 3418 3373 
Q 3418 3315 3334 3289 
Q 3251 3264 3203 3184 
Q 3155 3104 3027 2768 
Q 2899 2432 2765 2144 
Q 3245 1459 3245 992 
Q 3245 813 3126 653 
Q 3008 493 2938 493 
Q 2822 493 2790 723 
Q 2720 1261 2547 1683 
Q 2093 781 1632 262 
L 1542 390 
Q 2029 1126 2349 2118 
Q 2138 2534 1619 3290 
L 1709 3360 
Q 2138 2938 2470 2534 
z
M 4006 2522 
Q 4179 3104 4288 3712 
Q 4960 3354 4960 3238 
Q 4960 3194 4873 3165 
Q 4787 3136 4723 3056 
Q 4659 2976 4550 2688 
Q 4442 2400 4307 2106 
Q 4883 1235 4883 800 
Q 4883 646 4787 508 
Q 4691 371 4604 371 
Q 4518 371 4461 576 
Q 4320 1088 4096 1658 
Q 3654 787 3014 102 
L 2938 192 
Q 3494 1005 3885 2150 
Q 3686 2586 3347 3136 
L 3462 3181 
Q 3757 2835 4006 2522 
z
" transform="scale(0.015625)"/>
       <path id="STZhongsong-6570" d="M 2394 3334 
L 2938 3334 
L 3136 3616 
Q 3181 3680 3245 3680 
Q 3309 3680 3520 3462 
Q 3731 3245 3731 3193 
Q 3731 3142 3610 3142 
L 2394 3142 
L 2394 3027 
Q 2784 2938 3069 2819 
Q 3354 2701 3354 2515 
Q 3354 2381 3296 2227 
Q 3238 2074 3171 2074 
Q 3104 2074 3069 2109 
Q 3034 2144 2963 2259 
Q 2893 2374 2720 2556 
Q 2547 2739 2394 2854 
Q 2406 2381 2406 2259 
Q 2406 2138 2393 2099 
Q 2381 2061 2217 2006 
Q 2054 1952 1971 1933 
Q 2291 1811 2291 1722 
Q 2291 1670 2227 1660 
Q 2163 1651 2118 1609 
Q 2074 1568 1990 1434 
L 2637 1434 
L 2803 1619 
Q 2854 1677 2892 1677 
Q 2931 1677 3190 1481 
Q 3450 1286 3450 1228 
Q 3450 1171 3338 1148 
Q 3226 1126 3168 1088 
Q 3110 1050 3053 941 
Q 2848 563 2637 307 
Q 3040 205 3133 38 
Q 3226 -128 3226 -262 
Q 3226 -397 3187 -467 
Q 3149 -538 3101 -538 
Q 3053 -538 2816 -378 
Q 2579 -218 2278 -51 
Q 1664 -589 384 -992 
L 333 -877 
Q 1338 -371 1875 141 
Q 1440 326 845 474 
Q 1184 954 1331 1222 
L 691 1222 
Q 518 1222 422 1190 
L 307 1453 
Q 410 1434 627 1434 
L 1440 1434 
Q 1626 1824 1690 2035 
Q 1818 1997 1869 1978 
Q 1888 2515 1888 2874 
Q 1421 2125 282 1613 
L 243 1715 
Q 1075 2330 1549 3142 
L 589 3142 
Q 467 3142 390 3110 
L 301 3366 
Q 416 3334 550 3334 
L 1888 3334 
L 1888 4147 
Q 1888 4698 1875 4877 
Q 2592 4723 2592 4653 
Q 2592 4608 2394 4499 
L 2394 3334 
z
M 1856 1222 
L 1427 570 
Q 1914 480 2138 429 
Q 2413 762 2630 1222 
L 1856 1222 
z
M 4326 3270 
L 5222 3270 
L 5485 3590 
Q 5549 3661 5609 3661 
Q 5670 3661 5939 3421 
Q 6208 3181 6208 3117 
Q 6208 3072 6054 3072 
L 5050 3072 
Q 5638 2925 5638 2810 
Q 5638 2771 5542 2742 
Q 5446 2714 5404 2643 
Q 5363 2573 5338 2438 
Q 5088 1069 4749 518 
Q 5261 -186 6304 -646 
L 6246 -774 
Q 6080 -730 5933 -730 
Q 5658 -730 5446 -902 
Q 5389 -947 5363 -947 
Q 5299 -947 4934 -534 
Q 4570 -122 4448 102 
Q 4115 -301 3657 -579 
Q 3200 -858 2470 -1139 
L 2413 -1005 
Q 3642 -307 4211 544 
Q 3942 1152 3878 2342 
Q 3654 1946 3322 1491 
L 3213 1555 
Q 3949 2963 4109 4877 
Q 4333 4832 4563 4761 
Q 4794 4691 4858 4649 
Q 4922 4608 4922 4563 
Q 4922 4518 4813 4492 
Q 4704 4467 4653 4384 
Q 4602 4301 4538 3974 
Q 4474 3648 4326 3270 
z
M 4870 3072 
L 4250 3072 
L 4064 2682 
Q 4141 1594 4454 979 
Q 4723 1619 4870 3072 
z
M 3104 4602 
Q 3264 4525 3453 4422 
Q 3642 4320 3670 4288 
Q 3699 4256 3699 4221 
Q 3699 4186 3673 4170 
Q 3648 4154 3539 4154 
Q 3430 4154 3315 4038 
Q 2957 3680 2528 3392 
L 2464 3488 
Q 2906 4102 3104 4602 
z
M 653 4512 
Q 1171 4326 1353 4201 
Q 1536 4077 1536 3901 
Q 1536 3725 1453 3590 
Q 1370 3456 1286 3456 
Q 1203 3456 1164 3494 
Q 1126 3533 1084 3673 
Q 1043 3814 899 4038 
Q 755 4262 589 4429 
L 653 4512 
z
" transform="scale(0.015625)"/>
       <path id="STZhongsong-91cf" d="M 2054 4480 
L 4410 4480 
L 4576 4691 
Q 4608 4730 4640 4730 
Q 4691 4730 4969 4582 
Q 5248 4435 5248 4368 
Q 5248 4301 5024 4198 
L 5024 3738 
Q 5024 3552 5037 3341 
L 5043 3142 
Q 5043 3098 5030 3075 
Q 5018 3053 4922 2992 
Q 4826 2931 4685 2876 
Q 4544 2822 4509 2822 
Q 4474 2822 4474 2880 
L 4474 3046 
L 2016 3046 
Q 2029 2989 2006 2960 
Q 1984 2931 1897 2886 
Q 1811 2842 1660 2797 
Q 1510 2752 1475 2752 
Q 1440 2752 1446 2822 
Q 1478 3130 1478 3456 
L 1478 4198 
Q 1478 4467 1459 4742 
Q 1830 4608 2054 4480 
z
M 4474 3853 
L 4474 4294 
L 2016 4294 
L 2016 3853 
L 4474 3853 
z
M 4474 3213 
L 4474 3674 
L 2016 3674 
L 2016 3213 
L 4474 3213 
z
M 5171 2675 
L 5395 3040 
Q 5434 3110 5491 3110 
Q 5549 3110 5690 2989 
L 5984 2746 
Q 6138 2618 6138 2560 
Q 6138 2502 5990 2502 
L 640 2502 
Q 467 2502 371 2458 
L 256 2707 
Q 390 2675 576 2675 
L 5171 2675 
z
M 3482 672 
L 3482 166 
L 4666 166 
L 4864 416 
Q 4902 474 4950 474 
Q 4998 474 5251 285 
Q 5504 96 5504 38 
Q 5504 -19 5286 -19 
L 3482 -19 
L 3482 -550 
L 5203 -550 
L 5434 -230 
Q 5485 -160 5542 -160 
Q 5600 -160 5865 -390 
Q 6131 -621 6131 -691 
Q 6131 -736 5965 -736 
L 582 -736 
Q 410 -736 314 -781 
L 198 -518 
Q 333 -550 518 -550 
L 2931 -550 
L 2931 -19 
L 1274 -19 
Q 1101 -19 1005 -64 
L 877 198 
Q 1011 166 1197 166 
L 2931 166 
L 2931 672 
L 1843 672 
Q 1843 589 1824 569 
Q 1805 550 1725 505 
Q 1645 461 1481 413 
Q 1318 365 1296 365 
Q 1274 365 1280 422 
Q 1312 717 1312 1050 
L 1312 1747 
Q 1312 2074 1293 2355 
Q 1715 2253 1926 2150 
L 4544 2150 
L 4685 2362 
Q 4717 2413 4765 2413 
Q 4813 2413 4944 2333 
Q 5075 2253 5209 2157 
Q 5344 2061 5344 2029 
Q 5344 1971 5126 1850 
L 5126 1363 
Q 5126 1056 5133 954 
L 5139 762 
Q 5139 704 5091 669 
Q 5043 634 4880 592 
Q 4717 550 4627 550 
Q 4576 550 4576 627 
L 4576 672 
L 3482 672 
z
M 2931 1510 
L 2931 1978 
L 1843 1978 
L 1843 1510 
L 2931 1510 
z
M 3482 1978 
L 3482 1510 
L 4576 1510 
L 4576 1978 
L 3482 1978 
z
M 3482 1312 
L 3482 858 
L 4576 858 
L 4576 1312 
L 3482 1312 
z
M 2931 858 
L 2931 1312 
L 1843 1312 
L 1843 858 
L 2931 858 
z
" transform="scale(0.015625)"/>
      </defs>
      <use xlink:href="#STZhongsong-4f01"/>
      <use xlink:href="#STZhongsong-4e1a" transform="translate(99.999985 0)"/>
      <use xlink:href="#STZhongsong-6d89" transform="translate(199.999969 0)"/>
      <use xlink:href="#STZhongsong-53ca" transform="translate(299.999954 0)"/>
      <use xlink:href="#STZhongsong-683c" transform="translate(399.999939 0)"/>
      <use xlink:href="#STZhongsong-7f51" transform="translate(499.999924 0)"/>
      <use xlink:href="#STZhongsong-6570" transform="translate(599.999908 0)"/>
      <use xlink:href="#STZhongsong-91cf" transform="translate(699.999893 0)"/>
     </g>
    </g>
   </g>
   <g id="matplotlib.axis_2">
    <g id="ytick_1">
     <g id="line2d_4">
      <path d="M 80.68 405.011406 
L 849.35 405.011406 
" clip-path="url(#p18046d42bc)" style="fill: none; stroke: #ececec; stroke-width: 0.9; stroke-linecap: square"/>
     </g>
     <g id="line2d_5">
      <defs>
       <path id="mea44359472" d="M 0 0 
L -3.5 0 
" style="stroke: #111111; stroke-width: 0.8"/>
      </defs>
      <g>
       <use xlink:href="#mea44359472" x="80.68" y="405.011406" style="fill: #111111; stroke: #111111; stroke-width: 0.8"/>
      </g>
     </g>
     <g id="text_5">
      <!-- 0 -->
      <g style="fill: #111111" transform="translate(64.38 410.380938) scale(0.15 -0.15)">
       <defs>
        <path id="STZhongsong-30" d="M 326 2182 
Q 326 3251 774 3843 
Q 1222 4435 1997 4435 
Q 2752 4435 3197 3827 
Q 3642 3219 3642 2144 
Q 3642 1139 3178 531 
Q 2714 -77 1952 -77 
Q 1229 -77 777 524 
Q 326 1126 326 2182 
z
M 3040 2182 
Q 3040 3104 2758 3616 
Q 2477 4128 1978 4128 
Q 1478 4128 1200 3590 
Q 922 3053 922 2118 
Q 922 1229 1210 733 
Q 1498 237 1971 237 
Q 2470 237 2755 752 
Q 3040 1267 3040 2182 
z
" transform="scale(0.015625)"/>
       </defs>
       <use xlink:href="#STZhongsong-30"/>
      </g>
     </g>
    </g>
    <g id="ytick_2">
     <g id="line2d_6">
      <path d="M 80.68 325.352063 
L 849.35 325.352063 
" clip-path="url(#p18046d42bc)" style="fill: none; stroke: #ececec; stroke-width: 0.9; stroke-linecap: square"/>
     </g>
     <g id="line2d_7">
      <g>
       <use xlink:href="#mea44359472" x="80.68" y="325.352063" style="fill: #111111; stroke: #111111; stroke-width: 0.8"/>
      </g>
     </g>
     <g id="text_6">
      <!-- 5000 -->
      <g style="fill: #111111" transform="translate(36.48 330.721594) scale(0.15 -0.15)">
       <defs>
        <path id="STZhongsong-35" d="M 934 4358 
L 2880 4358 
Q 3046 4358 3097 4387 
Q 3149 4416 3155 4512 
L 3386 4512 
L 3386 3853 
L 1229 3853 
L 1171 2752 
Q 1530 2848 1990 2848 
Q 2771 2848 3228 2451 
Q 3686 2054 3686 1414 
Q 3686 787 3212 355 
Q 2739 -77 2029 -77 
Q 1414 -77 982 236 
Q 550 550 550 890 
Q 550 1037 640 1123 
Q 730 1210 838 1210 
Q 1062 1210 1203 813 
Q 1421 218 2042 218 
Q 2515 218 2819 528 
Q 3123 838 3123 1312 
Q 3123 1824 2777 2128 
Q 2432 2432 1843 2432 
Q 1280 2432 832 2246 
L 934 4358 
z
" transform="scale(0.015625)"/>
       </defs>
       <use xlink:href="#STZhongsong-35"/>
       <use xlink:href="#STZhongsong-30" transform="translate(61.999985 0)"/>
       <use xlink:href="#STZhongsong-30" transform="translate(123.999969 0)"/>
       <use xlink:href="#STZhongsong-30" transform="translate(185.999954 0)"/>
      </g>
     </g>
    </g>
    <g id="ytick_3">
     <g id="line2d_8">
      <path d="M 80.68 245.69272 
L 849.35 245.69272 
" clip-path="url(#p18046d42bc)" style="fill: none; stroke: #ececec; stroke-width: 0.9; stroke-linecap: square"/>
     </g>
     <g id="line2d_9">
      <g>
       <use xlink:href="#mea44359472" x="80.68" y="245.69272" style="fill: #111111; stroke: #111111; stroke-width: 0.8"/>
      </g>
     </g>
     <g id="text_7">
      <!-- 10000 -->
      <g style="fill: #111111" transform="translate(27.18 251.062251) scale(0.15 -0.15)">
       <use xlink:href="#STZhongsong-31"/>
       <use xlink:href="#STZhongsong-30" transform="translate(61.999985 0)"/>
       <use xlink:href="#STZhongsong-30" transform="translate(123.999969 0)"/>
       <use xlink:href="#STZhongsong-30" transform="translate(185.999954 0)"/>
       <use xlink:href="#STZhongsong-30" transform="translate(247.999939 0)"/>
      </g>
     </g>
    </g>
    <g id="ytick_4">
     <g id="line2d_10">
      <path d="M 80.68 166.033377 
L 849.35 166.033377 
" clip-path="url(#p18046d42bc)" style="fill: none; stroke: #ececec; stroke-width: 0.9; stroke-linecap: square"/>
     </g>
     <g id="line2d_11">
      <g>
       <use xlink:href="#mea44359472" x="80.68" y="166.033377" style="fill: #111111; stroke: #111111; stroke-width: 0.8"/>
      </g>
     </g>
     <g id="text_8">
      <!-- 15000 -->
      <g style="fill: #111111" transform="translate(27.18 171.402908) scale(0.15 -0.15)">
       <use xlink:href="#STZhongsong-31"/>
       <use xlink:href="#STZhongsong-35" transform="translate(61.999985 0)"/>
       <use xlink:href="#STZhongsong-30" transform="translate(123.999969 0)"/>
       <use xlink:href="#STZhongsong-30" transform="translate(185.999954 0)"/>
       <use xlink:href="#STZhongsong-30" transform="translate(247.999939 0)"/>
      </g>
     </g>
    </g>
    <g id="ytick_5">
     <g id="line2d_12">
      <path d="M 80.68 86.374034 
L 849.35 86.374034 
" clip-path="url(#p18046d42bc)" style="fill: none; stroke: #ececec; stroke-width: 0.9; stroke-linecap: square"/>
     </g>
     <g id="line2d_13">
      <g>
       <use xlink:href="#mea44359472" x="80.68" y="86.374034" style="fill: #111111; stroke: #111111; stroke-width: 0.8"/>
      </g>
     </g>
     <g id="text_9">
      <!-- 20000 -->
      <g style="fill: #111111" transform="translate(27.18 91.743565) scale(0.15 -0.15)">
       <use xlink:href="#STZhongsong-32"/>
       <use xlink:href="#STZhongsong-30" transform="translate(61.999985 0)"/>
       <use xlink:href="#STZhongsong-30" transform="translate(123.999969 0)"/>
       <use xlink:href="#STZhongsong-30" transform="translate(185.999954 0)"/>
       <use xlink:href="#STZhongsong-30" transform="translate(247.999939 0)"/>
      </g>
     </g>
    </g>
    <g id="text_10">
     <!-- 企业数量 -->
     <g style="fill: #111111" transform="translate(19.78 256.002031) rotate(-90) scale(0.17 -0.17)">
      <use xlink:href="#STZhongsong-4f01"/>
      <use xlink:href="#STZhongsong-4e1a" transform="translate(99.999985 0)"/>
      <use xlink:href="#STZhongsong-6570" transform="translate(199.999969 0)"/>
      <use xlink:href="#STZhongsong-91cf" transform="translate(299.999954 0)"/>
     </g>
    </g>
   </g>
   <g id="patch_6">
    <path d="M 80.68 405.011406 
L 80.68 38.992656 
" style="fill: none; stroke: #111111; stroke-width: 1.35; stroke-linejoin: miter; stroke-linecap: square"/>
   </g>
   <g id="patch_7">
    <path d="M 80.68 405.011406 
L 849.35 405.011406 
" style="fill: none; stroke: #111111; stroke-width: 1.35; stroke-linejoin: miter; stroke-linecap: square"/>
   </g>
   <g id="text_11">
    <!-- 21,880 -->
    <g style="fill: #111111" transform="translate(171.93581 48.422121) scale(0.13 -0.13)">
     <defs>
      <path id="STZhongsong-2c" d="M 691 -1133 
L 525 -928 
Q 883 -634 1036 -403 
Q 1190 -173 1158 45 
Q 1037 0 941 0 
Q 800 0 713 99 
Q 627 198 627 339 
Q 627 499 739 604 
Q 851 710 1024 710 
Q 1210 710 1363 540 
Q 1517 371 1517 128 
Q 1517 -211 1331 -486 
Q 1146 -762 691 -1133 
z
" transform="scale(0.015625)"/>
      <path id="STZhongsong-38" d="M 2477 2419 
Q 3021 2208 3315 1923 
Q 3610 1638 3610 1197 
Q 3610 659 3152 291 
Q 2694 -77 1971 -77 
Q 1274 -77 816 272 
Q 358 621 358 1120 
Q 358 1485 633 1779 
Q 909 2074 1440 2259 
Q 1011 2451 800 2691 
Q 589 2931 589 3315 
Q 589 3814 998 4124 
Q 1408 4435 2035 4435 
Q 2618 4435 2998 4134 
Q 3379 3834 3379 3424 
Q 3379 2790 2477 2419 
z
M 2189 2534 
Q 2451 2707 2662 2918 
Q 2874 3130 2874 3418 
Q 2874 3706 2621 3923 
Q 2368 4141 1971 4141 
Q 1594 4141 1331 3926 
Q 1069 3712 1069 3430 
Q 1069 3168 1270 2989 
Q 1472 2810 1824 2675 
L 2189 2534 
z
M 1747 2131 
Q 1325 1939 1088 1670 
Q 851 1402 851 1126 
Q 851 762 1177 490 
Q 1504 218 1984 218 
Q 2438 218 2774 483 
Q 3110 749 3110 1082 
Q 3110 1594 2253 1933 
L 1747 2131 
z
" transform="scale(0.015625)"/>
     </defs>
     <use xlink:href="#STZhongsong-32"/>
     <use xlink:href="#STZhongsong-31" transform="translate(61.999985 0)"/>
     <use xlink:href="#STZhongsong-2c" transform="translate(123.999969 0)"/>
     <use xlink:href="#STZhongsong-38" transform="translate(155.999954 0)"/>
     <use xlink:href="#STZhongsong-38" transform="translate(217.999939 0)"/>
     <use xlink:href="#STZhongsong-30" transform="translate(279.999924 0)"/>
    </g>
   </g>
   <g id="text_12">
    <!-- 774 -->
    <g style="fill: #111111" transform="translate(452.925 384.68014) scale(0.13 -0.13)">
     <defs>
      <path id="STZhongsong-37" d="M 691 4518 
L 902 4518 
L 934 4358 
L 3667 4358 
L 3667 4096 
Q 2163 2317 1901 0 
L 1261 0 
Q 1421 1190 1949 2150 
Q 2477 3110 3174 3891 
L 1222 3891 
Q 1005 3891 899 3862 
Q 794 3834 736 3635 
L 614 3206 
L 352 3264 
L 691 4518 
z
" transform="scale(0.015625)"/>
      <path id="STZhongsong-34" d="M 3494 1242 
L 2906 1242 
L 2906 518 
Q 2906 275 3213 250 
L 3213 45 
L 1882 45 
L 1882 250 
Q 2054 262 2156 336 
Q 2259 410 2259 518 
L 2259 1242 
L 550 1242 
L 550 1658 
L 2483 4365 
L 2906 4365 
L 2906 1581 
L 3494 1581 
L 3494 1242 
z
M 2259 1581 
L 2259 3462 
L 902 1581 
L 2259 1581 
z
" transform="scale(0.015625)"/>
     </defs>
     <use xlink:href="#STZhongsong-37"/>
     <use xlink:href="#STZhongsong-37" transform="translate(61.999985 0)"/>
     <use xlink:href="#STZhongsong-34" transform="translate(123.999969 0)"/>
    </g>
   </g>
   <g id="text_13">
    <!-- 3 -->
    <g style="fill: #111111" transform="translate(731.83419 396.963611) scale(0.13 -0.13)">
     <use xlink:href="#STZhongsong-33"/>
    </g>
   </g>
   <g id="text_14">
    <!-- 企业样本期内涉及格网数量分布 -->
    <g style="fill: #111111" transform="translate(318.015 22.992656) scale(0.21 -0.21)">
     <defs>
      <path id="STZhongsong-6837" d="M 4307 3373 
Q 4627 4160 4838 4922 
Q 5114 4800 5309 4672 
Q 5504 4544 5504 4499 
Q 5504 4454 5408 4444 
Q 5312 4435 5280 4412 
Q 5248 4390 5197 4314 
Q 4966 3936 4550 3373 
L 5139 3373 
L 5363 3725 
Q 5421 3808 5485 3808 
Q 5549 3808 5805 3558 
Q 6061 3309 6061 3241 
Q 6061 3174 5888 3174 
L 4493 3174 
L 4493 2163 
L 4902 2163 
L 5126 2483 
Q 5190 2573 5260 2573 
Q 5331 2573 5434 2470 
L 5690 2208 
Q 5843 2054 5843 2000 
Q 5843 1946 5677 1946 
L 4493 1946 
L 4493 941 
L 5229 941 
L 5459 1267 
Q 5536 1370 5616 1370 
Q 5696 1370 5814 1251 
Q 5933 1133 6080 976 
Q 6227 819 6227 768 
Q 6227 717 6074 717 
L 4493 717 
L 4493 -128 
L 4506 -787 
Q 4506 -851 4477 -880 
Q 4448 -909 4243 -973 
Q 4038 -1037 3962 -1037 
Q 3910 -1037 3910 -973 
L 3923 -570 
Q 3930 -390 3930 -102 
L 3930 717 
L 2861 717 
Q 2688 717 2592 672 
L 2477 973 
Q 2611 941 2797 941 
L 3930 941 
L 3930 1946 
L 3347 1946 
Q 3174 1946 3078 1901 
L 2963 2195 
Q 3098 2163 3283 2163 
L 3930 2163 
L 3930 3174 
L 3322 3174 
Q 3149 3174 3053 3130 
L 2938 3405 
Q 3072 3373 3258 3373 
L 4307 3373 
z
M 1952 3322 
L 2131 3322 
L 2330 3629 
Q 2400 3738 2473 3738 
Q 2547 3738 2624 3635 
L 2810 3392 
Q 2918 3245 2918 3177 
Q 2918 3110 2720 3110 
L 1952 3110 
L 1952 2554 
Q 2394 2432 2634 2301 
Q 2874 2170 2874 1984 
Q 2874 1798 2771 1644 
Q 2669 1491 2592 1491 
Q 2515 1491 2467 1529 
Q 2419 1568 2374 1702 
Q 2214 2189 1952 2400 
L 1952 -781 
Q 1952 -845 1904 -873 
Q 1856 -902 1664 -960 
Q 1472 -1018 1424 -1018 
Q 1376 -1018 1376 -954 
L 1389 -691 
Q 1395 -422 1395 -96 
L 1395 1984 
Q 1011 1075 173 243 
L 90 320 
Q 915 1555 1280 3110 
L 614 3110 
Q 448 3110 339 3078 
L 230 3354 
Q 365 3322 550 3322 
L 1395 3322 
L 1395 4198 
Q 1395 4614 1376 4922 
Q 1933 4787 2054 4748 
Q 2176 4710 2176 4672 
Q 2176 4634 1952 4493 
L 1952 3322 
z
M 3098 4806 
Q 3571 4570 3814 4362 
Q 4058 4154 4058 3958 
Q 4058 3763 3949 3612 
Q 3840 3462 3699 3462 
Q 3629 3462 3603 3510 
Q 3578 3558 3542 3724 
Q 3507 3891 3353 4201 
Q 3200 4512 3014 4730 
L 3098 4806 
z
" transform="scale(0.015625)"/>
      <path id="STZhongsong-672c" d="M 3475 3552 
L 4922 3552 
L 5242 3974 
Q 5299 4045 5369 4045 
Q 5440 4045 5741 3776 
Q 6042 3507 6042 3430 
Q 6042 3354 5933 3354 
L 3866 3354 
Q 4288 2163 4845 1507 
Q 5402 851 6266 550 
L 6246 435 
Q 6138 442 5984 442 
Q 5830 442 5696 387 
Q 5562 333 5466 186 
Q 5434 134 5395 134 
Q 5318 134 4896 556 
Q 4474 979 4198 1584 
Q 3923 2189 3674 3354 
L 3475 3354 
L 3475 730 
L 3923 730 
L 4096 973 
Q 4179 1094 4224 1094 
Q 4269 1094 4390 976 
Q 4512 858 4637 742 
Q 4762 627 4762 569 
Q 4762 512 4640 512 
L 3475 512 
Q 3475 77 3482 -173 
L 3494 -736 
Q 3494 -794 3440 -832 
Q 3386 -870 3213 -921 
Q 3040 -973 2957 -973 
Q 2918 -973 2918 -890 
L 2931 -358 
Q 2938 -77 2938 512 
L 1997 512 
Q 1830 512 1722 480 
L 1613 762 
Q 1747 730 1933 730 
L 2938 730 
L 2938 2848 
Q 2534 1882 1929 1152 
Q 1325 422 390 -237 
L 314 -141 
Q 1978 1267 2490 3354 
L 838 3354 
Q 672 3354 563 3322 
L 454 3584 
Q 589 3552 774 3552 
L 2938 3552 
Q 2938 4499 2918 4794 
Q 3661 4698 3661 4602 
Q 3661 4550 3475 4384 
L 3475 3552 
z
" transform="scale(0.015625)"/>
      <path id="STZhongsong-671f" d="M 2982 3718 
L 3194 4019 
Q 3232 4077 3273 4077 
Q 3315 4077 3510 3853 
Q 3706 3629 3706 3574 
Q 3706 3520 3610 3520 
L 2982 3520 
L 2982 1126 
L 3206 1414 
Q 3251 1466 3277 1466 
Q 3360 1466 3808 1043 
Q 3853 1370 3853 2486 
Q 3853 3603 3840 4512 
Q 4166 4365 4416 4218 
L 5082 4218 
L 5242 4486 
Q 5293 4570 5337 4570 
Q 5382 4570 5686 4374 
Q 5990 4179 5990 4108 
Q 5990 4038 5760 3917 
L 5760 -390 
Q 5760 -614 5673 -720 
Q 5587 -826 5376 -934 
Q 5165 -1043 5117 -1043 
Q 5069 -1043 5056 -966 
Q 5018 -749 4870 -624 
Q 4723 -499 4282 -358 
L 4294 -218 
Q 4787 -294 4950 -294 
Q 5114 -294 5155 -262 
Q 5197 -230 5197 -154 
L 5197 1280 
L 4333 1280 
Q 4282 358 3898 -134 
Q 3514 -627 2592 -1082 
L 2528 -973 
Q 3245 -435 3488 -35 
Q 3731 365 3795 928 
L 589 928 
Q 416 928 320 883 
L 205 1152 
Q 339 1120 525 1120 
L 1126 1120 
L 1126 3520 
L 742 3520 
Q 570 3520 474 3475 
L 358 3750 
Q 493 3718 678 3718 
L 1126 3718 
L 1126 4301 
Q 1126 4621 1114 4870 
Q 1267 4832 1488 4758 
Q 1709 4685 1766 4653 
Q 1824 4621 1824 4569 
Q 1824 4518 1626 4410 
L 1626 3718 
L 2483 3718 
L 2483 4314 
Q 2483 4627 2470 4883 
Q 3187 4691 3187 4608 
Q 3187 4550 2982 4454 
L 2982 3718 
z
M 4384 2803 
L 5197 2803 
L 5197 4013 
L 4390 4013 
Q 4390 3264 4384 2803 
z
M 2483 3520 
L 1626 3520 
L 1626 2976 
L 2483 2976 
L 2483 3520 
z
M 2483 2061 
L 2483 2765 
L 1626 2765 
L 1626 2061 
L 2483 2061 
z
M 5197 2579 
L 4378 2579 
L 4346 1491 
L 5197 1491 
L 5197 2579 
z
M 2483 1120 
L 2483 1850 
L 1626 1850 
L 1626 1120 
L 2483 1120 
z
M 1306 768 
Q 1971 499 1971 397 
Q 1971 346 1859 346 
Q 1747 346 1683 256 
Q 1094 -512 269 -1139 
L 160 -1043 
Q 928 -211 1306 768 
z
M 2285 723 
Q 2694 544 2889 429 
Q 3085 314 3145 224 
Q 3206 134 3206 -22 
Q 3206 -179 3104 -307 
Q 3002 -435 2880 -435 
Q 2778 -435 2739 -282 
Q 2637 154 2202 621 
L 2285 723 
z
" transform="scale(0.015625)"/>
      <path id="STZhongsong-5185" d="M 1619 3571 
L 2816 3571 
Q 2822 3827 2822 4108 
Q 2822 4390 2803 4909 
Q 3686 4736 3686 4634 
Q 3686 4595 3593 4556 
Q 3501 4518 3478 4444 
Q 3456 4371 3433 4080 
Q 3411 3789 3379 3571 
L 4742 3571 
L 4915 3814 
Q 4960 3872 5005 3872 
Q 5050 3872 5350 3686 
Q 5651 3501 5651 3437 
Q 5651 3373 5363 3232 
L 5363 -262 
Q 5363 -448 5289 -563 
Q 5216 -678 4950 -822 
Q 4685 -966 4614 -966 
Q 4557 -966 4528 -819 
Q 4499 -672 4425 -576 
Q 4352 -480 4157 -393 
Q 3962 -307 3578 -205 
L 3603 -77 
Q 4282 -160 4490 -160 
Q 4698 -160 4746 -102 
Q 4794 -45 4794 122 
L 4794 3354 
L 3360 3354 
Q 3277 2592 3187 2189 
Q 3853 1920 4201 1670 
Q 4550 1421 4550 1152 
Q 4550 1011 4476 822 
Q 4403 634 4269 634 
Q 4192 634 4147 694 
Q 4102 755 4051 890 
Q 3782 1549 3149 2048 
Q 2880 986 1562 301 
L 1498 416 
Q 2253 1024 2512 1721 
Q 2771 2419 2803 3354 
L 1395 3354 
L 1395 -627 
Q 1395 -698 1379 -723 
Q 1363 -749 1267 -800 
Q 1171 -851 1046 -889 
Q 922 -928 870 -928 
Q 819 -928 819 -880 
Q 819 -832 835 -598 
Q 851 -365 851 -51 
L 851 3398 
Q 851 3712 838 3955 
Q 1235 3859 1619 3571 
z
" transform="scale(0.015625)"/>
      <path id="STZhongsong-5206" d="M 6170 2214 
L 6144 2067 
Q 5805 2086 5670 2019 
Q 5536 1952 5414 1754 
Q 5382 1696 5325 1696 
Q 5146 1696 4518 2473 
Q 3891 3251 3603 4851 
Q 3808 4826 4013 4784 
Q 4218 4742 4256 4713 
Q 4294 4685 4294 4643 
Q 4294 4602 4188 4563 
Q 4083 4525 4083 4384 
Q 4083 4179 4297 3683 
Q 4512 3187 4976 2784 
Q 5440 2381 6170 2214 
z
M 2298 4736 
Q 2982 4326 2982 4224 
Q 2982 4173 2876 4153 
Q 2771 4134 2720 4083 
Q 2669 4032 2579 3853 
Q 2163 3008 1648 2435 
Q 1133 1862 314 1306 
L 237 1395 
Q 1651 2694 2298 4736 
z
M 2272 1965 
L 1875 1965 
Q 1709 1965 1606 1920 
L 1491 2202 
Q 1626 2170 1811 2170 
L 4013 2170 
L 4134 2374 
Q 4173 2438 4211 2438 
Q 4250 2438 4534 2256 
Q 4819 2074 4819 2029 
Q 4819 1984 4640 1920 
Q 4608 1037 4563 512 
Q 4518 -13 4454 -243 
Q 4390 -474 4252 -656 
Q 4115 -838 3888 -956 
Q 3661 -1075 3545 -1075 
Q 3430 -1075 3424 -941 
Q 3405 -672 3216 -509 
Q 3027 -346 2650 -205 
L 2694 -83 
Q 3398 -250 3590 -250 
Q 3757 -250 3827 -131 
Q 3898 -13 3968 435 
Q 4038 883 4070 1965 
L 2880 1965 
Q 2714 634 2218 19 
Q 1722 -595 512 -1107 
L 474 -998 
Q 1440 -435 1817 169 
Q 2195 774 2272 1965 
z
" transform="scale(0.015625)"/>
      <path id="STZhongsong-5e03" d="M 2291 3450 
L 742 3450 
Q 589 3450 467 3418 
L 352 3725 
Q 486 3693 672 3693 
L 2400 3693 
Q 2656 4307 2803 4954 
Q 3053 4896 3293 4809 
Q 3533 4723 3597 4678 
Q 3661 4634 3661 4589 
Q 3661 4518 3501 4493 
Q 3443 4486 3404 4448 
Q 3366 4410 3270 4170 
Q 3174 3930 3059 3693 
L 5005 3693 
L 5293 4102 
Q 5363 4205 5424 4205 
Q 5485 4205 5549 4141 
L 5779 3910 
Q 5939 3744 6006 3635 
Q 6074 3526 6074 3488 
Q 6074 3450 5965 3450 
L 2938 3450 
Q 2624 2842 2202 2323 
L 2278 2285 
L 3168 2285 
L 3168 2688 
Q 3168 3008 3155 3258 
Q 3936 3130 3936 3027 
Q 3936 2970 3731 2893 
L 3731 2285 
L 4794 2285 
L 4922 2515 
Q 4960 2592 5008 2592 
Q 5056 2592 5277 2473 
Q 5498 2355 5603 2278 
Q 5709 2202 5709 2157 
Q 5709 2080 5440 1965 
L 5440 557 
Q 5440 198 5379 60 
Q 5318 -77 5043 -224 
Q 4768 -371 4704 -371 
Q 4640 -371 4614 -256 
Q 4563 -32 4444 93 
Q 4326 218 3949 403 
L 3987 531 
Q 4499 378 4611 378 
Q 4723 378 4761 410 
Q 4800 442 4800 570 
L 4800 2074 
L 3731 2074 
L 3731 -211 
L 3744 -845 
Q 3744 -928 3696 -963 
Q 3648 -998 3475 -1049 
Q 3302 -1101 3200 -1101 
Q 3149 -1101 3149 -1011 
L 3155 -717 
Q 3168 -422 3168 -179 
L 3168 2074 
L 2208 2074 
L 2208 -154 
Q 2208 -262 2160 -300 
Q 2112 -339 1933 -390 
Q 1754 -442 1638 -442 
Q 1581 -442 1581 -365 
L 1594 -6 
Q 1600 218 1600 480 
L 1600 1670 
Q 1101 1190 269 614 
L 192 710 
Q 1030 1446 1600 2246 
Q 1594 2483 1587 2573 
Q 1658 2554 1773 2502 
Q 2074 2970 2291 3450 
z
" transform="scale(0.015625)"/>
     </defs>
     <use xlink:href="#STZhongsong-4f01"/>
     <use xlink:href="#STZhongsong-4e1a" transform="translate(99.999985 0)"/>
     <use xlink:href="#STZhongsong-6837" transform="translate(199.999969 0)"/>
     <use xlink:href="#STZhongsong-672c" transform="translate(299.999954 0)"/>
     <use xlink:href="#STZhongsong-671f" transform="translate(399.999939 0)"/>
     <use xlink:href="#STZhongsong-5185" transform="translate(499.999924 0)"/>
     <use xlink:href="#STZhongsong-6d89" transform="translate(599.999908 0)"/>
     <use xlink:href="#STZhongsong-53ca" transform="translate(699.999893 0)"/>
     <use xlink:href="#STZhongsong-683c" transform="translate(799.999878 0)"/>
     <use xlink:href="#STZhongsong-7f51" transform="translate(899.999863 0)"/>
     <use xlink:href="#STZhongsong-6570" transform="translate(999.999847 0)"/>
     <use xlink:href="#STZhongsong-91cf" transform="translate(1099.999832 0)"/>
     <use xlink:href="#STZhongsong-5206" transform="translate(1199.999817 0)"/>
     <use xlink:href="#STZhongsong-5e03" transform="translate(1299.999802 0)"/>
    </g>
   </g>
  </g>
 </g>
 <defs>
  <clipPath id="p18046d42bc">
   <rect x="80.68" y="38.992656" width="768.67" height="366.01875"/>
  </clipPath>
 </defs>
</svg>
