<?xml version="1.0" encoding="utf-8" standalone="no"?>
<!DOCTYPE svg PUBLIC "-//W3C//DTD SVG 1.1//EN"
  "http://www.w3.org/Graphics/SVG/1.1/DTD/svg11.dtd">
<svg xmlns:xlink="http://www.w3.org/1999/xlink" width="856.8pt" height="453.872969pt" viewBox="0 0 856.8 453.872969" xmlns="http://www.w3.org/2000/svg" version="1.1">
 <metadata>
  <rdf:RDF xmlns:dc="http://purl.org/dc/elements/1.1/" xmlns:cc="http://creativecommons.org/ns#" xmlns:rdf="http://www.w3.org/1999/02/22-rdf-syntax-ns#">
   <cc:Work>
    <dc:type rdf:resource="http://purl.org/dc/dcmitype/StillImage"/>
    <dc:date>2026-06-06T01:20:55.208792</dc:date>
    <dc:format>image/svg+xml</dc:format>
    <dc:creator>
     <cc:Agent>
      <dc:title>Matplotlib v3.10.0, https://matplotlib.org/</dc:title>
     </cc:Agent>
    </dc:creator>
   </cc:Work>
  </rdf:RDF>
 </metadata>
 <defs>
  <style type="text/css">*{stroke-linejoin: round; stroke-linecap: butt}</style>
 </defs>
 <g id="figure_1">
  <g id="patch_1">
   <path d="M 0 453.872969 
L 856.8 453.872969 
L 856.8 0 
L 0 0 
z
" style="fill: #ffffff"/>
  </g>
  <g id="axes_1">
   <g id="patch_2">
    <path d="M 64.4832 305.813944 
L 270.0288 305.813944 
Q 285.192 305.813944 285.192 298.356701 
L 285.192 159.983424 
Q 285.192 152.526181 270.0288 152.526181 
L 64.4832 152.526181 
Q 49.32 152.526181 49.32 159.983424 
L 49.32 298.356701 
Q 49.32 305.813944 64.4832 305.813944 
z
" clip-path="url(#p16a8e0fabd)" style="fill: #f7f7f7; stroke: #555555; stroke-width: 1.2; stroke-linejoin: miter"/>
   </g>
   <g id="patch_3">
    <path d="M 325.6272 305.813944 
L 531.1728 305.813944 
Q 546.336 305.813944 546.336 298.356701 
L 546.336 159.983424 
Q 546.336 152.526181 531.1728 152.526181 
L 325.6272 152.526181 
Q 310.464 152.526181 310.464 159.983424 
L 310.464 298.356701 
Q 310.464 305.813944 325.6272 305.813944 
z
" clip-path="url(#p16a8e0fabd)" style="fill: #f7f7f7; stroke: #555555; stroke-width: 1.2; stroke-linejoin: miter"/>
   </g>
   <g id="patch_4">
    <path d="M 586.7712 305.813944 
L 792.3168 305.813944 
Q 807.48 305.813944 807.48 298.356701 
L 807.48 159.983424 
Q 807.48 152.526181 792.3168 152.526181 
L 586.7712 152.526181 
Q 571.608 152.526181 571.608 159.983424 
L 571.608 298.356701 
Q 571.608 305.813944 586.7712 305.813944 
z
" clip-path="url(#p16a8e0fabd)" style="fill: #f7f7f7; stroke: #555555; stroke-width: 1.2; stroke-linejoin: miter"/>
   </g>
   <g id="text_1">
    <!-- 8 企业年度点位表 -->
    <g style="fill: #111111" transform="translate(99.766 206.933397) scale(0.17 -0.17)">
     <defs>
      <path id="STZhongsong-38" d="M 2477 2419 
Q 3021 2208 3315 1923 
Q 3610 1638 3610 1197 
Q 3610 659 3152 291 
Q 2694 -77 1971 -77 
Q 1274 -77 816 272 
Q 358 621 358 1120 
Q 358 1485 633 1779 
Q 909 2074 1440 2259 
Q 1011 2451 800 2691 
Q 589 2931 589 3315 
Q 589 3814 998 4124 
Q 1408 4435 2035 4435 
Q 2618 4435 2998 4134 
Q 3379 3834 3379 3424 
Q 3379 2790 2477 2419 
z
M 2189 2534 
Q 2451 2707 2662 2918 
Q 2874 3130 2874 3418 
Q 2874 3706 2621 3923 
Q 2368 4141 1971 4141 
Q 1594 4141 1331 3926 
Q 1069 3712 1069 3430 
Q 1069 3168 1270 2989 
Q 1472 2810 1824 2675 
L 2189 2534 
z
M 1747 2131 
Q 1325 1939 1088 1670 
Q 851 1402 851 1126 
Q 851 762 1177 490 
Q 1504 218 1984 218 
Q 2438 218 2774 483 
Q 3110 749 3110 1082 
Q 3110 1594 2253 1933 
L 1747 2131 
z
" transform="scale(0.015625)"/>
      <path id="STZhongsong-20" transform="scale(0.015625)"/>
      <path id="STZhongsong-4f01" d="M 3232 4314 
Q 3174 4243 3130 4160 
Q 2726 3469 2377 3046 
Q 2029 2624 1542 2272 
Q 1056 1920 218 1459 
L 154 1562 
Q 1139 2291 1696 2979 
Q 2253 3667 2771 4832 
Q 3482 4576 3482 4506 
Q 3482 4467 3341 4410 
Q 4179 3034 6259 2554 
L 6246 2432 
Q 5946 2432 5786 2371 
Q 5626 2310 5472 2112 
Q 5427 2061 5389 2061 
Q 5318 2061 4774 2432 
Q 4230 2803 3852 3251 
Q 3475 3699 3232 4314 
z
M 3558 1414 
L 4179 1414 
L 4429 1754 
Q 4486 1830 4557 1830 
Q 4614 1830 4761 1721 
Q 4909 1613 5056 1472 
Q 5203 1331 5203 1286 
Q 5203 1216 5062 1216 
L 3558 1216 
L 3558 -461 
L 4870 -461 
L 5171 -45 
Q 5235 45 5280 45 
Q 5344 45 5696 -240 
Q 6048 -525 6048 -598 
Q 6048 -672 5933 -672 
L 723 -672 
Q 550 -672 454 -717 
L 339 -429 
Q 474 -461 659 -461 
L 1466 -461 
L 1466 1370 
Q 1466 1690 1453 1939 
Q 1971 1805 2076 1763 
Q 2182 1722 2182 1677 
Q 2182 1632 2016 1549 
L 2016 -461 
L 3034 -461 
L 3034 2413 
Q 3034 2733 3021 2982 
Q 3360 2899 3568 2816 
Q 3776 2733 3776 2682 
Q 3776 2611 3558 2502 
L 3558 1414 
z
" transform="scale(0.015625)"/>
      <path id="STZhongsong-4e1a" d="M 3552 -422 
L 3552 4154 
Q 3552 4646 3539 4755 
Q 3821 4698 4096 4608 
Q 4371 4518 4371 4448 
Q 4371 4378 4096 4243 
L 4096 768 
Q 4659 1626 5158 3341 
Q 5747 3053 5843 2989 
Q 5939 2925 5939 2873 
Q 5939 2822 5818 2810 
Q 5766 2803 5731 2771 
Q 5696 2739 5619 2618 
Q 4813 1210 4096 442 
L 4096 -422 
L 5056 -422 
L 5370 -26 
Q 5440 58 5485 58 
Q 5530 58 5616 -16 
Q 5702 -90 5862 -240 
Q 6022 -390 6092 -476 
Q 6163 -563 6163 -608 
Q 6163 -653 6048 -653 
L 640 -653 
Q 499 -653 416 -685 
L 282 -390 
Q 384 -422 538 -422 
L 2278 -422 
L 2278 4115 
Q 2278 4608 2266 4717 
Q 2886 4576 3001 4531 
Q 3117 4486 3117 4422 
Q 3117 4358 2822 4256 
L 2822 -422 
L 3552 -422 
z
M 787 3181 
Q 1357 2458 1645 2000 
Q 1933 1542 1933 1273 
Q 1933 1005 1757 758 
Q 1581 512 1434 512 
Q 1363 512 1340 557 
Q 1318 602 1318 781 
Q 1318 1754 698 3104 
L 787 3181 
z
" transform="scale(0.015625)"/>
      <path id="STZhongsong-5e74" d="M 1939 3827 
L 4794 3827 
L 5082 4237 
Q 5133 4314 5171 4314 
Q 5210 4314 5328 4224 
Q 5446 4134 5612 3993 
Q 5779 3853 5840 3789 
Q 5901 3725 5901 3686 
Q 5901 3616 5811 3616 
L 3744 3616 
L 3744 2496 
L 4474 2496 
L 4736 2874 
Q 4787 2938 4822 2938 
Q 4858 2938 4970 2858 
Q 5082 2778 5232 2643 
Q 5382 2509 5414 2461 
Q 5446 2413 5446 2368 
Q 5446 2272 5350 2272 
L 3744 2272 
L 3744 1043 
L 5254 1043 
L 5542 1427 
Q 5587 1485 5654 1485 
Q 5722 1485 6013 1213 
Q 6304 941 6304 883 
Q 6304 826 6195 826 
L 3744 826 
Q 3744 19 3750 -294 
L 3763 -864 
Q 3763 -909 3731 -941 
Q 3699 -973 3475 -1056 
Q 3251 -1139 3203 -1139 
Q 3155 -1139 3155 -1037 
L 3168 -390 
Q 3174 -38 3174 826 
L 653 826 
Q 480 826 384 781 
L 269 1075 
Q 403 1043 589 1043 
L 1498 1043 
L 1498 2170 
Q 1498 2643 1485 2739 
Q 1856 2630 2138 2496 
L 3174 2496 
L 3174 3616 
L 1798 3616 
Q 1440 3046 1136 2713 
Q 832 2381 339 1984 
L 243 2086 
Q 1261 3174 1741 4909 
Q 2259 4704 2400 4611 
Q 2541 4518 2541 4457 
Q 2541 4397 2435 4384 
Q 2330 4371 2253 4288 
Q 2176 4205 1939 3827 
z
M 3174 2272 
L 2054 2272 
L 2054 1043 
L 3174 1043 
L 3174 2272 
z
" transform="scale(0.015625)"/>
      <path id="STZhongsong-5ea6" d="M 3296 3987 
Q 3219 4301 3120 4473 
Q 3021 4646 2810 4832 
L 2854 4915 
Q 3878 4736 3878 4365 
Q 3878 4269 3814 4166 
Q 3750 4064 3610 3987 
L 5075 3987 
L 5376 4346 
Q 5427 4410 5466 4410 
Q 5536 4410 5808 4163 
Q 6080 3917 6080 3859 
Q 6080 3802 5965 3802 
L 1754 3802 
Q 1754 3488 1741 2931 
L 2656 2931 
L 2656 3277 
Q 2656 3488 2637 3744 
Q 3059 3648 3200 3600 
Q 3341 3552 3341 3507 
Q 3341 3456 3174 3360 
L 3174 2931 
L 4179 2931 
L 4179 3270 
Q 4179 3482 4160 3738 
Q 4653 3629 4765 3581 
Q 4877 3533 4877 3501 
Q 4877 3450 4710 3354 
L 4710 2931 
L 5094 2931 
L 5363 3309 
Q 5402 3360 5434 3360 
Q 5498 3360 5750 3107 
Q 6003 2854 6003 2803 
Q 6003 2752 5888 2752 
L 4710 2752 
L 4710 2355 
Q 4710 2067 4717 1946 
L 4730 1747 
Q 4730 1702 4678 1673 
Q 4627 1645 4457 1590 
Q 4288 1536 4218 1536 
Q 4179 1536 4179 1600 
L 4179 1888 
L 3174 1888 
L 3174 1722 
Q 3174 1677 3164 1648 
Q 3155 1619 2934 1552 
Q 2714 1485 2672 1485 
Q 2630 1485 2630 1530 
L 2643 1754 
Q 2656 1920 2656 2150 
L 2656 2752 
L 1734 2752 
Q 1696 1491 1606 963 
Q 1517 435 1238 -51 
Q 960 -538 358 -1082 
L 275 -1005 
Q 832 -262 1011 477 
Q 1190 1216 1190 2477 
Q 1190 3738 1158 4320 
Q 1510 4198 1843 3987 
L 3296 3987 
z
M 4179 2752 
L 3174 2752 
L 3174 2074 
L 4179 2074 
L 4179 2752 
z
M 3674 -250 
Q 2842 -806 1139 -1069 
L 1139 -941 
Q 2432 -627 3354 19 
Q 2944 422 2669 1133 
L 2387 1133 
Q 2214 1133 2118 1088 
L 2003 1350 
Q 2138 1318 2323 1318 
L 4467 1318 
L 4602 1472 
Q 4653 1530 4697 1530 
Q 4742 1530 5024 1331 
Q 5306 1133 5306 1078 
Q 5306 1024 5206 1017 
Q 5107 1011 5062 995 
Q 5018 979 4954 902 
Q 4506 403 4090 51 
Q 4858 -294 6227 -416 
L 6182 -557 
Q 5894 -557 5721 -643 
Q 5549 -730 5459 -922 
Q 5427 -992 5376 -992 
Q 5280 -992 4681 -768 
Q 4083 -544 3674 -250 
z
M 3686 269 
Q 4166 685 4403 1133 
L 2848 1133 
Q 3187 602 3686 269 
z
" transform="scale(0.015625)"/>
      <path id="STZhongsong-70b9" d="M 2835 2682 
L 2835 4211 
Q 2835 4704 2822 4813 
Q 3091 4755 3331 4684 
Q 3571 4614 3616 4588 
Q 3661 4563 3661 4531 
Q 3661 4461 3424 4339 
L 3424 3616 
L 4902 3616 
L 5133 3949 
Q 5210 4058 5261 4058 
Q 5312 4058 5606 3792 
Q 5901 3526 5901 3456 
Q 5901 3418 5786 3418 
L 3424 3418 
L 3424 2682 
L 4416 2682 
L 4563 2893 
Q 4602 2938 4659 2938 
Q 4717 2938 5024 2752 
Q 5331 2566 5331 2508 
Q 5331 2451 5056 2336 
L 5056 1299 
Q 5056 1165 5062 1069 
L 5075 909 
Q 5075 870 5046 844 
Q 5018 819 4800 755 
Q 4582 691 4512 691 
Q 4474 691 4474 755 
L 4474 1050 
L 1952 1050 
L 1952 858 
Q 1952 800 1939 781 
Q 1926 762 1804 710 
Q 1683 659 1548 627 
Q 1414 595 1392 595 
Q 1370 595 1370 646 
L 1376 870 
Q 1382 973 1382 1088 
L 1382 2419 
Q 1382 2688 1363 2963 
Q 1766 2842 2035 2682 
L 2835 2682 
z
M 4474 1267 
L 4474 2483 
L 1952 2483 
L 1952 1267 
L 4474 1267 
z
M 3443 704 
Q 4282 179 4282 -262 
Q 4282 -429 4173 -627 
Q 4064 -826 3853 -826 
Q 3757 -826 3718 -518 
Q 3648 26 3341 621 
L 3443 704 
z
M 2234 640 
Q 2586 307 2758 83 
Q 2931 -141 2931 -320 
Q 2931 -499 2803 -681 
Q 2675 -864 2451 -864 
Q 2394 -864 2374 -806 
Q 2355 -749 2345 -438 
Q 2336 -128 2281 93 
Q 2227 314 2112 563 
L 2234 640 
z
M 4678 608 
Q 5382 224 5625 3 
Q 5869 -218 5869 -438 
Q 5869 -659 5773 -832 
Q 5677 -1005 5517 -1005 
Q 5434 -1005 5386 -950 
Q 5338 -896 5235 -566 
Q 5133 -237 4979 12 
Q 4826 262 4602 480 
L 4678 608 
z
M 1363 557 
Q 1402 -416 1149 -681 
Q 896 -947 653 -947 
Q 506 -947 413 -864 
Q 320 -781 320 -678 
Q 320 -582 563 -403 
Q 1069 -26 1216 608 
L 1363 557 
z
" transform="scale(0.015625)"/>
      <path id="STZhongsong-4f4d" d="M 3405 4954 
Q 3930 4742 4198 4531 
Q 4467 4320 4467 4105 
Q 4467 3891 4342 3753 
Q 4218 3616 4122 3616 
Q 4077 3616 4048 3657 
Q 4019 3699 3980 3849 
Q 3942 4000 3744 4320 
Q 3546 4640 3328 4877 
L 3405 4954 
z
M 1248 2611 
Q 768 1946 237 1434 
L 166 1523 
Q 1267 2938 1818 4890 
Q 2554 4480 2554 4378 
Q 2554 4326 2419 4307 
Q 2323 4294 2243 4188 
Q 2163 4083 1971 3744 
Q 1779 3405 1581 3104 
Q 1965 3002 1965 2944 
Q 1965 2886 1792 2810 
L 1792 -698 
Q 1792 -762 1734 -806 
Q 1677 -851 1494 -924 
Q 1312 -998 1248 -998 
Q 1216 -998 1216 -934 
L 1229 -525 
Q 1248 -64 1248 224 
L 1248 2611 
z
M 5120 3456 
L 5389 3898 
Q 5427 3962 5466 3962 
Q 5530 3962 5840 3677 
Q 6150 3392 6150 3322 
Q 6150 3277 5984 3277 
L 2579 3277 
Q 2406 3277 2310 3232 
L 2195 3488 
Q 2330 3456 2515 3456 
L 5120 3456 
z
M 4333 -339 
L 5190 -339 
L 5408 70 
Q 5478 205 5545 205 
Q 5613 205 5677 157 
Q 5741 109 5945 -96 
Q 6150 -301 6208 -374 
Q 6266 -448 6266 -486 
Q 6266 -525 6138 -525 
L 2336 -525 
Q 2163 -525 2067 -570 
L 1952 -307 
Q 2086 -339 2272 -339 
L 4058 -339 
Q 4435 1254 4691 3046 
Q 5114 2880 5315 2774 
Q 5517 2669 5517 2611 
Q 5517 2554 5389 2528 
Q 5331 2515 5289 2448 
Q 5248 2381 4941 1485 
L 4333 -339 
z
M 2701 2758 
Q 3654 1421 3654 826 
Q 3654 608 3545 429 
Q 3437 250 3232 250 
Q 3149 250 3117 314 
Q 3085 378 3075 675 
Q 3066 973 2928 1600 
Q 2790 2227 2605 2682 
L 2701 2758 
z
" transform="scale(0.015625)"/>
      <path id="STZhongsong-8868" d="M 4243 838 
Q 4851 1325 5216 1773 
Q 5446 1568 5568 1414 
Q 5690 1261 5690 1222 
Q 5690 1184 5664 1174 
Q 5638 1165 5561 1165 
Q 5485 1165 5363 1123 
Q 5242 1082 4390 698 
Q 5114 51 6189 -262 
L 6189 -416 
Q 5638 -390 5421 -742 
Q 5382 -806 5331 -806 
Q 5222 -806 4678 -364 
Q 4134 77 3830 576 
Q 3526 1075 3290 1869 
L 3258 1869 
Q 2944 1446 2624 1101 
L 2624 -288 
L 3853 224 
L 3910 109 
Q 3206 -339 2934 -547 
Q 2662 -755 2394 -1050 
Q 2342 -1107 2310 -1107 
Q 2227 -1107 1901 -544 
Q 2035 -454 2073 -380 
Q 2112 -307 2112 -154 
L 2112 602 
Q 1344 -64 179 -557 
L 128 -442 
Q 1594 384 2554 1869 
L 730 1869 
Q 563 1869 486 1824 
L 378 2106 
Q 506 2074 672 2074 
L 2957 2074 
L 2957 2758 
L 1466 2758 
Q 1280 2758 1197 2720 
L 1082 2989 
Q 1216 2957 1402 2957 
L 2957 2957 
L 2957 3597 
L 1024 3597 
Q 851 3597 762 3552 
L 646 3834 
Q 781 3802 960 3802 
L 2957 3802 
L 2957 4275 
Q 2957 4717 2912 4909 
Q 3206 4864 3398 4809 
Q 3590 4755 3673 4716 
Q 3757 4678 3757 4630 
Q 3757 4582 3552 4480 
L 3552 3802 
L 4979 3802 
L 5261 4186 
Q 5325 4262 5379 4262 
Q 5434 4262 5574 4128 
L 5869 3859 
Q 6016 3725 6016 3661 
Q 6016 3597 5830 3597 
L 3552 3597 
L 3552 2957 
L 4570 2957 
L 4806 3277 
Q 4877 3373 4937 3373 
Q 4998 3373 5235 3145 
Q 5472 2918 5472 2822 
Q 5472 2758 5370 2758 
L 3552 2758 
L 3552 2074 
L 5286 2074 
L 5542 2438 
Q 5613 2541 5680 2541 
Q 5747 2541 5993 2272 
Q 6240 2003 6240 1936 
Q 6240 1869 6112 1869 
L 3520 1869 
Q 3782 1299 4243 838 
z
" transform="scale(0.015625)"/>
     </defs>
     <use xlink:href="#STZhongsong-38"/>
     <use xlink:href="#STZhongsong-20" transform="translate(61.999985 0)"/>
     <use xlink:href="#STZhongsong-4f01" transform="translate(93.999969 0)"/>
     <use xlink:href="#STZhongsong-4e1a" transform="translate(193.999954 0)"/>
     <use xlink:href="#STZhongsong-5e74" transform="translate(293.999939 0)"/>
     <use xlink:href="#STZhongsong-5ea6" transform="translate(393.999924 0)"/>
     <use xlink:href="#STZhongsong-70b9" transform="translate(493.999908 0)"/>
     <use xlink:href="#STZhongsong-4f4d" transform="translate(593.999893 0)"/>
     <use xlink:href="#STZhongsong-8868" transform="translate(693.999878 0)"/>
    </g>
   </g>
   <g id="text_2">
    <!-- 99,498条企业-年份记录 -->
    <g style="fill: #111111" transform="translate(86.106 250.651416) scale(0.15 -0.15)">
     <defs>
      <path id="STZhongsong-39" d="M 736 -77 
L 736 218 
Q 1856 224 2374 688 
Q 2893 1152 2938 2138 
Q 2707 1798 2425 1638 
Q 2144 1478 1734 1478 
Q 1088 1478 681 1884 
Q 275 2291 275 2925 
Q 275 3616 720 4025 
Q 1165 4435 1882 4435 
Q 2688 4435 3126 3916 
Q 3565 3398 3565 2438 
Q 3565 1574 3181 963 
Q 2797 352 2201 137 
Q 1606 -77 979 -77 
L 736 -77 
z
M 896 2950 
Q 896 2445 1174 2128 
Q 1453 1811 1875 1811 
Q 2317 1811 2611 2147 
Q 2906 2483 2906 2970 
Q 2906 3475 2618 3814 
Q 2330 4154 1901 4154 
Q 1459 4154 1177 3824 
Q 896 3494 896 2950 
z
" transform="scale(0.015625)"/>
      <path id="STZhongsong-2c" d="M 691 -1133 
L 525 -928 
Q 883 -634 1036 -403 
Q 1190 -173 1158 45 
Q 1037 0 941 0 
Q 800 0 713 99 
Q 627 198 627 339 
Q 627 499 739 604 
Q 851 710 1024 710 
Q 1210 710 1363 540 
Q 1517 371 1517 128 
Q 1517 -211 1331 -486 
Q 1146 -762 691 -1133 
z
" transform="scale(0.015625)"/>
      <path id="STZhongsong-34" d="M 3494 1242 
L 2906 1242 
L 2906 518 
Q 2906 275 3213 250 
L 3213 45 
L 1882 45 
L 1882 250 
Q 2054 262 2156 336 
Q 2259 410 2259 518 
L 2259 1242 
L 550 1242 
L 550 1658 
L 2483 4365 
L 2906 4365 
L 2906 1581 
L 3494 1581 
L 3494 1242 
z
M 2259 1581 
L 2259 3462 
L 902 1581 
L 2259 1581 
z
" transform="scale(0.015625)"/>
      <path id="STZhongsong-6761" d="M 2176 3648 
Q 1453 2778 723 2272 
L 646 2355 
Q 1197 2938 1654 3658 
Q 2112 4378 2323 4966 
Q 2554 4870 2755 4771 
Q 2957 4672 3001 4637 
Q 3046 4602 3046 4566 
Q 3046 4531 2947 4499 
Q 2848 4467 2806 4432 
Q 2765 4397 2707 4317 
Q 2650 4237 2547 4109 
L 4000 4109 
L 4256 4403 
Q 4301 4448 4342 4448 
Q 4384 4448 4563 4314 
L 4870 4077 
Q 4998 3981 4998 3913 
Q 4998 3846 4854 3820 
Q 4710 3795 4595 3674 
Q 4090 3130 3539 2714 
Q 4659 2093 6189 1965 
L 6189 1824 
Q 5805 1818 5648 1741 
Q 5491 1664 5421 1478 
Q 5408 1446 5357 1446 
Q 5222 1446 4476 1750 
Q 3731 2054 3187 2458 
Q 1894 1574 186 1229 
L 160 1350 
Q 1741 1907 2848 2746 
Q 2445 3136 2176 3648 
z
M 2400 3917 
Q 2368 3872 2298 3795 
Q 2605 3347 3123 2970 
Q 3680 3450 3949 3917 
L 2400 3917 
z
M 3469 1267 
L 4307 1267 
L 4486 1510 
Q 4563 1619 4617 1619 
Q 4672 1619 4742 1555 
L 5005 1338 
Q 5197 1178 5197 1126 
Q 5197 1075 5050 1075 
L 3469 1075 
L 3469 -371 
Q 3469 -589 3424 -675 
Q 3379 -762 3123 -886 
Q 2867 -1011 2809 -1011 
Q 2752 -1011 2726 -922 
Q 2669 -710 2528 -595 
Q 2387 -480 2003 -339 
L 2035 -218 
Q 2586 -320 2717 -320 
Q 2848 -320 2877 -288 
Q 2906 -256 2906 -166 
L 2906 1075 
L 1478 1075 
Q 1312 1075 1203 1043 
L 1094 1299 
Q 1229 1267 1414 1267 
L 2906 1267 
L 2906 1523 
Q 2906 1843 2893 2093 
Q 3168 2048 3328 2000 
Q 3488 1952 3539 1926 
Q 3590 1901 3590 1869 
Q 3590 1837 3469 1728 
L 3469 1267 
z
M 1901 1024 
Q 2496 678 2496 608 
Q 2496 563 2368 540 
Q 2240 518 1965 250 
Q 1536 -160 1270 -358 
Q 1005 -557 442 -870 
L 358 -762 
Q 1363 38 1901 1024 
z
M 3859 890 
Q 4896 397 5142 189 
Q 5389 -19 5389 -301 
Q 5389 -467 5302 -611 
Q 5216 -755 5094 -755 
Q 5011 -755 4922 -595 
Q 4621 -45 4377 243 
Q 4134 531 3808 774 
L 3859 890 
z
" transform="scale(0.015625)"/>
      <path id="STZhongsong-2d" d="M 352 1786 
L 2208 1786 
L 2208 1395 
L 352 1395 
L 352 1786 
z
" transform="scale(0.015625)"/>
      <path id="STZhongsong-4efd" d="M 1190 2470 
Q 736 1830 237 1389 
L 141 1472 
Q 1158 2701 1702 4838 
Q 1894 4768 2115 4672 
Q 2336 4576 2374 4544 
Q 2413 4512 2413 4477 
Q 2413 4442 2326 4419 
Q 2240 4397 2205 4345 
Q 2170 4294 2099 4115 
Q 1888 3578 1530 2982 
Q 1837 2912 1837 2842 
Q 1837 2803 1709 2720 
L 1709 -806 
Q 1709 -883 1670 -928 
Q 1632 -973 1453 -1049 
Q 1274 -1126 1219 -1126 
Q 1165 -1126 1165 -1056 
L 1178 -563 
Q 1190 -262 1190 70 
L 1190 2470 
z
M 6272 2355 
L 6259 2227 
Q 6170 2240 6099 2240 
Q 5786 2240 5658 1971 
Q 5638 1926 5587 1926 
Q 5408 1926 4813 2630 
Q 4218 3334 4102 4806 
Q 4742 4742 4742 4627 
Q 4742 4589 4672 4570 
Q 4467 4518 4467 4323 
Q 4467 4128 4636 3712 
Q 4806 3296 5209 2925 
Q 5613 2554 6272 2355 
z
M 3174 4506 
Q 3635 4346 3753 4285 
Q 3872 4224 3872 4182 
Q 3872 4141 3753 4105 
Q 3635 4070 3546 3834 
Q 3034 2477 1888 1421 
L 1798 1491 
Q 2765 2810 3174 4506 
z
M 3232 1920 
L 3072 1920 
Q 2906 1920 2803 1875 
L 2662 2157 
Q 2797 2125 2982 2125 
L 4461 2125 
L 4614 2330 
Q 4659 2381 4704 2381 
Q 4749 2381 4937 2246 
Q 5126 2112 5212 2041 
Q 5299 1971 5299 1920 
Q 5299 1869 5139 1760 
Q 5114 1011 5066 432 
Q 5018 -147 4966 -355 
Q 4915 -563 4796 -700 
Q 4678 -838 4451 -944 
Q 4224 -1050 4169 -1050 
Q 4115 -1050 4090 -966 
Q 4038 -774 3856 -640 
Q 3674 -506 3328 -378 
L 3373 -243 
Q 3910 -384 4076 -384 
Q 4243 -384 4307 -326 
Q 4371 -269 4432 -73 
Q 4493 122 4528 541 
Q 4563 960 4576 1920 
L 3782 1920 
Q 3738 730 3389 125 
Q 3040 -480 1946 -1094 
L 1869 -1011 
Q 2669 -358 2934 237 
Q 3200 832 3232 1920 
z
" transform="scale(0.015625)"/>
      <path id="STZhongsong-8bb0" d="M 883 4915 
Q 1485 4685 1789 4473 
Q 2093 4262 2093 4035 
Q 2093 3808 1968 3613 
Q 1843 3418 1690 3418 
Q 1568 3418 1491 3674 
Q 1325 4262 819 4826 
L 883 4915 
z
M 4787 2438 
L 4787 4026 
L 2912 4026 
Q 2739 4026 2643 3981 
L 2528 4262 
Q 2662 4230 2848 4230 
L 4742 4230 
L 4909 4538 
Q 4941 4595 4979 4595 
Q 5050 4595 5363 4400 
Q 5677 4205 5677 4137 
Q 5677 4070 5395 3936 
L 5395 2515 
L 5408 2106 
Q 5408 2016 5376 1981 
Q 5344 1946 5142 1862 
Q 4941 1779 4838 1779 
Q 4787 1779 4787 1856 
L 4787 2253 
L 3373 2253 
L 3373 147 
Q 3373 -13 3398 -57 
Q 3424 -102 3485 -128 
Q 3546 -154 3853 -179 
Q 4160 -205 4435 -205 
Q 4710 -205 4969 -169 
Q 5229 -134 5309 -89 
Q 5389 -45 5443 86 
Q 5498 218 5542 474 
Q 5587 730 5658 1267 
L 5792 1267 
Q 5786 723 5853 396 
Q 5920 70 6086 -45 
Q 6170 -102 6170 -172 
Q 6170 -243 6003 -438 
Q 5837 -634 5539 -685 
Q 5242 -736 4474 -736 
Q 3366 -736 3091 -621 
Q 2816 -506 2816 -122 
L 2816 2080 
Q 2816 2515 2797 2797 
Q 3155 2650 3526 2438 
L 4787 2438 
z
M 2662 979 
Q 1984 102 1721 -256 
Q 1459 -614 1293 -896 
Q 1254 -954 1235 -954 
Q 1178 -954 781 -403 
Q 1082 -45 1082 269 
L 1082 2547 
L 512 2547 
Q 397 2547 301 2515 
L 128 2778 
Q 237 2746 397 2746 
L 1024 2746 
L 1216 3034 
Q 1248 3091 1302 3091 
Q 1357 3091 1561 2953 
Q 1766 2816 1849 2765 
Q 1933 2714 1933 2669 
Q 1933 2624 1632 2445 
L 1632 282 
L 2586 1082 
L 2662 979 
z
" transform="scale(0.015625)"/>
      <path id="STZhongsong-5f55" d="M 4250 2637 
L 4275 3347 
L 1766 3347 
Q 1594 3347 1498 3302 
L 1382 3578 
Q 1517 3546 1702 3546 
L 4282 3546 
L 4307 4230 
L 1421 4230 
Q 1248 4230 1152 4186 
L 1037 4461 
Q 1171 4429 1357 4429 
L 4262 4429 
L 4467 4730 
Q 4506 4787 4538 4787 
Q 4595 4787 4889 4553 
Q 5184 4320 5184 4259 
Q 5184 4198 4870 4051 
L 4813 2637 
L 5146 2637 
L 5408 3014 
Q 5478 3117 5539 3117 
Q 5600 3117 5888 2845 
Q 6176 2573 6176 2502 
Q 6176 2419 5965 2419 
L 3501 2419 
Q 3750 1715 4160 1222 
Q 4678 1696 5005 2176 
Q 5427 1811 5494 1744 
Q 5562 1677 5562 1632 
Q 5562 1587 5514 1587 
Q 5466 1587 5430 1593 
Q 5395 1600 5370 1600 
Q 5235 1600 4262 1114 
Q 4947 365 6272 -6 
L 6246 -122 
Q 5901 -102 5680 -172 
Q 5459 -243 5325 -429 
Q 5293 -474 5261 -474 
Q 5171 -474 4704 -74 
Q 4237 326 3933 812 
Q 3629 1299 3469 1952 
L 3469 -32 
Q 3469 -410 3421 -538 
Q 3373 -666 3117 -806 
Q 2861 -947 2809 -947 
Q 2758 -947 2746 -870 
Q 2707 -627 2547 -492 
Q 2387 -358 1952 -230 
L 1952 -102 
Q 2528 -192 2688 -192 
Q 2848 -192 2886 -134 
Q 2925 -77 2925 96 
L 2925 2419 
L 640 2419 
Q 480 2419 365 2387 
L 256 2669 
Q 390 2637 576 2637 
L 4250 2637 
z
M 1114 2202 
Q 1664 1958 1865 1820 
Q 2067 1683 2128 1603 
Q 2189 1523 2189 1369 
Q 2189 1216 2077 1062 
Q 1965 909 1878 909 
Q 1792 909 1734 1075 
Q 1574 1536 1056 2118 
L 1114 2202 
z
M 2714 851 
Q 1805 307 1488 73 
Q 1171 -160 1110 -278 
Q 1050 -397 973 -397 
Q 896 -397 838 -339 
L 365 173 
Q 1587 538 2662 973 
L 2714 851 
z
" transform="scale(0.015625)"/>
     </defs>
     <use xlink:href="#STZhongsong-39"/>
     <use xlink:href="#STZhongsong-39" transform="translate(61.999985 0)"/>
     <use xlink:href="#STZhongsong-2c" transform="translate(123.999969 0)"/>
     <use xlink:href="#STZhongsong-34" transform="translate(155.999954 0)"/>
     <use xlink:href="#STZhongsong-39" transform="translate(217.999939 0)"/>
     <use xlink:href="#STZhongsong-38" transform="translate(279.999924 0)"/>
     <use xlink:href="#STZhongsong-6761" transform="translate(341.999908 0)"/>
     <use xlink:href="#STZhongsong-4f01" transform="translate(441.999893 0)"/>
     <use xlink:href="#STZhongsong-4e1a" transform="translate(541.999878 0)"/>
     <use xlink:href="#STZhongsong-2d" transform="translate(641.999863 0)"/>
     <use xlink:href="#STZhongsong-5e74" transform="translate(681.999847 0)"/>
     <use xlink:href="#STZhongsong-4efd" transform="translate(781.999832 0)"/>
     <use xlink:href="#STZhongsong-8bb0" transform="translate(881.999817 0)"/>
     <use xlink:href="#STZhongsong-5f55" transform="translate(981.999802 0)"/>
    </g>
    <!-- 企业属性、坐标、动态状态 -->
    <g style="fill: #111111" transform="translate(77.256 269.855166) scale(0.15 -0.15)">
     <defs>
      <path id="STZhongsong-5c5e" d="M 1536 4512 
L 4928 4512 
L 5094 4730 
Q 5126 4774 5180 4774 
Q 5235 4774 5494 4611 
Q 5754 4448 5754 4390 
Q 5754 4333 5523 4224 
L 5523 3821 
Q 5523 3725 5530 3642 
L 5542 3501 
Q 5542 3456 5494 3430 
Q 5446 3405 5283 3369 
Q 5120 3334 5056 3334 
Q 4992 3334 4992 3392 
L 4992 3546 
L 1421 3546 
Q 1382 2355 1340 1804 
Q 1299 1254 1180 736 
Q 1062 218 838 -224 
Q 614 -666 256 -1056 
L 141 -979 
Q 461 -422 582 -32 
Q 704 358 765 886 
Q 826 1414 861 2032 
Q 896 2650 883 4826 
Q 1254 4685 1536 4512 
z
M 4992 3750 
L 4992 4326 
L 1440 4326 
Q 1440 4115 1427 3750 
L 4992 3750 
z
M 3251 2835 
Q 2534 2803 1658 2797 
L 1658 2963 
Q 3667 3091 4730 3418 
Q 5120 3059 5120 2976 
Q 5120 2931 5062 2931 
Q 5005 2931 4944 2940 
Q 4883 2950 4806 2950 
Q 4730 2950 4390 2918 
Q 4051 2886 3763 2867 
L 3763 2483 
L 4570 2483 
L 4730 2669 
Q 4755 2694 4781 2694 
Q 4819 2694 5046 2537 
Q 5274 2381 5274 2329 
Q 5274 2278 5120 2214 
L 5120 1946 
L 5139 1581 
Q 5139 1517 5120 1494 
Q 5101 1472 4925 1421 
Q 4749 1370 4640 1370 
Q 4602 1370 4602 1434 
L 4602 1638 
L 3763 1638 
L 3763 1158 
L 5056 1158 
L 5184 1325 
Q 5210 1363 5254 1363 
Q 5299 1363 5577 1200 
Q 5856 1037 5856 985 
Q 5856 934 5619 832 
L 5619 -256 
Q 5619 -640 5331 -787 
Q 5043 -934 4963 -934 
Q 4883 -934 4848 -809 
Q 4813 -685 4755 -624 
Q 4698 -563 4544 -502 
Q 4390 -442 4019 -339 
L 4058 -224 
Q 4563 -282 4764 -282 
Q 4966 -282 5020 -246 
Q 5075 -211 5075 -128 
L 5075 960 
L 3763 960 
L 3763 390 
L 4346 422 
Q 4224 608 4077 806 
L 4147 870 
Q 4864 429 4864 134 
Q 4864 32 4797 -61 
Q 4730 -154 4678 -154 
Q 4627 -154 4601 -118 
Q 4576 -83 4528 45 
Q 4480 173 4422 282 
L 3501 122 
Q 3021 32 2768 -54 
Q 2515 -141 2489 -141 
Q 2464 -141 2451 -131 
Q 2438 -122 2380 12 
Q 2323 147 2259 339 
Q 2630 339 3251 365 
L 3251 960 
L 2131 960 
L 2131 -589 
Q 2131 -653 2102 -685 
Q 2074 -717 1894 -781 
Q 1715 -845 1654 -845 
Q 1594 -845 1594 -813 
Q 1594 -781 1610 -531 
Q 1626 -282 1626 38 
L 1626 858 
Q 1626 1312 1613 1414 
Q 1965 1280 2163 1158 
L 3251 1158 
L 3251 1638 
L 2419 1638 
Q 2419 1555 2377 1510 
Q 2336 1466 2192 1414 
Q 2048 1363 1958 1363 
Q 1920 1363 1920 1414 
L 1926 1638 
Q 1933 1741 1933 1856 
L 1933 2323 
Q 1933 2490 1914 2694 
Q 2189 2618 2438 2483 
L 3251 2483 
L 3251 2835 
z
M 3251 2285 
L 2419 2285 
L 2419 1818 
L 3251 1818 
L 3251 2285 
z
M 4602 1818 
L 4602 2285 
L 3763 2285 
L 3763 1818 
L 4602 1818 
z
" transform="scale(0.015625)"/>
      <path id="STZhongsong-6027" d="M 1741 3366 
Q 2246 3251 2406 3164 
Q 2566 3078 2566 2921 
Q 2566 2765 2496 2621 
Q 2426 2477 2314 2477 
Q 2202 2477 2125 2662 
Q 1971 3046 1741 3194 
L 1741 -742 
Q 1741 -806 1683 -844 
Q 1626 -883 1437 -950 
Q 1248 -1018 1209 -1018 
Q 1171 -1018 1171 -979 
Q 1171 -941 1180 -752 
Q 1190 -563 1190 -96 
L 1190 4269 
Q 1190 4589 1178 4838 
Q 1446 4774 1673 4704 
Q 1901 4634 1936 4614 
Q 1971 4595 1971 4576 
Q 1971 4525 1741 4403 
L 1741 3366 
z
M 3930 1190 
L 2874 1190 
Q 2701 1190 2605 1146 
L 2483 1408 
Q 2618 1376 2803 1376 
L 3930 1376 
L 3930 2778 
L 3078 2778 
Q 2746 1869 2221 1101 
L 2093 1165 
Q 2682 2496 2848 4237 
Q 3226 4109 3405 4016 
Q 3584 3923 3584 3891 
Q 3584 3859 3510 3840 
Q 3437 3821 3398 3779 
Q 3360 3738 3286 3456 
Q 3213 3174 3142 2957 
L 3930 2957 
L 3930 4230 
Q 3930 4723 3917 4832 
Q 4192 4794 4397 4736 
Q 4602 4678 4646 4652 
Q 4691 4627 4691 4602 
Q 4691 4550 4499 4454 
L 4499 2957 
L 5024 2957 
L 5267 3334 
Q 5338 3450 5392 3450 
Q 5446 3450 5613 3296 
L 5914 3008 
Q 6048 2880 6048 2829 
Q 6048 2778 5939 2778 
L 4499 2778 
L 4499 1376 
L 4979 1376 
L 5242 1747 
Q 5312 1843 5369 1843 
Q 5427 1843 5683 1587 
Q 5939 1331 5939 1260 
Q 5939 1190 5818 1190 
L 4499 1190 
L 4499 -390 
L 5267 -390 
L 5562 -26 
Q 5638 70 5683 70 
Q 5728 70 5798 6 
Q 5869 -58 6029 -214 
Q 6189 -371 6243 -438 
Q 6298 -506 6298 -547 
Q 6298 -589 6176 -589 
L 2483 -589 
Q 2310 -589 2214 -634 
L 2106 -358 
Q 2240 -390 2426 -390 
L 3930 -390 
L 3930 1190 
z
M 787 3392 
Q 915 2829 915 2422 
Q 915 2016 755 1853 
Q 595 1690 416 1690 
Q 314 1690 240 1763 
Q 166 1837 166 1904 
Q 166 1971 332 2182 
Q 499 2394 563 2682 
Q 627 2970 608 3386 
L 787 3392 
z
" transform="scale(0.015625)"/>
      <path id="STZhongsong-3001" d="M 563 1709 
Q 1056 1549 1363 1389 
Q 1670 1229 1849 1040 
Q 2029 851 2070 748 
Q 2112 646 2112 470 
Q 2112 294 2029 108 
Q 1946 -77 1850 -77 
Q 1690 -77 1600 16 
Q 1510 109 1379 413 
Q 1248 717 1021 992 
Q 794 1267 454 1549 
L 563 1709 
z
" transform="scale(0.015625)"/>
      <path id="STZhongsong-5750" d="M 2899 845 
L 1421 845 
Q 1248 845 1152 800 
L 1024 1062 
Q 1158 1030 1344 1030 
L 2899 1030 
L 2899 4269 
Q 2899 4602 2886 4870 
Q 3731 4621 3731 4518 
Q 3731 4467 3462 4403 
L 3462 1030 
L 4390 1030 
L 4614 1402 
Q 4666 1491 4717 1491 
Q 4768 1491 4857 1430 
Q 4947 1370 5145 1203 
Q 5344 1037 5382 992 
Q 5421 947 5421 915 
Q 5421 845 5274 845 
L 3462 845 
L 3462 -429 
L 5043 -429 
L 5312 -26 
Q 5376 70 5446 70 
Q 5517 70 5840 -214 
Q 6163 -499 6163 -556 
Q 6163 -614 6016 -614 
L 730 -614 
Q 557 -614 461 -659 
L 346 -397 
Q 480 -429 666 -429 
L 2899 -429 
L 2899 845 
z
M 1619 2778 
Q 1408 2349 1145 1993 
Q 883 1638 346 1101 
L 243 1190 
Q 1229 2547 1568 4358 
Q 2355 4058 2355 3955 
Q 2355 3898 2243 3885 
Q 2131 3872 2102 3843 
Q 2074 3814 1930 3468 
Q 1786 3123 1690 2918 
Q 2150 2733 2364 2537 
Q 2579 2342 2579 2099 
Q 2579 1958 2470 1792 
Q 2362 1626 2269 1626 
Q 2176 1626 2144 1677 
Q 2112 1728 2093 1856 
Q 2022 2298 1619 2778 
z
M 4646 2784 
Q 4282 2042 3654 1434 
L 3578 1510 
Q 4013 2253 4179 2745 
Q 4346 3238 4557 4301 
Q 4794 4211 5024 4102 
Q 5254 3994 5292 3962 
Q 5331 3930 5331 3904 
Q 5331 3859 5228 3840 
Q 5126 3821 5091 3785 
Q 5056 3750 4944 3465 
Q 4832 3181 4717 2938 
Q 5229 2720 5494 2509 
Q 5760 2298 5760 2093 
Q 5760 1888 5648 1712 
Q 5536 1536 5434 1536 
Q 5370 1536 5334 1584 
Q 5299 1632 5184 1910 
Q 5069 2189 4953 2387 
Q 4838 2586 4646 2784 
z
" transform="scale(0.015625)"/>
      <path id="STZhongsong-6807" d="M 1862 3155 
L 2144 3155 
L 2362 3488 
Q 2413 3565 2457 3565 
Q 2502 3565 2630 3456 
L 2912 3219 
Q 3059 3098 3059 3027 
Q 3059 2957 2925 2957 
L 1862 2957 
L 1862 2272 
Q 2310 2144 2550 2003 
Q 2790 1862 2790 1638 
Q 2790 1491 2678 1356 
Q 2566 1222 2470 1222 
Q 2426 1222 2397 1257 
Q 2368 1293 2310 1427 
Q 2106 1901 1862 2093 
L 1862 -723 
Q 1862 -838 1628 -928 
Q 1395 -1018 1350 -1018 
Q 1306 -1018 1306 -986 
Q 1306 -954 1315 -765 
Q 1325 -576 1325 -96 
L 1325 1555 
Q 986 838 262 122 
L 173 198 
Q 627 928 864 1549 
Q 1101 2170 1248 2957 
L 659 2957 
Q 493 2957 384 2925 
L 275 3187 
Q 410 3155 595 3155 
L 1325 3155 
L 1325 4083 
Q 1325 4570 1306 4890 
Q 2150 4659 2150 4570 
Q 2150 4512 1862 4378 
L 1862 3155 
z
M 4819 4070 
L 5075 4448 
Q 5126 4525 5174 4525 
Q 5222 4525 5395 4384 
L 5715 4122 
Q 5869 4000 5869 3942 
Q 5869 3885 5747 3885 
L 3206 3885 
Q 3053 3885 2963 3840 
L 2861 4096 
Q 2989 4070 3149 4070 
L 4819 4070 
z
M 4602 2419 
L 4602 -480 
Q 4602 -659 4544 -745 
Q 4486 -832 4224 -969 
Q 3962 -1107 3894 -1107 
Q 3827 -1107 3795 -1005 
Q 3718 -749 3568 -643 
Q 3418 -538 2944 -422 
L 2944 -294 
Q 3507 -365 3686 -365 
Q 3866 -365 3933 -342 
Q 4000 -320 4000 -230 
L 4000 2419 
L 2822 2419 
Q 2669 2419 2579 2374 
L 2477 2643 
Q 2605 2618 2765 2618 
L 5171 2618 
L 5446 3059 
Q 5498 3136 5546 3136 
Q 5594 3136 5699 3053 
Q 5805 2970 5965 2822 
Q 6125 2675 6179 2611 
Q 6234 2547 6234 2502 
Q 6234 2419 6099 2419 
L 4602 2419 
z
M 3046 2010 
Q 3309 1907 3491 1811 
Q 3674 1715 3712 1686 
Q 3750 1658 3750 1632 
Q 3750 1606 3667 1574 
Q 3546 1530 3450 1331 
Q 3002 371 2330 -499 
L 2221 -435 
Q 2803 723 3046 2010 
z
M 4998 1792 
Q 5498 1299 5741 1011 
Q 5984 723 6057 556 
Q 6131 390 6131 204 
Q 6131 19 5990 -160 
Q 5850 -339 5754 -339 
Q 5594 -339 5542 -51 
Q 5434 518 5315 848 
Q 5197 1178 4902 1696 
L 4998 1792 
z
" transform="scale(0.015625)"/>
      <path id="STZhongsong-52a8" d="M 4474 2957 
Q 4365 1498 3942 643 
Q 3520 -211 2400 -1075 
L 2317 -954 
Q 3296 58 3577 912 
Q 3859 1766 3930 2957 
L 3475 2957 
Q 3302 2957 3206 2912 
L 3091 3213 
Q 3226 3181 3411 3181 
L 3942 3181 
Q 3987 3840 3987 4813 
Q 4838 4595 4838 4493 
Q 4838 4448 4694 4371 
Q 4550 4294 4550 4160 
L 4493 3181 
L 5107 3181 
L 5299 3443 
Q 5344 3501 5389 3501 
Q 5434 3501 5632 3373 
L 5920 3181 
Q 6022 3110 6022 3059 
Q 6022 3008 5741 2861 
Q 5741 2470 5696 1548 
Q 5651 627 5606 252 
Q 5562 -122 5414 -346 
Q 5267 -570 4960 -726 
Q 4653 -883 4576 -883 
Q 4499 -883 4474 -762 
Q 4416 -486 4227 -339 
Q 4038 -192 3699 -83 
L 3731 64 
Q 4352 -64 4598 -64 
Q 4845 -64 4931 118 
Q 5018 301 5082 1030 
Q 5146 1760 5158 2957 
L 4474 2957 
z
M 2131 4090 
L 2381 4454 
Q 2426 4518 2474 4518 
Q 2522 4518 2675 4384 
L 2957 4128 
Q 3098 4013 3098 3952 
Q 3098 3891 2976 3891 
L 1088 3891 
Q 915 3891 819 3846 
L 704 4122 
Q 838 4090 1024 4090 
L 2131 4090 
z
M 2502 422 
Q 1581 230 1264 137 
Q 947 45 826 -45 
Q 781 -77 745 -77 
Q 710 -77 640 54 
Q 570 186 435 499 
Q 640 557 755 685 
Q 870 813 1139 1350 
Q 1408 1888 1574 2406 
L 685 2406 
Q 512 2406 416 2362 
L 301 2669 
Q 435 2637 621 2637 
L 2445 2637 
L 2682 2982 
Q 2739 3059 2803 3059 
Q 2867 3059 2940 3004 
Q 3014 2950 3148 2816 
Q 3283 2682 3350 2598 
Q 3418 2515 3418 2460 
Q 3418 2406 3302 2406 
L 1933 2406 
Q 2304 2272 2304 2195 
Q 2304 2112 2195 2106 
Q 2099 2099 2054 2016 
Q 1568 1248 1050 531 
L 2419 646 
Q 2285 979 2022 1293 
L 2099 1408 
Q 2694 1030 2899 796 
Q 3104 563 3104 355 
Q 3104 147 2982 -19 
Q 2861 -186 2726 -186 
Q 2592 -186 2576 16 
Q 2560 218 2502 422 
z
" transform="scale(0.015625)"/>
      <path id="STZhongsong-6001" d="M 2611 3514 
L 909 3514 
Q 774 3514 634 3475 
L 525 3744 
Q 659 3712 845 3712 
L 2675 3712 
Q 2822 4224 2854 4941 
Q 3091 4902 3414 4796 
Q 3738 4691 3738 4640 
Q 3738 4589 3603 4528 
Q 3469 4467 3433 4294 
Q 3398 4122 3283 3712 
L 4915 3712 
L 5222 4102 
Q 5267 4166 5315 4166 
Q 5363 4166 5478 4080 
Q 5594 3994 5754 3859 
Q 5914 3725 5971 3661 
Q 6029 3597 6029 3555 
Q 6029 3514 5914 3514 
L 3706 3514 
Q 4467 2170 6266 1926 
L 6266 1786 
Q 5920 1798 5789 1740 
Q 5658 1683 5523 1466 
Q 5491 1408 5446 1408 
Q 5350 1408 4854 1715 
Q 4358 2022 4044 2435 
Q 3731 2848 3520 3514 
L 3213 3514 
Q 3002 2970 2726 2624 
Q 3712 2445 3712 2010 
Q 3712 1843 3603 1696 
Q 3494 1549 3395 1549 
Q 3296 1549 3168 1818 
Q 2970 2234 2586 2477 
Q 1811 1670 179 1267 
L 147 1414 
Q 2118 2067 2611 3514 
z
M 2861 1530 
Q 3366 1210 3536 1027 
Q 3706 845 3706 656 
Q 3706 467 3616 336 
Q 3526 205 3404 205 
Q 3283 205 3238 422 
Q 3162 787 3059 988 
Q 2957 1190 2771 1421 
L 2861 1530 
z
M 4499 749 
Q 4506 352 4557 141 
Q 4608 -70 4813 -237 
Q 4902 -307 4902 -365 
Q 4902 -454 4732 -662 
Q 4563 -870 4304 -924 
Q 4045 -979 3238 -979 
Q 2630 -979 2358 -928 
Q 2086 -877 2000 -745 
Q 1914 -614 1914 -269 
L 1914 672 
Q 1914 934 1894 1197 
Q 2426 1043 2557 972 
Q 2688 902 2688 851 
Q 2688 768 2477 691 
L 2477 -128 
Q 2477 -384 2569 -425 
Q 2662 -467 3238 -467 
Q 3814 -467 3977 -419 
Q 4141 -371 4211 -150 
Q 4282 70 4358 755 
L 4499 749 
z
M 4851 1056 
Q 5376 749 5629 563 
Q 5882 378 5968 240 
Q 6054 102 6054 -83 
Q 6054 -269 5942 -416 
Q 5830 -563 5737 -563 
Q 5645 -563 5600 -512 
Q 5555 -461 5465 -166 
Q 5376 128 5235 365 
Q 5094 602 4768 966 
L 4851 1056 
z
M 1530 1037 
Q 1536 845 1536 685 
Q 1536 -141 1257 -419 
Q 979 -698 755 -698 
Q 608 -698 515 -611 
Q 422 -525 422 -384 
Q 422 -243 653 -77 
Q 1011 179 1139 380 
Q 1267 582 1370 1043 
L 1530 1037 
z
" transform="scale(0.015625)"/>
      <path id="STZhongsong-72b6" d="M 4134 2438 
Q 4019 1133 3689 413 
Q 3360 -307 2298 -1101 
L 2208 -1024 
Q 3002 -115 3274 582 
Q 3546 1280 3616 2534 
L 2752 2534 
Q 2618 2534 2477 2496 
L 2368 2797 
Q 2502 2765 2688 2765 
L 3629 2765 
Q 3661 3411 3661 3958 
Q 3661 4506 3648 4915 
Q 3910 4845 4156 4761 
Q 4403 4678 4467 4646 
Q 4531 4614 4531 4576 
Q 4531 4538 4403 4467 
Q 4320 4416 4294 4307 
Q 4269 4198 4237 3718 
L 4166 2765 
L 5235 2765 
L 5440 3040 
Q 5510 3136 5580 3136 
Q 5651 3136 5920 2880 
Q 6189 2624 6189 2579 
Q 6189 2534 6029 2534 
L 4314 2534 
Q 4518 1408 4950 723 
Q 5382 38 6240 -442 
L 6227 -589 
Q 6074 -563 5946 -563 
Q 5574 -563 5389 -794 
Q 5350 -832 5306 -832 
Q 5158 -832 4707 -25 
Q 4256 781 4134 2438 
z
M 1760 2048 
L 1760 4294 
Q 1760 4614 1747 4864 
Q 2221 4730 2397 4659 
Q 2573 4589 2573 4544 
Q 2573 4486 2298 4314 
L 2298 -755 
Q 2298 -813 2227 -864 
Q 2157 -915 1981 -998 
Q 1805 -1082 1773 -1082 
Q 1741 -1082 1741 -998 
L 1754 -736 
Q 1760 -467 1760 -154 
L 1760 1734 
L 1075 1024 
Q 787 717 732 643 
Q 678 570 640 570 
Q 602 570 525 656 
Q 448 742 192 1114 
Q 896 1478 1760 2048 
z
M 4659 4365 
Q 5094 4154 5302 4026 
Q 5510 3898 5577 3811 
Q 5645 3725 5645 3629 
Q 5645 3443 5529 3273 
Q 5414 3104 5299 3104 
Q 5184 3104 5120 3302 
Q 4954 3814 4563 4237 
L 4659 4365 
z
M 461 3821 
Q 909 3501 1117 3325 
Q 1325 3149 1392 3021 
Q 1459 2893 1459 2713 
Q 1459 2534 1340 2368 
Q 1222 2202 1088 2202 
Q 1024 2202 992 2250 
Q 960 2298 922 2458 
Q 730 3238 346 3706 
L 461 3821 
z
" transform="scale(0.015625)"/>
     </defs>
     <use xlink:href="#STZhongsong-4f01"/>
     <use xlink:href="#STZhongsong-4e1a" transform="translate(99.999985 0)"/>
     <use xlink:href="#STZhongsong-5c5e" transform="translate(199.999969 0)"/>
     <use xlink:href="#STZhongsong-6027" transform="translate(299.999954 0)"/>
     <use xlink:href="#STZhongsong-3001" transform="translate(399.999939 0)"/>
     <use xlink:href="#STZhongsong-5750" transform="translate(499.999924 0)"/>
     <use xlink:href="#STZhongsong-6807" transform="translate(599.999908 0)"/>
     <use xlink:href="#STZhongsong-3001" transform="translate(699.999893 0)"/>
     <use xlink:href="#STZhongsong-52a8" transform="translate(799.999878 0)"/>
     <use xlink:href="#STZhongsong-6001" transform="translate(899.999863 0)"/>
     <use xlink:href="#STZhongsong-72b6" transform="translate(999.999847 0)"/>
     <use xlink:href="#STZhongsong-6001" transform="translate(1099.999832 0)"/>
    </g>
   </g>
   <g id="text_3">
    <!-- 7 有效格网年度面板 -->
    <g style="fill: #111111" transform="translate(352.41 206.8816) scale(0.17 -0.17)">
     <defs>
      <path id="STZhongsong-37" d="M 691 4518 
L 902 4518 
L 934 4358 
L 3667 4358 
L 3667 4096 
Q 2163 2317 1901 0 
L 1261 0 
Q 1421 1190 1949 2150 
Q 2477 3110 3174 3891 
L 1222 3891 
Q 1005 3891 899 3862 
Q 794 3834 736 3635 
L 614 3206 
L 352 3264 
L 691 4518 
z
" transform="scale(0.015625)"/>
      <path id="STZhongsong-6709" d="M 2611 2861 
L 4512 2861 
L 4666 3130 
Q 4704 3187 4745 3187 
Q 4787 3187 4969 3068 
Q 5152 2950 5283 2870 
Q 5414 2790 5414 2726 
Q 5414 2662 5158 2534 
L 5158 -416 
Q 5158 -653 5100 -752 
Q 5043 -851 4768 -982 
Q 4493 -1114 4432 -1114 
Q 4371 -1114 4346 -998 
Q 4301 -819 4131 -681 
Q 3962 -544 3507 -365 
L 3533 -250 
Q 4186 -371 4323 -371 
Q 4461 -371 4509 -352 
Q 4557 -333 4557 -256 
L 4557 832 
L 2534 832 
L 2534 -781 
Q 2534 -858 2486 -893 
Q 2438 -928 2249 -989 
Q 2061 -1050 1997 -1050 
Q 1933 -1050 1933 -998 
L 1965 -454 
Q 1984 -90 1984 314 
L 1984 2042 
Q 1478 1504 352 755 
L 269 877 
Q 1843 2246 2400 3590 
L 755 3590 
Q 582 3590 486 3546 
L 371 3814 
Q 506 3782 691 3782 
L 2477 3782 
Q 2669 4256 2816 4870 
Q 3629 4557 3629 4435 
Q 3629 4390 3478 4355 
Q 3328 4320 3273 4192 
Q 3219 4064 3091 3782 
L 5094 3782 
L 5357 4166 
Q 5414 4256 5478 4256 
Q 5542 4256 5632 4192 
L 5875 3994 
Q 6029 3866 6118 3773 
Q 6208 3680 6208 3635 
Q 6208 3590 6080 3590 
L 3008 3590 
Q 2816 3174 2611 2861 
z
M 2534 1965 
L 4557 1965 
L 4557 2669 
L 2534 2669 
L 2534 1965 
z
M 4557 1773 
L 2534 1773 
L 2534 1030 
L 4557 1030 
L 4557 1773 
z
" transform="scale(0.015625)"/>
      <path id="STZhongsong-6548" d="M 1274 4915 
Q 1741 4749 1961 4640 
Q 2182 4531 2249 4444 
Q 2317 4358 2317 4217 
Q 2317 4077 2198 3907 
Q 2080 3738 1958 3738 
Q 1888 3738 1859 3766 
Q 1830 3795 1792 3898 
Q 1664 4224 1529 4425 
Q 1395 4627 1216 4819 
L 1274 4915 
z
M 4186 3315 
L 5190 3315 
L 5453 3738 
Q 5498 3808 5549 3808 
Q 5600 3808 5670 3744 
Q 5741 3680 5904 3513 
Q 6067 3347 6131 3270 
Q 6195 3194 6195 3162 
Q 6195 3130 6067 3130 
L 5146 3130 
Q 5325 3078 5488 3008 
Q 5651 2938 5651 2906 
Q 5651 2874 5587 2838 
Q 5523 2803 5497 2752 
Q 5472 2701 5427 2522 
Q 5133 1254 4698 621 
Q 5235 -96 6291 -576 
L 6272 -678 
Q 6182 -672 6044 -672 
Q 5907 -672 5779 -723 
Q 5651 -774 5536 -928 
Q 5498 -979 5466 -979 
Q 5389 -979 4969 -531 
Q 4550 -83 4371 205 
Q 3770 -480 2234 -1056 
L 2170 -973 
Q 3552 -173 4141 634 
Q 3853 1254 3757 2349 
Q 3462 1811 3046 1338 
L 2950 1395 
Q 3360 2093 3568 2787 
Q 3776 3482 4026 4870 
Q 4224 4819 4521 4707 
Q 4819 4595 4819 4550 
Q 4819 4506 4726 4493 
Q 4634 4480 4592 4422 
Q 4550 4365 4451 4057 
Q 4352 3750 4186 3315 
z
M 4922 3130 
L 4115 3130 
Q 3994 2829 3904 2643 
Q 4064 1696 4416 1056 
Q 4768 1862 4922 3130 
z
M 2688 3680 
L 2931 4000 
Q 2989 4077 3037 4077 
Q 3085 4077 3347 3843 
Q 3610 3610 3610 3555 
Q 3610 3501 3507 3501 
L 570 3501 
Q 435 3501 365 3469 
L 275 3706 
Q 390 3680 525 3680 
L 2688 3680 
z
M 2150 3392 
Q 2726 3181 3027 2995 
Q 3328 2810 3328 2611 
Q 3328 2470 3222 2307 
Q 3117 2144 3056 2144 
Q 2995 2144 2963 2176 
Q 2931 2208 2867 2317 
Q 2547 2880 2086 3296 
L 2150 3392 
z
M 1293 3386 
Q 1914 3117 1914 3040 
Q 1914 3014 1798 2989 
Q 1709 2970 1549 2771 
Q 672 1715 250 1344 
L 166 1408 
Q 838 2362 1293 3386 
z
M 2195 1037 
Q 2534 723 2700 508 
Q 2867 294 2867 83 
Q 2867 -128 2764 -285 
Q 2662 -442 2592 -442 
Q 2522 -442 2486 -400 
Q 2451 -358 2374 -186 
Q 2144 346 1933 659 
Q 1350 -109 237 -755 
L 179 -685 
Q 1171 154 1670 1011 
Q 1395 1350 896 1869 
L 979 1965 
Q 1574 1581 1856 1338 
Q 2074 1741 2323 2394 
Q 2509 2310 2710 2179 
Q 2912 2048 2912 2013 
Q 2912 1978 2813 1965 
Q 2714 1952 2605 1747 
Q 2374 1318 2195 1037 
z
" transform="scale(0.015625)"/>
      <path id="STZhongsong-683c" d="M 1722 3334 
L 1869 3334 
L 2029 3571 
Q 2093 3667 2147 3667 
Q 2202 3667 2429 3449 
Q 2656 3232 2656 3171 
Q 2656 3110 2522 3110 
L 1722 3110 
L 1722 2573 
Q 2112 2445 2320 2281 
Q 2528 2118 2528 1875 
Q 2528 1760 2413 1638 
Q 2298 1517 2208 1517 
Q 2118 1517 2083 1542 
Q 2048 1568 2022 1709 
Q 1933 2182 1722 2394 
L 1722 -691 
Q 1722 -755 1706 -771 
Q 1690 -787 1597 -844 
Q 1504 -902 1363 -960 
Q 1222 -1018 1200 -1018 
Q 1178 -1018 1178 -960 
L 1190 -691 
Q 1203 -371 1203 -90 
L 1203 1971 
Q 1037 1562 825 1242 
Q 614 922 192 467 
L 102 538 
Q 749 1594 1094 3110 
L 570 3110 
Q 403 3110 294 3078 
L 186 3366 
Q 320 3334 506 3334 
L 1203 3334 
L 1203 4134 
Q 1203 4557 1184 4864 
Q 1965 4685 1965 4614 
Q 1965 4570 1722 4429 
L 1722 3334 
z
M 3341 3398 
Q 2995 2848 2464 2298 
L 2362 2362 
Q 2771 2995 2992 3516 
Q 3213 4038 3373 4806 
Q 3814 4666 3932 4602 
Q 4051 4538 4051 4499 
Q 4051 4461 3955 4416 
Q 3859 4371 3744 4137 
Q 3629 3904 3590 3834 
L 4813 3834 
L 4998 4115 
Q 5030 4166 5065 4166 
Q 5101 4166 5254 4060 
Q 5408 3955 5526 3868 
Q 5645 3782 5680 3737 
Q 5715 3693 5715 3648 
Q 5715 3571 5619 3558 
Q 5523 3546 5404 3456 
Q 5286 3366 5190 3219 
Q 4832 2688 4518 2374 
Q 5178 1952 6182 1754 
L 6182 1651 
Q 5869 1606 5773 1548 
Q 5677 1491 5613 1338 
Q 5587 1267 5520 1267 
Q 5453 1267 4960 1513 
Q 4467 1760 4147 2035 
Q 3725 1702 3034 1376 
Q 3251 1306 3456 1203 
L 4678 1203 
L 4781 1382 
Q 4813 1440 4880 1440 
Q 4947 1440 5190 1289 
Q 5434 1139 5434 1062 
Q 5434 986 5248 922 
L 5248 -186 
Q 5248 -365 5254 -493 
L 5261 -691 
Q 5261 -730 5197 -771 
Q 5133 -813 4973 -873 
Q 4813 -934 4755 -934 
Q 4717 -934 4717 -870 
L 4717 -390 
L 3443 -390 
L 3443 -813 
Q 3443 -877 3424 -896 
Q 3405 -915 3222 -979 
Q 3040 -1043 2963 -1043 
Q 2938 -1043 2938 -992 
L 2944 -755 
Q 2950 -646 2950 -454 
L 2950 794 
Q 2950 1165 2938 1331 
Q 2438 1101 2022 941 
L 1971 1037 
Q 3290 1786 3859 2336 
Q 3539 2746 3341 3398 
z
M 3494 3661 
Q 3469 3610 3456 3590 
Q 3750 3002 4160 2650 
Q 4544 3091 4826 3661 
L 3494 3661 
z
M 3443 -198 
L 4717 -198 
L 4717 1011 
L 3443 1011 
L 3443 -198 
z
" transform="scale(0.015625)"/>
      <path id="STZhongsong-7f51" d="M 1542 4320 
L 4992 4320 
L 5158 4614 
Q 5197 4678 5248 4678 
Q 5299 4678 5603 4464 
Q 5907 4250 5907 4179 
Q 5907 4109 5651 4038 
L 5651 -166 
Q 5651 -499 5584 -646 
Q 5517 -794 5245 -928 
Q 4973 -1062 4890 -1062 
Q 4845 -1062 4819 -966 
Q 4742 -685 4588 -576 
Q 4435 -467 3917 -326 
L 3936 -186 
Q 4608 -301 4800 -301 
Q 4992 -301 5037 -230 
Q 5082 -160 5082 32 
L 5082 4134 
L 1498 4134 
L 1498 -736 
Q 1498 -781 1485 -800 
Q 1472 -819 1360 -883 
Q 1248 -947 1110 -995 
Q 973 -1043 941 -1043 
Q 909 -1043 915 -986 
Q 954 -666 954 -166 
L 954 4141 
Q 954 4461 941 4710 
Q 1197 4608 1542 4320 
z
M 2470 2534 
Q 2637 3104 2778 3776 
Q 3053 3654 3206 3558 
Q 3360 3462 3389 3433 
Q 3418 3405 3418 3373 
Q 3418 3315 3334 3289 
Q 3251 3264 3203 3184 
Q 3155 3104 3027 2768 
Q 2899 2432 2765 2144 
Q 3245 1459 3245 992 
Q 3245 813 3126 653 
Q 3008 493 2938 493 
Q 2822 493 2790 723 
Q 2720 1261 2547 1683 
Q 2093 781 1632 262 
L 1542 390 
Q 2029 1126 2349 2118 
Q 2138 2534 1619 3290 
L 1709 3360 
Q 2138 2938 2470 2534 
z
M 4006 2522 
Q 4179 3104 4288 3712 
Q 4960 3354 4960 3238 
Q 4960 3194 4873 3165 
Q 4787 3136 4723 3056 
Q 4659 2976 4550 2688 
Q 4442 2400 4307 2106 
Q 4883 1235 4883 800 
Q 4883 646 4787 508 
Q 4691 371 4604 371 
Q 4518 371 4461 576 
Q 4320 1088 4096 1658 
Q 3654 787 3014 102 
L 2938 192 
Q 3494 1005 3885 2150 
Q 3686 2586 3347 3136 
L 3462 3181 
Q 3757 2835 4006 2522 
z
" transform="scale(0.015625)"/>
      <path id="STZhongsong-9762" d="M 2694 4058 
L 678 4058 
Q 512 4058 403 4026 
L 294 4301 
Q 429 4269 614 4269 
L 4998 4269 
L 5286 4698 
Q 5350 4794 5395 4794 
Q 5459 4794 5788 4509 
Q 6118 4224 6118 4141 
Q 6118 4058 5990 4058 
L 3443 4058 
Q 3226 3622 2874 3091 
L 4723 3091 
L 4864 3328 
Q 4896 3379 4934 3379 
Q 5011 3379 5337 3184 
Q 5664 2989 5664 2899 
Q 5664 2810 5376 2662 
L 5376 -288 
Q 5376 -397 5382 -493 
L 5395 -646 
Q 5395 -672 5382 -688 
Q 5370 -704 5267 -752 
Q 5165 -800 5014 -832 
Q 4864 -864 4825 -864 
Q 4787 -864 4787 -813 
L 4787 -243 
L 1523 -243 
L 1523 -646 
Q 1523 -710 1459 -752 
Q 1395 -794 1200 -867 
Q 1005 -941 934 -941 
Q 909 -941 915 -877 
Q 941 -672 941 -211 
L 941 2912 
Q 941 3290 934 3366 
Q 1216 3290 1587 3091 
L 2477 3091 
Q 2682 3763 2694 4058 
z
M 2739 2880 
L 2739 2074 
L 3584 2074 
L 3584 2880 
L 2739 2880 
z
M 1523 -32 
L 2189 -32 
L 2189 2880 
L 1523 2880 
L 1523 -32 
z
M 4147 -32 
L 4787 -32 
L 4787 2880 
L 4147 2880 
L 4147 -32 
z
M 2739 1862 
L 2739 1056 
L 3584 1056 
L 3584 1862 
L 2739 1862 
z
M 2739 -32 
L 3584 -32 
L 3584 845 
L 2739 845 
L 2739 -32 
z
" transform="scale(0.015625)"/>
      <path id="STZhongsong-677f" d="M 1888 3398 
L 2189 3398 
L 2400 3661 
Q 2464 3738 2512 3738 
Q 2560 3738 2768 3520 
Q 2976 3302 2976 3238 
Q 2976 3200 2842 3200 
L 1888 3200 
L 1888 2675 
Q 2739 2208 2739 1798 
Q 2739 1645 2624 1488 
Q 2509 1331 2422 1331 
Q 2336 1331 2313 1363 
Q 2291 1395 2278 1555 
Q 2240 2022 1888 2547 
L 1888 -640 
Q 1888 -730 1856 -758 
Q 1824 -787 1657 -860 
Q 1491 -934 1408 -934 
Q 1370 -934 1370 -870 
L 1382 -518 
Q 1389 -307 1389 -19 
L 1389 1875 
Q 1011 979 173 77 
L 96 141 
Q 909 1318 1299 3200 
L 800 3200 
Q 634 3200 525 3168 
L 378 3430 
Q 512 3398 698 3398 
L 1389 3398 
L 1389 4134 
Q 1389 4557 1370 4864 
Q 1856 4742 2025 4684 
Q 2195 4627 2195 4569 
Q 2195 4512 1888 4378 
L 1888 3398 
z
M 3654 4147 
Q 4672 4358 5312 4730 
Q 5670 4410 5808 4272 
Q 5946 4134 5946 4080 
Q 5946 4026 5888 4026 
Q 5830 4026 5721 4061 
Q 5613 4096 5536 4096 
Q 5459 4096 5338 4077 
Q 4557 3936 3610 3936 
Q 3603 3418 3558 2854 
L 4896 2854 
L 5056 3053 
Q 5094 3104 5126 3104 
Q 5178 3104 5459 2889 
Q 5741 2675 5741 2617 
Q 5741 2560 5625 2525 
Q 5510 2490 5475 2442 
Q 5440 2394 5389 2208 
Q 5088 1101 4723 563 
Q 5190 -6 6246 -512 
L 6214 -614 
Q 5670 -576 5466 -838 
Q 5427 -883 5395 -883 
Q 5363 -883 5219 -758 
Q 5075 -634 4825 -371 
Q 4576 -109 4403 141 
Q 3802 -512 2534 -1075 
L 2445 -966 
Q 3731 -147 4173 512 
Q 3782 1235 3699 2643 
L 3546 2643 
Q 3469 1779 3408 1356 
Q 3347 934 3206 544 
Q 3066 154 2806 -224 
Q 2547 -602 2112 -1056 
L 2035 -973 
Q 2605 -173 2825 889 
Q 3046 1952 3046 3366 
Q 3046 3878 3021 4448 
Q 3366 4314 3654 4147 
z
M 4442 966 
Q 4736 1562 4909 2643 
L 3891 2643 
Q 4070 1606 4442 966 
z
" transform="scale(0.015625)"/>
     </defs>
     <use xlink:href="#STZhongsong-37"/>
     <use xlink:href="#STZhongsong-20" transform="translate(61.999985 0)"/>
     <use xlink:href="#STZhongsong-6709" transform="translate(93.999969 0)"/>
     <use xlink:href="#STZhongsong-6548" transform="translate(193.999954 0)"/>
     <use xlink:href="#STZhongsong-683c" transform="translate(293.999939 0)"/>
     <use xlink:href="#STZhongsong-7f51" transform="translate(393.999924 0)"/>
     <use xlink:href="#STZhongsong-5e74" transform="translate(493.999908 0)"/>
     <use xlink:href="#STZhongsong-5ea6" transform="translate(593.999893 0)"/>
     <use xlink:href="#STZhongsong-9762" transform="translate(693.999878 0)"/>
     <use xlink:href="#STZhongsong-677f" transform="translate(793.999863 0)"/>
    </g>
   </g>
   <g id="text_4">
    <!-- 29,755个有效格网 × 10年 -->
    <g style="fill: #111111" transform="translate(336.15 250.537275) scale(0.15 -0.15)">
     <defs>
      <path id="STZhongsong-32" d="M 723 2714 
L 422 2675 
Q 397 2835 397 2989 
Q 397 3616 832 4025 
Q 1267 4435 1978 4435 
Q 2630 4435 3043 4064 
Q 3456 3693 3456 3098 
Q 3456 2669 3286 2349 
Q 3117 2029 2611 1603 
Q 2106 1178 1037 467 
L 2662 467 
Q 2963 467 3062 544 
Q 3162 621 3200 838 
L 3232 1018 
L 3494 1018 
L 3283 -154 
L 3085 -154 
L 3053 0 
L 320 0 
L 320 262 
L 819 640 
Q 1901 1453 2377 1977 
Q 2854 2502 2854 3066 
Q 2854 3507 2569 3788 
Q 2285 4070 1837 4070 
Q 1325 4070 1017 3753 
Q 710 3437 710 2918 
Q 710 2822 723 2714 
z
" transform="scale(0.015625)"/>
      <path id="STZhongsong-35" d="M 934 4358 
L 2880 4358 
Q 3046 4358 3097 4387 
Q 3149 4416 3155 4512 
L 3386 4512 
L 3386 3853 
L 1229 3853 
L 1171 2752 
Q 1530 2848 1990 2848 
Q 2771 2848 3228 2451 
Q 3686 2054 3686 1414 
Q 3686 787 3212 355 
Q 2739 -77 2029 -77 
Q 1414 -77 982 236 
Q 550 550 550 890 
Q 550 1037 640 1123 
Q 730 1210 838 1210 
Q 1062 1210 1203 813 
Q 1421 218 2042 218 
Q 2515 218 2819 528 
Q 3123 838 3123 1312 
Q 3123 1824 2777 2128 
Q 2432 2432 1843 2432 
Q 1280 2432 832 2246 
L 934 4358 
z
" transform="scale(0.015625)"/>
      <path id="STZhongsong-4e2a" d="M 3379 4141 
Q 2394 2490 301 1574 
L 243 1690 
Q 2208 2886 3014 4896 
Q 3789 4570 3789 4467 
Q 3789 4422 3667 4409 
Q 3546 4397 3494 4320 
Q 3834 3635 4586 3120 
Q 5338 2605 6298 2394 
L 6285 2240 
Q 5888 2246 5741 2185 
Q 5594 2125 5453 1933 
Q 5421 1888 5370 1888 
Q 5248 1888 4489 2515 
Q 3731 3142 3379 4141 
z
M 2912 3085 
Q 3296 3040 3488 2973 
Q 3680 2906 3680 2867 
Q 3680 2822 3507 2739 
L 3507 -166 
Q 3507 -378 3520 -614 
L 3526 -832 
Q 3526 -883 3465 -928 
Q 3405 -973 3225 -1030 
Q 3046 -1088 2950 -1088 
Q 2906 -1088 2906 -992 
L 2918 -742 
Q 2925 -486 2925 -166 
L 2925 2515 
Q 2925 2835 2912 3085 
z
" transform="scale(0.015625)"/>
      <path id="STZhongsong-d7" d="M 5197 3482 
L 3558 1818 
L 5216 160 
L 4870 -160 
L 3213 1498 
L 1555 -160 
L 1229 160 
L 2893 1818 
L 1229 3482 
L 1574 3802 
L 3238 2138 
L 4877 3802 
L 5197 3482 
z
" transform="scale(0.015625)"/>
      <path id="STZhongsong-31" d="M 2150 4358 
L 2387 4358 
L 2387 742 
Q 2387 422 2464 342 
Q 2541 262 2822 262 
L 3130 262 
L 3130 0 
L 1069 0 
L 1069 262 
L 1408 262 
Q 1670 262 1766 348 
Q 1862 435 1862 742 
L 1862 3718 
L 1069 3718 
L 1069 3987 
Q 1709 4070 2150 4358 
z
" transform="scale(0.015625)"/>
      <path id="STZhongsong-30" d="M 326 2182 
Q 326 3251 774 3843 
Q 1222 4435 1997 4435 
Q 2752 4435 3197 3827 
Q 3642 3219 3642 2144 
Q 3642 1139 3178 531 
Q 2714 -77 1952 -77 
Q 1229 -77 777 524 
Q 326 1126 326 2182 
z
M 3040 2182 
Q 3040 3104 2758 3616 
Q 2477 4128 1978 4128 
Q 1478 4128 1200 3590 
Q 922 3053 922 2118 
Q 922 1229 1210 733 
Q 1498 237 1971 237 
Q 2470 237 2755 752 
Q 3040 1267 3040 2182 
z
" transform="scale(0.015625)"/>
     </defs>
     <use xlink:href="#STZhongsong-32"/>
     <use xlink:href="#STZhongsong-39" transform="translate(61.999985 0)"/>
     <use xlink:href="#STZhongsong-2c" transform="translate(123.999969 0)"/>
     <use xlink:href="#STZhongsong-37" transform="translate(155.999954 0)"/>
     <use xlink:href="#STZhongsong-35" transform="translate(217.999939 0)"/>
     <use xlink:href="#STZhongsong-35" transform="translate(279.999924 0)"/>
     <use xlink:href="#STZhongsong-4e2a" transform="translate(341.999908 0)"/>
     <use xlink:href="#STZhongsong-6709" transform="translate(441.999893 0)"/>
     <use xlink:href="#STZhongsong-6548" transform="translate(541.999878 0)"/>
     <use xlink:href="#STZhongsong-683c" transform="translate(641.999863 0)"/>
     <use xlink:href="#STZhongsong-7f51" transform="translate(741.999847 0)"/>
     <use xlink:href="#STZhongsong-20" transform="translate(841.999832 0)"/>
     <use xlink:href="#STZhongsong-d7" transform="translate(873.999817 0)"/>
     <use xlink:href="#STZhongsong-20" transform="translate(973.999802 0)"/>
     <use xlink:href="#STZhongsong-31" transform="translate(1005.999786 0)"/>
     <use xlink:href="#STZhongsong-30" transform="translate(1067.999771 0)"/>
     <use xlink:href="#STZhongsong-5e74" transform="translate(1129.999756 0)"/>
    </g>
    <!-- 数量、动态变量、属性结构 -->
    <g style="fill: #111111" transform="translate(338.4 269.849775) scale(0.15 -0.15)">
     <defs>
      <path id="STZhongsong-6570" d="M 2394 3334 
L 2938 3334 
L 3136 3616 
Q 3181 3680 3245 3680 
Q 3309 3680 3520 3462 
Q 3731 3245 3731 3193 
Q 3731 3142 3610 3142 
L 2394 3142 
L 2394 3027 
Q 2784 2938 3069 2819 
Q 3354 2701 3354 2515 
Q 3354 2381 3296 2227 
Q 3238 2074 3171 2074 
Q 3104 2074 3069 2109 
Q 3034 2144 2963 2259 
Q 2893 2374 2720 2556 
Q 2547 2739 2394 2854 
Q 2406 2381 2406 2259 
Q 2406 2138 2393 2099 
Q 2381 2061 2217 2006 
Q 2054 1952 1971 1933 
Q 2291 1811 2291 1722 
Q 2291 1670 2227 1660 
Q 2163 1651 2118 1609 
Q 2074 1568 1990 1434 
L 2637 1434 
L 2803 1619 
Q 2854 1677 2892 1677 
Q 2931 1677 3190 1481 
Q 3450 1286 3450 1228 
Q 3450 1171 3338 1148 
Q 3226 1126 3168 1088 
Q 3110 1050 3053 941 
Q 2848 563 2637 307 
Q 3040 205 3133 38 
Q 3226 -128 3226 -262 
Q 3226 -397 3187 -467 
Q 3149 -538 3101 -538 
Q 3053 -538 2816 -378 
Q 2579 -218 2278 -51 
Q 1664 -589 384 -992 
L 333 -877 
Q 1338 -371 1875 141 
Q 1440 326 845 474 
Q 1184 954 1331 1222 
L 691 1222 
Q 518 1222 422 1190 
L 307 1453 
Q 410 1434 627 1434 
L 1440 1434 
Q 1626 1824 1690 2035 
Q 1818 1997 1869 1978 
Q 1888 2515 1888 2874 
Q 1421 2125 282 1613 
L 243 1715 
Q 1075 2330 1549 3142 
L 589 3142 
Q 467 3142 390 3110 
L 301 3366 
Q 416 3334 550 3334 
L 1888 3334 
L 1888 4147 
Q 1888 4698 1875 4877 
Q 2592 4723 2592 4653 
Q 2592 4608 2394 4499 
L 2394 3334 
z
M 1856 1222 
L 1427 570 
Q 1914 480 2138 429 
Q 2413 762 2630 1222 
L 1856 1222 
z
M 4326 3270 
L 5222 3270 
L 5485 3590 
Q 5549 3661 5609 3661 
Q 5670 3661 5939 3421 
Q 6208 3181 6208 3117 
Q 6208 3072 6054 3072 
L 5050 3072 
Q 5638 2925 5638 2810 
Q 5638 2771 5542 2742 
Q 5446 2714 5404 2643 
Q 5363 2573 5338 2438 
Q 5088 1069 4749 518 
Q 5261 -186 6304 -646 
L 6246 -774 
Q 6080 -730 5933 -730 
Q 5658 -730 5446 -902 
Q 5389 -947 5363 -947 
Q 5299 -947 4934 -534 
Q 4570 -122 4448 102 
Q 4115 -301 3657 -579 
Q 3200 -858 2470 -1139 
L 2413 -1005 
Q 3642 -307 4211 544 
Q 3942 1152 3878 2342 
Q 3654 1946 3322 1491 
L 3213 1555 
Q 3949 2963 4109 4877 
Q 4333 4832 4563 4761 
Q 4794 4691 4858 4649 
Q 4922 4608 4922 4563 
Q 4922 4518 4813 4492 
Q 4704 4467 4653 4384 
Q 4602 4301 4538 3974 
Q 4474 3648 4326 3270 
z
M 4870 3072 
L 4250 3072 
L 4064 2682 
Q 4141 1594 4454 979 
Q 4723 1619 4870 3072 
z
M 3104 4602 
Q 3264 4525 3453 4422 
Q 3642 4320 3670 4288 
Q 3699 4256 3699 4221 
Q 3699 4186 3673 4170 
Q 3648 4154 3539 4154 
Q 3430 4154 3315 4038 
Q 2957 3680 2528 3392 
L 2464 3488 
Q 2906 4102 3104 4602 
z
M 653 4512 
Q 1171 4326 1353 4201 
Q 1536 4077 1536 3901 
Q 1536 3725 1453 3590 
Q 1370 3456 1286 3456 
Q 1203 3456 1164 3494 
Q 1126 3533 1084 3673 
Q 1043 3814 899 4038 
Q 755 4262 589 4429 
L 653 4512 
z
" transform="scale(0.015625)"/>
      <path id="STZhongsong-91cf" d="M 2054 4480 
L 4410 4480 
L 4576 4691 
Q 4608 4730 4640 4730 
Q 4691 4730 4969 4582 
Q 5248 4435 5248 4368 
Q 5248 4301 5024 4198 
L 5024 3738 
Q 5024 3552 5037 3341 
L 5043 3142 
Q 5043 3098 5030 3075 
Q 5018 3053 4922 2992 
Q 4826 2931 4685 2876 
Q 4544 2822 4509 2822 
Q 4474 2822 4474 2880 
L 4474 3046 
L 2016 3046 
Q 2029 2989 2006 2960 
Q 1984 2931 1897 2886 
Q 1811 2842 1660 2797 
Q 1510 2752 1475 2752 
Q 1440 2752 1446 2822 
Q 1478 3130 1478 3456 
L 1478 4198 
Q 1478 4467 1459 4742 
Q 1830 4608 2054 4480 
z
M 4474 3853 
L 4474 4294 
L 2016 4294 
L 2016 3853 
L 4474 3853 
z
M 4474 3213 
L 4474 3674 
L 2016 3674 
L 2016 3213 
L 4474 3213 
z
M 5171 2675 
L 5395 3040 
Q 5434 3110 5491 3110 
Q 5549 3110 5690 2989 
L 5984 2746 
Q 6138 2618 6138 2560 
Q 6138 2502 5990 2502 
L 640 2502 
Q 467 2502 371 2458 
L 256 2707 
Q 390 2675 576 2675 
L 5171 2675 
z
M 3482 672 
L 3482 166 
L 4666 166 
L 4864 416 
Q 4902 474 4950 474 
Q 4998 474 5251 285 
Q 5504 96 5504 38 
Q 5504 -19 5286 -19 
L 3482 -19 
L 3482 -550 
L 5203 -550 
L 5434 -230 
Q 5485 -160 5542 -160 
Q 5600 -160 5865 -390 
Q 6131 -621 6131 -691 
Q 6131 -736 5965 -736 
L 582 -736 
Q 410 -736 314 -781 
L 198 -518 
Q 333 -550 518 -550 
L 2931 -550 
L 2931 -19 
L 1274 -19 
Q 1101 -19 1005 -64 
L 877 198 
Q 1011 166 1197 166 
L 2931 166 
L 2931 672 
L 1843 672 
Q 1843 589 1824 569 
Q 1805 550 1725 505 
Q 1645 461 1481 413 
Q 1318 365 1296 365 
Q 1274 365 1280 422 
Q 1312 717 1312 1050 
L 1312 1747 
Q 1312 2074 1293 2355 
Q 1715 2253 1926 2150 
L 4544 2150 
L 4685 2362 
Q 4717 2413 4765 2413 
Q 4813 2413 4944 2333 
Q 5075 2253 5209 2157 
Q 5344 2061 5344 2029 
Q 5344 1971 5126 1850 
L 5126 1363 
Q 5126 1056 5133 954 
L 5139 762 
Q 5139 704 5091 669 
Q 5043 634 4880 592 
Q 4717 550 4627 550 
Q 4576 550 4576 627 
L 4576 672 
L 3482 672 
z
M 2931 1510 
L 2931 1978 
L 1843 1978 
L 1843 1510 
L 2931 1510 
z
M 3482 1978 
L 3482 1510 
L 4576 1510 
L 4576 1978 
L 3482 1978 
z
M 3482 1312 
L 3482 858 
L 4576 858 
L 4576 1312 
L 3482 1312 
z
M 2931 858 
L 2931 1312 
L 1843 1312 
L 1843 858 
L 2931 858 
z
" transform="scale(0.015625)"/>
      <path id="STZhongsong-53d8" d="M 2912 3885 
Q 2835 4390 2330 4787 
L 2381 4915 
Q 2912 4787 3197 4643 
Q 3482 4499 3482 4301 
Q 3482 4211 3430 4092 
Q 3379 3974 3270 3885 
L 4819 3885 
L 5094 4288 
Q 5152 4365 5209 4365 
Q 5267 4365 5564 4080 
Q 5862 3795 5862 3728 
Q 5862 3661 5696 3661 
L 3968 3661 
L 3968 2445 
Q 3968 2182 3974 2048 
L 3987 1837 
Q 3987 1798 3929 1760 
Q 3872 1722 3709 1664 
Q 3546 1606 3469 1606 
Q 3418 1606 3418 1696 
L 3418 3661 
L 2733 3661 
L 2733 1779 
Q 2733 1722 2707 1696 
Q 2682 1670 2474 1600 
Q 2266 1530 2214 1530 
Q 2163 1530 2163 1606 
L 2176 1869 
Q 2182 2138 2182 2451 
L 2182 3661 
L 723 3661 
Q 550 3661 454 3616 
L 339 3917 
Q 474 3885 659 3885 
L 2912 3885 
z
M 1338 3277 
Q 2010 2938 2010 2835 
Q 2010 2784 1917 2768 
Q 1824 2752 1779 2717 
Q 1734 2682 1658 2573 
Q 1382 2150 1065 1859 
Q 749 1568 288 1235 
L 179 1338 
Q 627 1798 873 2214 
Q 1120 2630 1338 3277 
z
M 4275 3238 
Q 4870 2970 5174 2790 
Q 5478 2611 5580 2473 
Q 5683 2336 5683 2137 
Q 5683 1939 5580 1779 
Q 5478 1619 5370 1619 
Q 5306 1619 5261 1683 
Q 5216 1747 5114 1997 
Q 4832 2669 4205 3104 
L 4275 3238 
z
M 3104 -186 
Q 2003 -858 307 -1107 
L 288 -966 
Q 1830 -550 2746 77 
Q 2150 582 1862 1286 
L 1587 1286 
Q 1414 1286 1318 1242 
L 1203 1536 
Q 1338 1504 1523 1504 
L 4077 1504 
L 4288 1715 
Q 4326 1754 4365 1754 
Q 4448 1754 4707 1539 
Q 4966 1325 4966 1274 
Q 4966 1216 4844 1200 
Q 4723 1184 4640 1120 
Q 4557 1056 4378 858 
Q 4013 442 3552 109 
Q 4595 -333 6170 -371 
L 6170 -512 
Q 5830 -538 5622 -630 
Q 5414 -723 5306 -960 
Q 5274 -1018 5222 -1018 
Q 5146 -1018 4643 -874 
Q 4141 -730 3805 -576 
Q 3469 -422 3104 -186 
z
M 3098 333 
Q 3622 736 4026 1286 
L 2074 1286 
Q 2432 710 3098 333 
z
" transform="scale(0.015625)"/>
      <path id="STZhongsong-7ed3" d="M 4499 3411 
L 4499 2304 
L 5011 2304 
L 5242 2598 
Q 5299 2675 5363 2675 
Q 5427 2675 5676 2435 
Q 5926 2195 5926 2144 
Q 5926 2093 5792 2093 
L 2995 2093 
Q 2822 2093 2726 2048 
L 2611 2336 
Q 2746 2304 2931 2304 
L 3930 2304 
L 3930 3411 
L 3174 3411 
Q 3002 3411 2906 3366 
L 2790 3654 
Q 2931 3622 3123 3622 
L 3930 3622 
L 3930 4288 
Q 3930 4621 3917 4877 
Q 4224 4819 4432 4755 
Q 4640 4691 4694 4662 
Q 4749 4634 4749 4608 
Q 4749 4544 4499 4390 
L 4499 3622 
L 5146 3622 
L 5382 3955 
Q 5440 4032 5485 4032 
Q 5530 4032 5645 3936 
L 5952 3674 
Q 6138 3514 6138 3462 
Q 6138 3411 6016 3411 
L 4499 3411 
z
M 1696 2515 
Q 838 2336 576 2208 
Q 531 2189 508 2189 
Q 486 2189 473 2205 
Q 461 2221 400 2358 
Q 339 2496 288 2675 
Q 563 2720 652 2819 
Q 742 2918 1008 3481 
Q 1274 4045 1542 4870 
Q 1786 4755 1984 4640 
Q 2182 4525 2224 4486 
Q 2266 4448 2266 4416 
Q 2266 4352 2106 4339 
Q 1971 4333 1843 4102 
Q 1389 3315 915 2701 
L 1818 2739 
Q 2093 3264 2291 3699 
Q 2528 3546 2678 3430 
Q 2829 3315 2857 3283 
Q 2886 3251 2886 3226 
Q 2886 3168 2726 3142 
Q 2650 3136 2547 2982 
Q 1971 2125 1286 1331 
L 2662 1453 
L 2669 1325 
Q 1107 902 870 787 
Q 800 755 774 755 
Q 749 755 739 771 
Q 730 787 672 954 
L 563 1286 
Q 787 1331 921 1392 
Q 1056 1453 1296 1840 
Q 1536 2227 1696 2515 
z
M 3578 1402 
L 4883 1402 
L 5037 1651 
Q 5082 1722 5123 1722 
Q 5165 1722 5286 1638 
L 5574 1446 
Q 5741 1338 5741 1277 
Q 5741 1216 5523 1114 
L 5523 -250 
Q 5523 -378 5530 -499 
L 5542 -691 
Q 5542 -755 5481 -800 
Q 5421 -845 5270 -896 
Q 5120 -947 5049 -947 
Q 4979 -947 4969 -918 
Q 4960 -890 4960 -826 
L 4960 -384 
L 3533 -384 
L 3533 -717 
Q 3533 -813 3478 -854 
Q 3424 -896 3254 -960 
Q 3085 -1024 3014 -1024 
Q 2970 -1024 2976 -941 
Q 3002 -685 3002 -371 
L 3002 1101 
Q 3002 1382 2982 1664 
Q 3379 1542 3578 1402 
z
M 4960 -166 
L 4960 1203 
L 3533 1203 
L 3533 -166 
L 4960 -166 
z
M 2720 358 
L 1549 -179 
Q 774 -538 745 -538 
Q 717 -538 701 -522 
Q 685 -506 592 -342 
Q 499 -179 416 6 
Q 883 45 2694 474 
L 2720 358 
z
" transform="scale(0.015625)"/>
      <path id="STZhongsong-6784" d="M 1965 3469 
L 2118 3469 
L 2349 3827 
Q 2394 3898 2426 3898 
Q 2458 3898 2624 3760 
Q 2790 3622 2892 3510 
Q 2995 3398 2995 3334 
Q 2995 3270 2906 3270 
L 1965 3270 
L 1965 2374 
Q 2368 2189 2601 2025 
Q 2835 1862 2835 1689 
Q 2835 1517 2716 1376 
Q 2598 1235 2524 1235 
Q 2451 1235 2412 1283 
Q 2374 1331 2336 1485 
Q 2195 2010 1965 2214 
L 1965 -762 
Q 1965 -806 1942 -825 
Q 1920 -845 1824 -889 
Q 1728 -934 1597 -972 
Q 1466 -1011 1434 -1011 
Q 1402 -1011 1408 -947 
Q 1434 -640 1434 -90 
L 1434 1869 
Q 1274 1459 1027 1104 
Q 781 749 262 179 
L 179 237 
Q 672 1050 909 1638 
Q 1146 2227 1408 3270 
L 851 3270 
Q 685 3270 576 3238 
L 403 3501 
Q 538 3469 723 3469 
L 1434 3469 
L 1434 4166 
Q 1434 4589 1414 4896 
Q 1600 4864 1891 4781 
Q 2182 4698 2182 4646 
Q 2182 4595 1965 4467 
L 1965 3469 
z
M 3699 3443 
Q 3302 2842 2656 2150 
L 2573 2214 
Q 3322 3264 3699 4890 
Q 4000 4781 4182 4685 
Q 4365 4589 4397 4560 
Q 4429 4531 4429 4499 
Q 4429 4435 4320 4416 
Q 4250 4403 4198 4339 
Q 4147 4275 4012 4006 
Q 3878 3738 3821 3642 
L 5267 3642 
L 5421 3878 
Q 5459 3936 5516 3936 
Q 5574 3936 5862 3741 
Q 6150 3546 6150 3475 
Q 6150 3386 5875 3270 
Q 5856 2054 5824 1059 
Q 5792 64 5757 -217 
Q 5722 -499 5603 -633 
Q 5485 -768 5158 -918 
Q 4832 -1069 4781 -1069 
Q 4698 -1069 4646 -909 
Q 4595 -749 4518 -643 
Q 4442 -538 4259 -445 
Q 4077 -352 3725 -243 
L 3744 -128 
Q 4538 -250 4778 -250 
Q 5018 -250 5088 -160 
Q 5158 -70 5193 205 
Q 5229 480 5267 1619 
Q 5306 2758 5306 3443 
L 3699 3443 
z
M 4416 845 
Q 3731 678 3484 582 
Q 3238 486 3002 307 
Q 2963 275 2908 275 
Q 2854 275 2822 313 
Q 2790 352 2579 800 
Q 2886 909 3008 1097 
Q 3130 1286 3395 1884 
Q 3661 2483 3840 3021 
Q 4102 2906 4268 2810 
Q 4435 2714 4460 2685 
Q 4486 2656 4486 2630 
Q 4486 2566 4387 2560 
Q 4288 2554 4224 2458 
L 3859 1888 
Q 3558 1421 3174 870 
L 4365 1030 
Q 4250 1427 4077 1792 
L 4160 1856 
Q 4557 1472 4771 1184 
Q 4986 896 4986 713 
Q 4986 531 4867 380 
Q 4749 230 4614 230 
Q 4525 230 4499 422 
Q 4461 666 4416 845 
z
" transform="scale(0.015625)"/>
     </defs>
     <use xlink:href="#STZhongsong-6570"/>
     <use xlink:href="#STZhongsong-91cf" transform="translate(99.999985 0)"/>
     <use xlink:href="#STZhongsong-3001" transform="translate(199.999969 0)"/>
     <use xlink:href="#STZhongsong-52a8" transform="translate(299.999954 0)"/>
     <use xlink:href="#STZhongsong-6001" transform="translate(399.999939 0)"/>
     <use xlink:href="#STZhongsong-53d8" transform="translate(499.999924 0)"/>
     <use xlink:href="#STZhongsong-91cf" transform="translate(599.999908 0)"/>
     <use xlink:href="#STZhongsong-3001" transform="translate(699.999893 0)"/>
     <use xlink:href="#STZhongsong-5c5e" transform="translate(799.999878 0)"/>
     <use xlink:href="#STZhongsong-6027" transform="translate(899.999863 0)"/>
     <use xlink:href="#STZhongsong-7ed3" transform="translate(999.999847 0)"/>
     <use xlink:href="#STZhongsong-6784" transform="translate(1099.999832 0)"/>
    </g>
   </g>
   <g id="text_5">
    <!-- 9 完整DL格网面板 -->
    <g style="fill: #111111" transform="translate(618.654 206.763397) scale(0.17 -0.17)">
     <defs>
      <path id="STZhongsong-5b8c" d="M 4851 2784 
Q 4992 2643 4992 2592 
Q 4992 2541 4890 2541 
L 1722 2541 
Q 1549 2541 1453 2496 
L 1338 2758 
Q 1472 2726 1658 2726 
L 4019 2726 
L 4288 3104 
Q 4333 3168 4377 3168 
Q 4422 3168 4483 3117 
Q 4544 3066 4755 2874 
Q 4966 3315 5062 3584 
L 1472 3584 
Q 1472 3059 1296 2816 
Q 1120 2573 890 2573 
Q 742 2573 640 2646 
Q 538 2720 538 2822 
Q 538 2925 672 3034 
Q 966 3270 1100 3516 
Q 1235 3763 1293 4141 
L 1440 4141 
Q 1453 4026 1466 3782 
L 3123 3782 
Q 3021 4192 2893 4413 
Q 2765 4634 2541 4787 
L 2579 4890 
Q 3731 4698 3731 4269 
Q 3731 4166 3638 4019 
Q 3546 3872 3334 3782 
L 5094 3782 
L 5293 4006 
Q 5338 4058 5389 4058 
Q 5440 4058 5552 3962 
Q 5664 3866 5817 3728 
Q 5971 3590 6025 3526 
Q 6080 3462 6080 3411 
Q 6080 3309 5939 3309 
L 5818 3315 
Q 5382 3315 4851 2784 
z
M 3981 1587 
L 3981 -83 
Q 3981 -320 4096 -381 
Q 4211 -442 4675 -442 
Q 5139 -442 5235 -374 
Q 5331 -307 5398 -67 
Q 5466 173 5549 870 
L 5683 870 
Q 5690 218 5744 10 
Q 5798 -198 5958 -301 
Q 6048 -358 6048 -412 
Q 6048 -467 5907 -668 
Q 5766 -870 5561 -921 
Q 5357 -973 4726 -973 
Q 4096 -973 3830 -921 
Q 3565 -870 3488 -723 
Q 3411 -576 3411 -224 
L 3411 1587 
L 2720 1587 
Q 2682 506 2467 112 
Q 2253 -282 1776 -506 
Q 1299 -730 454 -934 
L 397 -819 
Q 1440 -429 1801 3 
Q 2163 435 2150 1587 
L 832 1587 
Q 659 1587 563 1542 
L 448 1805 
Q 582 1773 768 1773 
L 4909 1773 
L 5210 2195 
Q 5254 2253 5292 2253 
Q 5331 2253 5436 2166 
Q 5542 2080 5702 1936 
Q 5862 1792 5920 1731 
Q 5978 1670 5978 1628 
Q 5978 1587 5862 1587 
L 3981 1587 
z
" transform="scale(0.015625)"/>
      <path id="STZhongsong-6574" d="M 1702 3917 
L 723 3917 
Q 557 3917 448 3885 
L 339 4134 
Q 474 4102 659 4102 
L 1702 4102 
Q 1702 4550 1683 4858 
Q 2029 4832 2198 4787 
Q 2368 4742 2368 4704 
Q 2368 4659 2176 4538 
L 2176 4102 
L 2822 4102 
L 2995 4320 
Q 3072 4416 3133 4416 
Q 3194 4416 3386 4214 
Q 3578 4013 3578 3965 
Q 3578 3917 3430 3917 
L 2176 3917 
L 2176 3475 
L 2675 3475 
L 2771 3603 
Q 2822 3667 2854 3667 
Q 2886 3667 3020 3571 
Q 3155 3475 3238 3420 
Q 3322 3366 3322 3328 
Q 3322 3290 3155 3213 
L 3155 2912 
Q 3155 2803 3168 2598 
Q 3859 3757 4038 4851 
Q 4198 4800 4454 4691 
Q 4710 4582 4710 4538 
Q 4710 4512 4601 4464 
Q 4493 4416 4441 4307 
Q 4390 4198 4122 3718 
L 5114 3718 
L 5350 4032 
Q 5427 4134 5481 4134 
Q 5536 4134 5795 3888 
Q 6054 3642 6054 3587 
Q 6054 3533 5907 3533 
L 5146 3533 
Q 5530 3379 5530 3322 
Q 5530 3296 5459 3273 
Q 5389 3251 5357 3206 
Q 5325 3162 5261 3021 
Q 5050 2560 4826 2253 
Q 5325 1990 6285 1850 
L 6259 1734 
Q 6016 1709 5885 1645 
Q 5754 1581 5626 1427 
Q 5581 1376 5542 1376 
Q 5466 1376 5101 1558 
Q 4736 1741 4525 1907 
Q 4051 1459 2970 1146 
L 2931 1261 
Q 3814 1645 4269 2163 
Q 3942 2547 3827 3251 
Q 3648 2982 3251 2477 
L 3149 2547 
Q 3014 2477 2883 2448 
Q 2752 2419 2701 2419 
Q 2682 2419 2682 2470 
L 2682 2566 
L 2176 2566 
L 2176 2304 
Q 2765 2163 2957 2041 
Q 3149 1920 3149 1753 
Q 3149 1587 3085 1494 
Q 3021 1402 2925 1402 
Q 2893 1402 2867 1427 
Q 2842 1453 2778 1542 
Q 2464 1990 2176 2170 
L 2176 1395 
Q 2176 1350 2169 1328 
Q 2163 1306 2076 1264 
Q 1990 1222 1862 1193 
Q 1734 1165 1708 1165 
Q 1683 1165 1683 1216 
L 1696 1498 
Q 1702 1645 1702 2035 
Q 1267 1549 192 992 
L 128 1094 
Q 1069 1722 1645 2566 
L 1152 2566 
L 1152 2483 
Q 1152 2438 1139 2422 
Q 1126 2406 1040 2368 
Q 954 2330 848 2304 
Q 742 2278 713 2278 
Q 685 2278 685 2317 
L 698 2771 
L 698 3219 
Q 698 3501 685 3667 
Q 934 3590 1120 3475 
L 1702 3475 
L 1702 3917 
z
M 4902 3533 
L 4006 3533 
L 3949 3437 
Q 4083 2816 4493 2470 
Q 4781 2918 4902 3533 
z
M 2176 2758 
L 2682 2758 
L 2682 3309 
L 2176 3309 
L 2176 2758 
z
M 1152 2758 
L 1702 2758 
L 1702 3309 
L 1152 3309 
L 1152 2758 
z
M 2906 851 
L 947 851 
Q 774 851 678 806 
L 550 1082 
Q 685 1050 870 1050 
L 4640 1050 
L 4832 1318 
Q 4896 1408 4944 1408 
Q 4992 1408 5257 1187 
Q 5523 966 5523 908 
Q 5523 851 5350 851 
L 3456 851 
L 3456 141 
L 4243 141 
L 4461 454 
Q 4525 550 4582 550 
Q 4640 550 4886 316 
Q 5133 83 5133 25 
Q 5133 -32 4966 -32 
L 3456 -32 
L 3456 -666 
L 4973 -666 
L 5203 -346 
Q 5274 -250 5331 -250 
Q 5389 -250 5635 -496 
Q 5882 -742 5882 -803 
Q 5882 -864 5734 -864 
L 710 -864 
Q 538 -864 442 -909 
L 326 -634 
Q 461 -666 646 -666 
L 1574 -666 
L 1574 32 
Q 1574 525 1562 634 
Q 1715 608 2009 521 
Q 2304 435 2304 380 
Q 2304 326 2080 218 
L 2080 -666 
L 2906 -666 
L 2906 851 
z
" transform="scale(0.015625)"/>
      <path id="STZhongsong-44" d="M 301 4096 
L 301 4358 
L 1862 4358 
Q 2854 4358 3296 4240 
Q 3738 4122 4077 3811 
Q 4416 3501 4601 3062 
Q 4787 2624 4787 2125 
Q 4787 1261 4230 630 
Q 3674 0 2534 0 
L 301 0 
L 301 262 
L 544 262 
Q 717 243 787 352 
Q 858 461 858 704 
L 858 3622 
Q 858 3955 762 4025 
Q 666 4096 301 4096 
z
M 1440 339 
L 2387 339 
Q 2650 339 3098 435 
Q 3546 531 3834 1004 
Q 4122 1478 4122 2170 
Q 4122 2592 3997 2934 
Q 3872 3277 3648 3513 
Q 3424 3750 3152 3868 
Q 2880 3987 2675 4000 
Q 2470 4013 2080 4013 
L 1440 4013 
L 1440 339 
z
" transform="scale(0.015625)"/>
      <path id="STZhongsong-4c" d="M 294 4358 
L 1984 4358 
L 1984 4096 
L 1830 4096 
Q 1619 4096 1523 4035 
Q 1427 3974 1427 3725 
L 1427 685 
Q 1427 429 1475 381 
Q 1523 333 1779 333 
L 2010 333 
Q 2592 333 2928 592 
Q 3264 851 3533 1459 
L 3808 1363 
L 3322 0 
L 294 0 
L 294 262 
L 429 262 
Q 678 262 761 336 
Q 845 410 845 685 
L 845 3648 
Q 845 3917 777 4006 
Q 710 4096 429 4096 
L 294 4096 
L 294 4358 
z
" transform="scale(0.015625)"/>
     </defs>
     <use xlink:href="#STZhongsong-39"/>
     <use xlink:href="#STZhongsong-20" transform="translate(61.999985 0)"/>
     <use xlink:href="#STZhongsong-5b8c" transform="translate(93.999969 0)"/>
     <use xlink:href="#STZhongsong-6574" transform="translate(193.999954 0)"/>
     <use xlink:href="#STZhongsong-44" transform="translate(293.999939 0)"/>
     <use xlink:href="#STZhongsong-4c" transform="translate(373.999924 0)"/>
     <use xlink:href="#STZhongsong-683c" transform="translate(433.999908 0)"/>
     <use xlink:href="#STZhongsong-7f51" transform="translate(533.999893 0)"/>
     <use xlink:href="#STZhongsong-9762" transform="translate(633.999878 0)"/>
     <use xlink:href="#STZhongsong-677f" transform="translate(733.999863 0)"/>
    </g>
   </g>
   <g id="text_6">
    <!-- 68,930个完整矩阵格网 × 10年 -->
    <g style="fill: #111111" transform="translate(582.294 250.708603) scale(0.15 -0.15)">
     <defs>
      <path id="STZhongsong-36" d="M 3238 4442 
L 3238 4154 
Q 2131 4141 1603 3686 
Q 1075 3232 1037 2227 
Q 1446 2893 2240 2893 
Q 2880 2893 3289 2486 
Q 3699 2080 3699 1440 
Q 3699 742 3257 332 
Q 2816 -77 2093 -77 
Q 1286 -77 848 444 
Q 410 966 410 1926 
Q 410 3046 1056 3744 
Q 1702 4442 2995 4442 
L 3238 4442 
z
M 3072 1414 
Q 3072 1933 2800 2246 
Q 2528 2560 2099 2560 
Q 1658 2560 1363 2224 
Q 1069 1888 1069 1402 
Q 1069 890 1350 550 
Q 1632 211 2074 211 
Q 2509 211 2790 544 
Q 3072 877 3072 1414 
z
" transform="scale(0.015625)"/>
      <path id="STZhongsong-33" d="M 934 3194 
L 634 3238 
Q 717 3827 1097 4131 
Q 1478 4435 2061 4435 
Q 2662 4435 3046 4124 
Q 3430 3814 3430 3360 
Q 3430 3021 3190 2761 
Q 2950 2502 2502 2374 
Q 3046 2298 3334 1974 
Q 3622 1651 3622 1222 
Q 3622 698 3155 310 
Q 2688 -77 1997 -77 
Q 1299 -77 844 275 
Q 390 627 390 960 
Q 390 1114 505 1184 
Q 621 1254 710 1254 
Q 922 1254 1043 858 
Q 1133 544 1369 377 
Q 1606 211 1952 211 
Q 2419 211 2720 512 
Q 3021 813 3021 1267 
Q 3021 1702 2717 1952 
Q 2413 2202 1862 2202 
L 1568 2202 
L 1568 2502 
L 1754 2502 
Q 2829 2502 2829 3283 
Q 2829 3629 2592 3843 
Q 2355 4058 1952 4058 
Q 1107 4058 934 3194 
z
" transform="scale(0.015625)"/>
      <path id="STZhongsong-77e9" d="M 1478 3584 
L 2208 3584 
L 2438 3917 
Q 2477 3974 2515 3974 
Q 2573 3974 2832 3747 
Q 3091 3520 3091 3459 
Q 3091 3398 2982 3398 
L 2118 3398 
Q 2099 2547 2054 2016 
L 2355 2016 
L 2586 2355 
Q 2630 2419 2672 2419 
Q 2714 2419 2883 2275 
Q 3053 2131 3155 2016 
L 3155 3962 
Q 3155 4250 3136 4531 
Q 3629 4320 3821 4198 
L 5011 4198 
L 5299 4589 
Q 5338 4646 5382 4646 
Q 5453 4646 5744 4377 
Q 6035 4109 6035 4057 
Q 6035 4006 5952 4006 
L 3661 4006 
L 3661 2816 
L 4883 2816 
L 5043 3066 
Q 5082 3123 5120 3123 
Q 5158 3123 5356 2985 
Q 5555 2848 5667 2777 
Q 5779 2707 5779 2659 
Q 5779 2611 5504 2496 
L 5504 1536 
Q 5504 1293 5510 1184 
L 5517 986 
Q 5517 928 5456 889 
Q 5395 851 5225 800 
Q 5056 749 4992 749 
Q 4941 749 4941 845 
L 4941 1082 
L 3661 1082 
L 3661 -422 
L 5037 -422 
L 5325 -32 
Q 5389 58 5440 58 
Q 5491 58 5788 -227 
Q 6086 -512 6086 -563 
Q 6086 -614 5984 -614 
L 3642 -614 
L 3514 -794 
Q 3462 -864 3430 -864 
Q 3360 -864 2874 -512 
Q 3059 -378 3107 -291 
Q 3155 -205 3155 -38 
L 3155 1824 
L 2035 1824 
Q 1984 1376 1907 1094 
Q 2381 915 2627 729 
Q 2874 544 2874 310 
Q 2874 77 2765 -70 
Q 2656 -218 2512 -218 
Q 2368 -218 2336 0 
Q 2259 493 1862 928 
Q 1702 403 1353 -9 
Q 1005 -422 346 -890 
L 262 -781 
Q 896 -218 1181 358 
Q 1466 934 1555 1824 
L 614 1824 
Q 454 1824 339 1792 
L 230 2048 
Q 365 2016 550 2016 
L 1574 2016 
Q 1626 2605 1632 3398 
L 1382 3398 
Q 1082 2797 499 2138 
L 397 2214 
Q 992 3187 1338 4922 
Q 2093 4646 2093 4582 
Q 2093 4557 1971 4525 
Q 1850 4493 1773 4275 
Q 1632 3904 1478 3584 
z
M 3661 2624 
L 3661 1280 
L 4941 1280 
L 4941 2624 
L 3661 2624 
z
" transform="scale(0.015625)"/>
      <path id="STZhongsong-9635" d="M 3347 3526 
L 2752 3526 
Q 2534 3526 2432 3488 
L 2317 3776 
Q 2451 3744 2637 3744 
L 3424 3744 
Q 3590 4224 3757 4851 
Q 4032 4768 4246 4681 
Q 4461 4595 4502 4553 
Q 4544 4512 4544 4480 
Q 4544 4403 4409 4390 
Q 4275 4378 4218 4237 
L 4013 3744 
L 5114 3744 
L 5370 4090 
Q 5446 4192 5504 4192 
Q 5562 4192 5827 3923 
Q 6093 3654 6093 3590 
Q 6093 3526 5946 3526 
L 3923 3526 
Q 3661 2899 3296 2106 
L 4038 2106 
L 4038 2502 
Q 4038 2822 4026 3072 
Q 4410 3021 4592 2963 
Q 4774 2906 4774 2867 
Q 4774 2816 4589 2707 
L 4589 2106 
L 4960 2106 
L 5197 2394 
Q 5286 2502 5350 2502 
Q 5414 2502 5638 2256 
Q 5862 2010 5862 1958 
Q 5862 1907 5709 1907 
L 4589 1907 
L 4589 826 
L 5242 826 
L 5491 1152 
Q 5568 1254 5613 1254 
Q 5690 1254 5930 1008 
Q 6170 762 6170 678 
Q 6170 627 6022 627 
L 4589 627 
L 4589 -64 
Q 4589 -320 4595 -461 
L 4608 -762 
Q 4608 -813 4553 -848 
Q 4499 -883 4310 -956 
Q 4122 -1030 4067 -1030 
Q 4013 -1030 4013 -992 
Q 4013 -954 4025 -701 
Q 4038 -448 4038 -64 
L 4038 627 
L 2707 627 
Q 2490 627 2387 589 
L 2278 845 
Q 2163 730 1961 637 
Q 1760 544 1696 544 
Q 1632 544 1603 678 
Q 1574 813 1478 902 
Q 1382 992 1184 1082 
L 1184 -723 
Q 1184 -774 1171 -790 
Q 1158 -806 1068 -851 
Q 979 -896 854 -937 
Q 730 -979 691 -979 
Q 653 -979 653 -902 
L 666 -614 
Q 672 -314 672 -51 
L 672 4026 
Q 672 4486 646 4698 
Q 1030 4563 1363 4358 
L 1786 4358 
L 1920 4589 
Q 1971 4678 2035 4678 
Q 2099 4678 2384 4483 
Q 2669 4288 2669 4240 
Q 2669 4192 2537 4166 
Q 2406 4141 2317 3962 
L 1664 2739 
Q 2202 2278 2365 2032 
Q 2528 1786 2528 1472 
Q 2528 1088 2291 864 
Q 2406 826 2592 826 
L 4038 826 
L 4038 1907 
L 3238 1907 
L 3136 1741 
Q 3091 1670 3046 1670 
Q 2925 1670 2579 2080 
Q 2752 2208 2819 2294 
Q 2886 2381 3049 2761 
Q 3213 3142 3347 3526 
z
M 1184 1222 
Q 1453 1184 1632 1184 
Q 1811 1184 1894 1277 
Q 1978 1370 1978 1632 
Q 1978 2170 1408 2707 
Q 1690 3552 1843 4173 
L 1184 4173 
L 1184 1222 
z
" transform="scale(0.015625)"/>
     </defs>
     <use xlink:href="#STZhongsong-36"/>
     <use xlink:href="#STZhongsong-38" transform="translate(61.999985 0)"/>
     <use xlink:href="#STZhongsong-2c" transform="translate(123.999969 0)"/>
     <use xlink:href="#STZhongsong-39" transform="translate(155.999954 0)"/>
     <use xlink:href="#STZhongsong-33" transform="translate(217.999939 0)"/>
     <use xlink:href="#STZhongsong-30" transform="translate(279.999924 0)"/>
     <use xlink:href="#STZhongsong-4e2a" transform="translate(341.999908 0)"/>
     <use xlink:href="#STZhongsong-5b8c" transform="translate(441.999893 0)"/>
     <use xlink:href="#STZhongsong-6574" transform="translate(541.999878 0)"/>
     <use xlink:href="#STZhongsong-77e9" transform="translate(641.999863 0)"/>
     <use xlink:href="#STZhongsong-9635" transform="translate(741.999847 0)"/>
     <use xlink:href="#STZhongsong-683c" transform="translate(841.999832 0)"/>
     <use xlink:href="#STZhongsong-7f51" transform="translate(941.999817 0)"/>
     <use xlink:href="#STZhongsong-20" transform="translate(1041.999802 0)"/>
     <use xlink:href="#STZhongsong-d7" transform="translate(1073.999786 0)"/>
     <use xlink:href="#STZhongsong-20" transform="translate(1173.999771 0)"/>
     <use xlink:href="#STZhongsong-31" transform="translate(1205.999756 0)"/>
     <use xlink:href="#STZhongsong-30" transform="translate(1267.999741 0)"/>
     <use xlink:href="#STZhongsong-5e74" transform="translate(1329.999725 0)"/>
    </g>
    <!-- 305行 × 226列 -->
    <g style="fill: #111111" transform="translate(634.344 269.694853) scale(0.15 -0.15)">
     <defs>
      <path id="STZhongsong-884c" d="M 1523 4954 
Q 1894 4806 2080 4697 
Q 2266 4589 2266 4547 
Q 2266 4506 2166 4486 
Q 2067 4467 2016 4425 
Q 1965 4384 1875 4269 
Q 1331 3533 365 2765 
L 275 2848 
Q 1062 3795 1523 4954 
z
M 4704 4179 
L 4922 4538 
Q 4979 4640 5043 4640 
Q 5107 4640 5260 4489 
Q 5414 4339 5552 4217 
Q 5690 4096 5690 4032 
Q 5690 3968 5549 3968 
L 3008 3968 
Q 2835 3968 2739 3923 
L 2624 4211 
Q 2758 4179 2944 4179 
L 4704 4179 
z
M 1171 1722 
Q 832 1376 230 896 
L 147 986 
Q 768 1696 1113 2281 
Q 1459 2867 1722 3642 
Q 2413 3296 2413 3206 
Q 2413 3162 2317 3149 
Q 2221 3136 2173 3097 
Q 2125 3059 1971 2796 
Q 1818 2534 1568 2182 
Q 1901 2080 1901 2006 
Q 1901 1933 1722 1850 
L 1722 -762 
Q 1722 -826 1674 -864 
Q 1626 -902 1434 -966 
Q 1242 -1030 1178 -1030 
Q 1146 -1030 1146 -960 
L 1165 -358 
Q 1171 -77 1171 173 
L 1171 1722 
z
M 4294 2400 
L 2624 2400 
Q 2451 2400 2355 2355 
L 2240 2643 
Q 2374 2611 2560 2611 
L 5146 2611 
L 5389 2976 
Q 5453 3072 5498 3072 
Q 5562 3072 5875 2797 
Q 6189 2522 6189 2451 
Q 6189 2400 6061 2400 
L 4896 2400 
L 4896 -269 
Q 4896 -512 4829 -611 
Q 4762 -710 4470 -864 
Q 4179 -1018 4112 -1018 
Q 4045 -1018 4019 -877 
Q 3981 -653 3811 -518 
Q 3642 -384 3168 -224 
L 3168 -83 
Q 3859 -192 4038 -192 
Q 4218 -192 4256 -157 
Q 4294 -122 4294 -32 
L 4294 2400 
z
" transform="scale(0.015625)"/>
      <path id="STZhongsong-5217" d="M 5203 4794 
Q 5440 4749 5667 4685 
Q 5894 4621 5952 4595 
Q 6010 4570 6010 4525 
Q 6010 4480 5779 4358 
L 5779 -160 
Q 5779 -512 5660 -653 
Q 5542 -794 5296 -896 
Q 5050 -998 4982 -998 
Q 4915 -998 4902 -896 
Q 4877 -717 4803 -614 
Q 4730 -512 4544 -425 
Q 4358 -339 3981 -230 
L 4013 -109 
Q 4730 -250 4906 -250 
Q 5082 -250 5149 -202 
Q 5216 -154 5216 45 
L 5216 4224 
Q 5216 4544 5203 4794 
z
M 1856 2778 
Q 1747 2560 1632 2368 
Q 1914 2125 2064 1878 
Q 2214 1632 2214 1456 
Q 2214 1280 2099 1152 
Q 1984 1024 1824 1024 
Q 1664 1024 1664 1203 
Q 1664 1261 1683 1376 
Q 1702 1491 1702 1606 
Q 1702 1914 1555 2253 
Q 1152 1600 365 838 
L 269 928 
Q 858 1696 1203 2419 
Q 1549 3142 1779 4115 
L 762 4115 
Q 595 4115 486 4083 
L 378 4346 
Q 512 4314 698 4314 
L 2938 4314 
L 3226 4646 
Q 3290 4717 3334 4717 
Q 3379 4717 3507 4608 
L 3795 4358 
Q 3955 4224 3955 4169 
Q 3955 4115 3814 4115 
L 2406 4115 
Q 2195 3482 1958 2982 
L 2688 2982 
L 2848 3200 
Q 2893 3258 2941 3258 
Q 2989 3258 3190 3152 
Q 3392 3046 3491 2988 
Q 3590 2931 3590 2883 
Q 3590 2835 3491 2787 
Q 3392 2739 3353 2681 
Q 3315 2624 3277 2458 
Q 3059 1536 2745 960 
Q 2432 384 1865 -38 
Q 1299 -461 314 -826 
L 282 -730 
Q 1427 -90 2028 764 
Q 2630 1619 2758 2778 
L 1856 2778 
z
M 3981 3898 
Q 4666 3738 4666 3629 
Q 4666 3571 4512 3514 
L 4512 1427 
L 4525 864 
Q 4525 794 4489 765 
Q 4454 736 4284 685 
Q 4115 634 4026 634 
Q 3981 634 3981 730 
L 3994 1466 
L 3994 3386 
Q 3994 3674 3981 3898 
z
" transform="scale(0.015625)"/>
     </defs>
     <use xlink:href="#STZhongsong-33"/>
     <use xlink:href="#STZhongsong-30" transform="translate(61.999985 0)"/>
     <use xlink:href="#STZhongsong-35" transform="translate(123.999969 0)"/>
     <use xlink:href="#STZhongsong-884c" transform="translate(185.999954 0)"/>
     <use xlink:href="#STZhongsong-20" transform="translate(285.999939 0)"/>
     <use xlink:href="#STZhongsong-d7" transform="translate(317.999924 0)"/>
     <use xlink:href="#STZhongsong-20" transform="translate(417.999908 0)"/>
     <use xlink:href="#STZhongsong-32" transform="translate(449.999893 0)"/>
     <use xlink:href="#STZhongsong-32" transform="translate(511.999878 0)"/>
     <use xlink:href="#STZhongsong-36" transform="translate(573.999863 0)"/>
     <use xlink:href="#STZhongsong-5217" transform="translate(635.999847 0)"/>
    </g>
   </g>
   <g id="patch_5">
    <path d="M 278.77014 229.170062 
Q 302.041138 229.170062 323.635086 229.170062 
" style="fill: none; stroke: #555555; stroke-width: 1.5; stroke-linecap: round"/>
    <path d="M 319.635086 227.170062 
L 323.635086 229.170062 
L 319.635086 231.170062 
" style="fill: none; stroke: #555555; stroke-width: 1.5; stroke-linecap: round"/>
   </g>
   <g id="patch_6">
    <path d="M 539.91414 229.170062 
Q 563.185138 229.170062 584.779086 229.170062 
" style="fill: none; stroke: #555555; stroke-width: 1.5; stroke-linecap: round"/>
    <path d="M 580.779086 227.170062 
L 584.779086 229.170062 
L 580.779086 231.170062 
" style="fill: none; stroke: #555555; stroke-width: 1.5; stroke-linecap: round"/>
   </g>
   <g id="text_7">
    <!-- 阶段一CSV数据底板关系 -->
    <g style="fill: #111111" transform="translate(300.75 24.381719) scale(0.23 -0.23)">
     <defs>
      <path id="STZhongsong-9636" d="M 4160 4147 
Q 3776 3430 3376 2982 
Q 2976 2534 2304 2061 
Q 2464 1830 2464 1488 
Q 2464 1146 2361 963 
Q 2259 781 2054 659 
Q 1850 538 1789 538 
Q 1728 538 1702 666 
Q 1658 922 1133 1094 
L 1139 1210 
Q 1357 1184 1549 1184 
Q 1741 1184 1843 1270 
Q 1946 1357 1946 1600 
Q 1946 1843 1805 2121 
Q 1664 2400 1408 2662 
L 1875 4166 
L 1082 4166 
L 1088 -698 
Q 1088 -800 851 -873 
Q 614 -947 579 -947 
Q 544 -947 544 -883 
L 557 -589 
Q 570 -275 570 -19 
L 570 4006 
Q 570 4467 544 4678 
Q 928 4518 1203 4365 
L 1875 4365 
L 2080 4614 
Q 2106 4646 2160 4646 
Q 2214 4646 2304 4566 
Q 2394 4486 2582 4339 
Q 2771 4192 2771 4150 
Q 2771 4109 2636 4067 
Q 2502 4026 2448 3978 
Q 2394 3930 2150 3546 
L 1606 2707 
Q 2035 2419 2227 2170 
Q 2803 2739 3116 3270 
Q 3430 3802 3763 4806 
Q 4480 4557 4480 4454 
Q 4480 4410 4393 4390 
Q 4307 4371 4275 4339 
Q 4890 3110 6234 2816 
L 6234 2701 
Q 5946 2675 5834 2614 
Q 5722 2554 5651 2400 
Q 5619 2336 5562 2336 
Q 5440 2336 4928 2816 
Q 4416 3296 4160 4147 
z
M 3117 2662 
Q 3827 2509 3827 2438 
Q 3827 2413 3747 2361 
Q 3667 2310 3651 2240 
Q 3635 2170 3629 2022 
Q 3565 691 3469 310 
Q 3373 -70 3149 -371 
Q 2925 -672 1952 -1107 
L 1894 -998 
Q 2381 -627 2608 -358 
Q 2835 -90 2934 265 
Q 3034 621 3072 1008 
Q 3110 1395 3117 2662 
z
M 4371 2592 
Q 4762 2515 4922 2454 
Q 5082 2394 5082 2362 
Q 5082 2323 4928 2221 
L 4928 -179 
Q 4928 -422 4937 -595 
Q 4947 -768 4947 -787 
Q 4947 -883 4729 -976 
Q 4512 -1069 4403 -1069 
Q 4365 -1069 4365 -992 
L 4378 -698 
Q 4384 -397 4384 -147 
L 4384 2022 
Q 4384 2342 4371 2592 
z
" transform="scale(0.015625)"/>
      <path id="STZhongsong-6bb5" d="M 1542 954 
L 3206 1197 
L 3232 1043 
L 1542 538 
L 1542 -787 
Q 1542 -851 1520 -873 
Q 1498 -896 1283 -966 
Q 1069 -1037 986 -1037 
Q 954 -1037 954 -986 
L 966 -685 
Q 979 -378 979 -109 
L 979 365 
Q 723 282 646 214 
Q 570 147 541 147 
Q 512 147 493 179 
Q 474 211 378 432 
Q 282 653 224 813 
Q 499 813 979 870 
L 979 3904 
Q 979 4224 966 4474 
Q 1286 4346 1581 4160 
Q 2106 4410 2662 4832 
Q 3149 4371 3149 4262 
Q 3149 4218 3107 4218 
Q 3066 4218 3008 4240 
Q 2950 4262 2883 4262 
Q 2816 4262 2496 4169 
Q 2176 4077 1542 3942 
L 1542 3200 
L 2208 3200 
L 2400 3501 
Q 2432 3558 2470 3558 
Q 2522 3558 2784 3321 
Q 3046 3085 3046 3037 
Q 3046 2989 2931 2989 
L 1542 2989 
L 1542 2106 
L 2054 2106 
L 2259 2419 
Q 2298 2483 2342 2483 
Q 2387 2483 2627 2249 
Q 2867 2016 2867 1955 
Q 2867 1894 2752 1894 
L 1542 1894 
L 1542 954 
z
M 3827 4173 
Q 3814 3322 3625 2912 
Q 3437 2502 2938 2138 
L 2842 2246 
Q 3117 2573 3203 2861 
Q 3290 3149 3290 3821 
Q 3290 4493 3270 4666 
Q 3501 4582 3853 4371 
L 4480 4371 
L 4614 4595 
Q 4653 4666 4704 4666 
Q 4755 4666 5020 4496 
Q 5286 4326 5286 4275 
Q 5286 4224 5024 4115 
L 5024 3098 
Q 5024 2982 5072 2937 
Q 5120 2893 5350 2893 
Q 5581 2893 5715 3085 
Q 5747 3136 5779 3136 
Q 5811 3136 5849 3091 
Q 5888 3046 6000 2921 
Q 6112 2797 6173 2720 
Q 6234 2643 6234 2598 
Q 6234 2470 5965 2448 
Q 5696 2426 5293 2426 
Q 4890 2426 4762 2435 
Q 4634 2445 4563 2512 
Q 4493 2579 4493 2714 
L 4493 4173 
L 3827 4173 
z
M 4051 -51 
Q 3238 -698 1958 -1056 
L 1907 -928 
Q 3194 -326 3802 269 
Q 3450 806 3219 1875 
Q 3110 1862 3066 1837 
L 2950 2106 
Q 3098 2080 3270 2080 
L 4710 2080 
L 4851 2278 
Q 4890 2336 4941 2336 
Q 4992 2336 5299 2144 
Q 5606 1952 5606 1897 
Q 5606 1843 5421 1792 
Q 5299 1760 5229 1568 
Q 4966 851 4448 307 
Q 5178 -301 6240 -480 
L 6240 -627 
Q 6138 -608 5965 -608 
Q 5792 -608 5609 -694 
Q 5427 -781 5357 -922 
Q 5331 -973 5280 -973 
Q 5171 -973 4710 -627 
Q 4250 -282 4051 -51 
z
M 4122 621 
Q 4531 1139 4710 1882 
L 3373 1882 
Q 3661 1146 4122 621 
z
" transform="scale(0.015625)"/>
      <path id="STZhongsong-4e00" d="M 4832 2099 
L 5197 2586 
Q 5274 2688 5331 2688 
Q 5389 2688 5728 2358 
Q 6067 2029 6067 1958 
Q 6067 1888 5914 1888 
L 582 1888 
Q 410 1888 314 1843 
L 186 2131 
Q 320 2099 506 2099 
L 4832 2099 
z
" transform="scale(0.015625)"/>
      <path id="STZhongsong-43" d="M 3776 4358 
L 4000 4358 
L 4397 2906 
L 4109 2822 
Q 3853 3469 3494 3785 
Q 3136 4102 2592 4102 
Q 1920 4102 1472 3571 
Q 1024 3040 1024 2227 
Q 1024 1382 1501 844 
Q 1978 307 2669 307 
Q 3085 307 3517 544 
Q 3949 781 4275 1210 
L 4525 1043 
Q 4154 493 3638 208 
Q 3123 -77 2522 -77 
Q 1600 -77 973 569 
Q 346 1216 346 2163 
Q 346 2771 640 3299 
Q 934 3827 1446 4131 
Q 1958 4435 2541 4435 
Q 3155 4435 3674 4070 
L 3776 4358 
z
" transform="scale(0.015625)"/>
      <path id="STZhongsong-53" d="M 3238 4358 
L 3462 4358 
L 3795 3014 
L 3507 2931 
Q 3238 3488 2828 3789 
Q 2419 4090 1946 4090 
Q 1542 4090 1280 3894 
Q 1018 3699 1018 3418 
Q 1018 3162 1232 2986 
Q 1446 2810 1920 2669 
L 2733 2432 
Q 3354 2253 3654 1955 
Q 3955 1658 3955 1222 
Q 3955 691 3488 307 
Q 3021 -77 2323 -77 
Q 1920 -77 1625 44 
Q 1331 166 1024 416 
L 883 0 
L 666 0 
L 371 1568 
L 666 1626 
Q 896 986 1353 630 
Q 1811 275 2323 275 
Q 2746 275 3069 515 
Q 3392 755 3392 1082 
Q 3392 1389 3168 1568 
Q 2944 1747 2451 1888 
L 1670 2112 
Q 1062 2285 768 2573 
Q 474 2861 474 3283 
Q 474 3750 902 4092 
Q 1331 4435 1984 4435 
Q 2656 4435 3104 4058 
L 3238 4358 
z
" transform="scale(0.015625)"/>
      <path id="STZhongsong-56" d="M 6 4358 
L 1600 4358 
L 1600 4096 
L 1472 4096 
Q 1280 4096 1209 4057 
Q 1139 4019 1139 3930 
Q 1139 3840 1197 3680 
L 2355 589 
L 3520 3680 
Q 3584 3827 3584 3917 
Q 3584 4013 3510 4054 
Q 3437 4096 3264 4096 
L 3123 4096 
L 3123 4358 
L 4474 4358 
L 4474 4096 
Q 4237 4096 4134 4013 
Q 4032 3930 3936 3680 
L 2451 -77 
L 2010 -77 
L 544 3680 
Q 442 3930 342 4013 
Q 243 4096 6 4096 
L 6 4358 
z
" transform="scale(0.015625)"/>
      <path id="STZhongsong-636e" d="M 1261 3085 
L 582 3085 
Q 422 3085 307 3053 
L 198 3302 
Q 333 3270 518 3270 
L 1261 3270 
L 1261 4109 
Q 1261 4480 1248 4800 
Q 1619 4698 1811 4618 
Q 2003 4538 2003 4502 
Q 2003 4467 1779 4378 
L 1779 3270 
L 1882 3270 
L 2080 3558 
Q 2125 3622 2173 3622 
Q 2221 3622 2256 3590 
Q 2291 3558 2441 3408 
Q 2592 3258 2624 3219 
Q 2656 3181 2656 3149 
Q 2656 3085 2547 3085 
L 1779 3085 
L 1779 2234 
L 2554 2605 
L 2605 2483 
L 1779 1901 
L 1779 -282 
Q 1779 -422 1708 -521 
Q 1638 -621 1404 -761 
Q 1171 -902 1114 -902 
Q 1069 -902 1043 -813 
Q 992 -627 861 -531 
Q 730 -435 358 -333 
L 397 -218 
Q 806 -262 985 -262 
Q 1165 -262 1213 -217 
Q 1261 -173 1261 -45 
L 1261 1530 
Q 851 1235 771 1136 
Q 691 1037 643 1037 
Q 595 1037 576 1062 
L 416 1274 
Q 282 1446 192 1581 
Q 800 1773 1261 1990 
L 1261 3085 
z
M 3302 4378 
L 4902 4378 
L 5069 4621 
Q 5120 4704 5171 4704 
Q 5210 4704 5482 4515 
Q 5754 4326 5754 4282 
Q 5754 4224 5517 4109 
L 5517 3373 
Q 5517 3219 5526 3158 
Q 5536 3098 5536 3062 
Q 5536 3027 5475 2985 
Q 5414 2944 5248 2877 
Q 5082 2810 5027 2810 
Q 4973 2810 4973 2906 
L 4973 3136 
L 3226 3136 
Q 3187 2291 3174 2099 
L 4096 2099 
L 4096 2598 
Q 4096 2810 4077 3066 
Q 4755 2963 4755 2880 
Q 4755 2835 4595 2746 
L 4595 2099 
L 5286 2099 
L 5530 2426 
Q 5581 2496 5606 2496 
Q 5651 2496 5923 2243 
Q 6195 1990 6195 1948 
Q 6195 1907 6048 1907 
L 4595 1907 
L 4595 947 
L 4947 947 
L 5062 1165 
Q 5107 1254 5155 1254 
Q 5203 1254 5459 1084 
Q 5715 915 5715 870 
Q 5715 826 5549 749 
L 5549 -346 
L 5562 -640 
Q 5562 -691 5504 -736 
Q 5446 -781 5283 -848 
Q 5120 -915 5065 -915 
Q 5011 -915 5011 -826 
L 5011 -435 
L 3712 -435 
L 3712 -755 
Q 3712 -851 3673 -880 
Q 3635 -909 3475 -963 
Q 3315 -1018 3245 -1018 
Q 3206 -1018 3213 -934 
Q 3238 -723 3238 -480 
L 3238 634 
Q 3238 902 3219 1178 
Q 3494 1094 3763 947 
L 4096 947 
L 4096 1907 
L 3162 1907 
Q 3098 864 2794 288 
Q 2490 -288 1715 -998 
L 1626 -922 
Q 2426 -19 2570 925 
Q 2714 1869 2714 3232 
Q 2714 3827 2682 4646 
Q 3066 4518 3302 4378 
z
M 4973 3315 
L 4973 4186 
L 3258 4186 
Q 3258 3981 3232 3315 
L 4973 3315 
z
M 5011 -262 
L 5011 762 
L 3712 762 
L 3712 -262 
L 5011 -262 
z
" transform="scale(0.015625)"/>
      <path id="STZhongsong-5e95" d="M 3386 4045 
Q 3187 4486 2835 4800 
L 2880 4915 
Q 3302 4851 3587 4748 
Q 3872 4646 3872 4461 
Q 3872 4352 3805 4233 
Q 3738 4115 3616 4045 
L 4845 4045 
L 5120 4422 
Q 5171 4493 5241 4493 
Q 5312 4493 5398 4429 
Q 5485 4365 5629 4230 
Q 5773 4096 5840 4019 
Q 5907 3942 5907 3897 
Q 5907 3853 5766 3853 
L 1651 3853 
Q 1613 2394 1555 1616 
Q 1498 838 1258 249 
Q 1018 -339 371 -1050 
L 288 -986 
Q 800 -70 928 771 
Q 1056 1613 1056 3085 
Q 1056 3738 1030 4346 
Q 1338 4243 1702 4045 
L 3386 4045 
z
M 3629 1670 
L 2598 1670 
L 2598 154 
Q 2925 378 3526 755 
L 3629 659 
Q 2528 -486 2394 -723 
Q 2342 -819 2291 -819 
Q 2195 -819 1862 -314 
Q 2080 -64 2080 186 
L 2080 2566 
Q 2080 2989 2061 3277 
Q 2528 3142 2765 3014 
Q 3878 3206 4858 3616 
Q 5056 3424 5203 3248 
Q 5350 3072 5350 3027 
Q 5350 2982 5292 2982 
Q 5235 2982 5158 3008 
Q 5082 3034 4986 3034 
Q 4890 3034 4614 3002 
L 3974 2918 
Q 4006 2304 4096 1862 
L 4902 1862 
L 5126 2182 
Q 5197 2278 5280 2278 
Q 5363 2278 5625 2038 
Q 5888 1798 5888 1734 
Q 5888 1670 5754 1670 
L 4134 1670 
Q 4262 1152 4473 790 
Q 4685 429 4976 179 
Q 5267 -70 5334 -70 
Q 5402 -70 5450 6 
Q 5498 83 5610 419 
Q 5722 755 5798 1030 
L 5933 1011 
Q 5856 448 5856 13 
Q 5856 -422 6048 -723 
Q 6099 -806 6099 -858 
Q 6099 -947 5933 -947 
Q 5606 -947 5097 -649 
Q 4589 -352 4205 211 
Q 3821 774 3629 1670 
z
M 2598 1862 
L 3590 1862 
Q 3514 2310 3475 2854 
Q 2925 2790 2598 2784 
L 2598 1862 
z
M 3309 173 
Q 3757 19 4000 -141 
Q 4243 -301 4243 -473 
Q 4243 -646 4105 -822 
Q 3968 -998 3853 -998 
Q 3789 -998 3763 -953 
Q 3738 -909 3696 -742 
Q 3654 -576 3558 -390 
Q 3462 -205 3245 64 
L 3309 173 
z
" transform="scale(0.015625)"/>
      <path id="STZhongsong-5173" d="M 3251 3213 
Q 3725 4070 3987 4922 
Q 4250 4806 4445 4697 
Q 4640 4589 4681 4557 
Q 4723 4525 4723 4496 
Q 4723 4467 4592 4425 
Q 4461 4384 4358 4237 
Q 4058 3808 3526 3213 
L 4448 3213 
L 4723 3648 
Q 4774 3731 4806 3731 
Q 4870 3731 5116 3529 
Q 5363 3328 5465 3235 
Q 5568 3142 5568 3078 
Q 5568 3014 5408 3014 
L 3328 3014 
Q 3309 2368 3251 1869 
L 4896 1869 
L 5190 2291 
Q 5248 2374 5293 2374 
Q 5389 2374 5670 2112 
Q 5952 1850 5952 1763 
Q 5952 1677 5798 1677 
L 3488 1677 
Q 3795 800 4403 317 
Q 5011 -166 6067 -365 
L 6067 -506 
Q 5690 -493 5517 -569 
Q 5344 -646 5210 -838 
Q 5178 -883 5139 -883 
Q 5056 -883 4630 -569 
Q 4205 -256 3894 243 
Q 3584 742 3302 1677 
L 3226 1677 
Q 3078 646 2508 83 
Q 1939 -480 461 -1005 
L 397 -877 
Q 1504 -333 2009 236 
Q 2515 806 2637 1677 
L 838 1677 
Q 666 1677 570 1632 
L 454 1901 
Q 589 1869 774 1869 
L 2656 1869 
Q 2694 2202 2694 2506 
Q 2694 2810 2688 3014 
L 1069 3014 
Q 896 3014 800 2970 
L 685 3245 
Q 819 3213 1005 3213 
L 3251 3213 
z
M 1485 4762 
Q 1984 4512 2224 4352 
Q 2464 4192 2541 4073 
Q 2618 3955 2618 3763 
Q 2618 3571 2509 3427 
Q 2400 3283 2317 3283 
Q 2234 3283 2208 3318 
Q 2182 3354 2089 3626 
Q 1997 3898 1849 4112 
Q 1702 4326 1408 4659 
L 1485 4762 
z
" transform="scale(0.015625)"/>
      <path id="STZhongsong-7cfb" d="M 3034 3994 
Q 1190 3917 742 3923 
L 730 4045 
Q 3610 4339 5082 4710 
Q 5587 4218 5587 4096 
Q 5587 4051 5539 4051 
Q 5491 4051 5392 4076 
Q 5293 4102 5088 4102 
L 3270 4006 
Q 3731 3744 3731 3667 
Q 3731 3622 3616 3609 
Q 3501 3597 3366 3514 
L 2208 2848 
L 3923 2931 
Q 4186 3123 4544 3437 
Q 5203 3046 5203 2950 
Q 5203 2912 5101 2893 
Q 4883 2861 4627 2720 
Q 3622 2170 2042 1459 
L 4621 1498 
Q 4371 1715 3866 2003 
L 3910 2118 
Q 4742 1901 5158 1696 
Q 5574 1491 5574 1146 
Q 5574 979 5523 873 
Q 5472 768 5376 768 
Q 5280 768 5190 883 
Q 4979 1165 4787 1344 
L 3622 1229 
L 3622 -237 
Q 3622 -499 3596 -624 
Q 3571 -749 3478 -835 
Q 3386 -922 3155 -1011 
Q 2925 -1101 2870 -1101 
Q 2816 -1101 2797 -998 
Q 2771 -806 2620 -688 
Q 2470 -570 2054 -422 
L 2074 -314 
Q 2650 -403 2819 -403 
Q 2989 -403 3027 -342 
Q 3066 -282 3066 -109 
L 3066 1171 
Q 1510 1005 1325 947 
Q 1261 928 1225 928 
Q 1190 928 1174 953 
Q 1158 979 1116 1148 
Q 1075 1318 1056 1517 
Q 1453 1542 1622 1580 
Q 1792 1619 1965 1699 
Q 2138 1779 2630 2070 
Q 3123 2362 3603 2701 
Q 3027 2630 1581 2336 
Q 1555 2330 1520 2330 
Q 1485 2330 1462 2352 
Q 1440 2374 1395 2515 
Q 1350 2656 1312 2842 
Q 1645 2867 1885 2969 
Q 2125 3072 2473 3405 
Q 2822 3738 3034 3994 
z
M 2086 858 
Q 2278 768 2457 662 
Q 2637 557 2669 528 
Q 2701 499 2701 480 
Q 2701 435 2592 429 
Q 2541 429 2317 262 
Q 1581 -275 422 -845 
L 346 -736 
Q 1536 122 2086 858 
z
M 3923 781 
Q 4666 557 5050 377 
Q 5434 198 5562 41 
Q 5690 -115 5690 -310 
Q 5690 -506 5616 -634 
Q 5542 -762 5468 -762 
Q 5395 -762 5340 -714 
Q 5286 -666 5184 -506 
Q 4755 141 3866 678 
L 3923 781 
z
" transform="scale(0.015625)"/>
     </defs>
     <use xlink:href="#STZhongsong-9636"/>
     <use xlink:href="#STZhongsong-6bb5" transform="translate(99.999985 0)"/>
     <use xlink:href="#STZhongsong-4e00" transform="translate(199.999969 0)"/>
     <use xlink:href="#STZhongsong-43" transform="translate(299.999954 0)"/>
     <use xlink:href="#STZhongsong-53" transform="translate(373.999939 0)"/>
     <use xlink:href="#STZhongsong-56" transform="translate(439.999924 0)"/>
     <use xlink:href="#STZhongsong-6570" transform="translate(509.999908 0)"/>
     <use xlink:href="#STZhongsong-636e" transform="translate(609.999893 0)"/>
     <use xlink:href="#STZhongsong-5e95" transform="translate(709.999878 0)"/>
     <use xlink:href="#STZhongsong-677f" transform="translate(809.999863 0)"/>
     <use xlink:href="#STZhongsong-5173" transform="translate(909.999847 0)"/>
     <use xlink:href="#STZhongsong-7cfb" transform="translate(1009.999832 0)"/>
    </g>
   </g>
  </g>
 </g>
 <defs>
  <clipPath id="p16a8e0fabd">
   <rect x="7.2" y="32.381719" width="842.4" height="414.29125"/>
  </clipPath>
 </defs>
</svg>
