<?xml version="1.0" encoding="utf-8" standalone="no"?>
<!DOCTYPE svg PUBLIC "-//W3C//DTD SVG 1.1//EN"
  "http://www.w3.org/Graphics/SVG/1.1/DTD/svg11.dtd">
<svg xmlns:xlink="http://www.w3.org/1999/xlink" width="784.467187pt" height="439.06875pt" viewBox="0 0 784.467187 439.06875" xmlns="http://www.w3.org/2000/svg" version="1.1">
 <metadata>
  <rdf:RDF xmlns:dc="http://purl.org/dc/elements/1.1/" xmlns:cc="http://creativecommons.org/ns#" xmlns:rdf="http://www.w3.org/1999/02/22-rdf-syntax-ns#">
   <cc:Work>
    <dc:type rdf:resource="http://purl.org/dc/dcmitype/StillImage"/>
    <dc:date>2026-06-06T01:20:53.349087</dc:date>
    <dc:format>image/svg+xml</dc:format>
    <dc:creator>
     <cc:Agent>
      <dc:title>Matplotlib v3.10.0, https://matplotlib.org/</dc:title>
     </cc:Agent>
    </dc:creator>
   </cc:Work>
  </rdf:RDF>
 </metadata>
 <defs>
  <style type="text/css">*{stroke-linejoin: round; stroke-linecap: butt}</style>
 </defs>
 <g id="figure_1">
  <g id="patch_1">
   <path d="M 0 439.06875 
L 784.467187 439.06875 
L 784.467187 0 
L 0 0 
z
" style="fill: #ffffff"/>
  </g>
  <g id="axes_1">
   <g id="patch_2">
    <path d="M 90.080938 410.588281 
L 777.267187 410.588281 
L 777.267187 38.927031 
L 90.080938 38.927031 
z
" style="fill: #ffffff"/>
   </g>
   <g id="patch_3">
    <path d="M 121.316676 410.588281 
L 256.059078 410.588281 
L 256.059078 365.123893 
L 121.316676 365.123893 
z
" clip-path="url(#p9ac77fe8d6)" style="fill: #5f8db3"/>
   </g>
   <g id="patch_4">
    <path d="M 366.302862 410.588281 
L 501.045263 410.588281 
L 501.045263 274.626467 
L 366.302862 274.626467 
z
" clip-path="url(#p9ac77fe8d6)" style="fill: #78a878"/>
   </g>
   <g id="patch_5">
    <path d="M 611.289047 410.588281 
L 746.031449 410.588281 
L 746.031449 95.62112 
L 611.289047 95.62112 
z
" clip-path="url(#p9ac77fe8d6)" style="fill: #c49a52"/>
   </g>
   <g id="matplotlib.axis_1">
    <g id="xtick_1">
     <g id="line2d_1">
      <defs>
       <path id="mcb4cfc10a2" d="M 0 0 
L 0 3.5 
" style="stroke: #111111; stroke-width: 0.8"/>
      </defs>
      <g>
       <use xlink:href="#mcb4cfc10a2" x="188.687877" y="410.588281" style="fill: #111111; stroke: #111111; stroke-width: 0.8"/>
      </g>
     </g>
     <g id="text_1">
      <!-- 企业年度点位表 -->
      <g style="fill: #111111" transform="translate(136.187877 428.86875) scale(0.15 -0.15)">
       <defs>
        <path id="STZhongsong-4f01" d="M 3232 4314 
Q 3174 4243 3130 4160 
Q 2726 3469 2377 3046 
Q 2029 2624 1542 2272 
Q 1056 1920 218 1459 
L 154 1562 
Q 1139 2291 1696 2979 
Q 2253 3667 2771 4832 
Q 3482 4576 3482 4506 
Q 3482 4467 3341 4410 
Q 4179 3034 6259 2554 
L 6246 2432 
Q 5946 2432 5786 2371 
Q 5626 2310 5472 2112 
Q 5427 2061 5389 2061 
Q 5318 2061 4774 2432 
Q 4230 2803 3852 3251 
Q 3475 3699 3232 4314 
z
M 3558 1414 
L 4179 1414 
L 4429 1754 
Q 4486 1830 4557 1830 
Q 4614 1830 4761 1721 
Q 4909 1613 5056 1472 
Q 5203 1331 5203 1286 
Q 5203 1216 5062 1216 
L 3558 1216 
L 3558 -461 
L 4870 -461 
L 5171 -45 
Q 5235 45 5280 45 
Q 5344 45 5696 -240 
Q 6048 -525 6048 -598 
Q 6048 -672 5933 -672 
L 723 -672 
Q 550 -672 454 -717 
L 339 -429 
Q 474 -461 659 -461 
L 1466 -461 
L 1466 1370 
Q 1466 1690 1453 1939 
Q 1971 1805 2076 1763 
Q 2182 1722 2182 1677 
Q 2182 1632 2016 1549 
L 2016 -461 
L 3034 -461 
L 3034 2413 
Q 3034 2733 3021 2982 
Q 3360 2899 3568 2816 
Q 3776 2733 3776 2682 
Q 3776 2611 3558 2502 
L 3558 1414 
z
" transform="scale(0.015625)"/>
        <path id="STZhongsong-4e1a" d="M 3552 -422 
L 3552 4154 
Q 3552 4646 3539 4755 
Q 3821 4698 4096 4608 
Q 4371 4518 4371 4448 
Q 4371 4378 4096 4243 
L 4096 768 
Q 4659 1626 5158 3341 
Q 5747 3053 5843 2989 
Q 5939 2925 5939 2873 
Q 5939 2822 5818 2810 
Q 5766 2803 5731 2771 
Q 5696 2739 5619 2618 
Q 4813 1210 4096 442 
L 4096 -422 
L 5056 -422 
L 5370 -26 
Q 5440 58 5485 58 
Q 5530 58 5616 -16 
Q 5702 -90 5862 -240 
Q 6022 -390 6092 -476 
Q 6163 -563 6163 -608 
Q 6163 -653 6048 -653 
L 640 -653 
Q 499 -653 416 -685 
L 282 -390 
Q 384 -422 538 -422 
L 2278 -422 
L 2278 4115 
Q 2278 4608 2266 4717 
Q 2886 4576 3001 4531 
Q 3117 4486 3117 4422 
Q 3117 4358 2822 4256 
L 2822 -422 
L 3552 -422 
z
M 787 3181 
Q 1357 2458 1645 2000 
Q 1933 1542 1933 1273 
Q 1933 1005 1757 758 
Q 1581 512 1434 512 
Q 1363 512 1340 557 
Q 1318 602 1318 781 
Q 1318 1754 698 3104 
L 787 3181 
z
" transform="scale(0.015625)"/>
        <path id="STZhongsong-5e74" d="M 1939 3827 
L 4794 3827 
L 5082 4237 
Q 5133 4314 5171 4314 
Q 5210 4314 5328 4224 
Q 5446 4134 5612 3993 
Q 5779 3853 5840 3789 
Q 5901 3725 5901 3686 
Q 5901 3616 5811 3616 
L 3744 3616 
L 3744 2496 
L 4474 2496 
L 4736 2874 
Q 4787 2938 4822 2938 
Q 4858 2938 4970 2858 
Q 5082 2778 5232 2643 
Q 5382 2509 5414 2461 
Q 5446 2413 5446 2368 
Q 5446 2272 5350 2272 
L 3744 2272 
L 3744 1043 
L 5254 1043 
L 5542 1427 
Q 5587 1485 5654 1485 
Q 5722 1485 6013 1213 
Q 6304 941 6304 883 
Q 6304 826 6195 826 
L 3744 826 
Q 3744 19 3750 -294 
L 3763 -864 
Q 3763 -909 3731 -941 
Q 3699 -973 3475 -1056 
Q 3251 -1139 3203 -1139 
Q 3155 -1139 3155 -1037 
L 3168 -390 
Q 3174 -38 3174 826 
L 653 826 
Q 480 826 384 781 
L 269 1075 
Q 403 1043 589 1043 
L 1498 1043 
L 1498 2170 
Q 1498 2643 1485 2739 
Q 1856 2630 2138 2496 
L 3174 2496 
L 3174 3616 
L 1798 3616 
Q 1440 3046 1136 2713 
Q 832 2381 339 1984 
L 243 2086 
Q 1261 3174 1741 4909 
Q 2259 4704 2400 4611 
Q 2541 4518 2541 4457 
Q 2541 4397 2435 4384 
Q 2330 4371 2253 4288 
Q 2176 4205 1939 3827 
z
M 3174 2272 
L 2054 2272 
L 2054 1043 
L 3174 1043 
L 3174 2272 
z
" transform="scale(0.015625)"/>
        <path id="STZhongsong-5ea6" d="M 3296 3987 
Q 3219 4301 3120 4473 
Q 3021 4646 2810 4832 
L 2854 4915 
Q 3878 4736 3878 4365 
Q 3878 4269 3814 4166 
Q 3750 4064 3610 3987 
L 5075 3987 
L 5376 4346 
Q 5427 4410 5466 4410 
Q 5536 4410 5808 4163 
Q 6080 3917 6080 3859 
Q 6080 3802 5965 3802 
L 1754 3802 
Q 1754 3488 1741 2931 
L 2656 2931 
L 2656 3277 
Q 2656 3488 2637 3744 
Q 3059 3648 3200 3600 
Q 3341 3552 3341 3507 
Q 3341 3456 3174 3360 
L 3174 2931 
L 4179 2931 
L 4179 3270 
Q 4179 3482 4160 3738 
Q 4653 3629 4765 3581 
Q 4877 3533 4877 3501 
Q 4877 3450 4710 3354 
L 4710 2931 
L 5094 2931 
L 5363 3309 
Q 5402 3360 5434 3360 
Q 5498 3360 5750 3107 
Q 6003 2854 6003 2803 
Q 6003 2752 5888 2752 
L 4710 2752 
L 4710 2355 
Q 4710 2067 4717 1946 
L 4730 1747 
Q 4730 1702 4678 1673 
Q 4627 1645 4457 1590 
Q 4288 1536 4218 1536 
Q 4179 1536 4179 1600 
L 4179 1888 
L 3174 1888 
L 3174 1722 
Q 3174 1677 3164 1648 
Q 3155 1619 2934 1552 
Q 2714 1485 2672 1485 
Q 2630 1485 2630 1530 
L 2643 1754 
Q 2656 1920 2656 2150 
L 2656 2752 
L 1734 2752 
Q 1696 1491 1606 963 
Q 1517 435 1238 -51 
Q 960 -538 358 -1082 
L 275 -1005 
Q 832 -262 1011 477 
Q 1190 1216 1190 2477 
Q 1190 3738 1158 4320 
Q 1510 4198 1843 3987 
L 3296 3987 
z
M 4179 2752 
L 3174 2752 
L 3174 2074 
L 4179 2074 
L 4179 2752 
z
M 3674 -250 
Q 2842 -806 1139 -1069 
L 1139 -941 
Q 2432 -627 3354 19 
Q 2944 422 2669 1133 
L 2387 1133 
Q 2214 1133 2118 1088 
L 2003 1350 
Q 2138 1318 2323 1318 
L 4467 1318 
L 4602 1472 
Q 4653 1530 4697 1530 
Q 4742 1530 5024 1331 
Q 5306 1133 5306 1078 
Q 5306 1024 5206 1017 
Q 5107 1011 5062 995 
Q 5018 979 4954 902 
Q 4506 403 4090 51 
Q 4858 -294 6227 -416 
L 6182 -557 
Q 5894 -557 5721 -643 
Q 5549 -730 5459 -922 
Q 5427 -992 5376 -992 
Q 5280 -992 4681 -768 
Q 4083 -544 3674 -250 
z
M 3686 269 
Q 4166 685 4403 1133 
L 2848 1133 
Q 3187 602 3686 269 
z
" transform="scale(0.015625)"/>
        <path id="STZhongsong-70b9" d="M 2835 2682 
L 2835 4211 
Q 2835 4704 2822 4813 
Q 3091 4755 3331 4684 
Q 3571 4614 3616 4588 
Q 3661 4563 3661 4531 
Q 3661 4461 3424 4339 
L 3424 3616 
L 4902 3616 
L 5133 3949 
Q 5210 4058 5261 4058 
Q 5312 4058 5606 3792 
Q 5901 3526 5901 3456 
Q 5901 3418 5786 3418 
L 3424 3418 
L 3424 2682 
L 4416 2682 
L 4563 2893 
Q 4602 2938 4659 2938 
Q 4717 2938 5024 2752 
Q 5331 2566 5331 2508 
Q 5331 2451 5056 2336 
L 5056 1299 
Q 5056 1165 5062 1069 
L 5075 909 
Q 5075 870 5046 844 
Q 5018 819 4800 755 
Q 4582 691 4512 691 
Q 4474 691 4474 755 
L 4474 1050 
L 1952 1050 
L 1952 858 
Q 1952 800 1939 781 
Q 1926 762 1804 710 
Q 1683 659 1548 627 
Q 1414 595 1392 595 
Q 1370 595 1370 646 
L 1376 870 
Q 1382 973 1382 1088 
L 1382 2419 
Q 1382 2688 1363 2963 
Q 1766 2842 2035 2682 
L 2835 2682 
z
M 4474 1267 
L 4474 2483 
L 1952 2483 
L 1952 1267 
L 4474 1267 
z
M 3443 704 
Q 4282 179 4282 -262 
Q 4282 -429 4173 -627 
Q 4064 -826 3853 -826 
Q 3757 -826 3718 -518 
Q 3648 26 3341 621 
L 3443 704 
z
M 2234 640 
Q 2586 307 2758 83 
Q 2931 -141 2931 -320 
Q 2931 -499 2803 -681 
Q 2675 -864 2451 -864 
Q 2394 -864 2374 -806 
Q 2355 -749 2345 -438 
Q 2336 -128 2281 93 
Q 2227 314 2112 563 
L 2234 640 
z
M 4678 608 
Q 5382 224 5625 3 
Q 5869 -218 5869 -438 
Q 5869 -659 5773 -832 
Q 5677 -1005 5517 -1005 
Q 5434 -1005 5386 -950 
Q 5338 -896 5235 -566 
Q 5133 -237 4979 12 
Q 4826 262 4602 480 
L 4678 608 
z
M 1363 557 
Q 1402 -416 1149 -681 
Q 896 -947 653 -947 
Q 506 -947 413 -864 
Q 320 -781 320 -678 
Q 320 -582 563 -403 
Q 1069 -26 1216 608 
L 1363 557 
z
" transform="scale(0.015625)"/>
        <path id="STZhongsong-4f4d" d="M 3405 4954 
Q 3930 4742 4198 4531 
Q 4467 4320 4467 4105 
Q 4467 3891 4342 3753 
Q 4218 3616 4122 3616 
Q 4077 3616 4048 3657 
Q 4019 3699 3980 3849 
Q 3942 4000 3744 4320 
Q 3546 4640 3328 4877 
L 3405 4954 
z
M 1248 2611 
Q 768 1946 237 1434 
L 166 1523 
Q 1267 2938 1818 4890 
Q 2554 4480 2554 4378 
Q 2554 4326 2419 4307 
Q 2323 4294 2243 4188 
Q 2163 4083 1971 3744 
Q 1779 3405 1581 3104 
Q 1965 3002 1965 2944 
Q 1965 2886 1792 2810 
L 1792 -698 
Q 1792 -762 1734 -806 
Q 1677 -851 1494 -924 
Q 1312 -998 1248 -998 
Q 1216 -998 1216 -934 
L 1229 -525 
Q 1248 -64 1248 224 
L 1248 2611 
z
M 5120 3456 
L 5389 3898 
Q 5427 3962 5466 3962 
Q 5530 3962 5840 3677 
Q 6150 3392 6150 3322 
Q 6150 3277 5984 3277 
L 2579 3277 
Q 2406 3277 2310 3232 
L 2195 3488 
Q 2330 3456 2515 3456 
L 5120 3456 
z
M 4333 -339 
L 5190 -339 
L 5408 70 
Q 5478 205 5545 205 
Q 5613 205 5677 157 
Q 5741 109 5945 -96 
Q 6150 -301 6208 -374 
Q 6266 -448 6266 -486 
Q 6266 -525 6138 -525 
L 2336 -525 
Q 2163 -525 2067 -570 
L 1952 -307 
Q 2086 -339 2272 -339 
L 4058 -339 
Q 4435 1254 4691 3046 
Q 5114 2880 5315 2774 
Q 5517 2669 5517 2611 
Q 5517 2554 5389 2528 
Q 5331 2515 5289 2448 
Q 5248 2381 4941 1485 
L 4333 -339 
z
M 2701 2758 
Q 3654 1421 3654 826 
Q 3654 608 3545 429 
Q 3437 250 3232 250 
Q 3149 250 3117 314 
Q 3085 378 3075 675 
Q 3066 973 2928 1600 
Q 2790 2227 2605 2682 
L 2701 2758 
z
" transform="scale(0.015625)"/>
        <path id="STZhongsong-8868" d="M 4243 838 
Q 4851 1325 5216 1773 
Q 5446 1568 5568 1414 
Q 5690 1261 5690 1222 
Q 5690 1184 5664 1174 
Q 5638 1165 5561 1165 
Q 5485 1165 5363 1123 
Q 5242 1082 4390 698 
Q 5114 51 6189 -262 
L 6189 -416 
Q 5638 -390 5421 -742 
Q 5382 -806 5331 -806 
Q 5222 -806 4678 -364 
Q 4134 77 3830 576 
Q 3526 1075 3290 1869 
L 3258 1869 
Q 2944 1446 2624 1101 
L 2624 -288 
L 3853 224 
L 3910 109 
Q 3206 -339 2934 -547 
Q 2662 -755 2394 -1050 
Q 2342 -1107 2310 -1107 
Q 2227 -1107 1901 -544 
Q 2035 -454 2073 -380 
Q 2112 -307 2112 -154 
L 2112 602 
Q 1344 -64 179 -557 
L 128 -442 
Q 1594 384 2554 1869 
L 730 1869 
Q 563 1869 486 1824 
L 378 2106 
Q 506 2074 672 2074 
L 2957 2074 
L 2957 2758 
L 1466 2758 
Q 1280 2758 1197 2720 
L 1082 2989 
Q 1216 2957 1402 2957 
L 2957 2957 
L 2957 3597 
L 1024 3597 
Q 851 3597 762 3552 
L 646 3834 
Q 781 3802 960 3802 
L 2957 3802 
L 2957 4275 
Q 2957 4717 2912 4909 
Q 3206 4864 3398 4809 
Q 3590 4755 3673 4716 
Q 3757 4678 3757 4630 
Q 3757 4582 3552 4480 
L 3552 3802 
L 4979 3802 
L 5261 4186 
Q 5325 4262 5379 4262 
Q 5434 4262 5574 4128 
L 5869 3859 
Q 6016 3725 6016 3661 
Q 6016 3597 5830 3597 
L 3552 3597 
L 3552 2957 
L 4570 2957 
L 4806 3277 
Q 4877 3373 4937 3373 
Q 4998 3373 5235 3145 
Q 5472 2918 5472 2822 
Q 5472 2758 5370 2758 
L 3552 2758 
L 3552 2074 
L 5286 2074 
L 5542 2438 
Q 5613 2541 5680 2541 
Q 5747 2541 5993 2272 
Q 6240 2003 6240 1936 
Q 6240 1869 6112 1869 
L 3520 1869 
Q 3782 1299 4243 838 
z
" transform="scale(0.015625)"/>
       </defs>
       <use xlink:href="#STZhongsong-4f01"/>
       <use xlink:href="#STZhongsong-4e1a" transform="translate(99.999985 0)"/>
       <use xlink:href="#STZhongsong-5e74" transform="translate(199.999969 0)"/>
       <use xlink:href="#STZhongsong-5ea6" transform="translate(299.999954 0)"/>
       <use xlink:href="#STZhongsong-70b9" transform="translate(399.999939 0)"/>
       <use xlink:href="#STZhongsong-4f4d" transform="translate(499.999924 0)"/>
       <use xlink:href="#STZhongsong-8868" transform="translate(599.999908 0)"/>
      </g>
     </g>
    </g>
    <g id="xtick_2">
     <g id="line2d_2">
      <g>
       <use xlink:href="#mcb4cfc10a2" x="433.674062" y="410.588281" style="fill: #111111; stroke: #111111; stroke-width: 0.8"/>
      </g>
     </g>
     <g id="text_2">
      <!-- 有效格网年度面板 -->
      <g style="fill: #111111" transform="translate(373.674062 428.777344) scale(0.15 -0.15)">
       <defs>
        <path id="STZhongsong-6709" d="M 2611 2861 
L 4512 2861 
L 4666 3130 
Q 4704 3187 4745 3187 
Q 4787 3187 4969 3068 
Q 5152 2950 5283 2870 
Q 5414 2790 5414 2726 
Q 5414 2662 5158 2534 
L 5158 -416 
Q 5158 -653 5100 -752 
Q 5043 -851 4768 -982 
Q 4493 -1114 4432 -1114 
Q 4371 -1114 4346 -998 
Q 4301 -819 4131 -681 
Q 3962 -544 3507 -365 
L 3533 -250 
Q 4186 -371 4323 -371 
Q 4461 -371 4509 -352 
Q 4557 -333 4557 -256 
L 4557 832 
L 2534 832 
L 2534 -781 
Q 2534 -858 2486 -893 
Q 2438 -928 2249 -989 
Q 2061 -1050 1997 -1050 
Q 1933 -1050 1933 -998 
L 1965 -454 
Q 1984 -90 1984 314 
L 1984 2042 
Q 1478 1504 352 755 
L 269 877 
Q 1843 2246 2400 3590 
L 755 3590 
Q 582 3590 486 3546 
L 371 3814 
Q 506 3782 691 3782 
L 2477 3782 
Q 2669 4256 2816 4870 
Q 3629 4557 3629 4435 
Q 3629 4390 3478 4355 
Q 3328 4320 3273 4192 
Q 3219 4064 3091 3782 
L 5094 3782 
L 5357 4166 
Q 5414 4256 5478 4256 
Q 5542 4256 5632 4192 
L 5875 3994 
Q 6029 3866 6118 3773 
Q 6208 3680 6208 3635 
Q 6208 3590 6080 3590 
L 3008 3590 
Q 2816 3174 2611 2861 
z
M 2534 1965 
L 4557 1965 
L 4557 2669 
L 2534 2669 
L 2534 1965 
z
M 4557 1773 
L 2534 1773 
L 2534 1030 
L 4557 1030 
L 4557 1773 
z
" transform="scale(0.015625)"/>
        <path id="STZhongsong-6548" d="M 1274 4915 
Q 1741 4749 1961 4640 
Q 2182 4531 2249 4444 
Q 2317 4358 2317 4217 
Q 2317 4077 2198 3907 
Q 2080 3738 1958 3738 
Q 1888 3738 1859 3766 
Q 1830 3795 1792 3898 
Q 1664 4224 1529 4425 
Q 1395 4627 1216 4819 
L 1274 4915 
z
M 4186 3315 
L 5190 3315 
L 5453 3738 
Q 5498 3808 5549 3808 
Q 5600 3808 5670 3744 
Q 5741 3680 5904 3513 
Q 6067 3347 6131 3270 
Q 6195 3194 6195 3162 
Q 6195 3130 6067 3130 
L 5146 3130 
Q 5325 3078 5488 3008 
Q 5651 2938 5651 2906 
Q 5651 2874 5587 2838 
Q 5523 2803 5497 2752 
Q 5472 2701 5427 2522 
Q 5133 1254 4698 621 
Q 5235 -96 6291 -576 
L 6272 -678 
Q 6182 -672 6044 -672 
Q 5907 -672 5779 -723 
Q 5651 -774 5536 -928 
Q 5498 -979 5466 -979 
Q 5389 -979 4969 -531 
Q 4550 -83 4371 205 
Q 3770 -480 2234 -1056 
L 2170 -973 
Q 3552 -173 4141 634 
Q 3853 1254 3757 2349 
Q 3462 1811 3046 1338 
L 2950 1395 
Q 3360 2093 3568 2787 
Q 3776 3482 4026 4870 
Q 4224 4819 4521 4707 
Q 4819 4595 4819 4550 
Q 4819 4506 4726 4493 
Q 4634 4480 4592 4422 
Q 4550 4365 4451 4057 
Q 4352 3750 4186 3315 
z
M 4922 3130 
L 4115 3130 
Q 3994 2829 3904 2643 
Q 4064 1696 4416 1056 
Q 4768 1862 4922 3130 
z
M 2688 3680 
L 2931 4000 
Q 2989 4077 3037 4077 
Q 3085 4077 3347 3843 
Q 3610 3610 3610 3555 
Q 3610 3501 3507 3501 
L 570 3501 
Q 435 3501 365 3469 
L 275 3706 
Q 390 3680 525 3680 
L 2688 3680 
z
M 2150 3392 
Q 2726 3181 3027 2995 
Q 3328 2810 3328 2611 
Q 3328 2470 3222 2307 
Q 3117 2144 3056 2144 
Q 2995 2144 2963 2176 
Q 2931 2208 2867 2317 
Q 2547 2880 2086 3296 
L 2150 3392 
z
M 1293 3386 
Q 1914 3117 1914 3040 
Q 1914 3014 1798 2989 
Q 1709 2970 1549 2771 
Q 672 1715 250 1344 
L 166 1408 
Q 838 2362 1293 3386 
z
M 2195 1037 
Q 2534 723 2700 508 
Q 2867 294 2867 83 
Q 2867 -128 2764 -285 
Q 2662 -442 2592 -442 
Q 2522 -442 2486 -400 
Q 2451 -358 2374 -186 
Q 2144 346 1933 659 
Q 1350 -109 237 -755 
L 179 -685 
Q 1171 154 1670 1011 
Q 1395 1350 896 1869 
L 979 1965 
Q 1574 1581 1856 1338 
Q 2074 1741 2323 2394 
Q 2509 2310 2710 2179 
Q 2912 2048 2912 2013 
Q 2912 1978 2813 1965 
Q 2714 1952 2605 1747 
Q 2374 1318 2195 1037 
z
" transform="scale(0.015625)"/>
        <path id="STZhongsong-683c" d="M 1722 3334 
L 1869 3334 
L 2029 3571 
Q 2093 3667 2147 3667 
Q 2202 3667 2429 3449 
Q 2656 3232 2656 3171 
Q 2656 3110 2522 3110 
L 1722 3110 
L 1722 2573 
Q 2112 2445 2320 2281 
Q 2528 2118 2528 1875 
Q 2528 1760 2413 1638 
Q 2298 1517 2208 1517 
Q 2118 1517 2083 1542 
Q 2048 1568 2022 1709 
Q 1933 2182 1722 2394 
L 1722 -691 
Q 1722 -755 1706 -771 
Q 1690 -787 1597 -844 
Q 1504 -902 1363 -960 
Q 1222 -1018 1200 -1018 
Q 1178 -1018 1178 -960 
L 1190 -691 
Q 1203 -371 1203 -90 
L 1203 1971 
Q 1037 1562 825 1242 
Q 614 922 192 467 
L 102 538 
Q 749 1594 1094 3110 
L 570 3110 
Q 403 3110 294 3078 
L 186 3366 
Q 320 3334 506 3334 
L 1203 3334 
L 1203 4134 
Q 1203 4557 1184 4864 
Q 1965 4685 1965 4614 
Q 1965 4570 1722 4429 
L 1722 3334 
z
M 3341 3398 
Q 2995 2848 2464 2298 
L 2362 2362 
Q 2771 2995 2992 3516 
Q 3213 4038 3373 4806 
Q 3814 4666 3932 4602 
Q 4051 4538 4051 4499 
Q 4051 4461 3955 4416 
Q 3859 4371 3744 4137 
Q 3629 3904 3590 3834 
L 4813 3834 
L 4998 4115 
Q 5030 4166 5065 4166 
Q 5101 4166 5254 4060 
Q 5408 3955 5526 3868 
Q 5645 3782 5680 3737 
Q 5715 3693 5715 3648 
Q 5715 3571 5619 3558 
Q 5523 3546 5404 3456 
Q 5286 3366 5190 3219 
Q 4832 2688 4518 2374 
Q 5178 1952 6182 1754 
L 6182 1651 
Q 5869 1606 5773 1548 
Q 5677 1491 5613 1338 
Q 5587 1267 5520 1267 
Q 5453 1267 4960 1513 
Q 4467 1760 4147 2035 
Q 3725 1702 3034 1376 
Q 3251 1306 3456 1203 
L 4678 1203 
L 4781 1382 
Q 4813 1440 4880 1440 
Q 4947 1440 5190 1289 
Q 5434 1139 5434 1062 
Q 5434 986 5248 922 
L 5248 -186 
Q 5248 -365 5254 -493 
L 5261 -691 
Q 5261 -730 5197 -771 
Q 5133 -813 4973 -873 
Q 4813 -934 4755 -934 
Q 4717 -934 4717 -870 
L 4717 -390 
L 3443 -390 
L 3443 -813 
Q 3443 -877 3424 -896 
Q 3405 -915 3222 -979 
Q 3040 -1043 2963 -1043 
Q 2938 -1043 2938 -992 
L 2944 -755 
Q 2950 -646 2950 -454 
L 2950 794 
Q 2950 1165 2938 1331 
Q 2438 1101 2022 941 
L 1971 1037 
Q 3290 1786 3859 2336 
Q 3539 2746 3341 3398 
z
M 3494 3661 
Q 3469 3610 3456 3590 
Q 3750 3002 4160 2650 
Q 4544 3091 4826 3661 
L 3494 3661 
z
M 3443 -198 
L 4717 -198 
L 4717 1011 
L 3443 1011 
L 3443 -198 
z
" transform="scale(0.015625)"/>
        <path id="STZhongsong-7f51" d="M 1542 4320 
L 4992 4320 
L 5158 4614 
Q 5197 4678 5248 4678 
Q 5299 4678 5603 4464 
Q 5907 4250 5907 4179 
Q 5907 4109 5651 4038 
L 5651 -166 
Q 5651 -499 5584 -646 
Q 5517 -794 5245 -928 
Q 4973 -1062 4890 -1062 
Q 4845 -1062 4819 -966 
Q 4742 -685 4588 -576 
Q 4435 -467 3917 -326 
L 3936 -186 
Q 4608 -301 4800 -301 
Q 4992 -301 5037 -230 
Q 5082 -160 5082 32 
L 5082 4134 
L 1498 4134 
L 1498 -736 
Q 1498 -781 1485 -800 
Q 1472 -819 1360 -883 
Q 1248 -947 1110 -995 
Q 973 -1043 941 -1043 
Q 909 -1043 915 -986 
Q 954 -666 954 -166 
L 954 4141 
Q 954 4461 941 4710 
Q 1197 4608 1542 4320 
z
M 2470 2534 
Q 2637 3104 2778 3776 
Q 3053 3654 3206 3558 
Q 3360 3462 3389 3433 
Q 3418 3405 3418 3373 
Q 3418 3315 3334 3289 
Q 3251 3264 3203 3184 
Q 3155 3104 3027 2768 
Q 2899 2432 2765 2144 
Q 3245 1459 3245 992 
Q 3245 813 3126 653 
Q 3008 493 2938 493 
Q 2822 493 2790 723 
Q 2720 1261 2547 1683 
Q 2093 781 1632 262 
L 1542 390 
Q 2029 1126 2349 2118 
Q 2138 2534 1619 3290 
L 1709 3360 
Q 2138 2938 2470 2534 
z
M 4006 2522 
Q 4179 3104 4288 3712 
Q 4960 3354 4960 3238 
Q 4960 3194 4873 3165 
Q 4787 3136 4723 3056 
Q 4659 2976 4550 2688 
Q 4442 2400 4307 2106 
Q 4883 1235 4883 800 
Q 4883 646 4787 508 
Q 4691 371 4604 371 
Q 4518 371 4461 576 
Q 4320 1088 4096 1658 
Q 3654 787 3014 102 
L 2938 192 
Q 3494 1005 3885 2150 
Q 3686 2586 3347 3136 
L 3462 3181 
Q 3757 2835 4006 2522 
z
" transform="scale(0.015625)"/>
        <path id="STZhongsong-9762" d="M 2694 4058 
L 678 4058 
Q 512 4058 403 4026 
L 294 4301 
Q 429 4269 614 4269 
L 4998 4269 
L 5286 4698 
Q 5350 4794 5395 4794 
Q 5459 4794 5788 4509 
Q 6118 4224 6118 4141 
Q 6118 4058 5990 4058 
L 3443 4058 
Q 3226 3622 2874 3091 
L 4723 3091 
L 4864 3328 
Q 4896 3379 4934 3379 
Q 5011 3379 5337 3184 
Q 5664 2989 5664 2899 
Q 5664 2810 5376 2662 
L 5376 -288 
Q 5376 -397 5382 -493 
L 5395 -646 
Q 5395 -672 5382 -688 
Q 5370 -704 5267 -752 
Q 5165 -800 5014 -832 
Q 4864 -864 4825 -864 
Q 4787 -864 4787 -813 
L 4787 -243 
L 1523 -243 
L 1523 -646 
Q 1523 -710 1459 -752 
Q 1395 -794 1200 -867 
Q 1005 -941 934 -941 
Q 909 -941 915 -877 
Q 941 -672 941 -211 
L 941 2912 
Q 941 3290 934 3366 
Q 1216 3290 1587 3091 
L 2477 3091 
Q 2682 3763 2694 4058 
z
M 2739 2880 
L 2739 2074 
L 3584 2074 
L 3584 2880 
L 2739 2880 
z
M 1523 -32 
L 2189 -32 
L 2189 2880 
L 1523 2880 
L 1523 -32 
z
M 4147 -32 
L 4787 -32 
L 4787 2880 
L 4147 2880 
L 4147 -32 
z
M 2739 1862 
L 2739 1056 
L 3584 1056 
L 3584 1862 
L 2739 1862 
z
M 2739 -32 
L 3584 -32 
L 3584 845 
L 2739 845 
L 2739 -32 
z
" transform="scale(0.015625)"/>
        <path id="STZhongsong-677f" d="M 1888 3398 
L 2189 3398 
L 2400 3661 
Q 2464 3738 2512 3738 
Q 2560 3738 2768 3520 
Q 2976 3302 2976 3238 
Q 2976 3200 2842 3200 
L 1888 3200 
L 1888 2675 
Q 2739 2208 2739 1798 
Q 2739 1645 2624 1488 
Q 2509 1331 2422 1331 
Q 2336 1331 2313 1363 
Q 2291 1395 2278 1555 
Q 2240 2022 1888 2547 
L 1888 -640 
Q 1888 -730 1856 -758 
Q 1824 -787 1657 -860 
Q 1491 -934 1408 -934 
Q 1370 -934 1370 -870 
L 1382 -518 
Q 1389 -307 1389 -19 
L 1389 1875 
Q 1011 979 173 77 
L 96 141 
Q 909 1318 1299 3200 
L 800 3200 
Q 634 3200 525 3168 
L 378 3430 
Q 512 3398 698 3398 
L 1389 3398 
L 1389 4134 
Q 1389 4557 1370 4864 
Q 1856 4742 2025 4684 
Q 2195 4627 2195 4569 
Q 2195 4512 1888 4378 
L 1888 3398 
z
M 3654 4147 
Q 4672 4358 5312 4730 
Q 5670 4410 5808 4272 
Q 5946 4134 5946 4080 
Q 5946 4026 5888 4026 
Q 5830 4026 5721 4061 
Q 5613 4096 5536 4096 
Q 5459 4096 5338 4077 
Q 4557 3936 3610 3936 
Q 3603 3418 3558 2854 
L 4896 2854 
L 5056 3053 
Q 5094 3104 5126 3104 
Q 5178 3104 5459 2889 
Q 5741 2675 5741 2617 
Q 5741 2560 5625 2525 
Q 5510 2490 5475 2442 
Q 5440 2394 5389 2208 
Q 5088 1101 4723 563 
Q 5190 -6 6246 -512 
L 6214 -614 
Q 5670 -576 5466 -838 
Q 5427 -883 5395 -883 
Q 5363 -883 5219 -758 
Q 5075 -634 4825 -371 
Q 4576 -109 4403 141 
Q 3802 -512 2534 -1075 
L 2445 -966 
Q 3731 -147 4173 512 
Q 3782 1235 3699 2643 
L 3546 2643 
Q 3469 1779 3408 1356 
Q 3347 934 3206 544 
Q 3066 154 2806 -224 
Q 2547 -602 2112 -1056 
L 2035 -973 
Q 2605 -173 2825 889 
Q 3046 1952 3046 3366 
Q 3046 3878 3021 4448 
Q 3366 4314 3654 4147 
z
M 4442 966 
Q 4736 1562 4909 2643 
L 3891 2643 
Q 4070 1606 4442 966 
z
" transform="scale(0.015625)"/>
       </defs>
       <use xlink:href="#STZhongsong-6709"/>
       <use xlink:href="#STZhongsong-6548" transform="translate(99.999985 0)"/>
       <use xlink:href="#STZhongsong-683c" transform="translate(199.999969 0)"/>
       <use xlink:href="#STZhongsong-7f51" transform="translate(299.999954 0)"/>
       <use xlink:href="#STZhongsong-5e74" transform="translate(399.999939 0)"/>
       <use xlink:href="#STZhongsong-5ea6" transform="translate(499.999924 0)"/>
       <use xlink:href="#STZhongsong-9762" transform="translate(599.999908 0)"/>
       <use xlink:href="#STZhongsong-677f" transform="translate(699.999893 0)"/>
      </g>
     </g>
    </g>
    <g id="xtick_3">
     <g id="line2d_3">
      <g>
       <use xlink:href="#mcb4cfc10a2" x="678.660248" y="410.588281" style="fill: #111111; stroke: #111111; stroke-width: 0.8"/>
      </g>
     </g>
     <g id="text_3">
      <!-- 完整DL格网面板 -->
      <g style="fill: #111111" transform="translate(623.160248 428.56875) scale(0.15 -0.15)">
       <defs>
        <path id="STZhongsong-5b8c" d="M 4851 2784 
Q 4992 2643 4992 2592 
Q 4992 2541 4890 2541 
L 1722 2541 
Q 1549 2541 1453 2496 
L 1338 2758 
Q 1472 2726 1658 2726 
L 4019 2726 
L 4288 3104 
Q 4333 3168 4377 3168 
Q 4422 3168 4483 3117 
Q 4544 3066 4755 2874 
Q 4966 3315 5062 3584 
L 1472 3584 
Q 1472 3059 1296 2816 
Q 1120 2573 890 2573 
Q 742 2573 640 2646 
Q 538 2720 538 2822 
Q 538 2925 672 3034 
Q 966 3270 1100 3516 
Q 1235 3763 1293 4141 
L 1440 4141 
Q 1453 4026 1466 3782 
L 3123 3782 
Q 3021 4192 2893 4413 
Q 2765 4634 2541 4787 
L 2579 4890 
Q 3731 4698 3731 4269 
Q 3731 4166 3638 4019 
Q 3546 3872 3334 3782 
L 5094 3782 
L 5293 4006 
Q 5338 4058 5389 4058 
Q 5440 4058 5552 3962 
Q 5664 3866 5817 3728 
Q 5971 3590 6025 3526 
Q 6080 3462 6080 3411 
Q 6080 3309 5939 3309 
L 5818 3315 
Q 5382 3315 4851 2784 
z
M 3981 1587 
L 3981 -83 
Q 3981 -320 4096 -381 
Q 4211 -442 4675 -442 
Q 5139 -442 5235 -374 
Q 5331 -307 5398 -67 
Q 5466 173 5549 870 
L 5683 870 
Q 5690 218 5744 10 
Q 5798 -198 5958 -301 
Q 6048 -358 6048 -412 
Q 6048 -467 5907 -668 
Q 5766 -870 5561 -921 
Q 5357 -973 4726 -973 
Q 4096 -973 3830 -921 
Q 3565 -870 3488 -723 
Q 3411 -576 3411 -224 
L 3411 1587 
L 2720 1587 
Q 2682 506 2467 112 
Q 2253 -282 1776 -506 
Q 1299 -730 454 -934 
L 397 -819 
Q 1440 -429 1801 3 
Q 2163 435 2150 1587 
L 832 1587 
Q 659 1587 563 1542 
L 448 1805 
Q 582 1773 768 1773 
L 4909 1773 
L 5210 2195 
Q 5254 2253 5292 2253 
Q 5331 2253 5436 2166 
Q 5542 2080 5702 1936 
Q 5862 1792 5920 1731 
Q 5978 1670 5978 1628 
Q 5978 1587 5862 1587 
L 3981 1587 
z
" transform="scale(0.015625)"/>
        <path id="STZhongsong-6574" d="M 1702 3917 
L 723 3917 
Q 557 3917 448 3885 
L 339 4134 
Q 474 4102 659 4102 
L 1702 4102 
Q 1702 4550 1683 4858 
Q 2029 4832 2198 4787 
Q 2368 4742 2368 4704 
Q 2368 4659 2176 4538 
L 2176 4102 
L 2822 4102 
L 2995 4320 
Q 3072 4416 3133 4416 
Q 3194 4416 3386 4214 
Q 3578 4013 3578 3965 
Q 3578 3917 3430 3917 
L 2176 3917 
L 2176 3475 
L 2675 3475 
L 2771 3603 
Q 2822 3667 2854 3667 
Q 2886 3667 3020 3571 
Q 3155 3475 3238 3420 
Q 3322 3366 3322 3328 
Q 3322 3290 3155 3213 
L 3155 2912 
Q 3155 2803 3168 2598 
Q 3859 3757 4038 4851 
Q 4198 4800 4454 4691 
Q 4710 4582 4710 4538 
Q 4710 4512 4601 4464 
Q 4493 4416 4441 4307 
Q 4390 4198 4122 3718 
L 5114 3718 
L 5350 4032 
Q 5427 4134 5481 4134 
Q 5536 4134 5795 3888 
Q 6054 3642 6054 3587 
Q 6054 3533 5907 3533 
L 5146 3533 
Q 5530 3379 5530 3322 
Q 5530 3296 5459 3273 
Q 5389 3251 5357 3206 
Q 5325 3162 5261 3021 
Q 5050 2560 4826 2253 
Q 5325 1990 6285 1850 
L 6259 1734 
Q 6016 1709 5885 1645 
Q 5754 1581 5626 1427 
Q 5581 1376 5542 1376 
Q 5466 1376 5101 1558 
Q 4736 1741 4525 1907 
Q 4051 1459 2970 1146 
L 2931 1261 
Q 3814 1645 4269 2163 
Q 3942 2547 3827 3251 
Q 3648 2982 3251 2477 
L 3149 2547 
Q 3014 2477 2883 2448 
Q 2752 2419 2701 2419 
Q 2682 2419 2682 2470 
L 2682 2566 
L 2176 2566 
L 2176 2304 
Q 2765 2163 2957 2041 
Q 3149 1920 3149 1753 
Q 3149 1587 3085 1494 
Q 3021 1402 2925 1402 
Q 2893 1402 2867 1427 
Q 2842 1453 2778 1542 
Q 2464 1990 2176 2170 
L 2176 1395 
Q 2176 1350 2169 1328 
Q 2163 1306 2076 1264 
Q 1990 1222 1862 1193 
Q 1734 1165 1708 1165 
Q 1683 1165 1683 1216 
L 1696 1498 
Q 1702 1645 1702 2035 
Q 1267 1549 192 992 
L 128 1094 
Q 1069 1722 1645 2566 
L 1152 2566 
L 1152 2483 
Q 1152 2438 1139 2422 
Q 1126 2406 1040 2368 
Q 954 2330 848 2304 
Q 742 2278 713 2278 
Q 685 2278 685 2317 
L 698 2771 
L 698 3219 
Q 698 3501 685 3667 
Q 934 3590 1120 3475 
L 1702 3475 
L 1702 3917 
z
M 4902 3533 
L 4006 3533 
L 3949 3437 
Q 4083 2816 4493 2470 
Q 4781 2918 4902 3533 
z
M 2176 2758 
L 2682 2758 
L 2682 3309 
L 2176 3309 
L 2176 2758 
z
M 1152 2758 
L 1702 2758 
L 1702 3309 
L 1152 3309 
L 1152 2758 
z
M 2906 851 
L 947 851 
Q 774 851 678 806 
L 550 1082 
Q 685 1050 870 1050 
L 4640 1050 
L 4832 1318 
Q 4896 1408 4944 1408 
Q 4992 1408 5257 1187 
Q 5523 966 5523 908 
Q 5523 851 5350 851 
L 3456 851 
L 3456 141 
L 4243 141 
L 4461 454 
Q 4525 550 4582 550 
Q 4640 550 4886 316 
Q 5133 83 5133 25 
Q 5133 -32 4966 -32 
L 3456 -32 
L 3456 -666 
L 4973 -666 
L 5203 -346 
Q 5274 -250 5331 -250 
Q 5389 -250 5635 -496 
Q 5882 -742 5882 -803 
Q 5882 -864 5734 -864 
L 710 -864 
Q 538 -864 442 -909 
L 326 -634 
Q 461 -666 646 -666 
L 1574 -666 
L 1574 32 
Q 1574 525 1562 634 
Q 1715 608 2009 521 
Q 2304 435 2304 380 
Q 2304 326 2080 218 
L 2080 -666 
L 2906 -666 
L 2906 851 
z
" transform="scale(0.015625)"/>
        <path id="STZhongsong-44" d="M 301 4096 
L 301 4358 
L 1862 4358 
Q 2854 4358 3296 4240 
Q 3738 4122 4077 3811 
Q 4416 3501 4601 3062 
Q 4787 2624 4787 2125 
Q 4787 1261 4230 630 
Q 3674 0 2534 0 
L 301 0 
L 301 262 
L 544 262 
Q 717 243 787 352 
Q 858 461 858 704 
L 858 3622 
Q 858 3955 762 4025 
Q 666 4096 301 4096 
z
M 1440 339 
L 2387 339 
Q 2650 339 3098 435 
Q 3546 531 3834 1004 
Q 4122 1478 4122 2170 
Q 4122 2592 3997 2934 
Q 3872 3277 3648 3513 
Q 3424 3750 3152 3868 
Q 2880 3987 2675 4000 
Q 2470 4013 2080 4013 
L 1440 4013 
L 1440 339 
z
" transform="scale(0.015625)"/>
        <path id="STZhongsong-4c" d="M 294 4358 
L 1984 4358 
L 1984 4096 
L 1830 4096 
Q 1619 4096 1523 4035 
Q 1427 3974 1427 3725 
L 1427 685 
Q 1427 429 1475 381 
Q 1523 333 1779 333 
L 2010 333 
Q 2592 333 2928 592 
Q 3264 851 3533 1459 
L 3808 1363 
L 3322 0 
L 294 0 
L 294 262 
L 429 262 
Q 678 262 761 336 
Q 845 410 845 685 
L 845 3648 
Q 845 3917 777 4006 
Q 710 4096 429 4096 
L 294 4096 
L 294 4358 
z
" transform="scale(0.015625)"/>
       </defs>
       <use xlink:href="#STZhongsong-5b8c"/>
       <use xlink:href="#STZhongsong-6574" transform="translate(99.999985 0)"/>
       <use xlink:href="#STZhongsong-44" transform="translate(199.999969 0)"/>
       <use xlink:href="#STZhongsong-4c" transform="translate(279.999954 0)"/>
       <use xlink:href="#STZhongsong-683c" transform="translate(339.999939 0)"/>
       <use xlink:href="#STZhongsong-7f51" transform="translate(439.999924 0)"/>
       <use xlink:href="#STZhongsong-9762" transform="translate(539.999908 0)"/>
       <use xlink:href="#STZhongsong-677f" transform="translate(639.999893 0)"/>
      </g>
     </g>
    </g>
   </g>
   <g id="matplotlib.axis_2">
    <g id="ytick_1">
     <g id="line2d_4">
      <path d="M 90.080938 410.588281 
L 777.267187 410.588281 
" clip-path="url(#p9ac77fe8d6)" style="fill: none; stroke: #ececec; stroke-width: 0.9; stroke-linecap: square"/>
     </g>
     <g id="line2d_5">
      <defs>
       <path id="m7517ba58c4" d="M 0 0 
L -3.5 0 
" style="stroke: #111111; stroke-width: 0.8"/>
      </defs>
      <g>
       <use xlink:href="#m7517ba58c4" x="90.080938" y="410.588281" style="fill: #111111; stroke: #111111; stroke-width: 0.8"/>
      </g>
     </g>
     <g id="text_4">
      <!-- 0 -->
      <g style="fill: #111111" transform="translate(73.780938 415.957812) scale(0.15 -0.15)">
       <defs>
        <path id="STZhongsong-30" d="M 326 2182 
Q 326 3251 774 3843 
Q 1222 4435 1997 4435 
Q 2752 4435 3197 3827 
Q 3642 3219 3642 2144 
Q 3642 1139 3178 531 
Q 2714 -77 1952 -77 
Q 1229 -77 777 524 
Q 326 1126 326 2182 
z
M 3040 2182 
Q 3040 3104 2758 3616 
Q 2477 4128 1978 4128 
Q 1478 4128 1200 3590 
Q 922 3053 922 2118 
Q 922 1229 1210 733 
Q 1498 237 1971 237 
Q 2470 237 2755 752 
Q 3040 1267 3040 2182 
z
" transform="scale(0.015625)"/>
       </defs>
       <use xlink:href="#STZhongsong-30"/>
      </g>
     </g>
    </g>
    <g id="ytick_2">
     <g id="line2d_6">
      <path d="M 90.080938 364.894511 
L 777.267187 364.894511 
" clip-path="url(#p9ac77fe8d6)" style="fill: none; stroke: #ececec; stroke-width: 0.9; stroke-linecap: square"/>
     </g>
     <g id="line2d_7">
      <g>
       <use xlink:href="#m7517ba58c4" x="90.080938" y="364.894511" style="fill: #111111; stroke: #111111; stroke-width: 0.8"/>
      </g>
     </g>
     <g id="text_5">
      <!-- 100000 -->
      <g style="fill: #111111" transform="translate(27.280938 370.264042) scale(0.15 -0.15)">
       <defs>
        <path id="STZhongsong-31" d="M 2150 4358 
L 2387 4358 
L 2387 742 
Q 2387 422 2464 342 
Q 2541 262 2822 262 
L 3130 262 
L 3130 0 
L 1069 0 
L 1069 262 
L 1408 262 
Q 1670 262 1766 348 
Q 1862 435 1862 742 
L 1862 3718 
L 1069 3718 
L 1069 3987 
Q 1709 4070 2150 4358 
z
" transform="scale(0.015625)"/>
       </defs>
       <use xlink:href="#STZhongsong-31"/>
       <use xlink:href="#STZhongsong-30" transform="translate(61.999985 0)"/>
       <use xlink:href="#STZhongsong-30" transform="translate(123.999969 0)"/>
       <use xlink:href="#STZhongsong-30" transform="translate(185.999954 0)"/>
       <use xlink:href="#STZhongsong-30" transform="translate(247.999939 0)"/>
       <use xlink:href="#STZhongsong-30" transform="translate(309.999924 0)"/>
      </g>
     </g>
    </g>
    <g id="ytick_3">
     <g id="line2d_8">
      <path d="M 90.080938 319.20074 
L 777.267187 319.20074 
" clip-path="url(#p9ac77fe8d6)" style="fill: none; stroke: #ececec; stroke-width: 0.9; stroke-linecap: square"/>
     </g>
     <g id="line2d_9">
      <g>
       <use xlink:href="#m7517ba58c4" x="90.080938" y="319.20074" style="fill: #111111; stroke: #111111; stroke-width: 0.8"/>
      </g>
     </g>
     <g id="text_6">
      <!-- 200000 -->
      <g style="fill: #111111" transform="translate(27.280938 324.570271) scale(0.15 -0.15)">
       <defs>
        <path id="STZhongsong-32" d="M 723 2714 
L 422 2675 
Q 397 2835 397 2989 
Q 397 3616 832 4025 
Q 1267 4435 1978 4435 
Q 2630 4435 3043 4064 
Q 3456 3693 3456 3098 
Q 3456 2669 3286 2349 
Q 3117 2029 2611 1603 
Q 2106 1178 1037 467 
L 2662 467 
Q 2963 467 3062 544 
Q 3162 621 3200 838 
L 3232 1018 
L 3494 1018 
L 3283 -154 
L 3085 -154 
L 3053 0 
L 320 0 
L 320 262 
L 819 640 
Q 1901 1453 2377 1977 
Q 2854 2502 2854 3066 
Q 2854 3507 2569 3788 
Q 2285 4070 1837 4070 
Q 1325 4070 1017 3753 
Q 710 3437 710 2918 
Q 710 2822 723 2714 
z
" transform="scale(0.015625)"/>
       </defs>
       <use xlink:href="#STZhongsong-32"/>
       <use xlink:href="#STZhongsong-30" transform="translate(61.999985 0)"/>
       <use xlink:href="#STZhongsong-30" transform="translate(123.999969 0)"/>
       <use xlink:href="#STZhongsong-30" transform="translate(185.999954 0)"/>
       <use xlink:href="#STZhongsong-30" transform="translate(247.999939 0)"/>
       <use xlink:href="#STZhongsong-30" transform="translate(309.999924 0)"/>
      </g>
     </g>
    </g>
    <g id="ytick_4">
     <g id="line2d_10">
      <path d="M 90.080938 273.506969 
L 777.267187 273.506969 
" clip-path="url(#p9ac77fe8d6)" style="fill: none; stroke: #ececec; stroke-width: 0.9; stroke-linecap: square"/>
     </g>
     <g id="line2d_11">
      <g>
       <use xlink:href="#m7517ba58c4" x="90.080938" y="273.506969" style="fill: #111111; stroke: #111111; stroke-width: 0.8"/>
      </g>
     </g>
     <g id="text_7">
      <!-- 300000 -->
      <g style="fill: #111111" transform="translate(27.280938 278.876501) scale(0.15 -0.15)">
       <defs>
        <path id="STZhongsong-33" d="M 934 3194 
L 634 3238 
Q 717 3827 1097 4131 
Q 1478 4435 2061 4435 
Q 2662 4435 3046 4124 
Q 3430 3814 3430 3360 
Q 3430 3021 3190 2761 
Q 2950 2502 2502 2374 
Q 3046 2298 3334 1974 
Q 3622 1651 3622 1222 
Q 3622 698 3155 310 
Q 2688 -77 1997 -77 
Q 1299 -77 844 275 
Q 390 627 390 960 
Q 390 1114 505 1184 
Q 621 1254 710 1254 
Q 922 1254 1043 858 
Q 1133 544 1369 377 
Q 1606 211 1952 211 
Q 2419 211 2720 512 
Q 3021 813 3021 1267 
Q 3021 1702 2717 1952 
Q 2413 2202 1862 2202 
L 1568 2202 
L 1568 2502 
L 1754 2502 
Q 2829 2502 2829 3283 
Q 2829 3629 2592 3843 
Q 2355 4058 1952 4058 
Q 1107 4058 934 3194 
z
" transform="scale(0.015625)"/>
       </defs>
       <use xlink:href="#STZhongsong-33"/>
       <use xlink:href="#STZhongsong-30" transform="translate(61.999985 0)"/>
       <use xlink:href="#STZhongsong-30" transform="translate(123.999969 0)"/>
       <use xlink:href="#STZhongsong-30" transform="translate(185.999954 0)"/>
       <use xlink:href="#STZhongsong-30" transform="translate(247.999939 0)"/>
       <use xlink:href="#STZhongsong-30" transform="translate(309.999924 0)"/>
      </g>
     </g>
    </g>
    <g id="ytick_5">
     <g id="line2d_12">
      <path d="M 90.080938 227.813199 
L 777.267187 227.813199 
" clip-path="url(#p9ac77fe8d6)" style="fill: none; stroke: #ececec; stroke-width: 0.9; stroke-linecap: square"/>
     </g>
     <g id="line2d_13">
      <g>
       <use xlink:href="#m7517ba58c4" x="90.080938" y="227.813199" style="fill: #111111; stroke: #111111; stroke-width: 0.8"/>
      </g>
     </g>
     <g id="text_8">
      <!-- 400000 -->
      <g style="fill: #111111" transform="translate(27.280938 233.18273) scale(0.15 -0.15)">
       <defs>
        <path id="STZhongsong-34" d="M 3494 1242 
L 2906 1242 
L 2906 518 
Q 2906 275 3213 250 
L 3213 45 
L 1882 45 
L 1882 250 
Q 2054 262 2156 336 
Q 2259 410 2259 518 
L 2259 1242 
L 550 1242 
L 550 1658 
L 2483 4365 
L 2906 4365 
L 2906 1581 
L 3494 1581 
L 3494 1242 
z
M 2259 1581 
L 2259 3462 
L 902 1581 
L 2259 1581 
z
" transform="scale(0.015625)"/>
       </defs>
       <use xlink:href="#STZhongsong-34"/>
       <use xlink:href="#STZhongsong-30" transform="translate(61.999985 0)"/>
       <use xlink:href="#STZhongsong-30" transform="translate(123.999969 0)"/>
       <use xlink:href="#STZhongsong-30" transform="translate(185.999954 0)"/>
       <use xlink:href="#STZhongsong-30" transform="translate(247.999939 0)"/>
       <use xlink:href="#STZhongsong-30" transform="translate(309.999924 0)"/>
      </g>
     </g>
    </g>
    <g id="ytick_6">
     <g id="line2d_14">
      <path d="M 90.080938 182.119428 
L 777.267187 182.119428 
" clip-path="url(#p9ac77fe8d6)" style="fill: none; stroke: #ececec; stroke-width: 0.9; stroke-linecap: square"/>
     </g>
     <g id="line2d_15">
      <g>
       <use xlink:href="#m7517ba58c4" x="90.080938" y="182.119428" style="fill: #111111; stroke: #111111; stroke-width: 0.8"/>
      </g>
     </g>
     <g id="text_9">
      <!-- 500000 -->
      <g style="fill: #111111" transform="translate(27.280938 187.488959) scale(0.15 -0.15)">
       <defs>
        <path id="STZhongsong-35" d="M 934 4358 
L 2880 4358 
Q 3046 4358 3097 4387 
Q 3149 4416 3155 4512 
L 3386 4512 
L 3386 3853 
L 1229 3853 
L 1171 2752 
Q 1530 2848 1990 2848 
Q 2771 2848 3228 2451 
Q 3686 2054 3686 1414 
Q 3686 787 3212 355 
Q 2739 -77 2029 -77 
Q 1414 -77 982 236 
Q 550 550 550 890 
Q 550 1037 640 1123 
Q 730 1210 838 1210 
Q 1062 1210 1203 813 
Q 1421 218 2042 218 
Q 2515 218 2819 528 
Q 3123 838 3123 1312 
Q 3123 1824 2777 2128 
Q 2432 2432 1843 2432 
Q 1280 2432 832 2246 
L 934 4358 
z
" transform="scale(0.015625)"/>
       </defs>
       <use xlink:href="#STZhongsong-35"/>
       <use xlink:href="#STZhongsong-30" transform="translate(61.999985 0)"/>
       <use xlink:href="#STZhongsong-30" transform="translate(123.999969 0)"/>
       <use xlink:href="#STZhongsong-30" transform="translate(185.999954 0)"/>
       <use xlink:href="#STZhongsong-30" transform="translate(247.999939 0)"/>
       <use xlink:href="#STZhongsong-30" transform="translate(309.999924 0)"/>
      </g>
     </g>
    </g>
    <g id="ytick_7">
     <g id="line2d_16">
      <path d="M 90.080938 136.425657 
L 777.267187 136.425657 
" clip-path="url(#p9ac77fe8d6)" style="fill: none; stroke: #ececec; stroke-width: 0.9; stroke-linecap: square"/>
     </g>
     <g id="line2d_17">
      <g>
       <use xlink:href="#m7517ba58c4" x="90.080938" y="136.425657" style="fill: #111111; stroke: #111111; stroke-width: 0.8"/>
      </g>
     </g>
     <g id="text_10">
      <!-- 600000 -->
      <g style="fill: #111111" transform="translate(27.280938 141.795189) scale(0.15 -0.15)">
       <defs>
        <path id="STZhongsong-36" d="M 3238 4442 
L 3238 4154 
Q 2131 4141 1603 3686 
Q 1075 3232 1037 2227 
Q 1446 2893 2240 2893 
Q 2880 2893 3289 2486 
Q 3699 2080 3699 1440 
Q 3699 742 3257 332 
Q 2816 -77 2093 -77 
Q 1286 -77 848 444 
Q 410 966 410 1926 
Q 410 3046 1056 3744 
Q 1702 4442 2995 4442 
L 3238 4442 
z
M 3072 1414 
Q 3072 1933 2800 2246 
Q 2528 2560 2099 2560 
Q 1658 2560 1363 2224 
Q 1069 1888 1069 1402 
Q 1069 890 1350 550 
Q 1632 211 2074 211 
Q 2509 211 2790 544 
Q 3072 877 3072 1414 
z
" transform="scale(0.015625)"/>
       </defs>
       <use xlink:href="#STZhongsong-36"/>
       <use xlink:href="#STZhongsong-30" transform="translate(61.999985 0)"/>
       <use xlink:href="#STZhongsong-30" transform="translate(123.999969 0)"/>
       <use xlink:href="#STZhongsong-30" transform="translate(185.999954 0)"/>
       <use xlink:href="#STZhongsong-30" transform="translate(247.999939 0)"/>
       <use xlink:href="#STZhongsong-30" transform="translate(309.999924 0)"/>
      </g>
     </g>
    </g>
    <g id="ytick_8">
     <g id="line2d_18">
      <path d="M 90.080938 90.731887 
L 777.267187 90.731887 
" clip-path="url(#p9ac77fe8d6)" style="fill: none; stroke: #ececec; stroke-width: 0.9; stroke-linecap: square"/>
     </g>
     <g id="line2d_19">
      <g>
       <use xlink:href="#m7517ba58c4" x="90.080938" y="90.731887" style="fill: #111111; stroke: #111111; stroke-width: 0.8"/>
      </g>
     </g>
     <g id="text_11">
      <!-- 700000 -->
      <g style="fill: #111111" transform="translate(27.280938 96.101418) scale(0.15 -0.15)">
       <defs>
        <path id="STZhongsong-37" d="M 691 4518 
L 902 4518 
L 934 4358 
L 3667 4358 
L 3667 4096 
Q 2163 2317 1901 0 
L 1261 0 
Q 1421 1190 1949 2150 
Q 2477 3110 3174 3891 
L 1222 3891 
Q 1005 3891 899 3862 
Q 794 3834 736 3635 
L 614 3206 
L 352 3264 
L 691 4518 
z
" transform="scale(0.015625)"/>
       </defs>
       <use xlink:href="#STZhongsong-37"/>
       <use xlink:href="#STZhongsong-30" transform="translate(61.999985 0)"/>
       <use xlink:href="#STZhongsong-30" transform="translate(123.999969 0)"/>
       <use xlink:href="#STZhongsong-30" transform="translate(185.999954 0)"/>
       <use xlink:href="#STZhongsong-30" transform="translate(247.999939 0)"/>
       <use xlink:href="#STZhongsong-30" transform="translate(309.999924 0)"/>
      </g>
     </g>
    </g>
    <g id="ytick_9">
     <g id="line2d_20">
      <path d="M 90.080938 45.038116 
L 777.267187 45.038116 
" clip-path="url(#p9ac77fe8d6)" style="fill: none; stroke: #ececec; stroke-width: 0.9; stroke-linecap: square"/>
     </g>
     <g id="line2d_21">
      <g>
       <use xlink:href="#m7517ba58c4" x="90.080938" y="45.038116" style="fill: #111111; stroke: #111111; stroke-width: 0.8"/>
      </g>
     </g>
     <g id="text_12">
      <!-- 800000 -->
      <g style="fill: #111111" transform="translate(27.280938 50.407647) scale(0.15 -0.15)">
       <defs>
        <path id="STZhongsong-38" d="M 2477 2419 
Q 3021 2208 3315 1923 
Q 3610 1638 3610 1197 
Q 3610 659 3152 291 
Q 2694 -77 1971 -77 
Q 1274 -77 816 272 
Q 358 621 358 1120 
Q 358 1485 633 1779 
Q 909 2074 1440 2259 
Q 1011 2451 800 2691 
Q 589 2931 589 3315 
Q 589 3814 998 4124 
Q 1408 4435 2035 4435 
Q 2618 4435 2998 4134 
Q 3379 3834 3379 3424 
Q 3379 2790 2477 2419 
z
M 2189 2534 
Q 2451 2707 2662 2918 
Q 2874 3130 2874 3418 
Q 2874 3706 2621 3923 
Q 2368 4141 1971 4141 
Q 1594 4141 1331 3926 
Q 1069 3712 1069 3430 
Q 1069 3168 1270 2989 
Q 1472 2810 1824 2675 
L 2189 2534 
z
M 1747 2131 
Q 1325 1939 1088 1670 
Q 851 1402 851 1126 
Q 851 762 1177 490 
Q 1504 218 1984 218 
Q 2438 218 2774 483 
Q 3110 749 3110 1082 
Q 3110 1594 2253 1933 
L 1747 2131 
z
" transform="scale(0.015625)"/>
       </defs>
       <use xlink:href="#STZhongsong-38"/>
       <use xlink:href="#STZhongsong-30" transform="translate(61.999985 0)"/>
       <use xlink:href="#STZhongsong-30" transform="translate(123.999969 0)"/>
       <use xlink:href="#STZhongsong-30" transform="translate(185.999954 0)"/>
       <use xlink:href="#STZhongsong-30" transform="translate(247.999939 0)"/>
       <use xlink:href="#STZhongsong-30" transform="translate(309.999924 0)"/>
      </g>
     </g>
    </g>
    <g id="text_13">
     <!-- 记录数 -->
     <g style="fill: #111111" transform="translate(19.880938 250.257656) rotate(-90) scale(0.17 -0.17)">
      <defs>
       <path id="STZhongsong-8bb0" d="M 883 4915 
Q 1485 4685 1789 4473 
Q 2093 4262 2093 4035 
Q 2093 3808 1968 3613 
Q 1843 3418 1690 3418 
Q 1568 3418 1491 3674 
Q 1325 4262 819 4826 
L 883 4915 
z
M 4787 2438 
L 4787 4026 
L 2912 4026 
Q 2739 4026 2643 3981 
L 2528 4262 
Q 2662 4230 2848 4230 
L 4742 4230 
L 4909 4538 
Q 4941 4595 4979 4595 
Q 5050 4595 5363 4400 
Q 5677 4205 5677 4137 
Q 5677 4070 5395 3936 
L 5395 2515 
L 5408 2106 
Q 5408 2016 5376 1981 
Q 5344 1946 5142 1862 
Q 4941 1779 4838 1779 
Q 4787 1779 4787 1856 
L 4787 2253 
L 3373 2253 
L 3373 147 
Q 3373 -13 3398 -57 
Q 3424 -102 3485 -128 
Q 3546 -154 3853 -179 
Q 4160 -205 4435 -205 
Q 4710 -205 4969 -169 
Q 5229 -134 5309 -89 
Q 5389 -45 5443 86 
Q 5498 218 5542 474 
Q 5587 730 5658 1267 
L 5792 1267 
Q 5786 723 5853 396 
Q 5920 70 6086 -45 
Q 6170 -102 6170 -172 
Q 6170 -243 6003 -438 
Q 5837 -634 5539 -685 
Q 5242 -736 4474 -736 
Q 3366 -736 3091 -621 
Q 2816 -506 2816 -122 
L 2816 2080 
Q 2816 2515 2797 2797 
Q 3155 2650 3526 2438 
L 4787 2438 
z
M 2662 979 
Q 1984 102 1721 -256 
Q 1459 -614 1293 -896 
Q 1254 -954 1235 -954 
Q 1178 -954 781 -403 
Q 1082 -45 1082 269 
L 1082 2547 
L 512 2547 
Q 397 2547 301 2515 
L 128 2778 
Q 237 2746 397 2746 
L 1024 2746 
L 1216 3034 
Q 1248 3091 1302 3091 
Q 1357 3091 1561 2953 
Q 1766 2816 1849 2765 
Q 1933 2714 1933 2669 
Q 1933 2624 1632 2445 
L 1632 282 
L 2586 1082 
L 2662 979 
z
" transform="scale(0.015625)"/>
       <path id="STZhongsong-5f55" d="M 4250 2637 
L 4275 3347 
L 1766 3347 
Q 1594 3347 1498 3302 
L 1382 3578 
Q 1517 3546 1702 3546 
L 4282 3546 
L 4307 4230 
L 1421 4230 
Q 1248 4230 1152 4186 
L 1037 4461 
Q 1171 4429 1357 4429 
L 4262 4429 
L 4467 4730 
Q 4506 4787 4538 4787 
Q 4595 4787 4889 4553 
Q 5184 4320 5184 4259 
Q 5184 4198 4870 4051 
L 4813 2637 
L 5146 2637 
L 5408 3014 
Q 5478 3117 5539 3117 
Q 5600 3117 5888 2845 
Q 6176 2573 6176 2502 
Q 6176 2419 5965 2419 
L 3501 2419 
Q 3750 1715 4160 1222 
Q 4678 1696 5005 2176 
Q 5427 1811 5494 1744 
Q 5562 1677 5562 1632 
Q 5562 1587 5514 1587 
Q 5466 1587 5430 1593 
Q 5395 1600 5370 1600 
Q 5235 1600 4262 1114 
Q 4947 365 6272 -6 
L 6246 -122 
Q 5901 -102 5680 -172 
Q 5459 -243 5325 -429 
Q 5293 -474 5261 -474 
Q 5171 -474 4704 -74 
Q 4237 326 3933 812 
Q 3629 1299 3469 1952 
L 3469 -32 
Q 3469 -410 3421 -538 
Q 3373 -666 3117 -806 
Q 2861 -947 2809 -947 
Q 2758 -947 2746 -870 
Q 2707 -627 2547 -492 
Q 2387 -358 1952 -230 
L 1952 -102 
Q 2528 -192 2688 -192 
Q 2848 -192 2886 -134 
Q 2925 -77 2925 96 
L 2925 2419 
L 640 2419 
Q 480 2419 365 2387 
L 256 2669 
Q 390 2637 576 2637 
L 4250 2637 
z
M 1114 2202 
Q 1664 1958 1865 1820 
Q 2067 1683 2128 1603 
Q 2189 1523 2189 1369 
Q 2189 1216 2077 1062 
Q 1965 909 1878 909 
Q 1792 909 1734 1075 
Q 1574 1536 1056 2118 
L 1114 2202 
z
M 2714 851 
Q 1805 307 1488 73 
Q 1171 -160 1110 -278 
Q 1050 -397 973 -397 
Q 896 -397 838 -339 
L 365 173 
Q 1587 538 2662 973 
L 2714 851 
z
" transform="scale(0.015625)"/>
       <path id="STZhongsong-6570" d="M 2394 3334 
L 2938 3334 
L 3136 3616 
Q 3181 3680 3245 3680 
Q 3309 3680 3520 3462 
Q 3731 3245 3731 3193 
Q 3731 3142 3610 3142 
L 2394 3142 
L 2394 3027 
Q 2784 2938 3069 2819 
Q 3354 2701 3354 2515 
Q 3354 2381 3296 2227 
Q 3238 2074 3171 2074 
Q 3104 2074 3069 2109 
Q 3034 2144 2963 2259 
Q 2893 2374 2720 2556 
Q 2547 2739 2394 2854 
Q 2406 2381 2406 2259 
Q 2406 2138 2393 2099 
Q 2381 2061 2217 2006 
Q 2054 1952 1971 1933 
Q 2291 1811 2291 1722 
Q 2291 1670 2227 1660 
Q 2163 1651 2118 1609 
Q 2074 1568 1990 1434 
L 2637 1434 
L 2803 1619 
Q 2854 1677 2892 1677 
Q 2931 1677 3190 1481 
Q 3450 1286 3450 1228 
Q 3450 1171 3338 1148 
Q 3226 1126 3168 1088 
Q 3110 1050 3053 941 
Q 2848 563 2637 307 
Q 3040 205 3133 38 
Q 3226 -128 3226 -262 
Q 3226 -397 3187 -467 
Q 3149 -538 3101 -538 
Q 3053 -538 2816 -378 
Q 2579 -218 2278 -51 
Q 1664 -589 384 -992 
L 333 -877 
Q 1338 -371 1875 141 
Q 1440 326 845 474 
Q 1184 954 1331 1222 
L 691 1222 
Q 518 1222 422 1190 
L 307 1453 
Q 410 1434 627 1434 
L 1440 1434 
Q 1626 1824 1690 2035 
Q 1818 1997 1869 1978 
Q 1888 2515 1888 2874 
Q 1421 2125 282 1613 
L 243 1715 
Q 1075 2330 1549 3142 
L 589 3142 
Q 467 3142 390 3110 
L 301 3366 
Q 416 3334 550 3334 
L 1888 3334 
L 1888 4147 
Q 1888 4698 1875 4877 
Q 2592 4723 2592 4653 
Q 2592 4608 2394 4499 
L 2394 3334 
z
M 1856 1222 
L 1427 570 
Q 1914 480 2138 429 
Q 2413 762 2630 1222 
L 1856 1222 
z
M 4326 3270 
L 5222 3270 
L 5485 3590 
Q 5549 3661 5609 3661 
Q 5670 3661 5939 3421 
Q 6208 3181 6208 3117 
Q 6208 3072 6054 3072 
L 5050 3072 
Q 5638 2925 5638 2810 
Q 5638 2771 5542 2742 
Q 5446 2714 5404 2643 
Q 5363 2573 5338 2438 
Q 5088 1069 4749 518 
Q 5261 -186 6304 -646 
L 6246 -774 
Q 6080 -730 5933 -730 
Q 5658 -730 5446 -902 
Q 5389 -947 5363 -947 
Q 5299 -947 4934 -534 
Q 4570 -122 4448 102 
Q 4115 -301 3657 -579 
Q 3200 -858 2470 -1139 
L 2413 -1005 
Q 3642 -307 4211 544 
Q 3942 1152 3878 2342 
Q 3654 1946 3322 1491 
L 3213 1555 
Q 3949 2963 4109 4877 
Q 4333 4832 4563 4761 
Q 4794 4691 4858 4649 
Q 4922 4608 4922 4563 
Q 4922 4518 4813 4492 
Q 4704 4467 4653 4384 
Q 4602 4301 4538 3974 
Q 4474 3648 4326 3270 
z
M 4870 3072 
L 4250 3072 
L 4064 2682 
Q 4141 1594 4454 979 
Q 4723 1619 4870 3072 
z
M 3104 4602 
Q 3264 4525 3453 4422 
Q 3642 4320 3670 4288 
Q 3699 4256 3699 4221 
Q 3699 4186 3673 4170 
Q 3648 4154 3539 4154 
Q 3430 4154 3315 4038 
Q 2957 3680 2528 3392 
L 2464 3488 
Q 2906 4102 3104 4602 
z
M 653 4512 
Q 1171 4326 1353 4201 
Q 1536 4077 1536 3901 
Q 1536 3725 1453 3590 
Q 1370 3456 1286 3456 
Q 1203 3456 1164 3494 
Q 1126 3533 1084 3673 
Q 1043 3814 899 4038 
Q 755 4262 589 4429 
L 653 4512 
z
" transform="scale(0.015625)"/>
      </defs>
      <use xlink:href="#STZhongsong-8bb0"/>
      <use xlink:href="#STZhongsong-5f55" transform="translate(99.999985 0)"/>
      <use xlink:href="#STZhongsong-6570" transform="translate(199.999969 0)"/>
     </g>
    </g>
   </g>
   <g id="patch_6">
    <path d="M 90.080938 410.588281 
L 90.080938 38.927031 
" style="fill: none; stroke: #111111; stroke-width: 1.35; stroke-linejoin: miter; stroke-linecap: square"/>
   </g>
   <g id="patch_7">
    <path d="M 90.080938 410.588281 
L 777.267187 410.588281 
" style="fill: none; stroke: #111111; stroke-width: 1.35; stroke-linejoin: miter; stroke-linecap: square"/>
   </g>
   <g id="text_14">
    <!-- 99,498 -->
    <g style="fill: #111111" transform="translate(163.037877 357.123893) scale(0.15 -0.15)">
     <defs>
      <path id="STZhongsong-39" d="M 736 -77 
L 736 218 
Q 1856 224 2374 688 
Q 2893 1152 2938 2138 
Q 2707 1798 2425 1638 
Q 2144 1478 1734 1478 
Q 1088 1478 681 1884 
Q 275 2291 275 2925 
Q 275 3616 720 4025 
Q 1165 4435 1882 4435 
Q 2688 4435 3126 3916 
Q 3565 3398 3565 2438 
Q 3565 1574 3181 963 
Q 2797 352 2201 137 
Q 1606 -77 979 -77 
L 736 -77 
z
M 896 2950 
Q 896 2445 1174 2128 
Q 1453 1811 1875 1811 
Q 2317 1811 2611 2147 
Q 2906 2483 2906 2970 
Q 2906 3475 2618 3814 
Q 2330 4154 1901 4154 
Q 1459 4154 1177 3824 
Q 896 3494 896 2950 
z
" transform="scale(0.015625)"/>
      <path id="STZhongsong-2c" d="M 691 -1133 
L 525 -928 
Q 883 -634 1036 -403 
Q 1190 -173 1158 45 
Q 1037 0 941 0 
Q 800 0 713 99 
Q 627 198 627 339 
Q 627 499 739 604 
Q 851 710 1024 710 
Q 1210 710 1363 540 
Q 1517 371 1517 128 
Q 1517 -211 1331 -486 
Q 1146 -762 691 -1133 
z
" transform="scale(0.015625)"/>
     </defs>
     <use xlink:href="#STZhongsong-39"/>
     <use xlink:href="#STZhongsong-39" transform="translate(61.999985 0)"/>
     <use xlink:href="#STZhongsong-2c" transform="translate(123.999969 0)"/>
     <use xlink:href="#STZhongsong-34" transform="translate(155.999954 0)"/>
     <use xlink:href="#STZhongsong-39" transform="translate(217.999939 0)"/>
     <use xlink:href="#STZhongsong-38" transform="translate(279.999924 0)"/>
    </g>
   </g>
   <g id="text_15">
    <!-- 297,550 -->
    <g style="fill: #111111" transform="translate(403.374062 266.626467) scale(0.15 -0.15)">
     <use xlink:href="#STZhongsong-32"/>
     <use xlink:href="#STZhongsong-39" transform="translate(61.999985 0)"/>
     <use xlink:href="#STZhongsong-37" transform="translate(123.999969 0)"/>
     <use xlink:href="#STZhongsong-2c" transform="translate(185.999954 0)"/>
     <use xlink:href="#STZhongsong-35" transform="translate(217.999939 0)"/>
     <use xlink:href="#STZhongsong-35" transform="translate(279.999924 0)"/>
     <use xlink:href="#STZhongsong-30" transform="translate(341.999908 0)"/>
    </g>
   </g>
   <g id="text_16">
    <!-- 689,300 -->
    <g style="fill: #111111" transform="translate(648.360248 87.62112) scale(0.15 -0.15)">
     <use xlink:href="#STZhongsong-36"/>
     <use xlink:href="#STZhongsong-38" transform="translate(61.999985 0)"/>
     <use xlink:href="#STZhongsong-39" transform="translate(123.999969 0)"/>
     <use xlink:href="#STZhongsong-2c" transform="translate(185.999954 0)"/>
     <use xlink:href="#STZhongsong-33" transform="translate(217.999939 0)"/>
     <use xlink:href="#STZhongsong-30" transform="translate(279.999924 0)"/>
     <use xlink:href="#STZhongsong-30" transform="translate(341.999908 0)"/>
    </g>
   </g>
   <g id="text_17">
    <!-- 阶段一核心CSV数据底板规模 -->
    <g style="fill: #111111" transform="translate(296.124062 22.927031) scale(0.21 -0.21)">
     <defs>
      <path id="STZhongsong-9636" d="M 4160 4147 
Q 3776 3430 3376 2982 
Q 2976 2534 2304 2061 
Q 2464 1830 2464 1488 
Q 2464 1146 2361 963 
Q 2259 781 2054 659 
Q 1850 538 1789 538 
Q 1728 538 1702 666 
Q 1658 922 1133 1094 
L 1139 1210 
Q 1357 1184 1549 1184 
Q 1741 1184 1843 1270 
Q 1946 1357 1946 1600 
Q 1946 1843 1805 2121 
Q 1664 2400 1408 2662 
L 1875 4166 
L 1082 4166 
L 1088 -698 
Q 1088 -800 851 -873 
Q 614 -947 579 -947 
Q 544 -947 544 -883 
L 557 -589 
Q 570 -275 570 -19 
L 570 4006 
Q 570 4467 544 4678 
Q 928 4518 1203 4365 
L 1875 4365 
L 2080 4614 
Q 2106 4646 2160 4646 
Q 2214 4646 2304 4566 
Q 2394 4486 2582 4339 
Q 2771 4192 2771 4150 
Q 2771 4109 2636 4067 
Q 2502 4026 2448 3978 
Q 2394 3930 2150 3546 
L 1606 2707 
Q 2035 2419 2227 2170 
Q 2803 2739 3116 3270 
Q 3430 3802 3763 4806 
Q 4480 4557 4480 4454 
Q 4480 4410 4393 4390 
Q 4307 4371 4275 4339 
Q 4890 3110 6234 2816 
L 6234 2701 
Q 5946 2675 5834 2614 
Q 5722 2554 5651 2400 
Q 5619 2336 5562 2336 
Q 5440 2336 4928 2816 
Q 4416 3296 4160 4147 
z
M 3117 2662 
Q 3827 2509 3827 2438 
Q 3827 2413 3747 2361 
Q 3667 2310 3651 2240 
Q 3635 2170 3629 2022 
Q 3565 691 3469 310 
Q 3373 -70 3149 -371 
Q 2925 -672 1952 -1107 
L 1894 -998 
Q 2381 -627 2608 -358 
Q 2835 -90 2934 265 
Q 3034 621 3072 1008 
Q 3110 1395 3117 2662 
z
M 4371 2592 
Q 4762 2515 4922 2454 
Q 5082 2394 5082 2362 
Q 5082 2323 4928 2221 
L 4928 -179 
Q 4928 -422 4937 -595 
Q 4947 -768 4947 -787 
Q 4947 -883 4729 -976 
Q 4512 -1069 4403 -1069 
Q 4365 -1069 4365 -992 
L 4378 -698 
Q 4384 -397 4384 -147 
L 4384 2022 
Q 4384 2342 4371 2592 
z
" transform="scale(0.015625)"/>
      <path id="STZhongsong-6bb5" d="M 1542 954 
L 3206 1197 
L 3232 1043 
L 1542 538 
L 1542 -787 
Q 1542 -851 1520 -873 
Q 1498 -896 1283 -966 
Q 1069 -1037 986 -1037 
Q 954 -1037 954 -986 
L 966 -685 
Q 979 -378 979 -109 
L 979 365 
Q 723 282 646 214 
Q 570 147 541 147 
Q 512 147 493 179 
Q 474 211 378 432 
Q 282 653 224 813 
Q 499 813 979 870 
L 979 3904 
Q 979 4224 966 4474 
Q 1286 4346 1581 4160 
Q 2106 4410 2662 4832 
Q 3149 4371 3149 4262 
Q 3149 4218 3107 4218 
Q 3066 4218 3008 4240 
Q 2950 4262 2883 4262 
Q 2816 4262 2496 4169 
Q 2176 4077 1542 3942 
L 1542 3200 
L 2208 3200 
L 2400 3501 
Q 2432 3558 2470 3558 
Q 2522 3558 2784 3321 
Q 3046 3085 3046 3037 
Q 3046 2989 2931 2989 
L 1542 2989 
L 1542 2106 
L 2054 2106 
L 2259 2419 
Q 2298 2483 2342 2483 
Q 2387 2483 2627 2249 
Q 2867 2016 2867 1955 
Q 2867 1894 2752 1894 
L 1542 1894 
L 1542 954 
z
M 3827 4173 
Q 3814 3322 3625 2912 
Q 3437 2502 2938 2138 
L 2842 2246 
Q 3117 2573 3203 2861 
Q 3290 3149 3290 3821 
Q 3290 4493 3270 4666 
Q 3501 4582 3853 4371 
L 4480 4371 
L 4614 4595 
Q 4653 4666 4704 4666 
Q 4755 4666 5020 4496 
Q 5286 4326 5286 4275 
Q 5286 4224 5024 4115 
L 5024 3098 
Q 5024 2982 5072 2937 
Q 5120 2893 5350 2893 
Q 5581 2893 5715 3085 
Q 5747 3136 5779 3136 
Q 5811 3136 5849 3091 
Q 5888 3046 6000 2921 
Q 6112 2797 6173 2720 
Q 6234 2643 6234 2598 
Q 6234 2470 5965 2448 
Q 5696 2426 5293 2426 
Q 4890 2426 4762 2435 
Q 4634 2445 4563 2512 
Q 4493 2579 4493 2714 
L 4493 4173 
L 3827 4173 
z
M 4051 -51 
Q 3238 -698 1958 -1056 
L 1907 -928 
Q 3194 -326 3802 269 
Q 3450 806 3219 1875 
Q 3110 1862 3066 1837 
L 2950 2106 
Q 3098 2080 3270 2080 
L 4710 2080 
L 4851 2278 
Q 4890 2336 4941 2336 
Q 4992 2336 5299 2144 
Q 5606 1952 5606 1897 
Q 5606 1843 5421 1792 
Q 5299 1760 5229 1568 
Q 4966 851 4448 307 
Q 5178 -301 6240 -480 
L 6240 -627 
Q 6138 -608 5965 -608 
Q 5792 -608 5609 -694 
Q 5427 -781 5357 -922 
Q 5331 -973 5280 -973 
Q 5171 -973 4710 -627 
Q 4250 -282 4051 -51 
z
M 4122 621 
Q 4531 1139 4710 1882 
L 3373 1882 
Q 3661 1146 4122 621 
z
" transform="scale(0.015625)"/>
      <path id="STZhongsong-4e00" d="M 4832 2099 
L 5197 2586 
Q 5274 2688 5331 2688 
Q 5389 2688 5728 2358 
Q 6067 2029 6067 1958 
Q 6067 1888 5914 1888 
L 582 1888 
Q 410 1888 314 1843 
L 186 2131 
Q 320 2099 506 2099 
L 4832 2099 
z
" transform="scale(0.015625)"/>
      <path id="STZhongsong-6838" d="M 3616 4896 
Q 4544 4570 4544 4243 
Q 4544 4109 4416 3939 
Q 4288 3770 4134 3770 
Q 4070 3770 4038 3827 
Q 4006 3885 3981 4000 
Q 3885 4435 3571 4800 
L 3616 4896 
z
M 1274 3155 
L 672 3155 
Q 512 3155 403 3123 
L 294 3405 
Q 429 3373 608 3373 
L 1395 3373 
L 1395 4115 
Q 1395 4531 1376 4832 
Q 1952 4672 2045 4633 
Q 2138 4595 2138 4540 
Q 2138 4486 1888 4365 
L 1888 3373 
L 2093 3373 
L 2234 3597 
Q 2291 3693 2336 3693 
Q 2381 3693 2624 3478 
Q 2867 3264 2867 3209 
Q 2867 3155 2733 3155 
L 1888 3155 
L 1888 2438 
Q 2336 2330 2496 2218 
Q 2656 2106 2656 1923 
Q 2656 1741 2560 1616 
Q 2464 1491 2374 1491 
Q 2285 1491 2259 1536 
Q 2234 1581 2202 1690 
Q 2061 2214 1888 2330 
L 1888 -691 
Q 1888 -781 1670 -870 
Q 1453 -960 1411 -960 
Q 1370 -960 1370 -909 
L 1382 -557 
Q 1395 -352 1395 -58 
L 1395 2054 
Q 973 1101 294 467 
L 198 544 
Q 608 1114 845 1699 
Q 1082 2285 1274 3155 
z
M 3712 3526 
L 2925 3526 
Q 2829 3526 2714 3494 
L 2624 3750 
Q 2739 3725 2880 3725 
L 5152 3725 
L 5408 4083 
Q 5466 4166 5536 4166 
Q 5587 4166 5686 4083 
Q 5786 4000 5910 3885 
Q 6035 3770 6089 3702 
Q 6144 3635 6144 3597 
Q 6144 3526 5984 3526 
L 4077 3526 
Q 4422 3354 4422 3296 
Q 4422 3251 4288 3222 
Q 4154 3194 4051 3059 
Q 3731 2637 3322 2176 
L 4282 2214 
Q 4518 2586 4736 3072 
Q 5357 2752 5357 2688 
Q 5357 2624 5254 2608 
Q 5152 2592 5113 2563 
Q 5075 2534 4986 2413 
Q 4371 1504 3760 973 
Q 3149 442 2272 -13 
L 2214 96 
Q 3469 1011 4115 1952 
Q 3642 1882 3462 1830 
Q 3283 1779 3177 1715 
Q 3072 1651 3049 1651 
Q 3027 1651 3011 1667 
Q 2995 1683 2921 1814 
Q 2848 1946 2746 2150 
Q 2925 2208 3011 2278 
Q 3098 2349 3306 2675 
Q 3514 3002 3712 3526 
z
M 4499 256 
Q 3661 -525 2234 -973 
L 2189 -851 
Q 4230 64 5286 2080 
Q 5600 1875 5741 1766 
Q 5882 1658 5882 1613 
Q 5882 1555 5757 1545 
Q 5632 1536 5542 1421 
Q 5062 794 4640 390 
Q 5114 224 5360 96 
Q 5606 -32 5692 -137 
Q 5779 -243 5779 -396 
Q 5779 -550 5712 -726 
Q 5645 -902 5523 -902 
Q 5402 -902 5325 -723 
Q 5069 -198 4499 256 
z
" transform="scale(0.015625)"/>
      <path id="STZhongsong-5fc3" d="M 2803 4659 
Q 4045 3891 4045 3392 
Q 4045 3181 3929 2995 
Q 3814 2810 3680 2810 
Q 3603 2810 3523 2890 
Q 3443 2970 3424 3078 
Q 3354 3469 3174 3805 
Q 2995 4141 2714 4531 
L 2803 4659 
z
M 4678 1242 
Q 4698 736 4742 477 
Q 4787 218 4867 106 
Q 4947 -6 5101 -90 
Q 5210 -147 5210 -192 
Q 5210 -237 5094 -425 
Q 4979 -614 4835 -688 
Q 4691 -762 4476 -781 
Q 4262 -800 3632 -800 
Q 3002 -800 2746 -781 
Q 2490 -762 2330 -704 
Q 2170 -646 2128 -524 
Q 2086 -403 2086 -96 
L 2086 2541 
Q 2086 2803 2067 3066 
Q 2374 2995 2649 2892 
Q 2925 2790 2925 2723 
Q 2925 2656 2650 2579 
L 2650 109 
Q 2650 -77 2685 -134 
Q 2720 -192 2771 -205 
Q 2822 -218 3104 -234 
Q 3386 -250 3571 -250 
Q 4166 -250 4281 -118 
Q 4397 13 4518 1242 
L 4678 1242 
z
M 4742 2573 
Q 6099 1754 6099 1165 
Q 6099 966 5958 755 
Q 5818 544 5696 544 
Q 5510 544 5459 845 
Q 5293 1760 4646 2451 
L 4742 2573 
z
M 1466 2304 
Q 1562 1792 1562 1427 
Q 1562 838 1325 579 
Q 1088 320 851 320 
Q 717 320 608 419 
Q 499 518 499 620 
Q 499 723 653 864 
Q 1024 1210 1145 1533 
Q 1267 1856 1312 2304 
L 1466 2304 
z
" transform="scale(0.015625)"/>
      <path id="STZhongsong-43" d="M 3776 4358 
L 4000 4358 
L 4397 2906 
L 4109 2822 
Q 3853 3469 3494 3785 
Q 3136 4102 2592 4102 
Q 1920 4102 1472 3571 
Q 1024 3040 1024 2227 
Q 1024 1382 1501 844 
Q 1978 307 2669 307 
Q 3085 307 3517 544 
Q 3949 781 4275 1210 
L 4525 1043 
Q 4154 493 3638 208 
Q 3123 -77 2522 -77 
Q 1600 -77 973 569 
Q 346 1216 346 2163 
Q 346 2771 640 3299 
Q 934 3827 1446 4131 
Q 1958 4435 2541 4435 
Q 3155 4435 3674 4070 
L 3776 4358 
z
" transform="scale(0.015625)"/>
      <path id="STZhongsong-53" d="M 3238 4358 
L 3462 4358 
L 3795 3014 
L 3507 2931 
Q 3238 3488 2828 3789 
Q 2419 4090 1946 4090 
Q 1542 4090 1280 3894 
Q 1018 3699 1018 3418 
Q 1018 3162 1232 2986 
Q 1446 2810 1920 2669 
L 2733 2432 
Q 3354 2253 3654 1955 
Q 3955 1658 3955 1222 
Q 3955 691 3488 307 
Q 3021 -77 2323 -77 
Q 1920 -77 1625 44 
Q 1331 166 1024 416 
L 883 0 
L 666 0 
L 371 1568 
L 666 1626 
Q 896 986 1353 630 
Q 1811 275 2323 275 
Q 2746 275 3069 515 
Q 3392 755 3392 1082 
Q 3392 1389 3168 1568 
Q 2944 1747 2451 1888 
L 1670 2112 
Q 1062 2285 768 2573 
Q 474 2861 474 3283 
Q 474 3750 902 4092 
Q 1331 4435 1984 4435 
Q 2656 4435 3104 4058 
L 3238 4358 
z
" transform="scale(0.015625)"/>
      <path id="STZhongsong-56" d="M 6 4358 
L 1600 4358 
L 1600 4096 
L 1472 4096 
Q 1280 4096 1209 4057 
Q 1139 4019 1139 3930 
Q 1139 3840 1197 3680 
L 2355 589 
L 3520 3680 
Q 3584 3827 3584 3917 
Q 3584 4013 3510 4054 
Q 3437 4096 3264 4096 
L 3123 4096 
L 3123 4358 
L 4474 4358 
L 4474 4096 
Q 4237 4096 4134 4013 
Q 4032 3930 3936 3680 
L 2451 -77 
L 2010 -77 
L 544 3680 
Q 442 3930 342 4013 
Q 243 4096 6 4096 
L 6 4358 
z
" transform="scale(0.015625)"/>
      <path id="STZhongsong-636e" d="M 1261 3085 
L 582 3085 
Q 422 3085 307 3053 
L 198 3302 
Q 333 3270 518 3270 
L 1261 3270 
L 1261 4109 
Q 1261 4480 1248 4800 
Q 1619 4698 1811 4618 
Q 2003 4538 2003 4502 
Q 2003 4467 1779 4378 
L 1779 3270 
L 1882 3270 
L 2080 3558 
Q 2125 3622 2173 3622 
Q 2221 3622 2256 3590 
Q 2291 3558 2441 3408 
Q 2592 3258 2624 3219 
Q 2656 3181 2656 3149 
Q 2656 3085 2547 3085 
L 1779 3085 
L 1779 2234 
L 2554 2605 
L 2605 2483 
L 1779 1901 
L 1779 -282 
Q 1779 -422 1708 -521 
Q 1638 -621 1404 -761 
Q 1171 -902 1114 -902 
Q 1069 -902 1043 -813 
Q 992 -627 861 -531 
Q 730 -435 358 -333 
L 397 -218 
Q 806 -262 985 -262 
Q 1165 -262 1213 -217 
Q 1261 -173 1261 -45 
L 1261 1530 
Q 851 1235 771 1136 
Q 691 1037 643 1037 
Q 595 1037 576 1062 
L 416 1274 
Q 282 1446 192 1581 
Q 800 1773 1261 1990 
L 1261 3085 
z
M 3302 4378 
L 4902 4378 
L 5069 4621 
Q 5120 4704 5171 4704 
Q 5210 4704 5482 4515 
Q 5754 4326 5754 4282 
Q 5754 4224 5517 4109 
L 5517 3373 
Q 5517 3219 5526 3158 
Q 5536 3098 5536 3062 
Q 5536 3027 5475 2985 
Q 5414 2944 5248 2877 
Q 5082 2810 5027 2810 
Q 4973 2810 4973 2906 
L 4973 3136 
L 3226 3136 
Q 3187 2291 3174 2099 
L 4096 2099 
L 4096 2598 
Q 4096 2810 4077 3066 
Q 4755 2963 4755 2880 
Q 4755 2835 4595 2746 
L 4595 2099 
L 5286 2099 
L 5530 2426 
Q 5581 2496 5606 2496 
Q 5651 2496 5923 2243 
Q 6195 1990 6195 1948 
Q 6195 1907 6048 1907 
L 4595 1907 
L 4595 947 
L 4947 947 
L 5062 1165 
Q 5107 1254 5155 1254 
Q 5203 1254 5459 1084 
Q 5715 915 5715 870 
Q 5715 826 5549 749 
L 5549 -346 
L 5562 -640 
Q 5562 -691 5504 -736 
Q 5446 -781 5283 -848 
Q 5120 -915 5065 -915 
Q 5011 -915 5011 -826 
L 5011 -435 
L 3712 -435 
L 3712 -755 
Q 3712 -851 3673 -880 
Q 3635 -909 3475 -963 
Q 3315 -1018 3245 -1018 
Q 3206 -1018 3213 -934 
Q 3238 -723 3238 -480 
L 3238 634 
Q 3238 902 3219 1178 
Q 3494 1094 3763 947 
L 4096 947 
L 4096 1907 
L 3162 1907 
Q 3098 864 2794 288 
Q 2490 -288 1715 -998 
L 1626 -922 
Q 2426 -19 2570 925 
Q 2714 1869 2714 3232 
Q 2714 3827 2682 4646 
Q 3066 4518 3302 4378 
z
M 4973 3315 
L 4973 4186 
L 3258 4186 
Q 3258 3981 3232 3315 
L 4973 3315 
z
M 5011 -262 
L 5011 762 
L 3712 762 
L 3712 -262 
L 5011 -262 
z
" transform="scale(0.015625)"/>
      <path id="STZhongsong-5e95" d="M 3386 4045 
Q 3187 4486 2835 4800 
L 2880 4915 
Q 3302 4851 3587 4748 
Q 3872 4646 3872 4461 
Q 3872 4352 3805 4233 
Q 3738 4115 3616 4045 
L 4845 4045 
L 5120 4422 
Q 5171 4493 5241 4493 
Q 5312 4493 5398 4429 
Q 5485 4365 5629 4230 
Q 5773 4096 5840 4019 
Q 5907 3942 5907 3897 
Q 5907 3853 5766 3853 
L 1651 3853 
Q 1613 2394 1555 1616 
Q 1498 838 1258 249 
Q 1018 -339 371 -1050 
L 288 -986 
Q 800 -70 928 771 
Q 1056 1613 1056 3085 
Q 1056 3738 1030 4346 
Q 1338 4243 1702 4045 
L 3386 4045 
z
M 3629 1670 
L 2598 1670 
L 2598 154 
Q 2925 378 3526 755 
L 3629 659 
Q 2528 -486 2394 -723 
Q 2342 -819 2291 -819 
Q 2195 -819 1862 -314 
Q 2080 -64 2080 186 
L 2080 2566 
Q 2080 2989 2061 3277 
Q 2528 3142 2765 3014 
Q 3878 3206 4858 3616 
Q 5056 3424 5203 3248 
Q 5350 3072 5350 3027 
Q 5350 2982 5292 2982 
Q 5235 2982 5158 3008 
Q 5082 3034 4986 3034 
Q 4890 3034 4614 3002 
L 3974 2918 
Q 4006 2304 4096 1862 
L 4902 1862 
L 5126 2182 
Q 5197 2278 5280 2278 
Q 5363 2278 5625 2038 
Q 5888 1798 5888 1734 
Q 5888 1670 5754 1670 
L 4134 1670 
Q 4262 1152 4473 790 
Q 4685 429 4976 179 
Q 5267 -70 5334 -70 
Q 5402 -70 5450 6 
Q 5498 83 5610 419 
Q 5722 755 5798 1030 
L 5933 1011 
Q 5856 448 5856 13 
Q 5856 -422 6048 -723 
Q 6099 -806 6099 -858 
Q 6099 -947 5933 -947 
Q 5606 -947 5097 -649 
Q 4589 -352 4205 211 
Q 3821 774 3629 1670 
z
M 2598 1862 
L 3590 1862 
Q 3514 2310 3475 2854 
Q 2925 2790 2598 2784 
L 2598 1862 
z
M 3309 173 
Q 3757 19 4000 -141 
Q 4243 -301 4243 -473 
Q 4243 -646 4105 -822 
Q 3968 -998 3853 -998 
Q 3789 -998 3763 -953 
Q 3738 -909 3696 -742 
Q 3654 -576 3558 -390 
Q 3462 -205 3245 64 
L 3309 173 
z
" transform="scale(0.015625)"/>
      <path id="STZhongsong-89c4" d="M 1824 3206 
Q 1798 2362 1786 2214 
L 2163 2214 
L 2374 2502 
Q 2432 2573 2464 2573 
Q 2528 2573 2761 2349 
Q 2995 2125 2995 2070 
Q 2995 2016 2861 2016 
L 1773 2016 
Q 1760 1722 1709 1389 
Q 2752 813 2752 365 
Q 2752 218 2633 45 
Q 2515 -128 2438 -128 
Q 2362 -128 2326 -77 
Q 2291 -26 2234 186 
Q 2048 877 1683 1235 
Q 1542 493 1251 51 
Q 960 -390 262 -986 
L 166 -896 
Q 499 -525 694 -233 
Q 890 58 1027 502 
Q 1165 947 1216 1180 
Q 1267 1414 1299 2016 
L 627 2016 
Q 454 2016 358 1971 
L 243 2246 
Q 378 2214 563 2214 
L 1306 2214 
L 1331 3206 
L 762 3206 
Q 589 3206 493 3162 
L 378 3450 
Q 512 3418 698 3418 
L 1331 3418 
Q 1344 4122 1312 4838 
Q 2048 4627 2048 4512 
Q 2048 4467 1945 4416 
Q 1843 4365 1837 4230 
L 1824 3418 
L 2042 3418 
L 2266 3699 
Q 2323 3776 2374 3776 
Q 2426 3776 2653 3552 
Q 2880 3328 2880 3267 
Q 2880 3206 2752 3206 
L 1824 3206 
z
M 3610 4256 
L 4832 4256 
L 4986 4499 
Q 5037 4582 5091 4582 
Q 5146 4582 5418 4396 
Q 5690 4211 5690 4134 
Q 5690 4058 5414 3917 
L 5414 1824 
Q 5414 1587 5421 1498 
L 5434 1325 
Q 5434 1261 5206 1165 
Q 4979 1069 4950 1069 
Q 4922 1069 4922 1139 
L 4922 4058 
L 3501 4058 
L 3501 1197 
Q 3501 1146 3469 1120 
Q 3437 1094 3238 995 
Q 3040 896 3014 896 
Q 2989 896 2989 954 
L 3002 1254 
Q 3014 1555 3014 1818 
L 3014 4013 
Q 3014 4294 2995 4563 
Q 3296 4454 3610 4256 
z
M 4102 838 
Q 3667 -250 2042 -1101 
L 1990 -992 
Q 2790 -410 3190 96 
Q 3590 602 3744 1187 
Q 3898 1773 3898 2950 
Q 3898 3251 3885 3584 
Q 4422 3450 4489 3434 
Q 4557 3418 4589 3392 
Q 4621 3366 4621 3318 
Q 4621 3270 4550 3232 
Q 4480 3194 4461 3142 
Q 4442 3091 4435 2912 
Q 4384 1952 4294 1427 
Q 4736 1267 4736 1212 
Q 4736 1158 4602 1075 
L 4602 -211 
Q 4602 -294 4621 -323 
Q 4640 -352 4678 -361 
Q 4717 -371 4877 -390 
Q 5037 -410 5177 -410 
Q 5318 -410 5401 -381 
Q 5485 -352 5561 -99 
Q 5638 154 5709 890 
L 5843 890 
Q 5837 659 5837 512 
Q 5837 90 5894 -57 
Q 5952 -205 6131 -339 
Q 6208 -397 6208 -457 
Q 6208 -518 6073 -675 
Q 5939 -832 5769 -873 
Q 5600 -915 5241 -915 
Q 4883 -915 4611 -873 
Q 4339 -832 4249 -784 
Q 4160 -736 4131 -627 
Q 4102 -518 4102 -269 
L 4102 838 
z
" transform="scale(0.015625)"/>
      <path id="STZhongsong-6a21" d="M 4730 4013 
L 5235 4013 
L 5459 4339 
Q 5504 4403 5536 4403 
Q 5600 4403 5894 4179 
Q 6189 3955 6189 3891 
Q 6189 3827 6035 3827 
L 4730 3827 
L 4749 3450 
Q 4749 3405 4710 3376 
Q 4672 3347 4518 3302 
Q 4365 3258 4310 3258 
Q 4256 3258 4256 3347 
L 4256 3827 
L 3610 3827 
L 3610 3418 
Q 3610 3360 3584 3334 
Q 3558 3309 3430 3270 
Q 3302 3232 3136 3232 
Q 3085 3232 3085 3309 
L 3104 3827 
L 2586 3827 
Q 2419 3827 2349 3795 
L 2208 4045 
Q 2330 4013 2496 4013 
L 3104 4013 
L 3104 4397 
Q 3104 4608 3085 4864 
Q 3770 4730 3770 4653 
Q 3770 4614 3610 4525 
L 3610 4013 
L 4256 4013 
L 4256 4429 
Q 4256 4640 4237 4896 
Q 4614 4800 4764 4755 
Q 4915 4710 4915 4672 
Q 4915 4614 4730 4518 
L 4730 4013 
z
M 1702 3322 
L 1850 3322 
L 1997 3571 
Q 2048 3654 2086 3654 
Q 2118 3654 2355 3478 
Q 2592 3302 2592 3232 
Q 2592 3155 2496 3155 
L 1702 3155 
L 1702 2554 
Q 2118 2413 2336 2269 
Q 2554 2125 2554 1965 
Q 2554 1805 2451 1645 
Q 2349 1485 2246 1485 
Q 2176 1485 2147 1520 
Q 2118 1555 2073 1744 
Q 2029 1933 1923 2147 
Q 1818 2362 1702 2451 
L 1702 -806 
Q 1702 -870 1641 -908 
Q 1581 -947 1414 -1004 
Q 1248 -1062 1190 -1062 
Q 1152 -1062 1152 -998 
L 1165 -736 
Q 1171 -467 1171 -141 
L 1171 1869 
Q 845 1126 192 358 
L 96 435 
Q 442 973 643 1536 
Q 845 2099 1107 3155 
L 589 3155 
Q 422 3155 314 3123 
L 205 3354 
Q 339 3322 525 3322 
L 1171 3322 
L 1171 4166 
Q 1171 4582 1152 4890 
Q 1600 4787 1763 4739 
Q 1926 4691 1926 4640 
Q 1926 4576 1702 4448 
L 1702 3322 
z
M 4090 704 
L 5254 704 
L 5459 1037 
Q 5504 1114 5565 1114 
Q 5626 1114 5898 867 
Q 6170 621 6170 569 
Q 6170 518 6042 518 
L 4269 518 
Q 4698 -237 6208 -467 
L 6208 -595 
Q 5965 -608 5827 -665 
Q 5690 -723 5517 -934 
Q 5485 -973 5453 -973 
Q 5402 -973 4986 -697 
Q 4570 -422 4390 -169 
Q 4211 83 4102 518 
L 4045 518 
Q 3872 -128 3421 -454 
Q 2970 -781 1971 -1158 
L 1907 -1037 
Q 2650 -659 3008 -323 
Q 3366 13 3501 518 
L 2246 518 
Q 2099 518 1997 486 
L 1901 730 
Q 2029 704 2189 704 
L 3546 704 
Q 3610 979 3622 1414 
L 3194 1414 
L 3194 1267 
Q 3194 1203 3152 1168 
Q 3110 1133 2940 1078 
Q 2771 1024 2716 1024 
Q 2662 1024 2662 1082 
L 2675 1248 
Q 2694 1440 2694 1638 
L 2694 2790 
Q 2694 3027 2675 3277 
Q 3014 3181 3251 3066 
L 4755 3066 
L 4928 3296 
Q 4966 3347 5008 3347 
Q 5050 3347 5229 3248 
Q 5408 3149 5501 3097 
Q 5594 3046 5594 2976 
Q 5594 2906 5350 2758 
L 5350 1587 
L 5363 1306 
Q 5363 1229 5139 1149 
Q 4915 1069 4867 1069 
Q 4819 1069 4819 1139 
L 4819 1414 
L 4179 1414 
Q 4160 1043 4090 704 
z
M 3194 2342 
L 4819 2342 
L 4819 2880 
L 3194 2880 
L 3194 2342 
z
M 4819 2157 
L 3194 2157 
L 3194 1587 
L 4819 1587 
L 4819 2157 
z
" transform="scale(0.015625)"/>
     </defs>
     <use xlink:href="#STZhongsong-9636"/>
     <use xlink:href="#STZhongsong-6bb5" transform="translate(99.999985 0)"/>
     <use xlink:href="#STZhongsong-4e00" transform="translate(199.999969 0)"/>
     <use xlink:href="#STZhongsong-6838" transform="translate(299.999954 0)"/>
     <use xlink:href="#STZhongsong-5fc3" transform="translate(399.999939 0)"/>
     <use xlink:href="#STZhongsong-43" transform="translate(499.999924 0)"/>
     <use xlink:href="#STZhongsong-53" transform="translate(573.999908 0)"/>
     <use xlink:href="#STZhongsong-56" transform="translate(639.999893 0)"/>
     <use xlink:href="#STZhongsong-6570" transform="translate(709.999878 0)"/>
     <use xlink:href="#STZhongsong-636e" transform="translate(809.999863 0)"/>
     <use xlink:href="#STZhongsong-5e95" transform="translate(909.999847 0)"/>
     <use xlink:href="#STZhongsong-677f" transform="translate(1009.999832 0)"/>
     <use xlink:href="#STZhongsong-89c4" transform="translate(1109.999817 0)"/>
     <use xlink:href="#STZhongsong-6a21" transform="translate(1209.999802 0)"/>
    </g>
   </g>
  </g>
 </g>
 <defs>
  <clipPath id="p9ac77fe8d6">
   <rect x="90.080938" y="38.927031" width="687.18625" height="371.66125"/>
  </clipPath>
 </defs>
</svg>
