<?xml version="1.0" encoding="utf-8" standalone="no"?>
<!DOCTYPE svg PUBLIC "-//W3C//DTD SVG 1.1//EN"
  "http://www.w3.org/Graphics/SVG/1.1/DTD/svg11.dtd">
<svg xmlns:xlink="http://www.w3.org/1999/xlink" width="856.385pt" height="600.086812pt" viewBox="0 0 856.385 600.086812" xmlns="http://www.w3.org/2000/svg" version="1.1">
 <metadata>
  <rdf:RDF xmlns:dc="http://purl.org/dc/elements/1.1/" xmlns:cc="http://creativecommons.org/ns#" xmlns:rdf="http://www.w3.org/1999/02/22-rdf-syntax-ns#">
   <cc:Work>
    <dc:type rdf:resource="http://purl.org/dc/dcmitype/StillImage"/>
    <dc:date>2026-06-06T01:21:08.118725</dc:date>
    <dc:format>image/svg+xml</dc:format>
    <dc:creator>
     <cc:Agent>
      <dc:title>Matplotlib v3.10.0, https://matplotlib.org/</dc:title>
     </cc:Agent>
    </dc:creator>
   </cc:Work>
  </rdf:RDF>
 </metadata>
 <defs>
  <style type="text/css">*{stroke-linejoin: round; stroke-linecap: butt}</style>
 </defs>
 <g id="figure_1">
  <g id="patch_1">
   <path d="M 0 600.086812 
L 856.385 600.086812 
L 856.385 0 
L 0 0 
z
" style="fill: #ffffff"/>
  </g>
  <g id="axes_1">
   <g id="patch_2">
    <path d="M 71.38 294.844625 
L 849.185 294.844625 
L 849.185 76.22025 
L 71.38 76.22025 
z
" style="fill: #ffffff"/>
   </g>
   <g id="patch_3">
    <path d="M 106.734773 294.844625 
L 149.54431 294.844625 
L 149.54431 234.718065 
L 106.734773 234.718065 
z
" clip-path="url(#pa3de13a91f)" style="fill: #9cc3a5"/>
   </g>
   <g id="patch_4">
    <path d="M 180.544319 294.844625 
L 223.353856 294.844625 
L 223.353856 183.3175 
L 180.544319 183.3175 
z
" clip-path="url(#pa3de13a91f)" style="fill: #9cc3a5"/>
   </g>
   <g id="patch_5">
    <path d="M 254.353866 294.844625 
L 297.163402 294.844625 
L 297.163402 133.254496 
L 254.353866 133.254496 
z
" clip-path="url(#pa3de13a91f)" style="fill: #9cc3a5"/>
   </g>
   <g id="patch_6">
    <path d="M 328.163412 294.844625 
L 370.972949 294.844625 
L 370.972949 102.872749 
L 328.163412 102.872749 
z
" clip-path="url(#pa3de13a91f)" style="fill: #9cc3a5"/>
   </g>
   <g id="patch_7">
    <path d="M 401.972958 294.844625 
L 444.782495 294.844625 
L 444.782495 98.668985 
L 401.972958 98.668985 
z
" clip-path="url(#pa3de13a91f)" style="fill: #9cc3a5"/>
   </g>
   <g id="patch_8">
    <path d="M 475.782505 294.844625 
L 518.592042 294.844625 
L 518.592042 102.363202 
L 475.782505 102.363202 
z
" clip-path="url(#pa3de13a91f)" style="fill: #9cc3a5"/>
   </g>
   <g id="patch_9">
    <path d="M 549.592051 294.844625 
L 592.401588 294.844625 
L 592.401588 105.802645 
L 549.592051 105.802645 
z
" clip-path="url(#pa3de13a91f)" style="fill: #9cc3a5"/>
   </g>
   <g id="patch_10">
    <path d="M 623.401598 294.844625 
L 666.211134 294.844625 
L 666.211134 99.624386 
L 623.401598 99.624386 
z
" clip-path="url(#pa3de13a91f)" style="fill: #9cc3a5"/>
   </g>
   <g id="patch_11">
    <path d="M 697.211144 294.844625 
L 740.020681 294.844625 
L 740.020681 90.452538 
L 697.211144 90.452538 
z
" clip-path="url(#pa3de13a91f)" style="fill: #9cc3a5"/>
   </g>
   <g id="patch_12">
    <path d="M 771.02069 294.844625 
L 813.830227 294.844625 
L 813.830227 86.630935 
L 771.02069 86.630935 
z
" clip-path="url(#pa3de13a91f)" style="fill: #9cc3a5"/>
   </g>
   <g id="matplotlib.axis_1">
    <g id="xtick_1">
     <g id="line2d_1">
      <defs>
       <path id="mc6a2ec059a" d="M 0 0 
L 0 3.5 
" style="stroke: #111111; stroke-width: 0.8"/>
      </defs>
      <g>
       <use xlink:href="#mc6a2ec059a" x="201.949088" y="294.844625" style="fill: #111111; stroke: #111111; stroke-width: 0.8"/>
      </g>
     </g>
    </g>
    <g id="xtick_2">
     <g id="line2d_2">
      <g>
       <use xlink:href="#mc6a2ec059a" x="349.56818" y="294.844625" style="fill: #111111; stroke: #111111; stroke-width: 0.8"/>
      </g>
     </g>
    </g>
    <g id="xtick_3">
     <g id="line2d_3">
      <g>
       <use xlink:href="#mc6a2ec059a" x="497.187273" y="294.844625" style="fill: #111111; stroke: #111111; stroke-width: 0.8"/>
      </g>
     </g>
    </g>
    <g id="xtick_4">
     <g id="line2d_4">
      <g>
       <use xlink:href="#mc6a2ec059a" x="644.806366" y="294.844625" style="fill: #111111; stroke: #111111; stroke-width: 0.8"/>
      </g>
     </g>
    </g>
    <g id="xtick_5">
     <g id="line2d_5">
      <g>
       <use xlink:href="#mc6a2ec059a" x="792.425459" y="294.844625" style="fill: #111111; stroke: #111111; stroke-width: 0.8"/>
      </g>
     </g>
    </g>
   </g>
   <g id="matplotlib.axis_2">
    <g id="ytick_1">
     <g id="line2d_6">
      <path d="M 71.38 294.844625 
L 849.185 294.844625 
" clip-path="url(#pa3de13a91f)" style="fill: none; stroke: #ececec; stroke-width: 0.9; stroke-linecap: square"/>
     </g>
     <g id="line2d_7">
      <defs>
       <path id="m6f21b6498f" d="M 0 0 
L -3.5 0 
" style="stroke: #111111; stroke-width: 0.8"/>
      </defs>
      <g>
       <use xlink:href="#m6f21b6498f" x="71.38" y="294.844625" style="fill: #111111; stroke: #111111; stroke-width: 0.8"/>
      </g>
     </g>
     <g id="text_1">
      <!-- 0 -->
      <g style="fill: #111111" transform="translate(55.08 300.214156) scale(0.15 -0.15)">
       <defs>
        <path id="STZhongsong-30" d="M 326 2182 
Q 326 3251 774 3843 
Q 1222 4435 1997 4435 
Q 2752 4435 3197 3827 
Q 3642 3219 3642 2144 
Q 3642 1139 3178 531 
Q 2714 -77 1952 -77 
Q 1229 -77 777 524 
Q 326 1126 326 2182 
z
M 3040 2182 
Q 3040 3104 2758 3616 
Q 2477 4128 1978 4128 
Q 1478 4128 1200 3590 
Q 922 3053 922 2118 
Q 922 1229 1210 733 
Q 1498 237 1971 237 
Q 2470 237 2755 752 
Q 3040 1267 3040 2182 
z
" transform="scale(0.015625)"/>
       </defs>
       <use xlink:href="#STZhongsong-30"/>
      </g>
     </g>
    </g>
    <g id="ytick_2">
     <g id="line2d_8">
      <path d="M 71.38 262.99793 
L 849.185 262.99793 
" clip-path="url(#pa3de13a91f)" style="fill: none; stroke: #ececec; stroke-width: 0.9; stroke-linecap: square"/>
     </g>
     <g id="line2d_9">
      <g>
       <use xlink:href="#m6f21b6498f" x="71.38" y="262.99793" style="fill: #111111; stroke: #111111; stroke-width: 0.8"/>
      </g>
     </g>
     <g id="text_2">
      <!-- 500 -->
      <g style="fill: #111111" transform="translate(36.48 268.367461) scale(0.15 -0.15)">
       <defs>
        <path id="STZhongsong-35" d="M 934 4358 
L 2880 4358 
Q 3046 4358 3097 4387 
Q 3149 4416 3155 4512 
L 3386 4512 
L 3386 3853 
L 1229 3853 
L 1171 2752 
Q 1530 2848 1990 2848 
Q 2771 2848 3228 2451 
Q 3686 2054 3686 1414 
Q 3686 787 3212 355 
Q 2739 -77 2029 -77 
Q 1414 -77 982 236 
Q 550 550 550 890 
Q 550 1037 640 1123 
Q 730 1210 838 1210 
Q 1062 1210 1203 813 
Q 1421 218 2042 218 
Q 2515 218 2819 528 
Q 3123 838 3123 1312 
Q 3123 1824 2777 2128 
Q 2432 2432 1843 2432 
Q 1280 2432 832 2246 
L 934 4358 
z
" transform="scale(0.015625)"/>
       </defs>
       <use xlink:href="#STZhongsong-35"/>
       <use xlink:href="#STZhongsong-30" transform="translate(61.999985 0)"/>
       <use xlink:href="#STZhongsong-30" transform="translate(123.999969 0)"/>
      </g>
     </g>
    </g>
    <g id="ytick_3">
     <g id="line2d_10">
      <path d="M 71.38 231.151235 
L 849.185 231.151235 
" clip-path="url(#pa3de13a91f)" style="fill: none; stroke: #ececec; stroke-width: 0.9; stroke-linecap: square"/>
     </g>
     <g id="line2d_11">
      <g>
       <use xlink:href="#m6f21b6498f" x="71.38" y="231.151235" style="fill: #111111; stroke: #111111; stroke-width: 0.8"/>
      </g>
     </g>
     <g id="text_3">
      <!-- 1000 -->
      <g style="fill: #111111" transform="translate(27.18 236.520767) scale(0.15 -0.15)">
       <defs>
        <path id="STZhongsong-31" d="M 2150 4358 
L 2387 4358 
L 2387 742 
Q 2387 422 2464 342 
Q 2541 262 2822 262 
L 3130 262 
L 3130 0 
L 1069 0 
L 1069 262 
L 1408 262 
Q 1670 262 1766 348 
Q 1862 435 1862 742 
L 1862 3718 
L 1069 3718 
L 1069 3987 
Q 1709 4070 2150 4358 
z
" transform="scale(0.015625)"/>
       </defs>
       <use xlink:href="#STZhongsong-31"/>
       <use xlink:href="#STZhongsong-30" transform="translate(61.999985 0)"/>
       <use xlink:href="#STZhongsong-30" transform="translate(123.999969 0)"/>
       <use xlink:href="#STZhongsong-30" transform="translate(185.999954 0)"/>
      </g>
     </g>
    </g>
    <g id="ytick_4">
     <g id="line2d_12">
      <path d="M 71.38 199.304541 
L 849.185 199.304541 
" clip-path="url(#pa3de13a91f)" style="fill: none; stroke: #ececec; stroke-width: 0.9; stroke-linecap: square"/>
     </g>
     <g id="line2d_13">
      <g>
       <use xlink:href="#m6f21b6498f" x="71.38" y="199.304541" style="fill: #111111; stroke: #111111; stroke-width: 0.8"/>
      </g>
     </g>
     <g id="text_4">
      <!-- 1500 -->
      <g style="fill: #111111" transform="translate(27.18 204.674072) scale(0.15 -0.15)">
       <use xlink:href="#STZhongsong-31"/>
       <use xlink:href="#STZhongsong-35" transform="translate(61.999985 0)"/>
       <use xlink:href="#STZhongsong-30" transform="translate(123.999969 0)"/>
       <use xlink:href="#STZhongsong-30" transform="translate(185.999954 0)"/>
      </g>
     </g>
    </g>
    <g id="ytick_5">
     <g id="line2d_14">
      <path d="M 71.38 167.457846 
L 849.185 167.457846 
" clip-path="url(#pa3de13a91f)" style="fill: none; stroke: #ececec; stroke-width: 0.9; stroke-linecap: square"/>
     </g>
     <g id="line2d_15">
      <g>
       <use xlink:href="#m6f21b6498f" x="71.38" y="167.457846" style="fill: #111111; stroke: #111111; stroke-width: 0.8"/>
      </g>
     </g>
     <g id="text_5">
      <!-- 2000 -->
      <g style="fill: #111111" transform="translate(27.18 172.827377) scale(0.15 -0.15)">
       <defs>
        <path id="STZhongsong-32" d="M 723 2714 
L 422 2675 
Q 397 2835 397 2989 
Q 397 3616 832 4025 
Q 1267 4435 1978 4435 
Q 2630 4435 3043 4064 
Q 3456 3693 3456 3098 
Q 3456 2669 3286 2349 
Q 3117 2029 2611 1603 
Q 2106 1178 1037 467 
L 2662 467 
Q 2963 467 3062 544 
Q 3162 621 3200 838 
L 3232 1018 
L 3494 1018 
L 3283 -154 
L 3085 -154 
L 3053 0 
L 320 0 
L 320 262 
L 819 640 
Q 1901 1453 2377 1977 
Q 2854 2502 2854 3066 
Q 2854 3507 2569 3788 
Q 2285 4070 1837 4070 
Q 1325 4070 1017 3753 
Q 710 3437 710 2918 
Q 710 2822 723 2714 
z
" transform="scale(0.015625)"/>
       </defs>
       <use xlink:href="#STZhongsong-32"/>
       <use xlink:href="#STZhongsong-30" transform="translate(61.999985 0)"/>
       <use xlink:href="#STZhongsong-30" transform="translate(123.999969 0)"/>
       <use xlink:href="#STZhongsong-30" transform="translate(185.999954 0)"/>
      </g>
     </g>
    </g>
    <g id="ytick_6">
     <g id="line2d_16">
      <path d="M 71.38 135.611151 
L 849.185 135.611151 
" clip-path="url(#pa3de13a91f)" style="fill: none; stroke: #ececec; stroke-width: 0.9; stroke-linecap: square"/>
     </g>
     <g id="line2d_17">
      <g>
       <use xlink:href="#m6f21b6498f" x="71.38" y="135.611151" style="fill: #111111; stroke: #111111; stroke-width: 0.8"/>
      </g>
     </g>
     <g id="text_6">
      <!-- 2500 -->
      <g style="fill: #111111" transform="translate(27.18 140.980682) scale(0.15 -0.15)">
       <use xlink:href="#STZhongsong-32"/>
       <use xlink:href="#STZhongsong-35" transform="translate(61.999985 0)"/>
       <use xlink:href="#STZhongsong-30" transform="translate(123.999969 0)"/>
       <use xlink:href="#STZhongsong-30" transform="translate(185.999954 0)"/>
      </g>
     </g>
    </g>
    <g id="ytick_7">
     <g id="line2d_18">
      <path d="M 71.38 103.764456 
L 849.185 103.764456 
" clip-path="url(#pa3de13a91f)" style="fill: none; stroke: #ececec; stroke-width: 0.9; stroke-linecap: square"/>
     </g>
     <g id="line2d_19">
      <g>
       <use xlink:href="#m6f21b6498f" x="71.38" y="103.764456" style="fill: #111111; stroke: #111111; stroke-width: 0.8"/>
      </g>
     </g>
     <g id="text_7">
      <!-- 3000 -->
      <g style="fill: #111111" transform="translate(27.18 109.133988) scale(0.15 -0.15)">
       <defs>
        <path id="STZhongsong-33" d="M 934 3194 
L 634 3238 
Q 717 3827 1097 4131 
Q 1478 4435 2061 4435 
Q 2662 4435 3046 4124 
Q 3430 3814 3430 3360 
Q 3430 3021 3190 2761 
Q 2950 2502 2502 2374 
Q 3046 2298 3334 1974 
Q 3622 1651 3622 1222 
Q 3622 698 3155 310 
Q 2688 -77 1997 -77 
Q 1299 -77 844 275 
Q 390 627 390 960 
Q 390 1114 505 1184 
Q 621 1254 710 1254 
Q 922 1254 1043 858 
Q 1133 544 1369 377 
Q 1606 211 1952 211 
Q 2419 211 2720 512 
Q 3021 813 3021 1267 
Q 3021 1702 2717 1952 
Q 2413 2202 1862 2202 
L 1568 2202 
L 1568 2502 
L 1754 2502 
Q 2829 2502 2829 3283 
Q 2829 3629 2592 3843 
Q 2355 4058 1952 4058 
Q 1107 4058 934 3194 
z
" transform="scale(0.015625)"/>
       </defs>
       <use xlink:href="#STZhongsong-33"/>
       <use xlink:href="#STZhongsong-30" transform="translate(61.999985 0)"/>
       <use xlink:href="#STZhongsong-30" transform="translate(123.999969 0)"/>
       <use xlink:href="#STZhongsong-30" transform="translate(185.999954 0)"/>
      </g>
     </g>
    </g>
    <g id="text_8">
     <!-- 活跃格网数量 -->
     <g style="fill: #111111" transform="translate(19.78 236.532437) rotate(-90) scale(0.17 -0.17)">
      <defs>
       <path id="STZhongsong-6d3b" d="M 1018 4704 
Q 1645 4499 1865 4358 
Q 2086 4218 2086 4032 
Q 2086 3846 1964 3667 
Q 1843 3488 1734 3488 
Q 1683 3488 1657 3520 
Q 1632 3552 1545 3782 
Q 1459 4013 1318 4214 
Q 1178 4416 966 4608 
L 1018 4704 
z
M 3731 3814 
Q 3021 3750 2713 3750 
Q 2406 3750 2304 3757 
L 2298 3891 
Q 3053 4006 3933 4227 
Q 4813 4448 5293 4640 
Q 5414 4531 5580 4342 
Q 5747 4154 5769 4112 
Q 5792 4070 5792 4032 
Q 5792 3994 5734 3994 
Q 5715 3994 5632 4022 
Q 5549 4051 5462 4051 
Q 5376 4051 5081 3990 
Q 4787 3930 4288 3878 
L 4288 2630 
L 5126 2630 
L 5421 2995 
Q 5485 3072 5539 3072 
Q 5594 3072 5891 2800 
Q 6189 2528 6189 2480 
Q 6189 2432 6048 2432 
L 4288 2432 
L 4288 1402 
L 4915 1402 
L 5056 1626 
Q 5114 1709 5149 1709 
Q 5184 1709 5475 1523 
Q 5766 1338 5766 1283 
Q 5766 1229 5517 1082 
L 5517 -352 
Q 5517 -448 5523 -531 
L 5536 -666 
Q 5536 -749 5267 -854 
Q 4998 -960 4960 -960 
Q 4922 -960 4922 -890 
L 4922 -403 
L 3142 -403 
L 3142 -781 
Q 3142 -826 3126 -845 
Q 3110 -864 2860 -957 
Q 2611 -1050 2579 -1050 
Q 2547 -1050 2554 -986 
Q 2586 -768 2586 -506 
L 2586 1152 
Q 2586 1421 2566 1696 
Q 3040 1549 3315 1402 
L 3731 1402 
L 3731 2432 
L 2534 2432 
Q 2362 2432 2266 2387 
L 2131 2662 
Q 2266 2630 2451 2630 
L 3731 2630 
L 3731 3814 
z
M 4922 -198 
L 4922 1216 
L 3142 1216 
L 3142 -198 
L 4922 -198 
z
M 2298 3482 
L 1760 1395 
Q 1606 819 1606 457 
Q 1606 96 1644 -176 
Q 1683 -448 1683 -563 
Q 1683 -992 1485 -992 
Q 1299 -992 1116 -873 
Q 934 -755 934 -557 
Q 934 -512 947 -461 
Q 1075 51 1075 329 
Q 1075 608 956 701 
Q 838 794 320 896 
L 333 1024 
Q 723 1030 896 1059 
Q 1069 1088 1145 1168 
Q 1222 1248 1306 1440 
L 2176 3526 
L 2298 3482 
z
M 390 3245 
Q 826 3066 1088 2890 
Q 1350 2714 1350 2525 
Q 1350 2336 1267 2160 
Q 1184 1984 1049 1984 
Q 915 1984 851 2202 
Q 755 2547 624 2745 
Q 493 2944 320 3123 
L 390 3245 
z
" transform="scale(0.015625)"/>
       <path id="STZhongsong-8dc3" d="M 4525 2272 
Q 4685 1152 5046 525 
Q 5408 -102 6189 -544 
L 6170 -685 
Q 5997 -659 5865 -659 
Q 5734 -659 5632 -694 
Q 5530 -730 5443 -806 
Q 5357 -883 5318 -883 
Q 5203 -883 4819 -105 
Q 4435 672 4333 2272 
L 4243 2272 
Q 4166 1389 4044 982 
Q 3923 576 3628 205 
Q 3334 -166 2876 -480 
Q 2419 -794 1779 -1056 
L 1734 -941 
Q 2803 -224 3193 400 
Q 3584 1024 3699 2272 
L 2893 2272 
Q 2720 2272 2624 2227 
L 2509 2522 
Q 2643 2490 2829 2490 
L 3718 2490 
Q 3782 2976 3782 3350 
Q 3782 3725 3776 3910 
Q 3270 3866 2784 3834 
L 2771 3955 
Q 4186 4282 5357 4749 
Q 5773 4230 5773 4109 
Q 5773 4058 5721 4058 
Q 5670 4058 5593 4086 
Q 5517 4115 5424 4115 
Q 5331 4115 5001 4060 
Q 4672 4006 4358 3968 
Q 4320 3091 4262 2490 
L 4992 2490 
L 5293 2893 
Q 5344 2963 5427 2963 
Q 5510 2963 5808 2697 
Q 6106 2432 6106 2352 
Q 6106 2272 5965 2272 
L 4525 2272 
z
M 1350 4339 
L 2086 4339 
L 2234 4576 
Q 2266 4627 2307 4627 
Q 2349 4627 2537 4486 
Q 2726 4346 2800 4282 
Q 2874 4218 2874 4170 
Q 2874 4122 2624 4038 
L 2624 3232 
Q 2624 2982 2630 2899 
L 2637 2733 
Q 2637 2656 2464 2589 
Q 2291 2522 2195 2522 
Q 2131 2522 2131 2624 
L 2131 2733 
L 1325 2733 
L 1325 2566 
Q 1325 2515 1299 2489 
Q 1274 2464 1114 2406 
Q 954 2349 870 2349 
Q 819 2349 826 2426 
Q 851 2733 851 3034 
L 851 4115 
Q 851 4378 832 4653 
Q 1139 4499 1350 4339 
z
M 2131 2918 
L 2131 4141 
L 1325 4141 
L 1325 2918 
L 2131 2918 
z
M 2054 1440 
L 2214 1440 
L 2426 1747 
Q 2477 1818 2528 1818 
Q 2579 1818 2819 1600 
Q 3059 1382 3059 1306 
Q 3059 1261 2931 1261 
L 2054 1261 
L 2054 218 
L 2963 416 
L 3008 288 
L 1856 -192 
Q 1248 -448 928 -685 
Q 870 -730 825 -730 
Q 781 -730 729 -637 
Q 678 -544 403 -122 
L 762 -64 
L 762 1715 
Q 762 2003 749 2227 
Q 1184 2106 1299 2058 
Q 1414 2010 1414 1965 
Q 1414 1920 1229 1830 
L 1229 38 
L 1581 115 
L 1581 2067 
Q 1581 2355 1568 2579 
Q 1914 2522 2058 2483 
Q 2202 2445 2202 2384 
Q 2202 2323 2054 2266 
L 2054 1440 
z
" transform="scale(0.015625)"/>
       <path id="STZhongsong-683c" d="M 1722 3334 
L 1869 3334 
L 2029 3571 
Q 2093 3667 2147 3667 
Q 2202 3667 2429 3449 
Q 2656 3232 2656 3171 
Q 2656 3110 2522 3110 
L 1722 3110 
L 1722 2573 
Q 2112 2445 2320 2281 
Q 2528 2118 2528 1875 
Q 2528 1760 2413 1638 
Q 2298 1517 2208 1517 
Q 2118 1517 2083 1542 
Q 2048 1568 2022 1709 
Q 1933 2182 1722 2394 
L 1722 -691 
Q 1722 -755 1706 -771 
Q 1690 -787 1597 -844 
Q 1504 -902 1363 -960 
Q 1222 -1018 1200 -1018 
Q 1178 -1018 1178 -960 
L 1190 -691 
Q 1203 -371 1203 -90 
L 1203 1971 
Q 1037 1562 825 1242 
Q 614 922 192 467 
L 102 538 
Q 749 1594 1094 3110 
L 570 3110 
Q 403 3110 294 3078 
L 186 3366 
Q 320 3334 506 3334 
L 1203 3334 
L 1203 4134 
Q 1203 4557 1184 4864 
Q 1965 4685 1965 4614 
Q 1965 4570 1722 4429 
L 1722 3334 
z
M 3341 3398 
Q 2995 2848 2464 2298 
L 2362 2362 
Q 2771 2995 2992 3516 
Q 3213 4038 3373 4806 
Q 3814 4666 3932 4602 
Q 4051 4538 4051 4499 
Q 4051 4461 3955 4416 
Q 3859 4371 3744 4137 
Q 3629 3904 3590 3834 
L 4813 3834 
L 4998 4115 
Q 5030 4166 5065 4166 
Q 5101 4166 5254 4060 
Q 5408 3955 5526 3868 
Q 5645 3782 5680 3737 
Q 5715 3693 5715 3648 
Q 5715 3571 5619 3558 
Q 5523 3546 5404 3456 
Q 5286 3366 5190 3219 
Q 4832 2688 4518 2374 
Q 5178 1952 6182 1754 
L 6182 1651 
Q 5869 1606 5773 1548 
Q 5677 1491 5613 1338 
Q 5587 1267 5520 1267 
Q 5453 1267 4960 1513 
Q 4467 1760 4147 2035 
Q 3725 1702 3034 1376 
Q 3251 1306 3456 1203 
L 4678 1203 
L 4781 1382 
Q 4813 1440 4880 1440 
Q 4947 1440 5190 1289 
Q 5434 1139 5434 1062 
Q 5434 986 5248 922 
L 5248 -186 
Q 5248 -365 5254 -493 
L 5261 -691 
Q 5261 -730 5197 -771 
Q 5133 -813 4973 -873 
Q 4813 -934 4755 -934 
Q 4717 -934 4717 -870 
L 4717 -390 
L 3443 -390 
L 3443 -813 
Q 3443 -877 3424 -896 
Q 3405 -915 3222 -979 
Q 3040 -1043 2963 -1043 
Q 2938 -1043 2938 -992 
L 2944 -755 
Q 2950 -646 2950 -454 
L 2950 794 
Q 2950 1165 2938 1331 
Q 2438 1101 2022 941 
L 1971 1037 
Q 3290 1786 3859 2336 
Q 3539 2746 3341 3398 
z
M 3494 3661 
Q 3469 3610 3456 3590 
Q 3750 3002 4160 2650 
Q 4544 3091 4826 3661 
L 3494 3661 
z
M 3443 -198 
L 4717 -198 
L 4717 1011 
L 3443 1011 
L 3443 -198 
z
" transform="scale(0.015625)"/>
       <path id="STZhongsong-7f51" d="M 1542 4320 
L 4992 4320 
L 5158 4614 
Q 5197 4678 5248 4678 
Q 5299 4678 5603 4464 
Q 5907 4250 5907 4179 
Q 5907 4109 5651 4038 
L 5651 -166 
Q 5651 -499 5584 -646 
Q 5517 -794 5245 -928 
Q 4973 -1062 4890 -1062 
Q 4845 -1062 4819 -966 
Q 4742 -685 4588 -576 
Q 4435 -467 3917 -326 
L 3936 -186 
Q 4608 -301 4800 -301 
Q 4992 -301 5037 -230 
Q 5082 -160 5082 32 
L 5082 4134 
L 1498 4134 
L 1498 -736 
Q 1498 -781 1485 -800 
Q 1472 -819 1360 -883 
Q 1248 -947 1110 -995 
Q 973 -1043 941 -1043 
Q 909 -1043 915 -986 
Q 954 -666 954 -166 
L 954 4141 
Q 954 4461 941 4710 
Q 1197 4608 1542 4320 
z
M 2470 2534 
Q 2637 3104 2778 3776 
Q 3053 3654 3206 3558 
Q 3360 3462 3389 3433 
Q 3418 3405 3418 3373 
Q 3418 3315 3334 3289 
Q 3251 3264 3203 3184 
Q 3155 3104 3027 2768 
Q 2899 2432 2765 2144 
Q 3245 1459 3245 992 
Q 3245 813 3126 653 
Q 3008 493 2938 493 
Q 2822 493 2790 723 
Q 2720 1261 2547 1683 
Q 2093 781 1632 262 
L 1542 390 
Q 2029 1126 2349 2118 
Q 2138 2534 1619 3290 
L 1709 3360 
Q 2138 2938 2470 2534 
z
M 4006 2522 
Q 4179 3104 4288 3712 
Q 4960 3354 4960 3238 
Q 4960 3194 4873 3165 
Q 4787 3136 4723 3056 
Q 4659 2976 4550 2688 
Q 4442 2400 4307 2106 
Q 4883 1235 4883 800 
Q 4883 646 4787 508 
Q 4691 371 4604 371 
Q 4518 371 4461 576 
Q 4320 1088 4096 1658 
Q 3654 787 3014 102 
L 2938 192 
Q 3494 1005 3885 2150 
Q 3686 2586 3347 3136 
L 3462 3181 
Q 3757 2835 4006 2522 
z
" transform="scale(0.015625)"/>
       <path id="STZhongsong-6570" d="M 2394 3334 
L 2938 3334 
L 3136 3616 
Q 3181 3680 3245 3680 
Q 3309 3680 3520 3462 
Q 3731 3245 3731 3193 
Q 3731 3142 3610 3142 
L 2394 3142 
L 2394 3027 
Q 2784 2938 3069 2819 
Q 3354 2701 3354 2515 
Q 3354 2381 3296 2227 
Q 3238 2074 3171 2074 
Q 3104 2074 3069 2109 
Q 3034 2144 2963 2259 
Q 2893 2374 2720 2556 
Q 2547 2739 2394 2854 
Q 2406 2381 2406 2259 
Q 2406 2138 2393 2099 
Q 2381 2061 2217 2006 
Q 2054 1952 1971 1933 
Q 2291 1811 2291 1722 
Q 2291 1670 2227 1660 
Q 2163 1651 2118 1609 
Q 2074 1568 1990 1434 
L 2637 1434 
L 2803 1619 
Q 2854 1677 2892 1677 
Q 2931 1677 3190 1481 
Q 3450 1286 3450 1228 
Q 3450 1171 3338 1148 
Q 3226 1126 3168 1088 
Q 3110 1050 3053 941 
Q 2848 563 2637 307 
Q 3040 205 3133 38 
Q 3226 -128 3226 -262 
Q 3226 -397 3187 -467 
Q 3149 -538 3101 -538 
Q 3053 -538 2816 -378 
Q 2579 -218 2278 -51 
Q 1664 -589 384 -992 
L 333 -877 
Q 1338 -371 1875 141 
Q 1440 326 845 474 
Q 1184 954 1331 1222 
L 691 1222 
Q 518 1222 422 1190 
L 307 1453 
Q 410 1434 627 1434 
L 1440 1434 
Q 1626 1824 1690 2035 
Q 1818 1997 1869 1978 
Q 1888 2515 1888 2874 
Q 1421 2125 282 1613 
L 243 1715 
Q 1075 2330 1549 3142 
L 589 3142 
Q 467 3142 390 3110 
L 301 3366 
Q 416 3334 550 3334 
L 1888 3334 
L 1888 4147 
Q 1888 4698 1875 4877 
Q 2592 4723 2592 4653 
Q 2592 4608 2394 4499 
L 2394 3334 
z
M 1856 1222 
L 1427 570 
Q 1914 480 2138 429 
Q 2413 762 2630 1222 
L 1856 1222 
z
M 4326 3270 
L 5222 3270 
L 5485 3590 
Q 5549 3661 5609 3661 
Q 5670 3661 5939 3421 
Q 6208 3181 6208 3117 
Q 6208 3072 6054 3072 
L 5050 3072 
Q 5638 2925 5638 2810 
Q 5638 2771 5542 2742 
Q 5446 2714 5404 2643 
Q 5363 2573 5338 2438 
Q 5088 1069 4749 518 
Q 5261 -186 6304 -646 
L 6246 -774 
Q 6080 -730 5933 -730 
Q 5658 -730 5446 -902 
Q 5389 -947 5363 -947 
Q 5299 -947 4934 -534 
Q 4570 -122 4448 102 
Q 4115 -301 3657 -579 
Q 3200 -858 2470 -1139 
L 2413 -1005 
Q 3642 -307 4211 544 
Q 3942 1152 3878 2342 
Q 3654 1946 3322 1491 
L 3213 1555 
Q 3949 2963 4109 4877 
Q 4333 4832 4563 4761 
Q 4794 4691 4858 4649 
Q 4922 4608 4922 4563 
Q 4922 4518 4813 4492 
Q 4704 4467 4653 4384 
Q 4602 4301 4538 3974 
Q 4474 3648 4326 3270 
z
M 4870 3072 
L 4250 3072 
L 4064 2682 
Q 4141 1594 4454 979 
Q 4723 1619 4870 3072 
z
M 3104 4602 
Q 3264 4525 3453 4422 
Q 3642 4320 3670 4288 
Q 3699 4256 3699 4221 
Q 3699 4186 3673 4170 
Q 3648 4154 3539 4154 
Q 3430 4154 3315 4038 
Q 2957 3680 2528 3392 
L 2464 3488 
Q 2906 4102 3104 4602 
z
M 653 4512 
Q 1171 4326 1353 4201 
Q 1536 4077 1536 3901 
Q 1536 3725 1453 3590 
Q 1370 3456 1286 3456 
Q 1203 3456 1164 3494 
Q 1126 3533 1084 3673 
Q 1043 3814 899 4038 
Q 755 4262 589 4429 
L 653 4512 
z
" transform="scale(0.015625)"/>
       <path id="STZhongsong-91cf" d="M 2054 4480 
L 4410 4480 
L 4576 4691 
Q 4608 4730 4640 4730 
Q 4691 4730 4969 4582 
Q 5248 4435 5248 4368 
Q 5248 4301 5024 4198 
L 5024 3738 
Q 5024 3552 5037 3341 
L 5043 3142 
Q 5043 3098 5030 3075 
Q 5018 3053 4922 2992 
Q 4826 2931 4685 2876 
Q 4544 2822 4509 2822 
Q 4474 2822 4474 2880 
L 4474 3046 
L 2016 3046 
Q 2029 2989 2006 2960 
Q 1984 2931 1897 2886 
Q 1811 2842 1660 2797 
Q 1510 2752 1475 2752 
Q 1440 2752 1446 2822 
Q 1478 3130 1478 3456 
L 1478 4198 
Q 1478 4467 1459 4742 
Q 1830 4608 2054 4480 
z
M 4474 3853 
L 4474 4294 
L 2016 4294 
L 2016 3853 
L 4474 3853 
z
M 4474 3213 
L 4474 3674 
L 2016 3674 
L 2016 3213 
L 4474 3213 
z
M 5171 2675 
L 5395 3040 
Q 5434 3110 5491 3110 
Q 5549 3110 5690 2989 
L 5984 2746 
Q 6138 2618 6138 2560 
Q 6138 2502 5990 2502 
L 640 2502 
Q 467 2502 371 2458 
L 256 2707 
Q 390 2675 576 2675 
L 5171 2675 
z
M 3482 672 
L 3482 166 
L 4666 166 
L 4864 416 
Q 4902 474 4950 474 
Q 4998 474 5251 285 
Q 5504 96 5504 38 
Q 5504 -19 5286 -19 
L 3482 -19 
L 3482 -550 
L 5203 -550 
L 5434 -230 
Q 5485 -160 5542 -160 
Q 5600 -160 5865 -390 
Q 6131 -621 6131 -691 
Q 6131 -736 5965 -736 
L 582 -736 
Q 410 -736 314 -781 
L 198 -518 
Q 333 -550 518 -550 
L 2931 -550 
L 2931 -19 
L 1274 -19 
Q 1101 -19 1005 -64 
L 877 198 
Q 1011 166 1197 166 
L 2931 166 
L 2931 672 
L 1843 672 
Q 1843 589 1824 569 
Q 1805 550 1725 505 
Q 1645 461 1481 413 
Q 1318 365 1296 365 
Q 1274 365 1280 422 
Q 1312 717 1312 1050 
L 1312 1747 
Q 1312 2074 1293 2355 
Q 1715 2253 1926 2150 
L 4544 2150 
L 4685 2362 
Q 4717 2413 4765 2413 
Q 4813 2413 4944 2333 
Q 5075 2253 5209 2157 
Q 5344 2061 5344 2029 
Q 5344 1971 5126 1850 
L 5126 1363 
Q 5126 1056 5133 954 
L 5139 762 
Q 5139 704 5091 669 
Q 5043 634 4880 592 
Q 4717 550 4627 550 
Q 4576 550 4576 627 
L 4576 672 
L 3482 672 
z
M 2931 1510 
L 2931 1978 
L 1843 1978 
L 1843 1510 
L 2931 1510 
z
M 3482 1978 
L 3482 1510 
L 4576 1510 
L 4576 1978 
L 3482 1978 
z
M 3482 1312 
L 3482 858 
L 4576 858 
L 4576 1312 
L 3482 1312 
z
M 2931 858 
L 2931 1312 
L 1843 1312 
L 1843 858 
L 2931 858 
z
" transform="scale(0.015625)"/>
      </defs>
      <use xlink:href="#STZhongsong-6d3b"/>
      <use xlink:href="#STZhongsong-8dc3" transform="translate(99.999985 0)"/>
      <use xlink:href="#STZhongsong-683c" transform="translate(199.999969 0)"/>
      <use xlink:href="#STZhongsong-7f51" transform="translate(299.999954 0)"/>
      <use xlink:href="#STZhongsong-6570" transform="translate(399.999939 0)"/>
      <use xlink:href="#STZhongsong-91cf" transform="translate(499.999924 0)"/>
     </g>
    </g>
   </g>
   <g id="patch_13">
    <path d="M 71.38 294.844625 
L 71.38 76.22025 
" style="fill: none; stroke: #111111; stroke-width: 1.35; stroke-linejoin: miter; stroke-linecap: square"/>
   </g>
   <g id="patch_14">
    <path d="M 71.38 294.844625 
L 849.185 294.844625 
" style="fill: none; stroke: #111111; stroke-width: 1.35; stroke-linejoin: miter; stroke-linecap: square"/>
   </g>
   <g id="text_9">
    <!-- 944 -->
    <g style="fill: #111111" transform="translate(116.049541 226.718065) scale(0.13 -0.13)">
     <defs>
      <path id="STZhongsong-39" d="M 736 -77 
L 736 218 
Q 1856 224 2374 688 
Q 2893 1152 2938 2138 
Q 2707 1798 2425 1638 
Q 2144 1478 1734 1478 
Q 1088 1478 681 1884 
Q 275 2291 275 2925 
Q 275 3616 720 4025 
Q 1165 4435 1882 4435 
Q 2688 4435 3126 3916 
Q 3565 3398 3565 2438 
Q 3565 1574 3181 963 
Q 2797 352 2201 137 
Q 1606 -77 979 -77 
L 736 -77 
z
M 896 2950 
Q 896 2445 1174 2128 
Q 1453 1811 1875 1811 
Q 2317 1811 2611 2147 
Q 2906 2483 2906 2970 
Q 2906 3475 2618 3814 
Q 2330 4154 1901 4154 
Q 1459 4154 1177 3824 
Q 896 3494 896 2950 
z
" transform="scale(0.015625)"/>
      <path id="STZhongsong-34" d="M 3494 1242 
L 2906 1242 
L 2906 518 
Q 2906 275 3213 250 
L 3213 45 
L 1882 45 
L 1882 250 
Q 2054 262 2156 336 
Q 2259 410 2259 518 
L 2259 1242 
L 550 1242 
L 550 1658 
L 2483 4365 
L 2906 4365 
L 2906 1581 
L 3494 1581 
L 3494 1242 
z
M 2259 1581 
L 2259 3462 
L 902 1581 
L 2259 1581 
z
" transform="scale(0.015625)"/>
     </defs>
     <use xlink:href="#STZhongsong-39"/>
     <use xlink:href="#STZhongsong-34" transform="translate(61.999985 0)"/>
     <use xlink:href="#STZhongsong-34" transform="translate(123.999969 0)"/>
    </g>
   </g>
   <g id="text_10">
    <!-- 3,269 -->
    <g style="fill: #111111" transform="translate(774.225459 78.630935) scale(0.13 -0.13)">
     <defs>
      <path id="STZhongsong-2c" d="M 691 -1133 
L 525 -928 
Q 883 -634 1036 -403 
Q 1190 -173 1158 45 
Q 1037 0 941 0 
Q 800 0 713 99 
Q 627 198 627 339 
Q 627 499 739 604 
Q 851 710 1024 710 
Q 1210 710 1363 540 
Q 1517 371 1517 128 
Q 1517 -211 1331 -486 
Q 1146 -762 691 -1133 
z
" transform="scale(0.015625)"/>
      <path id="STZhongsong-36" d="M 3238 4442 
L 3238 4154 
Q 2131 4141 1603 3686 
Q 1075 3232 1037 2227 
Q 1446 2893 2240 2893 
Q 2880 2893 3289 2486 
Q 3699 2080 3699 1440 
Q 3699 742 3257 332 
Q 2816 -77 2093 -77 
Q 1286 -77 848 444 
Q 410 966 410 1926 
Q 410 3046 1056 3744 
Q 1702 4442 2995 4442 
L 3238 4442 
z
M 3072 1414 
Q 3072 1933 2800 2246 
Q 2528 2560 2099 2560 
Q 1658 2560 1363 2224 
Q 1069 1888 1069 1402 
Q 1069 890 1350 550 
Q 1632 211 2074 211 
Q 2509 211 2790 544 
Q 3072 877 3072 1414 
z
" transform="scale(0.015625)"/>
     </defs>
     <use xlink:href="#STZhongsong-33"/>
     <use xlink:href="#STZhongsong-2c" transform="translate(61.999985 0)"/>
     <use xlink:href="#STZhongsong-32" transform="translate(93.999969 0)"/>
     <use xlink:href="#STZhongsong-36" transform="translate(155.999954 0)"/>
     <use xlink:href="#STZhongsong-39" transform="translate(217.999939 0)"/>
    </g>
   </g>
   <g id="text_11">
    <!-- 活跃格网数量变化 -->
    <g style="fill: #111111" transform="translate(388.2825 70.22025) scale(0.18 -0.18)">
     <defs>
      <path id="STZhongsong-53d8" d="M 2912 3885 
Q 2835 4390 2330 4787 
L 2381 4915 
Q 2912 4787 3197 4643 
Q 3482 4499 3482 4301 
Q 3482 4211 3430 4092 
Q 3379 3974 3270 3885 
L 4819 3885 
L 5094 4288 
Q 5152 4365 5209 4365 
Q 5267 4365 5564 4080 
Q 5862 3795 5862 3728 
Q 5862 3661 5696 3661 
L 3968 3661 
L 3968 2445 
Q 3968 2182 3974 2048 
L 3987 1837 
Q 3987 1798 3929 1760 
Q 3872 1722 3709 1664 
Q 3546 1606 3469 1606 
Q 3418 1606 3418 1696 
L 3418 3661 
L 2733 3661 
L 2733 1779 
Q 2733 1722 2707 1696 
Q 2682 1670 2474 1600 
Q 2266 1530 2214 1530 
Q 2163 1530 2163 1606 
L 2176 1869 
Q 2182 2138 2182 2451 
L 2182 3661 
L 723 3661 
Q 550 3661 454 3616 
L 339 3917 
Q 474 3885 659 3885 
L 2912 3885 
z
M 1338 3277 
Q 2010 2938 2010 2835 
Q 2010 2784 1917 2768 
Q 1824 2752 1779 2717 
Q 1734 2682 1658 2573 
Q 1382 2150 1065 1859 
Q 749 1568 288 1235 
L 179 1338 
Q 627 1798 873 2214 
Q 1120 2630 1338 3277 
z
M 4275 3238 
Q 4870 2970 5174 2790 
Q 5478 2611 5580 2473 
Q 5683 2336 5683 2137 
Q 5683 1939 5580 1779 
Q 5478 1619 5370 1619 
Q 5306 1619 5261 1683 
Q 5216 1747 5114 1997 
Q 4832 2669 4205 3104 
L 4275 3238 
z
M 3104 -186 
Q 2003 -858 307 -1107 
L 288 -966 
Q 1830 -550 2746 77 
Q 2150 582 1862 1286 
L 1587 1286 
Q 1414 1286 1318 1242 
L 1203 1536 
Q 1338 1504 1523 1504 
L 4077 1504 
L 4288 1715 
Q 4326 1754 4365 1754 
Q 4448 1754 4707 1539 
Q 4966 1325 4966 1274 
Q 4966 1216 4844 1200 
Q 4723 1184 4640 1120 
Q 4557 1056 4378 858 
Q 4013 442 3552 109 
Q 4595 -333 6170 -371 
L 6170 -512 
Q 5830 -538 5622 -630 
Q 5414 -723 5306 -960 
Q 5274 -1018 5222 -1018 
Q 5146 -1018 4643 -874 
Q 4141 -730 3805 -576 
Q 3469 -422 3104 -186 
z
M 3098 333 
Q 3622 736 4026 1286 
L 2074 1286 
Q 2432 710 3098 333 
z
" transform="scale(0.015625)"/>
      <path id="STZhongsong-5316" d="M 1523 2445 
Q 960 1683 237 1114 
L 154 1210 
Q 838 2010 1283 2880 
Q 1728 3750 2010 4890 
Q 2432 4698 2617 4570 
Q 2803 4442 2803 4390 
Q 2803 4326 2630 4301 
Q 2554 4288 2496 4205 
Q 2438 4122 2291 3779 
Q 2144 3437 1933 3072 
Q 2195 2982 2195 2931 
Q 2195 2880 2074 2797 
L 2074 -762 
Q 2074 -819 2013 -864 
Q 1952 -909 1766 -979 
Q 1581 -1050 1536 -1050 
Q 1491 -1050 1491 -986 
L 1504 -531 
Q 1523 -70 1523 518 
L 1523 2445 
z
M 4102 1619 
L 4102 38 
Q 4102 -122 4182 -170 
Q 4262 -218 4745 -218 
Q 5229 -218 5366 -141 
Q 5504 -64 5561 201 
Q 5619 467 5702 1267 
L 5837 1267 
Q 5830 1024 5830 838 
Q 5830 358 5881 182 
Q 5933 6 6054 -58 
Q 6176 -122 6176 -166 
Q 6176 -211 6089 -361 
Q 6003 -512 5907 -598 
Q 5811 -685 5705 -710 
Q 5600 -736 5229 -758 
Q 4858 -781 4454 -781 
Q 4051 -781 3856 -713 
Q 3661 -646 3584 -470 
Q 3507 -294 3507 38 
L 3507 1242 
Q 2957 928 2157 608 
L 2125 749 
Q 2899 1184 3507 1638 
L 3507 4006 
Q 3507 4525 3488 4845 
Q 4384 4570 4384 4461 
Q 4384 4410 4102 4282 
L 4102 2150 
Q 4768 2784 5434 3866 
Q 5664 3635 5824 3408 
Q 5984 3181 5984 3126 
Q 5984 3072 5939 3072 
Q 5894 3072 5856 3081 
Q 5818 3091 5773 3091 
Q 5728 3091 5638 3011 
Q 5549 2931 5357 2733 
Q 4691 2042 4102 1619 
z
" transform="scale(0.015625)"/>
     </defs>
     <use xlink:href="#STZhongsong-6d3b"/>
     <use xlink:href="#STZhongsong-8dc3" transform="translate(99.999985 0)"/>
     <use xlink:href="#STZhongsong-683c" transform="translate(199.999969 0)"/>
     <use xlink:href="#STZhongsong-7f51" transform="translate(299.999954 0)"/>
     <use xlink:href="#STZhongsong-6570" transform="translate(399.999939 0)"/>
     <use xlink:href="#STZhongsong-91cf" transform="translate(499.999924 0)"/>
     <use xlink:href="#STZhongsong-53d8" transform="translate(599.999908 0)"/>
     <use xlink:href="#STZhongsong-5316" transform="translate(699.999893 0)"/>
    </g>
   </g>
  </g>
  <g id="axes_2">
   <g id="patch_15">
    <path d="M 71.38 552.08275 
L 849.185 552.08275 
L 849.185 333.458375 
L 71.38 333.458375 
z
" style="fill: #ffffff"/>
   </g>
   <g id="matplotlib.axis_3">
    <g id="xtick_6">
     <g id="line2d_20">
      <g>
       <use xlink:href="#mc6a2ec059a" x="201.949088" y="552.08275" style="fill: #111111; stroke: #111111; stroke-width: 0.8"/>
      </g>
     </g>
     <g id="text_12">
      <!-- 2016 -->
      <g style="fill: #111111" transform="translate(183.349088 569.821812) scale(0.15 -0.15)">
       <use xlink:href="#STZhongsong-32"/>
       <use xlink:href="#STZhongsong-30" transform="translate(61.999985 0)"/>
       <use xlink:href="#STZhongsong-31" transform="translate(123.999969 0)"/>
       <use xlink:href="#STZhongsong-36" transform="translate(185.999954 0)"/>
      </g>
     </g>
    </g>
    <g id="xtick_7">
     <g id="line2d_21">
      <g>
       <use xlink:href="#mc6a2ec059a" x="349.56818" y="552.08275" style="fill: #111111; stroke: #111111; stroke-width: 0.8"/>
      </g>
     </g>
     <g id="text_13">
      <!-- 2018 -->
      <g style="fill: #111111" transform="translate(330.96818 569.821812) scale(0.15 -0.15)">
       <defs>
        <path id="STZhongsong-38" d="M 2477 2419 
Q 3021 2208 3315 1923 
Q 3610 1638 3610 1197 
Q 3610 659 3152 291 
Q 2694 -77 1971 -77 
Q 1274 -77 816 272 
Q 358 621 358 1120 
Q 358 1485 633 1779 
Q 909 2074 1440 2259 
Q 1011 2451 800 2691 
Q 589 2931 589 3315 
Q 589 3814 998 4124 
Q 1408 4435 2035 4435 
Q 2618 4435 2998 4134 
Q 3379 3834 3379 3424 
Q 3379 2790 2477 2419 
z
M 2189 2534 
Q 2451 2707 2662 2918 
Q 2874 3130 2874 3418 
Q 2874 3706 2621 3923 
Q 2368 4141 1971 4141 
Q 1594 4141 1331 3926 
Q 1069 3712 1069 3430 
Q 1069 3168 1270 2989 
Q 1472 2810 1824 2675 
L 2189 2534 
z
M 1747 2131 
Q 1325 1939 1088 1670 
Q 851 1402 851 1126 
Q 851 762 1177 490 
Q 1504 218 1984 218 
Q 2438 218 2774 483 
Q 3110 749 3110 1082 
Q 3110 1594 2253 1933 
L 1747 2131 
z
" transform="scale(0.015625)"/>
       </defs>
       <use xlink:href="#STZhongsong-32"/>
       <use xlink:href="#STZhongsong-30" transform="translate(61.999985 0)"/>
       <use xlink:href="#STZhongsong-31" transform="translate(123.999969 0)"/>
       <use xlink:href="#STZhongsong-38" transform="translate(185.999954 0)"/>
      </g>
     </g>
    </g>
    <g id="xtick_8">
     <g id="line2d_22">
      <g>
       <use xlink:href="#mc6a2ec059a" x="497.187273" y="552.08275" style="fill: #111111; stroke: #111111; stroke-width: 0.8"/>
      </g>
     </g>
     <g id="text_14">
      <!-- 2020 -->
      <g style="fill: #111111" transform="translate(478.587273 569.821812) scale(0.15 -0.15)">
       <use xlink:href="#STZhongsong-32"/>
       <use xlink:href="#STZhongsong-30" transform="translate(61.999985 0)"/>
       <use xlink:href="#STZhongsong-32" transform="translate(123.999969 0)"/>
       <use xlink:href="#STZhongsong-30" transform="translate(185.999954 0)"/>
      </g>
     </g>
    </g>
    <g id="xtick_9">
     <g id="line2d_23">
      <g>
       <use xlink:href="#mc6a2ec059a" x="644.806366" y="552.08275" style="fill: #111111; stroke: #111111; stroke-width: 0.8"/>
      </g>
     </g>
     <g id="text_15">
      <!-- 2022 -->
      <g style="fill: #111111" transform="translate(626.206366 569.821812) scale(0.15 -0.15)">
       <use xlink:href="#STZhongsong-32"/>
       <use xlink:href="#STZhongsong-30" transform="translate(61.999985 0)"/>
       <use xlink:href="#STZhongsong-32" transform="translate(123.999969 0)"/>
       <use xlink:href="#STZhongsong-32" transform="translate(185.999954 0)"/>
      </g>
     </g>
    </g>
    <g id="xtick_10">
     <g id="line2d_24">
      <g>
       <use xlink:href="#mc6a2ec059a" x="792.425459" y="552.08275" style="fill: #111111; stroke: #111111; stroke-width: 0.8"/>
      </g>
     </g>
     <g id="text_16">
      <!-- 2024 -->
      <g style="fill: #111111" transform="translate(773.825459 569.821812) scale(0.15 -0.15)">
       <use xlink:href="#STZhongsong-32"/>
       <use xlink:href="#STZhongsong-30" transform="translate(61.999985 0)"/>
       <use xlink:href="#STZhongsong-32" transform="translate(123.999969 0)"/>
       <use xlink:href="#STZhongsong-34" transform="translate(185.999954 0)"/>
      </g>
     </g>
    </g>
    <g id="text_17">
     <!-- 年份 -->
     <g style="fill: #111111" transform="translate(443.2825 589.486812) scale(0.17 -0.17)">
      <defs>
       <path id="STZhongsong-5e74" d="M 1939 3827 
L 4794 3827 
L 5082 4237 
Q 5133 4314 5171 4314 
Q 5210 4314 5328 4224 
Q 5446 4134 5612 3993 
Q 5779 3853 5840 3789 
Q 5901 3725 5901 3686 
Q 5901 3616 5811 3616 
L 3744 3616 
L 3744 2496 
L 4474 2496 
L 4736 2874 
Q 4787 2938 4822 2938 
Q 4858 2938 4970 2858 
Q 5082 2778 5232 2643 
Q 5382 2509 5414 2461 
Q 5446 2413 5446 2368 
Q 5446 2272 5350 2272 
L 3744 2272 
L 3744 1043 
L 5254 1043 
L 5542 1427 
Q 5587 1485 5654 1485 
Q 5722 1485 6013 1213 
Q 6304 941 6304 883 
Q 6304 826 6195 826 
L 3744 826 
Q 3744 19 3750 -294 
L 3763 -864 
Q 3763 -909 3731 -941 
Q 3699 -973 3475 -1056 
Q 3251 -1139 3203 -1139 
Q 3155 -1139 3155 -1037 
L 3168 -390 
Q 3174 -38 3174 826 
L 653 826 
Q 480 826 384 781 
L 269 1075 
Q 403 1043 589 1043 
L 1498 1043 
L 1498 2170 
Q 1498 2643 1485 2739 
Q 1856 2630 2138 2496 
L 3174 2496 
L 3174 3616 
L 1798 3616 
Q 1440 3046 1136 2713 
Q 832 2381 339 1984 
L 243 2086 
Q 1261 3174 1741 4909 
Q 2259 4704 2400 4611 
Q 2541 4518 2541 4457 
Q 2541 4397 2435 4384 
Q 2330 4371 2253 4288 
Q 2176 4205 1939 3827 
z
M 3174 2272 
L 2054 2272 
L 2054 1043 
L 3174 1043 
L 3174 2272 
z
" transform="scale(0.015625)"/>
       <path id="STZhongsong-4efd" d="M 1190 2470 
Q 736 1830 237 1389 
L 141 1472 
Q 1158 2701 1702 4838 
Q 1894 4768 2115 4672 
Q 2336 4576 2374 4544 
Q 2413 4512 2413 4477 
Q 2413 4442 2326 4419 
Q 2240 4397 2205 4345 
Q 2170 4294 2099 4115 
Q 1888 3578 1530 2982 
Q 1837 2912 1837 2842 
Q 1837 2803 1709 2720 
L 1709 -806 
Q 1709 -883 1670 -928 
Q 1632 -973 1453 -1049 
Q 1274 -1126 1219 -1126 
Q 1165 -1126 1165 -1056 
L 1178 -563 
Q 1190 -262 1190 70 
L 1190 2470 
z
M 6272 2355 
L 6259 2227 
Q 6170 2240 6099 2240 
Q 5786 2240 5658 1971 
Q 5638 1926 5587 1926 
Q 5408 1926 4813 2630 
Q 4218 3334 4102 4806 
Q 4742 4742 4742 4627 
Q 4742 4589 4672 4570 
Q 4467 4518 4467 4323 
Q 4467 4128 4636 3712 
Q 4806 3296 5209 2925 
Q 5613 2554 6272 2355 
z
M 3174 4506 
Q 3635 4346 3753 4285 
Q 3872 4224 3872 4182 
Q 3872 4141 3753 4105 
Q 3635 4070 3546 3834 
Q 3034 2477 1888 1421 
L 1798 1491 
Q 2765 2810 3174 4506 
z
M 3232 1920 
L 3072 1920 
Q 2906 1920 2803 1875 
L 2662 2157 
Q 2797 2125 2982 2125 
L 4461 2125 
L 4614 2330 
Q 4659 2381 4704 2381 
Q 4749 2381 4937 2246 
Q 5126 2112 5212 2041 
Q 5299 1971 5299 1920 
Q 5299 1869 5139 1760 
Q 5114 1011 5066 432 
Q 5018 -147 4966 -355 
Q 4915 -563 4796 -700 
Q 4678 -838 4451 -944 
Q 4224 -1050 4169 -1050 
Q 4115 -1050 4090 -966 
Q 4038 -774 3856 -640 
Q 3674 -506 3328 -378 
L 3373 -243 
Q 3910 -384 4076 -384 
Q 4243 -384 4307 -326 
Q 4371 -269 4432 -73 
Q 4493 122 4528 541 
Q 4563 960 4576 1920 
L 3782 1920 
Q 3738 730 3389 125 
Q 3040 -480 1946 -1094 
L 1869 -1011 
Q 2669 -358 2934 237 
Q 3200 832 3232 1920 
z
" transform="scale(0.015625)"/>
      </defs>
      <use xlink:href="#STZhongsong-5e74"/>
      <use xlink:href="#STZhongsong-4efd" transform="translate(99.999985 0)"/>
     </g>
    </g>
   </g>
   <g id="matplotlib.axis_4">
    <g id="ytick_8">
     <g id="line2d_25">
      <path d="M 71.38 545.558959 
L 849.185 545.558959 
" clip-path="url(#p33636c7020)" style="fill: none; stroke: #ececec; stroke-width: 0.9; stroke-linecap: square"/>
     </g>
     <g id="line2d_26">
      <g>
       <use xlink:href="#m6f21b6498f" x="71.38" y="545.558959" style="fill: #111111; stroke: #111111; stroke-width: 0.8"/>
      </g>
     </g>
     <g id="text_18">
      <!-- 0 -->
      <g style="fill: #111111" transform="translate(55.08 550.92849) scale(0.15 -0.15)">
       <use xlink:href="#STZhongsong-30"/>
      </g>
     </g>
    </g>
    <g id="ytick_9">
     <g id="line2d_27">
      <path d="M 71.38 511.001162 
L 849.185 511.001162 
" clip-path="url(#p33636c7020)" style="fill: none; stroke: #ececec; stroke-width: 0.9; stroke-linecap: square"/>
     </g>
     <g id="line2d_28">
      <g>
       <use xlink:href="#m6f21b6498f" x="71.38" y="511.001162" style="fill: #111111; stroke: #111111; stroke-width: 0.8"/>
      </g>
     </g>
     <g id="text_19">
      <!-- 20 -->
      <g style="fill: #111111" transform="translate(45.78 516.370693) scale(0.15 -0.15)">
       <use xlink:href="#STZhongsong-32"/>
       <use xlink:href="#STZhongsong-30" transform="translate(61.999985 0)"/>
      </g>
     </g>
    </g>
    <g id="ytick_10">
     <g id="line2d_29">
      <path d="M 71.38 476.443365 
L 849.185 476.443365 
" clip-path="url(#p33636c7020)" style="fill: none; stroke: #ececec; stroke-width: 0.9; stroke-linecap: square"/>
     </g>
     <g id="line2d_30">
      <g>
       <use xlink:href="#m6f21b6498f" x="71.38" y="476.443365" style="fill: #111111; stroke: #111111; stroke-width: 0.8"/>
      </g>
     </g>
     <g id="text_20">
      <!-- 40 -->
      <g style="fill: #111111" transform="translate(45.78 481.812896) scale(0.15 -0.15)">
       <use xlink:href="#STZhongsong-34"/>
       <use xlink:href="#STZhongsong-30" transform="translate(61.999985 0)"/>
      </g>
     </g>
    </g>
    <g id="ytick_11">
     <g id="line2d_31">
      <path d="M 71.38 441.885568 
L 849.185 441.885568 
" clip-path="url(#p33636c7020)" style="fill: none; stroke: #ececec; stroke-width: 0.9; stroke-linecap: square"/>
     </g>
     <g id="line2d_32">
      <g>
       <use xlink:href="#m6f21b6498f" x="71.38" y="441.885568" style="fill: #111111; stroke: #111111; stroke-width: 0.8"/>
      </g>
     </g>
     <g id="text_21">
      <!-- 60 -->
      <g style="fill: #111111" transform="translate(45.78 447.255099) scale(0.15 -0.15)">
       <use xlink:href="#STZhongsong-36"/>
       <use xlink:href="#STZhongsong-30" transform="translate(61.999985 0)"/>
      </g>
     </g>
    </g>
    <g id="ytick_12">
     <g id="line2d_33">
      <path d="M 71.38 407.327771 
L 849.185 407.327771 
" clip-path="url(#p33636c7020)" style="fill: none; stroke: #ececec; stroke-width: 0.9; stroke-linecap: square"/>
     </g>
     <g id="line2d_34">
      <g>
       <use xlink:href="#m6f21b6498f" x="71.38" y="407.327771" style="fill: #111111; stroke: #111111; stroke-width: 0.8"/>
      </g>
     </g>
     <g id="text_22">
      <!-- 80 -->
      <g style="fill: #111111" transform="translate(45.78 412.697302) scale(0.15 -0.15)">
       <use xlink:href="#STZhongsong-38"/>
       <use xlink:href="#STZhongsong-30" transform="translate(61.999985 0)"/>
      </g>
     </g>
    </g>
    <g id="ytick_13">
     <g id="line2d_35">
      <path d="M 71.38 372.769974 
L 849.185 372.769974 
" clip-path="url(#p33636c7020)" style="fill: none; stroke: #ececec; stroke-width: 0.9; stroke-linecap: square"/>
     </g>
     <g id="line2d_36">
      <g>
       <use xlink:href="#m6f21b6498f" x="71.38" y="372.769974" style="fill: #111111; stroke: #111111; stroke-width: 0.8"/>
      </g>
     </g>
     <g id="text_23">
      <!-- 100 -->
      <g style="fill: #111111" transform="translate(36.48 378.139505) scale(0.15 -0.15)">
       <use xlink:href="#STZhongsong-31"/>
       <use xlink:href="#STZhongsong-30" transform="translate(61.999985 0)"/>
       <use xlink:href="#STZhongsong-30" transform="translate(123.999969 0)"/>
      </g>
     </g>
    </g>
    <g id="ytick_14">
     <g id="line2d_37">
      <path d="M 71.38 338.212177 
L 849.185 338.212177 
" clip-path="url(#p33636c7020)" style="fill: none; stroke: #ececec; stroke-width: 0.9; stroke-linecap: square"/>
     </g>
     <g id="line2d_38">
      <g>
       <use xlink:href="#m6f21b6498f" x="71.38" y="338.212177" style="fill: #111111; stroke: #111111; stroke-width: 0.8"/>
      </g>
     </g>
     <g id="text_24">
      <!-- 120 -->
      <g style="fill: #111111" transform="translate(36.48 343.581708) scale(0.15 -0.15)">
       <use xlink:href="#STZhongsong-31"/>
       <use xlink:href="#STZhongsong-32" transform="translate(61.999985 0)"/>
       <use xlink:href="#STZhongsong-30" transform="translate(123.999969 0)"/>
      </g>
     </g>
    </g>
    <g id="text_25">
     <!-- 企业数 -->
     <g style="fill: #111111" transform="translate(29.08 468.270562) rotate(-90) scale(0.17 -0.17)">
      <defs>
       <path id="STZhongsong-4f01" d="M 3232 4314 
Q 3174 4243 3130 4160 
Q 2726 3469 2377 3046 
Q 2029 2624 1542 2272 
Q 1056 1920 218 1459 
L 154 1562 
Q 1139 2291 1696 2979 
Q 2253 3667 2771 4832 
Q 3482 4576 3482 4506 
Q 3482 4467 3341 4410 
Q 4179 3034 6259 2554 
L 6246 2432 
Q 5946 2432 5786 2371 
Q 5626 2310 5472 2112 
Q 5427 2061 5389 2061 
Q 5318 2061 4774 2432 
Q 4230 2803 3852 3251 
Q 3475 3699 3232 4314 
z
M 3558 1414 
L 4179 1414 
L 4429 1754 
Q 4486 1830 4557 1830 
Q 4614 1830 4761 1721 
Q 4909 1613 5056 1472 
Q 5203 1331 5203 1286 
Q 5203 1216 5062 1216 
L 3558 1216 
L 3558 -461 
L 4870 -461 
L 5171 -45 
Q 5235 45 5280 45 
Q 5344 45 5696 -240 
Q 6048 -525 6048 -598 
Q 6048 -672 5933 -672 
L 723 -672 
Q 550 -672 454 -717 
L 339 -429 
Q 474 -461 659 -461 
L 1466 -461 
L 1466 1370 
Q 1466 1690 1453 1939 
Q 1971 1805 2076 1763 
Q 2182 1722 2182 1677 
Q 2182 1632 2016 1549 
L 2016 -461 
L 3034 -461 
L 3034 2413 
Q 3034 2733 3021 2982 
Q 3360 2899 3568 2816 
Q 3776 2733 3776 2682 
Q 3776 2611 3558 2502 
L 3558 1414 
z
" transform="scale(0.015625)"/>
       <path id="STZhongsong-4e1a" d="M 3552 -422 
L 3552 4154 
Q 3552 4646 3539 4755 
Q 3821 4698 4096 4608 
Q 4371 4518 4371 4448 
Q 4371 4378 4096 4243 
L 4096 768 
Q 4659 1626 5158 3341 
Q 5747 3053 5843 2989 
Q 5939 2925 5939 2873 
Q 5939 2822 5818 2810 
Q 5766 2803 5731 2771 
Q 5696 2739 5619 2618 
Q 4813 1210 4096 442 
L 4096 -422 
L 5056 -422 
L 5370 -26 
Q 5440 58 5485 58 
Q 5530 58 5616 -16 
Q 5702 -90 5862 -240 
Q 6022 -390 6092 -476 
Q 6163 -563 6163 -608 
Q 6163 -653 6048 -653 
L 640 -653 
Q 499 -653 416 -685 
L 282 -390 
Q 384 -422 538 -422 
L 2278 -422 
L 2278 4115 
Q 2278 4608 2266 4717 
Q 2886 4576 3001 4531 
Q 3117 4486 3117 4422 
Q 3117 4358 2822 4256 
L 2822 -422 
L 3552 -422 
z
M 787 3181 
Q 1357 2458 1645 2000 
Q 1933 1542 1933 1273 
Q 1933 1005 1757 758 
Q 1581 512 1434 512 
Q 1363 512 1340 557 
Q 1318 602 1318 781 
Q 1318 1754 698 3104 
L 787 3181 
z
" transform="scale(0.015625)"/>
      </defs>
      <use xlink:href="#STZhongsong-4f01"/>
      <use xlink:href="#STZhongsong-4e1a" transform="translate(99.999985 0)"/>
      <use xlink:href="#STZhongsong-6570" transform="translate(199.999969 0)"/>
     </g>
    </g>
   </g>
   <g id="line2d_39">
    <path d="M 128.139541 542.145278 
L 201.949088 540.977239 
L 275.758634 539.760278 
L 349.56818 538.978187 
L 423.377727 538.908266 
L 497.187273 539.058503 
L 570.99682 539.015915 
L 644.806366 538.751693 
L 718.615912 538.593555 
L 792.425459 538.41113 
" clip-path="url(#p33636c7020)" style="fill: none; stroke: #b07aa1; stroke-width: 3.1; stroke-linecap: square"/>
    <defs>
     <path id="me42a657623" d="M 0 4.3 
C 1.140373 4.3 2.234193 3.846925 3.040559 3.040559 
C 3.846925 2.234193 4.3 1.140373 4.3 0 
C 4.3 -1.140373 3.846925 -2.234193 3.040559 -3.040559 
C 2.234193 -3.846925 1.140373 -4.3 0 -4.3 
C -1.140373 -4.3 -2.234193 -3.846925 -3.040559 -3.040559 
C -3.846925 -2.234193 -4.3 -1.140373 -4.3 0 
C -4.3 1.140373 -3.846925 2.234193 -3.040559 3.040559 
C -2.234193 3.846925 -1.140373 4.3 0 4.3 
z
" style="stroke: #b07aa1"/>
    </defs>
    <g clip-path="url(#p33636c7020)">
     <use xlink:href="#me42a657623" x="128.139541" y="542.145278" style="fill: #b07aa1; stroke: #b07aa1"/>
     <use xlink:href="#me42a657623" x="201.949088" y="540.977239" style="fill: #b07aa1; stroke: #b07aa1"/>
     <use xlink:href="#me42a657623" x="275.758634" y="539.760278" style="fill: #b07aa1; stroke: #b07aa1"/>
     <use xlink:href="#me42a657623" x="349.56818" y="538.978187" style="fill: #b07aa1; stroke: #b07aa1"/>
     <use xlink:href="#me42a657623" x="423.377727" y="538.908266" style="fill: #b07aa1; stroke: #b07aa1"/>
     <use xlink:href="#me42a657623" x="497.187273" y="539.058503" style="fill: #b07aa1; stroke: #b07aa1"/>
     <use xlink:href="#me42a657623" x="570.99682" y="539.015915" style="fill: #b07aa1; stroke: #b07aa1"/>
     <use xlink:href="#me42a657623" x="644.806366" y="538.751693" style="fill: #b07aa1; stroke: #b07aa1"/>
     <use xlink:href="#me42a657623" x="718.615912" y="538.593555" style="fill: #b07aa1; stroke: #b07aa1"/>
     <use xlink:href="#me42a657623" x="792.425459" y="538.41113" style="fill: #b07aa1; stroke: #b07aa1"/>
    </g>
   </g>
   <g id="line2d_40">
    <path d="M 128.139541 490.266484 
L 201.949088 445.341348 
L 275.758634 400.416212 
L 349.56818 383.137313 
L 423.377727 384.865203 
L 497.187273 390.048873 
L 570.99682 393.504652 
L 644.806366 384.865203 
L 718.615912 369.314194 
L 792.425459 343.395847 
" clip-path="url(#p33636c7020)" style="fill: none; stroke: #2e6f9e; stroke-width: 3.1; stroke-linecap: square"/>
    <defs>
     <path id="m75c8e248e2" d="M -4.3 4.3 
L 4.3 4.3 
L 4.3 -4.3 
L -4.3 -4.3 
z
" style="stroke: #2e6f9e; stroke-linejoin: miter"/>
    </defs>
    <g clip-path="url(#p33636c7020)">
     <use xlink:href="#m75c8e248e2" x="128.139541" y="490.266484" style="fill: #2e6f9e; stroke: #2e6f9e; stroke-linejoin: miter"/>
     <use xlink:href="#m75c8e248e2" x="201.949088" y="445.341348" style="fill: #2e6f9e; stroke: #2e6f9e; stroke-linejoin: miter"/>
     <use xlink:href="#m75c8e248e2" x="275.758634" y="400.416212" style="fill: #2e6f9e; stroke: #2e6f9e; stroke-linejoin: miter"/>
     <use xlink:href="#m75c8e248e2" x="349.56818" y="383.137313" style="fill: #2e6f9e; stroke: #2e6f9e; stroke-linejoin: miter"/>
     <use xlink:href="#m75c8e248e2" x="423.377727" y="384.865203" style="fill: #2e6f9e; stroke: #2e6f9e; stroke-linejoin: miter"/>
     <use xlink:href="#m75c8e248e2" x="497.187273" y="390.048873" style="fill: #2e6f9e; stroke: #2e6f9e; stroke-linejoin: miter"/>
     <use xlink:href="#m75c8e248e2" x="570.99682" y="393.504652" style="fill: #2e6f9e; stroke: #2e6f9e; stroke-linejoin: miter"/>
     <use xlink:href="#m75c8e248e2" x="644.806366" y="384.865203" style="fill: #2e6f9e; stroke: #2e6f9e; stroke-linejoin: miter"/>
     <use xlink:href="#m75c8e248e2" x="718.615912" y="369.314194" style="fill: #2e6f9e; stroke: #2e6f9e; stroke-linejoin: miter"/>
     <use xlink:href="#m75c8e248e2" x="792.425459" y="343.395847" style="fill: #2e6f9e; stroke: #2e6f9e; stroke-linejoin: miter"/>
    </g>
   </g>
   <g id="patch_16">
    <path d="M 71.38 552.08275 
L 71.38 333.458375 
" style="fill: none; stroke: #111111; stroke-width: 1.35; stroke-linejoin: miter; stroke-linecap: square"/>
   </g>
   <g id="patch_17">
    <path d="M 71.38 552.08275 
L 849.185 552.08275 
" style="fill: none; stroke: #111111; stroke-width: 1.35; stroke-linejoin: miter; stroke-linecap: square"/>
   </g>
   <g id="text_26">
    <!-- 格网承载强度变化 -->
    <g style="fill: #111111" transform="translate(388.2825 327.458375) scale(0.18 -0.18)">
     <defs>
      <path id="STZhongsong-627f" d="M 3443 941 
L 3725 941 
L 3910 1197 
Q 3987 1306 4048 1306 
Q 4109 1306 4326 1082 
Q 4544 858 4544 806 
Q 4544 755 4397 755 
L 3443 755 
L 3443 -301 
Q 3443 -518 3372 -633 
Q 3302 -749 3049 -864 
Q 2797 -979 2707 -979 
Q 2656 -979 2630 -883 
Q 2573 -659 2429 -540 
Q 2285 -422 1914 -320 
L 1914 -192 
Q 2451 -288 2624 -288 
Q 2797 -288 2838 -246 
Q 2880 -205 2880 -109 
L 2880 755 
L 1978 755 
Q 1805 755 1709 710 
L 1594 973 
Q 1728 941 1914 941 
L 2880 941 
L 2880 1600 
L 2368 1600 
Q 2195 1600 2099 1555 
L 1984 1811 
Q 2118 1779 2304 1779 
L 2880 1779 
L 2880 2496 
L 2496 2496 
Q 2323 2496 2227 2451 
L 2112 2707 
Q 2246 2675 2432 2675 
L 2880 2675 
L 2880 3104 
Q 2880 3386 2861 3635 
Q 3136 3558 3360 3462 
Q 3923 3962 4160 4230 
L 1498 4230 
Q 1325 4230 1229 4186 
L 1114 4448 
Q 1248 4416 1434 4416 
L 4237 4416 
L 4512 4640 
Q 4576 4698 4640 4698 
Q 4704 4698 5008 4461 
Q 5312 4224 5312 4150 
Q 5312 4077 5152 4090 
Q 5088 4096 5050 4096 
Q 4890 4096 4592 3955 
Q 4294 3814 3443 3322 
L 3443 2675 
L 3546 2675 
L 3674 2848 
Q 3744 2944 3795 2944 
Q 3846 2944 3984 2765 
Q 4122 2586 4122 2541 
Q 4122 2496 4006 2496 
L 3443 2496 
L 3443 1779 
L 3648 1779 
L 3782 1952 
Q 3840 2029 3891 2029 
Q 3942 2029 4096 1849 
Q 4250 1670 4250 1635 
Q 4250 1600 4134 1600 
L 3443 1600 
L 3443 941 
z
M 4563 2291 
Q 4979 2643 5389 3149 
Q 5613 2957 5776 2784 
Q 5939 2611 5939 2585 
Q 5939 2560 5888 2560 
L 5766 2573 
Q 5651 2573 5456 2477 
Q 5261 2381 4608 2138 
Q 5056 685 6253 58 
L 6240 -51 
Q 5894 -83 5782 -128 
Q 5670 -173 5603 -269 
Q 5536 -365 5485 -365 
Q 5434 -365 5398 -342 
Q 5363 -320 5081 86 
Q 4800 493 4614 953 
Q 4429 1414 4333 1980 
Q 4237 2547 4192 3366 
L 4346 3379 
Q 4416 2822 4563 2291 
z
M 1427 2918 
L 1587 3136 
Q 1670 3245 1728 3245 
Q 1786 3245 2010 3056 
Q 2234 2867 2234 2825 
Q 2234 2784 2118 2752 
Q 2061 2739 2032 2678 
Q 2003 2618 1965 2406 
Q 1741 1235 1357 579 
Q 973 -77 237 -698 
L 122 -627 
Q 1312 602 1498 2720 
L 672 2720 
Q 512 2720 429 2682 
L 320 2950 
Q 461 2918 659 2918 
L 1427 2918 
z
" transform="scale(0.015625)"/>
      <path id="STZhongsong-8f7d" d="M 4582 557 
Q 4774 179 5068 -35 
Q 5363 -250 5433 -250 
Q 5504 -250 5529 -179 
Q 5555 -109 5683 877 
L 5830 870 
Q 5811 602 5811 336 
Q 5811 70 5856 -192 
Q 5901 -454 6029 -806 
Q 6067 -922 6067 -995 
Q 6067 -1069 5948 -1069 
Q 5830 -1069 5523 -973 
Q 5216 -877 4845 -595 
Q 4474 -314 4160 166 
Q 3571 -301 2592 -730 
L 2547 -608 
Q 3373 -141 3987 525 
Q 3750 1210 3680 2874 
L 1696 2874 
Q 2253 2586 2253 2515 
Q 2253 2490 2179 2477 
Q 2106 2464 2054 2413 
Q 2003 2362 1926 2214 
L 2726 2214 
L 2950 2509 
Q 2995 2566 3027 2566 
Q 3091 2566 3305 2358 
Q 3520 2150 3520 2089 
Q 3520 2029 3405 2029 
L 1837 2029 
L 1402 1190 
L 1920 1190 
Q 1920 1773 1907 1856 
Q 2323 1779 2460 1740 
Q 2598 1702 2598 1660 
Q 2598 1619 2426 1542 
L 2426 1190 
L 2816 1190 
L 3066 1504 
Q 3085 1536 3133 1536 
Q 3181 1536 3325 1389 
Q 3469 1242 3539 1165 
Q 3610 1088 3610 1033 
Q 3610 979 3520 979 
L 2426 979 
L 2426 480 
L 3578 608 
L 3584 499 
L 2426 211 
L 2426 -858 
Q 2426 -934 2365 -966 
Q 2304 -998 2147 -1049 
Q 1990 -1101 1933 -1101 
Q 1907 -1101 1907 -1050 
L 1914 -544 
Q 1920 -262 1920 90 
Q 928 -115 691 -243 
Q 653 -262 634 -262 
Q 582 -262 451 -48 
Q 320 166 269 314 
Q 1114 339 1920 429 
L 1920 979 
L 1350 979 
L 1216 813 
Q 1165 755 1133 755 
Q 1101 755 957 857 
Q 813 960 659 1120 
Q 819 1197 905 1312 
Q 992 1427 1318 2029 
L 800 2029 
Q 634 2029 544 1997 
L 454 2240 
Q 570 2214 710 2214 
L 1414 2214 
Q 1638 2662 1645 2874 
L 544 2874 
Q 378 2874 288 2842 
L 198 3085 
Q 314 3059 454 3059 
L 1837 3059 
L 1837 3526 
L 986 3526 
Q 819 3526 730 3494 
L 640 3770 
Q 755 3744 896 3744 
L 1837 3744 
L 1837 4320 
Q 1837 4813 1824 4922 
Q 2080 4858 2278 4781 
Q 2477 4704 2518 4678 
Q 2560 4653 2560 4627 
Q 2560 4582 2368 4461 
L 2368 3744 
L 2739 3744 
L 2989 4051 
Q 3034 4115 3088 4115 
Q 3142 4115 3344 3888 
Q 3546 3661 3546 3593 
Q 3546 3526 3424 3526 
L 2368 3526 
L 2368 3059 
L 3674 3059 
L 3654 3802 
Q 3642 4595 3616 4890 
Q 4416 4736 4416 4634 
Q 4416 4576 4205 4512 
Q 4186 3782 4198 3059 
L 5088 3059 
L 5338 3347 
Q 5414 3437 5475 3437 
Q 5536 3437 5801 3197 
Q 6067 2957 6067 2915 
Q 6067 2874 5933 2874 
L 4198 2874 
Q 4224 1696 4403 1043 
Q 4890 1747 5043 2490 
Q 5235 2394 5427 2285 
Q 5619 2176 5644 2144 
Q 5670 2112 5670 2067 
Q 5670 2022 5555 1984 
Q 5504 1965 5462 1904 
Q 5421 1843 5306 1619 
Q 4992 992 4582 557 
z
M 4474 4416 
Q 4909 4352 5161 4237 
Q 5414 4122 5414 3859 
Q 5414 3712 5312 3581 
Q 5210 3450 5101 3450 
Q 5050 3450 5018 3488 
Q 4986 3526 4947 3648 
Q 4819 4038 4448 4333 
L 4474 4416 
z
" transform="scale(0.015625)"/>
      <path id="STZhongsong-5f3a" d="M 3462 4301 
L 4819 4301 
L 4979 4557 
Q 5024 4627 5072 4627 
Q 5120 4627 5395 4441 
Q 5670 4256 5670 4185 
Q 5670 4115 5408 4013 
L 5408 3309 
Q 5408 3174 5414 3078 
L 5427 2918 
Q 5427 2835 5232 2771 
Q 5037 2707 4969 2707 
Q 4902 2707 4902 2771 
L 4902 2950 
L 4416 2950 
L 4416 2163 
L 5126 2163 
L 5254 2349 
Q 5293 2400 5344 2400 
Q 5395 2400 5644 2249 
Q 5894 2099 5894 2041 
Q 5894 1984 5658 1856 
L 5658 1171 
Q 5658 1037 5664 941 
L 5677 781 
Q 5677 698 5465 627 
Q 5254 557 5197 557 
Q 5158 557 5158 621 
L 5158 768 
L 4416 768 
L 4416 -224 
L 5286 -166 
Q 5171 122 4922 467 
L 4998 570 
Q 6029 -160 6029 -525 
Q 6029 -730 5910 -906 
Q 5792 -1082 5667 -1082 
Q 5542 -1082 5475 -810 
Q 5408 -538 5338 -320 
L 4102 -563 
Q 2867 -813 2675 -915 
Q 2611 -947 2582 -947 
Q 2554 -947 2534 -915 
Q 2515 -883 2432 -646 
Q 2349 -410 2323 -320 
Q 2963 -320 3891 -262 
L 3891 768 
L 3149 768 
L 3149 563 
Q 3149 506 3129 483 
Q 3110 461 3027 419 
Q 2944 378 2829 352 
Q 2714 326 2678 326 
Q 2643 326 2643 378 
L 2656 819 
L 2656 1888 
Q 2656 2163 2637 2438 
Q 2970 2323 3245 2163 
L 3891 2163 
L 3891 2950 
L 3366 2950 
L 3366 2790 
Q 3366 2739 3353 2720 
Q 3341 2701 3254 2656 
Q 3168 2611 3037 2588 
Q 2906 2566 2883 2566 
Q 2861 2566 2861 2618 
L 2867 2842 
Q 2874 2944 2874 3059 
L 2874 4038 
Q 2874 4307 2854 4582 
Q 3219 4448 3462 4301 
z
M 4902 3149 
L 4902 4102 
L 3366 4102 
L 3366 3149 
L 4902 3149 
z
M 3891 1965 
L 3149 1965 
L 3149 992 
L 3891 992 
L 3891 1965 
z
M 5158 992 
L 5158 1965 
L 4416 1965 
L 4416 992 
L 5158 992 
z
M 1786 3021 
L 1786 4038 
L 685 4038 
Q 563 4038 454 3994 
L 288 4262 
Q 442 4250 608 4250 
L 1760 4250 
L 1894 4486 
Q 1933 4544 1974 4544 
Q 2016 4544 2281 4361 
Q 2547 4179 2547 4121 
Q 2547 4064 2304 3949 
L 2304 3232 
Q 2304 2976 2313 2797 
Q 2323 2618 2323 2586 
Q 2323 2554 2268 2518 
Q 2214 2483 2051 2432 
Q 1888 2381 1837 2381 
Q 1786 2381 1786 2451 
L 1786 2822 
L 1178 2822 
L 1082 1722 
L 1683 1722 
L 1830 1920 
Q 1869 1971 1910 1971 
Q 1952 1971 2125 1856 
Q 2298 1741 2400 1664 
Q 2502 1587 2502 1549 
Q 2502 1478 2240 1389 
Q 2189 608 2137 278 
Q 2086 -51 2003 -281 
Q 1920 -512 1808 -646 
Q 1696 -781 1501 -864 
Q 1306 -947 1178 -947 
Q 1114 -947 1114 -845 
Q 1114 -691 1059 -592 
Q 1005 -493 838 -393 
Q 672 -294 307 -147 
L 333 -19 
Q 1088 -205 1248 -205 
Q 1408 -205 1462 -150 
Q 1517 -96 1574 70 
Q 1632 237 1686 646 
Q 1741 1056 1741 1504 
L 1120 1504 
L 1018 1363 
Q 966 1299 921 1299 
Q 877 1299 681 1404 
Q 486 1510 410 1574 
Q 531 1664 566 1718 
Q 602 1773 608 1888 
L 678 2790 
Q 698 3014 698 3258 
Q 1056 3136 1280 3021 
L 1786 3021 
z
" transform="scale(0.015625)"/>
      <path id="STZhongsong-5ea6" d="M 3296 3987 
Q 3219 4301 3120 4473 
Q 3021 4646 2810 4832 
L 2854 4915 
Q 3878 4736 3878 4365 
Q 3878 4269 3814 4166 
Q 3750 4064 3610 3987 
L 5075 3987 
L 5376 4346 
Q 5427 4410 5466 4410 
Q 5536 4410 5808 4163 
Q 6080 3917 6080 3859 
Q 6080 3802 5965 3802 
L 1754 3802 
Q 1754 3488 1741 2931 
L 2656 2931 
L 2656 3277 
Q 2656 3488 2637 3744 
Q 3059 3648 3200 3600 
Q 3341 3552 3341 3507 
Q 3341 3456 3174 3360 
L 3174 2931 
L 4179 2931 
L 4179 3270 
Q 4179 3482 4160 3738 
Q 4653 3629 4765 3581 
Q 4877 3533 4877 3501 
Q 4877 3450 4710 3354 
L 4710 2931 
L 5094 2931 
L 5363 3309 
Q 5402 3360 5434 3360 
Q 5498 3360 5750 3107 
Q 6003 2854 6003 2803 
Q 6003 2752 5888 2752 
L 4710 2752 
L 4710 2355 
Q 4710 2067 4717 1946 
L 4730 1747 
Q 4730 1702 4678 1673 
Q 4627 1645 4457 1590 
Q 4288 1536 4218 1536 
Q 4179 1536 4179 1600 
L 4179 1888 
L 3174 1888 
L 3174 1722 
Q 3174 1677 3164 1648 
Q 3155 1619 2934 1552 
Q 2714 1485 2672 1485 
Q 2630 1485 2630 1530 
L 2643 1754 
Q 2656 1920 2656 2150 
L 2656 2752 
L 1734 2752 
Q 1696 1491 1606 963 
Q 1517 435 1238 -51 
Q 960 -538 358 -1082 
L 275 -1005 
Q 832 -262 1011 477 
Q 1190 1216 1190 2477 
Q 1190 3738 1158 4320 
Q 1510 4198 1843 3987 
L 3296 3987 
z
M 4179 2752 
L 3174 2752 
L 3174 2074 
L 4179 2074 
L 4179 2752 
z
M 3674 -250 
Q 2842 -806 1139 -1069 
L 1139 -941 
Q 2432 -627 3354 19 
Q 2944 422 2669 1133 
L 2387 1133 
Q 2214 1133 2118 1088 
L 2003 1350 
Q 2138 1318 2323 1318 
L 4467 1318 
L 4602 1472 
Q 4653 1530 4697 1530 
Q 4742 1530 5024 1331 
Q 5306 1133 5306 1078 
Q 5306 1024 5206 1017 
Q 5107 1011 5062 995 
Q 5018 979 4954 902 
Q 4506 403 4090 51 
Q 4858 -294 6227 -416 
L 6182 -557 
Q 5894 -557 5721 -643 
Q 5549 -730 5459 -922 
Q 5427 -992 5376 -992 
Q 5280 -992 4681 -768 
Q 4083 -544 3674 -250 
z
M 3686 269 
Q 4166 685 4403 1133 
L 2848 1133 
Q 3187 602 3686 269 
z
" transform="scale(0.015625)"/>
     </defs>
     <use xlink:href="#STZhongsong-683c"/>
     <use xlink:href="#STZhongsong-7f51" transform="translate(99.999985 0)"/>
     <use xlink:href="#STZhongsong-627f" transform="translate(199.999969 0)"/>
     <use xlink:href="#STZhongsong-8f7d" transform="translate(299.999954 0)"/>
     <use xlink:href="#STZhongsong-5f3a" transform="translate(399.999939 0)"/>
     <use xlink:href="#STZhongsong-5ea6" transform="translate(499.999924 0)"/>
     <use xlink:href="#STZhongsong-53d8" transform="translate(599.999908 0)"/>
     <use xlink:href="#STZhongsong-5316" transform="translate(699.999893 0)"/>
    </g>
   </g>
   <g id="legend_1">
    <g id="line2d_41">
     <path d="M 83.98 351.6715 
L 97.98 351.6715 
L 111.98 351.6715 
" style="fill: none; stroke: #b07aa1; stroke-width: 3.1; stroke-linecap: square"/>
     <g>
      <use xlink:href="#me42a657623" x="97.98" y="351.6715" style="fill: #b07aa1; stroke: #b07aa1"/>
     </g>
    </g>
    <g id="text_27">
     <!-- 活跃格网平均企业数 -->
     <g style="fill: #111111" transform="translate(123.18 356.5715) scale(0.14 -0.14)">
      <defs>
       <path id="STZhongsong-5e73" d="M 3002 4006 
L 1197 4006 
Q 1024 4006 928 3962 
L 813 4205 
Q 947 4173 1133 4173 
L 4691 4173 
L 4979 4595 
Q 5037 4685 5104 4685 
Q 5171 4685 5510 4413 
Q 5850 4141 5850 4073 
Q 5850 4006 5715 4006 
L 3578 4006 
L 3578 1594 
L 4960 1594 
L 5286 2048 
Q 5350 2131 5401 2131 
Q 5453 2131 5673 1964 
Q 5894 1798 6038 1680 
Q 6182 1562 6182 1491 
Q 6182 1421 6067 1421 
L 3578 1421 
L 3578 -141 
Q 3578 -352 3590 -589 
L 3597 -806 
Q 3597 -858 3549 -893 
Q 3501 -928 3293 -998 
Q 3085 -1069 3021 -1069 
Q 2982 -1069 2982 -966 
L 3002 -141 
L 3002 1421 
L 646 1421 
Q 474 1421 378 1376 
L 262 1626 
Q 397 1594 582 1594 
L 3002 1594 
L 3002 4006 
z
M 4800 3654 
Q 5043 3494 5209 3356 
Q 5376 3219 5405 3184 
Q 5434 3149 5434 3117 
Q 5434 3053 5325 3046 
Q 5216 3040 5168 3014 
Q 5120 2989 5050 2918 
Q 4320 2227 3808 1850 
L 3718 1933 
Q 4339 2669 4800 3654 
z
M 1453 3603 
Q 1926 3334 2201 3107 
Q 2477 2880 2477 2646 
Q 2477 2413 2329 2217 
Q 2182 2022 2054 2022 
Q 1971 2022 1939 2086 
Q 1907 2150 1888 2298 
Q 1824 2918 1363 3520 
L 1453 3603 
z
" transform="scale(0.015625)"/>
       <path id="STZhongsong-5747" d="M 3725 3462 
Q 3251 2541 2534 1869 
L 2432 1958 
Q 2829 2547 3059 3132 
Q 3290 3718 3648 4947 
Q 3968 4845 4224 4710 
Q 4480 4576 4480 4537 
Q 4480 4499 4342 4464 
Q 4205 4429 4150 4307 
Q 4096 4186 3834 3667 
L 5178 3667 
L 5338 3898 
Q 5370 3936 5408 3936 
Q 5466 3936 5782 3741 
Q 6099 3546 6099 3472 
Q 6099 3398 5811 3264 
Q 5779 1792 5737 982 
Q 5696 173 5654 -51 
Q 5613 -275 5475 -428 
Q 5338 -582 5021 -729 
Q 4704 -877 4627 -877 
Q 4570 -877 4538 -762 
Q 4486 -550 4329 -435 
Q 4173 -320 3661 -147 
L 3699 -13 
Q 4333 -102 4566 -102 
Q 4800 -102 4899 -60 
Q 4998 -19 5036 57 
Q 5075 134 5107 361 
Q 5139 589 5164 960 
Q 5190 1331 5203 2016 
L 5235 3462 
L 3725 3462 
z
M 1395 2739 
L 685 2739 
Q 512 2739 416 2694 
L 301 2982 
Q 435 2950 621 2950 
L 1395 2950 
L 1395 4307 
Q 1395 4627 1382 4877 
Q 2189 4749 2189 4646 
Q 2189 4595 1926 4493 
L 1926 2950 
L 2035 2950 
L 2240 3251 
Q 2278 3302 2310 3302 
Q 2374 3302 2611 3059 
Q 2848 2816 2848 2777 
Q 2848 2739 2752 2739 
L 1926 2739 
L 1926 1050 
L 2938 1325 
L 2976 1210 
L 1395 410 
Q 896 160 765 64 
Q 634 -32 602 -32 
Q 538 -32 198 646 
Q 813 749 1395 902 
L 1395 2739 
z
M 3558 2778 
Q 4122 2592 4317 2445 
Q 4512 2298 4512 2125 
Q 4512 1952 4422 1821 
Q 4333 1690 4230 1690 
Q 4192 1690 4157 1728 
Q 4122 1766 4026 1971 
Q 3930 2176 3837 2304 
Q 3744 2432 3494 2662 
L 3558 2778 
z
M 5037 1261 
L 3853 653 
Q 3078 256 3001 211 
Q 2925 166 2893 166 
Q 2861 166 2842 205 
L 2733 416 
Q 2637 589 2560 762 
Q 3059 838 3610 992 
L 4998 1376 
L 5037 1261 
z
" transform="scale(0.015625)"/>
      </defs>
      <use xlink:href="#STZhongsong-6d3b"/>
      <use xlink:href="#STZhongsong-8dc3" transform="translate(99.999985 0)"/>
      <use xlink:href="#STZhongsong-683c" transform="translate(199.999969 0)"/>
      <use xlink:href="#STZhongsong-7f51" transform="translate(299.999954 0)"/>
      <use xlink:href="#STZhongsong-5e73" transform="translate(399.999939 0)"/>
      <use xlink:href="#STZhongsong-5747" transform="translate(499.999924 0)"/>
      <use xlink:href="#STZhongsong-4f01" transform="translate(599.999908 0)"/>
      <use xlink:href="#STZhongsong-4e1a" transform="translate(699.999893 0)"/>
      <use xlink:href="#STZhongsong-6570" transform="translate(799.999878 0)"/>
     </g>
    </g>
    <g id="line2d_42">
     <path d="M 83.98 371.956187 
L 97.98 371.956187 
L 111.98 371.956187 
" style="fill: none; stroke: #2e6f9e; stroke-width: 3.1; stroke-linecap: square"/>
     <g>
      <use xlink:href="#m75c8e248e2" x="97.98" y="371.956187" style="fill: #2e6f9e; stroke: #2e6f9e; stroke-linejoin: miter"/>
     </g>
    </g>
    <g id="text_28">
     <!-- 单格网最大企业数 -->
     <g style="fill: #111111" transform="translate(123.18 376.856187) scale(0.14 -0.14)">
      <defs>
       <path id="STZhongsong-5355" d="M 4646 1370 
L 3488 1370 
L 3488 582 
L 5178 582 
L 5472 979 
Q 5530 1050 5603 1050 
Q 5677 1050 5718 1021 
Q 5760 992 5977 777 
Q 6195 563 6224 524 
Q 6253 486 6253 454 
Q 6253 352 6035 352 
L 3488 352 
L 3488 -198 
Q 3488 -410 3501 -653 
L 3507 -870 
Q 3507 -922 3449 -960 
Q 3392 -998 3209 -1065 
Q 3027 -1133 2957 -1133 
Q 2918 -1133 2918 -1030 
L 2925 -653 
Q 2931 -486 2931 -198 
L 2931 352 
L 672 352 
Q 499 352 403 307 
L 288 614 
Q 422 582 608 582 
L 2931 582 
L 2931 1370 
L 1766 1370 
L 1766 1139 
Q 1766 1088 1753 1065 
Q 1741 1043 1619 988 
Q 1498 934 1376 905 
Q 1254 877 1225 877 
Q 1197 877 1197 928 
L 1210 1235 
Q 1222 1562 1222 1805 
L 1222 3283 
Q 1222 3552 1203 3827 
Q 1562 3706 1875 3507 
L 3462 3507 
Q 3866 4301 4083 4934 
Q 4346 4838 4570 4729 
Q 4794 4621 4822 4592 
Q 4851 4563 4851 4531 
Q 4851 4454 4736 4442 
Q 4666 4435 4611 4409 
Q 4557 4384 4464 4297 
Q 4371 4211 4166 3987 
L 3725 3507 
L 4563 3507 
L 4742 3795 
Q 4774 3853 4806 3853 
Q 4838 3853 5075 3712 
Q 5312 3571 5392 3507 
Q 5472 3443 5472 3395 
Q 5472 3347 5216 3200 
L 5216 1920 
L 5229 1280 
Q 5229 1222 5216 1200 
Q 5203 1178 5113 1133 
Q 5024 1088 4877 1046 
Q 4730 1005 4688 1005 
Q 4646 1005 4646 1101 
L 4646 1370 
z
M 3488 2598 
L 4646 2598 
L 4646 3296 
L 3488 3296 
L 3488 2598 
z
M 1766 2598 
L 2931 2598 
L 2931 3296 
L 1766 3296 
L 1766 2598 
z
M 4646 2368 
L 3488 2368 
L 3488 1587 
L 4646 1587 
L 4646 2368 
z
M 2931 2368 
L 1766 2368 
L 1766 1587 
L 2931 1587 
L 2931 2368 
z
M 1709 4883 
Q 2240 4646 2531 4438 
Q 2822 4230 2822 4044 
Q 2822 3859 2697 3712 
Q 2573 3565 2426 3565 
Q 2349 3565 2320 3606 
Q 2291 3648 2259 3802 
Q 2170 4211 1658 4774 
L 1709 4883 
z
" transform="scale(0.015625)"/>
       <path id="STZhongsong-6700" d="M 1952 4512 
L 4224 4512 
L 4422 4749 
Q 4461 4800 4505 4800 
Q 4550 4800 4816 4617 
Q 5082 4435 5082 4377 
Q 5082 4320 4877 4218 
L 4877 3507 
Q 4877 3322 4883 3110 
L 4896 2912 
Q 4896 2867 4877 2838 
Q 4858 2810 4768 2758 
Q 4678 2707 4547 2668 
Q 4416 2630 4358 2630 
Q 4301 2630 4301 2682 
L 4301 2899 
L 1901 2899 
L 1901 2816 
Q 1901 2765 1894 2739 
Q 1888 2714 1779 2656 
Q 1670 2598 1536 2556 
Q 1402 2515 1373 2515 
Q 1344 2515 1350 2586 
Q 1382 2893 1382 3219 
L 1382 4243 
Q 1382 4512 1363 4787 
Q 1779 4627 1952 4512 
z
M 4301 3808 
L 4301 4301 
L 1901 4301 
L 1901 3808 
L 4301 3808 
z
M 4301 3098 
L 4301 3622 
L 1901 3622 
L 1901 3098 
L 4301 3098 
z
M 1062 2272 
L 595 2272 
Q 422 2272 326 2227 
L 211 2502 
Q 346 2470 531 2470 
L 5024 2470 
L 5286 2822 
Q 5350 2912 5408 2912 
Q 5466 2912 5776 2669 
Q 6086 2426 6086 2349 
Q 6086 2272 5939 2272 
L 3008 2272 
L 3008 499 
L 3635 608 
L 3667 493 
L 3008 294 
L 3008 -32 
Q 3008 -243 3021 -480 
L 3027 -698 
Q 3027 -736 3011 -755 
Q 2995 -774 2886 -844 
Q 2778 -915 2666 -960 
Q 2554 -1005 2515 -1005 
Q 2477 -1005 2477 -902 
L 2483 -653 
Q 2496 -397 2496 -77 
L 2496 147 
L 1766 -70 
Q 781 -365 685 -422 
Q 589 -480 563 -480 
Q 506 -480 262 45 
Q 838 128 1062 166 
L 1062 2272 
z
M 2496 2272 
L 1555 2272 
L 1555 1773 
L 2496 1773 
L 2496 2272 
z
M 1555 1574 
L 1555 1082 
L 2496 1082 
L 2496 1574 
L 1555 1574 
z
M 1555 896 
L 1555 243 
L 2496 410 
L 2496 896 
L 1555 896 
z
M 4378 -70 
Q 3987 -467 3123 -960 
L 3046 -838 
Q 3782 -256 4128 205 
Q 3731 698 3475 1574 
Q 3270 1562 3213 1530 
L 3098 1824 
Q 3232 1792 3418 1792 
L 4698 1792 
L 4864 1997 
Q 4909 2048 4944 2048 
Q 4979 2048 5164 1936 
Q 5350 1824 5446 1757 
Q 5542 1690 5542 1651 
Q 5542 1613 5430 1558 
Q 5318 1504 5276 1459 
Q 5235 1414 5190 1274 
Q 4979 634 4672 250 
Q 5203 -96 6221 -307 
L 6202 -422 
Q 5888 -454 5766 -512 
Q 5645 -570 5530 -723 
Q 5485 -781 5446 -781 
Q 5382 -781 5001 -547 
Q 4621 -314 4378 -70 
z
M 4339 512 
Q 4595 960 4704 1574 
L 3667 1574 
Q 3936 890 4339 512 
z
" transform="scale(0.015625)"/>
       <path id="STZhongsong-5927" d="M 3296 2899 
L 4973 2899 
L 5318 3302 
Q 5382 3379 5427 3379 
Q 5498 3379 5802 3078 
Q 6106 2778 6106 2720 
Q 6106 2675 5952 2675 
L 3610 2675 
Q 3898 1491 4512 755 
Q 5126 19 6202 -448 
L 6176 -563 
Q 6054 -550 5946 -550 
Q 5517 -550 5267 -794 
Q 5216 -838 5190 -838 
Q 5107 -838 4614 -275 
Q 4122 288 3837 976 
Q 3552 1664 3437 2675 
L 3277 2675 
Q 3200 1427 2710 697 
Q 2221 -32 314 -1005 
L 243 -902 
Q 1709 38 2169 787 
Q 2630 1536 2701 2675 
L 787 2675 
Q 646 2675 518 2630 
L 403 2931 
Q 506 2899 723 2899 
L 2714 2899 
Q 2733 3219 2733 3670 
Q 2733 4122 2701 4902 
Q 3027 4832 3292 4758 
Q 3558 4685 3590 4662 
Q 3622 4640 3622 4608 
Q 3622 4576 3513 4512 
Q 3405 4448 3369 4326 
Q 3334 4205 3321 3686 
Q 3309 3168 3296 2899 
z
" transform="scale(0.015625)"/>
      </defs>
      <use xlink:href="#STZhongsong-5355"/>
      <use xlink:href="#STZhongsong-683c" transform="translate(99.999985 0)"/>
      <use xlink:href="#STZhongsong-7f51" transform="translate(199.999969 0)"/>
      <use xlink:href="#STZhongsong-6700" transform="translate(299.999954 0)"/>
      <use xlink:href="#STZhongsong-5927" transform="translate(399.999939 0)"/>
      <use xlink:href="#STZhongsong-4f01" transform="translate(499.999924 0)"/>
      <use xlink:href="#STZhongsong-4e1a" transform="translate(599.999908 0)"/>
      <use xlink:href="#STZhongsong-6570" transform="translate(699.999893 0)"/>
     </g>
    </g>
   </g>
  </g>
  <g id="text_29">
   <!-- 格网覆盖范围与承载强度变化 -->
   <g style="fill: #111111" transform="translate(278.485 24.335) scale(0.23 -0.23)">
    <defs>
     <path id="STZhongsong-8986" d="M 2323 4262 
L 826 4262 
Q 653 4262 557 4218 
L 442 4474 
Q 589 4448 762 4448 
L 4986 4448 
L 5274 4813 
Q 5331 4883 5376 4883 
Q 5421 4883 5526 4809 
Q 5632 4736 5805 4589 
Q 5978 4442 6013 4400 
Q 6048 4358 6048 4326 
Q 6048 4262 5965 4262 
L 4141 4262 
L 4141 3827 
L 4928 3827 
L 5056 4026 
Q 5075 4064 5107 4064 
Q 5139 4064 5289 3984 
Q 5440 3904 5549 3833 
Q 5658 3763 5658 3738 
Q 5658 3686 5421 3552 
L 5421 3309 
L 5427 3046 
Q 5427 2989 5372 2950 
Q 5318 2912 5203 2870 
Q 5088 2829 5030 2829 
Q 4973 2829 4960 2854 
Q 4947 2880 4947 2957 
L 3514 2957 
Q 3738 2867 3738 2803 
Q 3738 2758 3629 2752 
Q 3520 2746 3379 2611 
L 5139 2611 
L 5350 2848 
Q 5395 2899 5456 2899 
Q 5517 2899 5718 2710 
Q 5920 2522 5920 2467 
Q 5920 2413 5830 2413 
L 3162 2413 
Q 3123 2374 3059 2323 
Q 3181 2234 3264 2157 
L 4845 2157 
L 4992 2323 
Q 5024 2362 5065 2362 
Q 5107 2362 5267 2282 
Q 5427 2202 5468 2176 
Q 5510 2150 5510 2125 
Q 5510 2080 5331 1965 
L 5331 1421 
L 5344 1165 
Q 5344 1120 5309 1091 
Q 5274 1062 5126 998 
Q 4979 934 4909 934 
Q 4851 934 4851 1050 
L 4006 1050 
Q 3866 870 3731 723 
L 4781 723 
L 4922 838 
Q 4960 877 4985 877 
Q 5011 877 5254 758 
Q 5498 640 5542 608 
Q 5587 576 5587 534 
Q 5587 493 5466 474 
Q 5254 448 5146 333 
Q 4915 77 4621 -154 
Q 5318 -352 6240 -390 
L 6240 -518 
Q 5933 -557 5801 -640 
Q 5670 -723 5606 -896 
Q 5574 -966 5530 -966 
Q 5446 -966 5033 -838 
Q 4621 -710 4192 -435 
Q 3373 -883 2074 -1094 
L 2048 -973 
Q 3155 -672 3891 -211 
Q 3539 90 3379 384 
Q 2867 -64 2150 -384 
L 2074 -269 
Q 2938 282 3398 1050 
L 3200 1050 
Q 3206 966 3049 905 
Q 2893 845 2765 845 
Q 2701 845 2707 934 
Q 2726 1107 2726 1306 
L 2726 2042 
Q 2547 1894 2330 1747 
Q 2445 1658 2445 1619 
Q 2445 1581 2336 1574 
Q 2227 1568 2144 1491 
L 1728 1126 
L 1728 -685 
Q 1728 -781 1667 -851 
Q 1606 -922 1478 -992 
Q 1350 -1062 1267 -1062 
Q 1216 -1062 1216 -998 
L 1229 -627 
Q 1242 -384 1242 -154 
L 1242 742 
Q 781 410 314 198 
L 250 288 
Q 1280 1101 1869 2022 
Q 2093 1907 2214 1824 
Q 2746 2374 3053 2957 
L 1523 2957 
Q 1523 2829 1491 2793 
Q 1459 2758 1296 2707 
Q 1133 2656 1037 2656 
Q 992 2656 992 2714 
L 1005 3014 
L 1005 3610 
Q 1005 3834 986 4077 
Q 1325 3981 1587 3827 
L 2323 3827 
L 2323 4262 
z
M 3629 4262 
L 2835 4262 
L 2835 3827 
L 3629 3827 
L 3629 4262 
z
M 2323 3648 
L 1523 3648 
L 1523 3136 
L 2323 3136 
L 2323 3648 
z
M 3629 3136 
L 3629 3648 
L 2835 3648 
L 2835 3136 
L 3629 3136 
z
M 4141 3648 
L 4141 3136 
L 4947 3136 
L 4947 3648 
L 4141 3648 
z
M 4851 1709 
L 4851 1978 
L 3200 1978 
L 3200 1709 
L 4851 1709 
z
M 4851 1229 
L 4851 1542 
L 3200 1542 
L 3200 1229 
L 4851 1229 
z
M 3526 518 
Q 3494 486 3475 474 
Q 3750 198 4198 0 
Q 4518 230 4742 518 
L 3526 518 
z
M 1779 2835 
Q 2086 2688 2195 2614 
Q 2304 2541 2304 2490 
Q 2304 2426 2185 2426 
Q 2067 2426 1926 2310 
Q 1542 1990 1273 1827 
Q 1005 1664 486 1446 
L 448 1542 
Q 1216 2067 1779 2835 
z
" transform="scale(0.015625)"/>
     <path id="STZhongsong-76d6" d="M 1965 4870 
Q 2426 4742 2650 4556 
Q 2874 4371 2874 4204 
Q 2874 4038 2746 3907 
Q 2618 3776 2483 3776 
Q 2413 3776 2377 3849 
Q 2342 3923 2323 4090 
Q 2285 4410 1901 4787 
L 1965 4870 
z
M 3558 2874 
L 4614 2874 
L 4864 3219 
Q 4934 3315 4979 3315 
Q 5024 3315 5094 3251 
L 5331 3027 
Q 5491 2874 5532 2829 
Q 5574 2784 5574 2736 
Q 5574 2688 5434 2688 
L 3558 2688 
L 3558 2010 
L 5101 2010 
L 5350 2349 
Q 5421 2438 5472 2438 
Q 5523 2438 5811 2198 
Q 6099 1958 6099 1888 
Q 6099 1818 5965 1818 
L 813 1818 
Q 640 1818 544 1773 
L 429 2042 
Q 563 2010 749 2010 
L 2989 2010 
L 2989 2688 
L 1286 2688 
Q 1114 2688 1018 2643 
L 902 2906 
Q 1037 2874 1222 2874 
L 2989 2874 
L 2989 3552 
L 1018 3552 
Q 845 3552 749 3507 
L 634 3770 
Q 768 3738 954 3738 
L 3546 3738 
Q 3923 4352 4115 4832 
Q 4800 4646 4800 4486 
Q 4800 4410 4669 4397 
Q 4538 4384 4381 4275 
Q 4224 4166 3802 3738 
L 4883 3738 
L 5120 4083 
Q 5178 4160 5264 4160 
Q 5350 4160 5475 4045 
Q 5600 3930 5750 3805 
Q 5901 3680 5901 3616 
Q 5901 3552 5754 3552 
L 3558 3552 
L 3558 2874 
z
M 2074 1216 
L 4602 1216 
L 4749 1459 
Q 4787 1523 4828 1523 
Q 4870 1523 5075 1404 
Q 5280 1286 5382 1212 
Q 5485 1139 5485 1088 
Q 5485 1005 5197 858 
L 5197 -525 
L 5216 -525 
L 5427 -166 
Q 5485 -64 5581 -64 
Q 5677 -64 5952 -323 
Q 6227 -582 6227 -646 
Q 6227 -710 6080 -710 
L 627 -710 
Q 480 -710 410 -749 
L 307 -493 
Q 435 -525 576 -525 
L 1382 -525 
L 1382 915 
Q 1382 1178 1363 1459 
Q 1773 1363 2074 1216 
z
M 2490 1011 
L 1907 1011 
L 1907 -525 
L 2490 -525 
L 2490 1011 
z
M 3539 1011 
L 2976 1011 
L 2976 -525 
L 3539 -525 
L 3539 1011 
z
M 4653 -525 
L 4653 1011 
L 4032 1011 
L 4032 -525 
L 4653 -525 
z
" transform="scale(0.015625)"/>
     <path id="STZhongsong-8303" d="M 4371 3885 
L 5101 3885 
L 5357 4275 
Q 5427 4378 5497 4378 
Q 5568 4378 5875 4128 
Q 6182 3878 6182 3785 
Q 6182 3693 6029 3693 
L 4371 3693 
L 4384 3174 
Q 4384 3066 4345 3030 
Q 4307 2995 4124 2931 
Q 3942 2867 3884 2867 
Q 3827 2867 3827 2976 
L 3827 3693 
L 2541 3693 
L 2541 3130 
Q 2541 3046 2528 3014 
Q 2515 2982 2371 2908 
Q 2227 2835 2067 2835 
Q 1978 2835 1978 2925 
L 1990 3238 
Q 1997 3430 1997 3693 
L 742 3693 
Q 557 3693 454 3654 
L 294 3917 
Q 429 3885 614 3885 
L 1997 3885 
L 1997 4442 
Q 1997 4582 1971 4909 
Q 2368 4819 2553 4755 
Q 2739 4691 2739 4636 
Q 2739 4582 2541 4518 
L 2541 3885 
L 3827 3885 
L 3827 4454 
Q 3827 4666 3808 4922 
Q 4045 4870 4256 4806 
Q 4467 4742 4518 4713 
Q 4570 4685 4570 4640 
Q 4570 4595 4371 4480 
L 4371 3885 
z
M 909 3091 
Q 1389 3008 1677 2870 
Q 1965 2733 1965 2477 
Q 1965 2298 1878 2176 
Q 1792 2054 1705 2054 
Q 1619 2054 1555 2214 
Q 1331 2720 845 2995 
L 909 3091 
z
M 3443 2662 
L 4659 2662 
L 4819 2906 
Q 4883 3002 4928 3002 
Q 4973 3002 5261 2816 
Q 5549 2630 5549 2576 
Q 5549 2522 5248 2374 
L 5190 1363 
Q 5178 1101 5136 950 
Q 5094 800 4985 691 
Q 4877 582 4669 496 
Q 4461 410 4416 410 
Q 4371 410 4352 480 
Q 4294 704 4179 793 
Q 4064 883 3635 1030 
L 3661 1139 
Q 4090 1062 4298 1062 
Q 4506 1062 4570 1148 
Q 4634 1235 4640 1466 
L 4678 2483 
L 3354 2483 
L 3354 58 
Q 3354 -154 3379 -202 
Q 3405 -250 3709 -269 
Q 4013 -288 4320 -288 
Q 5139 -288 5299 -198 
Q 5459 -109 5542 1024 
L 5677 1024 
Q 5658 608 5693 390 
Q 5728 173 5811 73 
Q 5894 -26 6016 -74 
Q 6138 -122 6138 -186 
Q 6138 -250 6016 -438 
Q 5894 -627 5769 -694 
Q 5645 -762 5325 -787 
Q 5005 -813 4278 -813 
Q 3552 -813 3283 -768 
Q 3014 -723 2921 -592 
Q 2829 -461 2829 -160 
L 2829 2374 
Q 2829 2694 2816 2944 
Q 3213 2803 3443 2662 
z
M 2592 2445 
L 1958 851 
Q 1811 486 1756 252 
Q 1702 19 1702 -169 
Q 1702 -358 1715 -483 
Q 1728 -608 1728 -678 
Q 1728 -992 1542 -992 
Q 1427 -992 1244 -899 
Q 1062 -806 1062 -627 
Q 1062 -563 1082 -467 
Q 1171 -90 1171 80 
Q 1171 250 1075 339 
Q 979 429 486 634 
L 512 736 
Q 858 678 1059 678 
Q 1261 678 1382 739 
Q 1504 800 1587 941 
L 2483 2496 
L 2592 2445 
z
M 570 2138 
Q 1146 1971 1338 1856 
Q 1530 1741 1530 1597 
Q 1530 1453 1437 1293 
Q 1344 1133 1216 1133 
Q 1158 1133 1123 1171 
Q 1088 1210 989 1427 
Q 890 1645 790 1779 
Q 691 1914 538 2048 
L 570 2138 
z
" transform="scale(0.015625)"/>
     <path id="STZhongsong-56f4" d="M 1293 4518 
L 5018 4518 
L 5190 4774 
Q 5229 4838 5286 4838 
Q 5344 4838 5638 4640 
Q 5933 4442 5933 4368 
Q 5933 4294 5683 4179 
L 5683 -211 
Q 5683 -493 5690 -608 
L 5696 -819 
Q 5696 -870 5641 -902 
Q 5587 -934 5408 -998 
Q 5229 -1062 5184 -1062 
Q 5139 -1062 5139 -979 
L 5139 -499 
L 1267 -499 
L 1267 -819 
Q 1267 -902 1209 -944 
Q 1152 -986 976 -1056 
Q 800 -1126 736 -1126 
Q 691 -1126 698 -1050 
Q 723 -762 723 -435 
L 723 4211 
Q 723 4480 704 4755 
Q 1050 4653 1293 4518 
z
M 5139 -307 
L 5139 4320 
L 1267 4320 
L 1267 -307 
L 5139 -307 
z
M 2707 3258 
L 1658 3258 
Q 1504 3258 1446 3232 
L 1350 3488 
Q 1472 3462 1606 3462 
L 2707 3462 
L 2707 3776 
Q 2707 4032 2694 4230 
Q 3136 4147 3277 4102 
Q 3418 4058 3418 4022 
Q 3418 3987 3232 3904 
L 3232 3462 
L 4115 3462 
L 4326 3750 
Q 4371 3808 4422 3808 
Q 4474 3808 4720 3603 
Q 4966 3398 4966 3328 
Q 4966 3258 4845 3258 
L 3232 3258 
L 3232 2637 
L 3821 2637 
L 4038 2938 
Q 4083 2995 4128 2995 
Q 4173 2995 4416 2787 
Q 4659 2579 4659 2508 
Q 4659 2438 4499 2438 
L 3232 2438 
L 3232 1824 
L 4128 1824 
L 4262 2042 
Q 4282 2074 4307 2074 
Q 4352 2074 4605 1923 
Q 4858 1773 4858 1705 
Q 4858 1638 4653 1562 
Q 4653 1370 4637 1101 
Q 4621 832 4601 745 
Q 4582 659 4508 572 
Q 4435 486 4249 396 
Q 4064 307 4019 307 
Q 3974 307 3955 384 
Q 3904 557 3798 637 
Q 3693 717 3398 800 
L 3437 934 
Q 3795 858 3907 858 
Q 4019 858 4051 896 
Q 4083 934 4105 1155 
Q 4128 1376 4115 1626 
L 3232 1626 
L 3232 506 
L 3245 -26 
Q 3245 -77 3203 -102 
Q 3162 -128 2979 -182 
Q 2797 -237 2742 -237 
Q 2688 -237 2688 -160 
L 2701 45 
Q 2707 250 2707 499 
L 2707 1626 
L 1677 1626 
Q 1530 1626 1459 1594 
L 1370 1850 
Q 1485 1824 1619 1824 
L 2707 1824 
L 2707 2438 
L 1920 2438 
Q 1779 2438 1709 2406 
L 1613 2662 
Q 1734 2637 1869 2637 
L 2707 2637 
L 2707 3258 
z
" transform="scale(0.015625)"/>
     <path id="STZhongsong-4e0e" d="M 2323 3251 
L 2240 2234 
L 4845 2234 
L 4966 2432 
Q 5005 2496 5059 2496 
Q 5114 2496 5354 2339 
Q 5594 2182 5677 2134 
Q 5760 2086 5760 2025 
Q 5760 1965 5459 1818 
Q 5318 358 5260 22 
Q 5203 -314 5043 -592 
Q 4883 -870 4547 -998 
Q 4211 -1126 4109 -1126 
Q 4032 -1126 3987 -979 
Q 3917 -755 3744 -627 
Q 3571 -499 3078 -339 
L 3110 -192 
Q 3795 -333 4057 -333 
Q 4320 -333 4432 -262 
Q 4544 -192 4605 -19 
Q 4666 154 4739 688 
Q 4813 1222 4845 2035 
L 2304 2035 
L 2170 1830 
Q 2118 1747 2060 1747 
Q 2003 1747 1763 1872 
Q 1523 1997 1376 2099 
Q 1562 2214 1613 2275 
Q 1664 2336 1670 2445 
L 1786 4288 
Q 1798 4506 1798 4634 
Q 1798 4762 1792 4858 
Q 2054 4800 2361 4688 
Q 2669 4576 2669 4502 
Q 2669 4429 2419 4352 
L 2342 3462 
L 4864 3462 
L 5126 3891 
Q 5184 3981 5251 3981 
Q 5318 3981 5635 3689 
Q 5952 3398 5952 3324 
Q 5952 3251 5786 3251 
L 2323 3251 
z
M 3418 858 
L 3654 1242 
Q 3706 1325 3795 1325 
Q 3885 1325 4166 1059 
Q 4448 794 4448 704 
Q 4448 653 4314 653 
L 646 653 
Q 474 653 378 608 
L 256 890 
Q 390 858 576 858 
L 3418 858 
z
" transform="scale(0.015625)"/>
    </defs>
    <use xlink:href="#STZhongsong-683c"/>
    <use xlink:href="#STZhongsong-7f51" transform="translate(99.999985 0)"/>
    <use xlink:href="#STZhongsong-8986" transform="translate(199.999969 0)"/>
    <use xlink:href="#STZhongsong-76d6" transform="translate(299.999954 0)"/>
    <use xlink:href="#STZhongsong-8303" transform="translate(399.999939 0)"/>
    <use xlink:href="#STZhongsong-56f4" transform="translate(499.999924 0)"/>
    <use xlink:href="#STZhongsong-4e0e" transform="translate(599.999908 0)"/>
    <use xlink:href="#STZhongsong-627f" transform="translate(699.999893 0)"/>
    <use xlink:href="#STZhongsong-8f7d" transform="translate(799.999878 0)"/>
    <use xlink:href="#STZhongsong-5f3a" transform="translate(899.999863 0)"/>
    <use xlink:href="#STZhongsong-5ea6" transform="translate(999.999847 0)"/>
    <use xlink:href="#STZhongsong-53d8" transform="translate(1099.999832 0)"/>
    <use xlink:href="#STZhongsong-5316" transform="translate(1199.999817 0)"/>
   </g>
  </g>
 </g>
 <defs>
  <clipPath id="pa3de13a91f">
   <rect x="71.38" y="76.22025" width="777.805" height="218.624375"/>
  </clipPath>
  <clipPath id="p33636c7020">
   <rect x="71.38" y="333.458375" width="777.805" height="218.624375"/>
  </clipPath>
 </defs>
</svg>
