<?xml version="1.0" encoding="utf-8" standalone="no"?>
<!DOCTYPE svg PUBLIC "-//W3C//DTD SVG 1.1//EN"
  "http://www.w3.org/Graphics/SVG/1.1/DTD/svg11.dtd">
<svg xmlns:xlink="http://www.w3.org/1999/xlink" width="856.355pt" height="453.555469pt" viewBox="0 0 856.355 453.555469" xmlns="http://www.w3.org/2000/svg" version="1.1">
 <metadata>
  <rdf:RDF xmlns:dc="http://purl.org/dc/elements/1.1/" xmlns:cc="http://creativecommons.org/ns#" xmlns:rdf="http://www.w3.org/1999/02/22-rdf-syntax-ns#">
   <cc:Work>
    <dc:type rdf:resource="http://purl.org/dc/dcmitype/StillImage"/>
    <dc:date>2026-06-06T01:21:10.363768</dc:date>
    <dc:format>image/svg+xml</dc:format>
    <dc:creator>
     <cc:Agent>
      <dc:title>Matplotlib v3.10.0, https://matplotlib.org/</dc:title>
     </cc:Agent>
    </dc:creator>
   </cc:Work>
  </rdf:RDF>
 </metadata>
 <defs>
  <style type="text/css">*{stroke-linejoin: round; stroke-linecap: butt}</style>
 </defs>
 <g id="figure_1">
  <g id="patch_1">
   <path d="M 0 453.555469 
L 856.355 453.555469 
L 856.355 0 
L 0 0 
z
" style="fill: #ffffff"/>
  </g>
  <g id="axes_1">
   <g id="patch_2">
    <path d="M 62.08 405.551406 
L 849.155 405.551406 
L 849.155 38.992656 
L 62.08 38.992656 
z
" style="fill: #ffffff"/>
   </g>
   <g id="matplotlib.axis_1">
    <g id="xtick_1">
     <g id="line2d_1">
      <defs>
       <path id="ma7a018c1d6" d="M 0 0 
L 0 3.5 
" style="stroke: #111111; stroke-width: 0.8"/>
      </defs>
      <g>
       <use xlink:href="#ma7a018c1d6" x="177.358662" y="405.551406" style="fill: #111111; stroke: #111111; stroke-width: 0.8"/>
      </g>
     </g>
     <g id="text_1">
      <!-- 2016 -->
      <g style="fill: #111111" transform="translate(158.758662 423.290469) scale(0.15 -0.15)">
       <defs>
        <path id="STZhongsong-32" d="M 723 2714 
L 422 2675 
Q 397 2835 397 2989 
Q 397 3616 832 4025 
Q 1267 4435 1978 4435 
Q 2630 4435 3043 4064 
Q 3456 3693 3456 3098 
Q 3456 2669 3286 2349 
Q 3117 2029 2611 1603 
Q 2106 1178 1037 467 
L 2662 467 
Q 2963 467 3062 544 
Q 3162 621 3200 838 
L 3232 1018 
L 3494 1018 
L 3283 -154 
L 3085 -154 
L 3053 0 
L 320 0 
L 320 262 
L 819 640 
Q 1901 1453 2377 1977 
Q 2854 2502 2854 3066 
Q 2854 3507 2569 3788 
Q 2285 4070 1837 4070 
Q 1325 4070 1017 3753 
Q 710 3437 710 2918 
Q 710 2822 723 2714 
z
" transform="scale(0.015625)"/>
        <path id="STZhongsong-30" d="M 326 2182 
Q 326 3251 774 3843 
Q 1222 4435 1997 4435 
Q 2752 4435 3197 3827 
Q 3642 3219 3642 2144 
Q 3642 1139 3178 531 
Q 2714 -77 1952 -77 
Q 1229 -77 777 524 
Q 326 1126 326 2182 
z
M 3040 2182 
Q 3040 3104 2758 3616 
Q 2477 4128 1978 4128 
Q 1478 4128 1200 3590 
Q 922 3053 922 2118 
Q 922 1229 1210 733 
Q 1498 237 1971 237 
Q 2470 237 2755 752 
Q 3040 1267 3040 2182 
z
" transform="scale(0.015625)"/>
        <path id="STZhongsong-31" d="M 2150 4358 
L 2387 4358 
L 2387 742 
Q 2387 422 2464 342 
Q 2541 262 2822 262 
L 3130 262 
L 3130 0 
L 1069 0 
L 1069 262 
L 1408 262 
Q 1670 262 1766 348 
Q 1862 435 1862 742 
L 1862 3718 
L 1069 3718 
L 1069 3987 
Q 1709 4070 2150 4358 
z
" transform="scale(0.015625)"/>
        <path id="STZhongsong-36" d="M 3238 4442 
L 3238 4154 
Q 2131 4141 1603 3686 
Q 1075 3232 1037 2227 
Q 1446 2893 2240 2893 
Q 2880 2893 3289 2486 
Q 3699 2080 3699 1440 
Q 3699 742 3257 332 
Q 2816 -77 2093 -77 
Q 1286 -77 848 444 
Q 410 966 410 1926 
Q 410 3046 1056 3744 
Q 1702 4442 2995 4442 
L 3238 4442 
z
M 3072 1414 
Q 3072 1933 2800 2246 
Q 2528 2560 2099 2560 
Q 1658 2560 1363 2224 
Q 1069 1888 1069 1402 
Q 1069 890 1350 550 
Q 1632 211 2074 211 
Q 2509 211 2790 544 
Q 3072 877 3072 1414 
z
" transform="scale(0.015625)"/>
       </defs>
       <use xlink:href="#STZhongsong-32"/>
       <use xlink:href="#STZhongsong-30" transform="translate(61.999985 0)"/>
       <use xlink:href="#STZhongsong-31" transform="translate(123.999969 0)"/>
       <use xlink:href="#STZhongsong-36" transform="translate(185.999954 0)"/>
      </g>
     </g>
    </g>
    <g id="xtick_2">
     <g id="line2d_2">
      <g>
       <use xlink:href="#ma7a018c1d6" x="336.363712" y="405.551406" style="fill: #111111; stroke: #111111; stroke-width: 0.8"/>
      </g>
     </g>
     <g id="text_2">
      <!-- 2018 -->
      <g style="fill: #111111" transform="translate(317.763712 423.290469) scale(0.15 -0.15)">
       <defs>
        <path id="STZhongsong-38" d="M 2477 2419 
Q 3021 2208 3315 1923 
Q 3610 1638 3610 1197 
Q 3610 659 3152 291 
Q 2694 -77 1971 -77 
Q 1274 -77 816 272 
Q 358 621 358 1120 
Q 358 1485 633 1779 
Q 909 2074 1440 2259 
Q 1011 2451 800 2691 
Q 589 2931 589 3315 
Q 589 3814 998 4124 
Q 1408 4435 2035 4435 
Q 2618 4435 2998 4134 
Q 3379 3834 3379 3424 
Q 3379 2790 2477 2419 
z
M 2189 2534 
Q 2451 2707 2662 2918 
Q 2874 3130 2874 3418 
Q 2874 3706 2621 3923 
Q 2368 4141 1971 4141 
Q 1594 4141 1331 3926 
Q 1069 3712 1069 3430 
Q 1069 3168 1270 2989 
Q 1472 2810 1824 2675 
L 2189 2534 
z
M 1747 2131 
Q 1325 1939 1088 1670 
Q 851 1402 851 1126 
Q 851 762 1177 490 
Q 1504 218 1984 218 
Q 2438 218 2774 483 
Q 3110 749 3110 1082 
Q 3110 1594 2253 1933 
L 1747 2131 
z
" transform="scale(0.015625)"/>
       </defs>
       <use xlink:href="#STZhongsong-32"/>
       <use xlink:href="#STZhongsong-30" transform="translate(61.999985 0)"/>
       <use xlink:href="#STZhongsong-31" transform="translate(123.999969 0)"/>
       <use xlink:href="#STZhongsong-38" transform="translate(185.999954 0)"/>
      </g>
     </g>
    </g>
    <g id="xtick_3">
     <g id="line2d_3">
      <g>
       <use xlink:href="#ma7a018c1d6" x="495.368763" y="405.551406" style="fill: #111111; stroke: #111111; stroke-width: 0.8"/>
      </g>
     </g>
     <g id="text_3">
      <!-- 2020 -->
      <g style="fill: #111111" transform="translate(476.768763 423.290469) scale(0.15 -0.15)">
       <use xlink:href="#STZhongsong-32"/>
       <use xlink:href="#STZhongsong-30" transform="translate(61.999985 0)"/>
       <use xlink:href="#STZhongsong-32" transform="translate(123.999969 0)"/>
       <use xlink:href="#STZhongsong-30" transform="translate(185.999954 0)"/>
      </g>
     </g>
    </g>
    <g id="xtick_4">
     <g id="line2d_4">
      <g>
       <use xlink:href="#ma7a018c1d6" x="654.373813" y="405.551406" style="fill: #111111; stroke: #111111; stroke-width: 0.8"/>
      </g>
     </g>
     <g id="text_4">
      <!-- 2022 -->
      <g style="fill: #111111" transform="translate(635.773813 423.290469) scale(0.15 -0.15)">
       <use xlink:href="#STZhongsong-32"/>
       <use xlink:href="#STZhongsong-30" transform="translate(61.999985 0)"/>
       <use xlink:href="#STZhongsong-32" transform="translate(123.999969 0)"/>
       <use xlink:href="#STZhongsong-32" transform="translate(185.999954 0)"/>
      </g>
     </g>
    </g>
    <g id="xtick_5">
     <g id="line2d_5">
      <g>
       <use xlink:href="#ma7a018c1d6" x="813.378864" y="405.551406" style="fill: #111111; stroke: #111111; stroke-width: 0.8"/>
      </g>
     </g>
     <g id="text_5">
      <!-- 2024 -->
      <g style="fill: #111111" transform="translate(794.778864 423.290469) scale(0.15 -0.15)">
       <defs>
        <path id="STZhongsong-34" d="M 3494 1242 
L 2906 1242 
L 2906 518 
Q 2906 275 3213 250 
L 3213 45 
L 1882 45 
L 1882 250 
Q 2054 262 2156 336 
Q 2259 410 2259 518 
L 2259 1242 
L 550 1242 
L 550 1658 
L 2483 4365 
L 2906 4365 
L 2906 1581 
L 3494 1581 
L 3494 1242 
z
M 2259 1581 
L 2259 3462 
L 902 1581 
L 2259 1581 
z
" transform="scale(0.015625)"/>
       </defs>
       <use xlink:href="#STZhongsong-32"/>
       <use xlink:href="#STZhongsong-30" transform="translate(61.999985 0)"/>
       <use xlink:href="#STZhongsong-32" transform="translate(123.999969 0)"/>
       <use xlink:href="#STZhongsong-34" transform="translate(185.999954 0)"/>
      </g>
     </g>
    </g>
    <g id="text_6">
     <!-- 年份 -->
     <g style="fill: #111111" transform="translate(438.6175 442.955469) scale(0.17 -0.17)">
      <defs>
       <path id="STZhongsong-5e74" d="M 1939 3827 
L 4794 3827 
L 5082 4237 
Q 5133 4314 5171 4314 
Q 5210 4314 5328 4224 
Q 5446 4134 5612 3993 
Q 5779 3853 5840 3789 
Q 5901 3725 5901 3686 
Q 5901 3616 5811 3616 
L 3744 3616 
L 3744 2496 
L 4474 2496 
L 4736 2874 
Q 4787 2938 4822 2938 
Q 4858 2938 4970 2858 
Q 5082 2778 5232 2643 
Q 5382 2509 5414 2461 
Q 5446 2413 5446 2368 
Q 5446 2272 5350 2272 
L 3744 2272 
L 3744 1043 
L 5254 1043 
L 5542 1427 
Q 5587 1485 5654 1485 
Q 5722 1485 6013 1213 
Q 6304 941 6304 883 
Q 6304 826 6195 826 
L 3744 826 
Q 3744 19 3750 -294 
L 3763 -864 
Q 3763 -909 3731 -941 
Q 3699 -973 3475 -1056 
Q 3251 -1139 3203 -1139 
Q 3155 -1139 3155 -1037 
L 3168 -390 
Q 3174 -38 3174 826 
L 653 826 
Q 480 826 384 781 
L 269 1075 
Q 403 1043 589 1043 
L 1498 1043 
L 1498 2170 
Q 1498 2643 1485 2739 
Q 1856 2630 2138 2496 
L 3174 2496 
L 3174 3616 
L 1798 3616 
Q 1440 3046 1136 2713 
Q 832 2381 339 1984 
L 243 2086 
Q 1261 3174 1741 4909 
Q 2259 4704 2400 4611 
Q 2541 4518 2541 4457 
Q 2541 4397 2435 4384 
Q 2330 4371 2253 4288 
Q 2176 4205 1939 3827 
z
M 3174 2272 
L 2054 2272 
L 2054 1043 
L 3174 1043 
L 3174 2272 
z
" transform="scale(0.015625)"/>
       <path id="STZhongsong-4efd" d="M 1190 2470 
Q 736 1830 237 1389 
L 141 1472 
Q 1158 2701 1702 4838 
Q 1894 4768 2115 4672 
Q 2336 4576 2374 4544 
Q 2413 4512 2413 4477 
Q 2413 4442 2326 4419 
Q 2240 4397 2205 4345 
Q 2170 4294 2099 4115 
Q 1888 3578 1530 2982 
Q 1837 2912 1837 2842 
Q 1837 2803 1709 2720 
L 1709 -806 
Q 1709 -883 1670 -928 
Q 1632 -973 1453 -1049 
Q 1274 -1126 1219 -1126 
Q 1165 -1126 1165 -1056 
L 1178 -563 
Q 1190 -262 1190 70 
L 1190 2470 
z
M 6272 2355 
L 6259 2227 
Q 6170 2240 6099 2240 
Q 5786 2240 5658 1971 
Q 5638 1926 5587 1926 
Q 5408 1926 4813 2630 
Q 4218 3334 4102 4806 
Q 4742 4742 4742 4627 
Q 4742 4589 4672 4570 
Q 4467 4518 4467 4323 
Q 4467 4128 4636 3712 
Q 4806 3296 5209 2925 
Q 5613 2554 6272 2355 
z
M 3174 4506 
Q 3635 4346 3753 4285 
Q 3872 4224 3872 4182 
Q 3872 4141 3753 4105 
Q 3635 4070 3546 3834 
Q 3034 2477 1888 1421 
L 1798 1491 
Q 2765 2810 3174 4506 
z
M 3232 1920 
L 3072 1920 
Q 2906 1920 2803 1875 
L 2662 2157 
Q 2797 2125 2982 2125 
L 4461 2125 
L 4614 2330 
Q 4659 2381 4704 2381 
Q 4749 2381 4937 2246 
Q 5126 2112 5212 2041 
Q 5299 1971 5299 1920 
Q 5299 1869 5139 1760 
Q 5114 1011 5066 432 
Q 5018 -147 4966 -355 
Q 4915 -563 4796 -700 
Q 4678 -838 4451 -944 
Q 4224 -1050 4169 -1050 
Q 4115 -1050 4090 -966 
Q 4038 -774 3856 -640 
Q 3674 -506 3328 -378 
L 3373 -243 
Q 3910 -384 4076 -384 
Q 4243 -384 4307 -326 
Q 4371 -269 4432 -73 
Q 4493 122 4528 541 
Q 4563 960 4576 1920 
L 3782 1920 
Q 3738 730 3389 125 
Q 3040 -480 1946 -1094 
L 1869 -1011 
Q 2669 -358 2934 237 
Q 3200 832 3232 1920 
z
" transform="scale(0.015625)"/>
      </defs>
      <use xlink:href="#STZhongsong-5e74"/>
      <use xlink:href="#STZhongsong-4efd" transform="translate(99.999985 0)"/>
     </g>
    </g>
   </g>
   <g id="matplotlib.axis_2">
    <g id="ytick_1">
     <g id="line2d_6">
      <path d="M 62.08 391.541384 
L 849.155 391.541384 
" clip-path="url(#p46094fad0e)" style="fill: none; stroke: #ececec; stroke-width: 0.9; stroke-linecap: square"/>
     </g>
     <g id="line2d_7">
      <defs>
       <path id="m3fe27d4a00" d="M 0 0 
L -3.5 0 
" style="stroke: #111111; stroke-width: 0.8"/>
      </defs>
      <g>
       <use xlink:href="#m3fe27d4a00" x="62.08" y="391.541384" style="fill: #111111; stroke: #111111; stroke-width: 0.8"/>
      </g>
     </g>
     <g id="text_7">
      <!-- 0 -->
      <g style="fill: #111111" transform="translate(45.78 396.910915) scale(0.15 -0.15)">
       <use xlink:href="#STZhongsong-30"/>
      </g>
     </g>
    </g>
    <g id="ytick_2">
     <g id="line2d_8">
      <path d="M 62.08 347.345731 
L 849.155 347.345731 
" clip-path="url(#p46094fad0e)" style="fill: none; stroke: #ececec; stroke-width: 0.9; stroke-linecap: square"/>
     </g>
     <g id="line2d_9">
      <g>
       <use xlink:href="#m3fe27d4a00" x="62.08" y="347.345731" style="fill: #111111; stroke: #111111; stroke-width: 0.8"/>
      </g>
     </g>
     <g id="text_8">
      <!-- 100 -->
      <g style="fill: #111111" transform="translate(27.18 352.715262) scale(0.15 -0.15)">
       <use xlink:href="#STZhongsong-31"/>
       <use xlink:href="#STZhongsong-30" transform="translate(61.999985 0)"/>
       <use xlink:href="#STZhongsong-30" transform="translate(123.999969 0)"/>
      </g>
     </g>
    </g>
    <g id="ytick_3">
     <g id="line2d_10">
      <path d="M 62.08 303.150077 
L 849.155 303.150077 
" clip-path="url(#p46094fad0e)" style="fill: none; stroke: #ececec; stroke-width: 0.9; stroke-linecap: square"/>
     </g>
     <g id="line2d_11">
      <g>
       <use xlink:href="#m3fe27d4a00" x="62.08" y="303.150077" style="fill: #111111; stroke: #111111; stroke-width: 0.8"/>
      </g>
     </g>
     <g id="text_9">
      <!-- 200 -->
      <g style="fill: #111111" transform="translate(27.18 308.519608) scale(0.15 -0.15)">
       <use xlink:href="#STZhongsong-32"/>
       <use xlink:href="#STZhongsong-30" transform="translate(61.999985 0)"/>
       <use xlink:href="#STZhongsong-30" transform="translate(123.999969 0)"/>
      </g>
     </g>
    </g>
    <g id="ytick_4">
     <g id="line2d_12">
      <path d="M 62.08 258.954424 
L 849.155 258.954424 
" clip-path="url(#p46094fad0e)" style="fill: none; stroke: #ececec; stroke-width: 0.9; stroke-linecap: square"/>
     </g>
     <g id="line2d_13">
      <g>
       <use xlink:href="#m3fe27d4a00" x="62.08" y="258.954424" style="fill: #111111; stroke: #111111; stroke-width: 0.8"/>
      </g>
     </g>
     <g id="text_10">
      <!-- 300 -->
      <g style="fill: #111111" transform="translate(27.18 264.323955) scale(0.15 -0.15)">
       <defs>
        <path id="STZhongsong-33" d="M 934 3194 
L 634 3238 
Q 717 3827 1097 4131 
Q 1478 4435 2061 4435 
Q 2662 4435 3046 4124 
Q 3430 3814 3430 3360 
Q 3430 3021 3190 2761 
Q 2950 2502 2502 2374 
Q 3046 2298 3334 1974 
Q 3622 1651 3622 1222 
Q 3622 698 3155 310 
Q 2688 -77 1997 -77 
Q 1299 -77 844 275 
Q 390 627 390 960 
Q 390 1114 505 1184 
Q 621 1254 710 1254 
Q 922 1254 1043 858 
Q 1133 544 1369 377 
Q 1606 211 1952 211 
Q 2419 211 2720 512 
Q 3021 813 3021 1267 
Q 3021 1702 2717 1952 
Q 2413 2202 1862 2202 
L 1568 2202 
L 1568 2502 
L 1754 2502 
Q 2829 2502 2829 3283 
Q 2829 3629 2592 3843 
Q 2355 4058 1952 4058 
Q 1107 4058 934 3194 
z
" transform="scale(0.015625)"/>
       </defs>
       <use xlink:href="#STZhongsong-33"/>
       <use xlink:href="#STZhongsong-30" transform="translate(61.999985 0)"/>
       <use xlink:href="#STZhongsong-30" transform="translate(123.999969 0)"/>
      </g>
     </g>
    </g>
    <g id="ytick_5">
     <g id="line2d_14">
      <path d="M 62.08 214.75877 
L 849.155 214.75877 
" clip-path="url(#p46094fad0e)" style="fill: none; stroke: #ececec; stroke-width: 0.9; stroke-linecap: square"/>
     </g>
     <g id="line2d_15">
      <g>
       <use xlink:href="#m3fe27d4a00" x="62.08" y="214.75877" style="fill: #111111; stroke: #111111; stroke-width: 0.8"/>
      </g>
     </g>
     <g id="text_11">
      <!-- 400 -->
      <g style="fill: #111111" transform="translate(27.18 220.128301) scale(0.15 -0.15)">
       <use xlink:href="#STZhongsong-34"/>
       <use xlink:href="#STZhongsong-30" transform="translate(61.999985 0)"/>
       <use xlink:href="#STZhongsong-30" transform="translate(123.999969 0)"/>
      </g>
     </g>
    </g>
    <g id="ytick_6">
     <g id="line2d_16">
      <path d="M 62.08 170.563117 
L 849.155 170.563117 
" clip-path="url(#p46094fad0e)" style="fill: none; stroke: #ececec; stroke-width: 0.9; stroke-linecap: square"/>
     </g>
     <g id="line2d_17">
      <g>
       <use xlink:href="#m3fe27d4a00" x="62.08" y="170.563117" style="fill: #111111; stroke: #111111; stroke-width: 0.8"/>
      </g>
     </g>
     <g id="text_12">
      <!-- 500 -->
      <g style="fill: #111111" transform="translate(27.18 175.932648) scale(0.15 -0.15)">
       <defs>
        <path id="STZhongsong-35" d="M 934 4358 
L 2880 4358 
Q 3046 4358 3097 4387 
Q 3149 4416 3155 4512 
L 3386 4512 
L 3386 3853 
L 1229 3853 
L 1171 2752 
Q 1530 2848 1990 2848 
Q 2771 2848 3228 2451 
Q 3686 2054 3686 1414 
Q 3686 787 3212 355 
Q 2739 -77 2029 -77 
Q 1414 -77 982 236 
Q 550 550 550 890 
Q 550 1037 640 1123 
Q 730 1210 838 1210 
Q 1062 1210 1203 813 
Q 1421 218 2042 218 
Q 2515 218 2819 528 
Q 3123 838 3123 1312 
Q 3123 1824 2777 2128 
Q 2432 2432 1843 2432 
Q 1280 2432 832 2246 
L 934 4358 
z
" transform="scale(0.015625)"/>
       </defs>
       <use xlink:href="#STZhongsong-35"/>
       <use xlink:href="#STZhongsong-30" transform="translate(61.999985 0)"/>
       <use xlink:href="#STZhongsong-30" transform="translate(123.999969 0)"/>
      </g>
     </g>
    </g>
    <g id="ytick_7">
     <g id="line2d_18">
      <path d="M 62.08 126.367463 
L 849.155 126.367463 
" clip-path="url(#p46094fad0e)" style="fill: none; stroke: #ececec; stroke-width: 0.9; stroke-linecap: square"/>
     </g>
     <g id="line2d_19">
      <g>
       <use xlink:href="#m3fe27d4a00" x="62.08" y="126.367463" style="fill: #111111; stroke: #111111; stroke-width: 0.8"/>
      </g>
     </g>
     <g id="text_13">
      <!-- 600 -->
      <g style="fill: #111111" transform="translate(27.18 131.736994) scale(0.15 -0.15)">
       <use xlink:href="#STZhongsong-36"/>
       <use xlink:href="#STZhongsong-30" transform="translate(61.999985 0)"/>
       <use xlink:href="#STZhongsong-30" transform="translate(123.999969 0)"/>
      </g>
     </g>
    </g>
    <g id="ytick_8">
     <g id="line2d_20">
      <path d="M 62.08 82.17181 
L 849.155 82.17181 
" clip-path="url(#p46094fad0e)" style="fill: none; stroke: #ececec; stroke-width: 0.9; stroke-linecap: square"/>
     </g>
     <g id="line2d_21">
      <g>
       <use xlink:href="#m3fe27d4a00" x="62.08" y="82.17181" style="fill: #111111; stroke: #111111; stroke-width: 0.8"/>
      </g>
     </g>
     <g id="text_14">
      <!-- 700 -->
      <g style="fill: #111111" transform="translate(27.18 87.541341) scale(0.15 -0.15)">
       <defs>
        <path id="STZhongsong-37" d="M 691 4518 
L 902 4518 
L 934 4358 
L 3667 4358 
L 3667 4096 
Q 2163 2317 1901 0 
L 1261 0 
Q 1421 1190 1949 2150 
Q 2477 3110 3174 3891 
L 1222 3891 
Q 1005 3891 899 3862 
Q 794 3834 736 3635 
L 614 3206 
L 352 3264 
L 691 4518 
z
" transform="scale(0.015625)"/>
       </defs>
       <use xlink:href="#STZhongsong-37"/>
       <use xlink:href="#STZhongsong-30" transform="translate(61.999985 0)"/>
       <use xlink:href="#STZhongsong-30" transform="translate(123.999969 0)"/>
      </g>
     </g>
    </g>
    <g id="text_15">
     <!-- 格网数量 -->
     <g style="fill: #111111" transform="translate(19.78 256.272031) rotate(-90) scale(0.17 -0.17)">
      <defs>
       <path id="STZhongsong-683c" d="M 1722 3334 
L 1869 3334 
L 2029 3571 
Q 2093 3667 2147 3667 
Q 2202 3667 2429 3449 
Q 2656 3232 2656 3171 
Q 2656 3110 2522 3110 
L 1722 3110 
L 1722 2573 
Q 2112 2445 2320 2281 
Q 2528 2118 2528 1875 
Q 2528 1760 2413 1638 
Q 2298 1517 2208 1517 
Q 2118 1517 2083 1542 
Q 2048 1568 2022 1709 
Q 1933 2182 1722 2394 
L 1722 -691 
Q 1722 -755 1706 -771 
Q 1690 -787 1597 -844 
Q 1504 -902 1363 -960 
Q 1222 -1018 1200 -1018 
Q 1178 -1018 1178 -960 
L 1190 -691 
Q 1203 -371 1203 -90 
L 1203 1971 
Q 1037 1562 825 1242 
Q 614 922 192 467 
L 102 538 
Q 749 1594 1094 3110 
L 570 3110 
Q 403 3110 294 3078 
L 186 3366 
Q 320 3334 506 3334 
L 1203 3334 
L 1203 4134 
Q 1203 4557 1184 4864 
Q 1965 4685 1965 4614 
Q 1965 4570 1722 4429 
L 1722 3334 
z
M 3341 3398 
Q 2995 2848 2464 2298 
L 2362 2362 
Q 2771 2995 2992 3516 
Q 3213 4038 3373 4806 
Q 3814 4666 3932 4602 
Q 4051 4538 4051 4499 
Q 4051 4461 3955 4416 
Q 3859 4371 3744 4137 
Q 3629 3904 3590 3834 
L 4813 3834 
L 4998 4115 
Q 5030 4166 5065 4166 
Q 5101 4166 5254 4060 
Q 5408 3955 5526 3868 
Q 5645 3782 5680 3737 
Q 5715 3693 5715 3648 
Q 5715 3571 5619 3558 
Q 5523 3546 5404 3456 
Q 5286 3366 5190 3219 
Q 4832 2688 4518 2374 
Q 5178 1952 6182 1754 
L 6182 1651 
Q 5869 1606 5773 1548 
Q 5677 1491 5613 1338 
Q 5587 1267 5520 1267 
Q 5453 1267 4960 1513 
Q 4467 1760 4147 2035 
Q 3725 1702 3034 1376 
Q 3251 1306 3456 1203 
L 4678 1203 
L 4781 1382 
Q 4813 1440 4880 1440 
Q 4947 1440 5190 1289 
Q 5434 1139 5434 1062 
Q 5434 986 5248 922 
L 5248 -186 
Q 5248 -365 5254 -493 
L 5261 -691 
Q 5261 -730 5197 -771 
Q 5133 -813 4973 -873 
Q 4813 -934 4755 -934 
Q 4717 -934 4717 -870 
L 4717 -390 
L 3443 -390 
L 3443 -813 
Q 3443 -877 3424 -896 
Q 3405 -915 3222 -979 
Q 3040 -1043 2963 -1043 
Q 2938 -1043 2938 -992 
L 2944 -755 
Q 2950 -646 2950 -454 
L 2950 794 
Q 2950 1165 2938 1331 
Q 2438 1101 2022 941 
L 1971 1037 
Q 3290 1786 3859 2336 
Q 3539 2746 3341 3398 
z
M 3494 3661 
Q 3469 3610 3456 3590 
Q 3750 3002 4160 2650 
Q 4544 3091 4826 3661 
L 3494 3661 
z
M 3443 -198 
L 4717 -198 
L 4717 1011 
L 3443 1011 
L 3443 -198 
z
" transform="scale(0.015625)"/>
       <path id="STZhongsong-7f51" d="M 1542 4320 
L 4992 4320 
L 5158 4614 
Q 5197 4678 5248 4678 
Q 5299 4678 5603 4464 
Q 5907 4250 5907 4179 
Q 5907 4109 5651 4038 
L 5651 -166 
Q 5651 -499 5584 -646 
Q 5517 -794 5245 -928 
Q 4973 -1062 4890 -1062 
Q 4845 -1062 4819 -966 
Q 4742 -685 4588 -576 
Q 4435 -467 3917 -326 
L 3936 -186 
Q 4608 -301 4800 -301 
Q 4992 -301 5037 -230 
Q 5082 -160 5082 32 
L 5082 4134 
L 1498 4134 
L 1498 -736 
Q 1498 -781 1485 -800 
Q 1472 -819 1360 -883 
Q 1248 -947 1110 -995 
Q 973 -1043 941 -1043 
Q 909 -1043 915 -986 
Q 954 -666 954 -166 
L 954 4141 
Q 954 4461 941 4710 
Q 1197 4608 1542 4320 
z
M 2470 2534 
Q 2637 3104 2778 3776 
Q 3053 3654 3206 3558 
Q 3360 3462 3389 3433 
Q 3418 3405 3418 3373 
Q 3418 3315 3334 3289 
Q 3251 3264 3203 3184 
Q 3155 3104 3027 2768 
Q 2899 2432 2765 2144 
Q 3245 1459 3245 992 
Q 3245 813 3126 653 
Q 3008 493 2938 493 
Q 2822 493 2790 723 
Q 2720 1261 2547 1683 
Q 2093 781 1632 262 
L 1542 390 
Q 2029 1126 2349 2118 
Q 2138 2534 1619 3290 
L 1709 3360 
Q 2138 2938 2470 2534 
z
M 4006 2522 
Q 4179 3104 4288 3712 
Q 4960 3354 4960 3238 
Q 4960 3194 4873 3165 
Q 4787 3136 4723 3056 
Q 4659 2976 4550 2688 
Q 4442 2400 4307 2106 
Q 4883 1235 4883 800 
Q 4883 646 4787 508 
Q 4691 371 4604 371 
Q 4518 371 4461 576 
Q 4320 1088 4096 1658 
Q 3654 787 3014 102 
L 2938 192 
Q 3494 1005 3885 2150 
Q 3686 2586 3347 3136 
L 3462 3181 
Q 3757 2835 4006 2522 
z
" transform="scale(0.015625)"/>
       <path id="STZhongsong-6570" d="M 2394 3334 
L 2938 3334 
L 3136 3616 
Q 3181 3680 3245 3680 
Q 3309 3680 3520 3462 
Q 3731 3245 3731 3193 
Q 3731 3142 3610 3142 
L 2394 3142 
L 2394 3027 
Q 2784 2938 3069 2819 
Q 3354 2701 3354 2515 
Q 3354 2381 3296 2227 
Q 3238 2074 3171 2074 
Q 3104 2074 3069 2109 
Q 3034 2144 2963 2259 
Q 2893 2374 2720 2556 
Q 2547 2739 2394 2854 
Q 2406 2381 2406 2259 
Q 2406 2138 2393 2099 
Q 2381 2061 2217 2006 
Q 2054 1952 1971 1933 
Q 2291 1811 2291 1722 
Q 2291 1670 2227 1660 
Q 2163 1651 2118 1609 
Q 2074 1568 1990 1434 
L 2637 1434 
L 2803 1619 
Q 2854 1677 2892 1677 
Q 2931 1677 3190 1481 
Q 3450 1286 3450 1228 
Q 3450 1171 3338 1148 
Q 3226 1126 3168 1088 
Q 3110 1050 3053 941 
Q 2848 563 2637 307 
Q 3040 205 3133 38 
Q 3226 -128 3226 -262 
Q 3226 -397 3187 -467 
Q 3149 -538 3101 -538 
Q 3053 -538 2816 -378 
Q 2579 -218 2278 -51 
Q 1664 -589 384 -992 
L 333 -877 
Q 1338 -371 1875 141 
Q 1440 326 845 474 
Q 1184 954 1331 1222 
L 691 1222 
Q 518 1222 422 1190 
L 307 1453 
Q 410 1434 627 1434 
L 1440 1434 
Q 1626 1824 1690 2035 
Q 1818 1997 1869 1978 
Q 1888 2515 1888 2874 
Q 1421 2125 282 1613 
L 243 1715 
Q 1075 2330 1549 3142 
L 589 3142 
Q 467 3142 390 3110 
L 301 3366 
Q 416 3334 550 3334 
L 1888 3334 
L 1888 4147 
Q 1888 4698 1875 4877 
Q 2592 4723 2592 4653 
Q 2592 4608 2394 4499 
L 2394 3334 
z
M 1856 1222 
L 1427 570 
Q 1914 480 2138 429 
Q 2413 762 2630 1222 
L 1856 1222 
z
M 4326 3270 
L 5222 3270 
L 5485 3590 
Q 5549 3661 5609 3661 
Q 5670 3661 5939 3421 
Q 6208 3181 6208 3117 
Q 6208 3072 6054 3072 
L 5050 3072 
Q 5638 2925 5638 2810 
Q 5638 2771 5542 2742 
Q 5446 2714 5404 2643 
Q 5363 2573 5338 2438 
Q 5088 1069 4749 518 
Q 5261 -186 6304 -646 
L 6246 -774 
Q 6080 -730 5933 -730 
Q 5658 -730 5446 -902 
Q 5389 -947 5363 -947 
Q 5299 -947 4934 -534 
Q 4570 -122 4448 102 
Q 4115 -301 3657 -579 
Q 3200 -858 2470 -1139 
L 2413 -1005 
Q 3642 -307 4211 544 
Q 3942 1152 3878 2342 
Q 3654 1946 3322 1491 
L 3213 1555 
Q 3949 2963 4109 4877 
Q 4333 4832 4563 4761 
Q 4794 4691 4858 4649 
Q 4922 4608 4922 4563 
Q 4922 4518 4813 4492 
Q 4704 4467 4653 4384 
Q 4602 4301 4538 3974 
Q 4474 3648 4326 3270 
z
M 4870 3072 
L 4250 3072 
L 4064 2682 
Q 4141 1594 4454 979 
Q 4723 1619 4870 3072 
z
M 3104 4602 
Q 3264 4525 3453 4422 
Q 3642 4320 3670 4288 
Q 3699 4256 3699 4221 
Q 3699 4186 3673 4170 
Q 3648 4154 3539 4154 
Q 3430 4154 3315 4038 
Q 2957 3680 2528 3392 
L 2464 3488 
Q 2906 4102 3104 4602 
z
M 653 4512 
Q 1171 4326 1353 4201 
Q 1536 4077 1536 3901 
Q 1536 3725 1453 3590 
Q 1370 3456 1286 3456 
Q 1203 3456 1164 3494 
Q 1126 3533 1084 3673 
Q 1043 3814 899 4038 
Q 755 4262 589 4429 
L 653 4512 
z
" transform="scale(0.015625)"/>
       <path id="STZhongsong-91cf" d="M 2054 4480 
L 4410 4480 
L 4576 4691 
Q 4608 4730 4640 4730 
Q 4691 4730 4969 4582 
Q 5248 4435 5248 4368 
Q 5248 4301 5024 4198 
L 5024 3738 
Q 5024 3552 5037 3341 
L 5043 3142 
Q 5043 3098 5030 3075 
Q 5018 3053 4922 2992 
Q 4826 2931 4685 2876 
Q 4544 2822 4509 2822 
Q 4474 2822 4474 2880 
L 4474 3046 
L 2016 3046 
Q 2029 2989 2006 2960 
Q 1984 2931 1897 2886 
Q 1811 2842 1660 2797 
Q 1510 2752 1475 2752 
Q 1440 2752 1446 2822 
Q 1478 3130 1478 3456 
L 1478 4198 
Q 1478 4467 1459 4742 
Q 1830 4608 2054 4480 
z
M 4474 3853 
L 4474 4294 
L 2016 4294 
L 2016 3853 
L 4474 3853 
z
M 4474 3213 
L 4474 3674 
L 2016 3674 
L 2016 3213 
L 4474 3213 
z
M 5171 2675 
L 5395 3040 
Q 5434 3110 5491 3110 
Q 5549 3110 5690 2989 
L 5984 2746 
Q 6138 2618 6138 2560 
Q 6138 2502 5990 2502 
L 640 2502 
Q 467 2502 371 2458 
L 256 2707 
Q 390 2675 576 2675 
L 5171 2675 
z
M 3482 672 
L 3482 166 
L 4666 166 
L 4864 416 
Q 4902 474 4950 474 
Q 4998 474 5251 285 
Q 5504 96 5504 38 
Q 5504 -19 5286 -19 
L 3482 -19 
L 3482 -550 
L 5203 -550 
L 5434 -230 
Q 5485 -160 5542 -160 
Q 5600 -160 5865 -390 
Q 6131 -621 6131 -691 
Q 6131 -736 5965 -736 
L 582 -736 
Q 410 -736 314 -781 
L 198 -518 
Q 333 -550 518 -550 
L 2931 -550 
L 2931 -19 
L 1274 -19 
Q 1101 -19 1005 -64 
L 877 198 
Q 1011 166 1197 166 
L 2931 166 
L 2931 672 
L 1843 672 
Q 1843 589 1824 569 
Q 1805 550 1725 505 
Q 1645 461 1481 413 
Q 1318 365 1296 365 
Q 1274 365 1280 422 
Q 1312 717 1312 1050 
L 1312 1747 
Q 1312 2074 1293 2355 
Q 1715 2253 1926 2150 
L 4544 2150 
L 4685 2362 
Q 4717 2413 4765 2413 
Q 4813 2413 4944 2333 
Q 5075 2253 5209 2157 
Q 5344 2061 5344 2029 
Q 5344 1971 5126 1850 
L 5126 1363 
Q 5126 1056 5133 954 
L 5139 762 
Q 5139 704 5091 669 
Q 5043 634 4880 592 
Q 4717 550 4627 550 
Q 4576 550 4576 627 
L 4576 672 
L 3482 672 
z
M 2931 1510 
L 2931 1978 
L 1843 1978 
L 1843 1510 
L 2931 1510 
z
M 3482 1978 
L 3482 1510 
L 4576 1510 
L 4576 1978 
L 3482 1978 
z
M 3482 1312 
L 3482 858 
L 4576 858 
L 4576 1312 
L 3482 1312 
z
M 2931 858 
L 2931 1312 
L 1843 1312 
L 1843 858 
L 2931 858 
z
" transform="scale(0.015625)"/>
      </defs>
      <use xlink:href="#STZhongsong-683c"/>
      <use xlink:href="#STZhongsong-7f51" transform="translate(99.999985 0)"/>
      <use xlink:href="#STZhongsong-6570" transform="translate(199.999969 0)"/>
      <use xlink:href="#STZhongsong-91cf" transform="translate(299.999954 0)"/>
     </g>
    </g>
   </g>
   <g id="line2d_22">
    <path d="M 97.856136 361.930296 
L 177.358662 299.172468 
L 256.861187 212.990944 
L 336.363712 138.742246 
L 415.866237 121.947898 
L 495.368763 126.367463 
L 574.871288 125.041594 
L 654.373813 102.50181 
L 733.876338 74.658549 
L 813.378864 55.654418 
" clip-path="url(#p46094fad0e)" style="fill: none; stroke: #80b1d3; stroke-width: 3.1; stroke-linecap: square"/>
    <defs>
     <path id="mfa670226da" d="M 0 4.3 
C 1.140373 4.3 2.234193 3.846925 3.040559 3.040559 
C 3.846925 2.234193 4.3 1.140373 4.3 0 
C 4.3 -1.140373 3.846925 -2.234193 3.040559 -3.040559 
C 2.234193 -3.846925 1.140373 -4.3 0 -4.3 
C -1.140373 -4.3 -2.234193 -3.846925 -3.040559 -3.040559 
C -3.846925 -2.234193 -4.3 -1.140373 -4.3 0 
C -4.3 1.140373 -3.846925 2.234193 -3.040559 3.040559 
C -2.234193 3.846925 -1.140373 4.3 0 4.3 
z
" style="stroke: #80b1d3"/>
    </defs>
    <g clip-path="url(#p46094fad0e)">
     <use xlink:href="#mfa670226da" x="97.856136" y="361.930296" style="fill: #80b1d3; stroke: #80b1d3"/>
     <use xlink:href="#mfa670226da" x="177.358662" y="299.172468" style="fill: #80b1d3; stroke: #80b1d3"/>
     <use xlink:href="#mfa670226da" x="256.861187" y="212.990944" style="fill: #80b1d3; stroke: #80b1d3"/>
     <use xlink:href="#mfa670226da" x="336.363712" y="138.742246" style="fill: #80b1d3; stroke: #80b1d3"/>
     <use xlink:href="#mfa670226da" x="415.866237" y="121.947898" style="fill: #80b1d3; stroke: #80b1d3"/>
     <use xlink:href="#mfa670226da" x="495.368763" y="126.367463" style="fill: #80b1d3; stroke: #80b1d3"/>
     <use xlink:href="#mfa670226da" x="574.871288" y="125.041594" style="fill: #80b1d3; stroke: #80b1d3"/>
     <use xlink:href="#mfa670226da" x="654.373813" y="102.50181" style="fill: #80b1d3; stroke: #80b1d3"/>
     <use xlink:href="#mfa670226da" x="733.876338" y="74.658549" style="fill: #80b1d3; stroke: #80b1d3"/>
     <use xlink:href="#mfa670226da" x="813.378864" y="55.654418" style="fill: #80b1d3; stroke: #80b1d3"/>
    </g>
   </g>
   <g id="line2d_23">
    <path d="M 97.856136 383.586166 
L 177.358662 359.278557 
L 256.861187 323.038121 
L 336.363712 291.659207 
L 415.866237 289.007468 
L 495.368763 289.449425 
L 574.871288 292.985077 
L 654.373813 278.400511 
L 733.876338 272.655076 
L 813.378864 263.373989 
" clip-path="url(#p46094fad0e)" style="fill: none; stroke: #4c78a8; stroke-width: 3.1; stroke-linecap: square"/>
    <defs>
     <path id="m65da3c6632" d="M -4.3 4.3 
L 4.3 4.3 
L 4.3 -4.3 
L -4.3 -4.3 
z
" style="stroke: #4c78a8; stroke-linejoin: miter"/>
    </defs>
    <g clip-path="url(#p46094fad0e)">
     <use xlink:href="#m65da3c6632" x="97.856136" y="383.586166" style="fill: #4c78a8; stroke: #4c78a8; stroke-linejoin: miter"/>
     <use xlink:href="#m65da3c6632" x="177.358662" y="359.278557" style="fill: #4c78a8; stroke: #4c78a8; stroke-linejoin: miter"/>
     <use xlink:href="#m65da3c6632" x="256.861187" y="323.038121" style="fill: #4c78a8; stroke: #4c78a8; stroke-linejoin: miter"/>
     <use xlink:href="#m65da3c6632" x="336.363712" y="291.659207" style="fill: #4c78a8; stroke: #4c78a8; stroke-linejoin: miter"/>
     <use xlink:href="#m65da3c6632" x="415.866237" y="289.007468" style="fill: #4c78a8; stroke: #4c78a8; stroke-linejoin: miter"/>
     <use xlink:href="#m65da3c6632" x="495.368763" y="289.449425" style="fill: #4c78a8; stroke: #4c78a8; stroke-linejoin: miter"/>
     <use xlink:href="#m65da3c6632" x="574.871288" y="292.985077" style="fill: #4c78a8; stroke: #4c78a8; stroke-linejoin: miter"/>
     <use xlink:href="#m65da3c6632" x="654.373813" y="278.400511" style="fill: #4c78a8; stroke: #4c78a8; stroke-linejoin: miter"/>
     <use xlink:href="#m65da3c6632" x="733.876338" y="272.655076" style="fill: #4c78a8; stroke: #4c78a8; stroke-linejoin: miter"/>
     <use xlink:href="#m65da3c6632" x="813.378864" y="263.373989" style="fill: #4c78a8; stroke: #4c78a8; stroke-linejoin: miter"/>
    </g>
   </g>
   <g id="line2d_24">
    <path d="M 97.856136 388.889645 
L 177.358662 383.14421 
L 256.861187 361.930296 
L 336.363712 352.207252 
L 415.866237 352.207252 
L 495.368763 355.300948 
L 574.871288 354.858992 
L 654.373813 352.649209 
L 733.876338 349.99747 
L 813.378864 347.345731 
" clip-path="url(#p46094fad0e)" style="fill: none; stroke: #1f4e79; stroke-width: 3.1; stroke-linecap: square"/>
    <defs>
     <path id="mf5349eca0a" d="M 0 -4.3 
L -4.3 4.3 
L 4.3 4.3 
z
" style="stroke: #1f4e79; stroke-linejoin: miter"/>
    </defs>
    <g clip-path="url(#p46094fad0e)">
     <use xlink:href="#mf5349eca0a" x="97.856136" y="388.889645" style="fill: #1f4e79; stroke: #1f4e79; stroke-linejoin: miter"/>
     <use xlink:href="#mf5349eca0a" x="177.358662" y="383.14421" style="fill: #1f4e79; stroke: #1f4e79; stroke-linejoin: miter"/>
     <use xlink:href="#mf5349eca0a" x="256.861187" y="361.930296" style="fill: #1f4e79; stroke: #1f4e79; stroke-linejoin: miter"/>
     <use xlink:href="#mf5349eca0a" x="336.363712" y="352.207252" style="fill: #1f4e79; stroke: #1f4e79; stroke-linejoin: miter"/>
     <use xlink:href="#mf5349eca0a" x="415.866237" y="352.207252" style="fill: #1f4e79; stroke: #1f4e79; stroke-linejoin: miter"/>
     <use xlink:href="#mf5349eca0a" x="495.368763" y="355.300948" style="fill: #1f4e79; stroke: #1f4e79; stroke-linejoin: miter"/>
     <use xlink:href="#mf5349eca0a" x="574.871288" y="354.858992" style="fill: #1f4e79; stroke: #1f4e79; stroke-linejoin: miter"/>
     <use xlink:href="#mf5349eca0a" x="654.373813" y="352.649209" style="fill: #1f4e79; stroke: #1f4e79; stroke-linejoin: miter"/>
     <use xlink:href="#mf5349eca0a" x="733.876338" y="349.99747" style="fill: #1f4e79; stroke: #1f4e79; stroke-linejoin: miter"/>
     <use xlink:href="#mf5349eca0a" x="813.378864" y="347.345731" style="fill: #1f4e79; stroke: #1f4e79; stroke-linejoin: miter"/>
    </g>
   </g>
   <g id="patch_3">
    <path d="M 62.08 405.551406 
L 62.08 38.992656 
" style="fill: none; stroke: #111111; stroke-width: 1.35; stroke-linejoin: miter; stroke-linecap: square"/>
   </g>
   <g id="patch_4">
    <path d="M 62.08 405.551406 
L 849.155 405.551406 
" style="fill: none; stroke: #111111; stroke-width: 1.35; stroke-linejoin: miter; stroke-linecap: square"/>
   </g>
   <g id="text_16">
    <!-- 高承载格网数量年度变化 -->
    <g style="fill: #111111" transform="translate(340.1175 22.992656) scale(0.21 -0.21)">
     <defs>
      <path id="STZhongsong-9ad8" d="M 3002 4083 
Q 2938 4557 2573 4838 
L 2611 4954 
Q 3629 4845 3629 4474 
Q 3629 4378 3568 4256 
Q 3507 4134 3443 4083 
L 4992 4083 
L 5235 4454 
Q 5306 4563 5405 4563 
Q 5504 4563 5808 4300 
Q 6112 4038 6112 3964 
Q 6112 3891 5984 3891 
L 659 3891 
Q 486 3891 390 3846 
L 275 4115 
Q 410 4083 595 4083 
L 3002 4083 
z
M 4109 2387 
L 2221 2387 
Q 2221 2304 2195 2262 
Q 2170 2221 2003 2166 
Q 1837 2112 1696 2112 
Q 1658 2112 1664 2163 
Q 1696 2477 1696 2739 
L 1696 3226 
Q 1696 3494 1677 3770 
Q 2099 3610 2285 3494 
L 4058 3494 
L 4218 3744 
Q 4243 3789 4304 3789 
Q 4365 3789 4633 3632 
Q 4902 3475 4902 3408 
Q 4902 3341 4653 3251 
L 4653 2861 
Q 4653 2650 4659 2573 
L 4672 2419 
Q 4672 2336 4445 2269 
Q 4218 2202 4147 2202 
Q 4109 2202 4109 2259 
L 4109 2387 
z
M 2221 2573 
L 4109 2573 
L 4109 3296 
L 2221 3296 
L 2221 2573 
z
M 1677 1875 
L 4870 1875 
L 5024 2112 
Q 5056 2157 5097 2157 
Q 5139 2157 5376 2016 
Q 5613 1875 5686 1824 
Q 5760 1773 5760 1725 
Q 5760 1677 5517 1574 
L 5517 -435 
Q 5517 -582 5485 -681 
Q 5453 -781 5353 -861 
Q 5254 -941 5046 -1017 
Q 4838 -1094 4764 -1094 
Q 4691 -1094 4691 -998 
Q 4691 -787 4531 -665 
Q 4371 -544 3878 -435 
L 3910 -288 
Q 4442 -384 4627 -384 
Q 4813 -384 4883 -352 
Q 4954 -320 4954 -218 
L 4954 1696 
L 1485 1696 
L 1485 -813 
Q 1485 -864 1472 -886 
Q 1459 -909 1337 -963 
Q 1216 -1018 1097 -1046 
Q 979 -1075 950 -1075 
Q 922 -1075 922 -1043 
L 941 -698 
Q 954 -480 954 -147 
L 954 1581 
Q 954 1901 941 2150 
Q 1363 2042 1677 1875 
z
M 3744 173 
L 2656 173 
L 2656 32 
Q 2656 -26 2643 -42 
Q 2630 -58 2531 -109 
Q 2432 -160 2317 -192 
Q 2202 -224 2166 -224 
Q 2131 -224 2138 -166 
Q 2170 147 2170 493 
L 2170 883 
Q 2170 1075 2144 1427 
Q 2515 1331 2739 1210 
L 3674 1210 
L 3834 1414 
Q 3878 1472 3926 1472 
Q 3974 1472 4220 1302 
Q 4467 1133 4467 1065 
Q 4467 998 4256 915 
L 4256 531 
Q 4256 365 4262 262 
L 4275 90 
Q 4275 6 4076 -61 
Q 3878 -128 3782 -128 
Q 3744 -128 3744 -70 
L 3744 173 
z
M 2656 358 
L 3744 358 
L 3744 1024 
L 2656 1024 
L 2656 358 
z
" transform="scale(0.015625)"/>
      <path id="STZhongsong-627f" d="M 3443 941 
L 3725 941 
L 3910 1197 
Q 3987 1306 4048 1306 
Q 4109 1306 4326 1082 
Q 4544 858 4544 806 
Q 4544 755 4397 755 
L 3443 755 
L 3443 -301 
Q 3443 -518 3372 -633 
Q 3302 -749 3049 -864 
Q 2797 -979 2707 -979 
Q 2656 -979 2630 -883 
Q 2573 -659 2429 -540 
Q 2285 -422 1914 -320 
L 1914 -192 
Q 2451 -288 2624 -288 
Q 2797 -288 2838 -246 
Q 2880 -205 2880 -109 
L 2880 755 
L 1978 755 
Q 1805 755 1709 710 
L 1594 973 
Q 1728 941 1914 941 
L 2880 941 
L 2880 1600 
L 2368 1600 
Q 2195 1600 2099 1555 
L 1984 1811 
Q 2118 1779 2304 1779 
L 2880 1779 
L 2880 2496 
L 2496 2496 
Q 2323 2496 2227 2451 
L 2112 2707 
Q 2246 2675 2432 2675 
L 2880 2675 
L 2880 3104 
Q 2880 3386 2861 3635 
Q 3136 3558 3360 3462 
Q 3923 3962 4160 4230 
L 1498 4230 
Q 1325 4230 1229 4186 
L 1114 4448 
Q 1248 4416 1434 4416 
L 4237 4416 
L 4512 4640 
Q 4576 4698 4640 4698 
Q 4704 4698 5008 4461 
Q 5312 4224 5312 4150 
Q 5312 4077 5152 4090 
Q 5088 4096 5050 4096 
Q 4890 4096 4592 3955 
Q 4294 3814 3443 3322 
L 3443 2675 
L 3546 2675 
L 3674 2848 
Q 3744 2944 3795 2944 
Q 3846 2944 3984 2765 
Q 4122 2586 4122 2541 
Q 4122 2496 4006 2496 
L 3443 2496 
L 3443 1779 
L 3648 1779 
L 3782 1952 
Q 3840 2029 3891 2029 
Q 3942 2029 4096 1849 
Q 4250 1670 4250 1635 
Q 4250 1600 4134 1600 
L 3443 1600 
L 3443 941 
z
M 4563 2291 
Q 4979 2643 5389 3149 
Q 5613 2957 5776 2784 
Q 5939 2611 5939 2585 
Q 5939 2560 5888 2560 
L 5766 2573 
Q 5651 2573 5456 2477 
Q 5261 2381 4608 2138 
Q 5056 685 6253 58 
L 6240 -51 
Q 5894 -83 5782 -128 
Q 5670 -173 5603 -269 
Q 5536 -365 5485 -365 
Q 5434 -365 5398 -342 
Q 5363 -320 5081 86 
Q 4800 493 4614 953 
Q 4429 1414 4333 1980 
Q 4237 2547 4192 3366 
L 4346 3379 
Q 4416 2822 4563 2291 
z
M 1427 2918 
L 1587 3136 
Q 1670 3245 1728 3245 
Q 1786 3245 2010 3056 
Q 2234 2867 2234 2825 
Q 2234 2784 2118 2752 
Q 2061 2739 2032 2678 
Q 2003 2618 1965 2406 
Q 1741 1235 1357 579 
Q 973 -77 237 -698 
L 122 -627 
Q 1312 602 1498 2720 
L 672 2720 
Q 512 2720 429 2682 
L 320 2950 
Q 461 2918 659 2918 
L 1427 2918 
z
" transform="scale(0.015625)"/>
      <path id="STZhongsong-8f7d" d="M 4582 557 
Q 4774 179 5068 -35 
Q 5363 -250 5433 -250 
Q 5504 -250 5529 -179 
Q 5555 -109 5683 877 
L 5830 870 
Q 5811 602 5811 336 
Q 5811 70 5856 -192 
Q 5901 -454 6029 -806 
Q 6067 -922 6067 -995 
Q 6067 -1069 5948 -1069 
Q 5830 -1069 5523 -973 
Q 5216 -877 4845 -595 
Q 4474 -314 4160 166 
Q 3571 -301 2592 -730 
L 2547 -608 
Q 3373 -141 3987 525 
Q 3750 1210 3680 2874 
L 1696 2874 
Q 2253 2586 2253 2515 
Q 2253 2490 2179 2477 
Q 2106 2464 2054 2413 
Q 2003 2362 1926 2214 
L 2726 2214 
L 2950 2509 
Q 2995 2566 3027 2566 
Q 3091 2566 3305 2358 
Q 3520 2150 3520 2089 
Q 3520 2029 3405 2029 
L 1837 2029 
L 1402 1190 
L 1920 1190 
Q 1920 1773 1907 1856 
Q 2323 1779 2460 1740 
Q 2598 1702 2598 1660 
Q 2598 1619 2426 1542 
L 2426 1190 
L 2816 1190 
L 3066 1504 
Q 3085 1536 3133 1536 
Q 3181 1536 3325 1389 
Q 3469 1242 3539 1165 
Q 3610 1088 3610 1033 
Q 3610 979 3520 979 
L 2426 979 
L 2426 480 
L 3578 608 
L 3584 499 
L 2426 211 
L 2426 -858 
Q 2426 -934 2365 -966 
Q 2304 -998 2147 -1049 
Q 1990 -1101 1933 -1101 
Q 1907 -1101 1907 -1050 
L 1914 -544 
Q 1920 -262 1920 90 
Q 928 -115 691 -243 
Q 653 -262 634 -262 
Q 582 -262 451 -48 
Q 320 166 269 314 
Q 1114 339 1920 429 
L 1920 979 
L 1350 979 
L 1216 813 
Q 1165 755 1133 755 
Q 1101 755 957 857 
Q 813 960 659 1120 
Q 819 1197 905 1312 
Q 992 1427 1318 2029 
L 800 2029 
Q 634 2029 544 1997 
L 454 2240 
Q 570 2214 710 2214 
L 1414 2214 
Q 1638 2662 1645 2874 
L 544 2874 
Q 378 2874 288 2842 
L 198 3085 
Q 314 3059 454 3059 
L 1837 3059 
L 1837 3526 
L 986 3526 
Q 819 3526 730 3494 
L 640 3770 
Q 755 3744 896 3744 
L 1837 3744 
L 1837 4320 
Q 1837 4813 1824 4922 
Q 2080 4858 2278 4781 
Q 2477 4704 2518 4678 
Q 2560 4653 2560 4627 
Q 2560 4582 2368 4461 
L 2368 3744 
L 2739 3744 
L 2989 4051 
Q 3034 4115 3088 4115 
Q 3142 4115 3344 3888 
Q 3546 3661 3546 3593 
Q 3546 3526 3424 3526 
L 2368 3526 
L 2368 3059 
L 3674 3059 
L 3654 3802 
Q 3642 4595 3616 4890 
Q 4416 4736 4416 4634 
Q 4416 4576 4205 4512 
Q 4186 3782 4198 3059 
L 5088 3059 
L 5338 3347 
Q 5414 3437 5475 3437 
Q 5536 3437 5801 3197 
Q 6067 2957 6067 2915 
Q 6067 2874 5933 2874 
L 4198 2874 
Q 4224 1696 4403 1043 
Q 4890 1747 5043 2490 
Q 5235 2394 5427 2285 
Q 5619 2176 5644 2144 
Q 5670 2112 5670 2067 
Q 5670 2022 5555 1984 
Q 5504 1965 5462 1904 
Q 5421 1843 5306 1619 
Q 4992 992 4582 557 
z
M 4474 4416 
Q 4909 4352 5161 4237 
Q 5414 4122 5414 3859 
Q 5414 3712 5312 3581 
Q 5210 3450 5101 3450 
Q 5050 3450 5018 3488 
Q 4986 3526 4947 3648 
Q 4819 4038 4448 4333 
L 4474 4416 
z
" transform="scale(0.015625)"/>
      <path id="STZhongsong-5ea6" d="M 3296 3987 
Q 3219 4301 3120 4473 
Q 3021 4646 2810 4832 
L 2854 4915 
Q 3878 4736 3878 4365 
Q 3878 4269 3814 4166 
Q 3750 4064 3610 3987 
L 5075 3987 
L 5376 4346 
Q 5427 4410 5466 4410 
Q 5536 4410 5808 4163 
Q 6080 3917 6080 3859 
Q 6080 3802 5965 3802 
L 1754 3802 
Q 1754 3488 1741 2931 
L 2656 2931 
L 2656 3277 
Q 2656 3488 2637 3744 
Q 3059 3648 3200 3600 
Q 3341 3552 3341 3507 
Q 3341 3456 3174 3360 
L 3174 2931 
L 4179 2931 
L 4179 3270 
Q 4179 3482 4160 3738 
Q 4653 3629 4765 3581 
Q 4877 3533 4877 3501 
Q 4877 3450 4710 3354 
L 4710 2931 
L 5094 2931 
L 5363 3309 
Q 5402 3360 5434 3360 
Q 5498 3360 5750 3107 
Q 6003 2854 6003 2803 
Q 6003 2752 5888 2752 
L 4710 2752 
L 4710 2355 
Q 4710 2067 4717 1946 
L 4730 1747 
Q 4730 1702 4678 1673 
Q 4627 1645 4457 1590 
Q 4288 1536 4218 1536 
Q 4179 1536 4179 1600 
L 4179 1888 
L 3174 1888 
L 3174 1722 
Q 3174 1677 3164 1648 
Q 3155 1619 2934 1552 
Q 2714 1485 2672 1485 
Q 2630 1485 2630 1530 
L 2643 1754 
Q 2656 1920 2656 2150 
L 2656 2752 
L 1734 2752 
Q 1696 1491 1606 963 
Q 1517 435 1238 -51 
Q 960 -538 358 -1082 
L 275 -1005 
Q 832 -262 1011 477 
Q 1190 1216 1190 2477 
Q 1190 3738 1158 4320 
Q 1510 4198 1843 3987 
L 3296 3987 
z
M 4179 2752 
L 3174 2752 
L 3174 2074 
L 4179 2074 
L 4179 2752 
z
M 3674 -250 
Q 2842 -806 1139 -1069 
L 1139 -941 
Q 2432 -627 3354 19 
Q 2944 422 2669 1133 
L 2387 1133 
Q 2214 1133 2118 1088 
L 2003 1350 
Q 2138 1318 2323 1318 
L 4467 1318 
L 4602 1472 
Q 4653 1530 4697 1530 
Q 4742 1530 5024 1331 
Q 5306 1133 5306 1078 
Q 5306 1024 5206 1017 
Q 5107 1011 5062 995 
Q 5018 979 4954 902 
Q 4506 403 4090 51 
Q 4858 -294 6227 -416 
L 6182 -557 
Q 5894 -557 5721 -643 
Q 5549 -730 5459 -922 
Q 5427 -992 5376 -992 
Q 5280 -992 4681 -768 
Q 4083 -544 3674 -250 
z
M 3686 269 
Q 4166 685 4403 1133 
L 2848 1133 
Q 3187 602 3686 269 
z
" transform="scale(0.015625)"/>
      <path id="STZhongsong-53d8" d="M 2912 3885 
Q 2835 4390 2330 4787 
L 2381 4915 
Q 2912 4787 3197 4643 
Q 3482 4499 3482 4301 
Q 3482 4211 3430 4092 
Q 3379 3974 3270 3885 
L 4819 3885 
L 5094 4288 
Q 5152 4365 5209 4365 
Q 5267 4365 5564 4080 
Q 5862 3795 5862 3728 
Q 5862 3661 5696 3661 
L 3968 3661 
L 3968 2445 
Q 3968 2182 3974 2048 
L 3987 1837 
Q 3987 1798 3929 1760 
Q 3872 1722 3709 1664 
Q 3546 1606 3469 1606 
Q 3418 1606 3418 1696 
L 3418 3661 
L 2733 3661 
L 2733 1779 
Q 2733 1722 2707 1696 
Q 2682 1670 2474 1600 
Q 2266 1530 2214 1530 
Q 2163 1530 2163 1606 
L 2176 1869 
Q 2182 2138 2182 2451 
L 2182 3661 
L 723 3661 
Q 550 3661 454 3616 
L 339 3917 
Q 474 3885 659 3885 
L 2912 3885 
z
M 1338 3277 
Q 2010 2938 2010 2835 
Q 2010 2784 1917 2768 
Q 1824 2752 1779 2717 
Q 1734 2682 1658 2573 
Q 1382 2150 1065 1859 
Q 749 1568 288 1235 
L 179 1338 
Q 627 1798 873 2214 
Q 1120 2630 1338 3277 
z
M 4275 3238 
Q 4870 2970 5174 2790 
Q 5478 2611 5580 2473 
Q 5683 2336 5683 2137 
Q 5683 1939 5580 1779 
Q 5478 1619 5370 1619 
Q 5306 1619 5261 1683 
Q 5216 1747 5114 1997 
Q 4832 2669 4205 3104 
L 4275 3238 
z
M 3104 -186 
Q 2003 -858 307 -1107 
L 288 -966 
Q 1830 -550 2746 77 
Q 2150 582 1862 1286 
L 1587 1286 
Q 1414 1286 1318 1242 
L 1203 1536 
Q 1338 1504 1523 1504 
L 4077 1504 
L 4288 1715 
Q 4326 1754 4365 1754 
Q 4448 1754 4707 1539 
Q 4966 1325 4966 1274 
Q 4966 1216 4844 1200 
Q 4723 1184 4640 1120 
Q 4557 1056 4378 858 
Q 4013 442 3552 109 
Q 4595 -333 6170 -371 
L 6170 -512 
Q 5830 -538 5622 -630 
Q 5414 -723 5306 -960 
Q 5274 -1018 5222 -1018 
Q 5146 -1018 4643 -874 
Q 4141 -730 3805 -576 
Q 3469 -422 3104 -186 
z
M 3098 333 
Q 3622 736 4026 1286 
L 2074 1286 
Q 2432 710 3098 333 
z
" transform="scale(0.015625)"/>
      <path id="STZhongsong-5316" d="M 1523 2445 
Q 960 1683 237 1114 
L 154 1210 
Q 838 2010 1283 2880 
Q 1728 3750 2010 4890 
Q 2432 4698 2617 4570 
Q 2803 4442 2803 4390 
Q 2803 4326 2630 4301 
Q 2554 4288 2496 4205 
Q 2438 4122 2291 3779 
Q 2144 3437 1933 3072 
Q 2195 2982 2195 2931 
Q 2195 2880 2074 2797 
L 2074 -762 
Q 2074 -819 2013 -864 
Q 1952 -909 1766 -979 
Q 1581 -1050 1536 -1050 
Q 1491 -1050 1491 -986 
L 1504 -531 
Q 1523 -70 1523 518 
L 1523 2445 
z
M 4102 1619 
L 4102 38 
Q 4102 -122 4182 -170 
Q 4262 -218 4745 -218 
Q 5229 -218 5366 -141 
Q 5504 -64 5561 201 
Q 5619 467 5702 1267 
L 5837 1267 
Q 5830 1024 5830 838 
Q 5830 358 5881 182 
Q 5933 6 6054 -58 
Q 6176 -122 6176 -166 
Q 6176 -211 6089 -361 
Q 6003 -512 5907 -598 
Q 5811 -685 5705 -710 
Q 5600 -736 5229 -758 
Q 4858 -781 4454 -781 
Q 4051 -781 3856 -713 
Q 3661 -646 3584 -470 
Q 3507 -294 3507 38 
L 3507 1242 
Q 2957 928 2157 608 
L 2125 749 
Q 2899 1184 3507 1638 
L 3507 4006 
Q 3507 4525 3488 4845 
Q 4384 4570 4384 4461 
Q 4384 4410 4102 4282 
L 4102 2150 
Q 4768 2784 5434 3866 
Q 5664 3635 5824 3408 
Q 5984 3181 5984 3126 
Q 5984 3072 5939 3072 
Q 5894 3072 5856 3081 
Q 5818 3091 5773 3091 
Q 5728 3091 5638 3011 
Q 5549 2931 5357 2733 
Q 4691 2042 4102 1619 
z
" transform="scale(0.015625)"/>
     </defs>
     <use xlink:href="#STZhongsong-9ad8"/>
     <use xlink:href="#STZhongsong-627f" transform="translate(99.999985 0)"/>
     <use xlink:href="#STZhongsong-8f7d" transform="translate(199.999969 0)"/>
     <use xlink:href="#STZhongsong-683c" transform="translate(299.999954 0)"/>
     <use xlink:href="#STZhongsong-7f51" transform="translate(399.999939 0)"/>
     <use xlink:href="#STZhongsong-6570" transform="translate(499.999924 0)"/>
     <use xlink:href="#STZhongsong-91cf" transform="translate(599.999908 0)"/>
     <use xlink:href="#STZhongsong-5e74" transform="translate(699.999893 0)"/>
     <use xlink:href="#STZhongsong-5ea6" transform="translate(799.999878 0)"/>
     <use xlink:href="#STZhongsong-53d8" transform="translate(899.999863 0)"/>
     <use xlink:href="#STZhongsong-5316" transform="translate(999.999847 0)"/>
    </g>
   </g>
   <g id="legend_1">
    <g id="line2d_25">
     <path d="M 74.68 56.715781 
L 88.68 56.715781 
L 102.68 56.715781 
" style="fill: none; stroke: #80b1d3; stroke-width: 3.1; stroke-linecap: square"/>
     <g>
      <use xlink:href="#mfa670226da" x="88.68" y="56.715781" style="fill: #80b1d3; stroke: #80b1d3"/>
     </g>
    </g>
    <g id="text_17">
     <!-- active_cnt ≥ 5 -->
     <g style="fill: #111111" transform="translate(113.88 61.615781) scale(0.14 -0.14)">
      <defs>
       <path id="STZhongsong-61" d="M 2477 1779 
L 2477 2150 
Q 2477 2797 1734 2797 
Q 1408 2797 1251 2665 
Q 1094 2534 1030 2202 
Q 1005 2067 928 1993 
Q 851 1920 736 1920 
Q 614 1920 537 2009 
Q 461 2099 461 2240 
Q 461 2566 832 2828 
Q 1203 3091 1824 3091 
Q 2451 3091 2736 2835 
Q 3021 2579 3021 2029 
L 3021 794 
Q 3021 512 3049 413 
Q 3078 314 3164 253 
Q 3251 192 3360 192 
Q 3475 192 3680 262 
L 3680 -13 
Q 3443 -77 3226 -77 
Q 2605 -77 2509 448 
Q 2176 179 1872 51 
Q 1568 -77 1216 -77 
Q 800 -77 525 150 
Q 250 378 250 698 
Q 250 1126 682 1379 
Q 1114 1632 2477 1779 
z
M 2477 1504 
Q 1350 1357 1084 1184 
Q 819 1011 819 755 
Q 819 557 976 419 
Q 1133 282 1363 282 
Q 1818 282 2477 749 
L 2477 1504 
z
" transform="scale(0.015625)"/>
       <path id="STZhongsong-63" d="M 2995 870 
L 3194 710 
Q 2605 -77 1786 -77 
Q 1146 -77 704 380 
Q 262 838 262 1517 
Q 262 2202 713 2646 
Q 1165 3091 1869 3091 
Q 2413 3091 2771 2825 
Q 3130 2560 3130 2291 
Q 3130 2157 3046 2077 
Q 2963 1997 2848 1997 
Q 2739 1997 2681 2057 
Q 2624 2118 2413 2534 
Q 2368 2637 2195 2720 
Q 2022 2803 1856 2803 
Q 1434 2803 1152 2454 
Q 870 2106 870 1536 
Q 870 973 1158 611 
Q 1446 250 1875 250 
Q 2483 250 2995 870 
z
" transform="scale(0.015625)"/>
       <path id="STZhongsong-74" d="M 1056 4077 
L 1274 4077 
L 1274 3014 
L 2202 3014 
L 2202 2701 
L 1274 2701 
L 1274 819 
Q 1274 474 1392 358 
Q 1510 243 1690 243 
Q 1990 243 2342 506 
L 2342 205 
Q 1933 -77 1510 -77 
Q 1280 -77 1081 35 
Q 883 147 819 294 
Q 755 442 755 781 
L 755 2701 
L 205 2701 
L 205 2963 
Q 595 3059 784 3299 
Q 973 3539 1056 4077 
z
" transform="scale(0.015625)"/>
       <path id="STZhongsong-69" d="M 640 4077 
Q 640 4230 745 4332 
Q 851 4435 1005 4435 
Q 1152 4435 1257 4329 
Q 1363 4224 1363 4077 
Q 1363 3923 1257 3817 
Q 1152 3712 1005 3712 
Q 851 3712 745 3817 
Q 640 3923 640 4077 
z
M 205 2566 
L 205 2822 
Q 691 2886 1043 3091 
L 1274 3091 
L 1274 582 
Q 1274 371 1376 316 
Q 1478 262 1658 262 
L 1805 262 
L 1805 0 
L 205 0 
L 205 262 
L 333 262 
Q 602 262 675 348 
Q 749 435 749 730 
L 749 2566 
L 205 2566 
z
" transform="scale(0.015625)"/>
       <path id="STZhongsong-76" d="M 0 3014 
L 1434 3014 
L 1434 2752 
L 1344 2752 
Q 1146 2752 1072 2713 
Q 998 2675 998 2586 
Q 998 2522 1069 2330 
L 1779 474 
L 2464 2330 
Q 2522 2483 2522 2566 
Q 2522 2752 2240 2752 
L 2093 2752 
L 2093 3014 
L 3328 3014 
L 3328 2752 
Q 3104 2752 3008 2643 
Q 2912 2534 2829 2330 
L 1843 -77 
L 1466 -77 
L 461 2387 
Q 320 2752 0 2752 
L 0 3014 
z
" transform="scale(0.015625)"/>
       <path id="STZhongsong-65" d="M 3117 806 
L 3315 646 
Q 3021 269 2717 96 
Q 2413 -77 2022 -77 
Q 1549 -77 1190 134 
Q 832 346 649 730 
Q 467 1114 467 1530 
Q 467 2189 889 2640 
Q 1312 3091 1997 3091 
Q 2586 3091 2934 2745 
Q 3283 2400 3296 1773 
L 1088 1773 
Q 1082 1645 1082 1536 
Q 1082 960 1357 605 
Q 1632 250 2093 250 
Q 2400 250 2637 400 
Q 2874 550 3117 806 
z
M 2720 2067 
Q 2598 2797 1984 2797 
Q 1651 2797 1449 2614 
Q 1248 2432 1133 2067 
L 2720 2067 
z
" transform="scale(0.015625)"/>
       <path id="STZhongsong-5f" d="M 0 -480 
L 3200 -480 
L 3200 -800 
L 0 -800 
L 0 -480 
z
" transform="scale(0.015625)"/>
       <path id="STZhongsong-6e" d="M 237 2566 
L 237 2829 
Q 518 2854 662 2905 
Q 806 2957 1050 3091 
L 1274 3091 
L 1274 2496 
Q 1626 2797 1926 2944 
Q 2227 3091 2566 3091 
Q 2797 3091 2979 3020 
Q 3162 2950 3286 2828 
Q 3411 2707 3472 2553 
Q 3533 2400 3533 2086 
L 3533 710 
Q 3533 493 3561 406 
Q 3590 320 3696 291 
Q 3802 262 4064 262 
L 4064 0 
L 2458 0 
L 2458 262 
L 2541 262 
Q 2829 262 2915 345 
Q 3002 429 3002 742 
L 3002 1888 
Q 3002 2259 2941 2396 
Q 2880 2534 2742 2614 
Q 2605 2694 2400 2694 
Q 1856 2694 1299 2182 
L 1299 742 
Q 1299 512 1340 413 
Q 1382 314 1468 288 
Q 1555 262 1754 262 
L 1843 262 
L 1843 0 
L 237 0 
L 237 262 
L 314 262 
Q 525 262 611 291 
Q 698 320 733 425 
Q 768 531 768 787 
L 768 2566 
L 237 2566 
z
" transform="scale(0.015625)"/>
       <path id="STZhongsong-20" transform="scale(0.015625)"/>
       <path id="STZhongsong-2265" d="M 5504 2080 
L 1235 800 
L 1235 1158 
L 4864 2240 
L 1235 3571 
L 1235 3910 
L 5504 2323 
L 5504 2080 
z
M 5504 1293 
L 1235 -45 
L 1235 288 
L 5504 1626 
L 5504 1293 
z
" transform="scale(0.015625)"/>
      </defs>
      <use xlink:href="#STZhongsong-61"/>
      <use xlink:href="#STZhongsong-63" transform="translate(57.999985 0)"/>
      <use xlink:href="#STZhongsong-74" transform="translate(109.999969 0)"/>
      <use xlink:href="#STZhongsong-69" transform="translate(147.999954 0)"/>
      <use xlink:href="#STZhongsong-76" transform="translate(177.999939 0)"/>
      <use xlink:href="#STZhongsong-65" transform="translate(229.999924 0)"/>
      <use xlink:href="#STZhongsong-5f" transform="translate(281.999908 0)"/>
      <use xlink:href="#STZhongsong-63" transform="translate(331.999893 0)"/>
      <use xlink:href="#STZhongsong-6e" transform="translate(383.999878 0)"/>
      <use xlink:href="#STZhongsong-74" transform="translate(449.999863 0)"/>
      <use xlink:href="#STZhongsong-20" transform="translate(487.999847 0)"/>
      <use xlink:href="#STZhongsong-2265" transform="translate(519.999832 0)"/>
      <use xlink:href="#STZhongsong-20" transform="translate(619.999817 0)"/>
      <use xlink:href="#STZhongsong-35" transform="translate(651.999802 0)"/>
     </g>
    </g>
    <g id="line2d_26">
     <path d="M 74.68 76.538906 
L 88.68 76.538906 
L 102.68 76.538906 
" style="fill: none; stroke: #4c78a8; stroke-width: 3.1; stroke-linecap: square"/>
     <g>
      <use xlink:href="#m65da3c6632" x="88.68" y="76.538906" style="fill: #4c78a8; stroke: #4c78a8; stroke-linejoin: miter"/>
     </g>
    </g>
    <g id="text_18">
     <!-- active_cnt ≥ 10 -->
     <g style="fill: #111111" transform="translate(113.88 81.438906) scale(0.14 -0.14)">
      <use xlink:href="#STZhongsong-61"/>
      <use xlink:href="#STZhongsong-63" transform="translate(57.999985 0)"/>
      <use xlink:href="#STZhongsong-74" transform="translate(109.999969 0)"/>
      <use xlink:href="#STZhongsong-69" transform="translate(147.999954 0)"/>
      <use xlink:href="#STZhongsong-76" transform="translate(177.999939 0)"/>
      <use xlink:href="#STZhongsong-65" transform="translate(229.999924 0)"/>
      <use xlink:href="#STZhongsong-5f" transform="translate(281.999908 0)"/>
      <use xlink:href="#STZhongsong-63" transform="translate(331.999893 0)"/>
      <use xlink:href="#STZhongsong-6e" transform="translate(383.999878 0)"/>
      <use xlink:href="#STZhongsong-74" transform="translate(449.999863 0)"/>
      <use xlink:href="#STZhongsong-20" transform="translate(487.999847 0)"/>
      <use xlink:href="#STZhongsong-2265" transform="translate(519.999832 0)"/>
      <use xlink:href="#STZhongsong-20" transform="translate(619.999817 0)"/>
      <use xlink:href="#STZhongsong-31" transform="translate(651.999802 0)"/>
      <use xlink:href="#STZhongsong-30" transform="translate(713.999786 0)"/>
     </g>
    </g>
    <g id="line2d_27">
     <path d="M 74.68 96.362031 
L 88.68 96.362031 
L 102.68 96.362031 
" style="fill: none; stroke: #1f4e79; stroke-width: 3.1; stroke-linecap: square"/>
     <g>
      <use xlink:href="#mf5349eca0a" x="88.68" y="96.362031" style="fill: #1f4e79; stroke: #1f4e79; stroke-linejoin: miter"/>
     </g>
    </g>
    <g id="text_19">
     <!-- active_cnt ≥ 20 -->
     <g style="fill: #111111" transform="translate(113.88 101.262031) scale(0.14 -0.14)">
      <use xlink:href="#STZhongsong-61"/>
      <use xlink:href="#STZhongsong-63" transform="translate(57.999985 0)"/>
      <use xlink:href="#STZhongsong-74" transform="translate(109.999969 0)"/>
      <use xlink:href="#STZhongsong-69" transform="translate(147.999954 0)"/>
      <use xlink:href="#STZhongsong-76" transform="translate(177.999939 0)"/>
      <use xlink:href="#STZhongsong-65" transform="translate(229.999924 0)"/>
      <use xlink:href="#STZhongsong-5f" transform="translate(281.999908 0)"/>
      <use xlink:href="#STZhongsong-63" transform="translate(331.999893 0)"/>
      <use xlink:href="#STZhongsong-6e" transform="translate(383.999878 0)"/>
      <use xlink:href="#STZhongsong-74" transform="translate(449.999863 0)"/>
      <use xlink:href="#STZhongsong-20" transform="translate(487.999847 0)"/>
      <use xlink:href="#STZhongsong-2265" transform="translate(519.999832 0)"/>
      <use xlink:href="#STZhongsong-20" transform="translate(619.999817 0)"/>
      <use xlink:href="#STZhongsong-32" transform="translate(651.999802 0)"/>
      <use xlink:href="#STZhongsong-30" transform="translate(713.999786 0)"/>
     </g>
    </g>
   </g>
  </g>
 </g>
 <defs>
  <clipPath id="p46094fad0e">
   <rect x="62.08" y="38.992656" width="787.075" height="366.55875"/>
  </clipPath>
 </defs>
</svg>
