<?xml version="1.0" encoding="utf-8" standalone="no"?>
<!DOCTYPE svg PUBLIC "-//W3C//DTD SVG 1.1//EN"
  "http://www.w3.org/Graphics/SVG/1.1/DTD/svg11.dtd">
<svg xmlns:xlink="http://www.w3.org/1999/xlink" width="856.470937pt" height="687.622083pt" viewBox="0 0 856.470937 687.622083" xmlns="http://www.w3.org/2000/svg" version="1.1">
 <metadata>
  <rdf:RDF xmlns:dc="http://purl.org/dc/elements/1.1/" xmlns:cc="http://creativecommons.org/ns#" xmlns:rdf="http://www.w3.org/1999/02/22-rdf-syntax-ns#">
   <cc:Work>
    <dc:type rdf:resource="http://purl.org/dc/dcmitype/StillImage"/>
    <dc:date>2026-06-06T01:21:13.634342</dc:date>
    <dc:format>image/svg+xml</dc:format>
    <dc:creator>
     <cc:Agent>
      <dc:title>Matplotlib v3.10.0, https://matplotlib.org/</dc:title>
     </cc:Agent>
    </dc:creator>
   </cc:Work>
  </rdf:RDF>
 </metadata>
 <defs>
  <style type="text/css">*{stroke-linejoin: round; stroke-linecap: butt}</style>
 </defs>
 <g id="figure_1">
  <g id="patch_1">
   <path d="M -0 687.622083 
L 856.470937 687.622083 
L 856.470937 0 
L -0 0 
z
" style="fill: #ffffff"/>
  </g>
  <g id="axes_1">
   <g id="patch_2">
    <path d="M 66.470938 234.367147 
L 849.270938 234.367147 
L 849.270938 77.12925 
L 66.470938 77.12925 
z
" style="fill: #ffffff"/>
   </g>
   <g id="matplotlib.axis_1">
    <g id="xtick_1">
     <g id="line2d_1">
      <defs>
       <path id="m1366caf499" d="M 0 0 
L 0 3.5 
" style="stroke: #111111; stroke-width: 0.8"/>
      </defs>
      <g>
       <use xlink:href="#m1366caf499" x="181.123463" y="234.367147" style="fill: #111111; stroke: #111111; stroke-width: 0.8"/>
      </g>
     </g>
    </g>
    <g id="xtick_2">
     <g id="line2d_2">
      <g>
       <use xlink:href="#m1366caf499" x="339.264877" y="234.367147" style="fill: #111111; stroke: #111111; stroke-width: 0.8"/>
      </g>
     </g>
    </g>
    <g id="xtick_3">
     <g id="line2d_3">
      <g>
       <use xlink:href="#m1366caf499" x="497.406291" y="234.367147" style="fill: #111111; stroke: #111111; stroke-width: 0.8"/>
      </g>
     </g>
    </g>
    <g id="xtick_4">
     <g id="line2d_4">
      <g>
       <use xlink:href="#m1366caf499" x="655.547705" y="234.367147" style="fill: #111111; stroke: #111111; stroke-width: 0.8"/>
      </g>
     </g>
    </g>
    <g id="xtick_5">
     <g id="line2d_5">
      <g>
       <use xlink:href="#m1366caf499" x="813.689119" y="234.367147" style="fill: #111111; stroke: #111111; stroke-width: 0.8"/>
      </g>
     </g>
    </g>
   </g>
   <g id="matplotlib.axis_2">
    <g id="ytick_1">
     <g id="line2d_6">
      <path d="M 66.470938 192.075 
L 849.270938 192.075 
" clip-path="url(#p7f2dd5cdac)" style="fill: none; stroke: #ececec; stroke-width: 0.9; stroke-linecap: square"/>
     </g>
     <g id="line2d_7">
      <defs>
       <path id="m405914003d" d="M 0 0 
L -3.5 0 
" style="stroke: #111111; stroke-width: 0.8"/>
      </defs>
      <g>
       <use xlink:href="#m405914003d" x="66.470938" y="192.075" style="fill: #111111; stroke: #111111; stroke-width: 0.8"/>
      </g>
     </g>
     <g id="text_1">
      <!-- 0.96 -->
      <g style="fill: #111111" transform="translate(26.770938 197.444531) scale(0.15 -0.15)">
       <defs>
        <path id="STZhongsong-30" d="M 326 2182 
Q 326 3251 774 3843 
Q 1222 4435 1997 4435 
Q 2752 4435 3197 3827 
Q 3642 3219 3642 2144 
Q 3642 1139 3178 531 
Q 2714 -77 1952 -77 
Q 1229 -77 777 524 
Q 326 1126 326 2182 
z
M 3040 2182 
Q 3040 3104 2758 3616 
Q 2477 4128 1978 4128 
Q 1478 4128 1200 3590 
Q 922 3053 922 2118 
Q 922 1229 1210 733 
Q 1498 237 1971 237 
Q 2470 237 2755 752 
Q 3040 1267 3040 2182 
z
" transform="scale(0.015625)"/>
        <path id="STZhongsong-2e" d="M 634 339 
Q 634 506 749 618 
Q 864 730 1024 730 
Q 1184 730 1299 614 
Q 1414 499 1414 339 
Q 1414 173 1299 61 
Q 1184 -51 1024 -51 
Q 864 -51 749 61 
Q 634 173 634 339 
z
" transform="scale(0.015625)"/>
        <path id="STZhongsong-39" d="M 736 -77 
L 736 218 
Q 1856 224 2374 688 
Q 2893 1152 2938 2138 
Q 2707 1798 2425 1638 
Q 2144 1478 1734 1478 
Q 1088 1478 681 1884 
Q 275 2291 275 2925 
Q 275 3616 720 4025 
Q 1165 4435 1882 4435 
Q 2688 4435 3126 3916 
Q 3565 3398 3565 2438 
Q 3565 1574 3181 963 
Q 2797 352 2201 137 
Q 1606 -77 979 -77 
L 736 -77 
z
M 896 2950 
Q 896 2445 1174 2128 
Q 1453 1811 1875 1811 
Q 2317 1811 2611 2147 
Q 2906 2483 2906 2970 
Q 2906 3475 2618 3814 
Q 2330 4154 1901 4154 
Q 1459 4154 1177 3824 
Q 896 3494 896 2950 
z
" transform="scale(0.015625)"/>
        <path id="STZhongsong-36" d="M 3238 4442 
L 3238 4154 
Q 2131 4141 1603 3686 
Q 1075 3232 1037 2227 
Q 1446 2893 2240 2893 
Q 2880 2893 3289 2486 
Q 3699 2080 3699 1440 
Q 3699 742 3257 332 
Q 2816 -77 2093 -77 
Q 1286 -77 848 444 
Q 410 966 410 1926 
Q 410 3046 1056 3744 
Q 1702 4442 2995 4442 
L 3238 4442 
z
M 3072 1414 
Q 3072 1933 2800 2246 
Q 2528 2560 2099 2560 
Q 1658 2560 1363 2224 
Q 1069 1888 1069 1402 
Q 1069 890 1350 550 
Q 1632 211 2074 211 
Q 2509 211 2790 544 
Q 3072 877 3072 1414 
z
" transform="scale(0.015625)"/>
       </defs>
       <use xlink:href="#STZhongsong-30"/>
       <use xlink:href="#STZhongsong-2e" transform="translate(61.999985 0)"/>
       <use xlink:href="#STZhongsong-39" transform="translate(93.999969 0)"/>
       <use xlink:href="#STZhongsong-36" transform="translate(155.999954 0)"/>
      </g>
     </g>
    </g>
    <g id="ytick_2">
     <g id="line2d_8">
      <path d="M 66.470938 141.165896 
L 849.270938 141.165896 
" clip-path="url(#p7f2dd5cdac)" style="fill: none; stroke: #ececec; stroke-width: 0.9; stroke-linecap: square"/>
     </g>
     <g id="line2d_9">
      <g>
       <use xlink:href="#m405914003d" x="66.470938" y="141.165896" style="fill: #111111; stroke: #111111; stroke-width: 0.8"/>
      </g>
     </g>
     <g id="text_2">
      <!-- 0.97 -->
      <g style="fill: #111111" transform="translate(26.770938 146.535427) scale(0.15 -0.15)">
       <defs>
        <path id="STZhongsong-37" d="M 691 4518 
L 902 4518 
L 934 4358 
L 3667 4358 
L 3667 4096 
Q 2163 2317 1901 0 
L 1261 0 
Q 1421 1190 1949 2150 
Q 2477 3110 3174 3891 
L 1222 3891 
Q 1005 3891 899 3862 
Q 794 3834 736 3635 
L 614 3206 
L 352 3264 
L 691 4518 
z
" transform="scale(0.015625)"/>
       </defs>
       <use xlink:href="#STZhongsong-30"/>
       <use xlink:href="#STZhongsong-2e" transform="translate(61.999985 0)"/>
       <use xlink:href="#STZhongsong-39" transform="translate(93.999969 0)"/>
       <use xlink:href="#STZhongsong-37" transform="translate(155.999954 0)"/>
      </g>
     </g>
    </g>
    <g id="ytick_3">
     <g id="line2d_10">
      <path d="M 66.470938 90.256792 
L 849.270938 90.256792 
" clip-path="url(#p7f2dd5cdac)" style="fill: none; stroke: #ececec; stroke-width: 0.9; stroke-linecap: square"/>
     </g>
     <g id="line2d_11">
      <g>
       <use xlink:href="#m405914003d" x="66.470938" y="90.256792" style="fill: #111111; stroke: #111111; stroke-width: 0.8"/>
      </g>
     </g>
     <g id="text_3">
      <!-- 0.98 -->
      <g style="fill: #111111" transform="translate(26.770938 95.626323) scale(0.15 -0.15)">
       <defs>
        <path id="STZhongsong-38" d="M 2477 2419 
Q 3021 2208 3315 1923 
Q 3610 1638 3610 1197 
Q 3610 659 3152 291 
Q 2694 -77 1971 -77 
Q 1274 -77 816 272 
Q 358 621 358 1120 
Q 358 1485 633 1779 
Q 909 2074 1440 2259 
Q 1011 2451 800 2691 
Q 589 2931 589 3315 
Q 589 3814 998 4124 
Q 1408 4435 2035 4435 
Q 2618 4435 2998 4134 
Q 3379 3834 3379 3424 
Q 3379 2790 2477 2419 
z
M 2189 2534 
Q 2451 2707 2662 2918 
Q 2874 3130 2874 3418 
Q 2874 3706 2621 3923 
Q 2368 4141 1971 4141 
Q 1594 4141 1331 3926 
Q 1069 3712 1069 3430 
Q 1069 3168 1270 2989 
Q 1472 2810 1824 2675 
L 2189 2534 
z
M 1747 2131 
Q 1325 1939 1088 1670 
Q 851 1402 851 1126 
Q 851 762 1177 490 
Q 1504 218 1984 218 
Q 2438 218 2774 483 
Q 3110 749 3110 1082 
Q 3110 1594 2253 1933 
L 1747 2131 
z
" transform="scale(0.015625)"/>
       </defs>
       <use xlink:href="#STZhongsong-30"/>
       <use xlink:href="#STZhongsong-2e" transform="translate(61.999985 0)"/>
       <use xlink:href="#STZhongsong-39" transform="translate(93.999969 0)"/>
       <use xlink:href="#STZhongsong-38" transform="translate(155.999954 0)"/>
      </g>
     </g>
    </g>
    <g id="text_4">
     <!-- Gini -->
     <g style="fill: #111111" transform="translate(19.370938 173.258199) rotate(-90) scale(0.17 -0.17)">
      <defs>
       <path id="STZhongsong-47" d="M 3738 4358 
L 3968 4358 
L 4326 3014 
L 4045 2918 
Q 3782 3520 3424 3811 
Q 3066 4102 2566 4102 
Q 1920 4102 1462 3555 
Q 1005 3008 1005 2227 
Q 1005 1683 1235 1216 
Q 1466 749 1850 512 
Q 2234 275 2669 275 
Q 2912 275 3136 352 
Q 3360 429 3526 563 
Q 3693 698 3744 829 
Q 3795 960 3795 1210 
L 3795 1421 
Q 3795 1766 3680 1859 
Q 3565 1952 3136 1952 
L 3136 2214 
L 4902 2214 
L 4902 1952 
L 4762 1952 
Q 4512 1952 4445 1865 
Q 4378 1779 4378 1510 
L 4378 0 
L 4070 0 
L 3904 384 
Q 3232 -77 2502 -77 
Q 1574 -77 953 553 
Q 333 1184 333 2176 
Q 333 3123 966 3779 
Q 1600 4435 2490 4435 
Q 3149 4435 3629 4070 
L 3738 4358 
z
" transform="scale(0.015625)"/>
       <path id="STZhongsong-69" d="M 640 4077 
Q 640 4230 745 4332 
Q 851 4435 1005 4435 
Q 1152 4435 1257 4329 
Q 1363 4224 1363 4077 
Q 1363 3923 1257 3817 
Q 1152 3712 1005 3712 
Q 851 3712 745 3817 
Q 640 3923 640 4077 
z
M 205 2566 
L 205 2822 
Q 691 2886 1043 3091 
L 1274 3091 
L 1274 582 
Q 1274 371 1376 316 
Q 1478 262 1658 262 
L 1805 262 
L 1805 0 
L 205 0 
L 205 262 
L 333 262 
Q 602 262 675 348 
Q 749 435 749 730 
L 749 2566 
L 205 2566 
z
" transform="scale(0.015625)"/>
       <path id="STZhongsong-6e" d="M 237 2566 
L 237 2829 
Q 518 2854 662 2905 
Q 806 2957 1050 3091 
L 1274 3091 
L 1274 2496 
Q 1626 2797 1926 2944 
Q 2227 3091 2566 3091 
Q 2797 3091 2979 3020 
Q 3162 2950 3286 2828 
Q 3411 2707 3472 2553 
Q 3533 2400 3533 2086 
L 3533 710 
Q 3533 493 3561 406 
Q 3590 320 3696 291 
Q 3802 262 4064 262 
L 4064 0 
L 2458 0 
L 2458 262 
L 2541 262 
Q 2829 262 2915 345 
Q 3002 429 3002 742 
L 3002 1888 
Q 3002 2259 2941 2396 
Q 2880 2534 2742 2614 
Q 2605 2694 2400 2694 
Q 1856 2694 1299 2182 
L 1299 742 
Q 1299 512 1340 413 
Q 1382 314 1468 288 
Q 1555 262 1754 262 
L 1843 262 
L 1843 0 
L 237 0 
L 237 262 
L 314 262 
Q 525 262 611 291 
Q 698 320 733 425 
Q 768 531 768 787 
L 768 2566 
L 237 2566 
z
" transform="scale(0.015625)"/>
      </defs>
      <use xlink:href="#STZhongsong-47"/>
      <use xlink:href="#STZhongsong-69" transform="translate(79.999985 0)"/>
      <use xlink:href="#STZhongsong-6e" transform="translate(109.999969 0)"/>
      <use xlink:href="#STZhongsong-69" transform="translate(175.999954 0)"/>
     </g>
    </g>
   </g>
   <g id="line2d_12">
    <path d="M 102.052756 84.276427 
L 181.123463 136.307048 
L 260.19417 179.829545 
L 339.264877 205.198735 
L 418.335584 211.691339 
L 497.406291 211.460216 
L 576.476998 207.405395 
L 655.547705 214.453849 
L 734.618412 224.061336 
L 813.689119 227.21997 
" clip-path="url(#p7f2dd5cdac)" style="fill: none; stroke: #e15759; stroke-width: 3.1; stroke-linecap: square"/>
    <defs>
     <path id="ma55c24a4ba" d="M 0 4.3 
C 1.140373 4.3 2.234193 3.846925 3.040559 3.040559 
C 3.846925 2.234193 4.3 1.140373 4.3 0 
C 4.3 -1.140373 3.846925 -2.234193 3.040559 -3.040559 
C 2.234193 -3.846925 1.140373 -4.3 0 -4.3 
C -1.140373 -4.3 -2.234193 -3.846925 -3.040559 -3.040559 
C -3.846925 -2.234193 -4.3 -1.140373 -4.3 0 
C -4.3 1.140373 -3.846925 2.234193 -3.040559 3.040559 
C -2.234193 3.846925 -1.140373 4.3 0 4.3 
z
" style="stroke: #e15759"/>
    </defs>
    <g clip-path="url(#p7f2dd5cdac)">
     <use xlink:href="#ma55c24a4ba" x="102.052756" y="84.276427" style="fill: #e15759; stroke: #e15759"/>
     <use xlink:href="#ma55c24a4ba" x="181.123463" y="136.307048" style="fill: #e15759; stroke: #e15759"/>
     <use xlink:href="#ma55c24a4ba" x="260.19417" y="179.829545" style="fill: #e15759; stroke: #e15759"/>
     <use xlink:href="#ma55c24a4ba" x="339.264877" y="205.198735" style="fill: #e15759; stroke: #e15759"/>
     <use xlink:href="#ma55c24a4ba" x="418.335584" y="211.691339" style="fill: #e15759; stroke: #e15759"/>
     <use xlink:href="#ma55c24a4ba" x="497.406291" y="211.460216" style="fill: #e15759; stroke: #e15759"/>
     <use xlink:href="#ma55c24a4ba" x="576.476998" y="207.405395" style="fill: #e15759; stroke: #e15759"/>
     <use xlink:href="#ma55c24a4ba" x="655.547705" y="214.453849" style="fill: #e15759; stroke: #e15759"/>
     <use xlink:href="#ma55c24a4ba" x="734.618412" y="224.061336" style="fill: #e15759; stroke: #e15759"/>
     <use xlink:href="#ma55c24a4ba" x="813.689119" y="227.21997" style="fill: #e15759; stroke: #e15759"/>
    </g>
   </g>
   <g id="patch_3">
    <path d="M 66.470938 234.367147 
L 66.470938 77.12925 
" style="fill: none; stroke: #111111; stroke-width: 1.35; stroke-linejoin: miter; stroke-linecap: square"/>
   </g>
   <g id="patch_4">
    <path d="M 66.470938 234.367147 
L 849.270937 234.367147 
" style="fill: none; stroke: #111111; stroke-width: 1.35; stroke-linejoin: miter; stroke-linecap: square"/>
   </g>
   <g id="text_5">
    <!-- Gini系数 -->
    <g style="fill: #111111" transform="translate(421.330938 71.12925) scale(0.18 -0.18)">
     <defs>
      <path id="STZhongsong-7cfb" d="M 3034 3994 
Q 1190 3917 742 3923 
L 730 4045 
Q 3610 4339 5082 4710 
Q 5587 4218 5587 4096 
Q 5587 4051 5539 4051 
Q 5491 4051 5392 4076 
Q 5293 4102 5088 4102 
L 3270 4006 
Q 3731 3744 3731 3667 
Q 3731 3622 3616 3609 
Q 3501 3597 3366 3514 
L 2208 2848 
L 3923 2931 
Q 4186 3123 4544 3437 
Q 5203 3046 5203 2950 
Q 5203 2912 5101 2893 
Q 4883 2861 4627 2720 
Q 3622 2170 2042 1459 
L 4621 1498 
Q 4371 1715 3866 2003 
L 3910 2118 
Q 4742 1901 5158 1696 
Q 5574 1491 5574 1146 
Q 5574 979 5523 873 
Q 5472 768 5376 768 
Q 5280 768 5190 883 
Q 4979 1165 4787 1344 
L 3622 1229 
L 3622 -237 
Q 3622 -499 3596 -624 
Q 3571 -749 3478 -835 
Q 3386 -922 3155 -1011 
Q 2925 -1101 2870 -1101 
Q 2816 -1101 2797 -998 
Q 2771 -806 2620 -688 
Q 2470 -570 2054 -422 
L 2074 -314 
Q 2650 -403 2819 -403 
Q 2989 -403 3027 -342 
Q 3066 -282 3066 -109 
L 3066 1171 
Q 1510 1005 1325 947 
Q 1261 928 1225 928 
Q 1190 928 1174 953 
Q 1158 979 1116 1148 
Q 1075 1318 1056 1517 
Q 1453 1542 1622 1580 
Q 1792 1619 1965 1699 
Q 2138 1779 2630 2070 
Q 3123 2362 3603 2701 
Q 3027 2630 1581 2336 
Q 1555 2330 1520 2330 
Q 1485 2330 1462 2352 
Q 1440 2374 1395 2515 
Q 1350 2656 1312 2842 
Q 1645 2867 1885 2969 
Q 2125 3072 2473 3405 
Q 2822 3738 3034 3994 
z
M 2086 858 
Q 2278 768 2457 662 
Q 2637 557 2669 528 
Q 2701 499 2701 480 
Q 2701 435 2592 429 
Q 2541 429 2317 262 
Q 1581 -275 422 -845 
L 346 -736 
Q 1536 122 2086 858 
z
M 3923 781 
Q 4666 557 5050 377 
Q 5434 198 5562 41 
Q 5690 -115 5690 -310 
Q 5690 -506 5616 -634 
Q 5542 -762 5468 -762 
Q 5395 -762 5340 -714 
Q 5286 -666 5184 -506 
Q 4755 141 3866 678 
L 3923 781 
z
" transform="scale(0.015625)"/>
      <path id="STZhongsong-6570" d="M 2394 3334 
L 2938 3334 
L 3136 3616 
Q 3181 3680 3245 3680 
Q 3309 3680 3520 3462 
Q 3731 3245 3731 3193 
Q 3731 3142 3610 3142 
L 2394 3142 
L 2394 3027 
Q 2784 2938 3069 2819 
Q 3354 2701 3354 2515 
Q 3354 2381 3296 2227 
Q 3238 2074 3171 2074 
Q 3104 2074 3069 2109 
Q 3034 2144 2963 2259 
Q 2893 2374 2720 2556 
Q 2547 2739 2394 2854 
Q 2406 2381 2406 2259 
Q 2406 2138 2393 2099 
Q 2381 2061 2217 2006 
Q 2054 1952 1971 1933 
Q 2291 1811 2291 1722 
Q 2291 1670 2227 1660 
Q 2163 1651 2118 1609 
Q 2074 1568 1990 1434 
L 2637 1434 
L 2803 1619 
Q 2854 1677 2892 1677 
Q 2931 1677 3190 1481 
Q 3450 1286 3450 1228 
Q 3450 1171 3338 1148 
Q 3226 1126 3168 1088 
Q 3110 1050 3053 941 
Q 2848 563 2637 307 
Q 3040 205 3133 38 
Q 3226 -128 3226 -262 
Q 3226 -397 3187 -467 
Q 3149 -538 3101 -538 
Q 3053 -538 2816 -378 
Q 2579 -218 2278 -51 
Q 1664 -589 384 -992 
L 333 -877 
Q 1338 -371 1875 141 
Q 1440 326 845 474 
Q 1184 954 1331 1222 
L 691 1222 
Q 518 1222 422 1190 
L 307 1453 
Q 410 1434 627 1434 
L 1440 1434 
Q 1626 1824 1690 2035 
Q 1818 1997 1869 1978 
Q 1888 2515 1888 2874 
Q 1421 2125 282 1613 
L 243 1715 
Q 1075 2330 1549 3142 
L 589 3142 
Q 467 3142 390 3110 
L 301 3366 
Q 416 3334 550 3334 
L 1888 3334 
L 1888 4147 
Q 1888 4698 1875 4877 
Q 2592 4723 2592 4653 
Q 2592 4608 2394 4499 
L 2394 3334 
z
M 1856 1222 
L 1427 570 
Q 1914 480 2138 429 
Q 2413 762 2630 1222 
L 1856 1222 
z
M 4326 3270 
L 5222 3270 
L 5485 3590 
Q 5549 3661 5609 3661 
Q 5670 3661 5939 3421 
Q 6208 3181 6208 3117 
Q 6208 3072 6054 3072 
L 5050 3072 
Q 5638 2925 5638 2810 
Q 5638 2771 5542 2742 
Q 5446 2714 5404 2643 
Q 5363 2573 5338 2438 
Q 5088 1069 4749 518 
Q 5261 -186 6304 -646 
L 6246 -774 
Q 6080 -730 5933 -730 
Q 5658 -730 5446 -902 
Q 5389 -947 5363 -947 
Q 5299 -947 4934 -534 
Q 4570 -122 4448 102 
Q 4115 -301 3657 -579 
Q 3200 -858 2470 -1139 
L 2413 -1005 
Q 3642 -307 4211 544 
Q 3942 1152 3878 2342 
Q 3654 1946 3322 1491 
L 3213 1555 
Q 3949 2963 4109 4877 
Q 4333 4832 4563 4761 
Q 4794 4691 4858 4649 
Q 4922 4608 4922 4563 
Q 4922 4518 4813 4492 
Q 4704 4467 4653 4384 
Q 4602 4301 4538 3974 
Q 4474 3648 4326 3270 
z
M 4870 3072 
L 4250 3072 
L 4064 2682 
Q 4141 1594 4454 979 
Q 4723 1619 4870 3072 
z
M 3104 4602 
Q 3264 4525 3453 4422 
Q 3642 4320 3670 4288 
Q 3699 4256 3699 4221 
Q 3699 4186 3673 4170 
Q 3648 4154 3539 4154 
Q 3430 4154 3315 4038 
Q 2957 3680 2528 3392 
L 2464 3488 
Q 2906 4102 3104 4602 
z
M 653 4512 
Q 1171 4326 1353 4201 
Q 1536 4077 1536 3901 
Q 1536 3725 1453 3590 
Q 1370 3456 1286 3456 
Q 1203 3456 1164 3494 
Q 1126 3533 1084 3673 
Q 1043 3814 899 4038 
Q 755 4262 589 4429 
L 653 4512 
z
" transform="scale(0.015625)"/>
     </defs>
     <use xlink:href="#STZhongsong-47"/>
     <use xlink:href="#STZhongsong-69" transform="translate(79.999985 0)"/>
     <use xlink:href="#STZhongsong-6e" transform="translate(109.999969 0)"/>
     <use xlink:href="#STZhongsong-69" transform="translate(175.999954 0)"/>
     <use xlink:href="#STZhongsong-7cfb" transform="translate(205.999939 0)"/>
     <use xlink:href="#STZhongsong-6570" transform="translate(305.999924 0)"/>
    </g>
   </g>
  </g>
  <g id="axes_2">
   <g id="patch_5">
    <path d="M 66.470938 425.900044 
L 849.270938 425.900044 
L 849.270938 268.662147 
L 66.470938 268.662147 
z
" style="fill: #ffffff"/>
   </g>
   <g id="matplotlib.axis_3">
    <g id="xtick_6">
     <g id="line2d_13">
      <g>
       <use xlink:href="#m1366caf499" x="181.123463" y="425.900044" style="fill: #111111; stroke: #111111; stroke-width: 0.8"/>
      </g>
     </g>
    </g>
    <g id="xtick_7">
     <g id="line2d_14">
      <g>
       <use xlink:href="#m1366caf499" x="339.264877" y="425.900044" style="fill: #111111; stroke: #111111; stroke-width: 0.8"/>
      </g>
     </g>
    </g>
    <g id="xtick_8">
     <g id="line2d_15">
      <g>
       <use xlink:href="#m1366caf499" x="497.406291" y="425.900044" style="fill: #111111; stroke: #111111; stroke-width: 0.8"/>
      </g>
     </g>
    </g>
    <g id="xtick_9">
     <g id="line2d_16">
      <g>
       <use xlink:href="#m1366caf499" x="655.547705" y="425.900044" style="fill: #111111; stroke: #111111; stroke-width: 0.8"/>
      </g>
     </g>
    </g>
    <g id="xtick_10">
     <g id="line2d_17">
      <g>
       <use xlink:href="#m1366caf499" x="813.689119" y="425.900044" style="fill: #111111; stroke: #111111; stroke-width: 0.8"/>
      </g>
     </g>
    </g>
   </g>
   <g id="matplotlib.axis_4">
    <g id="ytick_4">
     <g id="line2d_18">
      <path d="M 66.470938 395.355741 
L 849.270938 395.355741 
" clip-path="url(#pf1775c1b74)" style="fill: none; stroke: #ececec; stroke-width: 0.9; stroke-linecap: square"/>
     </g>
     <g id="line2d_19">
      <g>
       <use xlink:href="#m405914003d" x="66.470938" y="395.355741" style="fill: #111111; stroke: #111111; stroke-width: 0.8"/>
      </g>
     </g>
     <g id="text_6">
      <!-- 1.5 -->
      <g style="fill: #111111" transform="translate(36.070938 400.725272) scale(0.15 -0.15)">
       <defs>
        <path id="STZhongsong-31" d="M 2150 4358 
L 2387 4358 
L 2387 742 
Q 2387 422 2464 342 
Q 2541 262 2822 262 
L 3130 262 
L 3130 0 
L 1069 0 
L 1069 262 
L 1408 262 
Q 1670 262 1766 348 
Q 1862 435 1862 742 
L 1862 3718 
L 1069 3718 
L 1069 3987 
Q 1709 4070 2150 4358 
z
" transform="scale(0.015625)"/>
        <path id="STZhongsong-35" d="M 934 4358 
L 2880 4358 
Q 3046 4358 3097 4387 
Q 3149 4416 3155 4512 
L 3386 4512 
L 3386 3853 
L 1229 3853 
L 1171 2752 
Q 1530 2848 1990 2848 
Q 2771 2848 3228 2451 
Q 3686 2054 3686 1414 
Q 3686 787 3212 355 
Q 2739 -77 2029 -77 
Q 1414 -77 982 236 
Q 550 550 550 890 
Q 550 1037 640 1123 
Q 730 1210 838 1210 
Q 1062 1210 1203 813 
Q 1421 218 2042 218 
Q 2515 218 2819 528 
Q 3123 838 3123 1312 
Q 3123 1824 2777 2128 
Q 2432 2432 1843 2432 
Q 1280 2432 832 2246 
L 934 4358 
z
" transform="scale(0.015625)"/>
       </defs>
       <use xlink:href="#STZhongsong-31"/>
       <use xlink:href="#STZhongsong-2e" transform="translate(61.999985 0)"/>
       <use xlink:href="#STZhongsong-35" transform="translate(93.999969 0)"/>
      </g>
     </g>
    </g>
    <g id="ytick_5">
     <g id="line2d_20">
      <path d="M 66.470938 351.785043 
L 849.270938 351.785043 
" clip-path="url(#pf1775c1b74)" style="fill: none; stroke: #ececec; stroke-width: 0.9; stroke-linecap: square"/>
     </g>
     <g id="line2d_21">
      <g>
       <use xlink:href="#m405914003d" x="66.470938" y="351.785043" style="fill: #111111; stroke: #111111; stroke-width: 0.8"/>
      </g>
     </g>
     <g id="text_7">
      <!-- 2.0 -->
      <g style="fill: #111111" transform="translate(36.070938 357.154574) scale(0.15 -0.15)">
       <defs>
        <path id="STZhongsong-32" d="M 723 2714 
L 422 2675 
Q 397 2835 397 2989 
Q 397 3616 832 4025 
Q 1267 4435 1978 4435 
Q 2630 4435 3043 4064 
Q 3456 3693 3456 3098 
Q 3456 2669 3286 2349 
Q 3117 2029 2611 1603 
Q 2106 1178 1037 467 
L 2662 467 
Q 2963 467 3062 544 
Q 3162 621 3200 838 
L 3232 1018 
L 3494 1018 
L 3283 -154 
L 3085 -154 
L 3053 0 
L 320 0 
L 320 262 
L 819 640 
Q 1901 1453 2377 1977 
Q 2854 2502 2854 3066 
Q 2854 3507 2569 3788 
Q 2285 4070 1837 4070 
Q 1325 4070 1017 3753 
Q 710 3437 710 2918 
Q 710 2822 723 2714 
z
" transform="scale(0.015625)"/>
       </defs>
       <use xlink:href="#STZhongsong-32"/>
       <use xlink:href="#STZhongsong-2e" transform="translate(61.999985 0)"/>
       <use xlink:href="#STZhongsong-30" transform="translate(93.999969 0)"/>
      </g>
     </g>
    </g>
    <g id="ytick_6">
     <g id="line2d_22">
      <path d="M 66.470938 308.214344 
L 849.270938 308.214344 
" clip-path="url(#pf1775c1b74)" style="fill: none; stroke: #ececec; stroke-width: 0.9; stroke-linecap: square"/>
     </g>
     <g id="line2d_23">
      <g>
       <use xlink:href="#m405914003d" x="66.470938" y="308.214344" style="fill: #111111; stroke: #111111; stroke-width: 0.8"/>
      </g>
     </g>
     <g id="text_8">
      <!-- 2.5 -->
      <g style="fill: #111111" transform="translate(36.070938 313.583875) scale(0.15 -0.15)">
       <use xlink:href="#STZhongsong-32"/>
       <use xlink:href="#STZhongsong-2e" transform="translate(61.999985 0)"/>
       <use xlink:href="#STZhongsong-35" transform="translate(93.999969 0)"/>
      </g>
     </g>
    </g>
    <g id="text_9">
     <!-- HHI × 1000 -->
     <g style="fill: #111111" transform="translate(28.670938 398.791096) rotate(-90) scale(0.17 -0.17)">
      <defs>
       <path id="STZhongsong-48" d="M 301 4358 
L 1984 4358 
L 1984 4096 
L 1869 4096 
Q 1594 4096 1514 4016 
Q 1434 3936 1434 3635 
L 1434 2419 
L 3693 2419 
L 3693 3603 
Q 3693 3910 3632 4003 
Q 3571 4096 3322 4096 
L 3149 4096 
L 3149 4358 
L 4813 4358 
L 4813 4096 
L 4666 4096 
Q 4448 4096 4365 4025 
Q 4282 3955 4282 3661 
L 4282 691 
Q 4282 480 4310 397 
Q 4339 314 4444 288 
Q 4550 262 4813 262 
L 4813 0 
L 3149 0 
L 3149 262 
L 3270 262 
Q 3482 262 3565 291 
Q 3648 320 3670 406 
Q 3693 493 3693 730 
L 3693 2080 
L 1434 2080 
L 1434 691 
Q 1434 346 1523 304 
Q 1613 262 1984 262 
L 1984 0 
L 301 0 
L 301 262 
L 410 262 
Q 672 262 758 323 
Q 845 384 845 659 
L 845 3661 
Q 845 3930 771 4013 
Q 698 4096 480 4096 
L 301 4096 
L 301 4358 
z
" transform="scale(0.015625)"/>
       <path id="STZhongsong-49" d="M 256 4358 
L 1920 4358 
L 1920 4096 
L 1792 4096 
Q 1555 4096 1465 3997 
Q 1376 3898 1376 3546 
L 1376 736 
Q 1376 467 1446 364 
Q 1517 262 1792 262 
L 1920 262 
L 1920 0 
L 256 0 
L 256 262 
L 390 262 
Q 627 262 713 345 
Q 800 429 800 736 
L 800 3610 
Q 800 3898 729 3997 
Q 659 4096 390 4096 
L 256 4096 
L 256 4358 
z
" transform="scale(0.015625)"/>
       <path id="STZhongsong-20" transform="scale(0.015625)"/>
       <path id="STZhongsong-d7" d="M 5197 3482 
L 3558 1818 
L 5216 160 
L 4870 -160 
L 3213 1498 
L 1555 -160 
L 1229 160 
L 2893 1818 
L 1229 3482 
L 1574 3802 
L 3238 2138 
L 4877 3802 
L 5197 3482 
z
" transform="scale(0.015625)"/>
      </defs>
      <use xlink:href="#STZhongsong-48"/>
      <use xlink:href="#STZhongsong-48" transform="translate(79.999985 0)"/>
      <use xlink:href="#STZhongsong-49" transform="translate(159.999969 0)"/>
      <use xlink:href="#STZhongsong-20" transform="translate(193.999954 0)"/>
      <use xlink:href="#STZhongsong-d7" transform="translate(225.999939 0)"/>
      <use xlink:href="#STZhongsong-20" transform="translate(325.999924 0)"/>
      <use xlink:href="#STZhongsong-31" transform="translate(357.999908 0)"/>
      <use xlink:href="#STZhongsong-30" transform="translate(419.999893 0)"/>
      <use xlink:href="#STZhongsong-30" transform="translate(481.999878 0)"/>
      <use xlink:href="#STZhongsong-30" transform="translate(543.999863 0)"/>
     </g>
    </g>
   </g>
   <g id="line2d_24">
    <path d="M 102.052756 275.809324 
L 181.123463 337.871078 
L 260.19417 371.782011 
L 339.264877 388.933038 
L 418.335584 397.165358 
L 497.406291 402.060014 
L 576.476998 403.529137 
L 655.547705 409.105046 
L 734.618412 414.841025 
L 813.689119 418.752867 
" clip-path="url(#pf1775c1b74)" style="fill: none; stroke: #b07aa1; stroke-width: 3.1; stroke-linecap: square"/>
    <defs>
     <path id="m01213e1620" d="M -4.3 4.3 
L 4.3 4.3 
L 4.3 -4.3 
L -4.3 -4.3 
z
" style="stroke: #b07aa1; stroke-linejoin: miter"/>
    </defs>
    <g clip-path="url(#pf1775c1b74)">
     <use xlink:href="#m01213e1620" x="102.052756" y="275.809324" style="fill: #b07aa1; stroke: #b07aa1; stroke-linejoin: miter"/>
     <use xlink:href="#m01213e1620" x="181.123463" y="337.871078" style="fill: #b07aa1; stroke: #b07aa1; stroke-linejoin: miter"/>
     <use xlink:href="#m01213e1620" x="260.19417" y="371.782011" style="fill: #b07aa1; stroke: #b07aa1; stroke-linejoin: miter"/>
     <use xlink:href="#m01213e1620" x="339.264877" y="388.933038" style="fill: #b07aa1; stroke: #b07aa1; stroke-linejoin: miter"/>
     <use xlink:href="#m01213e1620" x="418.335584" y="397.165358" style="fill: #b07aa1; stroke: #b07aa1; stroke-linejoin: miter"/>
     <use xlink:href="#m01213e1620" x="497.406291" y="402.060014" style="fill: #b07aa1; stroke: #b07aa1; stroke-linejoin: miter"/>
     <use xlink:href="#m01213e1620" x="576.476998" y="403.529137" style="fill: #b07aa1; stroke: #b07aa1; stroke-linejoin: miter"/>
     <use xlink:href="#m01213e1620" x="655.547705" y="409.105046" style="fill: #b07aa1; stroke: #b07aa1; stroke-linejoin: miter"/>
     <use xlink:href="#m01213e1620" x="734.618412" y="414.841025" style="fill: #b07aa1; stroke: #b07aa1; stroke-linejoin: miter"/>
     <use xlink:href="#m01213e1620" x="813.689119" y="418.752867" style="fill: #b07aa1; stroke: #b07aa1; stroke-linejoin: miter"/>
    </g>
   </g>
   <g id="patch_6">
    <path d="M 66.470938 425.900044 
L 66.470938 268.662147 
" style="fill: none; stroke: #111111; stroke-width: 1.35; stroke-linejoin: miter; stroke-linecap: square"/>
   </g>
   <g id="patch_7">
    <path d="M 66.470938 425.900044 
L 849.270937 425.900044 
" style="fill: none; stroke: #111111; stroke-width: 1.35; stroke-linejoin: miter; stroke-linecap: square"/>
   </g>
   <g id="text_10">
    <!-- HHI指数（×1000） -->
    <g style="fill: #111111" transform="translate(373.090937 262.662147) scale(0.18 -0.18)">
     <defs>
      <path id="STZhongsong-6307" d="M 3578 3584 
Q 4480 4038 5062 4538 
Q 5299 4326 5456 4153 
Q 5613 3981 5613 3942 
Q 5613 3898 5517 3885 
Q 5338 3866 5197 3821 
L 4621 3654 
Q 4186 3526 3578 3379 
L 3578 2797 
Q 3578 2701 3619 2665 
Q 3661 2630 3907 2611 
Q 4154 2592 4461 2592 
Q 5190 2592 5344 2713 
Q 5498 2835 5638 3795 
L 5779 3795 
Q 5760 3168 5811 2941 
Q 5862 2714 5984 2640 
Q 6106 2566 6106 2534 
Q 6106 2502 6038 2406 
Q 5971 2310 5884 2240 
Q 5798 2170 5686 2147 
Q 5574 2125 5228 2112 
Q 4883 2099 4425 2099 
Q 3968 2099 3600 2137 
Q 3232 2176 3129 2272 
Q 3027 2368 3027 2611 
L 3027 4320 
Q 3027 4666 3008 4896 
Q 3469 4774 3616 4716 
Q 3763 4659 3763 4627 
Q 3763 4576 3578 4442 
L 3578 3584 
z
M 1414 3078 
L 698 3078 
Q 538 3078 422 3046 
L 314 3315 
Q 448 3283 634 3283 
L 1414 3283 
L 1414 4198 
Q 1414 4570 1402 4890 
Q 1869 4755 2006 4694 
Q 2144 4634 2144 4586 
Q 2144 4538 1952 4429 
L 1952 3283 
L 2144 3283 
L 2355 3584 
Q 2406 3654 2454 3654 
Q 2502 3654 2755 3420 
Q 3008 3187 3008 3132 
Q 3008 3078 2886 3078 
L 1952 3078 
L 1952 2016 
L 2944 2330 
L 2989 2195 
L 1952 1690 
L 1952 -262 
Q 1952 -506 1894 -611 
Q 1837 -717 1571 -854 
Q 1306 -992 1242 -992 
Q 1178 -992 1165 -864 
Q 1152 -646 1001 -528 
Q 851 -410 403 -282 
L 410 -115 
Q 998 -224 1164 -224 
Q 1331 -224 1372 -179 
Q 1414 -134 1414 -26 
L 1414 1434 
Q 909 1184 672 992 
Q 621 947 589 947 
Q 557 947 541 966 
Q 525 986 422 1194 
Q 320 1402 243 1574 
Q 954 1734 1414 1862 
L 1414 3078 
z
M 3565 1664 
L 4826 1664 
L 4992 1907 
Q 5037 1978 5081 1978 
Q 5126 1978 5321 1875 
Q 5517 1773 5651 1686 
Q 5786 1600 5786 1568 
Q 5786 1504 5536 1376 
L 5536 -582 
Q 5536 -685 5542 -736 
L 5549 -832 
Q 5549 -870 5478 -905 
Q 5408 -941 5225 -995 
Q 5043 -1050 4979 -1050 
Q 4947 -1050 4947 -998 
L 4947 -480 
L 3488 -480 
L 3488 -800 
Q 3488 -864 3469 -886 
Q 3450 -909 3229 -973 
Q 3008 -1037 2963 -1037 
Q 2918 -1037 2925 -986 
Q 2950 -800 2950 -602 
L 2950 1491 
Q 2950 1702 2931 1926 
Q 3354 1779 3565 1664 
z
M 4947 762 
L 4947 1459 
L 3488 1459 
L 3488 762 
L 4947 762 
z
M 4947 -262 
L 4947 563 
L 3488 563 
L 3488 -262 
L 4947 -262 
z
" transform="scale(0.015625)"/>
      <path id="STZhongsong-ff08" d="M 5747 4563 
Q 4781 3258 4781 1997 
Q 4781 1075 5011 480 
Q 5242 -115 5741 -826 
L 5587 -966 
Q 4864 -320 4515 368 
Q 4166 1056 4166 1990 
Q 4166 2688 4537 3395 
Q 4909 4102 5619 4698 
L 5747 4563 
z
" transform="scale(0.015625)"/>
      <path id="STZhongsong-ff09" d="M 819 4787 
Q 1536 4166 1904 3433 
Q 2272 2701 2272 1904 
Q 2272 1107 1881 323 
Q 1491 -461 800 -973 
L 646 -832 
Q 1158 -179 1398 486 
Q 1638 1152 1638 1933 
Q 1638 2714 1382 3421 
Q 1126 4128 646 4653 
L 819 4787 
z
" transform="scale(0.015625)"/>
     </defs>
     <use xlink:href="#STZhongsong-48"/>
     <use xlink:href="#STZhongsong-48" transform="translate(79.999985 0)"/>
     <use xlink:href="#STZhongsong-49" transform="translate(159.999969 0)"/>
     <use xlink:href="#STZhongsong-6307" transform="translate(193.999954 0)"/>
     <use xlink:href="#STZhongsong-6570" transform="translate(293.999939 0)"/>
     <use xlink:href="#STZhongsong-ff08" transform="translate(393.999924 0)"/>
     <use xlink:href="#STZhongsong-d7" transform="translate(493.999908 0)"/>
     <use xlink:href="#STZhongsong-31" transform="translate(593.999893 0)"/>
     <use xlink:href="#STZhongsong-30" transform="translate(655.999878 0)"/>
     <use xlink:href="#STZhongsong-30" transform="translate(717.999863 0)"/>
     <use xlink:href="#STZhongsong-30" transform="translate(779.999847 0)"/>
     <use xlink:href="#STZhongsong-ff09" transform="translate(841.999832 0)"/>
    </g>
   </g>
  </g>
  <g id="axes_3">
   <g id="patch_8">
    <path d="M 66.470938 617.432941 
L 849.270938 617.432941 
L 849.270938 460.195044 
L 66.470938 460.195044 
z
" style="fill: #ffffff"/>
   </g>
   <g id="matplotlib.axis_5">
    <g id="xtick_11">
     <g id="line2d_25">
      <g>
       <use xlink:href="#m1366caf499" x="181.123463" y="617.432941" style="fill: #111111; stroke: #111111; stroke-width: 0.8"/>
      </g>
     </g>
     <g id="text_11">
      <!-- 2016 -->
      <g style="fill: #111111" transform="translate(162.523463 635.172004) scale(0.15 -0.15)">
       <use xlink:href="#STZhongsong-32"/>
       <use xlink:href="#STZhongsong-30" transform="translate(61.999985 0)"/>
       <use xlink:href="#STZhongsong-31" transform="translate(123.999969 0)"/>
       <use xlink:href="#STZhongsong-36" transform="translate(185.999954 0)"/>
      </g>
     </g>
    </g>
    <g id="xtick_12">
     <g id="line2d_26">
      <g>
       <use xlink:href="#m1366caf499" x="339.264877" y="617.432941" style="fill: #111111; stroke: #111111; stroke-width: 0.8"/>
      </g>
     </g>
     <g id="text_12">
      <!-- 2018 -->
      <g style="fill: #111111" transform="translate(320.664877 635.172004) scale(0.15 -0.15)">
       <use xlink:href="#STZhongsong-32"/>
       <use xlink:href="#STZhongsong-30" transform="translate(61.999985 0)"/>
       <use xlink:href="#STZhongsong-31" transform="translate(123.999969 0)"/>
       <use xlink:href="#STZhongsong-38" transform="translate(185.999954 0)"/>
      </g>
     </g>
    </g>
    <g id="xtick_13">
     <g id="line2d_27">
      <g>
       <use xlink:href="#m1366caf499" x="497.406291" y="617.432941" style="fill: #111111; stroke: #111111; stroke-width: 0.8"/>
      </g>
     </g>
     <g id="text_13">
      <!-- 2020 -->
      <g style="fill: #111111" transform="translate(478.806291 635.172004) scale(0.15 -0.15)">
       <use xlink:href="#STZhongsong-32"/>
       <use xlink:href="#STZhongsong-30" transform="translate(61.999985 0)"/>
       <use xlink:href="#STZhongsong-32" transform="translate(123.999969 0)"/>
       <use xlink:href="#STZhongsong-30" transform="translate(185.999954 0)"/>
      </g>
     </g>
    </g>
    <g id="xtick_14">
     <g id="line2d_28">
      <g>
       <use xlink:href="#m1366caf499" x="655.547705" y="617.432941" style="fill: #111111; stroke: #111111; stroke-width: 0.8"/>
      </g>
     </g>
     <g id="text_14">
      <!-- 2022 -->
      <g style="fill: #111111" transform="translate(636.947705 635.172004) scale(0.15 -0.15)">
       <use xlink:href="#STZhongsong-32"/>
       <use xlink:href="#STZhongsong-30" transform="translate(61.999985 0)"/>
       <use xlink:href="#STZhongsong-32" transform="translate(123.999969 0)"/>
       <use xlink:href="#STZhongsong-32" transform="translate(185.999954 0)"/>
      </g>
     </g>
    </g>
    <g id="xtick_15">
     <g id="line2d_29">
      <g>
       <use xlink:href="#m1366caf499" x="813.689119" y="617.432941" style="fill: #111111; stroke: #111111; stroke-width: 0.8"/>
      </g>
     </g>
     <g id="text_15">
      <!-- 2024 -->
      <g style="fill: #111111" transform="translate(795.089119 635.172004) scale(0.15 -0.15)">
       <defs>
        <path id="STZhongsong-34" d="M 3494 1242 
L 2906 1242 
L 2906 518 
Q 2906 275 3213 250 
L 3213 45 
L 1882 45 
L 1882 250 
Q 2054 262 2156 336 
Q 2259 410 2259 518 
L 2259 1242 
L 550 1242 
L 550 1658 
L 2483 4365 
L 2906 4365 
L 2906 1581 
L 3494 1581 
L 3494 1242 
z
M 2259 1581 
L 2259 3462 
L 902 1581 
L 2259 1581 
z
" transform="scale(0.015625)"/>
       </defs>
       <use xlink:href="#STZhongsong-32"/>
       <use xlink:href="#STZhongsong-30" transform="translate(61.999985 0)"/>
       <use xlink:href="#STZhongsong-32" transform="translate(123.999969 0)"/>
       <use xlink:href="#STZhongsong-34" transform="translate(185.999954 0)"/>
      </g>
     </g>
    </g>
    <g id="text_16">
     <!-- 年份 -->
     <g style="fill: #111111" transform="translate(440.870938 654.837004) scale(0.17 -0.17)">
      <defs>
       <path id="STZhongsong-5e74" d="M 1939 3827 
L 4794 3827 
L 5082 4237 
Q 5133 4314 5171 4314 
Q 5210 4314 5328 4224 
Q 5446 4134 5612 3993 
Q 5779 3853 5840 3789 
Q 5901 3725 5901 3686 
Q 5901 3616 5811 3616 
L 3744 3616 
L 3744 2496 
L 4474 2496 
L 4736 2874 
Q 4787 2938 4822 2938 
Q 4858 2938 4970 2858 
Q 5082 2778 5232 2643 
Q 5382 2509 5414 2461 
Q 5446 2413 5446 2368 
Q 5446 2272 5350 2272 
L 3744 2272 
L 3744 1043 
L 5254 1043 
L 5542 1427 
Q 5587 1485 5654 1485 
Q 5722 1485 6013 1213 
Q 6304 941 6304 883 
Q 6304 826 6195 826 
L 3744 826 
Q 3744 19 3750 -294 
L 3763 -864 
Q 3763 -909 3731 -941 
Q 3699 -973 3475 -1056 
Q 3251 -1139 3203 -1139 
Q 3155 -1139 3155 -1037 
L 3168 -390 
Q 3174 -38 3174 826 
L 653 826 
Q 480 826 384 781 
L 269 1075 
Q 403 1043 589 1043 
L 1498 1043 
L 1498 2170 
Q 1498 2643 1485 2739 
Q 1856 2630 2138 2496 
L 3174 2496 
L 3174 3616 
L 1798 3616 
Q 1440 3046 1136 2713 
Q 832 2381 339 1984 
L 243 2086 
Q 1261 3174 1741 4909 
Q 2259 4704 2400 4611 
Q 2541 4518 2541 4457 
Q 2541 4397 2435 4384 
Q 2330 4371 2253 4288 
Q 2176 4205 1939 3827 
z
M 3174 2272 
L 2054 2272 
L 2054 1043 
L 3174 1043 
L 3174 2272 
z
" transform="scale(0.015625)"/>
       <path id="STZhongsong-4efd" d="M 1190 2470 
Q 736 1830 237 1389 
L 141 1472 
Q 1158 2701 1702 4838 
Q 1894 4768 2115 4672 
Q 2336 4576 2374 4544 
Q 2413 4512 2413 4477 
Q 2413 4442 2326 4419 
Q 2240 4397 2205 4345 
Q 2170 4294 2099 4115 
Q 1888 3578 1530 2982 
Q 1837 2912 1837 2842 
Q 1837 2803 1709 2720 
L 1709 -806 
Q 1709 -883 1670 -928 
Q 1632 -973 1453 -1049 
Q 1274 -1126 1219 -1126 
Q 1165 -1126 1165 -1056 
L 1178 -563 
Q 1190 -262 1190 70 
L 1190 2470 
z
M 6272 2355 
L 6259 2227 
Q 6170 2240 6099 2240 
Q 5786 2240 5658 1971 
Q 5638 1926 5587 1926 
Q 5408 1926 4813 2630 
Q 4218 3334 4102 4806 
Q 4742 4742 4742 4627 
Q 4742 4589 4672 4570 
Q 4467 4518 4467 4323 
Q 4467 4128 4636 3712 
Q 4806 3296 5209 2925 
Q 5613 2554 6272 2355 
z
M 3174 4506 
Q 3635 4346 3753 4285 
Q 3872 4224 3872 4182 
Q 3872 4141 3753 4105 
Q 3635 4070 3546 3834 
Q 3034 2477 1888 1421 
L 1798 1491 
Q 2765 2810 3174 4506 
z
M 3232 1920 
L 3072 1920 
Q 2906 1920 2803 1875 
L 2662 2157 
Q 2797 2125 2982 2125 
L 4461 2125 
L 4614 2330 
Q 4659 2381 4704 2381 
Q 4749 2381 4937 2246 
Q 5126 2112 5212 2041 
Q 5299 1971 5299 1920 
Q 5299 1869 5139 1760 
Q 5114 1011 5066 432 
Q 5018 -147 4966 -355 
Q 4915 -563 4796 -700 
Q 4678 -838 4451 -944 
Q 4224 -1050 4169 -1050 
Q 4115 -1050 4090 -966 
Q 4038 -774 3856 -640 
Q 3674 -506 3328 -378 
L 3373 -243 
Q 3910 -384 4076 -384 
Q 4243 -384 4307 -326 
Q 4371 -269 4432 -73 
Q 4493 122 4528 541 
Q 4563 960 4576 1920 
L 3782 1920 
Q 3738 730 3389 125 
Q 3040 -480 1946 -1094 
L 1869 -1011 
Q 2669 -358 2934 237 
Q 3200 832 3232 1920 
z
" transform="scale(0.015625)"/>
      </defs>
      <use xlink:href="#STZhongsong-5e74"/>
      <use xlink:href="#STZhongsong-4efd" transform="translate(99.999985 0)"/>
     </g>
    </g>
   </g>
   <g id="matplotlib.axis_6">
    <g id="ytick_7">
     <g id="line2d_30">
      <path d="M 66.470938 572.298134 
L 849.270938 572.298134 
" clip-path="url(#paebc99799d)" style="fill: none; stroke: #ececec; stroke-width: 0.9; stroke-linecap: square"/>
     </g>
     <g id="line2d_31">
      <g>
       <use xlink:href="#m405914003d" x="66.470938" y="572.298134" style="fill: #111111; stroke: #111111; stroke-width: 0.8"/>
      </g>
     </g>
     <g id="text_17">
      <!-- 60 -->
      <g style="fill: #111111" transform="translate(40.870938 577.667666) scale(0.15 -0.15)">
       <use xlink:href="#STZhongsong-36"/>
       <use xlink:href="#STZhongsong-30" transform="translate(61.999985 0)"/>
      </g>
     </g>
    </g>
    <g id="ytick_8">
     <g id="line2d_32">
      <path d="M 66.470938 519.820178 
L 849.270938 519.820178 
" clip-path="url(#paebc99799d)" style="fill: none; stroke: #ececec; stroke-width: 0.9; stroke-linecap: square"/>
     </g>
     <g id="line2d_33">
      <g>
       <use xlink:href="#m405914003d" x="66.470938" y="519.820178" style="fill: #111111; stroke: #111111; stroke-width: 0.8"/>
      </g>
     </g>
     <g id="text_18">
      <!-- 80 -->
      <g style="fill: #111111" transform="translate(40.870938 525.189709) scale(0.15 -0.15)">
       <use xlink:href="#STZhongsong-38"/>
       <use xlink:href="#STZhongsong-30" transform="translate(61.999985 0)"/>
      </g>
     </g>
    </g>
    <g id="ytick_9">
     <g id="line2d_34">
      <path d="M 66.470938 467.342221 
L 849.270938 467.342221 
" clip-path="url(#paebc99799d)" style="fill: none; stroke: #ececec; stroke-width: 0.9; stroke-linecap: square"/>
     </g>
     <g id="line2d_35">
      <g>
       <use xlink:href="#m405914003d" x="66.470938" y="467.342221" style="fill: #111111; stroke: #111111; stroke-width: 0.8"/>
      </g>
     </g>
     <g id="text_19">
      <!-- 100 -->
      <g style="fill: #111111" transform="translate(31.570938 472.711753) scale(0.15 -0.15)">
       <use xlink:href="#STZhongsong-31"/>
       <use xlink:href="#STZhongsong-30" transform="translate(61.999985 0)"/>
       <use xlink:href="#STZhongsong-30" transform="translate(123.999969 0)"/>
      </g>
     </g>
    </g>
    <g id="text_20">
     <!-- 承载比例（%） -->
     <g style="fill: #111111" transform="translate(24.170938 597.463993) rotate(-90) scale(0.17 -0.17)">
      <defs>
       <path id="STZhongsong-627f" d="M 3443 941 
L 3725 941 
L 3910 1197 
Q 3987 1306 4048 1306 
Q 4109 1306 4326 1082 
Q 4544 858 4544 806 
Q 4544 755 4397 755 
L 3443 755 
L 3443 -301 
Q 3443 -518 3372 -633 
Q 3302 -749 3049 -864 
Q 2797 -979 2707 -979 
Q 2656 -979 2630 -883 
Q 2573 -659 2429 -540 
Q 2285 -422 1914 -320 
L 1914 -192 
Q 2451 -288 2624 -288 
Q 2797 -288 2838 -246 
Q 2880 -205 2880 -109 
L 2880 755 
L 1978 755 
Q 1805 755 1709 710 
L 1594 973 
Q 1728 941 1914 941 
L 2880 941 
L 2880 1600 
L 2368 1600 
Q 2195 1600 2099 1555 
L 1984 1811 
Q 2118 1779 2304 1779 
L 2880 1779 
L 2880 2496 
L 2496 2496 
Q 2323 2496 2227 2451 
L 2112 2707 
Q 2246 2675 2432 2675 
L 2880 2675 
L 2880 3104 
Q 2880 3386 2861 3635 
Q 3136 3558 3360 3462 
Q 3923 3962 4160 4230 
L 1498 4230 
Q 1325 4230 1229 4186 
L 1114 4448 
Q 1248 4416 1434 4416 
L 4237 4416 
L 4512 4640 
Q 4576 4698 4640 4698 
Q 4704 4698 5008 4461 
Q 5312 4224 5312 4150 
Q 5312 4077 5152 4090 
Q 5088 4096 5050 4096 
Q 4890 4096 4592 3955 
Q 4294 3814 3443 3322 
L 3443 2675 
L 3546 2675 
L 3674 2848 
Q 3744 2944 3795 2944 
Q 3846 2944 3984 2765 
Q 4122 2586 4122 2541 
Q 4122 2496 4006 2496 
L 3443 2496 
L 3443 1779 
L 3648 1779 
L 3782 1952 
Q 3840 2029 3891 2029 
Q 3942 2029 4096 1849 
Q 4250 1670 4250 1635 
Q 4250 1600 4134 1600 
L 3443 1600 
L 3443 941 
z
M 4563 2291 
Q 4979 2643 5389 3149 
Q 5613 2957 5776 2784 
Q 5939 2611 5939 2585 
Q 5939 2560 5888 2560 
L 5766 2573 
Q 5651 2573 5456 2477 
Q 5261 2381 4608 2138 
Q 5056 685 6253 58 
L 6240 -51 
Q 5894 -83 5782 -128 
Q 5670 -173 5603 -269 
Q 5536 -365 5485 -365 
Q 5434 -365 5398 -342 
Q 5363 -320 5081 86 
Q 4800 493 4614 953 
Q 4429 1414 4333 1980 
Q 4237 2547 4192 3366 
L 4346 3379 
Q 4416 2822 4563 2291 
z
M 1427 2918 
L 1587 3136 
Q 1670 3245 1728 3245 
Q 1786 3245 2010 3056 
Q 2234 2867 2234 2825 
Q 2234 2784 2118 2752 
Q 2061 2739 2032 2678 
Q 2003 2618 1965 2406 
Q 1741 1235 1357 579 
Q 973 -77 237 -698 
L 122 -627 
Q 1312 602 1498 2720 
L 672 2720 
Q 512 2720 429 2682 
L 320 2950 
Q 461 2918 659 2918 
L 1427 2918 
z
" transform="scale(0.015625)"/>
       <path id="STZhongsong-8f7d" d="M 4582 557 
Q 4774 179 5068 -35 
Q 5363 -250 5433 -250 
Q 5504 -250 5529 -179 
Q 5555 -109 5683 877 
L 5830 870 
Q 5811 602 5811 336 
Q 5811 70 5856 -192 
Q 5901 -454 6029 -806 
Q 6067 -922 6067 -995 
Q 6067 -1069 5948 -1069 
Q 5830 -1069 5523 -973 
Q 5216 -877 4845 -595 
Q 4474 -314 4160 166 
Q 3571 -301 2592 -730 
L 2547 -608 
Q 3373 -141 3987 525 
Q 3750 1210 3680 2874 
L 1696 2874 
Q 2253 2586 2253 2515 
Q 2253 2490 2179 2477 
Q 2106 2464 2054 2413 
Q 2003 2362 1926 2214 
L 2726 2214 
L 2950 2509 
Q 2995 2566 3027 2566 
Q 3091 2566 3305 2358 
Q 3520 2150 3520 2089 
Q 3520 2029 3405 2029 
L 1837 2029 
L 1402 1190 
L 1920 1190 
Q 1920 1773 1907 1856 
Q 2323 1779 2460 1740 
Q 2598 1702 2598 1660 
Q 2598 1619 2426 1542 
L 2426 1190 
L 2816 1190 
L 3066 1504 
Q 3085 1536 3133 1536 
Q 3181 1536 3325 1389 
Q 3469 1242 3539 1165 
Q 3610 1088 3610 1033 
Q 3610 979 3520 979 
L 2426 979 
L 2426 480 
L 3578 608 
L 3584 499 
L 2426 211 
L 2426 -858 
Q 2426 -934 2365 -966 
Q 2304 -998 2147 -1049 
Q 1990 -1101 1933 -1101 
Q 1907 -1101 1907 -1050 
L 1914 -544 
Q 1920 -262 1920 90 
Q 928 -115 691 -243 
Q 653 -262 634 -262 
Q 582 -262 451 -48 
Q 320 166 269 314 
Q 1114 339 1920 429 
L 1920 979 
L 1350 979 
L 1216 813 
Q 1165 755 1133 755 
Q 1101 755 957 857 
Q 813 960 659 1120 
Q 819 1197 905 1312 
Q 992 1427 1318 2029 
L 800 2029 
Q 634 2029 544 1997 
L 454 2240 
Q 570 2214 710 2214 
L 1414 2214 
Q 1638 2662 1645 2874 
L 544 2874 
Q 378 2874 288 2842 
L 198 3085 
Q 314 3059 454 3059 
L 1837 3059 
L 1837 3526 
L 986 3526 
Q 819 3526 730 3494 
L 640 3770 
Q 755 3744 896 3744 
L 1837 3744 
L 1837 4320 
Q 1837 4813 1824 4922 
Q 2080 4858 2278 4781 
Q 2477 4704 2518 4678 
Q 2560 4653 2560 4627 
Q 2560 4582 2368 4461 
L 2368 3744 
L 2739 3744 
L 2989 4051 
Q 3034 4115 3088 4115 
Q 3142 4115 3344 3888 
Q 3546 3661 3546 3593 
Q 3546 3526 3424 3526 
L 2368 3526 
L 2368 3059 
L 3674 3059 
L 3654 3802 
Q 3642 4595 3616 4890 
Q 4416 4736 4416 4634 
Q 4416 4576 4205 4512 
Q 4186 3782 4198 3059 
L 5088 3059 
L 5338 3347 
Q 5414 3437 5475 3437 
Q 5536 3437 5801 3197 
Q 6067 2957 6067 2915 
Q 6067 2874 5933 2874 
L 4198 2874 
Q 4224 1696 4403 1043 
Q 4890 1747 5043 2490 
Q 5235 2394 5427 2285 
Q 5619 2176 5644 2144 
Q 5670 2112 5670 2067 
Q 5670 2022 5555 1984 
Q 5504 1965 5462 1904 
Q 5421 1843 5306 1619 
Q 4992 992 4582 557 
z
M 4474 4416 
Q 4909 4352 5161 4237 
Q 5414 4122 5414 3859 
Q 5414 3712 5312 3581 
Q 5210 3450 5101 3450 
Q 5050 3450 5018 3488 
Q 4986 3526 4947 3648 
Q 4819 4038 4448 4333 
L 4474 4416 
z
" transform="scale(0.015625)"/>
       <path id="STZhongsong-6bd4" d="M 3789 2112 
Q 4435 2579 5126 3494 
Q 5299 3347 5481 3171 
Q 5664 2995 5693 2956 
Q 5722 2918 5722 2886 
Q 5722 2816 5523 2816 
Q 5325 2816 5056 2611 
Q 4493 2176 3789 1875 
L 3789 51 
Q 3789 -77 3808 -134 
Q 3827 -192 3875 -214 
Q 3923 -237 4102 -249 
Q 4282 -262 4499 -262 
Q 4717 -262 4934 -240 
Q 5152 -218 5219 -186 
Q 5286 -154 5334 -38 
Q 5382 77 5427 320 
Q 5472 563 5542 1062 
L 5696 1062 
Q 5690 582 5709 377 
Q 5728 173 5779 89 
Q 5830 6 5942 -64 
Q 6054 -134 6054 -192 
Q 6054 -250 5923 -448 
Q 5792 -646 5555 -732 
Q 5318 -819 4643 -819 
Q 3968 -819 3673 -774 
Q 3379 -730 3305 -602 
Q 3232 -474 3232 -90 
L 3232 4000 
Q 3232 4435 3213 4717 
Q 3674 4595 3862 4521 
Q 4051 4448 4051 4390 
Q 4051 4333 3789 4192 
L 3789 2112 
z
M 1568 2618 
L 2150 2618 
L 2426 3002 
Q 2496 3104 2569 3104 
Q 2643 3104 2889 2832 
Q 3136 2560 3136 2486 
Q 3136 2413 2995 2413 
L 1568 2413 
L 1568 141 
Q 2381 493 3085 762 
L 3162 634 
Q 1344 -563 1213 -675 
Q 1082 -787 1046 -787 
Q 1011 -787 953 -675 
Q 896 -563 723 -179 
Q 902 -90 956 -13 
Q 1011 64 1011 186 
L 1011 4083 
Q 1011 4410 992 4685 
Q 1190 4646 1516 4547 
Q 1843 4448 1843 4371 
Q 1843 4314 1568 4154 
L 1568 2618 
z
" transform="scale(0.015625)"/>
       <path id="STZhongsong-4f8b" d="M 1062 2515 
Q 685 1933 237 1446 
L 154 1517 
Q 1139 3014 1581 4928 
Q 2278 4653 2278 4563 
Q 2278 4512 2163 4486 
Q 2093 4474 2032 4368 
Q 1971 4262 1788 3862 
Q 1606 3462 1453 3181 
Q 1517 3155 1603 3094 
Q 1690 3034 1690 2995 
Q 1690 2957 1562 2899 
L 1562 -659 
Q 1562 -755 1526 -796 
Q 1491 -838 1315 -918 
Q 1139 -998 1088 -998 
Q 1037 -998 1037 -928 
L 1050 -422 
Q 1062 -134 1062 192 
L 1062 2515 
z
M 5222 4877 
Q 5504 4806 5705 4723 
Q 5907 4640 5955 4614 
Q 6003 4589 6003 4557 
Q 6003 4512 5786 4384 
L 5786 -250 
Q 5786 -550 5728 -672 
Q 5670 -794 5414 -922 
Q 5158 -1050 5075 -1050 
Q 5024 -1050 5005 -954 
Q 4947 -698 4806 -573 
Q 4666 -448 4243 -301 
L 4256 -179 
Q 4883 -307 5027 -307 
Q 5171 -307 5203 -252 
Q 5235 -198 5235 -45 
L 5235 4307 
Q 5235 4627 5222 4877 
z
M 2938 2970 
L 3398 2970 
L 3571 3219 
Q 3610 3270 3645 3270 
Q 3680 3270 3750 3226 
L 4083 3014 
Q 4173 2957 4173 2902 
Q 4173 2848 4093 2806 
Q 4013 2765 3987 2707 
Q 3962 2650 3936 2522 
Q 3661 1043 3181 316 
Q 2701 -410 1818 -954 
L 1734 -858 
Q 2598 -134 2982 688 
Q 3366 1510 3450 2784 
L 2861 2784 
Q 2726 2451 2618 2240 
Q 2816 2048 2928 1846 
Q 3040 1645 3040 1507 
Q 3040 1370 2960 1200 
Q 2880 1030 2765 1030 
Q 2701 1030 2678 1075 
Q 2656 1120 2649 1430 
Q 2643 1741 2560 2112 
Q 2195 1408 1824 1062 
L 1754 1152 
Q 2432 2278 2778 4006 
L 2541 4006 
Q 2374 4006 2266 3974 
L 2157 4205 
Q 2291 4173 2477 4173 
L 3603 4173 
L 3834 4531 
Q 3885 4602 3945 4602 
Q 4006 4602 4278 4355 
Q 4550 4109 4550 4057 
Q 4550 4006 4410 4006 
L 3091 4006 
Q 3411 3885 3411 3827 
Q 3411 3795 3331 3763 
Q 3251 3731 3206 3667 
Q 3162 3603 3091 3405 
L 2938 2970 
z
M 4256 3757 
Q 4672 3654 4784 3603 
Q 4896 3552 4896 3501 
Q 4896 3450 4730 3392 
L 4730 1254 
L 4742 698 
Q 4742 614 4681 560 
Q 4621 506 4502 451 
Q 4384 397 4301 397 
Q 4250 397 4250 486 
L 4262 749 
Q 4269 1018 4269 1235 
L 4269 3232 
Q 4269 3526 4256 3757 
z
" transform="scale(0.015625)"/>
       <path id="STZhongsong-25" d="M 224 3264 
Q 224 3808 502 4121 
Q 781 4435 1248 4435 
Q 1715 4435 1987 4115 
Q 2259 3795 2259 3245 
Q 2259 2714 1974 2400 
Q 1690 2086 1222 2086 
Q 774 2086 499 2406 
Q 224 2726 224 3264 
z
M 1830 3264 
Q 1830 3712 1673 3974 
Q 1517 4237 1242 4237 
Q 966 4237 809 3977 
Q 653 3718 653 3232 
Q 653 2790 813 2537 
Q 973 2285 1229 2285 
Q 1491 2285 1660 2547 
Q 1830 2810 1830 3264 
z
M 4518 4435 
L 1613 -77 
L 1242 -77 
L 4141 4435 
L 4518 4435 
z
M 3501 1101 
Q 3501 1645 3776 1955 
Q 4051 2266 4525 2266 
Q 4998 2266 5267 1949 
Q 5536 1632 5536 1075 
Q 5536 557 5248 240 
Q 4960 -77 4499 -77 
Q 4045 -77 3773 240 
Q 3501 557 3501 1101 
z
M 5101 1094 
Q 5101 1555 4947 1814 
Q 4794 2074 4518 2074 
Q 4250 2074 4090 1811 
Q 3930 1549 3930 1069 
Q 3930 634 4093 381 
Q 4256 128 4506 128 
Q 4787 128 4944 377 
Q 5101 627 5101 1094 
z
" transform="scale(0.015625)"/>
      </defs>
      <use xlink:href="#STZhongsong-627f"/>
      <use xlink:href="#STZhongsong-8f7d" transform="translate(99.999985 0)"/>
      <use xlink:href="#STZhongsong-6bd4" transform="translate(199.999969 0)"/>
      <use xlink:href="#STZhongsong-4f8b" transform="translate(299.999954 0)"/>
      <use xlink:href="#STZhongsong-ff08" transform="translate(399.999939 0)"/>
      <use xlink:href="#STZhongsong-25" transform="translate(499.999924 0)"/>
      <use xlink:href="#STZhongsong-ff09" transform="translate(589.999908 0)"/>
     </g>
    </g>
   </g>
   <g id="line2d_36">
    <path d="M 102.052756 562.590416 
L 181.123463 581.950552 
L 260.19417 592.98976 
L 339.264877 599.394297 
L 418.335584 602.2223 
L 497.406291 604.133869 
L 576.476998 603.708332 
L 655.547705 606.349049 
L 734.618412 609.307751 
L 813.689119 610.285764 
" clip-path="url(#paebc99799d)" style="fill: none; stroke: #4c78a8; stroke-width: 3.1; stroke-linecap: square"/>
    <defs>
     <path id="m49a560ec60" d="M 0 -4.3 
L -4.3 4.3 
L 4.3 4.3 
z
" style="stroke: #4c78a8; stroke-linejoin: miter"/>
    </defs>
    <g clip-path="url(#paebc99799d)">
     <use xlink:href="#m49a560ec60" x="102.052756" y="562.590416" style="fill: #4c78a8; stroke: #4c78a8; stroke-linejoin: miter"/>
     <use xlink:href="#m49a560ec60" x="181.123463" y="581.950552" style="fill: #4c78a8; stroke: #4c78a8; stroke-linejoin: miter"/>
     <use xlink:href="#m49a560ec60" x="260.19417" y="592.98976" style="fill: #4c78a8; stroke: #4c78a8; stroke-linejoin: miter"/>
     <use xlink:href="#m49a560ec60" x="339.264877" y="599.394297" style="fill: #4c78a8; stroke: #4c78a8; stroke-linejoin: miter"/>
     <use xlink:href="#m49a560ec60" x="418.335584" y="602.2223" style="fill: #4c78a8; stroke: #4c78a8; stroke-linejoin: miter"/>
     <use xlink:href="#m49a560ec60" x="497.406291" y="604.133869" style="fill: #4c78a8; stroke: #4c78a8; stroke-linejoin: miter"/>
     <use xlink:href="#m49a560ec60" x="576.476998" y="603.708332" style="fill: #4c78a8; stroke: #4c78a8; stroke-linejoin: miter"/>
     <use xlink:href="#m49a560ec60" x="655.547705" y="606.349049" style="fill: #4c78a8; stroke: #4c78a8; stroke-linejoin: miter"/>
     <use xlink:href="#m49a560ec60" x="734.618412" y="609.307751" style="fill: #4c78a8; stroke: #4c78a8; stroke-linejoin: miter"/>
     <use xlink:href="#m49a560ec60" x="813.689119" y="610.285764" style="fill: #4c78a8; stroke: #4c78a8; stroke-linejoin: miter"/>
    </g>
   </g>
   <g id="line2d_37">
    <path d="M 102.052756 467.342221 
L 181.123463 482.205136 
L 260.19417 499.67096 
L 339.264877 505.172615 
L 418.335584 506.827955 
L 497.406291 506.207943 
L 576.476998 505.046599 
L 655.547705 507.477536 
L 734.618412 509.775696 
L 813.689119 510.048715 
" clip-path="url(#paebc99799d)" style="fill: none; stroke: #59a14f; stroke-width: 3.1; stroke-linecap: square"/>
    <defs>
     <path id="m7b27d665a1" d="M 0 6.081118 
L 6.081118 0 
L 0 -6.081118 
L -6.081118 0 
z
" style="stroke: #59a14f; stroke-linejoin: miter"/>
    </defs>
    <g clip-path="url(#paebc99799d)">
     <use xlink:href="#m7b27d665a1" x="102.052756" y="467.342221" style="fill: #59a14f; stroke: #59a14f; stroke-linejoin: miter"/>
     <use xlink:href="#m7b27d665a1" x="181.123463" y="482.205136" style="fill: #59a14f; stroke: #59a14f; stroke-linejoin: miter"/>
     <use xlink:href="#m7b27d665a1" x="260.19417" y="499.67096" style="fill: #59a14f; stroke: #59a14f; stroke-linejoin: miter"/>
     <use xlink:href="#m7b27d665a1" x="339.264877" y="505.172615" style="fill: #59a14f; stroke: #59a14f; stroke-linejoin: miter"/>
     <use xlink:href="#m7b27d665a1" x="418.335584" y="506.827955" style="fill: #59a14f; stroke: #59a14f; stroke-linejoin: miter"/>
     <use xlink:href="#m7b27d665a1" x="497.406291" y="506.207943" style="fill: #59a14f; stroke: #59a14f; stroke-linejoin: miter"/>
     <use xlink:href="#m7b27d665a1" x="576.476998" y="505.046599" style="fill: #59a14f; stroke: #59a14f; stroke-linejoin: miter"/>
     <use xlink:href="#m7b27d665a1" x="655.547705" y="507.477536" style="fill: #59a14f; stroke: #59a14f; stroke-linejoin: miter"/>
     <use xlink:href="#m7b27d665a1" x="734.618412" y="509.775696" style="fill: #59a14f; stroke: #59a14f; stroke-linejoin: miter"/>
     <use xlink:href="#m7b27d665a1" x="813.689119" y="510.048715" style="fill: #59a14f; stroke: #59a14f; stroke-linejoin: miter"/>
    </g>
   </g>
   <g id="line2d_38">
    <path d="M 102.052756 467.342221 
L 181.123463 467.342221 
L 260.19417 467.342221 
L 339.264877 468.210835 
L 418.335584 469.64408 
L 497.406291 468.403874 
L 576.476998 467.342221 
L 655.547705 469.276191 
L 734.618412 472.06832 
L 813.689119 473.027366 
" clip-path="url(#paebc99799d)" style="fill: none; stroke: #c49a52; stroke-width: 3.1; stroke-linecap: square"/>
    <defs>
     <path id="m01f78c60f3" d="M 0 4.3 
C 1.140373 4.3 2.234193 3.846925 3.040559 3.040559 
C 3.846925 2.234193 4.3 1.140373 4.3 0 
C 4.3 -1.140373 3.846925 -2.234193 3.040559 -3.040559 
C 2.234193 -3.846925 1.140373 -4.3 0 -4.3 
C -1.140373 -4.3 -2.234193 -3.846925 -3.040559 -3.040559 
C -3.846925 -2.234193 -4.3 -1.140373 -4.3 0 
C -4.3 1.140373 -3.846925 2.234193 -3.040559 3.040559 
C -2.234193 3.846925 -1.140373 4.3 0 4.3 
z
" style="stroke: #c49a52"/>
    </defs>
    <g clip-path="url(#paebc99799d)">
     <use xlink:href="#m01f78c60f3" x="102.052756" y="467.342221" style="fill: #c49a52; stroke: #c49a52"/>
     <use xlink:href="#m01f78c60f3" x="181.123463" y="467.342221" style="fill: #c49a52; stroke: #c49a52"/>
     <use xlink:href="#m01f78c60f3" x="260.19417" y="467.342221" style="fill: #c49a52; stroke: #c49a52"/>
     <use xlink:href="#m01f78c60f3" x="339.264877" y="468.210835" style="fill: #c49a52; stroke: #c49a52"/>
     <use xlink:href="#m01f78c60f3" x="418.335584" y="469.64408" style="fill: #c49a52; stroke: #c49a52"/>
     <use xlink:href="#m01f78c60f3" x="497.406291" y="468.403874" style="fill: #c49a52; stroke: #c49a52"/>
     <use xlink:href="#m01f78c60f3" x="576.476998" y="467.342221" style="fill: #c49a52; stroke: #c49a52"/>
     <use xlink:href="#m01f78c60f3" x="655.547705" y="469.276191" style="fill: #c49a52; stroke: #c49a52"/>
     <use xlink:href="#m01f78c60f3" x="734.618412" y="472.06832" style="fill: #c49a52; stroke: #c49a52"/>
     <use xlink:href="#m01f78c60f3" x="813.689119" y="473.027366" style="fill: #c49a52; stroke: #c49a52"/>
    </g>
   </g>
   <g id="patch_9">
    <path d="M 66.470938 617.432941 
L 66.470938 460.195044 
" style="fill: none; stroke: #111111; stroke-width: 1.35; stroke-linejoin: miter; stroke-linecap: square"/>
   </g>
   <g id="patch_10">
    <path d="M 66.470938 617.432941 
L 849.270937 617.432941 
" style="fill: none; stroke: #111111; stroke-width: 1.35; stroke-linejoin: miter; stroke-linecap: square"/>
   </g>
   <g id="text_21">
    <!-- Top格网企业承载比例 -->
    <g style="fill: #111111" transform="translate(369.670938 454.195044) scale(0.18 -0.18)">
     <defs>
      <path id="STZhongsong-54" d="M 480 4506 
L 698 4506 
L 730 4358 
L 3232 4358 
L 3258 4506 
L 3488 4506 
L 3942 3226 
L 3661 3123 
Q 3469 3622 3235 3836 
Q 3002 4051 2554 4051 
Q 2362 4051 2317 4009 
Q 2272 3968 2272 3770 
L 2272 749 
Q 2272 416 2397 339 
Q 2522 262 2829 262 
L 2829 0 
L 1146 0 
L 1146 262 
Q 1402 262 1514 297 
Q 1626 333 1658 422 
Q 1690 512 1690 723 
L 1690 3814 
Q 1690 3968 1654 4009 
Q 1619 4051 1466 4051 
Q 947 4051 729 3830 
Q 512 3610 314 3123 
L 32 3226 
L 480 4506 
z
" transform="scale(0.015625)"/>
      <path id="STZhongsong-6f" d="M 256 1504 
Q 256 2208 685 2649 
Q 1114 3091 1811 3091 
Q 2496 3091 2912 2656 
Q 3328 2221 3328 1510 
Q 3328 794 2905 358 
Q 2483 -77 1773 -77 
Q 1075 -77 665 364 
Q 256 806 256 1504 
z
M 2726 1517 
Q 2726 2106 2480 2448 
Q 2234 2790 1786 2790 
Q 1376 2790 1123 2432 
Q 870 2074 870 1485 
Q 870 877 1110 541 
Q 1350 205 1786 205 
Q 2208 205 2467 560 
Q 2726 915 2726 1517 
z
" transform="scale(0.015625)"/>
      <path id="STZhongsong-70" d="M 198 2566 
L 198 2822 
Q 634 2822 1011 3091 
L 1261 3091 
L 1261 2566 
Q 1562 2816 1834 2953 
Q 2106 3091 2426 3091 
Q 2963 3091 3340 2643 
Q 3718 2195 3718 1530 
Q 3718 813 3318 368 
Q 2918 -77 2278 -77 
Q 1958 -77 1728 28 
Q 1498 134 1261 333 
L 1261 -582 
Q 1261 -800 1289 -883 
Q 1318 -966 1424 -992 
Q 1530 -1018 1811 -1018 
L 1811 -1280 
L 198 -1280 
L 198 -1018 
L 339 -1018 
Q 608 -1018 672 -934 
Q 736 -851 736 -557 
L 736 2566 
L 198 2566 
z
M 1261 2246 
L 1261 1171 
Q 1261 742 1488 502 
Q 1715 262 2112 262 
Q 2573 262 2845 569 
Q 3117 877 3117 1440 
Q 3117 2003 2877 2355 
Q 2637 2707 2285 2707 
Q 1837 2707 1261 2246 
z
" transform="scale(0.015625)"/>
      <path id="STZhongsong-683c" d="M 1722 3334 
L 1869 3334 
L 2029 3571 
Q 2093 3667 2147 3667 
Q 2202 3667 2429 3449 
Q 2656 3232 2656 3171 
Q 2656 3110 2522 3110 
L 1722 3110 
L 1722 2573 
Q 2112 2445 2320 2281 
Q 2528 2118 2528 1875 
Q 2528 1760 2413 1638 
Q 2298 1517 2208 1517 
Q 2118 1517 2083 1542 
Q 2048 1568 2022 1709 
Q 1933 2182 1722 2394 
L 1722 -691 
Q 1722 -755 1706 -771 
Q 1690 -787 1597 -844 
Q 1504 -902 1363 -960 
Q 1222 -1018 1200 -1018 
Q 1178 -1018 1178 -960 
L 1190 -691 
Q 1203 -371 1203 -90 
L 1203 1971 
Q 1037 1562 825 1242 
Q 614 922 192 467 
L 102 538 
Q 749 1594 1094 3110 
L 570 3110 
Q 403 3110 294 3078 
L 186 3366 
Q 320 3334 506 3334 
L 1203 3334 
L 1203 4134 
Q 1203 4557 1184 4864 
Q 1965 4685 1965 4614 
Q 1965 4570 1722 4429 
L 1722 3334 
z
M 3341 3398 
Q 2995 2848 2464 2298 
L 2362 2362 
Q 2771 2995 2992 3516 
Q 3213 4038 3373 4806 
Q 3814 4666 3932 4602 
Q 4051 4538 4051 4499 
Q 4051 4461 3955 4416 
Q 3859 4371 3744 4137 
Q 3629 3904 3590 3834 
L 4813 3834 
L 4998 4115 
Q 5030 4166 5065 4166 
Q 5101 4166 5254 4060 
Q 5408 3955 5526 3868 
Q 5645 3782 5680 3737 
Q 5715 3693 5715 3648 
Q 5715 3571 5619 3558 
Q 5523 3546 5404 3456 
Q 5286 3366 5190 3219 
Q 4832 2688 4518 2374 
Q 5178 1952 6182 1754 
L 6182 1651 
Q 5869 1606 5773 1548 
Q 5677 1491 5613 1338 
Q 5587 1267 5520 1267 
Q 5453 1267 4960 1513 
Q 4467 1760 4147 2035 
Q 3725 1702 3034 1376 
Q 3251 1306 3456 1203 
L 4678 1203 
L 4781 1382 
Q 4813 1440 4880 1440 
Q 4947 1440 5190 1289 
Q 5434 1139 5434 1062 
Q 5434 986 5248 922 
L 5248 -186 
Q 5248 -365 5254 -493 
L 5261 -691 
Q 5261 -730 5197 -771 
Q 5133 -813 4973 -873 
Q 4813 -934 4755 -934 
Q 4717 -934 4717 -870 
L 4717 -390 
L 3443 -390 
L 3443 -813 
Q 3443 -877 3424 -896 
Q 3405 -915 3222 -979 
Q 3040 -1043 2963 -1043 
Q 2938 -1043 2938 -992 
L 2944 -755 
Q 2950 -646 2950 -454 
L 2950 794 
Q 2950 1165 2938 1331 
Q 2438 1101 2022 941 
L 1971 1037 
Q 3290 1786 3859 2336 
Q 3539 2746 3341 3398 
z
M 3494 3661 
Q 3469 3610 3456 3590 
Q 3750 3002 4160 2650 
Q 4544 3091 4826 3661 
L 3494 3661 
z
M 3443 -198 
L 4717 -198 
L 4717 1011 
L 3443 1011 
L 3443 -198 
z
" transform="scale(0.015625)"/>
      <path id="STZhongsong-7f51" d="M 1542 4320 
L 4992 4320 
L 5158 4614 
Q 5197 4678 5248 4678 
Q 5299 4678 5603 4464 
Q 5907 4250 5907 4179 
Q 5907 4109 5651 4038 
L 5651 -166 
Q 5651 -499 5584 -646 
Q 5517 -794 5245 -928 
Q 4973 -1062 4890 -1062 
Q 4845 -1062 4819 -966 
Q 4742 -685 4588 -576 
Q 4435 -467 3917 -326 
L 3936 -186 
Q 4608 -301 4800 -301 
Q 4992 -301 5037 -230 
Q 5082 -160 5082 32 
L 5082 4134 
L 1498 4134 
L 1498 -736 
Q 1498 -781 1485 -800 
Q 1472 -819 1360 -883 
Q 1248 -947 1110 -995 
Q 973 -1043 941 -1043 
Q 909 -1043 915 -986 
Q 954 -666 954 -166 
L 954 4141 
Q 954 4461 941 4710 
Q 1197 4608 1542 4320 
z
M 2470 2534 
Q 2637 3104 2778 3776 
Q 3053 3654 3206 3558 
Q 3360 3462 3389 3433 
Q 3418 3405 3418 3373 
Q 3418 3315 3334 3289 
Q 3251 3264 3203 3184 
Q 3155 3104 3027 2768 
Q 2899 2432 2765 2144 
Q 3245 1459 3245 992 
Q 3245 813 3126 653 
Q 3008 493 2938 493 
Q 2822 493 2790 723 
Q 2720 1261 2547 1683 
Q 2093 781 1632 262 
L 1542 390 
Q 2029 1126 2349 2118 
Q 2138 2534 1619 3290 
L 1709 3360 
Q 2138 2938 2470 2534 
z
M 4006 2522 
Q 4179 3104 4288 3712 
Q 4960 3354 4960 3238 
Q 4960 3194 4873 3165 
Q 4787 3136 4723 3056 
Q 4659 2976 4550 2688 
Q 4442 2400 4307 2106 
Q 4883 1235 4883 800 
Q 4883 646 4787 508 
Q 4691 371 4604 371 
Q 4518 371 4461 576 
Q 4320 1088 4096 1658 
Q 3654 787 3014 102 
L 2938 192 
Q 3494 1005 3885 2150 
Q 3686 2586 3347 3136 
L 3462 3181 
Q 3757 2835 4006 2522 
z
" transform="scale(0.015625)"/>
      <path id="STZhongsong-4f01" d="M 3232 4314 
Q 3174 4243 3130 4160 
Q 2726 3469 2377 3046 
Q 2029 2624 1542 2272 
Q 1056 1920 218 1459 
L 154 1562 
Q 1139 2291 1696 2979 
Q 2253 3667 2771 4832 
Q 3482 4576 3482 4506 
Q 3482 4467 3341 4410 
Q 4179 3034 6259 2554 
L 6246 2432 
Q 5946 2432 5786 2371 
Q 5626 2310 5472 2112 
Q 5427 2061 5389 2061 
Q 5318 2061 4774 2432 
Q 4230 2803 3852 3251 
Q 3475 3699 3232 4314 
z
M 3558 1414 
L 4179 1414 
L 4429 1754 
Q 4486 1830 4557 1830 
Q 4614 1830 4761 1721 
Q 4909 1613 5056 1472 
Q 5203 1331 5203 1286 
Q 5203 1216 5062 1216 
L 3558 1216 
L 3558 -461 
L 4870 -461 
L 5171 -45 
Q 5235 45 5280 45 
Q 5344 45 5696 -240 
Q 6048 -525 6048 -598 
Q 6048 -672 5933 -672 
L 723 -672 
Q 550 -672 454 -717 
L 339 -429 
Q 474 -461 659 -461 
L 1466 -461 
L 1466 1370 
Q 1466 1690 1453 1939 
Q 1971 1805 2076 1763 
Q 2182 1722 2182 1677 
Q 2182 1632 2016 1549 
L 2016 -461 
L 3034 -461 
L 3034 2413 
Q 3034 2733 3021 2982 
Q 3360 2899 3568 2816 
Q 3776 2733 3776 2682 
Q 3776 2611 3558 2502 
L 3558 1414 
z
" transform="scale(0.015625)"/>
      <path id="STZhongsong-4e1a" d="M 3552 -422 
L 3552 4154 
Q 3552 4646 3539 4755 
Q 3821 4698 4096 4608 
Q 4371 4518 4371 4448 
Q 4371 4378 4096 4243 
L 4096 768 
Q 4659 1626 5158 3341 
Q 5747 3053 5843 2989 
Q 5939 2925 5939 2873 
Q 5939 2822 5818 2810 
Q 5766 2803 5731 2771 
Q 5696 2739 5619 2618 
Q 4813 1210 4096 442 
L 4096 -422 
L 5056 -422 
L 5370 -26 
Q 5440 58 5485 58 
Q 5530 58 5616 -16 
Q 5702 -90 5862 -240 
Q 6022 -390 6092 -476 
Q 6163 -563 6163 -608 
Q 6163 -653 6048 -653 
L 640 -653 
Q 499 -653 416 -685 
L 282 -390 
Q 384 -422 538 -422 
L 2278 -422 
L 2278 4115 
Q 2278 4608 2266 4717 
Q 2886 4576 3001 4531 
Q 3117 4486 3117 4422 
Q 3117 4358 2822 4256 
L 2822 -422 
L 3552 -422 
z
M 787 3181 
Q 1357 2458 1645 2000 
Q 1933 1542 1933 1273 
Q 1933 1005 1757 758 
Q 1581 512 1434 512 
Q 1363 512 1340 557 
Q 1318 602 1318 781 
Q 1318 1754 698 3104 
L 787 3181 
z
" transform="scale(0.015625)"/>
     </defs>
     <use xlink:href="#STZhongsong-54"/>
     <use xlink:href="#STZhongsong-6f" transform="translate(61.999985 0)"/>
     <use xlink:href="#STZhongsong-70" transform="translate(117.999969 0)"/>
     <use xlink:href="#STZhongsong-683c" transform="translate(179.999954 0)"/>
     <use xlink:href="#STZhongsong-7f51" transform="translate(279.999939 0)"/>
     <use xlink:href="#STZhongsong-4f01" transform="translate(379.999924 0)"/>
     <use xlink:href="#STZhongsong-4e1a" transform="translate(479.999908 0)"/>
     <use xlink:href="#STZhongsong-627f" transform="translate(579.999893 0)"/>
     <use xlink:href="#STZhongsong-8f7d" transform="translate(679.999878 0)"/>
     <use xlink:href="#STZhongsong-6bd4" transform="translate(779.999863 0)"/>
     <use xlink:href="#STZhongsong-4f8b" transform="translate(879.999847 0)"/>
    </g>
   </g>
   <g id="legend_1">
    <g id="line2d_39">
     <path d="M 271.810938 667.122083 
L 285.810938 667.122083 
L 299.810938 667.122083 
" style="fill: none; stroke: #4c78a8; stroke-width: 3.1; stroke-linecap: square"/>
     <g>
      <use xlink:href="#m49a560ec60" x="285.810938" y="667.122083" style="fill: #4c78a8; stroke: #4c78a8; stroke-linejoin: miter"/>
     </g>
    </g>
    <g id="text_22">
     <!-- 前1%格网 -->
     <g style="fill: #111111" transform="translate(311.010938 672.022083) scale(0.14 -0.14)">
      <defs>
       <path id="STZhongsong-524d" d="M 3891 3661 
L 5133 3661 
L 5389 4064 
Q 5434 4128 5482 4128 
Q 5530 4128 5706 3990 
Q 5882 3853 6022 3737 
Q 6163 3622 6163 3548 
Q 6163 3475 6029 3475 
L 627 3475 
Q 454 3475 358 3430 
L 243 3693 
Q 378 3661 563 3661 
L 3597 3661 
Q 3917 4269 4186 5037 
Q 4787 4806 4876 4761 
Q 4966 4717 4966 4672 
Q 4966 4627 4886 4624 
Q 4806 4621 4764 4595 
Q 4723 4570 4630 4483 
Q 4538 4397 4333 4166 
L 3891 3661 
z
M 1683 4979 
Q 2758 4634 2758 4205 
Q 2758 4013 2633 3862 
Q 2509 3712 2349 3712 
Q 2259 3712 2227 3853 
Q 2144 4250 2009 4464 
Q 1875 4678 1638 4890 
L 1683 4979 
z
M 1664 2963 
L 2560 2963 
L 2688 3155 
Q 2733 3226 2797 3226 
Q 2861 3226 3053 3101 
Q 3245 2976 3305 2928 
Q 3366 2880 3366 2835 
Q 3366 2752 3162 2630 
L 3162 -326 
Q 3162 -678 2902 -838 
Q 2643 -998 2563 -998 
Q 2483 -998 2470 -922 
Q 2432 -710 2333 -614 
Q 2234 -518 1888 -397 
L 1914 -269 
Q 2298 -333 2416 -333 
Q 2534 -333 2585 -304 
Q 2637 -275 2637 -160 
L 2637 832 
L 1530 832 
L 1530 -736 
Q 1530 -800 1507 -822 
Q 1485 -845 1382 -902 
Q 1280 -960 1161 -995 
Q 1043 -1030 1008 -1030 
Q 973 -1030 973 -973 
L 1005 -442 
Q 1024 -77 1024 294 
L 1024 2714 
Q 1024 3034 1011 3283 
Q 1414 3136 1664 2963 
z
M 1530 1984 
L 2637 1984 
L 2637 2765 
L 1530 2765 
L 1530 1984 
z
M 2637 1779 
L 1530 1779 
L 1530 1037 
L 2637 1037 
L 2637 1779 
z
M 4813 3232 
Q 4992 3194 5203 3120 
Q 5414 3046 5478 3011 
Q 5542 2976 5542 2925 
Q 5542 2874 5370 2778 
L 5370 -474 
Q 5370 -646 5254 -732 
Q 5139 -819 4918 -908 
Q 4698 -998 4643 -998 
Q 4589 -998 4576 -922 
Q 4544 -749 4483 -656 
Q 4422 -563 4272 -483 
Q 4122 -403 3814 -307 
L 3846 -154 
Q 4397 -250 4550 -250 
Q 4704 -250 4765 -221 
Q 4826 -192 4826 -70 
L 4826 2662 
Q 4826 3130 4813 3232 
z
M 3725 2944 
Q 3962 2874 4150 2810 
Q 4339 2746 4374 2720 
Q 4410 2694 4410 2646 
Q 4410 2598 4237 2496 
L 4237 1062 
L 4250 486 
Q 4250 422 4227 396 
Q 4205 371 4013 300 
Q 3821 230 3750 230 
Q 3718 230 3718 288 
L 3731 563 
Q 3738 832 3738 1062 
L 3738 2432 
Q 3738 2720 3725 2944 
z
" transform="scale(0.015625)"/>
      </defs>
      <use xlink:href="#STZhongsong-524d"/>
      <use xlink:href="#STZhongsong-31" transform="translate(99.999985 0)"/>
      <use xlink:href="#STZhongsong-25" transform="translate(161.999969 0)"/>
      <use xlink:href="#STZhongsong-683c" transform="translate(251.999954 0)"/>
      <use xlink:href="#STZhongsong-7f51" transform="translate(351.999939 0)"/>
     </g>
    </g>
    <g id="line2d_40">
     <path d="M 402.290938 667.122083 
L 416.290938 667.122083 
L 430.290938 667.122083 
" style="fill: none; stroke: #59a14f; stroke-width: 3.1; stroke-linecap: square"/>
     <g>
      <use xlink:href="#m7b27d665a1" x="416.290938" y="667.122083" style="fill: #59a14f; stroke: #59a14f; stroke-linejoin: miter"/>
     </g>
    </g>
    <g id="text_23">
     <!-- 前5%格网 -->
     <g style="fill: #111111" transform="translate(441.490938 672.022083) scale(0.14 -0.14)">
      <use xlink:href="#STZhongsong-524d"/>
      <use xlink:href="#STZhongsong-35" transform="translate(99.999985 0)"/>
      <use xlink:href="#STZhongsong-25" transform="translate(161.999969 0)"/>
      <use xlink:href="#STZhongsong-683c" transform="translate(251.999954 0)"/>
      <use xlink:href="#STZhongsong-7f51" transform="translate(351.999939 0)"/>
     </g>
    </g>
    <g id="line2d_41">
     <path d="M 532.770938 667.122083 
L 546.770938 667.122083 
L 560.770938 667.122083 
" style="fill: none; stroke: #c49a52; stroke-width: 3.1; stroke-linecap: square"/>
     <g>
      <use xlink:href="#m01f78c60f3" x="546.770938" y="667.122083" style="fill: #c49a52; stroke: #c49a52"/>
     </g>
    </g>
    <g id="text_24">
     <!-- 前10%格网 -->
     <g style="fill: #111111" transform="translate(571.970938 672.022083) scale(0.14 -0.14)">
      <use xlink:href="#STZhongsong-524d"/>
      <use xlink:href="#STZhongsong-31" transform="translate(99.999985 0)"/>
      <use xlink:href="#STZhongsong-30" transform="translate(161.999969 0)"/>
      <use xlink:href="#STZhongsong-25" transform="translate(223.999954 0)"/>
      <use xlink:href="#STZhongsong-683c" transform="translate(313.999939 0)"/>
      <use xlink:href="#STZhongsong-7f51" transform="translate(413.999924 0)"/>
     </g>
    </g>
   </g>
  </g>
  <g id="text_25">
   <!-- 格网企业承载集中度变化 -->
   <g style="fill: #111111" transform="translate(301.570938 24.424844) scale(0.23 -0.23)">
    <defs>
     <path id="STZhongsong-96c6" d="M 1306 3226 
Q 890 2746 230 2342 
L 147 2426 
Q 646 2906 998 3437 
Q 1350 3968 1741 4896 
Q 2464 4627 2464 4531 
Q 2464 4480 2355 4457 
Q 2246 4435 2198 4393 
Q 2150 4352 2051 4208 
Q 1952 4064 1856 3936 
L 3232 3936 
Q 3130 4557 2810 4870 
L 2861 4966 
Q 3309 4800 3526 4646 
Q 3744 4493 3744 4307 
Q 3744 4064 3488 3936 
L 4454 3936 
L 4710 4320 
Q 4774 4416 4828 4416 
Q 4883 4416 5091 4253 
Q 5299 4090 5414 3994 
Q 5530 3898 5530 3827 
Q 5530 3731 5338 3731 
L 3514 3731 
L 3514 3155 
L 4403 3155 
L 4608 3469 
Q 4659 3546 4720 3546 
Q 4781 3546 5046 3328 
Q 5312 3110 5312 3033 
Q 5312 2957 5107 2957 
L 3514 2957 
L 3514 2400 
L 4480 2400 
L 4685 2707 
Q 4730 2771 4806 2771 
Q 4883 2771 5148 2566 
Q 5414 2362 5414 2285 
Q 5414 2202 5216 2202 
L 3514 2202 
L 3514 1645 
L 4762 1645 
L 4998 1971 
Q 5050 2048 5110 2048 
Q 5171 2048 5456 1821 
Q 5741 1594 5741 1520 
Q 5741 1446 5542 1446 
L 1830 1446 
L 1830 1280 
Q 1830 1235 1779 1196 
Q 1728 1158 1561 1107 
Q 1395 1056 1312 1056 
Q 1274 1056 1274 1107 
L 1299 1702 
Q 1306 1971 1306 2234 
L 1306 3226 
z
M 1830 3731 
L 1830 3155 
L 2982 3155 
L 2982 3731 
L 1830 3731 
z
M 1830 2957 
L 1830 2400 
L 2982 2400 
L 2982 2957 
L 1830 2957 
z
M 1830 2202 
L 1830 1645 
L 2982 1645 
L 2982 2202 
L 1830 2202 
z
M 3462 947 
L 5024 947 
L 5293 1261 
Q 5350 1331 5436 1331 
Q 5523 1331 5804 1113 
Q 6086 896 6086 822 
Q 6086 749 5952 749 
L 3866 749 
Q 4256 275 4867 6 
Q 5478 -262 6214 -262 
L 6202 -416 
Q 5856 -454 5693 -524 
Q 5530 -595 5395 -787 
Q 5370 -826 5331 -826 
Q 5242 -826 4886 -611 
Q 4531 -397 4188 -29 
Q 3846 339 3667 749 
L 3462 749 
L 3462 -32 
L 3475 -768 
Q 3475 -832 3408 -877 
Q 3341 -922 3158 -986 
Q 2976 -1050 2899 -1050 
Q 2867 -1050 2867 -992 
L 2880 -691 
Q 2893 -384 2893 -128 
L 2893 685 
Q 1965 -422 262 -966 
L 205 -838 
Q 1709 -141 2285 749 
L 538 749 
Q 371 749 262 717 
L 154 979 
Q 288 947 474 947 
L 2893 947 
Q 2893 1178 2874 1408 
Q 3091 1389 3331 1334 
Q 3571 1280 3571 1245 
Q 3571 1210 3462 1126 
L 3462 947 
z
" transform="scale(0.015625)"/>
     <path id="STZhongsong-4e2d" d="M 1510 3296 
L 2854 3296 
L 2854 4352 
Q 2854 4685 2842 4922 
Q 3322 4762 3517 4688 
Q 3712 4614 3712 4553 
Q 3712 4493 3450 4390 
L 3450 3296 
L 4883 3296 
L 5050 3610 
Q 5088 3680 5133 3680 
Q 5197 3680 5523 3491 
Q 5850 3302 5850 3232 
Q 5850 3162 5530 3014 
L 5530 1504 
Q 5530 1408 5536 1325 
L 5549 1190 
Q 5549 1146 5485 1107 
Q 5421 1069 5241 1021 
Q 5062 973 4979 973 
Q 4941 973 4941 1037 
L 4941 1376 
L 3450 1376 
L 3450 -64 
Q 3450 -275 3462 -512 
L 3469 -730 
Q 3469 -781 3424 -813 
Q 3379 -845 3145 -918 
Q 2912 -992 2873 -992 
Q 2835 -992 2835 -890 
L 2848 -640 
Q 2854 -384 2854 -64 
L 2854 1376 
L 1382 1376 
L 1382 1101 
Q 1382 1056 1331 1017 
Q 1280 979 1065 908 
Q 851 838 803 838 
Q 755 838 762 902 
Q 794 1120 794 1382 
L 794 3123 
Q 794 3392 774 3667 
Q 1235 3488 1510 3296 
z
M 2854 3110 
L 1382 3110 
L 1382 1562 
L 2854 1562 
L 2854 3110 
z
M 4941 1562 
L 4941 3110 
L 3450 3110 
L 3450 1562 
L 4941 1562 
z
" transform="scale(0.015625)"/>
     <path id="STZhongsong-5ea6" d="M 3296 3987 
Q 3219 4301 3120 4473 
Q 3021 4646 2810 4832 
L 2854 4915 
Q 3878 4736 3878 4365 
Q 3878 4269 3814 4166 
Q 3750 4064 3610 3987 
L 5075 3987 
L 5376 4346 
Q 5427 4410 5466 4410 
Q 5536 4410 5808 4163 
Q 6080 3917 6080 3859 
Q 6080 3802 5965 3802 
L 1754 3802 
Q 1754 3488 1741 2931 
L 2656 2931 
L 2656 3277 
Q 2656 3488 2637 3744 
Q 3059 3648 3200 3600 
Q 3341 3552 3341 3507 
Q 3341 3456 3174 3360 
L 3174 2931 
L 4179 2931 
L 4179 3270 
Q 4179 3482 4160 3738 
Q 4653 3629 4765 3581 
Q 4877 3533 4877 3501 
Q 4877 3450 4710 3354 
L 4710 2931 
L 5094 2931 
L 5363 3309 
Q 5402 3360 5434 3360 
Q 5498 3360 5750 3107 
Q 6003 2854 6003 2803 
Q 6003 2752 5888 2752 
L 4710 2752 
L 4710 2355 
Q 4710 2067 4717 1946 
L 4730 1747 
Q 4730 1702 4678 1673 
Q 4627 1645 4457 1590 
Q 4288 1536 4218 1536 
Q 4179 1536 4179 1600 
L 4179 1888 
L 3174 1888 
L 3174 1722 
Q 3174 1677 3164 1648 
Q 3155 1619 2934 1552 
Q 2714 1485 2672 1485 
Q 2630 1485 2630 1530 
L 2643 1754 
Q 2656 1920 2656 2150 
L 2656 2752 
L 1734 2752 
Q 1696 1491 1606 963 
Q 1517 435 1238 -51 
Q 960 -538 358 -1082 
L 275 -1005 
Q 832 -262 1011 477 
Q 1190 1216 1190 2477 
Q 1190 3738 1158 4320 
Q 1510 4198 1843 3987 
L 3296 3987 
z
M 4179 2752 
L 3174 2752 
L 3174 2074 
L 4179 2074 
L 4179 2752 
z
M 3674 -250 
Q 2842 -806 1139 -1069 
L 1139 -941 
Q 2432 -627 3354 19 
Q 2944 422 2669 1133 
L 2387 1133 
Q 2214 1133 2118 1088 
L 2003 1350 
Q 2138 1318 2323 1318 
L 4467 1318 
L 4602 1472 
Q 4653 1530 4697 1530 
Q 4742 1530 5024 1331 
Q 5306 1133 5306 1078 
Q 5306 1024 5206 1017 
Q 5107 1011 5062 995 
Q 5018 979 4954 902 
Q 4506 403 4090 51 
Q 4858 -294 6227 -416 
L 6182 -557 
Q 5894 -557 5721 -643 
Q 5549 -730 5459 -922 
Q 5427 -992 5376 -992 
Q 5280 -992 4681 -768 
Q 4083 -544 3674 -250 
z
M 3686 269 
Q 4166 685 4403 1133 
L 2848 1133 
Q 3187 602 3686 269 
z
" transform="scale(0.015625)"/>
     <path id="STZhongsong-53d8" d="M 2912 3885 
Q 2835 4390 2330 4787 
L 2381 4915 
Q 2912 4787 3197 4643 
Q 3482 4499 3482 4301 
Q 3482 4211 3430 4092 
Q 3379 3974 3270 3885 
L 4819 3885 
L 5094 4288 
Q 5152 4365 5209 4365 
Q 5267 4365 5564 4080 
Q 5862 3795 5862 3728 
Q 5862 3661 5696 3661 
L 3968 3661 
L 3968 2445 
Q 3968 2182 3974 2048 
L 3987 1837 
Q 3987 1798 3929 1760 
Q 3872 1722 3709 1664 
Q 3546 1606 3469 1606 
Q 3418 1606 3418 1696 
L 3418 3661 
L 2733 3661 
L 2733 1779 
Q 2733 1722 2707 1696 
Q 2682 1670 2474 1600 
Q 2266 1530 2214 1530 
Q 2163 1530 2163 1606 
L 2176 1869 
Q 2182 2138 2182 2451 
L 2182 3661 
L 723 3661 
Q 550 3661 454 3616 
L 339 3917 
Q 474 3885 659 3885 
L 2912 3885 
z
M 1338 3277 
Q 2010 2938 2010 2835 
Q 2010 2784 1917 2768 
Q 1824 2752 1779 2717 
Q 1734 2682 1658 2573 
Q 1382 2150 1065 1859 
Q 749 1568 288 1235 
L 179 1338 
Q 627 1798 873 2214 
Q 1120 2630 1338 3277 
z
M 4275 3238 
Q 4870 2970 5174 2790 
Q 5478 2611 5580 2473 
Q 5683 2336 5683 2137 
Q 5683 1939 5580 1779 
Q 5478 1619 5370 1619 
Q 5306 1619 5261 1683 
Q 5216 1747 5114 1997 
Q 4832 2669 4205 3104 
L 4275 3238 
z
M 3104 -186 
Q 2003 -858 307 -1107 
L 288 -966 
Q 1830 -550 2746 77 
Q 2150 582 1862 1286 
L 1587 1286 
Q 1414 1286 1318 1242 
L 1203 1536 
Q 1338 1504 1523 1504 
L 4077 1504 
L 4288 1715 
Q 4326 1754 4365 1754 
Q 4448 1754 4707 1539 
Q 4966 1325 4966 1274 
Q 4966 1216 4844 1200 
Q 4723 1184 4640 1120 
Q 4557 1056 4378 858 
Q 4013 442 3552 109 
Q 4595 -333 6170 -371 
L 6170 -512 
Q 5830 -538 5622 -630 
Q 5414 -723 5306 -960 
Q 5274 -1018 5222 -1018 
Q 5146 -1018 4643 -874 
Q 4141 -730 3805 -576 
Q 3469 -422 3104 -186 
z
M 3098 333 
Q 3622 736 4026 1286 
L 2074 1286 
Q 2432 710 3098 333 
z
" transform="scale(0.015625)"/>
     <path id="STZhongsong-5316" d="M 1523 2445 
Q 960 1683 237 1114 
L 154 1210 
Q 838 2010 1283 2880 
Q 1728 3750 2010 4890 
Q 2432 4698 2617 4570 
Q 2803 4442 2803 4390 
Q 2803 4326 2630 4301 
Q 2554 4288 2496 4205 
Q 2438 4122 2291 3779 
Q 2144 3437 1933 3072 
Q 2195 2982 2195 2931 
Q 2195 2880 2074 2797 
L 2074 -762 
Q 2074 -819 2013 -864 
Q 1952 -909 1766 -979 
Q 1581 -1050 1536 -1050 
Q 1491 -1050 1491 -986 
L 1504 -531 
Q 1523 -70 1523 518 
L 1523 2445 
z
M 4102 1619 
L 4102 38 
Q 4102 -122 4182 -170 
Q 4262 -218 4745 -218 
Q 5229 -218 5366 -141 
Q 5504 -64 5561 201 
Q 5619 467 5702 1267 
L 5837 1267 
Q 5830 1024 5830 838 
Q 5830 358 5881 182 
Q 5933 6 6054 -58 
Q 6176 -122 6176 -166 
Q 6176 -211 6089 -361 
Q 6003 -512 5907 -598 
Q 5811 -685 5705 -710 
Q 5600 -736 5229 -758 
Q 4858 -781 4454 -781 
Q 4051 -781 3856 -713 
Q 3661 -646 3584 -470 
Q 3507 -294 3507 38 
L 3507 1242 
Q 2957 928 2157 608 
L 2125 749 
Q 2899 1184 3507 1638 
L 3507 4006 
Q 3507 4525 3488 4845 
Q 4384 4570 4384 4461 
Q 4384 4410 4102 4282 
L 4102 2150 
Q 4768 2784 5434 3866 
Q 5664 3635 5824 3408 
Q 5984 3181 5984 3126 
Q 5984 3072 5939 3072 
Q 5894 3072 5856 3081 
Q 5818 3091 5773 3091 
Q 5728 3091 5638 3011 
Q 5549 2931 5357 2733 
Q 4691 2042 4102 1619 
z
" transform="scale(0.015625)"/>
    </defs>
    <use xlink:href="#STZhongsong-683c"/>
    <use xlink:href="#STZhongsong-7f51" transform="translate(99.999985 0)"/>
    <use xlink:href="#STZhongsong-4f01" transform="translate(199.999969 0)"/>
    <use xlink:href="#STZhongsong-4e1a" transform="translate(299.999954 0)"/>
    <use xlink:href="#STZhongsong-627f" transform="translate(399.999939 0)"/>
    <use xlink:href="#STZhongsong-8f7d" transform="translate(499.999924 0)"/>
    <use xlink:href="#STZhongsong-96c6" transform="translate(599.999908 0)"/>
    <use xlink:href="#STZhongsong-4e2d" transform="translate(699.999893 0)"/>
    <use xlink:href="#STZhongsong-5ea6" transform="translate(799.999878 0)"/>
    <use xlink:href="#STZhongsong-53d8" transform="translate(899.999863 0)"/>
    <use xlink:href="#STZhongsong-5316" transform="translate(999.999847 0)"/>
   </g>
  </g>
 </g>
 <defs>
  <clipPath id="p7f2dd5cdac">
   <rect x="66.470938" y="77.12925" width="782.8" height="157.237897"/>
  </clipPath>
  <clipPath id="pf1775c1b74">
   <rect x="66.470938" y="268.662147" width="782.8" height="157.237897"/>
  </clipPath>
  <clipPath id="paebc99799d">
   <rect x="66.470938" y="460.195044" width="782.8" height="157.237897"/>
  </clipPath>
 </defs>
</svg>
