<?xml version="1.0" encoding="utf-8" standalone="no"?>
<!DOCTYPE svg PUBLIC "-//W3C//DTD SVG 1.1//EN"
  "http://www.w3.org/Graphics/SVG/1.1/DTD/svg11.dtd">
<svg xmlns:xlink="http://www.w3.org/1999/xlink" width="856.55pt" height="453.982969pt" viewBox="0 0 856.55 453.982969" xmlns="http://www.w3.org/2000/svg" version="1.1">
 <metadata>
  <rdf:RDF xmlns:dc="http://purl.org/dc/elements/1.1/" xmlns:cc="http://creativecommons.org/ns#" xmlns:rdf="http://www.w3.org/1999/02/22-rdf-syntax-ns#">
   <cc:Work>
    <dc:type rdf:resource="http://purl.org/dc/dcmitype/StillImage"/>
    <dc:date>2026-06-06T01:21:44.288949</dc:date>
    <dc:format>image/svg+xml</dc:format>
    <dc:creator>
     <cc:Agent>
      <dc:title>Matplotlib v3.10.0, https://matplotlib.org/</dc:title>
     </cc:Agent>
    </dc:creator>
   </cc:Work>
  </rdf:RDF>
 </metadata>
 <defs>
  <style type="text/css">*{stroke-linejoin: round; stroke-linecap: butt}</style>
 </defs>
 <g id="figure_1">
  <g id="patch_1">
   <path d="M -0 453.982969 
L 856.55 453.982969 
L 856.55 0 
L -0 0 
z
" style="fill: #ffffff"/>
  </g>
  <g id="axes_1">
   <g id="patch_2">
    <path d="M 80.68 405.978906 
L 849.35 405.978906 
L 849.35 38.992656 
L 80.68 38.992656 
z
" style="fill: #ffffff"/>
   </g>
   <g id="matplotlib.axis_1">
    <g id="xtick_1">
     <g id="line2d_1">
      <defs>
       <path id="m1167550006" d="M 0 0 
L 0 3.5 
" style="stroke: #111111; stroke-width: 0.8"/>
      </defs>
      <g>
       <use xlink:href="#m1167550006" x="193.26298" y="405.978906" style="fill: #111111; stroke: #111111; stroke-width: 0.8"/>
      </g>
     </g>
     <g id="text_1">
      <!-- 2016 -->
      <g style="fill: #111111" transform="translate(174.66298 423.717969) scale(0.15 -0.15)">
       <defs>
        <path id="STZhongsong-32" d="M 723 2714 
L 422 2675 
Q 397 2835 397 2989 
Q 397 3616 832 4025 
Q 1267 4435 1978 4435 
Q 2630 4435 3043 4064 
Q 3456 3693 3456 3098 
Q 3456 2669 3286 2349 
Q 3117 2029 2611 1603 
Q 2106 1178 1037 467 
L 2662 467 
Q 2963 467 3062 544 
Q 3162 621 3200 838 
L 3232 1018 
L 3494 1018 
L 3283 -154 
L 3085 -154 
L 3053 0 
L 320 0 
L 320 262 
L 819 640 
Q 1901 1453 2377 1977 
Q 2854 2502 2854 3066 
Q 2854 3507 2569 3788 
Q 2285 4070 1837 4070 
Q 1325 4070 1017 3753 
Q 710 3437 710 2918 
Q 710 2822 723 2714 
z
" transform="scale(0.015625)"/>
        <path id="STZhongsong-30" d="M 326 2182 
Q 326 3251 774 3843 
Q 1222 4435 1997 4435 
Q 2752 4435 3197 3827 
Q 3642 3219 3642 2144 
Q 3642 1139 3178 531 
Q 2714 -77 1952 -77 
Q 1229 -77 777 524 
Q 326 1126 326 2182 
z
M 3040 2182 
Q 3040 3104 2758 3616 
Q 2477 4128 1978 4128 
Q 1478 4128 1200 3590 
Q 922 3053 922 2118 
Q 922 1229 1210 733 
Q 1498 237 1971 237 
Q 2470 237 2755 752 
Q 3040 1267 3040 2182 
z
" transform="scale(0.015625)"/>
        <path id="STZhongsong-31" d="M 2150 4358 
L 2387 4358 
L 2387 742 
Q 2387 422 2464 342 
Q 2541 262 2822 262 
L 3130 262 
L 3130 0 
L 1069 0 
L 1069 262 
L 1408 262 
Q 1670 262 1766 348 
Q 1862 435 1862 742 
L 1862 3718 
L 1069 3718 
L 1069 3987 
Q 1709 4070 2150 4358 
z
" transform="scale(0.015625)"/>
        <path id="STZhongsong-36" d="M 3238 4442 
L 3238 4154 
Q 2131 4141 1603 3686 
Q 1075 3232 1037 2227 
Q 1446 2893 2240 2893 
Q 2880 2893 3289 2486 
Q 3699 2080 3699 1440 
Q 3699 742 3257 332 
Q 2816 -77 2093 -77 
Q 1286 -77 848 444 
Q 410 966 410 1926 
Q 410 3046 1056 3744 
Q 1702 4442 2995 4442 
L 3238 4442 
z
M 3072 1414 
Q 3072 1933 2800 2246 
Q 2528 2560 2099 2560 
Q 1658 2560 1363 2224 
Q 1069 1888 1069 1402 
Q 1069 890 1350 550 
Q 1632 211 2074 211 
Q 2509 211 2790 544 
Q 3072 877 3072 1414 
z
" transform="scale(0.015625)"/>
       </defs>
       <use xlink:href="#STZhongsong-32"/>
       <use xlink:href="#STZhongsong-30" transform="translate(61.999985 0)"/>
       <use xlink:href="#STZhongsong-31" transform="translate(123.999969 0)"/>
       <use xlink:href="#STZhongsong-36" transform="translate(185.999954 0)"/>
      </g>
     </g>
    </g>
    <g id="xtick_2">
     <g id="line2d_2">
      <g>
       <use xlink:href="#m1167550006" x="348.549848" y="405.978906" style="fill: #111111; stroke: #111111; stroke-width: 0.8"/>
      </g>
     </g>
     <g id="text_2">
      <!-- 2018 -->
      <g style="fill: #111111" transform="translate(329.949848 423.717969) scale(0.15 -0.15)">
       <defs>
        <path id="STZhongsong-38" d="M 2477 2419 
Q 3021 2208 3315 1923 
Q 3610 1638 3610 1197 
Q 3610 659 3152 291 
Q 2694 -77 1971 -77 
Q 1274 -77 816 272 
Q 358 621 358 1120 
Q 358 1485 633 1779 
Q 909 2074 1440 2259 
Q 1011 2451 800 2691 
Q 589 2931 589 3315 
Q 589 3814 998 4124 
Q 1408 4435 2035 4435 
Q 2618 4435 2998 4134 
Q 3379 3834 3379 3424 
Q 3379 2790 2477 2419 
z
M 2189 2534 
Q 2451 2707 2662 2918 
Q 2874 3130 2874 3418 
Q 2874 3706 2621 3923 
Q 2368 4141 1971 4141 
Q 1594 4141 1331 3926 
Q 1069 3712 1069 3430 
Q 1069 3168 1270 2989 
Q 1472 2810 1824 2675 
L 2189 2534 
z
M 1747 2131 
Q 1325 1939 1088 1670 
Q 851 1402 851 1126 
Q 851 762 1177 490 
Q 1504 218 1984 218 
Q 2438 218 2774 483 
Q 3110 749 3110 1082 
Q 3110 1594 2253 1933 
L 1747 2131 
z
" transform="scale(0.015625)"/>
       </defs>
       <use xlink:href="#STZhongsong-32"/>
       <use xlink:href="#STZhongsong-30" transform="translate(61.999985 0)"/>
       <use xlink:href="#STZhongsong-31" transform="translate(123.999969 0)"/>
       <use xlink:href="#STZhongsong-38" transform="translate(185.999954 0)"/>
      </g>
     </g>
    </g>
    <g id="xtick_3">
     <g id="line2d_3">
      <g>
       <use xlink:href="#m1167550006" x="503.836717" y="405.978906" style="fill: #111111; stroke: #111111; stroke-width: 0.8"/>
      </g>
     </g>
     <g id="text_3">
      <!-- 2020 -->
      <g style="fill: #111111" transform="translate(485.236717 423.717969) scale(0.15 -0.15)">
       <use xlink:href="#STZhongsong-32"/>
       <use xlink:href="#STZhongsong-30" transform="translate(61.999985 0)"/>
       <use xlink:href="#STZhongsong-32" transform="translate(123.999969 0)"/>
       <use xlink:href="#STZhongsong-30" transform="translate(185.999954 0)"/>
      </g>
     </g>
    </g>
    <g id="xtick_4">
     <g id="line2d_4">
      <g>
       <use xlink:href="#m1167550006" x="659.123586" y="405.978906" style="fill: #111111; stroke: #111111; stroke-width: 0.8"/>
      </g>
     </g>
     <g id="text_4">
      <!-- 2022 -->
      <g style="fill: #111111" transform="translate(640.523586 423.717969) scale(0.15 -0.15)">
       <use xlink:href="#STZhongsong-32"/>
       <use xlink:href="#STZhongsong-30" transform="translate(61.999985 0)"/>
       <use xlink:href="#STZhongsong-32" transform="translate(123.999969 0)"/>
       <use xlink:href="#STZhongsong-32" transform="translate(185.999954 0)"/>
      </g>
     </g>
    </g>
    <g id="xtick_5">
     <g id="line2d_5">
      <g>
       <use xlink:href="#m1167550006" x="814.410455" y="405.978906" style="fill: #111111; stroke: #111111; stroke-width: 0.8"/>
      </g>
     </g>
     <g id="text_5">
      <!-- 2024 -->
      <g style="fill: #111111" transform="translate(795.810455 423.717969) scale(0.15 -0.15)">
       <defs>
        <path id="STZhongsong-34" d="M 3494 1242 
L 2906 1242 
L 2906 518 
Q 2906 275 3213 250 
L 3213 45 
L 1882 45 
L 1882 250 
Q 2054 262 2156 336 
Q 2259 410 2259 518 
L 2259 1242 
L 550 1242 
L 550 1658 
L 2483 4365 
L 2906 4365 
L 2906 1581 
L 3494 1581 
L 3494 1242 
z
M 2259 1581 
L 2259 3462 
L 902 1581 
L 2259 1581 
z
" transform="scale(0.015625)"/>
       </defs>
       <use xlink:href="#STZhongsong-32"/>
       <use xlink:href="#STZhongsong-30" transform="translate(61.999985 0)"/>
       <use xlink:href="#STZhongsong-32" transform="translate(123.999969 0)"/>
       <use xlink:href="#STZhongsong-34" transform="translate(185.999954 0)"/>
      </g>
     </g>
    </g>
    <g id="text_6">
     <!-- 年份 -->
     <g style="fill: #111111" transform="translate(448.015 443.382969) scale(0.17 -0.17)">
      <defs>
       <path id="STZhongsong-5e74" d="M 1939 3827 
L 4794 3827 
L 5082 4237 
Q 5133 4314 5171 4314 
Q 5210 4314 5328 4224 
Q 5446 4134 5612 3993 
Q 5779 3853 5840 3789 
Q 5901 3725 5901 3686 
Q 5901 3616 5811 3616 
L 3744 3616 
L 3744 2496 
L 4474 2496 
L 4736 2874 
Q 4787 2938 4822 2938 
Q 4858 2938 4970 2858 
Q 5082 2778 5232 2643 
Q 5382 2509 5414 2461 
Q 5446 2413 5446 2368 
Q 5446 2272 5350 2272 
L 3744 2272 
L 3744 1043 
L 5254 1043 
L 5542 1427 
Q 5587 1485 5654 1485 
Q 5722 1485 6013 1213 
Q 6304 941 6304 883 
Q 6304 826 6195 826 
L 3744 826 
Q 3744 19 3750 -294 
L 3763 -864 
Q 3763 -909 3731 -941 
Q 3699 -973 3475 -1056 
Q 3251 -1139 3203 -1139 
Q 3155 -1139 3155 -1037 
L 3168 -390 
Q 3174 -38 3174 826 
L 653 826 
Q 480 826 384 781 
L 269 1075 
Q 403 1043 589 1043 
L 1498 1043 
L 1498 2170 
Q 1498 2643 1485 2739 
Q 1856 2630 2138 2496 
L 3174 2496 
L 3174 3616 
L 1798 3616 
Q 1440 3046 1136 2713 
Q 832 2381 339 1984 
L 243 2086 
Q 1261 3174 1741 4909 
Q 2259 4704 2400 4611 
Q 2541 4518 2541 4457 
Q 2541 4397 2435 4384 
Q 2330 4371 2253 4288 
Q 2176 4205 1939 3827 
z
M 3174 2272 
L 2054 2272 
L 2054 1043 
L 3174 1043 
L 3174 2272 
z
" transform="scale(0.015625)"/>
       <path id="STZhongsong-4efd" d="M 1190 2470 
Q 736 1830 237 1389 
L 141 1472 
Q 1158 2701 1702 4838 
Q 1894 4768 2115 4672 
Q 2336 4576 2374 4544 
Q 2413 4512 2413 4477 
Q 2413 4442 2326 4419 
Q 2240 4397 2205 4345 
Q 2170 4294 2099 4115 
Q 1888 3578 1530 2982 
Q 1837 2912 1837 2842 
Q 1837 2803 1709 2720 
L 1709 -806 
Q 1709 -883 1670 -928 
Q 1632 -973 1453 -1049 
Q 1274 -1126 1219 -1126 
Q 1165 -1126 1165 -1056 
L 1178 -563 
Q 1190 -262 1190 70 
L 1190 2470 
z
M 6272 2355 
L 6259 2227 
Q 6170 2240 6099 2240 
Q 5786 2240 5658 1971 
Q 5638 1926 5587 1926 
Q 5408 1926 4813 2630 
Q 4218 3334 4102 4806 
Q 4742 4742 4742 4627 
Q 4742 4589 4672 4570 
Q 4467 4518 4467 4323 
Q 4467 4128 4636 3712 
Q 4806 3296 5209 2925 
Q 5613 2554 6272 2355 
z
M 3174 4506 
Q 3635 4346 3753 4285 
Q 3872 4224 3872 4182 
Q 3872 4141 3753 4105 
Q 3635 4070 3546 3834 
Q 3034 2477 1888 1421 
L 1798 1491 
Q 2765 2810 3174 4506 
z
M 3232 1920 
L 3072 1920 
Q 2906 1920 2803 1875 
L 2662 2157 
Q 2797 2125 2982 2125 
L 4461 2125 
L 4614 2330 
Q 4659 2381 4704 2381 
Q 4749 2381 4937 2246 
Q 5126 2112 5212 2041 
Q 5299 1971 5299 1920 
Q 5299 1869 5139 1760 
Q 5114 1011 5066 432 
Q 5018 -147 4966 -355 
Q 4915 -563 4796 -700 
Q 4678 -838 4451 -944 
Q 4224 -1050 4169 -1050 
Q 4115 -1050 4090 -966 
Q 4038 -774 3856 -640 
Q 3674 -506 3328 -378 
L 3373 -243 
Q 3910 -384 4076 -384 
Q 4243 -384 4307 -326 
Q 4371 -269 4432 -73 
Q 4493 122 4528 541 
Q 4563 960 4576 1920 
L 3782 1920 
Q 3738 730 3389 125 
Q 3040 -480 1946 -1094 
L 1869 -1011 
Q 2669 -358 2934 237 
Q 3200 832 3232 1920 
z
" transform="scale(0.015625)"/>
      </defs>
      <use xlink:href="#STZhongsong-5e74"/>
      <use xlink:href="#STZhongsong-4efd" transform="translate(99.999985 0)"/>
     </g>
    </g>
   </g>
   <g id="matplotlib.axis_2">
    <g id="ytick_1">
     <g id="line2d_6">
      <path d="M 80.68 385.434338 
L 849.35 385.434338 
" clip-path="url(#p3283d0d02d)" style="fill: none; stroke: #ececec; stroke-width: 0.9; stroke-linecap: square"/>
     </g>
     <g id="line2d_7">
      <defs>
       <path id="m2f41df76e8" d="M 0 0 
L -3.5 0 
" style="stroke: #111111; stroke-width: 0.8"/>
      </defs>
      <g>
       <use xlink:href="#m2f41df76e8" x="80.68" y="385.434338" style="fill: #111111; stroke: #111111; stroke-width: 0.8"/>
      </g>
     </g>
     <g id="text_7">
      <!-- 2000 -->
      <g style="fill: #111111" transform="translate(36.48 390.80387) scale(0.15 -0.15)">
       <use xlink:href="#STZhongsong-32"/>
       <use xlink:href="#STZhongsong-30" transform="translate(61.999985 0)"/>
       <use xlink:href="#STZhongsong-30" transform="translate(123.999969 0)"/>
       <use xlink:href="#STZhongsong-30" transform="translate(185.999954 0)"/>
      </g>
     </g>
    </g>
    <g id="ytick_2">
     <g id="line2d_8">
      <path d="M 80.68 328.199159 
L 849.35 328.199159 
" clip-path="url(#p3283d0d02d)" style="fill: none; stroke: #ececec; stroke-width: 0.9; stroke-linecap: square"/>
     </g>
     <g id="line2d_9">
      <g>
       <use xlink:href="#m2f41df76e8" x="80.68" y="328.199159" style="fill: #111111; stroke: #111111; stroke-width: 0.8"/>
      </g>
     </g>
     <g id="text_8">
      <!-- 4000 -->
      <g style="fill: #111111" transform="translate(36.48 333.56869) scale(0.15 -0.15)">
       <use xlink:href="#STZhongsong-34"/>
       <use xlink:href="#STZhongsong-30" transform="translate(61.999985 0)"/>
       <use xlink:href="#STZhongsong-30" transform="translate(123.999969 0)"/>
       <use xlink:href="#STZhongsong-30" transform="translate(185.999954 0)"/>
      </g>
     </g>
    </g>
    <g id="ytick_3">
     <g id="line2d_10">
      <path d="M 80.68 270.963979 
L 849.35 270.963979 
" clip-path="url(#p3283d0d02d)" style="fill: none; stroke: #ececec; stroke-width: 0.9; stroke-linecap: square"/>
     </g>
     <g id="line2d_11">
      <g>
       <use xlink:href="#m2f41df76e8" x="80.68" y="270.963979" style="fill: #111111; stroke: #111111; stroke-width: 0.8"/>
      </g>
     </g>
     <g id="text_9">
      <!-- 6000 -->
      <g style="fill: #111111" transform="translate(36.48 276.33351) scale(0.15 -0.15)">
       <use xlink:href="#STZhongsong-36"/>
       <use xlink:href="#STZhongsong-30" transform="translate(61.999985 0)"/>
       <use xlink:href="#STZhongsong-30" transform="translate(123.999969 0)"/>
       <use xlink:href="#STZhongsong-30" transform="translate(185.999954 0)"/>
      </g>
     </g>
    </g>
    <g id="ytick_4">
     <g id="line2d_12">
      <path d="M 80.68 213.728799 
L 849.35 213.728799 
" clip-path="url(#p3283d0d02d)" style="fill: none; stroke: #ececec; stroke-width: 0.9; stroke-linecap: square"/>
     </g>
     <g id="line2d_13">
      <g>
       <use xlink:href="#m2f41df76e8" x="80.68" y="213.728799" style="fill: #111111; stroke: #111111; stroke-width: 0.8"/>
      </g>
     </g>
     <g id="text_10">
      <!-- 8000 -->
      <g style="fill: #111111" transform="translate(36.48 219.09833) scale(0.15 -0.15)">
       <use xlink:href="#STZhongsong-38"/>
       <use xlink:href="#STZhongsong-30" transform="translate(61.999985 0)"/>
       <use xlink:href="#STZhongsong-30" transform="translate(123.999969 0)"/>
       <use xlink:href="#STZhongsong-30" transform="translate(185.999954 0)"/>
      </g>
     </g>
    </g>
    <g id="ytick_5">
     <g id="line2d_14">
      <path d="M 80.68 156.493619 
L 849.35 156.493619 
" clip-path="url(#p3283d0d02d)" style="fill: none; stroke: #ececec; stroke-width: 0.9; stroke-linecap: square"/>
     </g>
     <g id="line2d_15">
      <g>
       <use xlink:href="#m2f41df76e8" x="80.68" y="156.493619" style="fill: #111111; stroke: #111111; stroke-width: 0.8"/>
      </g>
     </g>
     <g id="text_11">
      <!-- 10000 -->
      <g style="fill: #111111" transform="translate(27.18 161.86315) scale(0.15 -0.15)">
       <use xlink:href="#STZhongsong-31"/>
       <use xlink:href="#STZhongsong-30" transform="translate(61.999985 0)"/>
       <use xlink:href="#STZhongsong-30" transform="translate(123.999969 0)"/>
       <use xlink:href="#STZhongsong-30" transform="translate(185.999954 0)"/>
       <use xlink:href="#STZhongsong-30" transform="translate(247.999939 0)"/>
      </g>
     </g>
    </g>
    <g id="ytick_6">
     <g id="line2d_16">
      <path d="M 80.68 99.258439 
L 849.35 99.258439 
" clip-path="url(#p3283d0d02d)" style="fill: none; stroke: #ececec; stroke-width: 0.9; stroke-linecap: square"/>
     </g>
     <g id="line2d_17">
      <g>
       <use xlink:href="#m2f41df76e8" x="80.68" y="99.258439" style="fill: #111111; stroke: #111111; stroke-width: 0.8"/>
      </g>
     </g>
     <g id="text_12">
      <!-- 12000 -->
      <g style="fill: #111111" transform="translate(27.18 104.62797) scale(0.15 -0.15)">
       <use xlink:href="#STZhongsong-31"/>
       <use xlink:href="#STZhongsong-32" transform="translate(61.999985 0)"/>
       <use xlink:href="#STZhongsong-30" transform="translate(123.999969 0)"/>
       <use xlink:href="#STZhongsong-30" transform="translate(185.999954 0)"/>
       <use xlink:href="#STZhongsong-30" transform="translate(247.999939 0)"/>
      </g>
     </g>
    </g>
    <g id="ytick_7">
     <g id="line2d_18">
      <path d="M 80.68 42.023259 
L 849.35 42.023259 
" clip-path="url(#p3283d0d02d)" style="fill: none; stroke: #ececec; stroke-width: 0.9; stroke-linecap: square"/>
     </g>
     <g id="line2d_19">
      <g>
       <use xlink:href="#m2f41df76e8" x="80.68" y="42.023259" style="fill: #111111; stroke: #111111; stroke-width: 0.8"/>
      </g>
     </g>
     <g id="text_13">
      <!-- 14000 -->
      <g style="fill: #111111" transform="translate(27.18 47.39279) scale(0.15 -0.15)">
       <use xlink:href="#STZhongsong-31"/>
       <use xlink:href="#STZhongsong-34" transform="translate(61.999985 0)"/>
       <use xlink:href="#STZhongsong-30" transform="translate(123.999969 0)"/>
       <use xlink:href="#STZhongsong-30" transform="translate(185.999954 0)"/>
       <use xlink:href="#STZhongsong-30" transform="translate(247.999939 0)"/>
      </g>
     </g>
    </g>
    <g id="text_14">
     <!-- 企业数量 -->
     <g style="fill: #111111" transform="translate(19.78 256.485781) rotate(-90) scale(0.17 -0.17)">
      <defs>
       <path id="STZhongsong-4f01" d="M 3232 4314 
Q 3174 4243 3130 4160 
Q 2726 3469 2377 3046 
Q 2029 2624 1542 2272 
Q 1056 1920 218 1459 
L 154 1562 
Q 1139 2291 1696 2979 
Q 2253 3667 2771 4832 
Q 3482 4576 3482 4506 
Q 3482 4467 3341 4410 
Q 4179 3034 6259 2554 
L 6246 2432 
Q 5946 2432 5786 2371 
Q 5626 2310 5472 2112 
Q 5427 2061 5389 2061 
Q 5318 2061 4774 2432 
Q 4230 2803 3852 3251 
Q 3475 3699 3232 4314 
z
M 3558 1414 
L 4179 1414 
L 4429 1754 
Q 4486 1830 4557 1830 
Q 4614 1830 4761 1721 
Q 4909 1613 5056 1472 
Q 5203 1331 5203 1286 
Q 5203 1216 5062 1216 
L 3558 1216 
L 3558 -461 
L 4870 -461 
L 5171 -45 
Q 5235 45 5280 45 
Q 5344 45 5696 -240 
Q 6048 -525 6048 -598 
Q 6048 -672 5933 -672 
L 723 -672 
Q 550 -672 454 -717 
L 339 -429 
Q 474 -461 659 -461 
L 1466 -461 
L 1466 1370 
Q 1466 1690 1453 1939 
Q 1971 1805 2076 1763 
Q 2182 1722 2182 1677 
Q 2182 1632 2016 1549 
L 2016 -461 
L 3034 -461 
L 3034 2413 
Q 3034 2733 3021 2982 
Q 3360 2899 3568 2816 
Q 3776 2733 3776 2682 
Q 3776 2611 3558 2502 
L 3558 1414 
z
" transform="scale(0.015625)"/>
       <path id="STZhongsong-4e1a" d="M 3552 -422 
L 3552 4154 
Q 3552 4646 3539 4755 
Q 3821 4698 4096 4608 
Q 4371 4518 4371 4448 
Q 4371 4378 4096 4243 
L 4096 768 
Q 4659 1626 5158 3341 
Q 5747 3053 5843 2989 
Q 5939 2925 5939 2873 
Q 5939 2822 5818 2810 
Q 5766 2803 5731 2771 
Q 5696 2739 5619 2618 
Q 4813 1210 4096 442 
L 4096 -422 
L 5056 -422 
L 5370 -26 
Q 5440 58 5485 58 
Q 5530 58 5616 -16 
Q 5702 -90 5862 -240 
Q 6022 -390 6092 -476 
Q 6163 -563 6163 -608 
Q 6163 -653 6048 -653 
L 640 -653 
Q 499 -653 416 -685 
L 282 -390 
Q 384 -422 538 -422 
L 2278 -422 
L 2278 4115 
Q 2278 4608 2266 4717 
Q 2886 4576 3001 4531 
Q 3117 4486 3117 4422 
Q 3117 4358 2822 4256 
L 2822 -422 
L 3552 -422 
z
M 787 3181 
Q 1357 2458 1645 2000 
Q 1933 1542 1933 1273 
Q 1933 1005 1757 758 
Q 1581 512 1434 512 
Q 1363 512 1340 557 
Q 1318 602 1318 781 
Q 1318 1754 698 3104 
L 787 3181 
z
" transform="scale(0.015625)"/>
       <path id="STZhongsong-6570" d="M 2394 3334 
L 2938 3334 
L 3136 3616 
Q 3181 3680 3245 3680 
Q 3309 3680 3520 3462 
Q 3731 3245 3731 3193 
Q 3731 3142 3610 3142 
L 2394 3142 
L 2394 3027 
Q 2784 2938 3069 2819 
Q 3354 2701 3354 2515 
Q 3354 2381 3296 2227 
Q 3238 2074 3171 2074 
Q 3104 2074 3069 2109 
Q 3034 2144 2963 2259 
Q 2893 2374 2720 2556 
Q 2547 2739 2394 2854 
Q 2406 2381 2406 2259 
Q 2406 2138 2393 2099 
Q 2381 2061 2217 2006 
Q 2054 1952 1971 1933 
Q 2291 1811 2291 1722 
Q 2291 1670 2227 1660 
Q 2163 1651 2118 1609 
Q 2074 1568 1990 1434 
L 2637 1434 
L 2803 1619 
Q 2854 1677 2892 1677 
Q 2931 1677 3190 1481 
Q 3450 1286 3450 1228 
Q 3450 1171 3338 1148 
Q 3226 1126 3168 1088 
Q 3110 1050 3053 941 
Q 2848 563 2637 307 
Q 3040 205 3133 38 
Q 3226 -128 3226 -262 
Q 3226 -397 3187 -467 
Q 3149 -538 3101 -538 
Q 3053 -538 2816 -378 
Q 2579 -218 2278 -51 
Q 1664 -589 384 -992 
L 333 -877 
Q 1338 -371 1875 141 
Q 1440 326 845 474 
Q 1184 954 1331 1222 
L 691 1222 
Q 518 1222 422 1190 
L 307 1453 
Q 410 1434 627 1434 
L 1440 1434 
Q 1626 1824 1690 2035 
Q 1818 1997 1869 1978 
Q 1888 2515 1888 2874 
Q 1421 2125 282 1613 
L 243 1715 
Q 1075 2330 1549 3142 
L 589 3142 
Q 467 3142 390 3110 
L 301 3366 
Q 416 3334 550 3334 
L 1888 3334 
L 1888 4147 
Q 1888 4698 1875 4877 
Q 2592 4723 2592 4653 
Q 2592 4608 2394 4499 
L 2394 3334 
z
M 1856 1222 
L 1427 570 
Q 1914 480 2138 429 
Q 2413 762 2630 1222 
L 1856 1222 
z
M 4326 3270 
L 5222 3270 
L 5485 3590 
Q 5549 3661 5609 3661 
Q 5670 3661 5939 3421 
Q 6208 3181 6208 3117 
Q 6208 3072 6054 3072 
L 5050 3072 
Q 5638 2925 5638 2810 
Q 5638 2771 5542 2742 
Q 5446 2714 5404 2643 
Q 5363 2573 5338 2438 
Q 5088 1069 4749 518 
Q 5261 -186 6304 -646 
L 6246 -774 
Q 6080 -730 5933 -730 
Q 5658 -730 5446 -902 
Q 5389 -947 5363 -947 
Q 5299 -947 4934 -534 
Q 4570 -122 4448 102 
Q 4115 -301 3657 -579 
Q 3200 -858 2470 -1139 
L 2413 -1005 
Q 3642 -307 4211 544 
Q 3942 1152 3878 2342 
Q 3654 1946 3322 1491 
L 3213 1555 
Q 3949 2963 4109 4877 
Q 4333 4832 4563 4761 
Q 4794 4691 4858 4649 
Q 4922 4608 4922 4563 
Q 4922 4518 4813 4492 
Q 4704 4467 4653 4384 
Q 4602 4301 4538 3974 
Q 4474 3648 4326 3270 
z
M 4870 3072 
L 4250 3072 
L 4064 2682 
Q 4141 1594 4454 979 
Q 4723 1619 4870 3072 
z
M 3104 4602 
Q 3264 4525 3453 4422 
Q 3642 4320 3670 4288 
Q 3699 4256 3699 4221 
Q 3699 4186 3673 4170 
Q 3648 4154 3539 4154 
Q 3430 4154 3315 4038 
Q 2957 3680 2528 3392 
L 2464 3488 
Q 2906 4102 3104 4602 
z
M 653 4512 
Q 1171 4326 1353 4201 
Q 1536 4077 1536 3901 
Q 1536 3725 1453 3590 
Q 1370 3456 1286 3456 
Q 1203 3456 1164 3494 
Q 1126 3533 1084 3673 
Q 1043 3814 899 4038 
Q 755 4262 589 4429 
L 653 4512 
z
" transform="scale(0.015625)"/>
       <path id="STZhongsong-91cf" d="M 2054 4480 
L 4410 4480 
L 4576 4691 
Q 4608 4730 4640 4730 
Q 4691 4730 4969 4582 
Q 5248 4435 5248 4368 
Q 5248 4301 5024 4198 
L 5024 3738 
Q 5024 3552 5037 3341 
L 5043 3142 
Q 5043 3098 5030 3075 
Q 5018 3053 4922 2992 
Q 4826 2931 4685 2876 
Q 4544 2822 4509 2822 
Q 4474 2822 4474 2880 
L 4474 3046 
L 2016 3046 
Q 2029 2989 2006 2960 
Q 1984 2931 1897 2886 
Q 1811 2842 1660 2797 
Q 1510 2752 1475 2752 
Q 1440 2752 1446 2822 
Q 1478 3130 1478 3456 
L 1478 4198 
Q 1478 4467 1459 4742 
Q 1830 4608 2054 4480 
z
M 4474 3853 
L 4474 4294 
L 2016 4294 
L 2016 3853 
L 4474 3853 
z
M 4474 3213 
L 4474 3674 
L 2016 3674 
L 2016 3213 
L 4474 3213 
z
M 5171 2675 
L 5395 3040 
Q 5434 3110 5491 3110 
Q 5549 3110 5690 2989 
L 5984 2746 
Q 6138 2618 6138 2560 
Q 6138 2502 5990 2502 
L 640 2502 
Q 467 2502 371 2458 
L 256 2707 
Q 390 2675 576 2675 
L 5171 2675 
z
M 3482 672 
L 3482 166 
L 4666 166 
L 4864 416 
Q 4902 474 4950 474 
Q 4998 474 5251 285 
Q 5504 96 5504 38 
Q 5504 -19 5286 -19 
L 3482 -19 
L 3482 -550 
L 5203 -550 
L 5434 -230 
Q 5485 -160 5542 -160 
Q 5600 -160 5865 -390 
Q 6131 -621 6131 -691 
Q 6131 -736 5965 -736 
L 582 -736 
Q 410 -736 314 -781 
L 198 -518 
Q 333 -550 518 -550 
L 2931 -550 
L 2931 -19 
L 1274 -19 
Q 1101 -19 1005 -64 
L 877 198 
Q 1011 166 1197 166 
L 2931 166 
L 2931 672 
L 1843 672 
Q 1843 589 1824 569 
Q 1805 550 1725 505 
Q 1645 461 1481 413 
Q 1318 365 1296 365 
Q 1274 365 1280 422 
Q 1312 717 1312 1050 
L 1312 1747 
Q 1312 2074 1293 2355 
Q 1715 2253 1926 2150 
L 4544 2150 
L 4685 2362 
Q 4717 2413 4765 2413 
Q 4813 2413 4944 2333 
Q 5075 2253 5209 2157 
Q 5344 2061 5344 2029 
Q 5344 1971 5126 1850 
L 5126 1363 
Q 5126 1056 5133 954 
L 5139 762 
Q 5139 704 5091 669 
Q 5043 634 4880 592 
Q 4717 550 4627 550 
Q 4576 550 4576 627 
L 4576 672 
L 3482 672 
z
M 2931 1510 
L 2931 1978 
L 1843 1978 
L 1843 1510 
L 2931 1510 
z
M 3482 1978 
L 3482 1510 
L 4576 1510 
L 4576 1978 
L 3482 1978 
z
M 3482 1312 
L 3482 858 
L 4576 858 
L 4576 1312 
L 3482 1312 
z
M 2931 858 
L 2931 1312 
L 1843 1312 
L 1843 858 
L 2931 858 
z
" transform="scale(0.015625)"/>
      </defs>
      <use xlink:href="#STZhongsong-4f01"/>
      <use xlink:href="#STZhongsong-4e1a" transform="translate(99.999985 0)"/>
      <use xlink:href="#STZhongsong-6570" transform="translate(199.999969 0)"/>
      <use xlink:href="#STZhongsong-91cf" transform="translate(299.999954 0)"/>
     </g>
    </g>
   </g>
   <g id="line2d_20">
    <path d="M 115.619545 389.297713 
L 193.26298 309.798048 
L 270.906414 199.019357 
L 348.549848 114.168203 
L 426.193283 103.407989 
L 503.836717 117.316138 
L 581.480152 121.036425 
L 659.123586 97.11212 
L 736.76702 72.472375 
L 814.410455 55.673849 
" clip-path="url(#p3283d0d02d)" style="fill: none; stroke: #4c78a8; stroke-width: 3.1; stroke-linecap: square"/>
    <defs>
     <path id="m3a3b2cedc8" d="M 0 4.3 
C 1.140373 4.3 2.234193 3.846925 3.040559 3.040559 
C 3.846925 2.234193 4.3 1.140373 4.3 0 
C 4.3 -1.140373 3.846925 -2.234193 3.040559 -3.040559 
C 2.234193 -3.846925 1.140373 -4.3 0 -4.3 
C -1.140373 -4.3 -2.234193 -3.846925 -3.040559 -3.040559 
C -3.846925 -2.234193 -4.3 -1.140373 -4.3 0 
C -4.3 1.140373 -3.846925 2.234193 -3.040559 3.040559 
C -2.234193 3.846925 -1.140373 4.3 0 4.3 
z
" style="stroke: #4c78a8"/>
    </defs>
    <g clip-path="url(#p3283d0d02d)">
     <use xlink:href="#m3a3b2cedc8" x="115.619545" y="389.297713" style="fill: #4c78a8; stroke: #4c78a8"/>
     <use xlink:href="#m3a3b2cedc8" x="193.26298" y="309.798048" style="fill: #4c78a8; stroke: #4c78a8"/>
     <use xlink:href="#m3a3b2cedc8" x="270.906414" y="199.019357" style="fill: #4c78a8; stroke: #4c78a8"/>
     <use xlink:href="#m3a3b2cedc8" x="348.549848" y="114.168203" style="fill: #4c78a8; stroke: #4c78a8"/>
     <use xlink:href="#m3a3b2cedc8" x="426.193283" y="103.407989" style="fill: #4c78a8; stroke: #4c78a8"/>
     <use xlink:href="#m3a3b2cedc8" x="503.836717" y="117.316138" style="fill: #4c78a8; stroke: #4c78a8"/>
     <use xlink:href="#m3a3b2cedc8" x="581.480152" y="121.036425" style="fill: #4c78a8; stroke: #4c78a8"/>
     <use xlink:href="#m3a3b2cedc8" x="659.123586" y="97.11212" style="fill: #4c78a8; stroke: #4c78a8"/>
     <use xlink:href="#m3a3b2cedc8" x="736.76702" y="72.472375" style="fill: #4c78a8; stroke: #4c78a8"/>
     <use xlink:href="#m3a3b2cedc8" x="814.410455" y="55.673849" style="fill: #4c78a8; stroke: #4c78a8"/>
    </g>
   </g>
   <g id="line2d_21">
    <path d="M 115.619545 389.297713 
L 193.26298 309.798048 
L 270.906414 199.019357 
L 348.549848 114.168203 
L 426.193283 103.407989 
L 503.836717 117.316138 
L 581.480152 121.036425 
L 659.123586 97.11212 
L 736.76702 72.472375 
L 814.410455 55.673849 
" clip-path="url(#p3283d0d02d)" style="fill: none; stroke-dasharray: 11.47,4.96; stroke-dashoffset: 0; stroke: #e15759; stroke-width: 3.1"/>
    <defs>
     <path id="m783c8969f2" d="M -4.3 4.3 
L 4.3 4.3 
L 4.3 -4.3 
L -4.3 -4.3 
z
" style="stroke: #e15759; stroke-linejoin: miter"/>
    </defs>
    <g clip-path="url(#p3283d0d02d)">
     <use xlink:href="#m783c8969f2" x="115.619545" y="389.297713" style="fill: #e15759; stroke: #e15759; stroke-linejoin: miter"/>
     <use xlink:href="#m783c8969f2" x="193.26298" y="309.798048" style="fill: #e15759; stroke: #e15759; stroke-linejoin: miter"/>
     <use xlink:href="#m783c8969f2" x="270.906414" y="199.019357" style="fill: #e15759; stroke: #e15759; stroke-linejoin: miter"/>
     <use xlink:href="#m783c8969f2" x="348.549848" y="114.168203" style="fill: #e15759; stroke: #e15759; stroke-linejoin: miter"/>
     <use xlink:href="#m783c8969f2" x="426.193283" y="103.407989" style="fill: #e15759; stroke: #e15759; stroke-linejoin: miter"/>
     <use xlink:href="#m783c8969f2" x="503.836717" y="117.316138" style="fill: #e15759; stroke: #e15759; stroke-linejoin: miter"/>
     <use xlink:href="#m783c8969f2" x="581.480152" y="121.036425" style="fill: #e15759; stroke: #e15759; stroke-linejoin: miter"/>
     <use xlink:href="#m783c8969f2" x="659.123586" y="97.11212" style="fill: #e15759; stroke: #e15759; stroke-linejoin: miter"/>
     <use xlink:href="#m783c8969f2" x="736.76702" y="72.472375" style="fill: #e15759; stroke: #e15759; stroke-linejoin: miter"/>
     <use xlink:href="#m783c8969f2" x="814.410455" y="55.673849" style="fill: #e15759; stroke: #e15759; stroke-linejoin: miter"/>
    </g>
   </g>
   <g id="patch_3">
    <path d="M 80.68 405.978906 
L 80.68 38.992656 
" style="fill: none; stroke: #111111; stroke-width: 1.35; stroke-linejoin: miter; stroke-linecap: square"/>
   </g>
   <g id="patch_4">
    <path d="M 80.68 405.978906 
L 849.35 405.978906 
" style="fill: none; stroke: #111111; stroke-width: 1.35; stroke-linejoin: miter; stroke-linecap: square"/>
   </g>
   <g id="text_15">
    <!-- 最大差值：0 -->
    <g style="fill: #111111" transform="translate(96.0534 83.031006) scale(0.15 -0.15)">
     <defs>
      <path id="STZhongsong-6700" d="M 1952 4512 
L 4224 4512 
L 4422 4749 
Q 4461 4800 4505 4800 
Q 4550 4800 4816 4617 
Q 5082 4435 5082 4377 
Q 5082 4320 4877 4218 
L 4877 3507 
Q 4877 3322 4883 3110 
L 4896 2912 
Q 4896 2867 4877 2838 
Q 4858 2810 4768 2758 
Q 4678 2707 4547 2668 
Q 4416 2630 4358 2630 
Q 4301 2630 4301 2682 
L 4301 2899 
L 1901 2899 
L 1901 2816 
Q 1901 2765 1894 2739 
Q 1888 2714 1779 2656 
Q 1670 2598 1536 2556 
Q 1402 2515 1373 2515 
Q 1344 2515 1350 2586 
Q 1382 2893 1382 3219 
L 1382 4243 
Q 1382 4512 1363 4787 
Q 1779 4627 1952 4512 
z
M 4301 3808 
L 4301 4301 
L 1901 4301 
L 1901 3808 
L 4301 3808 
z
M 4301 3098 
L 4301 3622 
L 1901 3622 
L 1901 3098 
L 4301 3098 
z
M 1062 2272 
L 595 2272 
Q 422 2272 326 2227 
L 211 2502 
Q 346 2470 531 2470 
L 5024 2470 
L 5286 2822 
Q 5350 2912 5408 2912 
Q 5466 2912 5776 2669 
Q 6086 2426 6086 2349 
Q 6086 2272 5939 2272 
L 3008 2272 
L 3008 499 
L 3635 608 
L 3667 493 
L 3008 294 
L 3008 -32 
Q 3008 -243 3021 -480 
L 3027 -698 
Q 3027 -736 3011 -755 
Q 2995 -774 2886 -844 
Q 2778 -915 2666 -960 
Q 2554 -1005 2515 -1005 
Q 2477 -1005 2477 -902 
L 2483 -653 
Q 2496 -397 2496 -77 
L 2496 147 
L 1766 -70 
Q 781 -365 685 -422 
Q 589 -480 563 -480 
Q 506 -480 262 45 
Q 838 128 1062 166 
L 1062 2272 
z
M 2496 2272 
L 1555 2272 
L 1555 1773 
L 2496 1773 
L 2496 2272 
z
M 1555 1574 
L 1555 1082 
L 2496 1082 
L 2496 1574 
L 1555 1574 
z
M 1555 896 
L 1555 243 
L 2496 410 
L 2496 896 
L 1555 896 
z
M 4378 -70 
Q 3987 -467 3123 -960 
L 3046 -838 
Q 3782 -256 4128 205 
Q 3731 698 3475 1574 
Q 3270 1562 3213 1530 
L 3098 1824 
Q 3232 1792 3418 1792 
L 4698 1792 
L 4864 1997 
Q 4909 2048 4944 2048 
Q 4979 2048 5164 1936 
Q 5350 1824 5446 1757 
Q 5542 1690 5542 1651 
Q 5542 1613 5430 1558 
Q 5318 1504 5276 1459 
Q 5235 1414 5190 1274 
Q 4979 634 4672 250 
Q 5203 -96 6221 -307 
L 6202 -422 
Q 5888 -454 5766 -512 
Q 5645 -570 5530 -723 
Q 5485 -781 5446 -781 
Q 5382 -781 5001 -547 
Q 4621 -314 4378 -70 
z
M 4339 512 
Q 4595 960 4704 1574 
L 3667 1574 
Q 3936 890 4339 512 
z
" transform="scale(0.015625)"/>
      <path id="STZhongsong-5927" d="M 3296 2899 
L 4973 2899 
L 5318 3302 
Q 5382 3379 5427 3379 
Q 5498 3379 5802 3078 
Q 6106 2778 6106 2720 
Q 6106 2675 5952 2675 
L 3610 2675 
Q 3898 1491 4512 755 
Q 5126 19 6202 -448 
L 6176 -563 
Q 6054 -550 5946 -550 
Q 5517 -550 5267 -794 
Q 5216 -838 5190 -838 
Q 5107 -838 4614 -275 
Q 4122 288 3837 976 
Q 3552 1664 3437 2675 
L 3277 2675 
Q 3200 1427 2710 697 
Q 2221 -32 314 -1005 
L 243 -902 
Q 1709 38 2169 787 
Q 2630 1536 2701 2675 
L 787 2675 
Q 646 2675 518 2630 
L 403 2931 
Q 506 2899 723 2899 
L 2714 2899 
Q 2733 3219 2733 3670 
Q 2733 4122 2701 4902 
Q 3027 4832 3292 4758 
Q 3558 4685 3590 4662 
Q 3622 4640 3622 4608 
Q 3622 4576 3513 4512 
Q 3405 4448 3369 4326 
Q 3334 4205 3321 3686 
Q 3309 3168 3296 2899 
z
" transform="scale(0.015625)"/>
      <path id="STZhongsong-5dee" d="M 3571 3661 
Q 4006 4371 4211 4941 
Q 4416 4858 4659 4730 
Q 4902 4602 4924 4570 
Q 4947 4538 4947 4512 
Q 4947 4442 4793 4416 
Q 4640 4390 4464 4259 
Q 4288 4128 3866 3661 
L 4909 3661 
L 5139 3955 
Q 5210 4058 5290 4058 
Q 5370 4058 5491 3942 
L 5760 3699 
Q 5901 3571 5901 3510 
Q 5901 3450 5702 3450 
L 3398 3450 
Q 3315 3066 3238 2784 
L 4448 2784 
L 4672 3078 
Q 4749 3174 4803 3174 
Q 4858 3174 5114 2950 
Q 5370 2726 5370 2656 
Q 5370 2586 5235 2586 
L 3181 2586 
Q 3091 2285 2925 1901 
L 5062 1901 
L 5370 2278 
Q 5434 2355 5494 2355 
Q 5555 2355 5840 2086 
Q 6125 1818 6125 1754 
Q 6125 1690 5997 1690 
L 2829 1690 
Q 2650 1325 2374 947 
L 4448 947 
L 4666 1267 
Q 4730 1363 4794 1363 
Q 4858 1363 5152 1113 
Q 5446 864 5446 793 
Q 5446 723 5299 723 
L 3872 723 
L 3872 -486 
L 4979 -486 
L 5216 -128 
Q 5293 -19 5360 -19 
Q 5427 -19 5724 -291 
Q 6022 -563 6022 -636 
Q 6022 -710 5882 -710 
L 1517 -710 
Q 1344 -710 1248 -755 
L 1133 -454 
Q 1267 -486 1453 -486 
L 3309 -486 
L 3309 723 
L 2547 723 
Q 2374 723 2278 678 
L 2240 781 
Q 1882 339 1453 9 
Q 1024 -320 288 -736 
L 211 -621 
Q 1062 0 1513 512 
Q 1965 1024 2253 1690 
L 602 1690 
Q 429 1690 333 1645 
L 218 1933 
Q 352 1901 538 1901 
L 2342 1901 
Q 2483 2253 2566 2586 
L 1222 2586 
Q 1050 2586 954 2541 
L 838 2816 
Q 973 2784 1158 2784 
L 2618 2784 
Q 2701 3078 2758 3450 
L 902 3450 
Q 730 3450 634 3405 
L 518 3693 
Q 653 3661 838 3661 
L 3571 3661 
z
M 1734 4883 
Q 2259 4736 2521 4569 
Q 2784 4403 2784 4179 
Q 2784 4026 2678 3856 
Q 2573 3686 2445 3686 
Q 2381 3686 2352 3715 
Q 2323 3744 2220 3968 
Q 2118 4192 1993 4377 
Q 1869 4563 1677 4787 
L 1734 4883 
z
" transform="scale(0.015625)"/>
      <path id="STZhongsong-503c" d="M 1037 2362 
Q 608 1741 160 1293 
L 70 1376 
Q 1088 2848 1600 4845 
Q 2323 4557 2323 4480 
Q 2323 4448 2202 4397 
Q 2125 4365 2057 4253 
Q 1990 4141 1785 3689 
Q 1581 3238 1414 2963 
Q 1702 2906 1702 2845 
Q 1702 2784 1581 2694 
L 1581 -787 
Q 1581 -851 1533 -889 
Q 1485 -928 1296 -992 
Q 1107 -1056 1043 -1056 
Q 1011 -1056 1011 -986 
L 1030 -384 
Q 1037 -102 1037 147 
L 1037 2362 
z
M 3059 3040 
L 3373 3040 
L 3456 3782 
L 2413 3782 
Q 2266 3782 2195 3744 
L 2093 4013 
Q 2214 3981 2362 3981 
L 3475 3981 
L 3507 4256 
Q 3533 4634 3520 4838 
Q 4000 4717 4150 4662 
Q 4301 4608 4301 4560 
Q 4301 4512 4090 4397 
L 4026 3981 
L 4992 3981 
L 5286 4397 
Q 5325 4454 5357 4454 
Q 5434 4454 5728 4185 
Q 6022 3917 6022 3849 
Q 6022 3782 5888 3782 
L 3994 3782 
L 3878 3040 
L 4506 3040 
L 4659 3290 
Q 4691 3341 4736 3341 
Q 4781 3341 4989 3209 
Q 5197 3078 5270 3030 
Q 5344 2982 5344 2924 
Q 5344 2867 5107 2746 
L 5107 -454 
L 5248 -454 
L 5523 -77 
Q 5587 13 5657 13 
Q 5728 13 5955 -252 
Q 6182 -518 6182 -585 
Q 6182 -653 6054 -653 
L 2061 -653 
Q 1914 -653 1843 -691 
L 1741 -422 
Q 1862 -454 2010 -454 
L 2426 -454 
L 2426 2733 
Q 2426 2995 2406 3277 
Q 2835 3142 3059 3040 
z
M 4538 2208 
L 4538 2848 
L 2963 2848 
L 2963 2208 
L 4538 2208 
z
M 4538 1363 
L 4538 1978 
L 2963 1978 
L 2963 1363 
L 4538 1363 
z
M 4538 525 
L 4538 1165 
L 2963 1165 
L 2963 525 
L 4538 525 
z
M 4538 -454 
L 4538 326 
L 2963 326 
L 2963 -454 
L 4538 -454 
z
" transform="scale(0.015625)"/>
      <path id="STZhongsong-ff1a" d="M 1587 2662 
Q 1754 2662 1875 2540 
Q 1997 2419 1997 2252 
Q 1997 2086 1875 1964 
Q 1754 1843 1587 1843 
Q 1421 1843 1299 1964 
Q 1178 2086 1178 2252 
Q 1178 2419 1299 2540 
Q 1421 2662 1587 2662 
z
M 1587 736 
Q 1754 736 1875 614 
Q 1997 493 1997 326 
Q 1997 160 1875 38 
Q 1754 -83 1587 -83 
Q 1421 -83 1299 38 
Q 1178 160 1178 326 
Q 1178 493 1299 614 
Q 1421 736 1587 736 
z
" transform="scale(0.015625)"/>
     </defs>
     <use xlink:href="#STZhongsong-6700"/>
     <use xlink:href="#STZhongsong-5927" transform="translate(99.999985 0)"/>
     <use xlink:href="#STZhongsong-5dee" transform="translate(199.999969 0)"/>
     <use xlink:href="#STZhongsong-503c" transform="translate(299.999954 0)"/>
     <use xlink:href="#STZhongsong-ff1a" transform="translate(399.999939 0)"/>
     <use xlink:href="#STZhongsong-30" transform="translate(499.999924 0)"/>
    </g>
   </g>
   <g id="text_16">
    <!-- 点位表与格网面板年度数量一致性 -->
    <g style="fill: #111111" transform="translate(307.515 22.992656) scale(0.21 -0.21)">
     <defs>
      <path id="STZhongsong-70b9" d="M 2835 2682 
L 2835 4211 
Q 2835 4704 2822 4813 
Q 3091 4755 3331 4684 
Q 3571 4614 3616 4588 
Q 3661 4563 3661 4531 
Q 3661 4461 3424 4339 
L 3424 3616 
L 4902 3616 
L 5133 3949 
Q 5210 4058 5261 4058 
Q 5312 4058 5606 3792 
Q 5901 3526 5901 3456 
Q 5901 3418 5786 3418 
L 3424 3418 
L 3424 2682 
L 4416 2682 
L 4563 2893 
Q 4602 2938 4659 2938 
Q 4717 2938 5024 2752 
Q 5331 2566 5331 2508 
Q 5331 2451 5056 2336 
L 5056 1299 
Q 5056 1165 5062 1069 
L 5075 909 
Q 5075 870 5046 844 
Q 5018 819 4800 755 
Q 4582 691 4512 691 
Q 4474 691 4474 755 
L 4474 1050 
L 1952 1050 
L 1952 858 
Q 1952 800 1939 781 
Q 1926 762 1804 710 
Q 1683 659 1548 627 
Q 1414 595 1392 595 
Q 1370 595 1370 646 
L 1376 870 
Q 1382 973 1382 1088 
L 1382 2419 
Q 1382 2688 1363 2963 
Q 1766 2842 2035 2682 
L 2835 2682 
z
M 4474 1267 
L 4474 2483 
L 1952 2483 
L 1952 1267 
L 4474 1267 
z
M 3443 704 
Q 4282 179 4282 -262 
Q 4282 -429 4173 -627 
Q 4064 -826 3853 -826 
Q 3757 -826 3718 -518 
Q 3648 26 3341 621 
L 3443 704 
z
M 2234 640 
Q 2586 307 2758 83 
Q 2931 -141 2931 -320 
Q 2931 -499 2803 -681 
Q 2675 -864 2451 -864 
Q 2394 -864 2374 -806 
Q 2355 -749 2345 -438 
Q 2336 -128 2281 93 
Q 2227 314 2112 563 
L 2234 640 
z
M 4678 608 
Q 5382 224 5625 3 
Q 5869 -218 5869 -438 
Q 5869 -659 5773 -832 
Q 5677 -1005 5517 -1005 
Q 5434 -1005 5386 -950 
Q 5338 -896 5235 -566 
Q 5133 -237 4979 12 
Q 4826 262 4602 480 
L 4678 608 
z
M 1363 557 
Q 1402 -416 1149 -681 
Q 896 -947 653 -947 
Q 506 -947 413 -864 
Q 320 -781 320 -678 
Q 320 -582 563 -403 
Q 1069 -26 1216 608 
L 1363 557 
z
" transform="scale(0.015625)"/>
      <path id="STZhongsong-4f4d" d="M 3405 4954 
Q 3930 4742 4198 4531 
Q 4467 4320 4467 4105 
Q 4467 3891 4342 3753 
Q 4218 3616 4122 3616 
Q 4077 3616 4048 3657 
Q 4019 3699 3980 3849 
Q 3942 4000 3744 4320 
Q 3546 4640 3328 4877 
L 3405 4954 
z
M 1248 2611 
Q 768 1946 237 1434 
L 166 1523 
Q 1267 2938 1818 4890 
Q 2554 4480 2554 4378 
Q 2554 4326 2419 4307 
Q 2323 4294 2243 4188 
Q 2163 4083 1971 3744 
Q 1779 3405 1581 3104 
Q 1965 3002 1965 2944 
Q 1965 2886 1792 2810 
L 1792 -698 
Q 1792 -762 1734 -806 
Q 1677 -851 1494 -924 
Q 1312 -998 1248 -998 
Q 1216 -998 1216 -934 
L 1229 -525 
Q 1248 -64 1248 224 
L 1248 2611 
z
M 5120 3456 
L 5389 3898 
Q 5427 3962 5466 3962 
Q 5530 3962 5840 3677 
Q 6150 3392 6150 3322 
Q 6150 3277 5984 3277 
L 2579 3277 
Q 2406 3277 2310 3232 
L 2195 3488 
Q 2330 3456 2515 3456 
L 5120 3456 
z
M 4333 -339 
L 5190 -339 
L 5408 70 
Q 5478 205 5545 205 
Q 5613 205 5677 157 
Q 5741 109 5945 -96 
Q 6150 -301 6208 -374 
Q 6266 -448 6266 -486 
Q 6266 -525 6138 -525 
L 2336 -525 
Q 2163 -525 2067 -570 
L 1952 -307 
Q 2086 -339 2272 -339 
L 4058 -339 
Q 4435 1254 4691 3046 
Q 5114 2880 5315 2774 
Q 5517 2669 5517 2611 
Q 5517 2554 5389 2528 
Q 5331 2515 5289 2448 
Q 5248 2381 4941 1485 
L 4333 -339 
z
M 2701 2758 
Q 3654 1421 3654 826 
Q 3654 608 3545 429 
Q 3437 250 3232 250 
Q 3149 250 3117 314 
Q 3085 378 3075 675 
Q 3066 973 2928 1600 
Q 2790 2227 2605 2682 
L 2701 2758 
z
" transform="scale(0.015625)"/>
      <path id="STZhongsong-8868" d="M 4243 838 
Q 4851 1325 5216 1773 
Q 5446 1568 5568 1414 
Q 5690 1261 5690 1222 
Q 5690 1184 5664 1174 
Q 5638 1165 5561 1165 
Q 5485 1165 5363 1123 
Q 5242 1082 4390 698 
Q 5114 51 6189 -262 
L 6189 -416 
Q 5638 -390 5421 -742 
Q 5382 -806 5331 -806 
Q 5222 -806 4678 -364 
Q 4134 77 3830 576 
Q 3526 1075 3290 1869 
L 3258 1869 
Q 2944 1446 2624 1101 
L 2624 -288 
L 3853 224 
L 3910 109 
Q 3206 -339 2934 -547 
Q 2662 -755 2394 -1050 
Q 2342 -1107 2310 -1107 
Q 2227 -1107 1901 -544 
Q 2035 -454 2073 -380 
Q 2112 -307 2112 -154 
L 2112 602 
Q 1344 -64 179 -557 
L 128 -442 
Q 1594 384 2554 1869 
L 730 1869 
Q 563 1869 486 1824 
L 378 2106 
Q 506 2074 672 2074 
L 2957 2074 
L 2957 2758 
L 1466 2758 
Q 1280 2758 1197 2720 
L 1082 2989 
Q 1216 2957 1402 2957 
L 2957 2957 
L 2957 3597 
L 1024 3597 
Q 851 3597 762 3552 
L 646 3834 
Q 781 3802 960 3802 
L 2957 3802 
L 2957 4275 
Q 2957 4717 2912 4909 
Q 3206 4864 3398 4809 
Q 3590 4755 3673 4716 
Q 3757 4678 3757 4630 
Q 3757 4582 3552 4480 
L 3552 3802 
L 4979 3802 
L 5261 4186 
Q 5325 4262 5379 4262 
Q 5434 4262 5574 4128 
L 5869 3859 
Q 6016 3725 6016 3661 
Q 6016 3597 5830 3597 
L 3552 3597 
L 3552 2957 
L 4570 2957 
L 4806 3277 
Q 4877 3373 4937 3373 
Q 4998 3373 5235 3145 
Q 5472 2918 5472 2822 
Q 5472 2758 5370 2758 
L 3552 2758 
L 3552 2074 
L 5286 2074 
L 5542 2438 
Q 5613 2541 5680 2541 
Q 5747 2541 5993 2272 
Q 6240 2003 6240 1936 
Q 6240 1869 6112 1869 
L 3520 1869 
Q 3782 1299 4243 838 
z
" transform="scale(0.015625)"/>
      <path id="STZhongsong-4e0e" d="M 2323 3251 
L 2240 2234 
L 4845 2234 
L 4966 2432 
Q 5005 2496 5059 2496 
Q 5114 2496 5354 2339 
Q 5594 2182 5677 2134 
Q 5760 2086 5760 2025 
Q 5760 1965 5459 1818 
Q 5318 358 5260 22 
Q 5203 -314 5043 -592 
Q 4883 -870 4547 -998 
Q 4211 -1126 4109 -1126 
Q 4032 -1126 3987 -979 
Q 3917 -755 3744 -627 
Q 3571 -499 3078 -339 
L 3110 -192 
Q 3795 -333 4057 -333 
Q 4320 -333 4432 -262 
Q 4544 -192 4605 -19 
Q 4666 154 4739 688 
Q 4813 1222 4845 2035 
L 2304 2035 
L 2170 1830 
Q 2118 1747 2060 1747 
Q 2003 1747 1763 1872 
Q 1523 1997 1376 2099 
Q 1562 2214 1613 2275 
Q 1664 2336 1670 2445 
L 1786 4288 
Q 1798 4506 1798 4634 
Q 1798 4762 1792 4858 
Q 2054 4800 2361 4688 
Q 2669 4576 2669 4502 
Q 2669 4429 2419 4352 
L 2342 3462 
L 4864 3462 
L 5126 3891 
Q 5184 3981 5251 3981 
Q 5318 3981 5635 3689 
Q 5952 3398 5952 3324 
Q 5952 3251 5786 3251 
L 2323 3251 
z
M 3418 858 
L 3654 1242 
Q 3706 1325 3795 1325 
Q 3885 1325 4166 1059 
Q 4448 794 4448 704 
Q 4448 653 4314 653 
L 646 653 
Q 474 653 378 608 
L 256 890 
Q 390 858 576 858 
L 3418 858 
z
" transform="scale(0.015625)"/>
      <path id="STZhongsong-683c" d="M 1722 3334 
L 1869 3334 
L 2029 3571 
Q 2093 3667 2147 3667 
Q 2202 3667 2429 3449 
Q 2656 3232 2656 3171 
Q 2656 3110 2522 3110 
L 1722 3110 
L 1722 2573 
Q 2112 2445 2320 2281 
Q 2528 2118 2528 1875 
Q 2528 1760 2413 1638 
Q 2298 1517 2208 1517 
Q 2118 1517 2083 1542 
Q 2048 1568 2022 1709 
Q 1933 2182 1722 2394 
L 1722 -691 
Q 1722 -755 1706 -771 
Q 1690 -787 1597 -844 
Q 1504 -902 1363 -960 
Q 1222 -1018 1200 -1018 
Q 1178 -1018 1178 -960 
L 1190 -691 
Q 1203 -371 1203 -90 
L 1203 1971 
Q 1037 1562 825 1242 
Q 614 922 192 467 
L 102 538 
Q 749 1594 1094 3110 
L 570 3110 
Q 403 3110 294 3078 
L 186 3366 
Q 320 3334 506 3334 
L 1203 3334 
L 1203 4134 
Q 1203 4557 1184 4864 
Q 1965 4685 1965 4614 
Q 1965 4570 1722 4429 
L 1722 3334 
z
M 3341 3398 
Q 2995 2848 2464 2298 
L 2362 2362 
Q 2771 2995 2992 3516 
Q 3213 4038 3373 4806 
Q 3814 4666 3932 4602 
Q 4051 4538 4051 4499 
Q 4051 4461 3955 4416 
Q 3859 4371 3744 4137 
Q 3629 3904 3590 3834 
L 4813 3834 
L 4998 4115 
Q 5030 4166 5065 4166 
Q 5101 4166 5254 4060 
Q 5408 3955 5526 3868 
Q 5645 3782 5680 3737 
Q 5715 3693 5715 3648 
Q 5715 3571 5619 3558 
Q 5523 3546 5404 3456 
Q 5286 3366 5190 3219 
Q 4832 2688 4518 2374 
Q 5178 1952 6182 1754 
L 6182 1651 
Q 5869 1606 5773 1548 
Q 5677 1491 5613 1338 
Q 5587 1267 5520 1267 
Q 5453 1267 4960 1513 
Q 4467 1760 4147 2035 
Q 3725 1702 3034 1376 
Q 3251 1306 3456 1203 
L 4678 1203 
L 4781 1382 
Q 4813 1440 4880 1440 
Q 4947 1440 5190 1289 
Q 5434 1139 5434 1062 
Q 5434 986 5248 922 
L 5248 -186 
Q 5248 -365 5254 -493 
L 5261 -691 
Q 5261 -730 5197 -771 
Q 5133 -813 4973 -873 
Q 4813 -934 4755 -934 
Q 4717 -934 4717 -870 
L 4717 -390 
L 3443 -390 
L 3443 -813 
Q 3443 -877 3424 -896 
Q 3405 -915 3222 -979 
Q 3040 -1043 2963 -1043 
Q 2938 -1043 2938 -992 
L 2944 -755 
Q 2950 -646 2950 -454 
L 2950 794 
Q 2950 1165 2938 1331 
Q 2438 1101 2022 941 
L 1971 1037 
Q 3290 1786 3859 2336 
Q 3539 2746 3341 3398 
z
M 3494 3661 
Q 3469 3610 3456 3590 
Q 3750 3002 4160 2650 
Q 4544 3091 4826 3661 
L 3494 3661 
z
M 3443 -198 
L 4717 -198 
L 4717 1011 
L 3443 1011 
L 3443 -198 
z
" transform="scale(0.015625)"/>
      <path id="STZhongsong-7f51" d="M 1542 4320 
L 4992 4320 
L 5158 4614 
Q 5197 4678 5248 4678 
Q 5299 4678 5603 4464 
Q 5907 4250 5907 4179 
Q 5907 4109 5651 4038 
L 5651 -166 
Q 5651 -499 5584 -646 
Q 5517 -794 5245 -928 
Q 4973 -1062 4890 -1062 
Q 4845 -1062 4819 -966 
Q 4742 -685 4588 -576 
Q 4435 -467 3917 -326 
L 3936 -186 
Q 4608 -301 4800 -301 
Q 4992 -301 5037 -230 
Q 5082 -160 5082 32 
L 5082 4134 
L 1498 4134 
L 1498 -736 
Q 1498 -781 1485 -800 
Q 1472 -819 1360 -883 
Q 1248 -947 1110 -995 
Q 973 -1043 941 -1043 
Q 909 -1043 915 -986 
Q 954 -666 954 -166 
L 954 4141 
Q 954 4461 941 4710 
Q 1197 4608 1542 4320 
z
M 2470 2534 
Q 2637 3104 2778 3776 
Q 3053 3654 3206 3558 
Q 3360 3462 3389 3433 
Q 3418 3405 3418 3373 
Q 3418 3315 3334 3289 
Q 3251 3264 3203 3184 
Q 3155 3104 3027 2768 
Q 2899 2432 2765 2144 
Q 3245 1459 3245 992 
Q 3245 813 3126 653 
Q 3008 493 2938 493 
Q 2822 493 2790 723 
Q 2720 1261 2547 1683 
Q 2093 781 1632 262 
L 1542 390 
Q 2029 1126 2349 2118 
Q 2138 2534 1619 3290 
L 1709 3360 
Q 2138 2938 2470 2534 
z
M 4006 2522 
Q 4179 3104 4288 3712 
Q 4960 3354 4960 3238 
Q 4960 3194 4873 3165 
Q 4787 3136 4723 3056 
Q 4659 2976 4550 2688 
Q 4442 2400 4307 2106 
Q 4883 1235 4883 800 
Q 4883 646 4787 508 
Q 4691 371 4604 371 
Q 4518 371 4461 576 
Q 4320 1088 4096 1658 
Q 3654 787 3014 102 
L 2938 192 
Q 3494 1005 3885 2150 
Q 3686 2586 3347 3136 
L 3462 3181 
Q 3757 2835 4006 2522 
z
" transform="scale(0.015625)"/>
      <path id="STZhongsong-9762" d="M 2694 4058 
L 678 4058 
Q 512 4058 403 4026 
L 294 4301 
Q 429 4269 614 4269 
L 4998 4269 
L 5286 4698 
Q 5350 4794 5395 4794 
Q 5459 4794 5788 4509 
Q 6118 4224 6118 4141 
Q 6118 4058 5990 4058 
L 3443 4058 
Q 3226 3622 2874 3091 
L 4723 3091 
L 4864 3328 
Q 4896 3379 4934 3379 
Q 5011 3379 5337 3184 
Q 5664 2989 5664 2899 
Q 5664 2810 5376 2662 
L 5376 -288 
Q 5376 -397 5382 -493 
L 5395 -646 
Q 5395 -672 5382 -688 
Q 5370 -704 5267 -752 
Q 5165 -800 5014 -832 
Q 4864 -864 4825 -864 
Q 4787 -864 4787 -813 
L 4787 -243 
L 1523 -243 
L 1523 -646 
Q 1523 -710 1459 -752 
Q 1395 -794 1200 -867 
Q 1005 -941 934 -941 
Q 909 -941 915 -877 
Q 941 -672 941 -211 
L 941 2912 
Q 941 3290 934 3366 
Q 1216 3290 1587 3091 
L 2477 3091 
Q 2682 3763 2694 4058 
z
M 2739 2880 
L 2739 2074 
L 3584 2074 
L 3584 2880 
L 2739 2880 
z
M 1523 -32 
L 2189 -32 
L 2189 2880 
L 1523 2880 
L 1523 -32 
z
M 4147 -32 
L 4787 -32 
L 4787 2880 
L 4147 2880 
L 4147 -32 
z
M 2739 1862 
L 2739 1056 
L 3584 1056 
L 3584 1862 
L 2739 1862 
z
M 2739 -32 
L 3584 -32 
L 3584 845 
L 2739 845 
L 2739 -32 
z
" transform="scale(0.015625)"/>
      <path id="STZhongsong-677f" d="M 1888 3398 
L 2189 3398 
L 2400 3661 
Q 2464 3738 2512 3738 
Q 2560 3738 2768 3520 
Q 2976 3302 2976 3238 
Q 2976 3200 2842 3200 
L 1888 3200 
L 1888 2675 
Q 2739 2208 2739 1798 
Q 2739 1645 2624 1488 
Q 2509 1331 2422 1331 
Q 2336 1331 2313 1363 
Q 2291 1395 2278 1555 
Q 2240 2022 1888 2547 
L 1888 -640 
Q 1888 -730 1856 -758 
Q 1824 -787 1657 -860 
Q 1491 -934 1408 -934 
Q 1370 -934 1370 -870 
L 1382 -518 
Q 1389 -307 1389 -19 
L 1389 1875 
Q 1011 979 173 77 
L 96 141 
Q 909 1318 1299 3200 
L 800 3200 
Q 634 3200 525 3168 
L 378 3430 
Q 512 3398 698 3398 
L 1389 3398 
L 1389 4134 
Q 1389 4557 1370 4864 
Q 1856 4742 2025 4684 
Q 2195 4627 2195 4569 
Q 2195 4512 1888 4378 
L 1888 3398 
z
M 3654 4147 
Q 4672 4358 5312 4730 
Q 5670 4410 5808 4272 
Q 5946 4134 5946 4080 
Q 5946 4026 5888 4026 
Q 5830 4026 5721 4061 
Q 5613 4096 5536 4096 
Q 5459 4096 5338 4077 
Q 4557 3936 3610 3936 
Q 3603 3418 3558 2854 
L 4896 2854 
L 5056 3053 
Q 5094 3104 5126 3104 
Q 5178 3104 5459 2889 
Q 5741 2675 5741 2617 
Q 5741 2560 5625 2525 
Q 5510 2490 5475 2442 
Q 5440 2394 5389 2208 
Q 5088 1101 4723 563 
Q 5190 -6 6246 -512 
L 6214 -614 
Q 5670 -576 5466 -838 
Q 5427 -883 5395 -883 
Q 5363 -883 5219 -758 
Q 5075 -634 4825 -371 
Q 4576 -109 4403 141 
Q 3802 -512 2534 -1075 
L 2445 -966 
Q 3731 -147 4173 512 
Q 3782 1235 3699 2643 
L 3546 2643 
Q 3469 1779 3408 1356 
Q 3347 934 3206 544 
Q 3066 154 2806 -224 
Q 2547 -602 2112 -1056 
L 2035 -973 
Q 2605 -173 2825 889 
Q 3046 1952 3046 3366 
Q 3046 3878 3021 4448 
Q 3366 4314 3654 4147 
z
M 4442 966 
Q 4736 1562 4909 2643 
L 3891 2643 
Q 4070 1606 4442 966 
z
" transform="scale(0.015625)"/>
      <path id="STZhongsong-5ea6" d="M 3296 3987 
Q 3219 4301 3120 4473 
Q 3021 4646 2810 4832 
L 2854 4915 
Q 3878 4736 3878 4365 
Q 3878 4269 3814 4166 
Q 3750 4064 3610 3987 
L 5075 3987 
L 5376 4346 
Q 5427 4410 5466 4410 
Q 5536 4410 5808 4163 
Q 6080 3917 6080 3859 
Q 6080 3802 5965 3802 
L 1754 3802 
Q 1754 3488 1741 2931 
L 2656 2931 
L 2656 3277 
Q 2656 3488 2637 3744 
Q 3059 3648 3200 3600 
Q 3341 3552 3341 3507 
Q 3341 3456 3174 3360 
L 3174 2931 
L 4179 2931 
L 4179 3270 
Q 4179 3482 4160 3738 
Q 4653 3629 4765 3581 
Q 4877 3533 4877 3501 
Q 4877 3450 4710 3354 
L 4710 2931 
L 5094 2931 
L 5363 3309 
Q 5402 3360 5434 3360 
Q 5498 3360 5750 3107 
Q 6003 2854 6003 2803 
Q 6003 2752 5888 2752 
L 4710 2752 
L 4710 2355 
Q 4710 2067 4717 1946 
L 4730 1747 
Q 4730 1702 4678 1673 
Q 4627 1645 4457 1590 
Q 4288 1536 4218 1536 
Q 4179 1536 4179 1600 
L 4179 1888 
L 3174 1888 
L 3174 1722 
Q 3174 1677 3164 1648 
Q 3155 1619 2934 1552 
Q 2714 1485 2672 1485 
Q 2630 1485 2630 1530 
L 2643 1754 
Q 2656 1920 2656 2150 
L 2656 2752 
L 1734 2752 
Q 1696 1491 1606 963 
Q 1517 435 1238 -51 
Q 960 -538 358 -1082 
L 275 -1005 
Q 832 -262 1011 477 
Q 1190 1216 1190 2477 
Q 1190 3738 1158 4320 
Q 1510 4198 1843 3987 
L 3296 3987 
z
M 4179 2752 
L 3174 2752 
L 3174 2074 
L 4179 2074 
L 4179 2752 
z
M 3674 -250 
Q 2842 -806 1139 -1069 
L 1139 -941 
Q 2432 -627 3354 19 
Q 2944 422 2669 1133 
L 2387 1133 
Q 2214 1133 2118 1088 
L 2003 1350 
Q 2138 1318 2323 1318 
L 4467 1318 
L 4602 1472 
Q 4653 1530 4697 1530 
Q 4742 1530 5024 1331 
Q 5306 1133 5306 1078 
Q 5306 1024 5206 1017 
Q 5107 1011 5062 995 
Q 5018 979 4954 902 
Q 4506 403 4090 51 
Q 4858 -294 6227 -416 
L 6182 -557 
Q 5894 -557 5721 -643 
Q 5549 -730 5459 -922 
Q 5427 -992 5376 -992 
Q 5280 -992 4681 -768 
Q 4083 -544 3674 -250 
z
M 3686 269 
Q 4166 685 4403 1133 
L 2848 1133 
Q 3187 602 3686 269 
z
" transform="scale(0.015625)"/>
      <path id="STZhongsong-4e00" d="M 4832 2099 
L 5197 2586 
Q 5274 2688 5331 2688 
Q 5389 2688 5728 2358 
Q 6067 2029 6067 1958 
Q 6067 1888 5914 1888 
L 582 1888 
Q 410 1888 314 1843 
L 186 2131 
Q 320 2099 506 2099 
L 4832 2099 
z
" transform="scale(0.015625)"/>
      <path id="STZhongsong-81f4" d="M 4115 3251 
L 5222 3251 
L 5530 3648 
Q 5587 3725 5626 3725 
Q 5696 3725 5936 3427 
Q 6176 3130 6176 3078 
Q 6176 3027 6074 3027 
L 5120 3027 
Q 5338 2925 5398 2886 
Q 5459 2848 5459 2806 
Q 5459 2765 5401 2733 
Q 5344 2701 5318 2637 
Q 5293 2573 5155 2032 
Q 5018 1491 4906 1193 
Q 4794 896 4646 634 
Q 5197 -134 6202 -422 
L 6202 -563 
Q 6106 -557 5965 -557 
Q 5824 -557 5699 -617 
Q 5574 -678 5475 -793 
Q 5376 -909 5337 -909 
Q 5299 -909 5270 -889 
Q 5242 -870 5024 -675 
Q 4806 -480 4627 -275 
Q 4448 -70 4314 141 
Q 3667 -602 2106 -1024 
L 2061 -883 
Q 3520 -339 4096 576 
Q 3846 1158 3731 2400 
Q 3558 2061 3162 1562 
L 3027 1658 
Q 3770 2886 3994 4845 
Q 4237 4774 4457 4684 
Q 4678 4595 4732 4560 
Q 4787 4525 4787 4480 
Q 4787 4435 4681 4403 
Q 4576 4371 4528 4294 
Q 4480 4218 4361 3891 
Q 4243 3565 4115 3251 
z
M 4774 3027 
L 4026 3027 
Q 3949 2835 3910 2752 
Q 4019 1811 4358 1114 
Q 4621 1773 4774 3027 
z
M 2138 1402 
L 2470 1402 
L 2720 1741 
Q 2752 1792 2790 1792 
Q 2848 1792 3101 1555 
Q 3354 1318 3354 1260 
Q 3354 1203 3194 1203 
L 2138 1203 
L 2138 173 
L 3482 397 
L 3494 237 
L 1882 -275 
Q 1030 -525 838 -611 
Q 646 -698 624 -698 
Q 602 -698 589 -678 
Q 576 -659 480 -441 
Q 384 -224 320 -58 
Q 826 -32 1600 90 
L 1600 1203 
L 582 1203 
Q 461 1203 365 1165 
L 262 1427 
Q 346 1402 518 1402 
L 1600 1402 
L 1600 2413 
Q 1062 2336 854 2275 
Q 646 2214 617 2214 
Q 589 2214 569 2233 
Q 550 2253 489 2403 
Q 429 2554 365 2739 
Q 557 2746 691 2800 
Q 826 2854 1142 3302 
Q 1459 3750 1619 4083 
L 544 4083 
Q 397 4083 326 4051 
L 224 4307 
Q 339 4282 480 4282 
L 2637 4282 
L 2982 4698 
Q 3040 4768 3072 4768 
Q 3123 4768 3369 4470 
Q 3616 4173 3616 4128 
Q 3616 4083 3475 4083 
L 1952 4083 
Q 2010 4051 2147 3942 
Q 2285 3834 2285 3789 
Q 2285 3731 2153 3724 
Q 2022 3718 1958 3654 
L 1619 3309 
Q 1344 3027 1030 2720 
L 2637 2778 
Q 2400 3187 2093 3462 
L 2157 3590 
Q 2816 3245 3049 3049 
Q 3283 2854 3283 2681 
Q 3283 2509 3161 2365 
Q 3040 2221 2944 2221 
Q 2848 2221 2819 2333 
Q 2790 2445 2746 2566 
Q 2413 2522 2138 2490 
L 2138 1402 
z
" transform="scale(0.015625)"/>
      <path id="STZhongsong-6027" d="M 1741 3366 
Q 2246 3251 2406 3164 
Q 2566 3078 2566 2921 
Q 2566 2765 2496 2621 
Q 2426 2477 2314 2477 
Q 2202 2477 2125 2662 
Q 1971 3046 1741 3194 
L 1741 -742 
Q 1741 -806 1683 -844 
Q 1626 -883 1437 -950 
Q 1248 -1018 1209 -1018 
Q 1171 -1018 1171 -979 
Q 1171 -941 1180 -752 
Q 1190 -563 1190 -96 
L 1190 4269 
Q 1190 4589 1178 4838 
Q 1446 4774 1673 4704 
Q 1901 4634 1936 4614 
Q 1971 4595 1971 4576 
Q 1971 4525 1741 4403 
L 1741 3366 
z
M 3930 1190 
L 2874 1190 
Q 2701 1190 2605 1146 
L 2483 1408 
Q 2618 1376 2803 1376 
L 3930 1376 
L 3930 2778 
L 3078 2778 
Q 2746 1869 2221 1101 
L 2093 1165 
Q 2682 2496 2848 4237 
Q 3226 4109 3405 4016 
Q 3584 3923 3584 3891 
Q 3584 3859 3510 3840 
Q 3437 3821 3398 3779 
Q 3360 3738 3286 3456 
Q 3213 3174 3142 2957 
L 3930 2957 
L 3930 4230 
Q 3930 4723 3917 4832 
Q 4192 4794 4397 4736 
Q 4602 4678 4646 4652 
Q 4691 4627 4691 4602 
Q 4691 4550 4499 4454 
L 4499 2957 
L 5024 2957 
L 5267 3334 
Q 5338 3450 5392 3450 
Q 5446 3450 5613 3296 
L 5914 3008 
Q 6048 2880 6048 2829 
Q 6048 2778 5939 2778 
L 4499 2778 
L 4499 1376 
L 4979 1376 
L 5242 1747 
Q 5312 1843 5369 1843 
Q 5427 1843 5683 1587 
Q 5939 1331 5939 1260 
Q 5939 1190 5818 1190 
L 4499 1190 
L 4499 -390 
L 5267 -390 
L 5562 -26 
Q 5638 70 5683 70 
Q 5728 70 5798 6 
Q 5869 -58 6029 -214 
Q 6189 -371 6243 -438 
Q 6298 -506 6298 -547 
Q 6298 -589 6176 -589 
L 2483 -589 
Q 2310 -589 2214 -634 
L 2106 -358 
Q 2240 -390 2426 -390 
L 3930 -390 
L 3930 1190 
z
M 787 3392 
Q 915 2829 915 2422 
Q 915 2016 755 1853 
Q 595 1690 416 1690 
Q 314 1690 240 1763 
Q 166 1837 166 1904 
Q 166 1971 332 2182 
Q 499 2394 563 2682 
Q 627 2970 608 3386 
L 787 3392 
z
" transform="scale(0.015625)"/>
     </defs>
     <use xlink:href="#STZhongsong-70b9"/>
     <use xlink:href="#STZhongsong-4f4d" transform="translate(99.999985 0)"/>
     <use xlink:href="#STZhongsong-8868" transform="translate(199.999969 0)"/>
     <use xlink:href="#STZhongsong-4e0e" transform="translate(299.999954 0)"/>
     <use xlink:href="#STZhongsong-683c" transform="translate(399.999939 0)"/>
     <use xlink:href="#STZhongsong-7f51" transform="translate(499.999924 0)"/>
     <use xlink:href="#STZhongsong-9762" transform="translate(599.999908 0)"/>
     <use xlink:href="#STZhongsong-677f" transform="translate(699.999893 0)"/>
     <use xlink:href="#STZhongsong-5e74" transform="translate(799.999878 0)"/>
     <use xlink:href="#STZhongsong-5ea6" transform="translate(899.999863 0)"/>
     <use xlink:href="#STZhongsong-6570" transform="translate(999.999847 0)"/>
     <use xlink:href="#STZhongsong-91cf" transform="translate(1099.999832 0)"/>
     <use xlink:href="#STZhongsong-4e00" transform="translate(1199.999817 0)"/>
     <use xlink:href="#STZhongsong-81f4" transform="translate(1299.999802 0)"/>
     <use xlink:href="#STZhongsong-6027" transform="translate(1399.999786 0)"/>
    </g>
   </g>
   <g id="legend_1">
    <g id="line2d_22">
     <path d="M 93.28 57.221094 
L 107.28 57.221094 
L 121.28 57.221094 
" style="fill: none; stroke: #4c78a8; stroke-width: 3.1; stroke-linecap: square"/>
     <g>
      <use xlink:href="#m3a3b2cedc8" x="107.28" y="57.221094" style="fill: #4c78a8; stroke: #4c78a8"/>
     </g>
    </g>
    <g id="text_17">
     <!-- 点位表年度记录数 -->
     <g style="fill: #111111" transform="translate(132.48 62.121094) scale(0.14 -0.14)">
      <defs>
       <path id="STZhongsong-8bb0" d="M 883 4915 
Q 1485 4685 1789 4473 
Q 2093 4262 2093 4035 
Q 2093 3808 1968 3613 
Q 1843 3418 1690 3418 
Q 1568 3418 1491 3674 
Q 1325 4262 819 4826 
L 883 4915 
z
M 4787 2438 
L 4787 4026 
L 2912 4026 
Q 2739 4026 2643 3981 
L 2528 4262 
Q 2662 4230 2848 4230 
L 4742 4230 
L 4909 4538 
Q 4941 4595 4979 4595 
Q 5050 4595 5363 4400 
Q 5677 4205 5677 4137 
Q 5677 4070 5395 3936 
L 5395 2515 
L 5408 2106 
Q 5408 2016 5376 1981 
Q 5344 1946 5142 1862 
Q 4941 1779 4838 1779 
Q 4787 1779 4787 1856 
L 4787 2253 
L 3373 2253 
L 3373 147 
Q 3373 -13 3398 -57 
Q 3424 -102 3485 -128 
Q 3546 -154 3853 -179 
Q 4160 -205 4435 -205 
Q 4710 -205 4969 -169 
Q 5229 -134 5309 -89 
Q 5389 -45 5443 86 
Q 5498 218 5542 474 
Q 5587 730 5658 1267 
L 5792 1267 
Q 5786 723 5853 396 
Q 5920 70 6086 -45 
Q 6170 -102 6170 -172 
Q 6170 -243 6003 -438 
Q 5837 -634 5539 -685 
Q 5242 -736 4474 -736 
Q 3366 -736 3091 -621 
Q 2816 -506 2816 -122 
L 2816 2080 
Q 2816 2515 2797 2797 
Q 3155 2650 3526 2438 
L 4787 2438 
z
M 2662 979 
Q 1984 102 1721 -256 
Q 1459 -614 1293 -896 
Q 1254 -954 1235 -954 
Q 1178 -954 781 -403 
Q 1082 -45 1082 269 
L 1082 2547 
L 512 2547 
Q 397 2547 301 2515 
L 128 2778 
Q 237 2746 397 2746 
L 1024 2746 
L 1216 3034 
Q 1248 3091 1302 3091 
Q 1357 3091 1561 2953 
Q 1766 2816 1849 2765 
Q 1933 2714 1933 2669 
Q 1933 2624 1632 2445 
L 1632 282 
L 2586 1082 
L 2662 979 
z
" transform="scale(0.015625)"/>
       <path id="STZhongsong-5f55" d="M 4250 2637 
L 4275 3347 
L 1766 3347 
Q 1594 3347 1498 3302 
L 1382 3578 
Q 1517 3546 1702 3546 
L 4282 3546 
L 4307 4230 
L 1421 4230 
Q 1248 4230 1152 4186 
L 1037 4461 
Q 1171 4429 1357 4429 
L 4262 4429 
L 4467 4730 
Q 4506 4787 4538 4787 
Q 4595 4787 4889 4553 
Q 5184 4320 5184 4259 
Q 5184 4198 4870 4051 
L 4813 2637 
L 5146 2637 
L 5408 3014 
Q 5478 3117 5539 3117 
Q 5600 3117 5888 2845 
Q 6176 2573 6176 2502 
Q 6176 2419 5965 2419 
L 3501 2419 
Q 3750 1715 4160 1222 
Q 4678 1696 5005 2176 
Q 5427 1811 5494 1744 
Q 5562 1677 5562 1632 
Q 5562 1587 5514 1587 
Q 5466 1587 5430 1593 
Q 5395 1600 5370 1600 
Q 5235 1600 4262 1114 
Q 4947 365 6272 -6 
L 6246 -122 
Q 5901 -102 5680 -172 
Q 5459 -243 5325 -429 
Q 5293 -474 5261 -474 
Q 5171 -474 4704 -74 
Q 4237 326 3933 812 
Q 3629 1299 3469 1952 
L 3469 -32 
Q 3469 -410 3421 -538 
Q 3373 -666 3117 -806 
Q 2861 -947 2809 -947 
Q 2758 -947 2746 -870 
Q 2707 -627 2547 -492 
Q 2387 -358 1952 -230 
L 1952 -102 
Q 2528 -192 2688 -192 
Q 2848 -192 2886 -134 
Q 2925 -77 2925 96 
L 2925 2419 
L 640 2419 
Q 480 2419 365 2387 
L 256 2669 
Q 390 2637 576 2637 
L 4250 2637 
z
M 1114 2202 
Q 1664 1958 1865 1820 
Q 2067 1683 2128 1603 
Q 2189 1523 2189 1369 
Q 2189 1216 2077 1062 
Q 1965 909 1878 909 
Q 1792 909 1734 1075 
Q 1574 1536 1056 2118 
L 1114 2202 
z
M 2714 851 
Q 1805 307 1488 73 
Q 1171 -160 1110 -278 
Q 1050 -397 973 -397 
Q 896 -397 838 -339 
L 365 173 
Q 1587 538 2662 973 
L 2714 851 
z
" transform="scale(0.015625)"/>
      </defs>
      <use xlink:href="#STZhongsong-70b9"/>
      <use xlink:href="#STZhongsong-4f4d" transform="translate(99.999985 0)"/>
      <use xlink:href="#STZhongsong-8868" transform="translate(199.999969 0)"/>
      <use xlink:href="#STZhongsong-5e74" transform="translate(299.999954 0)"/>
      <use xlink:href="#STZhongsong-5ea6" transform="translate(399.999939 0)"/>
      <use xlink:href="#STZhongsong-8bb0" transform="translate(499.999924 0)"/>
      <use xlink:href="#STZhongsong-5f55" transform="translate(599.999908 0)"/>
      <use xlink:href="#STZhongsong-6570" transform="translate(699.999893 0)"/>
     </g>
    </g>
    <g id="line2d_23">
     <path d="M 93.28 77.464219 
L 107.28 77.464219 
L 121.28 77.464219 
" style="fill: none; stroke-dasharray: 11.47,4.96; stroke-dashoffset: 0; stroke: #e15759; stroke-width: 3.1"/>
     <g>
      <use xlink:href="#m783c8969f2" x="107.28" y="77.464219" style="fill: #e15759; stroke: #e15759; stroke-linejoin: miter"/>
     </g>
    </g>
    <g id="text_18">
     <!-- 格网active_cnt年度总和 -->
     <g style="fill: #111111" transform="translate(132.48 82.364219) scale(0.14 -0.14)">
      <defs>
       <path id="STZhongsong-61" d="M 2477 1779 
L 2477 2150 
Q 2477 2797 1734 2797 
Q 1408 2797 1251 2665 
Q 1094 2534 1030 2202 
Q 1005 2067 928 1993 
Q 851 1920 736 1920 
Q 614 1920 537 2009 
Q 461 2099 461 2240 
Q 461 2566 832 2828 
Q 1203 3091 1824 3091 
Q 2451 3091 2736 2835 
Q 3021 2579 3021 2029 
L 3021 794 
Q 3021 512 3049 413 
Q 3078 314 3164 253 
Q 3251 192 3360 192 
Q 3475 192 3680 262 
L 3680 -13 
Q 3443 -77 3226 -77 
Q 2605 -77 2509 448 
Q 2176 179 1872 51 
Q 1568 -77 1216 -77 
Q 800 -77 525 150 
Q 250 378 250 698 
Q 250 1126 682 1379 
Q 1114 1632 2477 1779 
z
M 2477 1504 
Q 1350 1357 1084 1184 
Q 819 1011 819 755 
Q 819 557 976 419 
Q 1133 282 1363 282 
Q 1818 282 2477 749 
L 2477 1504 
z
" transform="scale(0.015625)"/>
       <path id="STZhongsong-63" d="M 2995 870 
L 3194 710 
Q 2605 -77 1786 -77 
Q 1146 -77 704 380 
Q 262 838 262 1517 
Q 262 2202 713 2646 
Q 1165 3091 1869 3091 
Q 2413 3091 2771 2825 
Q 3130 2560 3130 2291 
Q 3130 2157 3046 2077 
Q 2963 1997 2848 1997 
Q 2739 1997 2681 2057 
Q 2624 2118 2413 2534 
Q 2368 2637 2195 2720 
Q 2022 2803 1856 2803 
Q 1434 2803 1152 2454 
Q 870 2106 870 1536 
Q 870 973 1158 611 
Q 1446 250 1875 250 
Q 2483 250 2995 870 
z
" transform="scale(0.015625)"/>
       <path id="STZhongsong-74" d="M 1056 4077 
L 1274 4077 
L 1274 3014 
L 2202 3014 
L 2202 2701 
L 1274 2701 
L 1274 819 
Q 1274 474 1392 358 
Q 1510 243 1690 243 
Q 1990 243 2342 506 
L 2342 205 
Q 1933 -77 1510 -77 
Q 1280 -77 1081 35 
Q 883 147 819 294 
Q 755 442 755 781 
L 755 2701 
L 205 2701 
L 205 2963 
Q 595 3059 784 3299 
Q 973 3539 1056 4077 
z
" transform="scale(0.015625)"/>
       <path id="STZhongsong-69" d="M 640 4077 
Q 640 4230 745 4332 
Q 851 4435 1005 4435 
Q 1152 4435 1257 4329 
Q 1363 4224 1363 4077 
Q 1363 3923 1257 3817 
Q 1152 3712 1005 3712 
Q 851 3712 745 3817 
Q 640 3923 640 4077 
z
M 205 2566 
L 205 2822 
Q 691 2886 1043 3091 
L 1274 3091 
L 1274 582 
Q 1274 371 1376 316 
Q 1478 262 1658 262 
L 1805 262 
L 1805 0 
L 205 0 
L 205 262 
L 333 262 
Q 602 262 675 348 
Q 749 435 749 730 
L 749 2566 
L 205 2566 
z
" transform="scale(0.015625)"/>
       <path id="STZhongsong-76" d="M 0 3014 
L 1434 3014 
L 1434 2752 
L 1344 2752 
Q 1146 2752 1072 2713 
Q 998 2675 998 2586 
Q 998 2522 1069 2330 
L 1779 474 
L 2464 2330 
Q 2522 2483 2522 2566 
Q 2522 2752 2240 2752 
L 2093 2752 
L 2093 3014 
L 3328 3014 
L 3328 2752 
Q 3104 2752 3008 2643 
Q 2912 2534 2829 2330 
L 1843 -77 
L 1466 -77 
L 461 2387 
Q 320 2752 0 2752 
L 0 3014 
z
" transform="scale(0.015625)"/>
       <path id="STZhongsong-65" d="M 3117 806 
L 3315 646 
Q 3021 269 2717 96 
Q 2413 -77 2022 -77 
Q 1549 -77 1190 134 
Q 832 346 649 730 
Q 467 1114 467 1530 
Q 467 2189 889 2640 
Q 1312 3091 1997 3091 
Q 2586 3091 2934 2745 
Q 3283 2400 3296 1773 
L 1088 1773 
Q 1082 1645 1082 1536 
Q 1082 960 1357 605 
Q 1632 250 2093 250 
Q 2400 250 2637 400 
Q 2874 550 3117 806 
z
M 2720 2067 
Q 2598 2797 1984 2797 
Q 1651 2797 1449 2614 
Q 1248 2432 1133 2067 
L 2720 2067 
z
" transform="scale(0.015625)"/>
       <path id="STZhongsong-5f" d="M 0 -480 
L 3200 -480 
L 3200 -800 
L 0 -800 
L 0 -480 
z
" transform="scale(0.015625)"/>
       <path id="STZhongsong-6e" d="M 237 2566 
L 237 2829 
Q 518 2854 662 2905 
Q 806 2957 1050 3091 
L 1274 3091 
L 1274 2496 
Q 1626 2797 1926 2944 
Q 2227 3091 2566 3091 
Q 2797 3091 2979 3020 
Q 3162 2950 3286 2828 
Q 3411 2707 3472 2553 
Q 3533 2400 3533 2086 
L 3533 710 
Q 3533 493 3561 406 
Q 3590 320 3696 291 
Q 3802 262 4064 262 
L 4064 0 
L 2458 0 
L 2458 262 
L 2541 262 
Q 2829 262 2915 345 
Q 3002 429 3002 742 
L 3002 1888 
Q 3002 2259 2941 2396 
Q 2880 2534 2742 2614 
Q 2605 2694 2400 2694 
Q 1856 2694 1299 2182 
L 1299 742 
Q 1299 512 1340 413 
Q 1382 314 1468 288 
Q 1555 262 1754 262 
L 1843 262 
L 1843 0 
L 237 0 
L 237 262 
L 314 262 
Q 525 262 611 291 
Q 698 320 733 425 
Q 768 531 768 787 
L 768 2566 
L 237 2566 
z
" transform="scale(0.015625)"/>
       <path id="STZhongsong-603b" d="M 4416 1869 
L 2214 1869 
L 2214 1690 
Q 2214 1626 2188 1603 
Q 2163 1581 1952 1504 
Q 1741 1427 1658 1427 
Q 1619 1427 1619 1456 
Q 1619 1485 1632 1670 
Q 1645 1856 1645 2349 
L 1645 3142 
Q 1645 3424 1626 3706 
Q 2035 3590 2317 3411 
L 3584 3411 
Q 4102 4141 4390 4883 
Q 4589 4794 4829 4643 
Q 5069 4493 5101 4464 
Q 5133 4435 5133 4403 
Q 5133 4339 4998 4339 
Q 4915 4339 4838 4300 
Q 4762 4262 4470 4006 
Q 4179 3750 3846 3411 
L 4346 3411 
L 4512 3642 
Q 4550 3693 4595 3693 
Q 4640 3693 4870 3558 
Q 5101 3424 5187 3357 
Q 5274 3290 5274 3235 
Q 5274 3181 5011 3053 
L 5011 2406 
Q 5011 2093 5018 1971 
L 5024 1741 
Q 5024 1690 4973 1658 
Q 4922 1626 4726 1568 
Q 4531 1510 4461 1510 
Q 4416 1510 4416 1606 
L 4416 1869 
z
M 2214 2067 
L 4416 2067 
L 4416 3206 
L 2214 3206 
L 2214 2067 
z
M 2010 4838 
Q 2451 4646 2672 4515 
Q 2893 4384 2966 4275 
Q 3040 4166 3040 4000 
Q 3040 3834 2912 3658 
Q 2784 3482 2662 3482 
Q 2592 3482 2557 3530 
Q 2522 3578 2502 3686 
Q 2374 4269 1939 4710 
L 2010 4838 
z
M 2944 1530 
Q 3366 1357 3577 1225 
Q 3789 1094 3853 985 
Q 3917 877 3917 742 
Q 3917 518 3817 384 
Q 3718 250 3628 250 
Q 3539 250 3497 298 
Q 3456 346 3398 566 
Q 3341 787 3209 1004 
Q 3078 1222 2867 1440 
L 2944 1530 
z
M 4646 762 
Q 4646 371 4672 182 
Q 4698 -6 4758 -92 
Q 4819 -179 4960 -250 
Q 5011 -282 5011 -314 
Q 5011 -378 4864 -550 
Q 4717 -723 4493 -777 
Q 4269 -832 3648 -832 
Q 2522 -832 2262 -742 
Q 2003 -653 2003 -333 
L 2003 794 
Q 2003 1056 1984 1318 
Q 2752 1146 2752 1043 
Q 2752 979 2528 902 
L 2528 -102 
Q 2528 -186 2566 -214 
Q 2605 -243 2851 -265 
Q 3098 -288 3437 -288 
Q 4102 -288 4243 -195 
Q 4384 -102 4493 762 
L 4646 762 
z
M 4896 1254 
Q 5395 947 5651 745 
Q 5907 544 5993 406 
Q 6080 269 6080 128 
Q 6080 -96 5961 -233 
Q 5843 -371 5721 -371 
Q 5600 -371 5545 -281 
Q 5491 -192 5446 0 
Q 5318 602 4800 1126 
L 4896 1254 
z
M 1434 1242 
Q 1491 819 1491 525 
Q 1491 -38 1254 -272 
Q 1018 -506 742 -506 
Q 602 -506 506 -445 
Q 410 -384 410 -282 
Q 410 -122 614 26 
Q 966 282 1097 550 
Q 1229 819 1280 1242 
L 1434 1242 
z
" transform="scale(0.015625)"/>
       <path id="STZhongsong-548c" d="M 1888 3942 
Q 1075 3808 454 3757 
L 429 3878 
Q 2240 4384 3002 4890 
Q 3162 4723 3334 4480 
Q 3507 4237 3507 4189 
Q 3507 4141 3468 4141 
Q 3430 4141 3379 4157 
Q 3328 4173 3277 4173 
Q 3155 4173 2419 4038 
L 2419 2938 
L 2784 2938 
L 3021 3277 
Q 3053 3328 3091 3328 
Q 3162 3328 3411 3088 
Q 3661 2848 3661 2778 
Q 3661 2733 3520 2733 
L 2419 2733 
L 2419 2272 
Q 2918 2125 3142 2032 
Q 3366 1939 3440 1843 
Q 3514 1747 3514 1548 
Q 3514 1350 3395 1212 
Q 3277 1075 3187 1075 
Q 3098 1075 3056 1123 
Q 3014 1171 2970 1286 
Q 2778 1792 2419 2093 
L 2419 -851 
Q 2419 -909 2368 -941 
Q 2317 -973 2144 -1037 
Q 1971 -1101 1920 -1101 
Q 1869 -1101 1869 -1018 
L 1882 -755 
Q 1888 -493 1888 -179 
L 1888 1856 
Q 1402 870 358 70 
L 262 160 
Q 1139 1178 1715 2733 
L 691 2733 
Q 525 2733 416 2701 
L 307 2970 
Q 442 2938 627 2938 
L 1888 2938 
L 1888 3942 
z
M 4282 3610 
L 5190 3610 
L 5370 3904 
Q 5408 3962 5440 3962 
Q 5491 3962 5792 3782 
Q 6093 3603 6093 3539 
Q 6093 3475 5830 3283 
L 5830 435 
Q 5830 154 5837 38 
L 5843 -173 
Q 5843 -218 5824 -240 
Q 5805 -262 5715 -316 
Q 5626 -371 5488 -412 
Q 5350 -454 5286 -454 
Q 5254 -454 5254 -397 
L 5254 205 
L 4230 205 
L 4230 -275 
Q 4230 -346 4211 -368 
Q 4192 -390 4102 -435 
Q 4013 -480 3859 -528 
Q 3706 -576 3677 -576 
Q 3648 -576 3654 -525 
Q 3686 -205 3686 122 
L 3686 3392 
Q 3686 3661 3667 3936 
Q 4019 3789 4282 3610 
z
M 5254 429 
L 5254 3386 
L 4230 3386 
L 4230 429 
L 5254 429 
z
" transform="scale(0.015625)"/>
      </defs>
      <use xlink:href="#STZhongsong-683c"/>
      <use xlink:href="#STZhongsong-7f51" transform="translate(99.999985 0)"/>
      <use xlink:href="#STZhongsong-61" transform="translate(199.999969 0)"/>
      <use xlink:href="#STZhongsong-63" transform="translate(257.999954 0)"/>
      <use xlink:href="#STZhongsong-74" transform="translate(309.999939 0)"/>
      <use xlink:href="#STZhongsong-69" transform="translate(347.999924 0)"/>
      <use xlink:href="#STZhongsong-76" transform="translate(377.999908 0)"/>
      <use xlink:href="#STZhongsong-65" transform="translate(429.999893 0)"/>
      <use xlink:href="#STZhongsong-5f" transform="translate(481.999878 0)"/>
      <use xlink:href="#STZhongsong-63" transform="translate(531.999863 0)"/>
      <use xlink:href="#STZhongsong-6e" transform="translate(583.999847 0)"/>
      <use xlink:href="#STZhongsong-74" transform="translate(649.999832 0)"/>
      <use xlink:href="#STZhongsong-5e74" transform="translate(687.999817 0)"/>
      <use xlink:href="#STZhongsong-5ea6" transform="translate(787.999802 0)"/>
      <use xlink:href="#STZhongsong-603b" transform="translate(887.999786 0)"/>
      <use xlink:href="#STZhongsong-548c" transform="translate(987.999771 0)"/>
     </g>
    </g>
   </g>
  </g>
 </g>
 <defs>
  <clipPath id="p3283d0d02d">
   <rect x="80.68" y="38.992656" width="768.67" height="366.98625"/>
  </clipPath>
 </defs>
</svg>
