<?xml version="1.0" encoding="utf-8" standalone="no"?>
<!DOCTYPE svg PUBLIC "-//W3C//DTD SVG 1.1//EN"
  "http://www.w3.org/Graphics/SVG/1.1/DTD/svg11.dtd">
<svg xmlns:xlink="http://www.w3.org/1999/xlink" width="856.505pt" height="452.999062pt" viewBox="0 0 856.505 452.999062" xmlns="http://www.w3.org/2000/svg" version="1.1">
 <metadata>
  <rdf:RDF xmlns:dc="http://purl.org/dc/elements/1.1/" xmlns:cc="http://creativecommons.org/ns#" xmlns:rdf="http://www.w3.org/1999/02/22-rdf-syntax-ns#">
   <cc:Work>
    <dc:type rdf:resource="http://purl.org/dc/dcmitype/StillImage"/>
    <dc:date>2026-06-06T01:21:34.428493</dc:date>
    <dc:format>image/svg+xml</dc:format>
    <dc:creator>
     <cc:Agent>
      <dc:title>Matplotlib v3.10.0, https://matplotlib.org/</dc:title>
     </cc:Agent>
    </dc:creator>
   </cc:Work>
  </rdf:RDF>
 </metadata>
 <defs>
  <style type="text/css">*{stroke-linejoin: round; stroke-linecap: butt}</style>
 </defs>
 <g id="figure_1">
  <g id="patch_1">
   <path d="M 0 452.999062 
L 856.505 452.999062 
L 856.505 0 
L 0 0 
z
" style="fill: #ffffff"/>
  </g>
  <g id="axes_1">
   <g id="patch_2">
    <path d="M 80.68 404.514062 
L 849.305 404.514062 
L 849.305 38.720312 
L 80.68 38.720312 
z
" style="fill: #ffffff"/>
   </g>
   <g id="patch_3">
    <path d="M 115.6175 404.514062 
L 204.105491 404.514062 
L 204.105491 56.139062 
L 115.6175 56.139062 
z
" clip-path="url(#pca44b0d7b8)" style="fill: #d9d9d9"/>
   </g>
   <g id="patch_4">
    <path d="M 268.183002 404.514062 
L 356.670993 404.514062 
L 356.670993 400.184821 
L 268.183002 400.184821 
z
" clip-path="url(#pca44b0d7b8)" style="fill: #bfd8b8"/>
   </g>
   <g id="patch_5">
    <path d="M 420.748504 404.514062 
L 509.236496 404.514062 
L 509.236496 389.653501 
L 420.748504 389.653501 
z
" clip-path="url(#pca44b0d7b8)" style="fill: #9cc3a5"/>
   </g>
   <g id="patch_6">
    <path d="M 573.314007 404.514062 
L 661.801998 404.514062 
L 661.801998 378.864325 
L 573.314007 378.864325 
z
" clip-path="url(#pca44b0d7b8)" style="fill: #5f9e6e"/>
   </g>
   <g id="patch_7">
    <path d="M 725.879509 404.514062 
L 814.3675 404.514062 
L 814.3675 393.914885 
L 725.879509 393.914885 
z
" clip-path="url(#pca44b0d7b8)" style="fill: #2f6b45"/>
   </g>
   <g id="matplotlib.axis_1">
    <g id="xtick_1">
     <g id="line2d_1">
      <defs>
       <path id="me8b7670c23" d="M 0 0 
L 0 3.5 
" style="stroke: #111111; stroke-width: 0.8"/>
      </defs>
      <g>
       <use xlink:href="#me8b7670c23" x="159.861496" y="404.514062" style="fill: #111111; stroke: #111111; stroke-width: 0.8"/>
      </g>
     </g>
     <g id="text_1">
      <!-- 从未活跃 -->
      <g style="fill: #111111" transform="translate(129.861496 422.494531) scale(0.15 -0.15)">
       <defs>
        <path id="STZhongsong-4ece" d="M 4230 2918 
Q 4096 1606 3865 972 
Q 3635 339 3126 -134 
Q 2618 -608 1626 -1120 
L 1555 -1024 
Q 2106 -646 2483 -268 
Q 2861 109 3097 515 
Q 3334 922 3452 1376 
Q 3571 1830 3657 2790 
Q 3744 3750 3718 4826 
Q 4019 4762 4268 4688 
Q 4518 4614 4553 4582 
Q 4589 4550 4589 4512 
Q 4589 4474 4509 4419 
Q 4429 4365 4381 4285 
Q 4333 4205 4307 3984 
Q 4282 3763 4282 3504 
Q 4282 3245 4445 2544 
Q 4608 1843 4774 1392 
Q 4941 941 5155 579 
Q 5370 218 5626 -41 
Q 5882 -301 6182 -448 
L 6170 -602 
Q 5958 -563 5840 -563 
Q 5722 -563 5626 -601 
Q 5530 -640 5443 -710 
Q 5357 -781 5325 -781 
Q 5203 -781 4745 144 
Q 4288 1069 4230 2918 
z
M 2029 2099 
Q 1965 1152 1587 521 
Q 1210 -109 301 -890 
L 218 -794 
Q 986 26 1261 931 
Q 1536 1837 1536 3584 
Q 1536 4045 1523 4717 
Q 1811 4646 2041 4569 
Q 2272 4493 2310 4470 
Q 2349 4448 2349 4413 
Q 2349 4378 2278 4339 
Q 2150 4262 2138 3987 
Q 2118 3085 2054 2342 
Q 2541 1997 2790 1667 
Q 3040 1338 3040 1104 
Q 3040 870 2918 710 
Q 2797 550 2656 550 
Q 2579 550 2544 611 
Q 2509 672 2493 854 
Q 2477 1037 2339 1417 
Q 2202 1798 2029 2099 
z
" transform="scale(0.015625)"/>
        <path id="STZhongsong-672a" d="M 3443 2349 
L 4922 2349 
L 5171 2714 
Q 5222 2784 5283 2784 
Q 5344 2784 5680 2502 
Q 6016 2221 6016 2169 
Q 6016 2118 5830 2118 
L 3693 2118 
Q 4115 1318 4723 822 
Q 5331 326 6240 38 
L 6227 -115 
Q 5914 -96 5731 -147 
Q 5549 -198 5370 -390 
Q 5325 -442 5286 -442 
Q 5216 -442 4790 -70 
Q 4365 301 4032 832 
Q 3699 1363 3501 2118 
L 3443 2118 
L 3443 -51 
L 3456 -787 
Q 3456 -838 3430 -864 
Q 3405 -890 3277 -950 
Q 3149 -1011 3021 -1052 
Q 2893 -1094 2867 -1094 
Q 2842 -1094 2842 -1030 
L 2854 -730 
Q 2867 -422 2867 -166 
L 2867 1683 
Q 2438 915 1868 406 
Q 1299 -102 243 -640 
L 160 -525 
Q 960 38 1488 646 
Q 2016 1254 2451 2118 
L 774 2118 
Q 608 2118 499 2086 
L 390 2381 
Q 525 2349 710 2349 
L 2867 2349 
L 2867 3430 
L 1261 3430 
Q 1094 3430 986 3398 
L 877 3686 
Q 1011 3654 1197 3654 
L 2867 3654 
L 2867 4115 
Q 2867 4538 2848 4845 
Q 3110 4806 3369 4742 
Q 3629 4678 3699 4646 
Q 3770 4614 3770 4576 
Q 3770 4499 3443 4365 
L 3443 3654 
L 4454 3654 
L 4704 4045 
Q 4755 4122 4819 4122 
Q 4883 4122 5030 4010 
Q 5178 3898 5363 3728 
Q 5549 3558 5549 3494 
Q 5549 3430 5408 3430 
L 3443 3430 
L 3443 2349 
z
" transform="scale(0.015625)"/>
        <path id="STZhongsong-6d3b" d="M 1018 4704 
Q 1645 4499 1865 4358 
Q 2086 4218 2086 4032 
Q 2086 3846 1964 3667 
Q 1843 3488 1734 3488 
Q 1683 3488 1657 3520 
Q 1632 3552 1545 3782 
Q 1459 4013 1318 4214 
Q 1178 4416 966 4608 
L 1018 4704 
z
M 3731 3814 
Q 3021 3750 2713 3750 
Q 2406 3750 2304 3757 
L 2298 3891 
Q 3053 4006 3933 4227 
Q 4813 4448 5293 4640 
Q 5414 4531 5580 4342 
Q 5747 4154 5769 4112 
Q 5792 4070 5792 4032 
Q 5792 3994 5734 3994 
Q 5715 3994 5632 4022 
Q 5549 4051 5462 4051 
Q 5376 4051 5081 3990 
Q 4787 3930 4288 3878 
L 4288 2630 
L 5126 2630 
L 5421 2995 
Q 5485 3072 5539 3072 
Q 5594 3072 5891 2800 
Q 6189 2528 6189 2480 
Q 6189 2432 6048 2432 
L 4288 2432 
L 4288 1402 
L 4915 1402 
L 5056 1626 
Q 5114 1709 5149 1709 
Q 5184 1709 5475 1523 
Q 5766 1338 5766 1283 
Q 5766 1229 5517 1082 
L 5517 -352 
Q 5517 -448 5523 -531 
L 5536 -666 
Q 5536 -749 5267 -854 
Q 4998 -960 4960 -960 
Q 4922 -960 4922 -890 
L 4922 -403 
L 3142 -403 
L 3142 -781 
Q 3142 -826 3126 -845 
Q 3110 -864 2860 -957 
Q 2611 -1050 2579 -1050 
Q 2547 -1050 2554 -986 
Q 2586 -768 2586 -506 
L 2586 1152 
Q 2586 1421 2566 1696 
Q 3040 1549 3315 1402 
L 3731 1402 
L 3731 2432 
L 2534 2432 
Q 2362 2432 2266 2387 
L 2131 2662 
Q 2266 2630 2451 2630 
L 3731 2630 
L 3731 3814 
z
M 4922 -198 
L 4922 1216 
L 3142 1216 
L 3142 -198 
L 4922 -198 
z
M 2298 3482 
L 1760 1395 
Q 1606 819 1606 457 
Q 1606 96 1644 -176 
Q 1683 -448 1683 -563 
Q 1683 -992 1485 -992 
Q 1299 -992 1116 -873 
Q 934 -755 934 -557 
Q 934 -512 947 -461 
Q 1075 51 1075 329 
Q 1075 608 956 701 
Q 838 794 320 896 
L 333 1024 
Q 723 1030 896 1059 
Q 1069 1088 1145 1168 
Q 1222 1248 1306 1440 
L 2176 3526 
L 2298 3482 
z
M 390 3245 
Q 826 3066 1088 2890 
Q 1350 2714 1350 2525 
Q 1350 2336 1267 2160 
Q 1184 1984 1049 1984 
Q 915 1984 851 2202 
Q 755 2547 624 2745 
Q 493 2944 320 3123 
L 390 3245 
z
" transform="scale(0.015625)"/>
        <path id="STZhongsong-8dc3" d="M 4525 2272 
Q 4685 1152 5046 525 
Q 5408 -102 6189 -544 
L 6170 -685 
Q 5997 -659 5865 -659 
Q 5734 -659 5632 -694 
Q 5530 -730 5443 -806 
Q 5357 -883 5318 -883 
Q 5203 -883 4819 -105 
Q 4435 672 4333 2272 
L 4243 2272 
Q 4166 1389 4044 982 
Q 3923 576 3628 205 
Q 3334 -166 2876 -480 
Q 2419 -794 1779 -1056 
L 1734 -941 
Q 2803 -224 3193 400 
Q 3584 1024 3699 2272 
L 2893 2272 
Q 2720 2272 2624 2227 
L 2509 2522 
Q 2643 2490 2829 2490 
L 3718 2490 
Q 3782 2976 3782 3350 
Q 3782 3725 3776 3910 
Q 3270 3866 2784 3834 
L 2771 3955 
Q 4186 4282 5357 4749 
Q 5773 4230 5773 4109 
Q 5773 4058 5721 4058 
Q 5670 4058 5593 4086 
Q 5517 4115 5424 4115 
Q 5331 4115 5001 4060 
Q 4672 4006 4358 3968 
Q 4320 3091 4262 2490 
L 4992 2490 
L 5293 2893 
Q 5344 2963 5427 2963 
Q 5510 2963 5808 2697 
Q 6106 2432 6106 2352 
Q 6106 2272 5965 2272 
L 4525 2272 
z
M 1350 4339 
L 2086 4339 
L 2234 4576 
Q 2266 4627 2307 4627 
Q 2349 4627 2537 4486 
Q 2726 4346 2800 4282 
Q 2874 4218 2874 4170 
Q 2874 4122 2624 4038 
L 2624 3232 
Q 2624 2982 2630 2899 
L 2637 2733 
Q 2637 2656 2464 2589 
Q 2291 2522 2195 2522 
Q 2131 2522 2131 2624 
L 2131 2733 
L 1325 2733 
L 1325 2566 
Q 1325 2515 1299 2489 
Q 1274 2464 1114 2406 
Q 954 2349 870 2349 
Q 819 2349 826 2426 
Q 851 2733 851 3034 
L 851 4115 
Q 851 4378 832 4653 
Q 1139 4499 1350 4339 
z
M 2131 2918 
L 2131 4141 
L 1325 4141 
L 1325 2918 
L 2131 2918 
z
M 2054 1440 
L 2214 1440 
L 2426 1747 
Q 2477 1818 2528 1818 
Q 2579 1818 2819 1600 
Q 3059 1382 3059 1306 
Q 3059 1261 2931 1261 
L 2054 1261 
L 2054 218 
L 2963 416 
L 3008 288 
L 1856 -192 
Q 1248 -448 928 -685 
Q 870 -730 825 -730 
Q 781 -730 729 -637 
Q 678 -544 403 -122 
L 762 -64 
L 762 1715 
Q 762 2003 749 2227 
Q 1184 2106 1299 2058 
Q 1414 2010 1414 1965 
Q 1414 1920 1229 1830 
L 1229 38 
L 1581 115 
L 1581 2067 
Q 1581 2355 1568 2579 
Q 1914 2522 2058 2483 
Q 2202 2445 2202 2384 
Q 2202 2323 2054 2266 
L 2054 1440 
z
" transform="scale(0.015625)"/>
       </defs>
       <use xlink:href="#STZhongsong-4ece"/>
       <use xlink:href="#STZhongsong-672a" transform="translate(99.999985 0)"/>
       <use xlink:href="#STZhongsong-6d3b" transform="translate(199.999969 0)"/>
       <use xlink:href="#STZhongsong-8dc3" transform="translate(299.999954 0)"/>
      </g>
     </g>
    </g>
    <g id="xtick_2">
     <g id="line2d_2">
      <g>
       <use xlink:href="#me8b7670c23" x="312.426998" y="404.514062" style="fill: #111111; stroke: #111111; stroke-width: 0.8"/>
      </g>
     </g>
     <g id="text_2">
      <!-- 短期活跃 -->
      <g style="fill: #111111" transform="translate(282.426998 422.628125) scale(0.15 -0.15)">
       <defs>
        <path id="STZhongsong-77ed" d="M 1344 3558 
L 2022 3558 
L 2234 3872 
Q 2285 3942 2339 3942 
Q 2394 3942 2637 3724 
Q 2880 3507 2880 3443 
Q 2880 3379 2758 3379 
L 1958 3379 
Q 1939 2662 1901 2125 
L 2176 2125 
L 2432 2490 
Q 2483 2560 2515 2560 
Q 2566 2560 2816 2320 
Q 3066 2080 3066 2016 
Q 3066 1952 2970 1952 
L 1882 1952 
Q 1856 1613 1792 1274 
Q 2298 1088 2547 880 
Q 2797 672 2797 470 
Q 2797 269 2704 128 
Q 2611 -13 2502 -13 
Q 2355 -13 2288 249 
Q 2221 512 2118 697 
Q 2016 883 1766 1152 
Q 1632 538 1299 80 
Q 966 -378 250 -909 
L 173 -813 
Q 826 -96 1085 496 
Q 1344 1088 1402 1952 
L 710 1952 
Q 550 1952 435 1920 
L 326 2157 
Q 461 2125 646 2125 
L 1414 2125 
Q 1440 2598 1440 3379 
L 1267 3379 
Q 947 2682 493 2202 
L 384 2278 
Q 986 3334 1222 4870 
Q 1946 4595 1946 4512 
Q 1946 4461 1805 4438 
Q 1664 4416 1613 4262 
Q 1472 3853 1344 3558 
z
M 5011 4192 
L 5306 4608 
Q 5350 4672 5395 4672 
Q 5440 4672 5542 4585 
Q 5645 4499 5808 4345 
Q 5971 4192 6019 4141 
Q 6067 4090 6067 4048 
Q 6067 4006 5946 4006 
L 3034 4006 
Q 2861 4006 2765 3962 
L 2650 4224 
Q 2784 4192 2970 4192 
L 5011 4192 
z
M 4922 1658 
L 3616 1658 
L 3616 1478 
Q 3616 1408 3597 1395 
Q 3578 1382 3366 1312 
Q 3155 1242 3107 1242 
Q 3059 1242 3066 1293 
Q 3098 1568 3098 1786 
L 3098 2886 
Q 3098 3155 3078 3430 
Q 3462 3309 3686 3194 
L 4845 3194 
L 4992 3430 
Q 5024 3482 5072 3482 
Q 5120 3482 5360 3341 
Q 5600 3200 5651 3161 
Q 5702 3123 5702 3091 
Q 5702 3014 5459 2918 
L 5459 1939 
Q 5459 1760 5468 1625 
Q 5478 1491 5478 1465 
Q 5478 1440 5446 1417 
Q 5414 1395 5219 1340 
Q 5024 1286 4954 1286 
Q 4922 1286 4922 1344 
L 4922 1658 
z
M 3616 1843 
L 4922 1843 
L 4922 2995 
L 3616 2995 
L 3616 1843 
z
M 4352 -365 
Q 4666 691 4742 1299 
Q 5011 1210 5193 1130 
Q 5376 1050 5401 1027 
Q 5427 1005 5427 979 
Q 5427 915 5331 892 
Q 5235 870 5206 832 
Q 5178 794 4998 442 
L 4595 -365 
L 5210 -365 
L 5523 58 
Q 5587 141 5644 141 
Q 5702 141 5990 -150 
Q 6278 -442 6278 -496 
Q 6278 -550 6150 -550 
L 2733 -550 
Q 2560 -550 2464 -595 
L 2349 -333 
Q 2483 -365 2669 -365 
L 4352 -365 
z
M 3296 1184 
Q 3648 864 3824 640 
Q 4000 416 4000 243 
Q 4000 70 3891 -77 
Q 3782 -224 3673 -224 
Q 3565 -224 3526 -179 
Q 3488 -134 3475 13 
Q 3430 627 3200 1107 
L 3296 1184 
z
" transform="scale(0.015625)"/>
        <path id="STZhongsong-671f" d="M 2982 3718 
L 3194 4019 
Q 3232 4077 3273 4077 
Q 3315 4077 3510 3853 
Q 3706 3629 3706 3574 
Q 3706 3520 3610 3520 
L 2982 3520 
L 2982 1126 
L 3206 1414 
Q 3251 1466 3277 1466 
Q 3360 1466 3808 1043 
Q 3853 1370 3853 2486 
Q 3853 3603 3840 4512 
Q 4166 4365 4416 4218 
L 5082 4218 
L 5242 4486 
Q 5293 4570 5337 4570 
Q 5382 4570 5686 4374 
Q 5990 4179 5990 4108 
Q 5990 4038 5760 3917 
L 5760 -390 
Q 5760 -614 5673 -720 
Q 5587 -826 5376 -934 
Q 5165 -1043 5117 -1043 
Q 5069 -1043 5056 -966 
Q 5018 -749 4870 -624 
Q 4723 -499 4282 -358 
L 4294 -218 
Q 4787 -294 4950 -294 
Q 5114 -294 5155 -262 
Q 5197 -230 5197 -154 
L 5197 1280 
L 4333 1280 
Q 4282 358 3898 -134 
Q 3514 -627 2592 -1082 
L 2528 -973 
Q 3245 -435 3488 -35 
Q 3731 365 3795 928 
L 589 928 
Q 416 928 320 883 
L 205 1152 
Q 339 1120 525 1120 
L 1126 1120 
L 1126 3520 
L 742 3520 
Q 570 3520 474 3475 
L 358 3750 
Q 493 3718 678 3718 
L 1126 3718 
L 1126 4301 
Q 1126 4621 1114 4870 
Q 1267 4832 1488 4758 
Q 1709 4685 1766 4653 
Q 1824 4621 1824 4569 
Q 1824 4518 1626 4410 
L 1626 3718 
L 2483 3718 
L 2483 4314 
Q 2483 4627 2470 4883 
Q 3187 4691 3187 4608 
Q 3187 4550 2982 4454 
L 2982 3718 
z
M 4384 2803 
L 5197 2803 
L 5197 4013 
L 4390 4013 
Q 4390 3264 4384 2803 
z
M 2483 3520 
L 1626 3520 
L 1626 2976 
L 2483 2976 
L 2483 3520 
z
M 2483 2061 
L 2483 2765 
L 1626 2765 
L 1626 2061 
L 2483 2061 
z
M 5197 2579 
L 4378 2579 
L 4346 1491 
L 5197 1491 
L 5197 2579 
z
M 2483 1120 
L 2483 1850 
L 1626 1850 
L 1626 1120 
L 2483 1120 
z
M 1306 768 
Q 1971 499 1971 397 
Q 1971 346 1859 346 
Q 1747 346 1683 256 
Q 1094 -512 269 -1139 
L 160 -1043 
Q 928 -211 1306 768 
z
M 2285 723 
Q 2694 544 2889 429 
Q 3085 314 3145 224 
Q 3206 134 3206 -22 
Q 3206 -179 3104 -307 
Q 3002 -435 2880 -435 
Q 2778 -435 2739 -282 
Q 2637 154 2202 621 
L 2285 723 
z
" transform="scale(0.015625)"/>
       </defs>
       <use xlink:href="#STZhongsong-77ed"/>
       <use xlink:href="#STZhongsong-671f" transform="translate(99.999985 0)"/>
       <use xlink:href="#STZhongsong-6d3b" transform="translate(199.999969 0)"/>
       <use xlink:href="#STZhongsong-8dc3" transform="translate(299.999954 0)"/>
      </g>
     </g>
    </g>
    <g id="xtick_3">
     <g id="line2d_3">
      <g>
       <use xlink:href="#me8b7670c23" x="464.9925" y="404.514062" style="fill: #111111; stroke: #111111; stroke-width: 0.8"/>
      </g>
     </g>
     <g id="text_3">
      <!-- 间歇活跃 -->
      <g style="fill: #111111" transform="translate(434.9925 422.989062) scale(0.15 -0.15)">
       <defs>
        <path id="STZhongsong-95f4" d="M 1382 4973 
Q 1933 4710 2208 4508 
Q 2483 4307 2483 4054 
Q 2483 3802 2345 3658 
Q 2208 3514 2112 3514 
Q 2016 3514 1974 3568 
Q 1933 3622 1907 3757 
Q 1837 4186 1693 4429 
Q 1549 4672 1325 4883 
L 1382 4973 
z
M 5037 4179 
L 5254 4512 
Q 5306 4595 5350 4595 
Q 5395 4595 5702 4390 
Q 6010 4186 6010 4125 
Q 6010 4064 5696 3866 
L 5696 6 
Q 5696 -326 5664 -480 
Q 5632 -634 5526 -730 
Q 5421 -826 5129 -925 
Q 4838 -1024 4768 -1024 
Q 4704 -1024 4704 -915 
Q 4704 -480 3962 -256 
L 3981 -122 
Q 4659 -250 4844 -250 
Q 5030 -250 5075 -192 
Q 5120 -134 5120 19 
L 5120 3962 
L 3373 3962 
Q 3251 3962 3142 3917 
L 2976 4192 
Q 3130 4179 3296 4179 
L 5037 4179 
z
M 755 3763 
Q 1517 3565 1517 3475 
Q 1517 3418 1318 3296 
L 1318 -736 
Q 1318 -806 1267 -844 
Q 1216 -883 1021 -953 
Q 826 -1024 781 -1024 
Q 736 -1024 736 -985 
Q 736 -947 752 -688 
Q 768 -429 768 -96 
L 768 3194 
Q 768 3514 755 3763 
z
M 2746 2938 
L 3706 2938 
L 3866 3174 
Q 3904 3232 3952 3232 
Q 4000 3232 4262 3081 
Q 4525 2931 4525 2873 
Q 4525 2816 4294 2656 
L 4294 883 
L 4301 320 
Q 4301 237 4259 201 
Q 4218 166 4051 102 
Q 3885 38 3830 38 
Q 3776 38 3776 211 
L 3776 486 
L 2618 486 
L 2618 122 
Q 2618 64 2560 19 
Q 2502 -26 2336 -90 
Q 2170 -154 2125 -154 
Q 2080 -154 2093 -45 
Q 2118 211 2118 544 
L 2118 2701 
Q 2118 2970 2099 3245 
Q 2618 3059 2746 2938 
z
M 2618 1837 
L 3776 1837 
L 3776 2758 
L 2618 2758 
L 2618 1837 
z
M 3776 1638 
L 2618 1638 
L 2618 672 
L 3776 672 
L 3776 1638 
z
" transform="scale(0.015625)"/>
        <path id="STZhongsong-6b47" d="M 2624 2771 
L 1376 2771 
Q 1658 2630 1786 2537 
Q 1914 2445 1914 2409 
Q 1914 2374 1802 2352 
Q 1690 2330 1498 2150 
L 2874 2150 
L 3027 2330 
Q 3072 2381 3113 2381 
Q 3155 2381 3290 2291 
Q 3955 3386 4192 4902 
Q 4486 4800 4688 4710 
Q 4890 4621 4931 4589 
Q 4973 4557 4973 4525 
Q 4973 4461 4877 4435 
Q 4781 4410 4745 4368 
Q 4710 4326 4556 4003 
Q 4403 3680 4269 3424 
L 5325 3424 
L 5536 3661 
Q 5587 3718 5638 3718 
Q 5690 3718 5949 3475 
Q 6208 3232 6208 3162 
Q 6208 3078 6041 3065 
Q 5875 3053 5705 2921 
Q 5536 2790 5101 2323 
L 4973 2342 
Q 5190 2778 5344 3219 
L 4154 3219 
Q 3840 2643 3411 2214 
Q 3635 2054 3664 2028 
Q 3693 2003 3693 1978 
Q 3693 1920 3437 1773 
Q 3430 1453 3372 752 
Q 3315 51 3267 -179 
Q 3219 -410 3075 -570 
Q 2931 -730 2675 -832 
Q 2419 -934 2345 -934 
Q 2272 -934 2259 -845 
Q 2221 -621 2115 -521 
Q 2010 -422 1670 -326 
L 1715 -186 
Q 2221 -294 2409 -294 
Q 2598 -294 2672 -214 
Q 2746 -134 2794 118 
Q 2842 371 2877 876 
Q 2912 1382 2912 1965 
L 1888 1965 
Q 2054 1888 2198 1808 
Q 2342 1728 2358 1709 
Q 2374 1690 2374 1658 
Q 2374 1626 2298 1600 
Q 2221 1587 2138 1453 
L 2054 1325 
Q 2701 1114 2701 902 
Q 2701 774 2598 649 
Q 2496 525 2441 525 
Q 2387 525 2342 640 
Q 2214 973 1971 1203 
Q 1638 704 1139 352 
L 1139 256 
L 2010 256 
L 2221 480 
Q 2259 518 2297 518 
Q 2336 518 2509 336 
Q 2682 154 2682 106 
Q 2682 58 2598 58 
L 1133 58 
L 1037 -58 
Q 998 -96 973 -96 
Q 902 -96 448 218 
Q 595 301 646 361 
Q 698 422 698 499 
L 698 1466 
Q 480 1306 186 1146 
L 115 1229 
Q 896 1894 1280 2662 
Q 1171 2630 1036 2604 
Q 902 2579 877 2579 
Q 826 2579 838 2630 
Q 858 2835 858 3149 
L 858 4262 
Q 858 4416 845 4704 
Q 1216 4563 1491 4410 
L 2560 4410 
L 2707 4608 
Q 2758 4672 2812 4672 
Q 2867 4672 3046 4547 
Q 3226 4422 3306 4364 
Q 3386 4307 3386 4256 
Q 3386 4205 3155 4083 
L 3155 3200 
L 3168 2720 
Q 3168 2682 3152 2659 
Q 3136 2637 3046 2592 
Q 2957 2547 2848 2518 
Q 2739 2490 2681 2490 
Q 2624 2490 2624 2541 
L 2624 2771 
z
M 1376 3706 
L 2624 3706 
L 2624 4230 
L 1376 4230 
L 1376 3706 
z
M 1376 2976 
L 2624 2976 
L 2624 3507 
L 1376 3507 
L 1376 2976 
z
M 1306 1965 
Q 1114 1786 960 1664 
Q 1203 1581 1248 1558 
Q 1293 1536 1293 1501 
Q 1293 1466 1139 1370 
L 1139 499 
Q 1594 1133 1843 1965 
L 1306 1965 
z
M 4666 1728 
Q 4582 646 4224 16 
Q 3866 -614 2861 -1203 
L 2778 -1114 
Q 3398 -608 3699 -86 
Q 4000 435 4096 1107 
Q 4192 1779 4192 2925 
Q 4390 2912 4598 2880 
Q 4806 2848 4876 2822 
Q 4947 2797 4947 2755 
Q 4947 2714 4768 2624 
Q 4883 1286 5235 553 
Q 5587 -179 6323 -525 
L 6298 -672 
Q 6099 -646 5971 -646 
Q 5843 -646 5747 -684 
Q 5651 -723 5517 -877 
Q 5485 -909 5456 -909 
Q 5427 -909 5382 -870 
Q 5338 -832 5158 -489 
Q 4979 -147 4857 352 
Q 4736 851 4666 1728 
z
" transform="scale(0.015625)"/>
       </defs>
       <use xlink:href="#STZhongsong-95f4"/>
       <use xlink:href="#STZhongsong-6b47" transform="translate(99.999985 0)"/>
       <use xlink:href="#STZhongsong-6d3b" transform="translate(199.999969 0)"/>
       <use xlink:href="#STZhongsong-8dc3" transform="translate(299.999954 0)"/>
      </g>
     </g>
    </g>
    <g id="xtick_4">
     <g id="line2d_4">
      <g>
       <use xlink:href="#me8b7670c23" x="617.558002" y="404.514062" style="fill: #111111; stroke: #111111; stroke-width: 0.8"/>
      </g>
     </g>
     <g id="text_4">
      <!-- 长期活跃 -->
      <g style="fill: #111111" transform="translate(587.558002 422.628125) scale(0.15 -0.15)">
       <defs>
        <path id="STZhongsong-957f" d="M 1818 2298 
L 1818 4218 
Q 1818 4544 1798 4819 
Q 2643 4666 2643 4544 
Q 2643 4480 2406 4339 
L 2406 2528 
Q 3539 3379 4621 4672 
Q 4890 4461 5053 4294 
Q 5216 4128 5216 4089 
Q 5216 4051 5187 4044 
Q 5158 4038 5075 4038 
Q 4838 4038 4582 3808 
Q 4147 3418 3664 3098 
Q 3181 2778 2406 2355 
L 2406 2298 
L 4966 2298 
L 5242 2694 
Q 5325 2810 5382 2810 
Q 5440 2810 5747 2515 
Q 6054 2221 6054 2150 
Q 6054 2080 5869 2080 
L 3328 2080 
Q 3744 1126 4448 611 
Q 5152 96 6266 -70 
L 6259 -211 
Q 5856 -230 5705 -304 
Q 5555 -378 5395 -614 
Q 5363 -666 5318 -666 
Q 5216 -666 4617 -259 
Q 4019 147 3696 668 
Q 3373 1190 3110 2080 
L 2406 2080 
L 2406 115 
L 3565 506 
L 3635 390 
Q 2630 -198 2278 -448 
Q 1926 -698 1856 -803 
Q 1786 -909 1750 -909 
Q 1715 -909 1692 -889 
Q 1670 -870 1542 -697 
Q 1414 -525 1299 -358 
Q 1619 -115 1718 67 
Q 1818 250 1818 563 
L 1818 2080 
L 653 2080 
Q 480 2080 384 2035 
L 237 2330 
Q 371 2298 557 2298 
L 1818 2298 
z
" transform="scale(0.015625)"/>
       </defs>
       <use xlink:href="#STZhongsong-957f"/>
       <use xlink:href="#STZhongsong-671f" transform="translate(99.999985 0)"/>
       <use xlink:href="#STZhongsong-6d3b" transform="translate(199.999969 0)"/>
       <use xlink:href="#STZhongsong-8dc3" transform="translate(299.999954 0)"/>
      </g>
     </g>
    </g>
    <g id="xtick_5">
     <g id="line2d_5">
      <g>
       <use xlink:href="#me8b7670c23" x="770.123504" y="404.514062" style="fill: #111111; stroke: #111111; stroke-width: 0.8"/>
      </g>
     </g>
     <g id="text_5">
      <!-- 十年持续活跃 -->
      <g style="fill: #111111" transform="translate(725.123504 422.75) scale(0.15 -0.15)">
       <defs>
        <path id="STZhongsong-5341" d="M 3430 2566 
L 5056 2566 
L 5370 2970 
Q 5427 3053 5478 3053 
Q 5562 3053 5843 2771 
Q 6125 2490 6125 2426 
Q 6125 2362 6010 2362 
L 3430 2362 
L 3430 -179 
Q 3430 -506 3437 -634 
L 3450 -864 
Q 3450 -890 3434 -912 
Q 3418 -934 3152 -1011 
Q 2886 -1088 2851 -1088 
Q 2816 -1088 2816 -986 
L 2822 -736 
Q 2835 -480 2835 -160 
L 2835 2362 
L 787 2362 
Q 614 2362 518 2317 
L 403 2598 
Q 538 2566 723 2566 
L 2835 2566 
L 2835 4275 
Q 2835 4595 2822 4845 
Q 3142 4787 3356 4723 
Q 3571 4659 3628 4630 
Q 3686 4602 3686 4576 
Q 3686 4518 3430 4371 
L 3430 2566 
z
" transform="scale(0.015625)"/>
        <path id="STZhongsong-5e74" d="M 1939 3827 
L 4794 3827 
L 5082 4237 
Q 5133 4314 5171 4314 
Q 5210 4314 5328 4224 
Q 5446 4134 5612 3993 
Q 5779 3853 5840 3789 
Q 5901 3725 5901 3686 
Q 5901 3616 5811 3616 
L 3744 3616 
L 3744 2496 
L 4474 2496 
L 4736 2874 
Q 4787 2938 4822 2938 
Q 4858 2938 4970 2858 
Q 5082 2778 5232 2643 
Q 5382 2509 5414 2461 
Q 5446 2413 5446 2368 
Q 5446 2272 5350 2272 
L 3744 2272 
L 3744 1043 
L 5254 1043 
L 5542 1427 
Q 5587 1485 5654 1485 
Q 5722 1485 6013 1213 
Q 6304 941 6304 883 
Q 6304 826 6195 826 
L 3744 826 
Q 3744 19 3750 -294 
L 3763 -864 
Q 3763 -909 3731 -941 
Q 3699 -973 3475 -1056 
Q 3251 -1139 3203 -1139 
Q 3155 -1139 3155 -1037 
L 3168 -390 
Q 3174 -38 3174 826 
L 653 826 
Q 480 826 384 781 
L 269 1075 
Q 403 1043 589 1043 
L 1498 1043 
L 1498 2170 
Q 1498 2643 1485 2739 
Q 1856 2630 2138 2496 
L 3174 2496 
L 3174 3616 
L 1798 3616 
Q 1440 3046 1136 2713 
Q 832 2381 339 1984 
L 243 2086 
Q 1261 3174 1741 4909 
Q 2259 4704 2400 4611 
Q 2541 4518 2541 4457 
Q 2541 4397 2435 4384 
Q 2330 4371 2253 4288 
Q 2176 4205 1939 3827 
z
M 3174 2272 
L 2054 2272 
L 2054 1043 
L 3174 1043 
L 3174 2272 
z
" transform="scale(0.015625)"/>
        <path id="STZhongsong-6301" d="M 3827 2586 
L 3827 3546 
L 3059 3546 
Q 2906 3546 2790 3494 
L 2662 3814 
Q 2797 3782 2982 3782 
L 3827 3782 
L 3827 4326 
Q 3827 4730 3808 4928 
Q 3981 4902 4301 4803 
Q 4621 4704 4621 4640 
Q 4621 4576 4371 4461 
L 4371 3782 
L 4928 3782 
L 5152 4077 
Q 5203 4147 5264 4147 
Q 5325 4147 5577 3900 
Q 5830 3654 5830 3603 
Q 5830 3546 5670 3546 
L 4371 3546 
L 4371 2586 
L 5370 2586 
L 5600 2874 
Q 5664 2957 5718 2957 
Q 5773 2957 6025 2704 
Q 6278 2451 6278 2400 
Q 6278 2349 6099 2349 
L 2714 2349 
Q 2547 2349 2445 2304 
L 2330 2618 
Q 2464 2586 2650 2586 
L 3827 2586 
z
M 1395 3078 
L 595 3078 
Q 435 3078 320 3046 
L 211 3347 
Q 346 3315 531 3315 
L 1395 3315 
L 1395 4166 
Q 1395 4538 1382 4858 
Q 2157 4627 2157 4538 
Q 2157 4486 1914 4384 
L 1914 3315 
L 2138 3315 
L 2330 3590 
Q 2381 3667 2425 3667 
Q 2470 3667 2713 3430 
Q 2957 3194 2957 3136 
Q 2957 3078 2810 3078 
L 1914 3078 
L 1914 1933 
L 2720 2221 
L 2790 2118 
L 1914 1568 
L 1914 -282 
Q 1914 -525 1846 -669 
Q 1779 -813 1561 -921 
Q 1344 -1030 1210 -1030 
Q 1107 -1030 1101 -896 
Q 1088 -685 957 -569 
Q 826 -454 435 -333 
L 474 -179 
Q 896 -262 1075 -262 
Q 1254 -262 1324 -217 
Q 1395 -173 1395 -45 
L 1395 1261 
Q 870 966 666 781 
Q 621 742 595 742 
Q 570 742 554 758 
Q 538 774 419 947 
Q 301 1120 173 1357 
Q 800 1536 1395 1747 
L 1395 3078 
z
M 5050 1523 
L 5338 1523 
L 5581 1818 
Q 5645 1894 5702 1894 
Q 5760 1894 6009 1657 
Q 6259 1421 6259 1360 
Q 6259 1299 6125 1299 
L 5050 1299 
L 5050 -493 
Q 5050 -774 4717 -960 
Q 4384 -1146 4282 -1146 
Q 4224 -1146 4192 -1024 
Q 4134 -781 3945 -656 
Q 3757 -531 3450 -429 
L 3475 -301 
Q 4083 -416 4246 -416 
Q 4410 -416 4448 -361 
Q 4486 -307 4486 -160 
L 4486 1299 
L 2714 1299 
Q 2554 1299 2438 1267 
L 2330 1555 
Q 2464 1523 2650 1523 
L 4486 1523 
Q 4486 2195 4474 2310 
Q 4608 2298 4905 2224 
Q 5203 2150 5203 2089 
Q 5203 2029 5050 1952 
L 5050 1523 
z
M 2842 1158 
Q 3296 947 3523 771 
Q 3750 595 3750 428 
Q 3750 262 3641 86 
Q 3533 -90 3405 -90 
Q 3315 -90 3280 -32 
Q 3245 26 3219 182 
Q 3194 339 3072 598 
Q 2950 858 2771 1075 
L 2842 1158 
z
" transform="scale(0.015625)"/>
        <path id="STZhongsong-7eed" d="M 3885 3802 
L 3149 3802 
Q 2976 3802 2880 3757 
L 2752 4026 
Q 2886 3994 3072 3994 
L 3885 3994 
Q 3885 4826 3872 4915 
Q 4640 4774 4640 4672 
Q 4640 4627 4410 4518 
L 4410 3994 
L 4986 3994 
L 5235 4358 
Q 5280 4422 5341 4422 
Q 5402 4422 5485 4346 
L 5747 4090 
Q 5939 3917 5939 3859 
Q 5939 3802 5818 3802 
L 4410 3802 
L 4410 3053 
L 5312 3053 
L 5453 3232 
Q 5510 3309 5555 3309 
Q 5632 3309 5917 3075 
Q 6202 2842 6202 2752 
Q 6202 2675 5990 2668 
Q 5779 2662 5590 2531 
Q 5402 2400 5184 2176 
L 5088 2234 
Q 5216 2483 5338 2854 
L 2931 2854 
Q 2758 2854 2662 2810 
L 2541 3072 
Q 2477 3008 2342 2816 
Q 1715 1907 1229 1312 
L 2502 1510 
L 2515 1389 
Q 1818 1139 1562 1033 
Q 1306 928 1165 848 
Q 1024 768 992 768 
Q 960 768 941 784 
Q 922 800 806 976 
Q 691 1152 589 1312 
Q 768 1350 912 1446 
Q 1056 1542 1177 1718 
Q 1299 1894 1645 2534 
Q 902 2374 768 2310 
Q 634 2246 611 2246 
Q 589 2246 573 2268 
Q 557 2291 496 2441 
Q 435 2592 378 2765 
Q 589 2810 710 2938 
Q 832 3066 1152 3728 
Q 1472 4390 1619 4832 
Q 1901 4717 2093 4605 
Q 2285 4493 2329 4448 
Q 2374 4403 2374 4378 
Q 2374 4314 2195 4307 
Q 2131 4307 2086 4268 
Q 2042 4230 1939 4083 
Q 1485 3430 934 2739 
L 1754 2752 
L 2221 3654 
Q 2650 3398 2717 3344 
Q 2784 3290 2784 3245 
Q 2784 3174 2669 3155 
Q 2605 3142 2547 3078 
Q 2688 3053 2854 3053 
L 3885 3053 
L 3885 3802 
z
M 3117 2694 
Q 3584 2554 3808 2416 
Q 4032 2278 4032 2067 
Q 4032 1926 3958 1804 
Q 3885 1683 3824 1683 
Q 3763 1683 3728 1708 
Q 3693 1734 3619 1891 
Q 3546 2048 3376 2269 
Q 3206 2490 3066 2592 
L 3117 2694 
z
M 4602 717 
Q 4563 582 4480 390 
Q 5050 218 5331 80 
Q 5613 -58 5715 -192 
Q 5818 -326 5818 -540 
Q 5818 -755 5744 -873 
Q 5670 -992 5564 -992 
Q 5459 -992 5370 -826 
Q 5043 -237 4390 218 
Q 4147 -211 3616 -489 
Q 3085 -768 1920 -1050 
L 1875 -909 
Q 2874 -576 3398 -189 
Q 3923 198 4090 717 
L 2598 717 
Q 2464 717 2323 678 
L 2214 941 
Q 2349 909 2534 909 
L 4141 909 
Q 4282 1498 4288 2605 
Q 4762 2502 4890 2441 
Q 5018 2381 5018 2329 
Q 5018 2278 4922 2240 
Q 4883 2221 4867 2166 
Q 4851 2112 4832 1933 
Q 4762 1280 4659 909 
L 5178 909 
L 5440 1286 
Q 5478 1350 5564 1350 
Q 5651 1350 5920 1078 
Q 6189 806 6189 761 
Q 6189 717 6054 717 
L 4602 717 
z
M 2694 1997 
Q 3181 1850 3433 1715 
Q 3686 1581 3686 1382 
Q 3686 1312 3644 1158 
Q 3603 1005 3482 1005 
Q 3392 1005 3315 1165 
Q 3136 1549 2650 1894 
L 2694 1997 
z
M 2662 422 
L 1466 -102 
Q 960 -320 832 -474 
Q 800 -512 774 -512 
Q 749 -512 723 -480 
Q 698 -448 608 -297 
Q 518 -147 397 77 
Q 922 128 1318 211 
Q 1715 294 2624 525 
L 2662 422 
z
" transform="scale(0.015625)"/>
       </defs>
       <use xlink:href="#STZhongsong-5341"/>
       <use xlink:href="#STZhongsong-5e74" transform="translate(99.999985 0)"/>
       <use xlink:href="#STZhongsong-6301" transform="translate(199.999969 0)"/>
       <use xlink:href="#STZhongsong-7eed" transform="translate(299.999954 0)"/>
       <use xlink:href="#STZhongsong-6d3b" transform="translate(399.999939 0)"/>
       <use xlink:href="#STZhongsong-8dc3" transform="translate(499.999924 0)"/>
      </g>
     </g>
    </g>
    <g id="text_6">
     <!-- 格网类型 -->
     <g style="fill: #111111" transform="translate(430.9925 442.399062) scale(0.17 -0.17)">
      <defs>
       <path id="STZhongsong-683c" d="M 1722 3334 
L 1869 3334 
L 2029 3571 
Q 2093 3667 2147 3667 
Q 2202 3667 2429 3449 
Q 2656 3232 2656 3171 
Q 2656 3110 2522 3110 
L 1722 3110 
L 1722 2573 
Q 2112 2445 2320 2281 
Q 2528 2118 2528 1875 
Q 2528 1760 2413 1638 
Q 2298 1517 2208 1517 
Q 2118 1517 2083 1542 
Q 2048 1568 2022 1709 
Q 1933 2182 1722 2394 
L 1722 -691 
Q 1722 -755 1706 -771 
Q 1690 -787 1597 -844 
Q 1504 -902 1363 -960 
Q 1222 -1018 1200 -1018 
Q 1178 -1018 1178 -960 
L 1190 -691 
Q 1203 -371 1203 -90 
L 1203 1971 
Q 1037 1562 825 1242 
Q 614 922 192 467 
L 102 538 
Q 749 1594 1094 3110 
L 570 3110 
Q 403 3110 294 3078 
L 186 3366 
Q 320 3334 506 3334 
L 1203 3334 
L 1203 4134 
Q 1203 4557 1184 4864 
Q 1965 4685 1965 4614 
Q 1965 4570 1722 4429 
L 1722 3334 
z
M 3341 3398 
Q 2995 2848 2464 2298 
L 2362 2362 
Q 2771 2995 2992 3516 
Q 3213 4038 3373 4806 
Q 3814 4666 3932 4602 
Q 4051 4538 4051 4499 
Q 4051 4461 3955 4416 
Q 3859 4371 3744 4137 
Q 3629 3904 3590 3834 
L 4813 3834 
L 4998 4115 
Q 5030 4166 5065 4166 
Q 5101 4166 5254 4060 
Q 5408 3955 5526 3868 
Q 5645 3782 5680 3737 
Q 5715 3693 5715 3648 
Q 5715 3571 5619 3558 
Q 5523 3546 5404 3456 
Q 5286 3366 5190 3219 
Q 4832 2688 4518 2374 
Q 5178 1952 6182 1754 
L 6182 1651 
Q 5869 1606 5773 1548 
Q 5677 1491 5613 1338 
Q 5587 1267 5520 1267 
Q 5453 1267 4960 1513 
Q 4467 1760 4147 2035 
Q 3725 1702 3034 1376 
Q 3251 1306 3456 1203 
L 4678 1203 
L 4781 1382 
Q 4813 1440 4880 1440 
Q 4947 1440 5190 1289 
Q 5434 1139 5434 1062 
Q 5434 986 5248 922 
L 5248 -186 
Q 5248 -365 5254 -493 
L 5261 -691 
Q 5261 -730 5197 -771 
Q 5133 -813 4973 -873 
Q 4813 -934 4755 -934 
Q 4717 -934 4717 -870 
L 4717 -390 
L 3443 -390 
L 3443 -813 
Q 3443 -877 3424 -896 
Q 3405 -915 3222 -979 
Q 3040 -1043 2963 -1043 
Q 2938 -1043 2938 -992 
L 2944 -755 
Q 2950 -646 2950 -454 
L 2950 794 
Q 2950 1165 2938 1331 
Q 2438 1101 2022 941 
L 1971 1037 
Q 3290 1786 3859 2336 
Q 3539 2746 3341 3398 
z
M 3494 3661 
Q 3469 3610 3456 3590 
Q 3750 3002 4160 2650 
Q 4544 3091 4826 3661 
L 3494 3661 
z
M 3443 -198 
L 4717 -198 
L 4717 1011 
L 3443 1011 
L 3443 -198 
z
" transform="scale(0.015625)"/>
       <path id="STZhongsong-7f51" d="M 1542 4320 
L 4992 4320 
L 5158 4614 
Q 5197 4678 5248 4678 
Q 5299 4678 5603 4464 
Q 5907 4250 5907 4179 
Q 5907 4109 5651 4038 
L 5651 -166 
Q 5651 -499 5584 -646 
Q 5517 -794 5245 -928 
Q 4973 -1062 4890 -1062 
Q 4845 -1062 4819 -966 
Q 4742 -685 4588 -576 
Q 4435 -467 3917 -326 
L 3936 -186 
Q 4608 -301 4800 -301 
Q 4992 -301 5037 -230 
Q 5082 -160 5082 32 
L 5082 4134 
L 1498 4134 
L 1498 -736 
Q 1498 -781 1485 -800 
Q 1472 -819 1360 -883 
Q 1248 -947 1110 -995 
Q 973 -1043 941 -1043 
Q 909 -1043 915 -986 
Q 954 -666 954 -166 
L 954 4141 
Q 954 4461 941 4710 
Q 1197 4608 1542 4320 
z
M 2470 2534 
Q 2637 3104 2778 3776 
Q 3053 3654 3206 3558 
Q 3360 3462 3389 3433 
Q 3418 3405 3418 3373 
Q 3418 3315 3334 3289 
Q 3251 3264 3203 3184 
Q 3155 3104 3027 2768 
Q 2899 2432 2765 2144 
Q 3245 1459 3245 992 
Q 3245 813 3126 653 
Q 3008 493 2938 493 
Q 2822 493 2790 723 
Q 2720 1261 2547 1683 
Q 2093 781 1632 262 
L 1542 390 
Q 2029 1126 2349 2118 
Q 2138 2534 1619 3290 
L 1709 3360 
Q 2138 2938 2470 2534 
z
M 4006 2522 
Q 4179 3104 4288 3712 
Q 4960 3354 4960 3238 
Q 4960 3194 4873 3165 
Q 4787 3136 4723 3056 
Q 4659 2976 4550 2688 
Q 4442 2400 4307 2106 
Q 4883 1235 4883 800 
Q 4883 646 4787 508 
Q 4691 371 4604 371 
Q 4518 371 4461 576 
Q 4320 1088 4096 1658 
Q 3654 787 3014 102 
L 2938 192 
Q 3494 1005 3885 2150 
Q 3686 2586 3347 3136 
L 3462 3181 
Q 3757 2835 4006 2522 
z
" transform="scale(0.015625)"/>
       <path id="STZhongsong-7c7b" d="M 3757 3251 
Q 4102 3763 4467 4557 
Q 4883 4326 4985 4249 
Q 5088 4173 5088 4128 
Q 5088 4064 4985 4061 
Q 4883 4058 4755 3930 
Q 4499 3686 3987 3251 
L 4973 3251 
L 5197 3590 
Q 5261 3686 5315 3686 
Q 5370 3686 5686 3430 
Q 6003 3174 6003 3116 
Q 6003 3059 5862 3059 
L 3514 3059 
L 3514 2861 
Q 4365 2675 4800 2524 
Q 5235 2374 5379 2227 
Q 5523 2080 5523 1904 
Q 5523 1728 5472 1635 
Q 5421 1542 5344 1542 
Q 5267 1542 5088 1696 
Q 4742 1984 4448 2179 
Q 4154 2374 3514 2714 
L 3526 1965 
Q 3526 1901 3462 1856 
Q 3398 1811 3251 1769 
Q 3104 1728 2982 1728 
Q 2925 1728 2925 1786 
L 2938 2086 
Q 2950 2458 2950 2752 
Q 2528 2221 2061 1952 
Q 1594 1683 595 1382 
L 557 1485 
Q 1786 2074 2483 3059 
L 877 3059 
Q 717 3059 608 3027 
L 499 3283 
Q 634 3251 813 3251 
L 2950 3251 
L 2950 4160 
Q 2950 4582 2931 4890 
Q 3763 4678 3763 4570 
Q 3763 4499 3514 4403 
L 3514 3251 
L 3757 3251 
z
M 1517 4493 
Q 1971 4314 2211 4141 
Q 2451 3968 2451 3798 
Q 2451 3629 2348 3478 
Q 2246 3328 2106 3328 
Q 2042 3328 2019 3366 
Q 1997 3405 1965 3507 
Q 1830 3968 1472 4410 
L 1517 4493 
z
M 3309 864 
Q 3155 314 3027 115 
Q 2899 -83 2550 -332 
Q 2202 -582 1702 -752 
Q 1203 -922 326 -1043 
L 314 -928 
Q 813 -800 1213 -627 
Q 1613 -454 1958 -198 
Q 2304 58 2467 285 
Q 2630 512 2720 864 
L 640 864 
Q 486 864 371 832 
L 262 1088 
Q 397 1056 576 1056 
L 2765 1056 
Q 2822 1389 2829 1715 
Q 3590 1555 3590 1472 
Q 3590 1434 3510 1395 
Q 3430 1357 3414 1277 
Q 3398 1197 3360 1056 
L 5210 1056 
L 5421 1363 
Q 5472 1440 5545 1440 
Q 5619 1440 5891 1200 
Q 6163 960 6163 912 
Q 6163 864 6054 864 
L 3616 864 
Q 4013 237 4598 -86 
Q 5184 -410 6170 -525 
L 6170 -653 
Q 5779 -678 5654 -736 
Q 5530 -794 5402 -986 
Q 5363 -1037 5318 -1037 
Q 5222 -1037 4688 -752 
Q 4154 -467 3885 -124 
Q 3616 218 3418 864 
L 3309 864 
z
" transform="scale(0.015625)"/>
       <path id="STZhongsong-578b" d="M 5146 4794 
Q 5434 4704 5632 4624 
Q 5830 4544 5862 4521 
Q 5894 4499 5894 4474 
Q 5894 4410 5677 4282 
L 5677 1530 
Q 5677 1248 5609 1155 
Q 5542 1062 5321 950 
Q 5101 838 5024 838 
Q 4947 838 4934 922 
Q 4909 1146 4752 1277 
Q 4595 1408 4339 1504 
L 4358 1594 
Q 4851 1510 4966 1510 
Q 5082 1510 5120 1532 
Q 5158 1555 5158 1632 
L 5158 4166 
Q 5158 4531 5146 4794 
z
M 2029 2682 
Q 1971 1837 1667 1411 
Q 1363 986 422 531 
L 352 640 
Q 954 1024 1219 1462 
Q 1485 1901 1536 2682 
L 858 2682 
Q 717 2682 614 2643 
L 512 2899 
Q 640 2874 800 2874 
L 1549 2874 
Q 1594 3590 1574 4045 
L 1126 4045 
Q 986 4045 883 4006 
L 781 4262 
Q 909 4237 1069 4237 
L 3130 4237 
L 3309 4525 
Q 3366 4614 3420 4614 
Q 3475 4614 3721 4380 
Q 3968 4147 3968 4096 
Q 3968 4045 3872 4045 
L 3104 4045 
L 3104 2874 
L 3302 2874 
L 3456 3117 
Q 3514 3194 3568 3194 
Q 3622 3194 3836 2992 
Q 4051 2790 4051 2736 
Q 4051 2682 3942 2682 
L 3104 2682 
L 3104 1965 
L 3117 1453 
Q 3117 1370 3078 1328 
Q 3040 1286 2864 1200 
Q 2688 1114 2646 1114 
Q 2605 1114 2605 1222 
L 2605 2682 
L 2029 2682 
z
M 2074 4045 
Q 2080 3456 2042 2874 
L 2605 2874 
L 2605 4045 
L 2074 4045 
z
M 4154 4090 
Q 4403 4032 4572 3968 
Q 4742 3904 4784 3885 
Q 4826 3866 4826 3840 
Q 4826 3782 4608 3654 
L 4608 2541 
L 4621 1971 
Q 4621 1914 4585 1872 
Q 4550 1830 4400 1750 
Q 4250 1670 4202 1670 
Q 4154 1670 4154 1715 
Q 4154 1760 4160 1929 
Q 4166 2099 4166 2496 
L 4166 3565 
Q 4166 3859 4154 4090 
z
M 2899 -614 
L 2899 256 
L 1510 256 
Q 1338 256 1242 211 
L 1126 499 
Q 1261 467 1446 467 
L 2899 467 
Q 2899 1075 2886 1184 
Q 3130 1146 3350 1085 
Q 3571 1024 3622 1001 
Q 3674 979 3674 954 
Q 3674 896 3456 768 
L 3456 467 
L 4435 467 
L 4653 762 
Q 4691 819 4739 819 
Q 4787 819 4915 713 
Q 5043 608 5206 483 
Q 5370 358 5370 307 
Q 5370 256 5216 256 
L 3456 256 
L 3456 -614 
L 5120 -614 
L 5414 -243 
Q 5466 -186 5504 -186 
Q 5594 -186 5894 -461 
Q 6195 -736 6195 -781 
Q 6195 -826 6042 -826 
L 698 -826 
Q 525 -826 429 -870 
L 314 -582 
Q 448 -614 634 -614 
L 2899 -614 
z
" transform="scale(0.015625)"/>
      </defs>
      <use xlink:href="#STZhongsong-683c"/>
      <use xlink:href="#STZhongsong-7f51" transform="translate(99.999985 0)"/>
      <use xlink:href="#STZhongsong-7c7b" transform="translate(199.999969 0)"/>
      <use xlink:href="#STZhongsong-578b" transform="translate(299.999954 0)"/>
     </g>
    </g>
   </g>
   <g id="matplotlib.axis_2">
    <g id="ytick_1">
     <g id="line2d_6">
      <path d="M 80.68 404.514062 
L 849.305 404.514062 
" clip-path="url(#pca44b0d7b8)" style="fill: none; stroke: #ececec; stroke-width: 0.9; stroke-linecap: square"/>
     </g>
     <g id="line2d_7">
      <defs>
       <path id="m457e8bf5c1" d="M 0 0 
L -3.5 0 
" style="stroke: #111111; stroke-width: 0.8"/>
      </defs>
      <g>
       <use xlink:href="#m457e8bf5c1" x="80.68" y="404.514062" style="fill: #111111; stroke: #111111; stroke-width: 0.8"/>
      </g>
     </g>
     <g id="text_7">
      <!-- 0 -->
      <g style="fill: #111111" transform="translate(64.38 409.883594) scale(0.15 -0.15)">
       <defs>
        <path id="STZhongsong-30" d="M 326 2182 
Q 326 3251 774 3843 
Q 1222 4435 1997 4435 
Q 2752 4435 3197 3827 
Q 3642 3219 3642 2144 
Q 3642 1139 3178 531 
Q 2714 -77 1952 -77 
Q 1229 -77 777 524 
Q 326 1126 326 2182 
z
M 3040 2182 
Q 3040 3104 2758 3616 
Q 2477 4128 1978 4128 
Q 1478 4128 1200 3590 
Q 922 3053 922 2118 
Q 922 1229 1210 733 
Q 1498 237 1971 237 
Q 2470 237 2755 752 
Q 3040 1267 3040 2182 
z
" transform="scale(0.015625)"/>
       </defs>
       <use xlink:href="#STZhongsong-30"/>
      </g>
     </g>
    </g>
    <g id="ytick_2">
     <g id="line2d_8">
      <path d="M 80.68 336.657615 
L 849.305 336.657615 
" clip-path="url(#pca44b0d7b8)" style="fill: none; stroke: #ececec; stroke-width: 0.9; stroke-linecap: square"/>
     </g>
     <g id="line2d_9">
      <g>
       <use xlink:href="#m457e8bf5c1" x="80.68" y="336.657615" style="fill: #111111; stroke: #111111; stroke-width: 0.8"/>
      </g>
     </g>
     <g id="text_8">
      <!-- 5000 -->
      <g style="fill: #111111" transform="translate(36.48 342.027147) scale(0.15 -0.15)">
       <defs>
        <path id="STZhongsong-35" d="M 934 4358 
L 2880 4358 
Q 3046 4358 3097 4387 
Q 3149 4416 3155 4512 
L 3386 4512 
L 3386 3853 
L 1229 3853 
L 1171 2752 
Q 1530 2848 1990 2848 
Q 2771 2848 3228 2451 
Q 3686 2054 3686 1414 
Q 3686 787 3212 355 
Q 2739 -77 2029 -77 
Q 1414 -77 982 236 
Q 550 550 550 890 
Q 550 1037 640 1123 
Q 730 1210 838 1210 
Q 1062 1210 1203 813 
Q 1421 218 2042 218 
Q 2515 218 2819 528 
Q 3123 838 3123 1312 
Q 3123 1824 2777 2128 
Q 2432 2432 1843 2432 
Q 1280 2432 832 2246 
L 934 4358 
z
" transform="scale(0.015625)"/>
       </defs>
       <use xlink:href="#STZhongsong-35"/>
       <use xlink:href="#STZhongsong-30" transform="translate(61.999985 0)"/>
       <use xlink:href="#STZhongsong-30" transform="translate(123.999969 0)"/>
       <use xlink:href="#STZhongsong-30" transform="translate(185.999954 0)"/>
      </g>
     </g>
    </g>
    <g id="ytick_3">
     <g id="line2d_10">
      <path d="M 80.68 268.801168 
L 849.305 268.801168 
" clip-path="url(#pca44b0d7b8)" style="fill: none; stroke: #ececec; stroke-width: 0.9; stroke-linecap: square"/>
     </g>
     <g id="line2d_11">
      <g>
       <use xlink:href="#m457e8bf5c1" x="80.68" y="268.801168" style="fill: #111111; stroke: #111111; stroke-width: 0.8"/>
      </g>
     </g>
     <g id="text_9">
      <!-- 10000 -->
      <g style="fill: #111111" transform="translate(27.18 274.170699) scale(0.15 -0.15)">
       <defs>
        <path id="STZhongsong-31" d="M 2150 4358 
L 2387 4358 
L 2387 742 
Q 2387 422 2464 342 
Q 2541 262 2822 262 
L 3130 262 
L 3130 0 
L 1069 0 
L 1069 262 
L 1408 262 
Q 1670 262 1766 348 
Q 1862 435 1862 742 
L 1862 3718 
L 1069 3718 
L 1069 3987 
Q 1709 4070 2150 4358 
z
" transform="scale(0.015625)"/>
       </defs>
       <use xlink:href="#STZhongsong-31"/>
       <use xlink:href="#STZhongsong-30" transform="translate(61.999985 0)"/>
       <use xlink:href="#STZhongsong-30" transform="translate(123.999969 0)"/>
       <use xlink:href="#STZhongsong-30" transform="translate(185.999954 0)"/>
       <use xlink:href="#STZhongsong-30" transform="translate(247.999939 0)"/>
      </g>
     </g>
    </g>
    <g id="ytick_4">
     <g id="line2d_12">
      <path d="M 80.68 200.944721 
L 849.305 200.944721 
" clip-path="url(#pca44b0d7b8)" style="fill: none; stroke: #ececec; stroke-width: 0.9; stroke-linecap: square"/>
     </g>
     <g id="line2d_13">
      <g>
       <use xlink:href="#m457e8bf5c1" x="80.68" y="200.944721" style="fill: #111111; stroke: #111111; stroke-width: 0.8"/>
      </g>
     </g>
     <g id="text_10">
      <!-- 15000 -->
      <g style="fill: #111111" transform="translate(27.18 206.314252) scale(0.15 -0.15)">
       <use xlink:href="#STZhongsong-31"/>
       <use xlink:href="#STZhongsong-35" transform="translate(61.999985 0)"/>
       <use xlink:href="#STZhongsong-30" transform="translate(123.999969 0)"/>
       <use xlink:href="#STZhongsong-30" transform="translate(185.999954 0)"/>
       <use xlink:href="#STZhongsong-30" transform="translate(247.999939 0)"/>
      </g>
     </g>
    </g>
    <g id="ytick_5">
     <g id="line2d_14">
      <path d="M 80.68 133.088274 
L 849.305 133.088274 
" clip-path="url(#pca44b0d7b8)" style="fill: none; stroke: #ececec; stroke-width: 0.9; stroke-linecap: square"/>
     </g>
     <g id="line2d_15">
      <g>
       <use xlink:href="#m457e8bf5c1" x="80.68" y="133.088274" style="fill: #111111; stroke: #111111; stroke-width: 0.8"/>
      </g>
     </g>
     <g id="text_11">
      <!-- 20000 -->
      <g style="fill: #111111" transform="translate(27.18 138.457805) scale(0.15 -0.15)">
       <defs>
        <path id="STZhongsong-32" d="M 723 2714 
L 422 2675 
Q 397 2835 397 2989 
Q 397 3616 832 4025 
Q 1267 4435 1978 4435 
Q 2630 4435 3043 4064 
Q 3456 3693 3456 3098 
Q 3456 2669 3286 2349 
Q 3117 2029 2611 1603 
Q 2106 1178 1037 467 
L 2662 467 
Q 2963 467 3062 544 
Q 3162 621 3200 838 
L 3232 1018 
L 3494 1018 
L 3283 -154 
L 3085 -154 
L 3053 0 
L 320 0 
L 320 262 
L 819 640 
Q 1901 1453 2377 1977 
Q 2854 2502 2854 3066 
Q 2854 3507 2569 3788 
Q 2285 4070 1837 4070 
Q 1325 4070 1017 3753 
Q 710 3437 710 2918 
Q 710 2822 723 2714 
z
" transform="scale(0.015625)"/>
       </defs>
       <use xlink:href="#STZhongsong-32"/>
       <use xlink:href="#STZhongsong-30" transform="translate(61.999985 0)"/>
       <use xlink:href="#STZhongsong-30" transform="translate(123.999969 0)"/>
       <use xlink:href="#STZhongsong-30" transform="translate(185.999954 0)"/>
       <use xlink:href="#STZhongsong-30" transform="translate(247.999939 0)"/>
      </g>
     </g>
    </g>
    <g id="ytick_6">
     <g id="line2d_16">
      <path d="M 80.68 65.231826 
L 849.305 65.231826 
" clip-path="url(#pca44b0d7b8)" style="fill: none; stroke: #ececec; stroke-width: 0.9; stroke-linecap: square"/>
     </g>
     <g id="line2d_17">
      <g>
       <use xlink:href="#m457e8bf5c1" x="80.68" y="65.231826" style="fill: #111111; stroke: #111111; stroke-width: 0.8"/>
      </g>
     </g>
     <g id="text_12">
      <!-- 25000 -->
      <g style="fill: #111111" transform="translate(27.18 70.601358) scale(0.15 -0.15)">
       <use xlink:href="#STZhongsong-32"/>
       <use xlink:href="#STZhongsong-35" transform="translate(61.999985 0)"/>
       <use xlink:href="#STZhongsong-30" transform="translate(123.999969 0)"/>
       <use xlink:href="#STZhongsong-30" transform="translate(185.999954 0)"/>
       <use xlink:href="#STZhongsong-30" transform="translate(247.999939 0)"/>
      </g>
     </g>
    </g>
    <g id="text_13">
     <!-- 格网数量 -->
     <g style="fill: #111111" transform="translate(19.78 255.617187) rotate(-90) scale(0.17 -0.17)">
      <defs>
       <path id="STZhongsong-6570" d="M 2394 3334 
L 2938 3334 
L 3136 3616 
Q 3181 3680 3245 3680 
Q 3309 3680 3520 3462 
Q 3731 3245 3731 3193 
Q 3731 3142 3610 3142 
L 2394 3142 
L 2394 3027 
Q 2784 2938 3069 2819 
Q 3354 2701 3354 2515 
Q 3354 2381 3296 2227 
Q 3238 2074 3171 2074 
Q 3104 2074 3069 2109 
Q 3034 2144 2963 2259 
Q 2893 2374 2720 2556 
Q 2547 2739 2394 2854 
Q 2406 2381 2406 2259 
Q 2406 2138 2393 2099 
Q 2381 2061 2217 2006 
Q 2054 1952 1971 1933 
Q 2291 1811 2291 1722 
Q 2291 1670 2227 1660 
Q 2163 1651 2118 1609 
Q 2074 1568 1990 1434 
L 2637 1434 
L 2803 1619 
Q 2854 1677 2892 1677 
Q 2931 1677 3190 1481 
Q 3450 1286 3450 1228 
Q 3450 1171 3338 1148 
Q 3226 1126 3168 1088 
Q 3110 1050 3053 941 
Q 2848 563 2637 307 
Q 3040 205 3133 38 
Q 3226 -128 3226 -262 
Q 3226 -397 3187 -467 
Q 3149 -538 3101 -538 
Q 3053 -538 2816 -378 
Q 2579 -218 2278 -51 
Q 1664 -589 384 -992 
L 333 -877 
Q 1338 -371 1875 141 
Q 1440 326 845 474 
Q 1184 954 1331 1222 
L 691 1222 
Q 518 1222 422 1190 
L 307 1453 
Q 410 1434 627 1434 
L 1440 1434 
Q 1626 1824 1690 2035 
Q 1818 1997 1869 1978 
Q 1888 2515 1888 2874 
Q 1421 2125 282 1613 
L 243 1715 
Q 1075 2330 1549 3142 
L 589 3142 
Q 467 3142 390 3110 
L 301 3366 
Q 416 3334 550 3334 
L 1888 3334 
L 1888 4147 
Q 1888 4698 1875 4877 
Q 2592 4723 2592 4653 
Q 2592 4608 2394 4499 
L 2394 3334 
z
M 1856 1222 
L 1427 570 
Q 1914 480 2138 429 
Q 2413 762 2630 1222 
L 1856 1222 
z
M 4326 3270 
L 5222 3270 
L 5485 3590 
Q 5549 3661 5609 3661 
Q 5670 3661 5939 3421 
Q 6208 3181 6208 3117 
Q 6208 3072 6054 3072 
L 5050 3072 
Q 5638 2925 5638 2810 
Q 5638 2771 5542 2742 
Q 5446 2714 5404 2643 
Q 5363 2573 5338 2438 
Q 5088 1069 4749 518 
Q 5261 -186 6304 -646 
L 6246 -774 
Q 6080 -730 5933 -730 
Q 5658 -730 5446 -902 
Q 5389 -947 5363 -947 
Q 5299 -947 4934 -534 
Q 4570 -122 4448 102 
Q 4115 -301 3657 -579 
Q 3200 -858 2470 -1139 
L 2413 -1005 
Q 3642 -307 4211 544 
Q 3942 1152 3878 2342 
Q 3654 1946 3322 1491 
L 3213 1555 
Q 3949 2963 4109 4877 
Q 4333 4832 4563 4761 
Q 4794 4691 4858 4649 
Q 4922 4608 4922 4563 
Q 4922 4518 4813 4492 
Q 4704 4467 4653 4384 
Q 4602 4301 4538 3974 
Q 4474 3648 4326 3270 
z
M 4870 3072 
L 4250 3072 
L 4064 2682 
Q 4141 1594 4454 979 
Q 4723 1619 4870 3072 
z
M 3104 4602 
Q 3264 4525 3453 4422 
Q 3642 4320 3670 4288 
Q 3699 4256 3699 4221 
Q 3699 4186 3673 4170 
Q 3648 4154 3539 4154 
Q 3430 4154 3315 4038 
Q 2957 3680 2528 3392 
L 2464 3488 
Q 2906 4102 3104 4602 
z
M 653 4512 
Q 1171 4326 1353 4201 
Q 1536 4077 1536 3901 
Q 1536 3725 1453 3590 
Q 1370 3456 1286 3456 
Q 1203 3456 1164 3494 
Q 1126 3533 1084 3673 
Q 1043 3814 899 4038 
Q 755 4262 589 4429 
L 653 4512 
z
" transform="scale(0.015625)"/>
       <path id="STZhongsong-91cf" d="M 2054 4480 
L 4410 4480 
L 4576 4691 
Q 4608 4730 4640 4730 
Q 4691 4730 4969 4582 
Q 5248 4435 5248 4368 
Q 5248 4301 5024 4198 
L 5024 3738 
Q 5024 3552 5037 3341 
L 5043 3142 
Q 5043 3098 5030 3075 
Q 5018 3053 4922 2992 
Q 4826 2931 4685 2876 
Q 4544 2822 4509 2822 
Q 4474 2822 4474 2880 
L 4474 3046 
L 2016 3046 
Q 2029 2989 2006 2960 
Q 1984 2931 1897 2886 
Q 1811 2842 1660 2797 
Q 1510 2752 1475 2752 
Q 1440 2752 1446 2822 
Q 1478 3130 1478 3456 
L 1478 4198 
Q 1478 4467 1459 4742 
Q 1830 4608 2054 4480 
z
M 4474 3853 
L 4474 4294 
L 2016 4294 
L 2016 3853 
L 4474 3853 
z
M 4474 3213 
L 4474 3674 
L 2016 3674 
L 2016 3213 
L 4474 3213 
z
M 5171 2675 
L 5395 3040 
Q 5434 3110 5491 3110 
Q 5549 3110 5690 2989 
L 5984 2746 
Q 6138 2618 6138 2560 
Q 6138 2502 5990 2502 
L 640 2502 
Q 467 2502 371 2458 
L 256 2707 
Q 390 2675 576 2675 
L 5171 2675 
z
M 3482 672 
L 3482 166 
L 4666 166 
L 4864 416 
Q 4902 474 4950 474 
Q 4998 474 5251 285 
Q 5504 96 5504 38 
Q 5504 -19 5286 -19 
L 3482 -19 
L 3482 -550 
L 5203 -550 
L 5434 -230 
Q 5485 -160 5542 -160 
Q 5600 -160 5865 -390 
Q 6131 -621 6131 -691 
Q 6131 -736 5965 -736 
L 582 -736 
Q 410 -736 314 -781 
L 198 -518 
Q 333 -550 518 -550 
L 2931 -550 
L 2931 -19 
L 1274 -19 
Q 1101 -19 1005 -64 
L 877 198 
Q 1011 166 1197 166 
L 2931 166 
L 2931 672 
L 1843 672 
Q 1843 589 1824 569 
Q 1805 550 1725 505 
Q 1645 461 1481 413 
Q 1318 365 1296 365 
Q 1274 365 1280 422 
Q 1312 717 1312 1050 
L 1312 1747 
Q 1312 2074 1293 2355 
Q 1715 2253 1926 2150 
L 4544 2150 
L 4685 2362 
Q 4717 2413 4765 2413 
Q 4813 2413 4944 2333 
Q 5075 2253 5209 2157 
Q 5344 2061 5344 2029 
Q 5344 1971 5126 1850 
L 5126 1363 
Q 5126 1056 5133 954 
L 5139 762 
Q 5139 704 5091 669 
Q 5043 634 4880 592 
Q 4717 550 4627 550 
Q 4576 550 4576 627 
L 4576 672 
L 3482 672 
z
M 2931 1510 
L 2931 1978 
L 1843 1978 
L 1843 1510 
L 2931 1510 
z
M 3482 1978 
L 3482 1510 
L 4576 1510 
L 4576 1978 
L 3482 1978 
z
M 3482 1312 
L 3482 858 
L 4576 858 
L 4576 1312 
L 3482 1312 
z
M 2931 858 
L 2931 1312 
L 1843 1312 
L 1843 858 
L 2931 858 
z
" transform="scale(0.015625)"/>
      </defs>
      <use xlink:href="#STZhongsong-683c"/>
      <use xlink:href="#STZhongsong-7f51" transform="translate(99.999985 0)"/>
      <use xlink:href="#STZhongsong-6570" transform="translate(199.999969 0)"/>
      <use xlink:href="#STZhongsong-91cf" transform="translate(299.999954 0)"/>
     </g>
    </g>
   </g>
   <g id="patch_8">
    <path d="M 80.68 404.514062 
L 80.68 38.720312 
" style="fill: none; stroke: #111111; stroke-width: 1.35; stroke-linejoin: miter; stroke-linecap: square"/>
   </g>
   <g id="patch_9">
    <path d="M 80.68 404.514062 
L 849.305 404.514062 
" style="fill: none; stroke: #111111; stroke-width: 1.35; stroke-linejoin: miter; stroke-linecap: square"/>
   </g>
   <g id="text_14">
    <!-- 25,670 -->
    <g style="fill: #111111" transform="translate(137.631496 48.139062) scale(0.13 -0.13)">
     <defs>
      <path id="STZhongsong-2c" d="M 691 -1133 
L 525 -928 
Q 883 -634 1036 -403 
Q 1190 -173 1158 45 
Q 1037 0 941 0 
Q 800 0 713 99 
Q 627 198 627 339 
Q 627 499 739 604 
Q 851 710 1024 710 
Q 1210 710 1363 540 
Q 1517 371 1517 128 
Q 1517 -211 1331 -486 
Q 1146 -762 691 -1133 
z
" transform="scale(0.015625)"/>
      <path id="STZhongsong-36" d="M 3238 4442 
L 3238 4154 
Q 2131 4141 1603 3686 
Q 1075 3232 1037 2227 
Q 1446 2893 2240 2893 
Q 2880 2893 3289 2486 
Q 3699 2080 3699 1440 
Q 3699 742 3257 332 
Q 2816 -77 2093 -77 
Q 1286 -77 848 444 
Q 410 966 410 1926 
Q 410 3046 1056 3744 
Q 1702 4442 2995 4442 
L 3238 4442 
z
M 3072 1414 
Q 3072 1933 2800 2246 
Q 2528 2560 2099 2560 
Q 1658 2560 1363 2224 
Q 1069 1888 1069 1402 
Q 1069 890 1350 550 
Q 1632 211 2074 211 
Q 2509 211 2790 544 
Q 3072 877 3072 1414 
z
" transform="scale(0.015625)"/>
      <path id="STZhongsong-37" d="M 691 4518 
L 902 4518 
L 934 4358 
L 3667 4358 
L 3667 4096 
Q 2163 2317 1901 0 
L 1261 0 
Q 1421 1190 1949 2150 
Q 2477 3110 3174 3891 
L 1222 3891 
Q 1005 3891 899 3862 
Q 794 3834 736 3635 
L 614 3206 
L 352 3264 
L 691 4518 
z
" transform="scale(0.015625)"/>
     </defs>
     <use xlink:href="#STZhongsong-32"/>
     <use xlink:href="#STZhongsong-35" transform="translate(61.999985 0)"/>
     <use xlink:href="#STZhongsong-2c" transform="translate(123.999969 0)"/>
     <use xlink:href="#STZhongsong-36" transform="translate(155.999954 0)"/>
     <use xlink:href="#STZhongsong-37" transform="translate(217.999939 0)"/>
     <use xlink:href="#STZhongsong-30" transform="translate(279.999924 0)"/>
    </g>
   </g>
   <g id="text_15">
    <!-- 319 -->
    <g style="fill: #111111" transform="translate(300.336998 392.184821) scale(0.13 -0.13)">
     <defs>
      <path id="STZhongsong-33" d="M 934 3194 
L 634 3238 
Q 717 3827 1097 4131 
Q 1478 4435 2061 4435 
Q 2662 4435 3046 4124 
Q 3430 3814 3430 3360 
Q 3430 3021 3190 2761 
Q 2950 2502 2502 2374 
Q 3046 2298 3334 1974 
Q 3622 1651 3622 1222 
Q 3622 698 3155 310 
Q 2688 -77 1997 -77 
Q 1299 -77 844 275 
Q 390 627 390 960 
Q 390 1114 505 1184 
Q 621 1254 710 1254 
Q 922 1254 1043 858 
Q 1133 544 1369 377 
Q 1606 211 1952 211 
Q 2419 211 2720 512 
Q 3021 813 3021 1267 
Q 3021 1702 2717 1952 
Q 2413 2202 1862 2202 
L 1568 2202 
L 1568 2502 
L 1754 2502 
Q 2829 2502 2829 3283 
Q 2829 3629 2592 3843 
Q 2355 4058 1952 4058 
Q 1107 4058 934 3194 
z
" transform="scale(0.015625)"/>
      <path id="STZhongsong-39" d="M 736 -77 
L 736 218 
Q 1856 224 2374 688 
Q 2893 1152 2938 2138 
Q 2707 1798 2425 1638 
Q 2144 1478 1734 1478 
Q 1088 1478 681 1884 
Q 275 2291 275 2925 
Q 275 3616 720 4025 
Q 1165 4435 1882 4435 
Q 2688 4435 3126 3916 
Q 3565 3398 3565 2438 
Q 3565 1574 3181 963 
Q 2797 352 2201 137 
Q 1606 -77 979 -77 
L 736 -77 
z
M 896 2950 
Q 896 2445 1174 2128 
Q 1453 1811 1875 1811 
Q 2317 1811 2611 2147 
Q 2906 2483 2906 2970 
Q 2906 3475 2618 3814 
Q 2330 4154 1901 4154 
Q 1459 4154 1177 3824 
Q 896 3494 896 2950 
z
" transform="scale(0.015625)"/>
     </defs>
     <use xlink:href="#STZhongsong-33"/>
     <use xlink:href="#STZhongsong-31" transform="translate(61.999985 0)"/>
     <use xlink:href="#STZhongsong-39" transform="translate(123.999969 0)"/>
    </g>
   </g>
   <g id="text_16">
    <!-- 1,095 -->
    <g style="fill: #111111" transform="translate(446.7925 381.653501) scale(0.13 -0.13)">
     <use xlink:href="#STZhongsong-31"/>
     <use xlink:href="#STZhongsong-2c" transform="translate(61.999985 0)"/>
     <use xlink:href="#STZhongsong-30" transform="translate(93.999969 0)"/>
     <use xlink:href="#STZhongsong-39" transform="translate(155.999954 0)"/>
     <use xlink:href="#STZhongsong-35" transform="translate(217.999939 0)"/>
    </g>
   </g>
   <g id="text_17">
    <!-- 1,890 -->
    <g style="fill: #111111" transform="translate(599.358002 370.864325) scale(0.13 -0.13)">
     <defs>
      <path id="STZhongsong-38" d="M 2477 2419 
Q 3021 2208 3315 1923 
Q 3610 1638 3610 1197 
Q 3610 659 3152 291 
Q 2694 -77 1971 -77 
Q 1274 -77 816 272 
Q 358 621 358 1120 
Q 358 1485 633 1779 
Q 909 2074 1440 2259 
Q 1011 2451 800 2691 
Q 589 2931 589 3315 
Q 589 3814 998 4124 
Q 1408 4435 2035 4435 
Q 2618 4435 2998 4134 
Q 3379 3834 3379 3424 
Q 3379 2790 2477 2419 
z
M 2189 2534 
Q 2451 2707 2662 2918 
Q 2874 3130 2874 3418 
Q 2874 3706 2621 3923 
Q 2368 4141 1971 4141 
Q 1594 4141 1331 3926 
Q 1069 3712 1069 3430 
Q 1069 3168 1270 2989 
Q 1472 2810 1824 2675 
L 2189 2534 
z
M 1747 2131 
Q 1325 1939 1088 1670 
Q 851 1402 851 1126 
Q 851 762 1177 490 
Q 1504 218 1984 218 
Q 2438 218 2774 483 
Q 3110 749 3110 1082 
Q 3110 1594 2253 1933 
L 1747 2131 
z
" transform="scale(0.015625)"/>
     </defs>
     <use xlink:href="#STZhongsong-31"/>
     <use xlink:href="#STZhongsong-2c" transform="translate(61.999985 0)"/>
     <use xlink:href="#STZhongsong-38" transform="translate(93.999969 0)"/>
     <use xlink:href="#STZhongsong-39" transform="translate(155.999954 0)"/>
     <use xlink:href="#STZhongsong-30" transform="translate(217.999939 0)"/>
    </g>
   </g>
   <g id="text_18">
    <!-- 781 -->
    <g style="fill: #111111" transform="translate(758.033504 385.914885) scale(0.13 -0.13)">
     <use xlink:href="#STZhongsong-37"/>
     <use xlink:href="#STZhongsong-38" transform="translate(61.999985 0)"/>
     <use xlink:href="#STZhongsong-31" transform="translate(123.999969 0)"/>
    </g>
   </g>
   <g id="text_19">
    <!-- 格网活跃稳定性类型 -->
    <g style="fill: #111111" transform="translate(370.4925 22.720312) scale(0.21 -0.21)">
     <defs>
      <path id="STZhongsong-7a33" d="M 2835 3091 
Q 2784 3053 2758 3027 
L 2650 3123 
Q 3302 3955 3654 4909 
Q 3910 4813 4089 4720 
Q 4269 4627 4301 4598 
Q 4333 4570 4333 4547 
Q 4333 4525 4221 4486 
Q 4109 4448 3984 4291 
Q 3859 4134 3789 4058 
L 4582 4058 
L 4768 4275 
Q 4806 4320 4845 4320 
Q 4909 4320 5200 4102 
Q 5491 3885 5491 3849 
Q 5491 3814 5379 3814 
Q 5267 3814 5196 3779 
Q 5126 3744 4857 3523 
Q 4589 3302 4352 3078 
L 5005 3078 
L 5139 3283 
Q 5171 3334 5225 3334 
Q 5280 3334 5558 3168 
Q 5837 3002 5837 2957 
Q 5837 2906 5606 2784 
L 5606 1830 
L 5619 1434 
Q 5619 1344 5587 1312 
Q 5555 1280 5392 1216 
Q 5229 1152 5114 1152 
Q 5050 1152 5050 1254 
L 5050 1395 
L 3149 1395 
Q 2989 1395 2893 1350 
L 2784 1626 
Q 2912 1594 3085 1594 
L 5050 1594 
L 5050 2170 
L 3123 2170 
Q 2963 2170 2867 2125 
L 2758 2400 
Q 2886 2368 3059 2368 
L 5050 2368 
L 5050 2886 
L 3187 2886 
Q 3027 2886 2938 2842 
L 2835 3091 
z
M 3616 3859 
Q 3334 3552 2842 3104 
Q 2925 3078 3130 3078 
L 4109 3078 
Q 4403 3533 4570 3859 
L 3616 3859 
z
M 1389 3949 
L 403 3834 
L 384 3955 
Q 1702 4326 2426 4749 
Q 2848 4230 2848 4166 
Q 2848 4141 2816 4141 
Q 2784 4141 2736 4157 
Q 2688 4173 2650 4173 
Q 2554 4173 1894 4032 
L 1894 2963 
L 2035 2963 
L 2221 3232 
Q 2272 3302 2326 3302 
Q 2381 3302 2592 3075 
Q 2803 2848 2803 2806 
Q 2803 2765 2688 2765 
L 1894 2765 
L 1894 2253 
Q 2259 2131 2502 2003 
Q 2746 1875 2746 1718 
Q 2746 1562 2656 1376 
Q 2566 1190 2470 1190 
Q 2419 1190 2390 1228 
Q 2362 1267 2323 1389 
Q 2202 1830 1894 2093 
L 1894 -800 
Q 1894 -883 1862 -915 
Q 1830 -947 1660 -1014 
Q 1491 -1082 1430 -1082 
Q 1370 -1082 1370 -992 
L 1376 -742 
Q 1389 -493 1389 -166 
L 1389 1651 
Q 845 640 326 45 
L 224 115 
Q 966 1344 1306 2765 
L 653 2765 
Q 486 2765 378 2733 
L 269 2995 
Q 403 2963 589 2963 
L 1389 2963 
L 1389 3949 
z
M 3814 1261 
Q 4262 1011 4416 870 
Q 4570 730 4570 586 
Q 4570 442 4454 282 
Q 4339 122 4214 122 
Q 4090 122 4058 390 
Q 4000 826 3750 1190 
L 3814 1261 
z
M 5005 493 
Q 4998 166 5052 -51 
Q 5107 -269 5299 -384 
Q 5344 -410 5344 -458 
Q 5344 -506 5219 -685 
Q 5094 -864 4851 -909 
Q 4608 -954 4304 -954 
Q 4000 -954 3677 -928 
Q 3354 -902 3242 -825 
Q 3130 -749 3130 -442 
L 3130 493 
Q 3130 845 3117 1005 
Q 3763 813 3763 723 
Q 3763 672 3584 595 
L 3584 -352 
Q 3584 -416 3619 -438 
Q 3654 -461 3788 -470 
Q 3923 -480 4204 -480 
Q 4486 -480 4601 -435 
Q 4717 -390 4771 -204 
Q 4826 -19 4877 493 
L 5005 493 
z
M 5114 896 
Q 5587 608 5814 419 
Q 6042 230 6109 108 
Q 6176 -13 6176 -147 
Q 6176 -282 6057 -451 
Q 5939 -621 5862 -621 
Q 5786 -621 5750 -573 
Q 5715 -525 5641 -259 
Q 5568 6 5414 265 
Q 5261 525 5030 806 
L 5114 896 
z
M 2771 851 
Q 2822 461 2822 166 
Q 2822 -371 2659 -566 
Q 2496 -762 2278 -762 
Q 2157 -762 2083 -701 
Q 2010 -640 2010 -541 
Q 2010 -442 2202 -262 
Q 2573 77 2630 851 
L 2771 851 
z
" transform="scale(0.015625)"/>
      <path id="STZhongsong-5b9a" d="M 2586 4928 
Q 3674 4774 3674 4346 
Q 3674 4205 3546 4029 
Q 3418 3853 3187 3853 
Q 3098 3853 3059 3913 
Q 3021 3974 2982 4179 
Q 2906 4608 2560 4858 
L 2586 4928 
z
M 1517 3827 
L 5133 3827 
L 5299 4064 
Q 5331 4122 5363 4122 
Q 5440 4122 5747 3878 
Q 6054 3635 6054 3532 
Q 6054 3430 5856 3430 
Q 5658 3430 5530 3356 
Q 5402 3283 5158 3021 
Q 5638 2637 5638 2541 
Q 5638 2490 5536 2490 
L 3469 2490 
L 3469 1402 
L 4346 1402 
L 4653 1798 
Q 4704 1869 4749 1869 
Q 4832 1869 5104 1609 
Q 5376 1350 5376 1254 
Q 5376 1190 5235 1190 
L 3469 1190 
L 3469 -134 
Q 3987 -230 5338 -230 
Q 5754 -230 6266 -224 
L 6266 -365 
Q 6010 -390 5834 -470 
Q 5658 -550 5574 -768 
Q 5536 -858 5472 -858 
Q 5286 -858 4489 -784 
Q 3693 -710 3369 -659 
Q 3046 -608 2768 -445 
Q 2490 -282 2237 -6 
Q 1984 269 1805 621 
Q 1574 154 1267 -211 
Q 960 -576 384 -1056 
L 294 -973 
Q 934 -256 1264 477 
Q 1594 1210 1696 2138 
Q 2125 1933 2275 1840 
Q 2426 1747 2426 1692 
Q 2426 1638 2323 1616 
Q 2221 1594 2150 1427 
L 1920 870 
Q 2374 230 2912 6 
L 2912 2490 
L 1382 2490 
Q 1210 2490 1114 2445 
L 998 2720 
Q 1133 2688 1318 2688 
L 4614 2688 
L 4896 3059 
Q 4954 3136 5011 3117 
Q 5082 3373 5126 3642 
L 1530 3642 
Q 1542 3309 1334 3059 
Q 1126 2810 890 2810 
Q 755 2810 659 2883 
Q 563 2957 563 3059 
Q 563 3226 816 3418 
Q 1069 3610 1174 3789 
Q 1280 3968 1325 4262 
L 1466 4262 
L 1517 3827 
z
" transform="scale(0.015625)"/>
      <path id="STZhongsong-6027" d="M 1741 3366 
Q 2246 3251 2406 3164 
Q 2566 3078 2566 2921 
Q 2566 2765 2496 2621 
Q 2426 2477 2314 2477 
Q 2202 2477 2125 2662 
Q 1971 3046 1741 3194 
L 1741 -742 
Q 1741 -806 1683 -844 
Q 1626 -883 1437 -950 
Q 1248 -1018 1209 -1018 
Q 1171 -1018 1171 -979 
Q 1171 -941 1180 -752 
Q 1190 -563 1190 -96 
L 1190 4269 
Q 1190 4589 1178 4838 
Q 1446 4774 1673 4704 
Q 1901 4634 1936 4614 
Q 1971 4595 1971 4576 
Q 1971 4525 1741 4403 
L 1741 3366 
z
M 3930 1190 
L 2874 1190 
Q 2701 1190 2605 1146 
L 2483 1408 
Q 2618 1376 2803 1376 
L 3930 1376 
L 3930 2778 
L 3078 2778 
Q 2746 1869 2221 1101 
L 2093 1165 
Q 2682 2496 2848 4237 
Q 3226 4109 3405 4016 
Q 3584 3923 3584 3891 
Q 3584 3859 3510 3840 
Q 3437 3821 3398 3779 
Q 3360 3738 3286 3456 
Q 3213 3174 3142 2957 
L 3930 2957 
L 3930 4230 
Q 3930 4723 3917 4832 
Q 4192 4794 4397 4736 
Q 4602 4678 4646 4652 
Q 4691 4627 4691 4602 
Q 4691 4550 4499 4454 
L 4499 2957 
L 5024 2957 
L 5267 3334 
Q 5338 3450 5392 3450 
Q 5446 3450 5613 3296 
L 5914 3008 
Q 6048 2880 6048 2829 
Q 6048 2778 5939 2778 
L 4499 2778 
L 4499 1376 
L 4979 1376 
L 5242 1747 
Q 5312 1843 5369 1843 
Q 5427 1843 5683 1587 
Q 5939 1331 5939 1260 
Q 5939 1190 5818 1190 
L 4499 1190 
L 4499 -390 
L 5267 -390 
L 5562 -26 
Q 5638 70 5683 70 
Q 5728 70 5798 6 
Q 5869 -58 6029 -214 
Q 6189 -371 6243 -438 
Q 6298 -506 6298 -547 
Q 6298 -589 6176 -589 
L 2483 -589 
Q 2310 -589 2214 -634 
L 2106 -358 
Q 2240 -390 2426 -390 
L 3930 -390 
L 3930 1190 
z
M 787 3392 
Q 915 2829 915 2422 
Q 915 2016 755 1853 
Q 595 1690 416 1690 
Q 314 1690 240 1763 
Q 166 1837 166 1904 
Q 166 1971 332 2182 
Q 499 2394 563 2682 
Q 627 2970 608 3386 
L 787 3392 
z
" transform="scale(0.015625)"/>
     </defs>
     <use xlink:href="#STZhongsong-683c"/>
     <use xlink:href="#STZhongsong-7f51" transform="translate(99.999985 0)"/>
     <use xlink:href="#STZhongsong-6d3b" transform="translate(199.999969 0)"/>
     <use xlink:href="#STZhongsong-8dc3" transform="translate(299.999954 0)"/>
     <use xlink:href="#STZhongsong-7a33" transform="translate(399.999939 0)"/>
     <use xlink:href="#STZhongsong-5b9a" transform="translate(499.999924 0)"/>
     <use xlink:href="#STZhongsong-6027" transform="translate(599.999908 0)"/>
     <use xlink:href="#STZhongsong-7c7b" transform="translate(699.999893 0)"/>
     <use xlink:href="#STZhongsong-578b" transform="translate(799.999878 0)"/>
    </g>
   </g>
  </g>
 </g>
 <defs>
  <clipPath id="pca44b0d7b8">
   <rect x="80.68" y="38.720312" width="768.625" height="365.79375"/>
  </clipPath>
 </defs>
</svg>
