<?xml version="1.0" encoding="utf-8" standalone="no"?>
<!DOCTYPE svg PUBLIC "-//W3C//DTD SVG 1.1//EN"
  "http://www.w3.org/Graphics/SVG/1.1/DTD/svg11.dtd">
<svg xmlns:xlink="http://www.w3.org/1999/xlink" width="856.908594pt" height="454.061719pt" viewBox="0 0 856.908594 454.061719" xmlns="http://www.w3.org/2000/svg" version="1.1">
 <metadata>
  <rdf:RDF xmlns:dc="http://purl.org/dc/elements/1.1/" xmlns:cc="http://creativecommons.org/ns#" xmlns:rdf="http://www.w3.org/1999/02/22-rdf-syntax-ns#">
   <cc:Work>
    <dc:type rdf:resource="http://purl.org/dc/dcmitype/StillImage"/>
    <dc:date>2026-06-06T01:20:59.570136</dc:date>
    <dc:format>image/svg+xml</dc:format>
    <dc:creator>
     <cc:Agent>
      <dc:title>Matplotlib v3.10.0, https://matplotlib.org/</dc:title>
     </cc:Agent>
    </dc:creator>
   </cc:Work>
  </rdf:RDF>
 </metadata>
 <defs>
  <style type="text/css">*{stroke-linejoin: round; stroke-linecap: butt}</style>
 </defs>
 <g id="figure_1">
  <g id="patch_1">
   <path d="M 0 454.061719 
L 856.908594 454.061719 
L 856.908594 0 
L 0 0 
z
" style="fill: #ffffff"/>
  </g>
  <g id="axes_1">
   <g id="patch_2">
    <path d="M 62.183594 406.057656 
L 849.708594 406.057656 
L 849.708594 38.992656 
L 62.183594 38.992656 
z
" style="fill: #ffffff"/>
   </g>
   <g id="patch_3">
    <path d="M 97.980185 380.434882 
L 144.816846 380.434882 
L 144.816846 55.677429 
L 97.980185 55.677429 
z
" clip-path="url(#pbaaf503730)" style="fill: #80b1d3"/>
   </g>
   <g id="patch_4">
    <path d="M 181.617079 380.434882 
L 228.45374 380.434882 
L 228.45374 198.661533 
L 181.617079 198.661533 
z
" clip-path="url(#pbaaf503730)" style="fill: #80b1d3"/>
   </g>
   <g id="patch_5">
    <path d="M 265.253974 380.434882 
L 312.090635 380.434882 
L 312.090635 304.507789 
L 265.253974 304.507789 
z
" clip-path="url(#pbaaf503730)" style="fill: #80b1d3"/>
   </g>
   <g id="patch_6">
    <path d="M 348.890869 380.434882 
L 395.72753 380.434882 
L 395.72753 373.293381 
L 348.890869 373.293381 
z
" clip-path="url(#pbaaf503730)" style="fill: #80b1d3"/>
   </g>
   <g id="patch_7">
    <path d="M 432.527763 380.434882 
L 479.364424 380.434882 
L 479.364424 389.372884 
L 432.527763 389.372884 
z
" clip-path="url(#pbaaf503730)" style="fill: #80b1d3"/>
   </g>
   <g id="patch_8">
    <path d="M 516.164658 380.434882 
L 563.001319 380.434882 
L 563.001319 382.927908 
L 516.164658 382.927908 
z
" clip-path="url(#pbaaf503730)" style="fill: #80b1d3"/>
   </g>
   <g id="patch_9">
    <path d="M 599.801553 380.434882 
L 646.638214 380.434882 
L 646.638214 364.217366 
L 599.801553 364.217366 
z
" clip-path="url(#pbaaf503730)" style="fill: #80b1d3"/>
   </g>
   <g id="patch_10">
    <path d="M 683.438447 380.434882 
L 730.275108 380.434882 
L 730.275108 364.888772 
L 683.438447 364.888772 
z
" clip-path="url(#pbaaf503730)" style="fill: #80b1d3"/>
   </g>
   <g id="patch_11">
    <path d="M 767.075342 380.434882 
L 813.912003 380.434882 
L 813.912003 370.541522 
L 767.075342 370.541522 
z
" clip-path="url(#pbaaf503730)" style="fill: #80b1d3"/>
   </g>
   <g id="matplotlib.axis_1">
    <g id="xtick_1">
     <g id="line2d_1">
      <defs>
       <path id="m28adaf2a2b" d="M 0 0 
L 0 3.5 
" style="stroke: #111111; stroke-width: 0.8"/>
      </defs>
      <g>
       <use xlink:href="#m28adaf2a2b" x="121.398515" y="406.057656" style="fill: #111111; stroke: #111111; stroke-width: 0.8"/>
      </g>
     </g>
     <g id="text_1">
      <!-- 2016 -->
      <g style="fill: #111111" transform="translate(102.798515 423.796719) scale(0.15 -0.15)">
       <defs>
        <path id="STZhongsong-32" d="M 723 2714 
L 422 2675 
Q 397 2835 397 2989 
Q 397 3616 832 4025 
Q 1267 4435 1978 4435 
Q 2630 4435 3043 4064 
Q 3456 3693 3456 3098 
Q 3456 2669 3286 2349 
Q 3117 2029 2611 1603 
Q 2106 1178 1037 467 
L 2662 467 
Q 2963 467 3062 544 
Q 3162 621 3200 838 
L 3232 1018 
L 3494 1018 
L 3283 -154 
L 3085 -154 
L 3053 0 
L 320 0 
L 320 262 
L 819 640 
Q 1901 1453 2377 1977 
Q 2854 2502 2854 3066 
Q 2854 3507 2569 3788 
Q 2285 4070 1837 4070 
Q 1325 4070 1017 3753 
Q 710 3437 710 2918 
Q 710 2822 723 2714 
z
" transform="scale(0.015625)"/>
        <path id="STZhongsong-30" d="M 326 2182 
Q 326 3251 774 3843 
Q 1222 4435 1997 4435 
Q 2752 4435 3197 3827 
Q 3642 3219 3642 2144 
Q 3642 1139 3178 531 
Q 2714 -77 1952 -77 
Q 1229 -77 777 524 
Q 326 1126 326 2182 
z
M 3040 2182 
Q 3040 3104 2758 3616 
Q 2477 4128 1978 4128 
Q 1478 4128 1200 3590 
Q 922 3053 922 2118 
Q 922 1229 1210 733 
Q 1498 237 1971 237 
Q 2470 237 2755 752 
Q 3040 1267 3040 2182 
z
" transform="scale(0.015625)"/>
        <path id="STZhongsong-31" d="M 2150 4358 
L 2387 4358 
L 2387 742 
Q 2387 422 2464 342 
Q 2541 262 2822 262 
L 3130 262 
L 3130 0 
L 1069 0 
L 1069 262 
L 1408 262 
Q 1670 262 1766 348 
Q 1862 435 1862 742 
L 1862 3718 
L 1069 3718 
L 1069 3987 
Q 1709 4070 2150 4358 
z
" transform="scale(0.015625)"/>
        <path id="STZhongsong-36" d="M 3238 4442 
L 3238 4154 
Q 2131 4141 1603 3686 
Q 1075 3232 1037 2227 
Q 1446 2893 2240 2893 
Q 2880 2893 3289 2486 
Q 3699 2080 3699 1440 
Q 3699 742 3257 332 
Q 2816 -77 2093 -77 
Q 1286 -77 848 444 
Q 410 966 410 1926 
Q 410 3046 1056 3744 
Q 1702 4442 2995 4442 
L 3238 4442 
z
M 3072 1414 
Q 3072 1933 2800 2246 
Q 2528 2560 2099 2560 
Q 1658 2560 1363 2224 
Q 1069 1888 1069 1402 
Q 1069 890 1350 550 
Q 1632 211 2074 211 
Q 2509 211 2790 544 
Q 3072 877 3072 1414 
z
" transform="scale(0.015625)"/>
       </defs>
       <use xlink:href="#STZhongsong-32"/>
       <use xlink:href="#STZhongsong-30" transform="translate(61.999985 0)"/>
       <use xlink:href="#STZhongsong-31" transform="translate(123.999969 0)"/>
       <use xlink:href="#STZhongsong-36" transform="translate(185.999954 0)"/>
      </g>
     </g>
    </g>
    <g id="xtick_2">
     <g id="line2d_2">
      <g>
       <use xlink:href="#m28adaf2a2b" x="288.672304" y="406.057656" style="fill: #111111; stroke: #111111; stroke-width: 0.8"/>
      </g>
     </g>
     <g id="text_2">
      <!-- 2018 -->
      <g style="fill: #111111" transform="translate(270.072304 423.796719) scale(0.15 -0.15)">
       <defs>
        <path id="STZhongsong-38" d="M 2477 2419 
Q 3021 2208 3315 1923 
Q 3610 1638 3610 1197 
Q 3610 659 3152 291 
Q 2694 -77 1971 -77 
Q 1274 -77 816 272 
Q 358 621 358 1120 
Q 358 1485 633 1779 
Q 909 2074 1440 2259 
Q 1011 2451 800 2691 
Q 589 2931 589 3315 
Q 589 3814 998 4124 
Q 1408 4435 2035 4435 
Q 2618 4435 2998 4134 
Q 3379 3834 3379 3424 
Q 3379 2790 2477 2419 
z
M 2189 2534 
Q 2451 2707 2662 2918 
Q 2874 3130 2874 3418 
Q 2874 3706 2621 3923 
Q 2368 4141 1971 4141 
Q 1594 4141 1331 3926 
Q 1069 3712 1069 3430 
Q 1069 3168 1270 2989 
Q 1472 2810 1824 2675 
L 2189 2534 
z
M 1747 2131 
Q 1325 1939 1088 1670 
Q 851 1402 851 1126 
Q 851 762 1177 490 
Q 1504 218 1984 218 
Q 2438 218 2774 483 
Q 3110 749 3110 1082 
Q 3110 1594 2253 1933 
L 1747 2131 
z
" transform="scale(0.015625)"/>
       </defs>
       <use xlink:href="#STZhongsong-32"/>
       <use xlink:href="#STZhongsong-30" transform="translate(61.999985 0)"/>
       <use xlink:href="#STZhongsong-31" transform="translate(123.999969 0)"/>
       <use xlink:href="#STZhongsong-38" transform="translate(185.999954 0)"/>
      </g>
     </g>
    </g>
    <g id="xtick_3">
     <g id="line2d_3">
      <g>
       <use xlink:href="#m28adaf2a2b" x="455.946094" y="406.057656" style="fill: #111111; stroke: #111111; stroke-width: 0.8"/>
      </g>
     </g>
     <g id="text_3">
      <!-- 2020 -->
      <g style="fill: #111111" transform="translate(437.346094 423.796719) scale(0.15 -0.15)">
       <use xlink:href="#STZhongsong-32"/>
       <use xlink:href="#STZhongsong-30" transform="translate(61.999985 0)"/>
       <use xlink:href="#STZhongsong-32" transform="translate(123.999969 0)"/>
       <use xlink:href="#STZhongsong-30" transform="translate(185.999954 0)"/>
      </g>
     </g>
    </g>
    <g id="xtick_4">
     <g id="line2d_4">
      <g>
       <use xlink:href="#m28adaf2a2b" x="623.219883" y="406.057656" style="fill: #111111; stroke: #111111; stroke-width: 0.8"/>
      </g>
     </g>
     <g id="text_4">
      <!-- 2022 -->
      <g style="fill: #111111" transform="translate(604.619883 423.796719) scale(0.15 -0.15)">
       <use xlink:href="#STZhongsong-32"/>
       <use xlink:href="#STZhongsong-30" transform="translate(61.999985 0)"/>
       <use xlink:href="#STZhongsong-32" transform="translate(123.999969 0)"/>
       <use xlink:href="#STZhongsong-32" transform="translate(185.999954 0)"/>
      </g>
     </g>
    </g>
    <g id="xtick_5">
     <g id="line2d_5">
      <g>
       <use xlink:href="#m28adaf2a2b" x="790.493672" y="406.057656" style="fill: #111111; stroke: #111111; stroke-width: 0.8"/>
      </g>
     </g>
     <g id="text_5">
      <!-- 2024 -->
      <g style="fill: #111111" transform="translate(771.893672 423.796719) scale(0.15 -0.15)">
       <defs>
        <path id="STZhongsong-34" d="M 3494 1242 
L 2906 1242 
L 2906 518 
Q 2906 275 3213 250 
L 3213 45 
L 1882 45 
L 1882 250 
Q 2054 262 2156 336 
Q 2259 410 2259 518 
L 2259 1242 
L 550 1242 
L 550 1658 
L 2483 4365 
L 2906 4365 
L 2906 1581 
L 3494 1581 
L 3494 1242 
z
M 2259 1581 
L 2259 3462 
L 902 1581 
L 2259 1581 
z
" transform="scale(0.015625)"/>
       </defs>
       <use xlink:href="#STZhongsong-32"/>
       <use xlink:href="#STZhongsong-30" transform="translate(61.999985 0)"/>
       <use xlink:href="#STZhongsong-32" transform="translate(123.999969 0)"/>
       <use xlink:href="#STZhongsong-34" transform="translate(185.999954 0)"/>
      </g>
     </g>
    </g>
    <g id="text_6">
     <!-- 年份 -->
     <g style="fill: #111111" transform="translate(438.946094 443.461719) scale(0.17 -0.17)">
      <defs>
       <path id="STZhongsong-5e74" d="M 1939 3827 
L 4794 3827 
L 5082 4237 
Q 5133 4314 5171 4314 
Q 5210 4314 5328 4224 
Q 5446 4134 5612 3993 
Q 5779 3853 5840 3789 
Q 5901 3725 5901 3686 
Q 5901 3616 5811 3616 
L 3744 3616 
L 3744 2496 
L 4474 2496 
L 4736 2874 
Q 4787 2938 4822 2938 
Q 4858 2938 4970 2858 
Q 5082 2778 5232 2643 
Q 5382 2509 5414 2461 
Q 5446 2413 5446 2368 
Q 5446 2272 5350 2272 
L 3744 2272 
L 3744 1043 
L 5254 1043 
L 5542 1427 
Q 5587 1485 5654 1485 
Q 5722 1485 6013 1213 
Q 6304 941 6304 883 
Q 6304 826 6195 826 
L 3744 826 
Q 3744 19 3750 -294 
L 3763 -864 
Q 3763 -909 3731 -941 
Q 3699 -973 3475 -1056 
Q 3251 -1139 3203 -1139 
Q 3155 -1139 3155 -1037 
L 3168 -390 
Q 3174 -38 3174 826 
L 653 826 
Q 480 826 384 781 
L 269 1075 
Q 403 1043 589 1043 
L 1498 1043 
L 1498 2170 
Q 1498 2643 1485 2739 
Q 1856 2630 2138 2496 
L 3174 2496 
L 3174 3616 
L 1798 3616 
Q 1440 3046 1136 2713 
Q 832 2381 339 1984 
L 243 2086 
Q 1261 3174 1741 4909 
Q 2259 4704 2400 4611 
Q 2541 4518 2541 4457 
Q 2541 4397 2435 4384 
Q 2330 4371 2253 4288 
Q 2176 4205 1939 3827 
z
M 3174 2272 
L 2054 2272 
L 2054 1043 
L 3174 1043 
L 3174 2272 
z
" transform="scale(0.015625)"/>
       <path id="STZhongsong-4efd" d="M 1190 2470 
Q 736 1830 237 1389 
L 141 1472 
Q 1158 2701 1702 4838 
Q 1894 4768 2115 4672 
Q 2336 4576 2374 4544 
Q 2413 4512 2413 4477 
Q 2413 4442 2326 4419 
Q 2240 4397 2205 4345 
Q 2170 4294 2099 4115 
Q 1888 3578 1530 2982 
Q 1837 2912 1837 2842 
Q 1837 2803 1709 2720 
L 1709 -806 
Q 1709 -883 1670 -928 
Q 1632 -973 1453 -1049 
Q 1274 -1126 1219 -1126 
Q 1165 -1126 1165 -1056 
L 1178 -563 
Q 1190 -262 1190 70 
L 1190 2470 
z
M 6272 2355 
L 6259 2227 
Q 6170 2240 6099 2240 
Q 5786 2240 5658 1971 
Q 5638 1926 5587 1926 
Q 5408 1926 4813 2630 
Q 4218 3334 4102 4806 
Q 4742 4742 4742 4627 
Q 4742 4589 4672 4570 
Q 4467 4518 4467 4323 
Q 4467 4128 4636 3712 
Q 4806 3296 5209 2925 
Q 5613 2554 6272 2355 
z
M 3174 4506 
Q 3635 4346 3753 4285 
Q 3872 4224 3872 4182 
Q 3872 4141 3753 4105 
Q 3635 4070 3546 3834 
Q 3034 2477 1888 1421 
L 1798 1491 
Q 2765 2810 3174 4506 
z
M 3232 1920 
L 3072 1920 
Q 2906 1920 2803 1875 
L 2662 2157 
Q 2797 2125 2982 2125 
L 4461 2125 
L 4614 2330 
Q 4659 2381 4704 2381 
Q 4749 2381 4937 2246 
Q 5126 2112 5212 2041 
Q 5299 1971 5299 1920 
Q 5299 1869 5139 1760 
Q 5114 1011 5066 432 
Q 5018 -147 4966 -355 
Q 4915 -563 4796 -700 
Q 4678 -838 4451 -944 
Q 4224 -1050 4169 -1050 
Q 4115 -1050 4090 -966 
Q 4038 -774 3856 -640 
Q 3674 -506 3328 -378 
L 3373 -243 
Q 3910 -384 4076 -384 
Q 4243 -384 4307 -326 
Q 4371 -269 4432 -73 
Q 4493 122 4528 541 
Q 4563 960 4576 1920 
L 3782 1920 
Q 3738 730 3389 125 
Q 3040 -480 1946 -1094 
L 1869 -1011 
Q 2669 -358 2934 237 
Q 3200 832 3232 1920 
z
" transform="scale(0.015625)"/>
      </defs>
      <use xlink:href="#STZhongsong-5e74"/>
      <use xlink:href="#STZhongsong-4efd" transform="translate(99.999985 0)"/>
     </g>
    </g>
   </g>
   <g id="matplotlib.axis_2">
    <g id="ytick_1">
     <g id="line2d_6">
      <path d="M 62.183594 380.434882 
L 849.708594 380.434882 
" clip-path="url(#pbaaf503730)" style="fill: none; stroke: #ececec; stroke-width: 0.9; stroke-linecap: square"/>
     </g>
     <g id="line2d_7">
      <defs>
       <path id="m2fa21a98bf" d="M 0 0 
L -3.5 0 
" style="stroke: #111111; stroke-width: 0.8"/>
      </defs>
      <g>
       <use xlink:href="#m2fa21a98bf" x="62.183594" y="380.434882" style="fill: #111111; stroke: #111111; stroke-width: 0.8"/>
      </g>
     </g>
     <g id="text_7">
      <!-- 0 -->
      <g style="fill: #111111" transform="translate(45.883594 385.804413) scale(0.15 -0.15)">
       <use xlink:href="#STZhongsong-30"/>
      </g>
     </g>
    </g>
    <g id="ytick_2">
     <g id="line2d_8">
      <path d="M 62.183594 336.829939 
L 849.708594 336.829939 
" clip-path="url(#pbaaf503730)" style="fill: none; stroke: #ececec; stroke-width: 0.9; stroke-linecap: square"/>
     </g>
     <g id="line2d_9">
      <g>
       <use xlink:href="#m2fa21a98bf" x="62.183594" y="336.829939" style="fill: #111111; stroke: #111111; stroke-width: 0.8"/>
      </g>
     </g>
     <g id="text_8">
      <!-- 20 -->
      <g style="fill: #111111" transform="translate(36.583594 342.199471) scale(0.15 -0.15)">
       <use xlink:href="#STZhongsong-32"/>
       <use xlink:href="#STZhongsong-30" transform="translate(61.999985 0)"/>
      </g>
     </g>
    </g>
    <g id="ytick_3">
     <g id="line2d_10">
      <path d="M 62.183594 293.224997 
L 849.708594 293.224997 
" clip-path="url(#pbaaf503730)" style="fill: none; stroke: #ececec; stroke-width: 0.9; stroke-linecap: square"/>
     </g>
     <g id="line2d_11">
      <g>
       <use xlink:href="#m2fa21a98bf" x="62.183594" y="293.224997" style="fill: #111111; stroke: #111111; stroke-width: 0.8"/>
      </g>
     </g>
     <g id="text_9">
      <!-- 40 -->
      <g style="fill: #111111" transform="translate(36.583594 298.594528) scale(0.15 -0.15)">
       <use xlink:href="#STZhongsong-34"/>
       <use xlink:href="#STZhongsong-30" transform="translate(61.999985 0)"/>
      </g>
     </g>
    </g>
    <g id="ytick_4">
     <g id="line2d_12">
      <path d="M 62.183594 249.620055 
L 849.708594 249.620055 
" clip-path="url(#pbaaf503730)" style="fill: none; stroke: #ececec; stroke-width: 0.9; stroke-linecap: square"/>
     </g>
     <g id="line2d_13">
      <g>
       <use xlink:href="#m2fa21a98bf" x="62.183594" y="249.620055" style="fill: #111111; stroke: #111111; stroke-width: 0.8"/>
      </g>
     </g>
     <g id="text_10">
      <!-- 60 -->
      <g style="fill: #111111" transform="translate(36.583594 254.989586) scale(0.15 -0.15)">
       <use xlink:href="#STZhongsong-36"/>
       <use xlink:href="#STZhongsong-30" transform="translate(61.999985 0)"/>
      </g>
     </g>
    </g>
    <g id="ytick_5">
     <g id="line2d_14">
      <path d="M 62.183594 206.015112 
L 849.708594 206.015112 
" clip-path="url(#pbaaf503730)" style="fill: none; stroke: #ececec; stroke-width: 0.9; stroke-linecap: square"/>
     </g>
     <g id="line2d_15">
      <g>
       <use xlink:href="#m2fa21a98bf" x="62.183594" y="206.015112" style="fill: #111111; stroke: #111111; stroke-width: 0.8"/>
      </g>
     </g>
     <g id="text_11">
      <!-- 80 -->
      <g style="fill: #111111" transform="translate(36.583594 211.384644) scale(0.15 -0.15)">
       <use xlink:href="#STZhongsong-38"/>
       <use xlink:href="#STZhongsong-30" transform="translate(61.999985 0)"/>
      </g>
     </g>
    </g>
    <g id="ytick_6">
     <g id="line2d_16">
      <path d="M 62.183594 162.41017 
L 849.708594 162.41017 
" clip-path="url(#pbaaf503730)" style="fill: none; stroke: #ececec; stroke-width: 0.9; stroke-linecap: square"/>
     </g>
     <g id="line2d_17">
      <g>
       <use xlink:href="#m2fa21a98bf" x="62.183594" y="162.41017" style="fill: #111111; stroke: #111111; stroke-width: 0.8"/>
      </g>
     </g>
     <g id="text_12">
      <!-- 100 -->
      <g style="fill: #111111" transform="translate(27.283594 167.779701) scale(0.15 -0.15)">
       <use xlink:href="#STZhongsong-31"/>
       <use xlink:href="#STZhongsong-30" transform="translate(61.999985 0)"/>
       <use xlink:href="#STZhongsong-30" transform="translate(123.999969 0)"/>
      </g>
     </g>
    </g>
    <g id="ytick_7">
     <g id="line2d_18">
      <path d="M 62.183594 118.805228 
L 849.708594 118.805228 
" clip-path="url(#pbaaf503730)" style="fill: none; stroke: #ececec; stroke-width: 0.9; stroke-linecap: square"/>
     </g>
     <g id="line2d_19">
      <g>
       <use xlink:href="#m2fa21a98bf" x="62.183594" y="118.805228" style="fill: #111111; stroke: #111111; stroke-width: 0.8"/>
      </g>
     </g>
     <g id="text_13">
      <!-- 120 -->
      <g style="fill: #111111" transform="translate(27.283594 124.174759) scale(0.15 -0.15)">
       <use xlink:href="#STZhongsong-31"/>
       <use xlink:href="#STZhongsong-32" transform="translate(61.999985 0)"/>
       <use xlink:href="#STZhongsong-30" transform="translate(123.999969 0)"/>
      </g>
     </g>
    </g>
    <g id="ytick_8">
     <g id="line2d_20">
      <path d="M 62.183594 75.200285 
L 849.708594 75.200285 
" clip-path="url(#pbaaf503730)" style="fill: none; stroke: #ececec; stroke-width: 0.9; stroke-linecap: square"/>
     </g>
     <g id="line2d_21">
      <g>
       <use xlink:href="#m2fa21a98bf" x="62.183594" y="75.200285" style="fill: #111111; stroke: #111111; stroke-width: 0.8"/>
      </g>
     </g>
     <g id="text_14">
      <!-- 140 -->
      <g style="fill: #111111" transform="translate(27.283594 80.569816) scale(0.15 -0.15)">
       <use xlink:href="#STZhongsong-31"/>
       <use xlink:href="#STZhongsong-34" transform="translate(61.999985 0)"/>
       <use xlink:href="#STZhongsong-30" transform="translate(123.999969 0)"/>
      </g>
     </g>
    </g>
    <g id="text_15">
     <!-- 同比增长率（%） -->
     <g style="fill: #111111" transform="translate(19.883594 289.675156) rotate(-90) scale(0.17 -0.17)">
      <defs>
       <path id="STZhongsong-540c" d="M 1446 4128 
L 1446 -749 
Q 1446 -826 1388 -867 
Q 1331 -909 1139 -966 
Q 947 -1024 870 -1024 
Q 838 -1024 838 -995 
Q 838 -966 854 -716 
Q 870 -467 870 -147 
L 870 4064 
Q 870 4378 858 4621 
Q 1216 4506 1491 4339 
L 4922 4339 
L 5050 4589 
Q 5088 4666 5158 4666 
Q 5229 4666 5552 4490 
Q 5875 4314 5875 4237 
Q 5875 4160 5606 4032 
L 5606 -90 
Q 5606 -435 5497 -617 
Q 5389 -800 5113 -944 
Q 4838 -1088 4729 -1088 
Q 4621 -1088 4614 -992 
Q 4602 -826 4550 -733 
Q 4499 -640 4355 -566 
Q 4211 -493 3885 -390 
L 3917 -218 
Q 4486 -346 4662 -346 
Q 4838 -346 4912 -294 
Q 4986 -243 4986 -45 
L 4986 4128 
L 1446 4128 
z
M 3827 3213 
L 4064 3533 
Q 4115 3603 4163 3603 
Q 4211 3603 4448 3366 
Q 4685 3130 4685 3066 
Q 4685 3021 4538 3021 
L 2048 3021 
Q 1882 3021 1779 2982 
L 1626 3245 
Q 1760 3213 1946 3213 
L 3827 3213 
z
M 2778 2234 
L 3674 2234 
L 3846 2438 
Q 3891 2490 3929 2490 
Q 3968 2490 4201 2320 
Q 4435 2150 4435 2089 
Q 4435 2029 4179 1946 
L 4179 691 
Q 4179 595 4186 512 
L 4198 378 
Q 4198 294 3984 230 
Q 3770 166 3693 166 
Q 3654 166 3654 230 
L 3654 710 
L 2643 710 
L 2643 269 
Q 2643 218 2595 189 
Q 2547 160 2364 109 
Q 2182 58 2134 58 
Q 2086 58 2093 122 
Q 2125 333 2125 602 
L 2125 2003 
Q 2125 2272 2106 2547 
Q 2554 2381 2778 2234 
z
M 3654 909 
L 3654 2029 
L 2643 2029 
L 2643 909 
L 3654 909 
z
" transform="scale(0.015625)"/>
       <path id="STZhongsong-6bd4" d="M 3789 2112 
Q 4435 2579 5126 3494 
Q 5299 3347 5481 3171 
Q 5664 2995 5693 2956 
Q 5722 2918 5722 2886 
Q 5722 2816 5523 2816 
Q 5325 2816 5056 2611 
Q 4493 2176 3789 1875 
L 3789 51 
Q 3789 -77 3808 -134 
Q 3827 -192 3875 -214 
Q 3923 -237 4102 -249 
Q 4282 -262 4499 -262 
Q 4717 -262 4934 -240 
Q 5152 -218 5219 -186 
Q 5286 -154 5334 -38 
Q 5382 77 5427 320 
Q 5472 563 5542 1062 
L 5696 1062 
Q 5690 582 5709 377 
Q 5728 173 5779 89 
Q 5830 6 5942 -64 
Q 6054 -134 6054 -192 
Q 6054 -250 5923 -448 
Q 5792 -646 5555 -732 
Q 5318 -819 4643 -819 
Q 3968 -819 3673 -774 
Q 3379 -730 3305 -602 
Q 3232 -474 3232 -90 
L 3232 4000 
Q 3232 4435 3213 4717 
Q 3674 4595 3862 4521 
Q 4051 4448 4051 4390 
Q 4051 4333 3789 4192 
L 3789 2112 
z
M 1568 2618 
L 2150 2618 
L 2426 3002 
Q 2496 3104 2569 3104 
Q 2643 3104 2889 2832 
Q 3136 2560 3136 2486 
Q 3136 2413 2995 2413 
L 1568 2413 
L 1568 141 
Q 2381 493 3085 762 
L 3162 634 
Q 1344 -563 1213 -675 
Q 1082 -787 1046 -787 
Q 1011 -787 953 -675 
Q 896 -563 723 -179 
Q 902 -90 956 -13 
Q 1011 64 1011 186 
L 1011 4083 
Q 1011 4410 992 4685 
Q 1190 4646 1516 4547 
Q 1843 4448 1843 4371 
Q 1843 4314 1568 4154 
L 1568 2618 
z
" transform="scale(0.015625)"/>
       <path id="STZhongsong-589e" d="M 5331 1907 
L 2982 1907 
Q 2982 1779 2947 1737 
Q 2912 1696 2720 1619 
Q 2528 1542 2470 1542 
Q 2438 1542 2445 1613 
Q 2477 1907 2477 2246 
L 2477 3501 
Q 2477 3770 2458 4045 
Q 2829 3917 3066 3738 
L 3501 3738 
Q 3437 3763 3357 4041 
Q 3277 4320 3161 4502 
Q 3046 4685 2880 4858 
L 2925 4954 
Q 3386 4762 3626 4576 
Q 3866 4390 3866 4186 
Q 3866 4064 3782 3920 
Q 3699 3776 3584 3738 
L 4352 3738 
Q 4678 4326 4890 4922 
Q 5491 4602 5491 4506 
Q 5491 4454 5379 4441 
Q 5267 4429 5132 4307 
Q 4998 4186 4627 3738 
L 5274 3738 
L 5389 3910 
Q 5466 4026 5526 4026 
Q 5587 4026 5830 3859 
Q 6074 3693 6074 3635 
Q 6074 3578 5862 3482 
L 5862 2522 
Q 5862 2170 5869 2067 
L 5882 1875 
Q 5882 1837 5834 1795 
Q 5786 1754 5597 1680 
Q 5408 1606 5357 1606 
Q 5331 1606 5331 1664 
L 5331 1907 
z
M 3898 2112 
L 3898 3552 
L 2982 3552 
L 2982 2112 
L 3898 2112 
z
M 3162 3354 
Q 3533 3066 3619 2957 
Q 3706 2848 3706 2704 
Q 3706 2560 3616 2454 
Q 3526 2349 3424 2349 
Q 3322 2349 3312 2646 
Q 3302 2944 3085 3277 
L 3162 3354 
z
M 4365 3552 
L 4365 2112 
L 5331 2112 
L 5331 3552 
L 4365 3552 
z
M 4794 3354 
Q 5261 3091 5261 3002 
Q 5261 2976 5241 2969 
Q 5222 2963 5136 2963 
Q 5050 2963 4909 2778 
Q 4685 2477 4493 2266 
L 4416 2336 
Q 4672 2906 4794 3354 
z
M 1082 2630 
L 621 2630 
Q 448 2630 352 2586 
L 230 2854 
Q 365 2822 550 2822 
L 1082 2822 
L 1082 4198 
Q 1082 4614 1056 4774 
Q 1408 4678 1625 4585 
Q 1843 4493 1843 4435 
Q 1843 4378 1613 4269 
L 1613 2822 
L 1715 2822 
L 1862 3072 
Q 1920 3162 1984 3162 
Q 2048 3162 2233 2970 
Q 2419 2778 2419 2704 
Q 2419 2630 2298 2630 
L 1613 2630 
L 1613 896 
L 2592 1203 
L 2656 1082 
L 1574 467 
Q 1152 230 1008 134 
Q 864 38 736 -70 
Q 685 -115 659 -115 
Q 634 -115 586 -44 
Q 538 26 288 512 
Q 550 563 1082 723 
L 1082 2630 
z
M 4966 -435 
L 3373 -435 
L 3373 -685 
Q 3373 -749 3357 -771 
Q 3341 -794 3257 -838 
Q 3174 -883 3040 -921 
Q 2906 -960 2870 -960 
Q 2835 -960 2842 -890 
Q 2874 -646 2874 -256 
L 2874 1075 
Q 2874 1344 2854 1619 
Q 3354 1472 3507 1395 
L 4922 1395 
L 5018 1581 
Q 5056 1651 5123 1651 
Q 5190 1651 5456 1497 
Q 5722 1344 5722 1289 
Q 5722 1235 5517 1146 
L 5517 -19 
Q 5517 -224 5530 -429 
L 5536 -614 
Q 5536 -678 5491 -710 
Q 5446 -742 5264 -806 
Q 5082 -870 5024 -870 
Q 4966 -870 4966 -819 
L 4966 -435 
z
M 3373 557 
L 4966 557 
L 4966 1203 
L 3373 1203 
L 3373 557 
z
M 4966 378 
L 3373 378 
L 3373 -250 
L 4966 -250 
L 4966 378 
z
" transform="scale(0.015625)"/>
       <path id="STZhongsong-957f" d="M 1818 2298 
L 1818 4218 
Q 1818 4544 1798 4819 
Q 2643 4666 2643 4544 
Q 2643 4480 2406 4339 
L 2406 2528 
Q 3539 3379 4621 4672 
Q 4890 4461 5053 4294 
Q 5216 4128 5216 4089 
Q 5216 4051 5187 4044 
Q 5158 4038 5075 4038 
Q 4838 4038 4582 3808 
Q 4147 3418 3664 3098 
Q 3181 2778 2406 2355 
L 2406 2298 
L 4966 2298 
L 5242 2694 
Q 5325 2810 5382 2810 
Q 5440 2810 5747 2515 
Q 6054 2221 6054 2150 
Q 6054 2080 5869 2080 
L 3328 2080 
Q 3744 1126 4448 611 
Q 5152 96 6266 -70 
L 6259 -211 
Q 5856 -230 5705 -304 
Q 5555 -378 5395 -614 
Q 5363 -666 5318 -666 
Q 5216 -666 4617 -259 
Q 4019 147 3696 668 
Q 3373 1190 3110 2080 
L 2406 2080 
L 2406 115 
L 3565 506 
L 3635 390 
Q 2630 -198 2278 -448 
Q 1926 -698 1856 -803 
Q 1786 -909 1750 -909 
Q 1715 -909 1692 -889 
Q 1670 -870 1542 -697 
Q 1414 -525 1299 -358 
Q 1619 -115 1718 67 
Q 1818 250 1818 563 
L 1818 2080 
L 653 2080 
Q 480 2080 384 2035 
L 237 2330 
Q 371 2298 557 2298 
L 1818 2298 
z
" transform="scale(0.015625)"/>
       <path id="STZhongsong-7387" d="M 3008 3930 
Q 2867 4262 2771 4409 
Q 2675 4557 2426 4717 
L 2483 4832 
Q 3002 4749 3270 4621 
Q 3539 4493 3539 4291 
Q 3539 4090 3347 3930 
L 4947 3930 
L 5210 4333 
Q 5274 4422 5334 4422 
Q 5395 4422 5683 4137 
Q 5971 3853 5971 3798 
Q 5971 3744 5830 3744 
L 3110 3744 
Q 3219 3706 3382 3610 
Q 3546 3514 3546 3462 
Q 3546 3411 3478 3398 
Q 3411 3386 3257 3270 
Q 3104 3155 2419 2707 
L 3245 2675 
Q 3584 3053 3834 3424 
Q 3968 3354 4185 3190 
Q 4403 3027 4403 2976 
Q 4403 2938 4269 2938 
Q 4205 2938 4019 2778 
Q 3411 2246 2432 1638 
L 3776 1728 
Q 3680 1933 3475 2163 
L 3533 2246 
Q 3987 2003 4230 1801 
Q 4474 1600 4474 1443 
Q 4474 1286 4365 1123 
Q 4256 960 4141 960 
Q 4064 960 4032 1021 
Q 4000 1082 3952 1261 
Q 3904 1440 3859 1555 
Q 3482 1485 2925 1344 
Q 3136 1350 3353 1308 
Q 3571 1267 3571 1187 
Q 3571 1107 3437 1018 
L 3437 602 
L 5184 602 
L 5434 986 
Q 5491 1082 5571 1082 
Q 5651 1082 5747 986 
L 6022 704 
Q 6202 525 6202 464 
Q 6202 403 6035 403 
L 3437 403 
L 3437 -179 
Q 3437 -390 3450 -627 
L 3456 -845 
Q 3456 -896 3398 -934 
Q 3341 -973 3165 -1037 
Q 2989 -1101 2893 -1101 
Q 2867 -1101 2857 -1085 
Q 2848 -1069 2848 -1005 
L 2861 -755 
Q 2867 -499 2867 -179 
L 2867 403 
L 525 403 
Q 352 403 256 358 
L 141 634 
Q 275 602 461 602 
L 2867 602 
L 2867 787 
Q 2867 1101 2854 1325 
Q 2458 1235 2307 1171 
Q 2157 1107 2128 1107 
Q 2099 1107 2080 1136 
Q 2061 1165 2013 1283 
Q 1965 1402 1894 1651 
Q 2067 1677 2201 1734 
Q 2336 1792 2608 2045 
Q 2880 2298 3040 2458 
Q 2451 2355 2234 2272 
Q 2182 2253 2156 2253 
Q 2131 2253 2118 2269 
Q 2106 2285 2045 2438 
Q 1984 2592 1952 2707 
Q 2093 2733 2160 2771 
Q 2227 2810 2406 2995 
Q 2586 3181 2742 3389 
Q 2899 3597 2970 3744 
L 794 3744 
Q 621 3744 525 3699 
L 410 3962 
Q 544 3930 730 3930 
L 3008 3930 
z
M 934 3648 
Q 1395 3405 1625 3190 
Q 1856 2976 1856 2771 
Q 1856 2566 1747 2428 
Q 1638 2291 1498 2291 
Q 1446 2291 1404 2348 
Q 1363 2406 1357 2483 
Q 1338 2752 1203 3046 
Q 1069 3341 864 3552 
L 934 3648 
z
M 4506 2291 
Q 4928 2144 5136 2029 
Q 5344 1914 5411 1798 
Q 5478 1683 5478 1523 
Q 5478 1363 5376 1219 
Q 5274 1075 5190 1075 
Q 5139 1075 5091 1120 
Q 5043 1165 5018 1229 
Q 4864 1574 4640 1827 
Q 4416 2080 4058 2336 
L 4109 2426 
L 4346 2349 
Q 4845 3194 4947 3603 
Q 5120 3526 5344 3379 
Q 5568 3232 5568 3187 
Q 5568 3142 5459 3129 
Q 5350 3117 5177 2973 
Q 5005 2829 4506 2291 
z
M 2093 2150 
L 1248 1325 
Q 941 1030 889 944 
Q 838 858 806 858 
Q 768 858 694 966 
Q 621 1075 422 1459 
Q 1094 1683 1997 2240 
L 2093 2150 
z
" transform="scale(0.015625)"/>
       <path id="STZhongsong-ff08" d="M 5747 4563 
Q 4781 3258 4781 1997 
Q 4781 1075 5011 480 
Q 5242 -115 5741 -826 
L 5587 -966 
Q 4864 -320 4515 368 
Q 4166 1056 4166 1990 
Q 4166 2688 4537 3395 
Q 4909 4102 5619 4698 
L 5747 4563 
z
" transform="scale(0.015625)"/>
       <path id="STZhongsong-25" d="M 224 3264 
Q 224 3808 502 4121 
Q 781 4435 1248 4435 
Q 1715 4435 1987 4115 
Q 2259 3795 2259 3245 
Q 2259 2714 1974 2400 
Q 1690 2086 1222 2086 
Q 774 2086 499 2406 
Q 224 2726 224 3264 
z
M 1830 3264 
Q 1830 3712 1673 3974 
Q 1517 4237 1242 4237 
Q 966 4237 809 3977 
Q 653 3718 653 3232 
Q 653 2790 813 2537 
Q 973 2285 1229 2285 
Q 1491 2285 1660 2547 
Q 1830 2810 1830 3264 
z
M 4518 4435 
L 1613 -77 
L 1242 -77 
L 4141 4435 
L 4518 4435 
z
M 3501 1101 
Q 3501 1645 3776 1955 
Q 4051 2266 4525 2266 
Q 4998 2266 5267 1949 
Q 5536 1632 5536 1075 
Q 5536 557 5248 240 
Q 4960 -77 4499 -77 
Q 4045 -77 3773 240 
Q 3501 557 3501 1101 
z
M 5101 1094 
Q 5101 1555 4947 1814 
Q 4794 2074 4518 2074 
Q 4250 2074 4090 1811 
Q 3930 1549 3930 1069 
Q 3930 634 4093 381 
Q 4256 128 4506 128 
Q 4787 128 4944 377 
Q 5101 627 5101 1094 
z
" transform="scale(0.015625)"/>
       <path id="STZhongsong-ff09" d="M 819 4787 
Q 1536 4166 1904 3433 
Q 2272 2701 2272 1904 
Q 2272 1107 1881 323 
Q 1491 -461 800 -973 
L 646 -832 
Q 1158 -179 1398 486 
Q 1638 1152 1638 1933 
Q 1638 2714 1382 3421 
Q 1126 4128 646 4653 
L 819 4787 
z
" transform="scale(0.015625)"/>
      </defs>
      <use xlink:href="#STZhongsong-540c"/>
      <use xlink:href="#STZhongsong-6bd4" transform="translate(99.999985 0)"/>
      <use xlink:href="#STZhongsong-589e" transform="translate(199.999969 0)"/>
      <use xlink:href="#STZhongsong-957f" transform="translate(299.999954 0)"/>
      <use xlink:href="#STZhongsong-7387" transform="translate(399.999939 0)"/>
      <use xlink:href="#STZhongsong-ff08" transform="translate(499.999924 0)"/>
      <use xlink:href="#STZhongsong-25" transform="translate(599.999908 0)"/>
      <use xlink:href="#STZhongsong-ff09" transform="translate(689.999893 0)"/>
     </g>
    </g>
   </g>
   <g id="line2d_22">
    <path d="M 62.183594 380.434882 
L 849.708594 380.434882 
" clip-path="url(#pbaaf503730)" style="fill: none; stroke: #333333; stroke-linecap: square"/>
   </g>
   <g id="patch_12">
    <path d="M 62.183594 406.057656 
L 62.183594 38.992656 
" style="fill: none; stroke: #111111; stroke-width: 1.35; stroke-linejoin: miter; stroke-linecap: square"/>
   </g>
   <g id="patch_13">
    <path d="M 62.183594 406.057656 
L 849.708594 406.057656 
" style="fill: none; stroke: #111111; stroke-width: 1.35; stroke-linejoin: miter; stroke-linecap: square"/>
   </g>
   <g id="text_16">
    <!-- 149.0% -->
    <g style="fill: #111111" transform="translate(97.348515 47.677429) scale(0.13 -0.13)">
     <defs>
      <path id="STZhongsong-39" d="M 736 -77 
L 736 218 
Q 1856 224 2374 688 
Q 2893 1152 2938 2138 
Q 2707 1798 2425 1638 
Q 2144 1478 1734 1478 
Q 1088 1478 681 1884 
Q 275 2291 275 2925 
Q 275 3616 720 4025 
Q 1165 4435 1882 4435 
Q 2688 4435 3126 3916 
Q 3565 3398 3565 2438 
Q 3565 1574 3181 963 
Q 2797 352 2201 137 
Q 1606 -77 979 -77 
L 736 -77 
z
M 896 2950 
Q 896 2445 1174 2128 
Q 1453 1811 1875 1811 
Q 2317 1811 2611 2147 
Q 2906 2483 2906 2970 
Q 2906 3475 2618 3814 
Q 2330 4154 1901 4154 
Q 1459 4154 1177 3824 
Q 896 3494 896 2950 
z
" transform="scale(0.015625)"/>
      <path id="STZhongsong-2e" d="M 634 339 
Q 634 506 749 618 
Q 864 730 1024 730 
Q 1184 730 1299 614 
Q 1414 499 1414 339 
Q 1414 173 1299 61 
Q 1184 -51 1024 -51 
Q 864 -51 749 61 
Q 634 173 634 339 
z
" transform="scale(0.015625)"/>
     </defs>
     <use xlink:href="#STZhongsong-31"/>
     <use xlink:href="#STZhongsong-34" transform="translate(61.999985 0)"/>
     <use xlink:href="#STZhongsong-39" transform="translate(123.999969 0)"/>
     <use xlink:href="#STZhongsong-2e" transform="translate(185.999954 0)"/>
     <use xlink:href="#STZhongsong-30" transform="translate(217.999939 0)"/>
     <use xlink:href="#STZhongsong-25" transform="translate(279.999924 0)"/>
    </g>
   </g>
   <g id="text_17">
    <!-- 83.4% -->
    <g style="fill: #111111" transform="translate(185.01541 190.661533) scale(0.13 -0.13)">
     <defs>
      <path id="STZhongsong-33" d="M 934 3194 
L 634 3238 
Q 717 3827 1097 4131 
Q 1478 4435 2061 4435 
Q 2662 4435 3046 4124 
Q 3430 3814 3430 3360 
Q 3430 3021 3190 2761 
Q 2950 2502 2502 2374 
Q 3046 2298 3334 1974 
Q 3622 1651 3622 1222 
Q 3622 698 3155 310 
Q 2688 -77 1997 -77 
Q 1299 -77 844 275 
Q 390 627 390 960 
Q 390 1114 505 1184 
Q 621 1254 710 1254 
Q 922 1254 1043 858 
Q 1133 544 1369 377 
Q 1606 211 1952 211 
Q 2419 211 2720 512 
Q 3021 813 3021 1267 
Q 3021 1702 2717 1952 
Q 2413 2202 1862 2202 
L 1568 2202 
L 1568 2502 
L 1754 2502 
Q 2829 2502 2829 3283 
Q 2829 3629 2592 3843 
Q 2355 4058 1952 4058 
Q 1107 4058 934 3194 
z
" transform="scale(0.015625)"/>
     </defs>
     <use xlink:href="#STZhongsong-38"/>
     <use xlink:href="#STZhongsong-33" transform="translate(61.999985 0)"/>
     <use xlink:href="#STZhongsong-2e" transform="translate(123.999969 0)"/>
     <use xlink:href="#STZhongsong-34" transform="translate(155.999954 0)"/>
     <use xlink:href="#STZhongsong-25" transform="translate(217.999939 0)"/>
    </g>
   </g>
   <g id="text_18">
    <!-- 34.8% -->
    <g style="fill: #111111" transform="translate(268.652304 296.507789) scale(0.13 -0.13)">
     <use xlink:href="#STZhongsong-33"/>
     <use xlink:href="#STZhongsong-34" transform="translate(61.999985 0)"/>
     <use xlink:href="#STZhongsong-2e" transform="translate(123.999969 0)"/>
     <use xlink:href="#STZhongsong-38" transform="translate(155.999954 0)"/>
     <use xlink:href="#STZhongsong-25" transform="translate(217.999939 0)"/>
    </g>
   </g>
   <g id="text_19">
    <!-- 3.3% -->
    <g style="fill: #111111" transform="translate(356.319199 365.293381) scale(0.13 -0.13)">
     <use xlink:href="#STZhongsong-33"/>
     <use xlink:href="#STZhongsong-2e" transform="translate(61.999985 0)"/>
     <use xlink:href="#STZhongsong-33" transform="translate(93.999969 0)"/>
     <use xlink:href="#STZhongsong-25" transform="translate(155.999954 0)"/>
    </g>
   </g>
   <g id="text_20">
    <!-- -4.1% -->
    <g style="fill: #111111" transform="translate(437.356094 407.372884) scale(0.13 -0.13)">
     <defs>
      <path id="STZhongsong-2d" d="M 352 1786 
L 2208 1786 
L 2208 1395 
L 352 1395 
L 352 1786 
z
" transform="scale(0.015625)"/>
     </defs>
     <use xlink:href="#STZhongsong-2d"/>
     <use xlink:href="#STZhongsong-34" transform="translate(39.999985 0)"/>
     <use xlink:href="#STZhongsong-2e" transform="translate(101.999969 0)"/>
     <use xlink:href="#STZhongsong-31" transform="translate(133.999954 0)"/>
     <use xlink:href="#STZhongsong-25" transform="translate(195.999939 0)"/>
    </g>
   </g>
   <g id="text_21">
    <!-- -1.1% -->
    <g style="fill: #111111" transform="translate(520.992988 400.927908) scale(0.13 -0.13)">
     <use xlink:href="#STZhongsong-2d"/>
     <use xlink:href="#STZhongsong-31" transform="translate(39.999985 0)"/>
     <use xlink:href="#STZhongsong-2e" transform="translate(101.999969 0)"/>
     <use xlink:href="#STZhongsong-31" transform="translate(133.999954 0)"/>
     <use xlink:href="#STZhongsong-25" transform="translate(195.999939 0)"/>
    </g>
   </g>
   <g id="text_22">
    <!-- 7.4% -->
    <g style="fill: #111111" transform="translate(607.229883 356.217366) scale(0.13 -0.13)">
     <defs>
      <path id="STZhongsong-37" d="M 691 4518 
L 902 4518 
L 934 4358 
L 3667 4358 
L 3667 4096 
Q 2163 2317 1901 0 
L 1261 0 
Q 1421 1190 1949 2150 
Q 2477 3110 3174 3891 
L 1222 3891 
Q 1005 3891 899 3862 
Q 794 3834 736 3635 
L 614 3206 
L 352 3264 
L 691 4518 
z
" transform="scale(0.015625)"/>
     </defs>
     <use xlink:href="#STZhongsong-37"/>
     <use xlink:href="#STZhongsong-2e" transform="translate(61.999985 0)"/>
     <use xlink:href="#STZhongsong-34" transform="translate(93.999969 0)"/>
     <use xlink:href="#STZhongsong-25" transform="translate(155.999954 0)"/>
    </g>
   </g>
   <g id="text_23">
    <!-- 7.1% -->
    <g style="fill: #111111" transform="translate(690.866778 356.888772) scale(0.13 -0.13)">
     <use xlink:href="#STZhongsong-37"/>
     <use xlink:href="#STZhongsong-2e" transform="translate(61.999985 0)"/>
     <use xlink:href="#STZhongsong-31" transform="translate(93.999969 0)"/>
     <use xlink:href="#STZhongsong-25" transform="translate(155.999954 0)"/>
    </g>
   </g>
   <g id="text_24">
    <!-- 4.5% -->
    <g style="fill: #111111" transform="translate(774.503672 362.541522) scale(0.13 -0.13)">
     <defs>
      <path id="STZhongsong-35" d="M 934 4358 
L 2880 4358 
Q 3046 4358 3097 4387 
Q 3149 4416 3155 4512 
L 3386 4512 
L 3386 3853 
L 1229 3853 
L 1171 2752 
Q 1530 2848 1990 2848 
Q 2771 2848 3228 2451 
Q 3686 2054 3686 1414 
Q 3686 787 3212 355 
Q 2739 -77 2029 -77 
Q 1414 -77 982 236 
Q 550 550 550 890 
Q 550 1037 640 1123 
Q 730 1210 838 1210 
Q 1062 1210 1203 813 
Q 1421 218 2042 218 
Q 2515 218 2819 528 
Q 3123 838 3123 1312 
Q 3123 1824 2777 2128 
Q 2432 2432 1843 2432 
Q 1280 2432 832 2246 
L 934 4358 
z
" transform="scale(0.015625)"/>
     </defs>
     <use xlink:href="#STZhongsong-34"/>
     <use xlink:href="#STZhongsong-2e" transform="translate(61.999985 0)"/>
     <use xlink:href="#STZhongsong-35" transform="translate(93.999969 0)"/>
     <use xlink:href="#STZhongsong-25" transform="translate(155.999954 0)"/>
    </g>
   </g>
   <g id="text_25">
    <!-- 活跃企业数量同比增长率 -->
    <g style="fill: #111111" transform="translate(340.446094 22.992656) scale(0.21 -0.21)">
     <defs>
      <path id="STZhongsong-6d3b" d="M 1018 4704 
Q 1645 4499 1865 4358 
Q 2086 4218 2086 4032 
Q 2086 3846 1964 3667 
Q 1843 3488 1734 3488 
Q 1683 3488 1657 3520 
Q 1632 3552 1545 3782 
Q 1459 4013 1318 4214 
Q 1178 4416 966 4608 
L 1018 4704 
z
M 3731 3814 
Q 3021 3750 2713 3750 
Q 2406 3750 2304 3757 
L 2298 3891 
Q 3053 4006 3933 4227 
Q 4813 4448 5293 4640 
Q 5414 4531 5580 4342 
Q 5747 4154 5769 4112 
Q 5792 4070 5792 4032 
Q 5792 3994 5734 3994 
Q 5715 3994 5632 4022 
Q 5549 4051 5462 4051 
Q 5376 4051 5081 3990 
Q 4787 3930 4288 3878 
L 4288 2630 
L 5126 2630 
L 5421 2995 
Q 5485 3072 5539 3072 
Q 5594 3072 5891 2800 
Q 6189 2528 6189 2480 
Q 6189 2432 6048 2432 
L 4288 2432 
L 4288 1402 
L 4915 1402 
L 5056 1626 
Q 5114 1709 5149 1709 
Q 5184 1709 5475 1523 
Q 5766 1338 5766 1283 
Q 5766 1229 5517 1082 
L 5517 -352 
Q 5517 -448 5523 -531 
L 5536 -666 
Q 5536 -749 5267 -854 
Q 4998 -960 4960 -960 
Q 4922 -960 4922 -890 
L 4922 -403 
L 3142 -403 
L 3142 -781 
Q 3142 -826 3126 -845 
Q 3110 -864 2860 -957 
Q 2611 -1050 2579 -1050 
Q 2547 -1050 2554 -986 
Q 2586 -768 2586 -506 
L 2586 1152 
Q 2586 1421 2566 1696 
Q 3040 1549 3315 1402 
L 3731 1402 
L 3731 2432 
L 2534 2432 
Q 2362 2432 2266 2387 
L 2131 2662 
Q 2266 2630 2451 2630 
L 3731 2630 
L 3731 3814 
z
M 4922 -198 
L 4922 1216 
L 3142 1216 
L 3142 -198 
L 4922 -198 
z
M 2298 3482 
L 1760 1395 
Q 1606 819 1606 457 
Q 1606 96 1644 -176 
Q 1683 -448 1683 -563 
Q 1683 -992 1485 -992 
Q 1299 -992 1116 -873 
Q 934 -755 934 -557 
Q 934 -512 947 -461 
Q 1075 51 1075 329 
Q 1075 608 956 701 
Q 838 794 320 896 
L 333 1024 
Q 723 1030 896 1059 
Q 1069 1088 1145 1168 
Q 1222 1248 1306 1440 
L 2176 3526 
L 2298 3482 
z
M 390 3245 
Q 826 3066 1088 2890 
Q 1350 2714 1350 2525 
Q 1350 2336 1267 2160 
Q 1184 1984 1049 1984 
Q 915 1984 851 2202 
Q 755 2547 624 2745 
Q 493 2944 320 3123 
L 390 3245 
z
" transform="scale(0.015625)"/>
      <path id="STZhongsong-8dc3" d="M 4525 2272 
Q 4685 1152 5046 525 
Q 5408 -102 6189 -544 
L 6170 -685 
Q 5997 -659 5865 -659 
Q 5734 -659 5632 -694 
Q 5530 -730 5443 -806 
Q 5357 -883 5318 -883 
Q 5203 -883 4819 -105 
Q 4435 672 4333 2272 
L 4243 2272 
Q 4166 1389 4044 982 
Q 3923 576 3628 205 
Q 3334 -166 2876 -480 
Q 2419 -794 1779 -1056 
L 1734 -941 
Q 2803 -224 3193 400 
Q 3584 1024 3699 2272 
L 2893 2272 
Q 2720 2272 2624 2227 
L 2509 2522 
Q 2643 2490 2829 2490 
L 3718 2490 
Q 3782 2976 3782 3350 
Q 3782 3725 3776 3910 
Q 3270 3866 2784 3834 
L 2771 3955 
Q 4186 4282 5357 4749 
Q 5773 4230 5773 4109 
Q 5773 4058 5721 4058 
Q 5670 4058 5593 4086 
Q 5517 4115 5424 4115 
Q 5331 4115 5001 4060 
Q 4672 4006 4358 3968 
Q 4320 3091 4262 2490 
L 4992 2490 
L 5293 2893 
Q 5344 2963 5427 2963 
Q 5510 2963 5808 2697 
Q 6106 2432 6106 2352 
Q 6106 2272 5965 2272 
L 4525 2272 
z
M 1350 4339 
L 2086 4339 
L 2234 4576 
Q 2266 4627 2307 4627 
Q 2349 4627 2537 4486 
Q 2726 4346 2800 4282 
Q 2874 4218 2874 4170 
Q 2874 4122 2624 4038 
L 2624 3232 
Q 2624 2982 2630 2899 
L 2637 2733 
Q 2637 2656 2464 2589 
Q 2291 2522 2195 2522 
Q 2131 2522 2131 2624 
L 2131 2733 
L 1325 2733 
L 1325 2566 
Q 1325 2515 1299 2489 
Q 1274 2464 1114 2406 
Q 954 2349 870 2349 
Q 819 2349 826 2426 
Q 851 2733 851 3034 
L 851 4115 
Q 851 4378 832 4653 
Q 1139 4499 1350 4339 
z
M 2131 2918 
L 2131 4141 
L 1325 4141 
L 1325 2918 
L 2131 2918 
z
M 2054 1440 
L 2214 1440 
L 2426 1747 
Q 2477 1818 2528 1818 
Q 2579 1818 2819 1600 
Q 3059 1382 3059 1306 
Q 3059 1261 2931 1261 
L 2054 1261 
L 2054 218 
L 2963 416 
L 3008 288 
L 1856 -192 
Q 1248 -448 928 -685 
Q 870 -730 825 -730 
Q 781 -730 729 -637 
Q 678 -544 403 -122 
L 762 -64 
L 762 1715 
Q 762 2003 749 2227 
Q 1184 2106 1299 2058 
Q 1414 2010 1414 1965 
Q 1414 1920 1229 1830 
L 1229 38 
L 1581 115 
L 1581 2067 
Q 1581 2355 1568 2579 
Q 1914 2522 2058 2483 
Q 2202 2445 2202 2384 
Q 2202 2323 2054 2266 
L 2054 1440 
z
" transform="scale(0.015625)"/>
      <path id="STZhongsong-4f01" d="M 3232 4314 
Q 3174 4243 3130 4160 
Q 2726 3469 2377 3046 
Q 2029 2624 1542 2272 
Q 1056 1920 218 1459 
L 154 1562 
Q 1139 2291 1696 2979 
Q 2253 3667 2771 4832 
Q 3482 4576 3482 4506 
Q 3482 4467 3341 4410 
Q 4179 3034 6259 2554 
L 6246 2432 
Q 5946 2432 5786 2371 
Q 5626 2310 5472 2112 
Q 5427 2061 5389 2061 
Q 5318 2061 4774 2432 
Q 4230 2803 3852 3251 
Q 3475 3699 3232 4314 
z
M 3558 1414 
L 4179 1414 
L 4429 1754 
Q 4486 1830 4557 1830 
Q 4614 1830 4761 1721 
Q 4909 1613 5056 1472 
Q 5203 1331 5203 1286 
Q 5203 1216 5062 1216 
L 3558 1216 
L 3558 -461 
L 4870 -461 
L 5171 -45 
Q 5235 45 5280 45 
Q 5344 45 5696 -240 
Q 6048 -525 6048 -598 
Q 6048 -672 5933 -672 
L 723 -672 
Q 550 -672 454 -717 
L 339 -429 
Q 474 -461 659 -461 
L 1466 -461 
L 1466 1370 
Q 1466 1690 1453 1939 
Q 1971 1805 2076 1763 
Q 2182 1722 2182 1677 
Q 2182 1632 2016 1549 
L 2016 -461 
L 3034 -461 
L 3034 2413 
Q 3034 2733 3021 2982 
Q 3360 2899 3568 2816 
Q 3776 2733 3776 2682 
Q 3776 2611 3558 2502 
L 3558 1414 
z
" transform="scale(0.015625)"/>
      <path id="STZhongsong-4e1a" d="M 3552 -422 
L 3552 4154 
Q 3552 4646 3539 4755 
Q 3821 4698 4096 4608 
Q 4371 4518 4371 4448 
Q 4371 4378 4096 4243 
L 4096 768 
Q 4659 1626 5158 3341 
Q 5747 3053 5843 2989 
Q 5939 2925 5939 2873 
Q 5939 2822 5818 2810 
Q 5766 2803 5731 2771 
Q 5696 2739 5619 2618 
Q 4813 1210 4096 442 
L 4096 -422 
L 5056 -422 
L 5370 -26 
Q 5440 58 5485 58 
Q 5530 58 5616 -16 
Q 5702 -90 5862 -240 
Q 6022 -390 6092 -476 
Q 6163 -563 6163 -608 
Q 6163 -653 6048 -653 
L 640 -653 
Q 499 -653 416 -685 
L 282 -390 
Q 384 -422 538 -422 
L 2278 -422 
L 2278 4115 
Q 2278 4608 2266 4717 
Q 2886 4576 3001 4531 
Q 3117 4486 3117 4422 
Q 3117 4358 2822 4256 
L 2822 -422 
L 3552 -422 
z
M 787 3181 
Q 1357 2458 1645 2000 
Q 1933 1542 1933 1273 
Q 1933 1005 1757 758 
Q 1581 512 1434 512 
Q 1363 512 1340 557 
Q 1318 602 1318 781 
Q 1318 1754 698 3104 
L 787 3181 
z
" transform="scale(0.015625)"/>
      <path id="STZhongsong-6570" d="M 2394 3334 
L 2938 3334 
L 3136 3616 
Q 3181 3680 3245 3680 
Q 3309 3680 3520 3462 
Q 3731 3245 3731 3193 
Q 3731 3142 3610 3142 
L 2394 3142 
L 2394 3027 
Q 2784 2938 3069 2819 
Q 3354 2701 3354 2515 
Q 3354 2381 3296 2227 
Q 3238 2074 3171 2074 
Q 3104 2074 3069 2109 
Q 3034 2144 2963 2259 
Q 2893 2374 2720 2556 
Q 2547 2739 2394 2854 
Q 2406 2381 2406 2259 
Q 2406 2138 2393 2099 
Q 2381 2061 2217 2006 
Q 2054 1952 1971 1933 
Q 2291 1811 2291 1722 
Q 2291 1670 2227 1660 
Q 2163 1651 2118 1609 
Q 2074 1568 1990 1434 
L 2637 1434 
L 2803 1619 
Q 2854 1677 2892 1677 
Q 2931 1677 3190 1481 
Q 3450 1286 3450 1228 
Q 3450 1171 3338 1148 
Q 3226 1126 3168 1088 
Q 3110 1050 3053 941 
Q 2848 563 2637 307 
Q 3040 205 3133 38 
Q 3226 -128 3226 -262 
Q 3226 -397 3187 -467 
Q 3149 -538 3101 -538 
Q 3053 -538 2816 -378 
Q 2579 -218 2278 -51 
Q 1664 -589 384 -992 
L 333 -877 
Q 1338 -371 1875 141 
Q 1440 326 845 474 
Q 1184 954 1331 1222 
L 691 1222 
Q 518 1222 422 1190 
L 307 1453 
Q 410 1434 627 1434 
L 1440 1434 
Q 1626 1824 1690 2035 
Q 1818 1997 1869 1978 
Q 1888 2515 1888 2874 
Q 1421 2125 282 1613 
L 243 1715 
Q 1075 2330 1549 3142 
L 589 3142 
Q 467 3142 390 3110 
L 301 3366 
Q 416 3334 550 3334 
L 1888 3334 
L 1888 4147 
Q 1888 4698 1875 4877 
Q 2592 4723 2592 4653 
Q 2592 4608 2394 4499 
L 2394 3334 
z
M 1856 1222 
L 1427 570 
Q 1914 480 2138 429 
Q 2413 762 2630 1222 
L 1856 1222 
z
M 4326 3270 
L 5222 3270 
L 5485 3590 
Q 5549 3661 5609 3661 
Q 5670 3661 5939 3421 
Q 6208 3181 6208 3117 
Q 6208 3072 6054 3072 
L 5050 3072 
Q 5638 2925 5638 2810 
Q 5638 2771 5542 2742 
Q 5446 2714 5404 2643 
Q 5363 2573 5338 2438 
Q 5088 1069 4749 518 
Q 5261 -186 6304 -646 
L 6246 -774 
Q 6080 -730 5933 -730 
Q 5658 -730 5446 -902 
Q 5389 -947 5363 -947 
Q 5299 -947 4934 -534 
Q 4570 -122 4448 102 
Q 4115 -301 3657 -579 
Q 3200 -858 2470 -1139 
L 2413 -1005 
Q 3642 -307 4211 544 
Q 3942 1152 3878 2342 
Q 3654 1946 3322 1491 
L 3213 1555 
Q 3949 2963 4109 4877 
Q 4333 4832 4563 4761 
Q 4794 4691 4858 4649 
Q 4922 4608 4922 4563 
Q 4922 4518 4813 4492 
Q 4704 4467 4653 4384 
Q 4602 4301 4538 3974 
Q 4474 3648 4326 3270 
z
M 4870 3072 
L 4250 3072 
L 4064 2682 
Q 4141 1594 4454 979 
Q 4723 1619 4870 3072 
z
M 3104 4602 
Q 3264 4525 3453 4422 
Q 3642 4320 3670 4288 
Q 3699 4256 3699 4221 
Q 3699 4186 3673 4170 
Q 3648 4154 3539 4154 
Q 3430 4154 3315 4038 
Q 2957 3680 2528 3392 
L 2464 3488 
Q 2906 4102 3104 4602 
z
M 653 4512 
Q 1171 4326 1353 4201 
Q 1536 4077 1536 3901 
Q 1536 3725 1453 3590 
Q 1370 3456 1286 3456 
Q 1203 3456 1164 3494 
Q 1126 3533 1084 3673 
Q 1043 3814 899 4038 
Q 755 4262 589 4429 
L 653 4512 
z
" transform="scale(0.015625)"/>
      <path id="STZhongsong-91cf" d="M 2054 4480 
L 4410 4480 
L 4576 4691 
Q 4608 4730 4640 4730 
Q 4691 4730 4969 4582 
Q 5248 4435 5248 4368 
Q 5248 4301 5024 4198 
L 5024 3738 
Q 5024 3552 5037 3341 
L 5043 3142 
Q 5043 3098 5030 3075 
Q 5018 3053 4922 2992 
Q 4826 2931 4685 2876 
Q 4544 2822 4509 2822 
Q 4474 2822 4474 2880 
L 4474 3046 
L 2016 3046 
Q 2029 2989 2006 2960 
Q 1984 2931 1897 2886 
Q 1811 2842 1660 2797 
Q 1510 2752 1475 2752 
Q 1440 2752 1446 2822 
Q 1478 3130 1478 3456 
L 1478 4198 
Q 1478 4467 1459 4742 
Q 1830 4608 2054 4480 
z
M 4474 3853 
L 4474 4294 
L 2016 4294 
L 2016 3853 
L 4474 3853 
z
M 4474 3213 
L 4474 3674 
L 2016 3674 
L 2016 3213 
L 4474 3213 
z
M 5171 2675 
L 5395 3040 
Q 5434 3110 5491 3110 
Q 5549 3110 5690 2989 
L 5984 2746 
Q 6138 2618 6138 2560 
Q 6138 2502 5990 2502 
L 640 2502 
Q 467 2502 371 2458 
L 256 2707 
Q 390 2675 576 2675 
L 5171 2675 
z
M 3482 672 
L 3482 166 
L 4666 166 
L 4864 416 
Q 4902 474 4950 474 
Q 4998 474 5251 285 
Q 5504 96 5504 38 
Q 5504 -19 5286 -19 
L 3482 -19 
L 3482 -550 
L 5203 -550 
L 5434 -230 
Q 5485 -160 5542 -160 
Q 5600 -160 5865 -390 
Q 6131 -621 6131 -691 
Q 6131 -736 5965 -736 
L 582 -736 
Q 410 -736 314 -781 
L 198 -518 
Q 333 -550 518 -550 
L 2931 -550 
L 2931 -19 
L 1274 -19 
Q 1101 -19 1005 -64 
L 877 198 
Q 1011 166 1197 166 
L 2931 166 
L 2931 672 
L 1843 672 
Q 1843 589 1824 569 
Q 1805 550 1725 505 
Q 1645 461 1481 413 
Q 1318 365 1296 365 
Q 1274 365 1280 422 
Q 1312 717 1312 1050 
L 1312 1747 
Q 1312 2074 1293 2355 
Q 1715 2253 1926 2150 
L 4544 2150 
L 4685 2362 
Q 4717 2413 4765 2413 
Q 4813 2413 4944 2333 
Q 5075 2253 5209 2157 
Q 5344 2061 5344 2029 
Q 5344 1971 5126 1850 
L 5126 1363 
Q 5126 1056 5133 954 
L 5139 762 
Q 5139 704 5091 669 
Q 5043 634 4880 592 
Q 4717 550 4627 550 
Q 4576 550 4576 627 
L 4576 672 
L 3482 672 
z
M 2931 1510 
L 2931 1978 
L 1843 1978 
L 1843 1510 
L 2931 1510 
z
M 3482 1978 
L 3482 1510 
L 4576 1510 
L 4576 1978 
L 3482 1978 
z
M 3482 1312 
L 3482 858 
L 4576 858 
L 4576 1312 
L 3482 1312 
z
M 2931 858 
L 2931 1312 
L 1843 1312 
L 1843 858 
L 2931 858 
z
" transform="scale(0.015625)"/>
     </defs>
     <use xlink:href="#STZhongsong-6d3b"/>
     <use xlink:href="#STZhongsong-8dc3" transform="translate(99.999985 0)"/>
     <use xlink:href="#STZhongsong-4f01" transform="translate(199.999969 0)"/>
     <use xlink:href="#STZhongsong-4e1a" transform="translate(299.999954 0)"/>
     <use xlink:href="#STZhongsong-6570" transform="translate(399.999939 0)"/>
     <use xlink:href="#STZhongsong-91cf" transform="translate(499.999924 0)"/>
     <use xlink:href="#STZhongsong-540c" transform="translate(599.999908 0)"/>
     <use xlink:href="#STZhongsong-6bd4" transform="translate(699.999893 0)"/>
     <use xlink:href="#STZhongsong-589e" transform="translate(799.999878 0)"/>
     <use xlink:href="#STZhongsong-957f" transform="translate(899.999863 0)"/>
     <use xlink:href="#STZhongsong-7387" transform="translate(999.999847 0)"/>
    </g>
   </g>
  </g>
 </g>
 <defs>
  <clipPath id="pbaaf503730">
   <rect x="62.183594" y="38.992656" width="787.525" height="367.065"/>
  </clipPath>
 </defs>
</svg>
