<?xml version="1.0" encoding="utf-8" standalone="no"?>
<!DOCTYPE svg PUBLIC "-//W3C//DTD SVG 1.1//EN"
  "http://www.w3.org/Graphics/SVG/1.1/DTD/svg11.dtd">
<svg xmlns:xlink="http://www.w3.org/1999/xlink" width="856.55pt" height="600.086812pt" viewBox="0 0 856.55 600.086812" xmlns="http://www.w3.org/2000/svg" version="1.1">
 <metadata>
  <rdf:RDF xmlns:dc="http://purl.org/dc/elements/1.1/" xmlns:cc="http://creativecommons.org/ns#" xmlns:rdf="http://www.w3.org/1999/02/22-rdf-syntax-ns#">
   <cc:Work>
    <dc:type rdf:resource="http://purl.org/dc/dcmitype/StillImage"/>
    <dc:date>2026-06-06T01:20:57.698768</dc:date>
    <dc:format>image/svg+xml</dc:format>
    <dc:creator>
     <cc:Agent>
      <dc:title>Matplotlib v3.10.0, https://matplotlib.org/</dc:title>
     </cc:Agent>
    </dc:creator>
   </cc:Work>
  </rdf:RDF>
 </metadata>
 <defs>
  <style type="text/css">*{stroke-linejoin: round; stroke-linecap: butt}</style>
 </defs>
 <g id="figure_1">
  <g id="patch_1">
   <path d="M -0 600.086812 
L 856.55 600.086812 
L 856.55 0 
L -0 0 
z
" style="fill: #ffffff"/>
  </g>
  <g id="axes_1">
   <g id="patch_2">
    <path d="M 80.68 297.39775 
L 849.35 297.39775 
L 849.35 76.60275 
L 80.68 76.60275 
z
" style="fill: #ffffff"/>
   </g>
   <g id="matplotlib.axis_1">
    <g id="xtick_1">
     <g id="line2d_1">
      <defs>
       <path id="m2fbf555f12" d="M 0 0 
L 0 3.5 
" style="stroke: #111111; stroke-width: 0.8"/>
      </defs>
      <g>
       <use xlink:href="#m2fbf555f12" x="136.086225" y="297.39775" style="fill: #111111; stroke: #111111; stroke-width: 0.8"/>
      </g>
     </g>
    </g>
    <g id="xtick_2">
     <g id="line2d_2">
      <g>
       <use xlink:href="#m2fbf555f12" x="209.181508" y="297.39775" style="fill: #111111; stroke: #111111; stroke-width: 0.8"/>
      </g>
     </g>
    </g>
    <g id="xtick_3">
     <g id="line2d_3">
      <g>
       <use xlink:href="#m2fbf555f12" x="282.276792" y="297.39775" style="fill: #111111; stroke: #111111; stroke-width: 0.8"/>
      </g>
     </g>
    </g>
    <g id="xtick_4">
     <g id="line2d_4">
      <g>
       <use xlink:href="#m2fbf555f12" x="355.372075" y="297.39775" style="fill: #111111; stroke: #111111; stroke-width: 0.8"/>
      </g>
     </g>
    </g>
    <g id="xtick_5">
     <g id="line2d_5">
      <g>
       <use xlink:href="#m2fbf555f12" x="428.467358" y="297.39775" style="fill: #111111; stroke: #111111; stroke-width: 0.8"/>
      </g>
     </g>
    </g>
    <g id="xtick_6">
     <g id="line2d_6">
      <g>
       <use xlink:href="#m2fbf555f12" x="501.562642" y="297.39775" style="fill: #111111; stroke: #111111; stroke-width: 0.8"/>
      </g>
     </g>
    </g>
    <g id="xtick_7">
     <g id="line2d_7">
      <g>
       <use xlink:href="#m2fbf555f12" x="574.657925" y="297.39775" style="fill: #111111; stroke: #111111; stroke-width: 0.8"/>
      </g>
     </g>
    </g>
    <g id="xtick_8">
     <g id="line2d_8">
      <g>
       <use xlink:href="#m2fbf555f12" x="647.753208" y="297.39775" style="fill: #111111; stroke: #111111; stroke-width: 0.8"/>
      </g>
     </g>
    </g>
    <g id="xtick_9">
     <g id="line2d_9">
      <g>
       <use xlink:href="#m2fbf555f12" x="720.848492" y="297.39775" style="fill: #111111; stroke: #111111; stroke-width: 0.8"/>
      </g>
     </g>
    </g>
    <g id="xtick_10">
     <g id="line2d_10">
      <g>
       <use xlink:href="#m2fbf555f12" x="793.943775" y="297.39775" style="fill: #111111; stroke: #111111; stroke-width: 0.8"/>
      </g>
     </g>
    </g>
   </g>
   <g id="matplotlib.axis_2">
    <g id="ytick_1">
     <g id="line2d_11">
      <path d="M 80.68 285.037238 
L 849.35 285.037238 
" clip-path="url(#p0f0688584c)" style="fill: none; stroke: #ececec; stroke-width: 0.9; stroke-linecap: square"/>
     </g>
     <g id="line2d_12">
      <defs>
       <path id="m14840d3242" d="M 0 0 
L -3.5 0 
" style="stroke: #111111; stroke-width: 0.8"/>
      </defs>
      <g>
       <use xlink:href="#m14840d3242" x="80.68" y="285.037238" style="fill: #111111; stroke: #111111; stroke-width: 0.8"/>
      </g>
     </g>
     <g id="text_1">
      <!-- 2000 -->
      <g style="fill: #111111" transform="translate(36.48 290.40677) scale(0.15 -0.15)">
       <defs>
        <path id="STZhongsong-32" d="M 723 2714 
L 422 2675 
Q 397 2835 397 2989 
Q 397 3616 832 4025 
Q 1267 4435 1978 4435 
Q 2630 4435 3043 4064 
Q 3456 3693 3456 3098 
Q 3456 2669 3286 2349 
Q 3117 2029 2611 1603 
Q 2106 1178 1037 467 
L 2662 467 
Q 2963 467 3062 544 
Q 3162 621 3200 838 
L 3232 1018 
L 3494 1018 
L 3283 -154 
L 3085 -154 
L 3053 0 
L 320 0 
L 320 262 
L 819 640 
Q 1901 1453 2377 1977 
Q 2854 2502 2854 3066 
Q 2854 3507 2569 3788 
Q 2285 4070 1837 4070 
Q 1325 4070 1017 3753 
Q 710 3437 710 2918 
Q 710 2822 723 2714 
z
" transform="scale(0.015625)"/>
        <path id="STZhongsong-30" d="M 326 2182 
Q 326 3251 774 3843 
Q 1222 4435 1997 4435 
Q 2752 4435 3197 3827 
Q 3642 3219 3642 2144 
Q 3642 1139 3178 531 
Q 2714 -77 1952 -77 
Q 1229 -77 777 524 
Q 326 1126 326 2182 
z
M 3040 2182 
Q 3040 3104 2758 3616 
Q 2477 4128 1978 4128 
Q 1478 4128 1200 3590 
Q 922 3053 922 2118 
Q 922 1229 1210 733 
Q 1498 237 1971 237 
Q 2470 237 2755 752 
Q 3040 1267 3040 2182 
z
" transform="scale(0.015625)"/>
       </defs>
       <use xlink:href="#STZhongsong-32"/>
       <use xlink:href="#STZhongsong-30" transform="translate(61.999985 0)"/>
       <use xlink:href="#STZhongsong-30" transform="translate(123.999969 0)"/>
       <use xlink:href="#STZhongsong-30" transform="translate(185.999954 0)"/>
      </g>
     </g>
    </g>
    <g id="ytick_2">
     <g id="line2d_13">
      <path d="M 80.68 250.602047 
L 849.35 250.602047 
" clip-path="url(#p0f0688584c)" style="fill: none; stroke: #ececec; stroke-width: 0.9; stroke-linecap: square"/>
     </g>
     <g id="line2d_14">
      <g>
       <use xlink:href="#m14840d3242" x="80.68" y="250.602047" style="fill: #111111; stroke: #111111; stroke-width: 0.8"/>
      </g>
     </g>
     <g id="text_2">
      <!-- 4000 -->
      <g style="fill: #111111" transform="translate(36.48 255.971579) scale(0.15 -0.15)">
       <defs>
        <path id="STZhongsong-34" d="M 3494 1242 
L 2906 1242 
L 2906 518 
Q 2906 275 3213 250 
L 3213 45 
L 1882 45 
L 1882 250 
Q 2054 262 2156 336 
Q 2259 410 2259 518 
L 2259 1242 
L 550 1242 
L 550 1658 
L 2483 4365 
L 2906 4365 
L 2906 1581 
L 3494 1581 
L 3494 1242 
z
M 2259 1581 
L 2259 3462 
L 902 1581 
L 2259 1581 
z
" transform="scale(0.015625)"/>
       </defs>
       <use xlink:href="#STZhongsong-34"/>
       <use xlink:href="#STZhongsong-30" transform="translate(61.999985 0)"/>
       <use xlink:href="#STZhongsong-30" transform="translate(123.999969 0)"/>
       <use xlink:href="#STZhongsong-30" transform="translate(185.999954 0)"/>
      </g>
     </g>
    </g>
    <g id="ytick_3">
     <g id="line2d_15">
      <path d="M 80.68 216.166857 
L 849.35 216.166857 
" clip-path="url(#p0f0688584c)" style="fill: none; stroke: #ececec; stroke-width: 0.9; stroke-linecap: square"/>
     </g>
     <g id="line2d_16">
      <g>
       <use xlink:href="#m14840d3242" x="80.68" y="216.166857" style="fill: #111111; stroke: #111111; stroke-width: 0.8"/>
      </g>
     </g>
     <g id="text_3">
      <!-- 6000 -->
      <g style="fill: #111111" transform="translate(36.48 221.536388) scale(0.15 -0.15)">
       <defs>
        <path id="STZhongsong-36" d="M 3238 4442 
L 3238 4154 
Q 2131 4141 1603 3686 
Q 1075 3232 1037 2227 
Q 1446 2893 2240 2893 
Q 2880 2893 3289 2486 
Q 3699 2080 3699 1440 
Q 3699 742 3257 332 
Q 2816 -77 2093 -77 
Q 1286 -77 848 444 
Q 410 966 410 1926 
Q 410 3046 1056 3744 
Q 1702 4442 2995 4442 
L 3238 4442 
z
M 3072 1414 
Q 3072 1933 2800 2246 
Q 2528 2560 2099 2560 
Q 1658 2560 1363 2224 
Q 1069 1888 1069 1402 
Q 1069 890 1350 550 
Q 1632 211 2074 211 
Q 2509 211 2790 544 
Q 3072 877 3072 1414 
z
" transform="scale(0.015625)"/>
       </defs>
       <use xlink:href="#STZhongsong-36"/>
       <use xlink:href="#STZhongsong-30" transform="translate(61.999985 0)"/>
       <use xlink:href="#STZhongsong-30" transform="translate(123.999969 0)"/>
       <use xlink:href="#STZhongsong-30" transform="translate(185.999954 0)"/>
      </g>
     </g>
    </g>
    <g id="ytick_4">
     <g id="line2d_17">
      <path d="M 80.68 181.731666 
L 849.35 181.731666 
" clip-path="url(#p0f0688584c)" style="fill: none; stroke: #ececec; stroke-width: 0.9; stroke-linecap: square"/>
     </g>
     <g id="line2d_18">
      <g>
       <use xlink:href="#m14840d3242" x="80.68" y="181.731666" style="fill: #111111; stroke: #111111; stroke-width: 0.8"/>
      </g>
     </g>
     <g id="text_4">
      <!-- 8000 -->
      <g style="fill: #111111" transform="translate(36.48 187.101197) scale(0.15 -0.15)">
       <defs>
        <path id="STZhongsong-38" d="M 2477 2419 
Q 3021 2208 3315 1923 
Q 3610 1638 3610 1197 
Q 3610 659 3152 291 
Q 2694 -77 1971 -77 
Q 1274 -77 816 272 
Q 358 621 358 1120 
Q 358 1485 633 1779 
Q 909 2074 1440 2259 
Q 1011 2451 800 2691 
Q 589 2931 589 3315 
Q 589 3814 998 4124 
Q 1408 4435 2035 4435 
Q 2618 4435 2998 4134 
Q 3379 3834 3379 3424 
Q 3379 2790 2477 2419 
z
M 2189 2534 
Q 2451 2707 2662 2918 
Q 2874 3130 2874 3418 
Q 2874 3706 2621 3923 
Q 2368 4141 1971 4141 
Q 1594 4141 1331 3926 
Q 1069 3712 1069 3430 
Q 1069 3168 1270 2989 
Q 1472 2810 1824 2675 
L 2189 2534 
z
M 1747 2131 
Q 1325 1939 1088 1670 
Q 851 1402 851 1126 
Q 851 762 1177 490 
Q 1504 218 1984 218 
Q 2438 218 2774 483 
Q 3110 749 3110 1082 
Q 3110 1594 2253 1933 
L 1747 2131 
z
" transform="scale(0.015625)"/>
       </defs>
       <use xlink:href="#STZhongsong-38"/>
       <use xlink:href="#STZhongsong-30" transform="translate(61.999985 0)"/>
       <use xlink:href="#STZhongsong-30" transform="translate(123.999969 0)"/>
       <use xlink:href="#STZhongsong-30" transform="translate(185.999954 0)"/>
      </g>
     </g>
    </g>
    <g id="ytick_5">
     <g id="line2d_19">
      <path d="M 80.68 147.296475 
L 849.35 147.296475 
" clip-path="url(#p0f0688584c)" style="fill: none; stroke: #ececec; stroke-width: 0.9; stroke-linecap: square"/>
     </g>
     <g id="line2d_20">
      <g>
       <use xlink:href="#m14840d3242" x="80.68" y="147.296475" style="fill: #111111; stroke: #111111; stroke-width: 0.8"/>
      </g>
     </g>
     <g id="text_5">
      <!-- 10000 -->
      <g style="fill: #111111" transform="translate(27.18 152.666006) scale(0.15 -0.15)">
       <defs>
        <path id="STZhongsong-31" d="M 2150 4358 
L 2387 4358 
L 2387 742 
Q 2387 422 2464 342 
Q 2541 262 2822 262 
L 3130 262 
L 3130 0 
L 1069 0 
L 1069 262 
L 1408 262 
Q 1670 262 1766 348 
Q 1862 435 1862 742 
L 1862 3718 
L 1069 3718 
L 1069 3987 
Q 1709 4070 2150 4358 
z
" transform="scale(0.015625)"/>
       </defs>
       <use xlink:href="#STZhongsong-31"/>
       <use xlink:href="#STZhongsong-30" transform="translate(61.999985 0)"/>
       <use xlink:href="#STZhongsong-30" transform="translate(123.999969 0)"/>
       <use xlink:href="#STZhongsong-30" transform="translate(185.999954 0)"/>
       <use xlink:href="#STZhongsong-30" transform="translate(247.999939 0)"/>
      </g>
     </g>
    </g>
    <g id="ytick_6">
     <g id="line2d_21">
      <path d="M 80.68 112.861284 
L 849.35 112.861284 
" clip-path="url(#p0f0688584c)" style="fill: none; stroke: #ececec; stroke-width: 0.9; stroke-linecap: square"/>
     </g>
     <g id="line2d_22">
      <g>
       <use xlink:href="#m14840d3242" x="80.68" y="112.861284" style="fill: #111111; stroke: #111111; stroke-width: 0.8"/>
      </g>
     </g>
     <g id="text_6">
      <!-- 12000 -->
      <g style="fill: #111111" transform="translate(27.18 118.230815) scale(0.15 -0.15)">
       <use xlink:href="#STZhongsong-31"/>
       <use xlink:href="#STZhongsong-32" transform="translate(61.999985 0)"/>
       <use xlink:href="#STZhongsong-30" transform="translate(123.999969 0)"/>
       <use xlink:href="#STZhongsong-30" transform="translate(185.999954 0)"/>
       <use xlink:href="#STZhongsong-30" transform="translate(247.999939 0)"/>
      </g>
     </g>
    </g>
    <g id="ytick_7">
     <g id="line2d_23">
      <path d="M 80.68 78.426093 
L 849.35 78.426093 
" clip-path="url(#p0f0688584c)" style="fill: none; stroke: #ececec; stroke-width: 0.9; stroke-linecap: square"/>
     </g>
     <g id="line2d_24">
      <g>
       <use xlink:href="#m14840d3242" x="80.68" y="78.426093" style="fill: #111111; stroke: #111111; stroke-width: 0.8"/>
      </g>
     </g>
     <g id="text_7">
      <!-- 14000 -->
      <g style="fill: #111111" transform="translate(27.18 83.795625) scale(0.15 -0.15)">
       <use xlink:href="#STZhongsong-31"/>
       <use xlink:href="#STZhongsong-34" transform="translate(61.999985 0)"/>
       <use xlink:href="#STZhongsong-30" transform="translate(123.999969 0)"/>
       <use xlink:href="#STZhongsong-30" transform="translate(185.999954 0)"/>
       <use xlink:href="#STZhongsong-30" transform="translate(247.999939 0)"/>
      </g>
     </g>
    </g>
    <g id="text_8">
     <!-- 活跃企业数量 -->
     <g style="fill: #111111" transform="translate(19.78 238.00025) rotate(-90) scale(0.17 -0.17)">
      <defs>
       <path id="STZhongsong-6d3b" d="M 1018 4704 
Q 1645 4499 1865 4358 
Q 2086 4218 2086 4032 
Q 2086 3846 1964 3667 
Q 1843 3488 1734 3488 
Q 1683 3488 1657 3520 
Q 1632 3552 1545 3782 
Q 1459 4013 1318 4214 
Q 1178 4416 966 4608 
L 1018 4704 
z
M 3731 3814 
Q 3021 3750 2713 3750 
Q 2406 3750 2304 3757 
L 2298 3891 
Q 3053 4006 3933 4227 
Q 4813 4448 5293 4640 
Q 5414 4531 5580 4342 
Q 5747 4154 5769 4112 
Q 5792 4070 5792 4032 
Q 5792 3994 5734 3994 
Q 5715 3994 5632 4022 
Q 5549 4051 5462 4051 
Q 5376 4051 5081 3990 
Q 4787 3930 4288 3878 
L 4288 2630 
L 5126 2630 
L 5421 2995 
Q 5485 3072 5539 3072 
Q 5594 3072 5891 2800 
Q 6189 2528 6189 2480 
Q 6189 2432 6048 2432 
L 4288 2432 
L 4288 1402 
L 4915 1402 
L 5056 1626 
Q 5114 1709 5149 1709 
Q 5184 1709 5475 1523 
Q 5766 1338 5766 1283 
Q 5766 1229 5517 1082 
L 5517 -352 
Q 5517 -448 5523 -531 
L 5536 -666 
Q 5536 -749 5267 -854 
Q 4998 -960 4960 -960 
Q 4922 -960 4922 -890 
L 4922 -403 
L 3142 -403 
L 3142 -781 
Q 3142 -826 3126 -845 
Q 3110 -864 2860 -957 
Q 2611 -1050 2579 -1050 
Q 2547 -1050 2554 -986 
Q 2586 -768 2586 -506 
L 2586 1152 
Q 2586 1421 2566 1696 
Q 3040 1549 3315 1402 
L 3731 1402 
L 3731 2432 
L 2534 2432 
Q 2362 2432 2266 2387 
L 2131 2662 
Q 2266 2630 2451 2630 
L 3731 2630 
L 3731 3814 
z
M 4922 -198 
L 4922 1216 
L 3142 1216 
L 3142 -198 
L 4922 -198 
z
M 2298 3482 
L 1760 1395 
Q 1606 819 1606 457 
Q 1606 96 1644 -176 
Q 1683 -448 1683 -563 
Q 1683 -992 1485 -992 
Q 1299 -992 1116 -873 
Q 934 -755 934 -557 
Q 934 -512 947 -461 
Q 1075 51 1075 329 
Q 1075 608 956 701 
Q 838 794 320 896 
L 333 1024 
Q 723 1030 896 1059 
Q 1069 1088 1145 1168 
Q 1222 1248 1306 1440 
L 2176 3526 
L 2298 3482 
z
M 390 3245 
Q 826 3066 1088 2890 
Q 1350 2714 1350 2525 
Q 1350 2336 1267 2160 
Q 1184 1984 1049 1984 
Q 915 1984 851 2202 
Q 755 2547 624 2745 
Q 493 2944 320 3123 
L 390 3245 
z
" transform="scale(0.015625)"/>
       <path id="STZhongsong-8dc3" d="M 4525 2272 
Q 4685 1152 5046 525 
Q 5408 -102 6189 -544 
L 6170 -685 
Q 5997 -659 5865 -659 
Q 5734 -659 5632 -694 
Q 5530 -730 5443 -806 
Q 5357 -883 5318 -883 
Q 5203 -883 4819 -105 
Q 4435 672 4333 2272 
L 4243 2272 
Q 4166 1389 4044 982 
Q 3923 576 3628 205 
Q 3334 -166 2876 -480 
Q 2419 -794 1779 -1056 
L 1734 -941 
Q 2803 -224 3193 400 
Q 3584 1024 3699 2272 
L 2893 2272 
Q 2720 2272 2624 2227 
L 2509 2522 
Q 2643 2490 2829 2490 
L 3718 2490 
Q 3782 2976 3782 3350 
Q 3782 3725 3776 3910 
Q 3270 3866 2784 3834 
L 2771 3955 
Q 4186 4282 5357 4749 
Q 5773 4230 5773 4109 
Q 5773 4058 5721 4058 
Q 5670 4058 5593 4086 
Q 5517 4115 5424 4115 
Q 5331 4115 5001 4060 
Q 4672 4006 4358 3968 
Q 4320 3091 4262 2490 
L 4992 2490 
L 5293 2893 
Q 5344 2963 5427 2963 
Q 5510 2963 5808 2697 
Q 6106 2432 6106 2352 
Q 6106 2272 5965 2272 
L 4525 2272 
z
M 1350 4339 
L 2086 4339 
L 2234 4576 
Q 2266 4627 2307 4627 
Q 2349 4627 2537 4486 
Q 2726 4346 2800 4282 
Q 2874 4218 2874 4170 
Q 2874 4122 2624 4038 
L 2624 3232 
Q 2624 2982 2630 2899 
L 2637 2733 
Q 2637 2656 2464 2589 
Q 2291 2522 2195 2522 
Q 2131 2522 2131 2624 
L 2131 2733 
L 1325 2733 
L 1325 2566 
Q 1325 2515 1299 2489 
Q 1274 2464 1114 2406 
Q 954 2349 870 2349 
Q 819 2349 826 2426 
Q 851 2733 851 3034 
L 851 4115 
Q 851 4378 832 4653 
Q 1139 4499 1350 4339 
z
M 2131 2918 
L 2131 4141 
L 1325 4141 
L 1325 2918 
L 2131 2918 
z
M 2054 1440 
L 2214 1440 
L 2426 1747 
Q 2477 1818 2528 1818 
Q 2579 1818 2819 1600 
Q 3059 1382 3059 1306 
Q 3059 1261 2931 1261 
L 2054 1261 
L 2054 218 
L 2963 416 
L 3008 288 
L 1856 -192 
Q 1248 -448 928 -685 
Q 870 -730 825 -730 
Q 781 -730 729 -637 
Q 678 -544 403 -122 
L 762 -64 
L 762 1715 
Q 762 2003 749 2227 
Q 1184 2106 1299 2058 
Q 1414 2010 1414 1965 
Q 1414 1920 1229 1830 
L 1229 38 
L 1581 115 
L 1581 2067 
Q 1581 2355 1568 2579 
Q 1914 2522 2058 2483 
Q 2202 2445 2202 2384 
Q 2202 2323 2054 2266 
L 2054 1440 
z
" transform="scale(0.015625)"/>
       <path id="STZhongsong-4f01" d="M 3232 4314 
Q 3174 4243 3130 4160 
Q 2726 3469 2377 3046 
Q 2029 2624 1542 2272 
Q 1056 1920 218 1459 
L 154 1562 
Q 1139 2291 1696 2979 
Q 2253 3667 2771 4832 
Q 3482 4576 3482 4506 
Q 3482 4467 3341 4410 
Q 4179 3034 6259 2554 
L 6246 2432 
Q 5946 2432 5786 2371 
Q 5626 2310 5472 2112 
Q 5427 2061 5389 2061 
Q 5318 2061 4774 2432 
Q 4230 2803 3852 3251 
Q 3475 3699 3232 4314 
z
M 3558 1414 
L 4179 1414 
L 4429 1754 
Q 4486 1830 4557 1830 
Q 4614 1830 4761 1721 
Q 4909 1613 5056 1472 
Q 5203 1331 5203 1286 
Q 5203 1216 5062 1216 
L 3558 1216 
L 3558 -461 
L 4870 -461 
L 5171 -45 
Q 5235 45 5280 45 
Q 5344 45 5696 -240 
Q 6048 -525 6048 -598 
Q 6048 -672 5933 -672 
L 723 -672 
Q 550 -672 454 -717 
L 339 -429 
Q 474 -461 659 -461 
L 1466 -461 
L 1466 1370 
Q 1466 1690 1453 1939 
Q 1971 1805 2076 1763 
Q 2182 1722 2182 1677 
Q 2182 1632 2016 1549 
L 2016 -461 
L 3034 -461 
L 3034 2413 
Q 3034 2733 3021 2982 
Q 3360 2899 3568 2816 
Q 3776 2733 3776 2682 
Q 3776 2611 3558 2502 
L 3558 1414 
z
" transform="scale(0.015625)"/>
       <path id="STZhongsong-4e1a" d="M 3552 -422 
L 3552 4154 
Q 3552 4646 3539 4755 
Q 3821 4698 4096 4608 
Q 4371 4518 4371 4448 
Q 4371 4378 4096 4243 
L 4096 768 
Q 4659 1626 5158 3341 
Q 5747 3053 5843 2989 
Q 5939 2925 5939 2873 
Q 5939 2822 5818 2810 
Q 5766 2803 5731 2771 
Q 5696 2739 5619 2618 
Q 4813 1210 4096 442 
L 4096 -422 
L 5056 -422 
L 5370 -26 
Q 5440 58 5485 58 
Q 5530 58 5616 -16 
Q 5702 -90 5862 -240 
Q 6022 -390 6092 -476 
Q 6163 -563 6163 -608 
Q 6163 -653 6048 -653 
L 640 -653 
Q 499 -653 416 -685 
L 282 -390 
Q 384 -422 538 -422 
L 2278 -422 
L 2278 4115 
Q 2278 4608 2266 4717 
Q 2886 4576 3001 4531 
Q 3117 4486 3117 4422 
Q 3117 4358 2822 4256 
L 2822 -422 
L 3552 -422 
z
M 787 3181 
Q 1357 2458 1645 2000 
Q 1933 1542 1933 1273 
Q 1933 1005 1757 758 
Q 1581 512 1434 512 
Q 1363 512 1340 557 
Q 1318 602 1318 781 
Q 1318 1754 698 3104 
L 787 3181 
z
" transform="scale(0.015625)"/>
       <path id="STZhongsong-6570" d="M 2394 3334 
L 2938 3334 
L 3136 3616 
Q 3181 3680 3245 3680 
Q 3309 3680 3520 3462 
Q 3731 3245 3731 3193 
Q 3731 3142 3610 3142 
L 2394 3142 
L 2394 3027 
Q 2784 2938 3069 2819 
Q 3354 2701 3354 2515 
Q 3354 2381 3296 2227 
Q 3238 2074 3171 2074 
Q 3104 2074 3069 2109 
Q 3034 2144 2963 2259 
Q 2893 2374 2720 2556 
Q 2547 2739 2394 2854 
Q 2406 2381 2406 2259 
Q 2406 2138 2393 2099 
Q 2381 2061 2217 2006 
Q 2054 1952 1971 1933 
Q 2291 1811 2291 1722 
Q 2291 1670 2227 1660 
Q 2163 1651 2118 1609 
Q 2074 1568 1990 1434 
L 2637 1434 
L 2803 1619 
Q 2854 1677 2892 1677 
Q 2931 1677 3190 1481 
Q 3450 1286 3450 1228 
Q 3450 1171 3338 1148 
Q 3226 1126 3168 1088 
Q 3110 1050 3053 941 
Q 2848 563 2637 307 
Q 3040 205 3133 38 
Q 3226 -128 3226 -262 
Q 3226 -397 3187 -467 
Q 3149 -538 3101 -538 
Q 3053 -538 2816 -378 
Q 2579 -218 2278 -51 
Q 1664 -589 384 -992 
L 333 -877 
Q 1338 -371 1875 141 
Q 1440 326 845 474 
Q 1184 954 1331 1222 
L 691 1222 
Q 518 1222 422 1190 
L 307 1453 
Q 410 1434 627 1434 
L 1440 1434 
Q 1626 1824 1690 2035 
Q 1818 1997 1869 1978 
Q 1888 2515 1888 2874 
Q 1421 2125 282 1613 
L 243 1715 
Q 1075 2330 1549 3142 
L 589 3142 
Q 467 3142 390 3110 
L 301 3366 
Q 416 3334 550 3334 
L 1888 3334 
L 1888 4147 
Q 1888 4698 1875 4877 
Q 2592 4723 2592 4653 
Q 2592 4608 2394 4499 
L 2394 3334 
z
M 1856 1222 
L 1427 570 
Q 1914 480 2138 429 
Q 2413 762 2630 1222 
L 1856 1222 
z
M 4326 3270 
L 5222 3270 
L 5485 3590 
Q 5549 3661 5609 3661 
Q 5670 3661 5939 3421 
Q 6208 3181 6208 3117 
Q 6208 3072 6054 3072 
L 5050 3072 
Q 5638 2925 5638 2810 
Q 5638 2771 5542 2742 
Q 5446 2714 5404 2643 
Q 5363 2573 5338 2438 
Q 5088 1069 4749 518 
Q 5261 -186 6304 -646 
L 6246 -774 
Q 6080 -730 5933 -730 
Q 5658 -730 5446 -902 
Q 5389 -947 5363 -947 
Q 5299 -947 4934 -534 
Q 4570 -122 4448 102 
Q 4115 -301 3657 -579 
Q 3200 -858 2470 -1139 
L 2413 -1005 
Q 3642 -307 4211 544 
Q 3942 1152 3878 2342 
Q 3654 1946 3322 1491 
L 3213 1555 
Q 3949 2963 4109 4877 
Q 4333 4832 4563 4761 
Q 4794 4691 4858 4649 
Q 4922 4608 4922 4563 
Q 4922 4518 4813 4492 
Q 4704 4467 4653 4384 
Q 4602 4301 4538 3974 
Q 4474 3648 4326 3270 
z
M 4870 3072 
L 4250 3072 
L 4064 2682 
Q 4141 1594 4454 979 
Q 4723 1619 4870 3072 
z
M 3104 4602 
Q 3264 4525 3453 4422 
Q 3642 4320 3670 4288 
Q 3699 4256 3699 4221 
Q 3699 4186 3673 4170 
Q 3648 4154 3539 4154 
Q 3430 4154 3315 4038 
Q 2957 3680 2528 3392 
L 2464 3488 
Q 2906 4102 3104 4602 
z
M 653 4512 
Q 1171 4326 1353 4201 
Q 1536 4077 1536 3901 
Q 1536 3725 1453 3590 
Q 1370 3456 1286 3456 
Q 1203 3456 1164 3494 
Q 1126 3533 1084 3673 
Q 1043 3814 899 4038 
Q 755 4262 589 4429 
L 653 4512 
z
" transform="scale(0.015625)"/>
       <path id="STZhongsong-91cf" d="M 2054 4480 
L 4410 4480 
L 4576 4691 
Q 4608 4730 4640 4730 
Q 4691 4730 4969 4582 
Q 5248 4435 5248 4368 
Q 5248 4301 5024 4198 
L 5024 3738 
Q 5024 3552 5037 3341 
L 5043 3142 
Q 5043 3098 5030 3075 
Q 5018 3053 4922 2992 
Q 4826 2931 4685 2876 
Q 4544 2822 4509 2822 
Q 4474 2822 4474 2880 
L 4474 3046 
L 2016 3046 
Q 2029 2989 2006 2960 
Q 1984 2931 1897 2886 
Q 1811 2842 1660 2797 
Q 1510 2752 1475 2752 
Q 1440 2752 1446 2822 
Q 1478 3130 1478 3456 
L 1478 4198 
Q 1478 4467 1459 4742 
Q 1830 4608 2054 4480 
z
M 4474 3853 
L 4474 4294 
L 2016 4294 
L 2016 3853 
L 4474 3853 
z
M 4474 3213 
L 4474 3674 
L 2016 3674 
L 2016 3213 
L 4474 3213 
z
M 5171 2675 
L 5395 3040 
Q 5434 3110 5491 3110 
Q 5549 3110 5690 2989 
L 5984 2746 
Q 6138 2618 6138 2560 
Q 6138 2502 5990 2502 
L 640 2502 
Q 467 2502 371 2458 
L 256 2707 
Q 390 2675 576 2675 
L 5171 2675 
z
M 3482 672 
L 3482 166 
L 4666 166 
L 4864 416 
Q 4902 474 4950 474 
Q 4998 474 5251 285 
Q 5504 96 5504 38 
Q 5504 -19 5286 -19 
L 3482 -19 
L 3482 -550 
L 5203 -550 
L 5434 -230 
Q 5485 -160 5542 -160 
Q 5600 -160 5865 -390 
Q 6131 -621 6131 -691 
Q 6131 -736 5965 -736 
L 582 -736 
Q 410 -736 314 -781 
L 198 -518 
Q 333 -550 518 -550 
L 2931 -550 
L 2931 -19 
L 1274 -19 
Q 1101 -19 1005 -64 
L 877 198 
Q 1011 166 1197 166 
L 2931 166 
L 2931 672 
L 1843 672 
Q 1843 589 1824 569 
Q 1805 550 1725 505 
Q 1645 461 1481 413 
Q 1318 365 1296 365 
Q 1274 365 1280 422 
Q 1312 717 1312 1050 
L 1312 1747 
Q 1312 2074 1293 2355 
Q 1715 2253 1926 2150 
L 4544 2150 
L 4685 2362 
Q 4717 2413 4765 2413 
Q 4813 2413 4944 2333 
Q 5075 2253 5209 2157 
Q 5344 2061 5344 2029 
Q 5344 1971 5126 1850 
L 5126 1363 
Q 5126 1056 5133 954 
L 5139 762 
Q 5139 704 5091 669 
Q 5043 634 4880 592 
Q 4717 550 4627 550 
Q 4576 550 4576 627 
L 4576 672 
L 3482 672 
z
M 2931 1510 
L 2931 1978 
L 1843 1978 
L 1843 1510 
L 2931 1510 
z
M 3482 1978 
L 3482 1510 
L 4576 1510 
L 4576 1978 
L 3482 1978 
z
M 3482 1312 
L 3482 858 
L 4576 858 
L 4576 1312 
L 3482 1312 
z
M 2931 858 
L 2931 1312 
L 1843 1312 
L 1843 858 
L 2931 858 
z
" transform="scale(0.015625)"/>
      </defs>
      <use xlink:href="#STZhongsong-6d3b"/>
      <use xlink:href="#STZhongsong-8dc3" transform="translate(99.999985 0)"/>
      <use xlink:href="#STZhongsong-4f01" transform="translate(199.999969 0)"/>
      <use xlink:href="#STZhongsong-4e1a" transform="translate(299.999954 0)"/>
      <use xlink:href="#STZhongsong-6570" transform="translate(399.999939 0)"/>
      <use xlink:href="#STZhongsong-91cf" transform="translate(499.999924 0)"/>
     </g>
    </g>
   </g>
   <g id="line2d_25">
    <path d="M 136.086225 287.361614 
L 209.181508 239.531134 
L 282.276792 172.881822 
L 355.372075 121.831651 
L 428.467358 115.357836 
L 501.562642 123.725587 
L 574.657925 125.963874 
L 647.753208 111.569965 
L 720.848492 96.745615 
L 793.943775 86.638886 
" clip-path="url(#p0f0688584c)" style="fill: none; stroke: #2e6f9e; stroke-width: 3.1; stroke-linecap: square"/>
    <defs>
     <path id="m3985c76de8" d="M 0 4.3 
C 1.140373 4.3 2.234193 3.846925 3.040559 3.040559 
C 3.846925 2.234193 4.3 1.140373 4.3 0 
C 4.3 -1.140373 3.846925 -2.234193 3.040559 -3.040559 
C 2.234193 -3.846925 1.140373 -4.3 0 -4.3 
C -1.140373 -4.3 -2.234193 -3.846925 -3.040559 -3.040559 
C -3.846925 -2.234193 -4.3 -1.140373 -4.3 0 
C -4.3 1.140373 -3.846925 2.234193 -3.040559 3.040559 
C -2.234193 3.846925 -1.140373 4.3 0 4.3 
z
" style="stroke: #2e6f9e"/>
    </defs>
    <g clip-path="url(#p0f0688584c)">
     <use xlink:href="#m3985c76de8" x="136.086225" y="287.361614" style="fill: #2e6f9e; stroke: #2e6f9e"/>
     <use xlink:href="#m3985c76de8" x="209.181508" y="239.531134" style="fill: #2e6f9e; stroke: #2e6f9e"/>
     <use xlink:href="#m3985c76de8" x="282.276792" y="172.881822" style="fill: #2e6f9e; stroke: #2e6f9e"/>
     <use xlink:href="#m3985c76de8" x="355.372075" y="121.831651" style="fill: #2e6f9e; stroke: #2e6f9e"/>
     <use xlink:href="#m3985c76de8" x="428.467358" y="115.357836" style="fill: #2e6f9e; stroke: #2e6f9e"/>
     <use xlink:href="#m3985c76de8" x="501.562642" y="123.725587" style="fill: #2e6f9e; stroke: #2e6f9e"/>
     <use xlink:href="#m3985c76de8" x="574.657925" y="125.963874" style="fill: #2e6f9e; stroke: #2e6f9e"/>
     <use xlink:href="#m3985c76de8" x="647.753208" y="111.569965" style="fill: #2e6f9e; stroke: #2e6f9e"/>
     <use xlink:href="#m3985c76de8" x="720.848492" y="96.745615" style="fill: #2e6f9e; stroke: #2e6f9e"/>
     <use xlink:href="#m3985c76de8" x="793.943775" y="86.638886" style="fill: #2e6f9e; stroke: #2e6f9e"/>
    </g>
   </g>
   <g id="patch_3">
    <path d="M 80.68 297.39775 
L 80.68 76.60275 
" style="fill: none; stroke: #111111; stroke-width: 1.35; stroke-linejoin: miter; stroke-linecap: square"/>
   </g>
   <g id="patch_4">
    <path d="M 80.68 297.39775 
L 849.35 297.39775 
" style="fill: none; stroke: #111111; stroke-width: 1.35; stroke-linejoin: miter; stroke-linecap: square"/>
   </g>
   <g id="text_9">
    <!-- 1865 -->
    <g style="fill: #111111" transform="translate(118.726225 275.361614) scale(0.14 -0.14)">
     <defs>
      <path id="STZhongsong-35" d="M 934 4358 
L 2880 4358 
Q 3046 4358 3097 4387 
Q 3149 4416 3155 4512 
L 3386 4512 
L 3386 3853 
L 1229 3853 
L 1171 2752 
Q 1530 2848 1990 2848 
Q 2771 2848 3228 2451 
Q 3686 2054 3686 1414 
Q 3686 787 3212 355 
Q 2739 -77 2029 -77 
Q 1414 -77 982 236 
Q 550 550 550 890 
Q 550 1037 640 1123 
Q 730 1210 838 1210 
Q 1062 1210 1203 813 
Q 1421 218 2042 218 
Q 2515 218 2819 528 
Q 3123 838 3123 1312 
Q 3123 1824 2777 2128 
Q 2432 2432 1843 2432 
Q 1280 2432 832 2246 
L 934 4358 
z
" transform="scale(0.015625)"/>
     </defs>
     <use xlink:href="#STZhongsong-31"/>
     <use xlink:href="#STZhongsong-38" transform="translate(61.999985 0)"/>
     <use xlink:href="#STZhongsong-36" transform="translate(123.999969 0)"/>
     <use xlink:href="#STZhongsong-35" transform="translate(185.999954 0)"/>
    </g>
   </g>
   <g id="text_10">
    <!-- 13523 -->
    <g style="fill: #111111" transform="translate(772.243775 74.638886) scale(0.14 -0.14)">
     <defs>
      <path id="STZhongsong-33" d="M 934 3194 
L 634 3238 
Q 717 3827 1097 4131 
Q 1478 4435 2061 4435 
Q 2662 4435 3046 4124 
Q 3430 3814 3430 3360 
Q 3430 3021 3190 2761 
Q 2950 2502 2502 2374 
Q 3046 2298 3334 1974 
Q 3622 1651 3622 1222 
Q 3622 698 3155 310 
Q 2688 -77 1997 -77 
Q 1299 -77 844 275 
Q 390 627 390 960 
Q 390 1114 505 1184 
Q 621 1254 710 1254 
Q 922 1254 1043 858 
Q 1133 544 1369 377 
Q 1606 211 1952 211 
Q 2419 211 2720 512 
Q 3021 813 3021 1267 
Q 3021 1702 2717 1952 
Q 2413 2202 1862 2202 
L 1568 2202 
L 1568 2502 
L 1754 2502 
Q 2829 2502 2829 3283 
Q 2829 3629 2592 3843 
Q 2355 4058 1952 4058 
Q 1107 4058 934 3194 
z
" transform="scale(0.015625)"/>
     </defs>
     <use xlink:href="#STZhongsong-31"/>
     <use xlink:href="#STZhongsong-33" transform="translate(61.999985 0)"/>
     <use xlink:href="#STZhongsong-35" transform="translate(123.999969 0)"/>
     <use xlink:href="#STZhongsong-32" transform="translate(185.999954 0)"/>
     <use xlink:href="#STZhongsong-33" transform="translate(247.999939 0)"/>
    </g>
   </g>
   <g id="text_11">
    <!-- 活跃企业数量变化 -->
    <g style="fill: #111111" transform="translate(393.015 70.60275) scale(0.18 -0.18)">
     <defs>
      <path id="STZhongsong-53d8" d="M 2912 3885 
Q 2835 4390 2330 4787 
L 2381 4915 
Q 2912 4787 3197 4643 
Q 3482 4499 3482 4301 
Q 3482 4211 3430 4092 
Q 3379 3974 3270 3885 
L 4819 3885 
L 5094 4288 
Q 5152 4365 5209 4365 
Q 5267 4365 5564 4080 
Q 5862 3795 5862 3728 
Q 5862 3661 5696 3661 
L 3968 3661 
L 3968 2445 
Q 3968 2182 3974 2048 
L 3987 1837 
Q 3987 1798 3929 1760 
Q 3872 1722 3709 1664 
Q 3546 1606 3469 1606 
Q 3418 1606 3418 1696 
L 3418 3661 
L 2733 3661 
L 2733 1779 
Q 2733 1722 2707 1696 
Q 2682 1670 2474 1600 
Q 2266 1530 2214 1530 
Q 2163 1530 2163 1606 
L 2176 1869 
Q 2182 2138 2182 2451 
L 2182 3661 
L 723 3661 
Q 550 3661 454 3616 
L 339 3917 
Q 474 3885 659 3885 
L 2912 3885 
z
M 1338 3277 
Q 2010 2938 2010 2835 
Q 2010 2784 1917 2768 
Q 1824 2752 1779 2717 
Q 1734 2682 1658 2573 
Q 1382 2150 1065 1859 
Q 749 1568 288 1235 
L 179 1338 
Q 627 1798 873 2214 
Q 1120 2630 1338 3277 
z
M 4275 3238 
Q 4870 2970 5174 2790 
Q 5478 2611 5580 2473 
Q 5683 2336 5683 2137 
Q 5683 1939 5580 1779 
Q 5478 1619 5370 1619 
Q 5306 1619 5261 1683 
Q 5216 1747 5114 1997 
Q 4832 2669 4205 3104 
L 4275 3238 
z
M 3104 -186 
Q 2003 -858 307 -1107 
L 288 -966 
Q 1830 -550 2746 77 
Q 2150 582 1862 1286 
L 1587 1286 
Q 1414 1286 1318 1242 
L 1203 1536 
Q 1338 1504 1523 1504 
L 4077 1504 
L 4288 1715 
Q 4326 1754 4365 1754 
Q 4448 1754 4707 1539 
Q 4966 1325 4966 1274 
Q 4966 1216 4844 1200 
Q 4723 1184 4640 1120 
Q 4557 1056 4378 858 
Q 4013 442 3552 109 
Q 4595 -333 6170 -371 
L 6170 -512 
Q 5830 -538 5622 -630 
Q 5414 -723 5306 -960 
Q 5274 -1018 5222 -1018 
Q 5146 -1018 4643 -874 
Q 4141 -730 3805 -576 
Q 3469 -422 3104 -186 
z
M 3098 333 
Q 3622 736 4026 1286 
L 2074 1286 
Q 2432 710 3098 333 
z
" transform="scale(0.015625)"/>
      <path id="STZhongsong-5316" d="M 1523 2445 
Q 960 1683 237 1114 
L 154 1210 
Q 838 2010 1283 2880 
Q 1728 3750 2010 4890 
Q 2432 4698 2617 4570 
Q 2803 4442 2803 4390 
Q 2803 4326 2630 4301 
Q 2554 4288 2496 4205 
Q 2438 4122 2291 3779 
Q 2144 3437 1933 3072 
Q 2195 2982 2195 2931 
Q 2195 2880 2074 2797 
L 2074 -762 
Q 2074 -819 2013 -864 
Q 1952 -909 1766 -979 
Q 1581 -1050 1536 -1050 
Q 1491 -1050 1491 -986 
L 1504 -531 
Q 1523 -70 1523 518 
L 1523 2445 
z
M 4102 1619 
L 4102 38 
Q 4102 -122 4182 -170 
Q 4262 -218 4745 -218 
Q 5229 -218 5366 -141 
Q 5504 -64 5561 201 
Q 5619 467 5702 1267 
L 5837 1267 
Q 5830 1024 5830 838 
Q 5830 358 5881 182 
Q 5933 6 6054 -58 
Q 6176 -122 6176 -166 
Q 6176 -211 6089 -361 
Q 6003 -512 5907 -598 
Q 5811 -685 5705 -710 
Q 5600 -736 5229 -758 
Q 4858 -781 4454 -781 
Q 4051 -781 3856 -713 
Q 3661 -646 3584 -470 
Q 3507 -294 3507 38 
L 3507 1242 
Q 2957 928 2157 608 
L 2125 749 
Q 2899 1184 3507 1638 
L 3507 4006 
Q 3507 4525 3488 4845 
Q 4384 4570 4384 4461 
Q 4384 4410 4102 4282 
L 4102 2150 
Q 4768 2784 5434 3866 
Q 5664 3635 5824 3408 
Q 5984 3181 5984 3126 
Q 5984 3072 5939 3072 
Q 5894 3072 5856 3081 
Q 5818 3091 5773 3091 
Q 5728 3091 5638 3011 
Q 5549 2931 5357 2733 
Q 4691 2042 4102 1619 
z
" transform="scale(0.015625)"/>
     </defs>
     <use xlink:href="#STZhongsong-6d3b"/>
     <use xlink:href="#STZhongsong-8dc3" transform="translate(99.999985 0)"/>
     <use xlink:href="#STZhongsong-4f01" transform="translate(199.999969 0)"/>
     <use xlink:href="#STZhongsong-4e1a" transform="translate(299.999954 0)"/>
     <use xlink:href="#STZhongsong-6570" transform="translate(399.999939 0)"/>
     <use xlink:href="#STZhongsong-91cf" transform="translate(499.999924 0)"/>
     <use xlink:href="#STZhongsong-53d8" transform="translate(599.999908 0)"/>
     <use xlink:href="#STZhongsong-5316" transform="translate(699.999893 0)"/>
    </g>
   </g>
  </g>
  <g id="axes_2">
   <g id="patch_5">
    <path d="M 80.68 552.08275 
L 849.35 552.08275 
L 849.35 331.28775 
L 80.68 331.28775 
z
" style="fill: #ffffff"/>
   </g>
   <g id="patch_6">
    <path d="M 115.619545 519.657069 
L 156.552904 519.657069 
L 156.552904 519.657069 
L 115.619545 519.657069 
z
" clip-path="url(#pe5a7f2929a)" style="fill: #c9d8e8"/>
   </g>
   <g id="patch_7">
    <path d="M 188.714829 519.657069 
L 229.648188 519.657069 
L 229.648188 391.677327 
L 188.714829 391.677327 
z
" clip-path="url(#pe5a7f2929a)" style="fill: #c9d8e8"/>
   </g>
   <g id="patch_8">
    <path d="M 261.810112 519.657069 
L 302.743471 519.657069 
L 302.743471 341.323886 
L 261.810112 341.323886 
z
" clip-path="url(#pe5a7f2929a)" style="fill: #c9d8e8"/>
   </g>
   <g id="patch_9">
    <path d="M 334.905396 519.657069 
L 375.838754 519.657069 
L 375.838754 383.06242 
L 334.905396 383.06242 
z
" clip-path="url(#pe5a7f2929a)" style="fill: #c9d8e8"/>
   </g>
   <g id="patch_10">
    <path d="M 408.000679 519.657069 
L 448.934038 519.657069 
L 448.934038 502.335117 
L 408.000679 502.335117 
z
" clip-path="url(#pe5a7f2929a)" style="fill: #c9d8e8"/>
   </g>
   <g id="patch_11">
    <path d="M 481.095962 519.657069 
L 522.029321 519.657069 
L 522.029321 542.046614 
L 481.095962 542.046614 
z
" clip-path="url(#pe5a7f2929a)" style="fill: #f2c4c4"/>
   </g>
   <g id="patch_12">
    <path d="M 554.191246 519.657069 
L 595.124604 519.657069 
L 595.124604 525.646042 
L 554.191246 525.646042 
z
" clip-path="url(#pe5a7f2929a)" style="fill: #f2c4c4"/>
   </g>
   <g id="patch_13">
    <path d="M 627.286529 519.657069 
L 668.219888 519.657069 
L 668.219888 481.143367 
L 627.286529 481.143367 
z
" clip-path="url(#pe5a7f2929a)" style="fill: #c9d8e8"/>
   </g>
   <g id="patch_14">
    <path d="M 700.381812 519.657069 
L 741.315171 519.657069 
L 741.315171 479.991641 
L 700.381812 479.991641 
z
" clip-path="url(#pe5a7f2929a)" style="fill: #c9d8e8"/>
   </g>
   <g id="patch_15">
    <path d="M 773.477096 519.657069 
L 814.410455 519.657069 
L 814.410455 492.614553 
L 773.477096 492.614553 
z
" clip-path="url(#pe5a7f2929a)" style="fill: #c9d8e8"/>
   </g>
   <g id="matplotlib.axis_3">
    <g id="xtick_11">
     <g id="line2d_26">
      <g>
       <use xlink:href="#m2fbf555f12" x="136.086225" y="552.08275" style="fill: #111111; stroke: #111111; stroke-width: 0.8"/>
      </g>
     </g>
     <g id="text_12">
      <!-- 2015 -->
      <g style="fill: #111111" transform="translate(117.486225 569.821812) scale(0.15 -0.15)">
       <use xlink:href="#STZhongsong-32"/>
       <use xlink:href="#STZhongsong-30" transform="translate(61.999985 0)"/>
       <use xlink:href="#STZhongsong-31" transform="translate(123.999969 0)"/>
       <use xlink:href="#STZhongsong-35" transform="translate(185.999954 0)"/>
      </g>
     </g>
    </g>
    <g id="xtick_12">
     <g id="line2d_27">
      <g>
       <use xlink:href="#m2fbf555f12" x="209.181508" y="552.08275" style="fill: #111111; stroke: #111111; stroke-width: 0.8"/>
      </g>
     </g>
     <g id="text_13">
      <!-- 2016 -->
      <g style="fill: #111111" transform="translate(190.581508 569.821812) scale(0.15 -0.15)">
       <use xlink:href="#STZhongsong-32"/>
       <use xlink:href="#STZhongsong-30" transform="translate(61.999985 0)"/>
       <use xlink:href="#STZhongsong-31" transform="translate(123.999969 0)"/>
       <use xlink:href="#STZhongsong-36" transform="translate(185.999954 0)"/>
      </g>
     </g>
    </g>
    <g id="xtick_13">
     <g id="line2d_28">
      <g>
       <use xlink:href="#m2fbf555f12" x="282.276792" y="552.08275" style="fill: #111111; stroke: #111111; stroke-width: 0.8"/>
      </g>
     </g>
     <g id="text_14">
      <!-- 2017 -->
      <g style="fill: #111111" transform="translate(263.676792 569.821812) scale(0.15 -0.15)">
       <defs>
        <path id="STZhongsong-37" d="M 691 4518 
L 902 4518 
L 934 4358 
L 3667 4358 
L 3667 4096 
Q 2163 2317 1901 0 
L 1261 0 
Q 1421 1190 1949 2150 
Q 2477 3110 3174 3891 
L 1222 3891 
Q 1005 3891 899 3862 
Q 794 3834 736 3635 
L 614 3206 
L 352 3264 
L 691 4518 
z
" transform="scale(0.015625)"/>
       </defs>
       <use xlink:href="#STZhongsong-32"/>
       <use xlink:href="#STZhongsong-30" transform="translate(61.999985 0)"/>
       <use xlink:href="#STZhongsong-31" transform="translate(123.999969 0)"/>
       <use xlink:href="#STZhongsong-37" transform="translate(185.999954 0)"/>
      </g>
     </g>
    </g>
    <g id="xtick_14">
     <g id="line2d_29">
      <g>
       <use xlink:href="#m2fbf555f12" x="355.372075" y="552.08275" style="fill: #111111; stroke: #111111; stroke-width: 0.8"/>
      </g>
     </g>
     <g id="text_15">
      <!-- 2018 -->
      <g style="fill: #111111" transform="translate(336.772075 569.821812) scale(0.15 -0.15)">
       <use xlink:href="#STZhongsong-32"/>
       <use xlink:href="#STZhongsong-30" transform="translate(61.999985 0)"/>
       <use xlink:href="#STZhongsong-31" transform="translate(123.999969 0)"/>
       <use xlink:href="#STZhongsong-38" transform="translate(185.999954 0)"/>
      </g>
     </g>
    </g>
    <g id="xtick_15">
     <g id="line2d_30">
      <g>
       <use xlink:href="#m2fbf555f12" x="428.467358" y="552.08275" style="fill: #111111; stroke: #111111; stroke-width: 0.8"/>
      </g>
     </g>
     <g id="text_16">
      <!-- 2019 -->
      <g style="fill: #111111" transform="translate(409.867358 569.821812) scale(0.15 -0.15)">
       <defs>
        <path id="STZhongsong-39" d="M 736 -77 
L 736 218 
Q 1856 224 2374 688 
Q 2893 1152 2938 2138 
Q 2707 1798 2425 1638 
Q 2144 1478 1734 1478 
Q 1088 1478 681 1884 
Q 275 2291 275 2925 
Q 275 3616 720 4025 
Q 1165 4435 1882 4435 
Q 2688 4435 3126 3916 
Q 3565 3398 3565 2438 
Q 3565 1574 3181 963 
Q 2797 352 2201 137 
Q 1606 -77 979 -77 
L 736 -77 
z
M 896 2950 
Q 896 2445 1174 2128 
Q 1453 1811 1875 1811 
Q 2317 1811 2611 2147 
Q 2906 2483 2906 2970 
Q 2906 3475 2618 3814 
Q 2330 4154 1901 4154 
Q 1459 4154 1177 3824 
Q 896 3494 896 2950 
z
" transform="scale(0.015625)"/>
       </defs>
       <use xlink:href="#STZhongsong-32"/>
       <use xlink:href="#STZhongsong-30" transform="translate(61.999985 0)"/>
       <use xlink:href="#STZhongsong-31" transform="translate(123.999969 0)"/>
       <use xlink:href="#STZhongsong-39" transform="translate(185.999954 0)"/>
      </g>
     </g>
    </g>
    <g id="xtick_16">
     <g id="line2d_31">
      <g>
       <use xlink:href="#m2fbf555f12" x="501.562642" y="552.08275" style="fill: #111111; stroke: #111111; stroke-width: 0.8"/>
      </g>
     </g>
     <g id="text_17">
      <!-- 2020 -->
      <g style="fill: #111111" transform="translate(482.962642 569.821812) scale(0.15 -0.15)">
       <use xlink:href="#STZhongsong-32"/>
       <use xlink:href="#STZhongsong-30" transform="translate(61.999985 0)"/>
       <use xlink:href="#STZhongsong-32" transform="translate(123.999969 0)"/>
       <use xlink:href="#STZhongsong-30" transform="translate(185.999954 0)"/>
      </g>
     </g>
    </g>
    <g id="xtick_17">
     <g id="line2d_32">
      <g>
       <use xlink:href="#m2fbf555f12" x="574.657925" y="552.08275" style="fill: #111111; stroke: #111111; stroke-width: 0.8"/>
      </g>
     </g>
     <g id="text_18">
      <!-- 2021 -->
      <g style="fill: #111111" transform="translate(556.057925 569.821812) scale(0.15 -0.15)">
       <use xlink:href="#STZhongsong-32"/>
       <use xlink:href="#STZhongsong-30" transform="translate(61.999985 0)"/>
       <use xlink:href="#STZhongsong-32" transform="translate(123.999969 0)"/>
       <use xlink:href="#STZhongsong-31" transform="translate(185.999954 0)"/>
      </g>
     </g>
    </g>
    <g id="xtick_18">
     <g id="line2d_33">
      <g>
       <use xlink:href="#m2fbf555f12" x="647.753208" y="552.08275" style="fill: #111111; stroke: #111111; stroke-width: 0.8"/>
      </g>
     </g>
     <g id="text_19">
      <!-- 2022 -->
      <g style="fill: #111111" transform="translate(629.153208 569.821812) scale(0.15 -0.15)">
       <use xlink:href="#STZhongsong-32"/>
       <use xlink:href="#STZhongsong-30" transform="translate(61.999985 0)"/>
       <use xlink:href="#STZhongsong-32" transform="translate(123.999969 0)"/>
       <use xlink:href="#STZhongsong-32" transform="translate(185.999954 0)"/>
      </g>
     </g>
    </g>
    <g id="xtick_19">
     <g id="line2d_34">
      <g>
       <use xlink:href="#m2fbf555f12" x="720.848492" y="552.08275" style="fill: #111111; stroke: #111111; stroke-width: 0.8"/>
      </g>
     </g>
     <g id="text_20">
      <!-- 2023 -->
      <g style="fill: #111111" transform="translate(702.248492 569.821812) scale(0.15 -0.15)">
       <use xlink:href="#STZhongsong-32"/>
       <use xlink:href="#STZhongsong-30" transform="translate(61.999985 0)"/>
       <use xlink:href="#STZhongsong-32" transform="translate(123.999969 0)"/>
       <use xlink:href="#STZhongsong-33" transform="translate(185.999954 0)"/>
      </g>
     </g>
    </g>
    <g id="xtick_20">
     <g id="line2d_35">
      <g>
       <use xlink:href="#m2fbf555f12" x="793.943775" y="552.08275" style="fill: #111111; stroke: #111111; stroke-width: 0.8"/>
      </g>
     </g>
     <g id="text_21">
      <!-- 2024 -->
      <g style="fill: #111111" transform="translate(775.343775 569.821812) scale(0.15 -0.15)">
       <use xlink:href="#STZhongsong-32"/>
       <use xlink:href="#STZhongsong-30" transform="translate(61.999985 0)"/>
       <use xlink:href="#STZhongsong-32" transform="translate(123.999969 0)"/>
       <use xlink:href="#STZhongsong-34" transform="translate(185.999954 0)"/>
      </g>
     </g>
    </g>
    <g id="text_22">
     <!-- 年份 -->
     <g style="fill: #111111" transform="translate(448.015 589.486812) scale(0.17 -0.17)">
      <defs>
       <path id="STZhongsong-5e74" d="M 1939 3827 
L 4794 3827 
L 5082 4237 
Q 5133 4314 5171 4314 
Q 5210 4314 5328 4224 
Q 5446 4134 5612 3993 
Q 5779 3853 5840 3789 
Q 5901 3725 5901 3686 
Q 5901 3616 5811 3616 
L 3744 3616 
L 3744 2496 
L 4474 2496 
L 4736 2874 
Q 4787 2938 4822 2938 
Q 4858 2938 4970 2858 
Q 5082 2778 5232 2643 
Q 5382 2509 5414 2461 
Q 5446 2413 5446 2368 
Q 5446 2272 5350 2272 
L 3744 2272 
L 3744 1043 
L 5254 1043 
L 5542 1427 
Q 5587 1485 5654 1485 
Q 5722 1485 6013 1213 
Q 6304 941 6304 883 
Q 6304 826 6195 826 
L 3744 826 
Q 3744 19 3750 -294 
L 3763 -864 
Q 3763 -909 3731 -941 
Q 3699 -973 3475 -1056 
Q 3251 -1139 3203 -1139 
Q 3155 -1139 3155 -1037 
L 3168 -390 
Q 3174 -38 3174 826 
L 653 826 
Q 480 826 384 781 
L 269 1075 
Q 403 1043 589 1043 
L 1498 1043 
L 1498 2170 
Q 1498 2643 1485 2739 
Q 1856 2630 2138 2496 
L 3174 2496 
L 3174 3616 
L 1798 3616 
Q 1440 3046 1136 2713 
Q 832 2381 339 1984 
L 243 2086 
Q 1261 3174 1741 4909 
Q 2259 4704 2400 4611 
Q 2541 4518 2541 4457 
Q 2541 4397 2435 4384 
Q 2330 4371 2253 4288 
Q 2176 4205 1939 3827 
z
M 3174 2272 
L 2054 2272 
L 2054 1043 
L 3174 1043 
L 3174 2272 
z
" transform="scale(0.015625)"/>
       <path id="STZhongsong-4efd" d="M 1190 2470 
Q 736 1830 237 1389 
L 141 1472 
Q 1158 2701 1702 4838 
Q 1894 4768 2115 4672 
Q 2336 4576 2374 4544 
Q 2413 4512 2413 4477 
Q 2413 4442 2326 4419 
Q 2240 4397 2205 4345 
Q 2170 4294 2099 4115 
Q 1888 3578 1530 2982 
Q 1837 2912 1837 2842 
Q 1837 2803 1709 2720 
L 1709 -806 
Q 1709 -883 1670 -928 
Q 1632 -973 1453 -1049 
Q 1274 -1126 1219 -1126 
Q 1165 -1126 1165 -1056 
L 1178 -563 
Q 1190 -262 1190 70 
L 1190 2470 
z
M 6272 2355 
L 6259 2227 
Q 6170 2240 6099 2240 
Q 5786 2240 5658 1971 
Q 5638 1926 5587 1926 
Q 5408 1926 4813 2630 
Q 4218 3334 4102 4806 
Q 4742 4742 4742 4627 
Q 4742 4589 4672 4570 
Q 4467 4518 4467 4323 
Q 4467 4128 4636 3712 
Q 4806 3296 5209 2925 
Q 5613 2554 6272 2355 
z
M 3174 4506 
Q 3635 4346 3753 4285 
Q 3872 4224 3872 4182 
Q 3872 4141 3753 4105 
Q 3635 4070 3546 3834 
Q 3034 2477 1888 1421 
L 1798 1491 
Q 2765 2810 3174 4506 
z
M 3232 1920 
L 3072 1920 
Q 2906 1920 2803 1875 
L 2662 2157 
Q 2797 2125 2982 2125 
L 4461 2125 
L 4614 2330 
Q 4659 2381 4704 2381 
Q 4749 2381 4937 2246 
Q 5126 2112 5212 2041 
Q 5299 1971 5299 1920 
Q 5299 1869 5139 1760 
Q 5114 1011 5066 432 
Q 5018 -147 4966 -355 
Q 4915 -563 4796 -700 
Q 4678 -838 4451 -944 
Q 4224 -1050 4169 -1050 
Q 4115 -1050 4090 -966 
Q 4038 -774 3856 -640 
Q 3674 -506 3328 -378 
L 3373 -243 
Q 3910 -384 4076 -384 
Q 4243 -384 4307 -326 
Q 4371 -269 4432 -73 
Q 4493 122 4528 541 
Q 4563 960 4576 1920 
L 3782 1920 
Q 3738 730 3389 125 
Q 3040 -480 1946 -1094 
L 1869 -1011 
Q 2669 -358 2934 237 
Q 3200 832 3232 1920 
z
" transform="scale(0.015625)"/>
      </defs>
      <use xlink:href="#STZhongsong-5e74"/>
      <use xlink:href="#STZhongsong-4efd" transform="translate(99.999985 0)"/>
     </g>
    </g>
   </g>
   <g id="matplotlib.axis_4">
    <g id="ytick_8">
     <g id="line2d_36">
      <path d="M 80.68 519.657069 
L 849.35 519.657069 
" clip-path="url(#pe5a7f2929a)" style="fill: none; stroke: #ececec; stroke-width: 0.9; stroke-linecap: square"/>
     </g>
     <g id="line2d_37">
      <g>
       <use xlink:href="#m14840d3242" x="80.68" y="519.657069" style="fill: #111111; stroke: #111111; stroke-width: 0.8"/>
      </g>
     </g>
     <g id="text_23">
      <!-- 0 -->
      <g style="fill: #111111" transform="translate(64.38 525.0266) scale(0.15 -0.15)">
       <use xlink:href="#STZhongsong-30"/>
      </g>
     </g>
    </g>
    <g id="ytick_9">
     <g id="line2d_38">
      <path d="M 80.68 473.588047 
L 849.35 473.588047 
" clip-path="url(#pe5a7f2929a)" style="fill: none; stroke: #ececec; stroke-width: 0.9; stroke-linecap: square"/>
     </g>
     <g id="line2d_39">
      <g>
       <use xlink:href="#m14840d3242" x="80.68" y="473.588047" style="fill: #111111; stroke: #111111; stroke-width: 0.8"/>
      </g>
     </g>
     <g id="text_24">
      <!-- 1000 -->
      <g style="fill: #111111" transform="translate(36.48 478.957579) scale(0.15 -0.15)">
       <use xlink:href="#STZhongsong-31"/>
       <use xlink:href="#STZhongsong-30" transform="translate(61.999985 0)"/>
       <use xlink:href="#STZhongsong-30" transform="translate(123.999969 0)"/>
       <use xlink:href="#STZhongsong-30" transform="translate(185.999954 0)"/>
      </g>
     </g>
    </g>
    <g id="ytick_10">
     <g id="line2d_40">
      <path d="M 80.68 427.519026 
L 849.35 427.519026 
" clip-path="url(#pe5a7f2929a)" style="fill: none; stroke: #ececec; stroke-width: 0.9; stroke-linecap: square"/>
     </g>
     <g id="line2d_41">
      <g>
       <use xlink:href="#m14840d3242" x="80.68" y="427.519026" style="fill: #111111; stroke: #111111; stroke-width: 0.8"/>
      </g>
     </g>
     <g id="text_25">
      <!-- 2000 -->
      <g style="fill: #111111" transform="translate(36.48 432.888557) scale(0.15 -0.15)">
       <use xlink:href="#STZhongsong-32"/>
       <use xlink:href="#STZhongsong-30" transform="translate(61.999985 0)"/>
       <use xlink:href="#STZhongsong-30" transform="translate(123.999969 0)"/>
       <use xlink:href="#STZhongsong-30" transform="translate(185.999954 0)"/>
      </g>
     </g>
    </g>
    <g id="ytick_11">
     <g id="line2d_42">
      <path d="M 80.68 381.450004 
L 849.35 381.450004 
" clip-path="url(#pe5a7f2929a)" style="fill: none; stroke: #ececec; stroke-width: 0.9; stroke-linecap: square"/>
     </g>
     <g id="line2d_43">
      <g>
       <use xlink:href="#m14840d3242" x="80.68" y="381.450004" style="fill: #111111; stroke: #111111; stroke-width: 0.8"/>
      </g>
     </g>
     <g id="text_26">
      <!-- 3000 -->
      <g style="fill: #111111" transform="translate(36.48 386.819535) scale(0.15 -0.15)">
       <use xlink:href="#STZhongsong-33"/>
       <use xlink:href="#STZhongsong-30" transform="translate(61.999985 0)"/>
       <use xlink:href="#STZhongsong-30" transform="translate(123.999969 0)"/>
       <use xlink:href="#STZhongsong-30" transform="translate(185.999954 0)"/>
      </g>
     </g>
    </g>
    <g id="ytick_12">
     <g id="line2d_44">
      <path d="M 80.68 335.380983 
L 849.35 335.380983 
" clip-path="url(#pe5a7f2929a)" style="fill: none; stroke: #ececec; stroke-width: 0.9; stroke-linecap: square"/>
     </g>
     <g id="line2d_45">
      <g>
       <use xlink:href="#m14840d3242" x="80.68" y="335.380983" style="fill: #111111; stroke: #111111; stroke-width: 0.8"/>
      </g>
     </g>
     <g id="text_27">
      <!-- 4000 -->
      <g style="fill: #111111" transform="translate(36.48 340.750514) scale(0.15 -0.15)">
       <use xlink:href="#STZhongsong-34"/>
       <use xlink:href="#STZhongsong-30" transform="translate(61.999985 0)"/>
       <use xlink:href="#STZhongsong-30" transform="translate(123.999969 0)"/>
       <use xlink:href="#STZhongsong-30" transform="translate(185.999954 0)"/>
      </g>
     </g>
    </g>
    <g id="text_28">
     <!-- 净增长数量 -->
     <g style="fill: #111111" transform="translate(29.08 484.18525) rotate(-90) scale(0.17 -0.17)">
      <defs>
       <path id="STZhongsong-51c0" d="M 2438 2880 
Q 2214 2656 1914 2374 
L 1811 2470 
Q 2675 3552 3142 4954 
Q 3469 4826 3638 4746 
Q 3808 4666 3808 4614 
Q 3808 4563 3718 4544 
Q 3674 4531 3642 4499 
Q 3610 4467 3392 4102 
L 4256 4102 
L 4416 4301 
Q 4461 4358 4499 4358 
Q 4563 4358 4864 4131 
Q 5165 3904 5165 3846 
Q 5165 3814 5046 3814 
Q 4928 3814 4857 3776 
Q 4787 3738 4534 3546 
Q 4282 3354 3949 3046 
L 4736 3046 
L 4851 3226 
Q 4890 3290 4950 3290 
Q 5011 3290 5302 3126 
Q 5594 2963 5594 2908 
Q 5594 2854 5363 2739 
L 5363 2003 
L 5594 2323 
Q 5632 2381 5677 2381 
Q 5722 2381 5830 2294 
Q 5939 2208 6080 2070 
Q 6221 1933 6221 1888 
Q 6221 1811 6061 1811 
L 5363 1811 
L 5363 922 
L 5376 602 
Q 5376 538 5315 496 
Q 5254 454 5072 387 
Q 4890 320 4842 320 
Q 4794 320 4794 390 
L 4794 723 
L 3968 723 
L 3968 -275 
Q 3968 -506 3897 -618 
Q 3827 -730 3523 -890 
Q 3219 -1050 3148 -1050 
Q 3078 -1050 3072 -947 
Q 3059 -755 3011 -662 
Q 2963 -570 2800 -502 
Q 2637 -435 2259 -352 
L 2259 -211 
Q 2867 -282 3075 -282 
Q 3283 -282 3334 -243 
Q 3386 -205 3386 -102 
L 3386 723 
L 2323 723 
Q 2195 723 2106 685 
L 2016 941 
Q 2131 915 2272 915 
L 3386 915 
L 3386 1811 
L 1997 1811 
Q 1862 1811 1779 1779 
L 1690 2029 
Q 1805 2003 1946 2003 
L 3386 2003 
L 3386 2835 
L 2675 2835 
Q 2534 2835 2464 2803 
L 2438 2880 
z
M 3258 3891 
Q 2944 3418 2592 3046 
L 3718 3046 
Q 3962 3424 4198 3891 
L 3258 3891 
z
M 4794 2003 
L 4794 2835 
L 3968 2835 
L 3968 2003 
L 4794 2003 
z
M 4794 915 
L 4794 1811 
L 3968 1811 
L 3968 915 
L 4794 915 
z
M 525 4333 
Q 1062 4045 1254 3872 
Q 1446 3699 1446 3510 
Q 1446 3322 1360 3133 
Q 1274 2944 1075 2944 
Q 1005 2944 950 3001 
Q 896 3059 890 3162 
Q 851 3546 758 3763 
Q 666 3981 474 4237 
L 525 4333 
z
M 2118 3552 
L 1542 1939 
Q 1344 1389 1344 1043 
Q 1344 698 1427 224 
Q 1510 -250 1510 -410 
Q 1510 -698 1338 -698 
Q 1043 -698 886 -586 
Q 730 -474 730 -269 
Q 730 -192 749 -109 
Q 870 358 870 813 
Q 870 1030 764 1123 
Q 659 1216 262 1325 
L 282 1446 
Q 493 1434 649 1434 
Q 806 1434 883 1491 
Q 960 1549 1069 1754 
L 2029 3603 
L 2118 3552 
z
" transform="scale(0.015625)"/>
       <path id="STZhongsong-589e" d="M 5331 1907 
L 2982 1907 
Q 2982 1779 2947 1737 
Q 2912 1696 2720 1619 
Q 2528 1542 2470 1542 
Q 2438 1542 2445 1613 
Q 2477 1907 2477 2246 
L 2477 3501 
Q 2477 3770 2458 4045 
Q 2829 3917 3066 3738 
L 3501 3738 
Q 3437 3763 3357 4041 
Q 3277 4320 3161 4502 
Q 3046 4685 2880 4858 
L 2925 4954 
Q 3386 4762 3626 4576 
Q 3866 4390 3866 4186 
Q 3866 4064 3782 3920 
Q 3699 3776 3584 3738 
L 4352 3738 
Q 4678 4326 4890 4922 
Q 5491 4602 5491 4506 
Q 5491 4454 5379 4441 
Q 5267 4429 5132 4307 
Q 4998 4186 4627 3738 
L 5274 3738 
L 5389 3910 
Q 5466 4026 5526 4026 
Q 5587 4026 5830 3859 
Q 6074 3693 6074 3635 
Q 6074 3578 5862 3482 
L 5862 2522 
Q 5862 2170 5869 2067 
L 5882 1875 
Q 5882 1837 5834 1795 
Q 5786 1754 5597 1680 
Q 5408 1606 5357 1606 
Q 5331 1606 5331 1664 
L 5331 1907 
z
M 3898 2112 
L 3898 3552 
L 2982 3552 
L 2982 2112 
L 3898 2112 
z
M 3162 3354 
Q 3533 3066 3619 2957 
Q 3706 2848 3706 2704 
Q 3706 2560 3616 2454 
Q 3526 2349 3424 2349 
Q 3322 2349 3312 2646 
Q 3302 2944 3085 3277 
L 3162 3354 
z
M 4365 3552 
L 4365 2112 
L 5331 2112 
L 5331 3552 
L 4365 3552 
z
M 4794 3354 
Q 5261 3091 5261 3002 
Q 5261 2976 5241 2969 
Q 5222 2963 5136 2963 
Q 5050 2963 4909 2778 
Q 4685 2477 4493 2266 
L 4416 2336 
Q 4672 2906 4794 3354 
z
M 1082 2630 
L 621 2630 
Q 448 2630 352 2586 
L 230 2854 
Q 365 2822 550 2822 
L 1082 2822 
L 1082 4198 
Q 1082 4614 1056 4774 
Q 1408 4678 1625 4585 
Q 1843 4493 1843 4435 
Q 1843 4378 1613 4269 
L 1613 2822 
L 1715 2822 
L 1862 3072 
Q 1920 3162 1984 3162 
Q 2048 3162 2233 2970 
Q 2419 2778 2419 2704 
Q 2419 2630 2298 2630 
L 1613 2630 
L 1613 896 
L 2592 1203 
L 2656 1082 
L 1574 467 
Q 1152 230 1008 134 
Q 864 38 736 -70 
Q 685 -115 659 -115 
Q 634 -115 586 -44 
Q 538 26 288 512 
Q 550 563 1082 723 
L 1082 2630 
z
M 4966 -435 
L 3373 -435 
L 3373 -685 
Q 3373 -749 3357 -771 
Q 3341 -794 3257 -838 
Q 3174 -883 3040 -921 
Q 2906 -960 2870 -960 
Q 2835 -960 2842 -890 
Q 2874 -646 2874 -256 
L 2874 1075 
Q 2874 1344 2854 1619 
Q 3354 1472 3507 1395 
L 4922 1395 
L 5018 1581 
Q 5056 1651 5123 1651 
Q 5190 1651 5456 1497 
Q 5722 1344 5722 1289 
Q 5722 1235 5517 1146 
L 5517 -19 
Q 5517 -224 5530 -429 
L 5536 -614 
Q 5536 -678 5491 -710 
Q 5446 -742 5264 -806 
Q 5082 -870 5024 -870 
Q 4966 -870 4966 -819 
L 4966 -435 
z
M 3373 557 
L 4966 557 
L 4966 1203 
L 3373 1203 
L 3373 557 
z
M 4966 378 
L 3373 378 
L 3373 -250 
L 4966 -250 
L 4966 378 
z
" transform="scale(0.015625)"/>
       <path id="STZhongsong-957f" d="M 1818 2298 
L 1818 4218 
Q 1818 4544 1798 4819 
Q 2643 4666 2643 4544 
Q 2643 4480 2406 4339 
L 2406 2528 
Q 3539 3379 4621 4672 
Q 4890 4461 5053 4294 
Q 5216 4128 5216 4089 
Q 5216 4051 5187 4044 
Q 5158 4038 5075 4038 
Q 4838 4038 4582 3808 
Q 4147 3418 3664 3098 
Q 3181 2778 2406 2355 
L 2406 2298 
L 4966 2298 
L 5242 2694 
Q 5325 2810 5382 2810 
Q 5440 2810 5747 2515 
Q 6054 2221 6054 2150 
Q 6054 2080 5869 2080 
L 3328 2080 
Q 3744 1126 4448 611 
Q 5152 96 6266 -70 
L 6259 -211 
Q 5856 -230 5705 -304 
Q 5555 -378 5395 -614 
Q 5363 -666 5318 -666 
Q 5216 -666 4617 -259 
Q 4019 147 3696 668 
Q 3373 1190 3110 2080 
L 2406 2080 
L 2406 115 
L 3565 506 
L 3635 390 
Q 2630 -198 2278 -448 
Q 1926 -698 1856 -803 
Q 1786 -909 1750 -909 
Q 1715 -909 1692 -889 
Q 1670 -870 1542 -697 
Q 1414 -525 1299 -358 
Q 1619 -115 1718 67 
Q 1818 250 1818 563 
L 1818 2080 
L 653 2080 
Q 480 2080 384 2035 
L 237 2330 
Q 371 2298 557 2298 
L 1818 2298 
z
" transform="scale(0.015625)"/>
      </defs>
      <use xlink:href="#STZhongsong-51c0"/>
      <use xlink:href="#STZhongsong-589e" transform="translate(99.999985 0)"/>
      <use xlink:href="#STZhongsong-957f" transform="translate(199.999969 0)"/>
      <use xlink:href="#STZhongsong-6570" transform="translate(299.999954 0)"/>
      <use xlink:href="#STZhongsong-91cf" transform="translate(399.999939 0)"/>
     </g>
    </g>
   </g>
   <g id="line2d_46">
    <path d="M 80.68 519.657069 
L 849.35 519.657069 
" clip-path="url(#pe5a7f2929a)" style="fill: none; stroke: #333333; stroke-linecap: square"/>
   </g>
   <g id="patch_16">
    <path d="M 80.68 552.08275 
L 80.68 331.28775 
" style="fill: none; stroke: #111111; stroke-width: 1.35; stroke-linejoin: miter; stroke-linecap: square"/>
   </g>
   <g id="patch_17">
    <path d="M 80.68 552.08275 
L 849.35 552.08275 
" style="fill: none; stroke: #111111; stroke-width: 1.35; stroke-linejoin: miter; stroke-linecap: square"/>
   </g>
   <g id="text_29">
    <!-- 3871 -->
    <g style="fill: #111111" transform="translate(264.916792 329.323886) scale(0.14 -0.14)">
     <use xlink:href="#STZhongsong-33"/>
     <use xlink:href="#STZhongsong-38" transform="translate(61.999985 0)"/>
     <use xlink:href="#STZhongsong-37" transform="translate(123.999969 0)"/>
     <use xlink:href="#STZhongsong-31" transform="translate(185.999954 0)"/>
    </g>
   </g>
   <g id="text_30">
    <!-- 年度净增长 -->
    <g style="fill: #111111" transform="translate(420.015 325.28775) scale(0.18 -0.18)">
     <defs>
      <path id="STZhongsong-5ea6" d="M 3296 3987 
Q 3219 4301 3120 4473 
Q 3021 4646 2810 4832 
L 2854 4915 
Q 3878 4736 3878 4365 
Q 3878 4269 3814 4166 
Q 3750 4064 3610 3987 
L 5075 3987 
L 5376 4346 
Q 5427 4410 5466 4410 
Q 5536 4410 5808 4163 
Q 6080 3917 6080 3859 
Q 6080 3802 5965 3802 
L 1754 3802 
Q 1754 3488 1741 2931 
L 2656 2931 
L 2656 3277 
Q 2656 3488 2637 3744 
Q 3059 3648 3200 3600 
Q 3341 3552 3341 3507 
Q 3341 3456 3174 3360 
L 3174 2931 
L 4179 2931 
L 4179 3270 
Q 4179 3482 4160 3738 
Q 4653 3629 4765 3581 
Q 4877 3533 4877 3501 
Q 4877 3450 4710 3354 
L 4710 2931 
L 5094 2931 
L 5363 3309 
Q 5402 3360 5434 3360 
Q 5498 3360 5750 3107 
Q 6003 2854 6003 2803 
Q 6003 2752 5888 2752 
L 4710 2752 
L 4710 2355 
Q 4710 2067 4717 1946 
L 4730 1747 
Q 4730 1702 4678 1673 
Q 4627 1645 4457 1590 
Q 4288 1536 4218 1536 
Q 4179 1536 4179 1600 
L 4179 1888 
L 3174 1888 
L 3174 1722 
Q 3174 1677 3164 1648 
Q 3155 1619 2934 1552 
Q 2714 1485 2672 1485 
Q 2630 1485 2630 1530 
L 2643 1754 
Q 2656 1920 2656 2150 
L 2656 2752 
L 1734 2752 
Q 1696 1491 1606 963 
Q 1517 435 1238 -51 
Q 960 -538 358 -1082 
L 275 -1005 
Q 832 -262 1011 477 
Q 1190 1216 1190 2477 
Q 1190 3738 1158 4320 
Q 1510 4198 1843 3987 
L 3296 3987 
z
M 4179 2752 
L 3174 2752 
L 3174 2074 
L 4179 2074 
L 4179 2752 
z
M 3674 -250 
Q 2842 -806 1139 -1069 
L 1139 -941 
Q 2432 -627 3354 19 
Q 2944 422 2669 1133 
L 2387 1133 
Q 2214 1133 2118 1088 
L 2003 1350 
Q 2138 1318 2323 1318 
L 4467 1318 
L 4602 1472 
Q 4653 1530 4697 1530 
Q 4742 1530 5024 1331 
Q 5306 1133 5306 1078 
Q 5306 1024 5206 1017 
Q 5107 1011 5062 995 
Q 5018 979 4954 902 
Q 4506 403 4090 51 
Q 4858 -294 6227 -416 
L 6182 -557 
Q 5894 -557 5721 -643 
Q 5549 -730 5459 -922 
Q 5427 -992 5376 -992 
Q 5280 -992 4681 -768 
Q 4083 -544 3674 -250 
z
M 3686 269 
Q 4166 685 4403 1133 
L 2848 1133 
Q 3187 602 3686 269 
z
" transform="scale(0.015625)"/>
     </defs>
     <use xlink:href="#STZhongsong-5e74"/>
     <use xlink:href="#STZhongsong-5ea6" transform="translate(99.999985 0)"/>
     <use xlink:href="#STZhongsong-51c0" transform="translate(199.999969 0)"/>
     <use xlink:href="#STZhongsong-589e" transform="translate(299.999954 0)"/>
     <use xlink:href="#STZhongsong-957f" transform="translate(399.999939 0)"/>
    </g>
   </g>
  </g>
  <g id="text_31">
   <!-- 活跃企业数量与年度净增长 -->
   <g style="fill: #111111" transform="translate(290.15 24.496719) scale(0.23 -0.23)">
    <defs>
     <path id="STZhongsong-4e0e" d="M 2323 3251 
L 2240 2234 
L 4845 2234 
L 4966 2432 
Q 5005 2496 5059 2496 
Q 5114 2496 5354 2339 
Q 5594 2182 5677 2134 
Q 5760 2086 5760 2025 
Q 5760 1965 5459 1818 
Q 5318 358 5260 22 
Q 5203 -314 5043 -592 
Q 4883 -870 4547 -998 
Q 4211 -1126 4109 -1126 
Q 4032 -1126 3987 -979 
Q 3917 -755 3744 -627 
Q 3571 -499 3078 -339 
L 3110 -192 
Q 3795 -333 4057 -333 
Q 4320 -333 4432 -262 
Q 4544 -192 4605 -19 
Q 4666 154 4739 688 
Q 4813 1222 4845 2035 
L 2304 2035 
L 2170 1830 
Q 2118 1747 2060 1747 
Q 2003 1747 1763 1872 
Q 1523 1997 1376 2099 
Q 1562 2214 1613 2275 
Q 1664 2336 1670 2445 
L 1786 4288 
Q 1798 4506 1798 4634 
Q 1798 4762 1792 4858 
Q 2054 4800 2361 4688 
Q 2669 4576 2669 4502 
Q 2669 4429 2419 4352 
L 2342 3462 
L 4864 3462 
L 5126 3891 
Q 5184 3981 5251 3981 
Q 5318 3981 5635 3689 
Q 5952 3398 5952 3324 
Q 5952 3251 5786 3251 
L 2323 3251 
z
M 3418 858 
L 3654 1242 
Q 3706 1325 3795 1325 
Q 3885 1325 4166 1059 
Q 4448 794 4448 704 
Q 4448 653 4314 653 
L 646 653 
Q 474 653 378 608 
L 256 890 
Q 390 858 576 858 
L 3418 858 
z
" transform="scale(0.015625)"/>
    </defs>
    <use xlink:href="#STZhongsong-6d3b"/>
    <use xlink:href="#STZhongsong-8dc3" transform="translate(99.999985 0)"/>
    <use xlink:href="#STZhongsong-4f01" transform="translate(199.999969 0)"/>
    <use xlink:href="#STZhongsong-4e1a" transform="translate(299.999954 0)"/>
    <use xlink:href="#STZhongsong-6570" transform="translate(399.999939 0)"/>
    <use xlink:href="#STZhongsong-91cf" transform="translate(499.999924 0)"/>
    <use xlink:href="#STZhongsong-4e0e" transform="translate(599.999908 0)"/>
    <use xlink:href="#STZhongsong-5e74" transform="translate(699.999893 0)"/>
    <use xlink:href="#STZhongsong-5ea6" transform="translate(799.999878 0)"/>
    <use xlink:href="#STZhongsong-51c0" transform="translate(899.999863 0)"/>
    <use xlink:href="#STZhongsong-589e" transform="translate(999.999847 0)"/>
    <use xlink:href="#STZhongsong-957f" transform="translate(1099.999832 0)"/>
   </g>
  </g>
 </g>
 <defs>
  <clipPath id="p0f0688584c">
   <rect x="80.68" y="76.60275" width="768.67" height="220.795"/>
  </clipPath>
  <clipPath id="pe5a7f2929a">
   <rect x="80.68" y="331.28775" width="768.67" height="220.795"/>
  </clipPath>
 </defs>
</svg>
