<?xml version="1.0" encoding="utf-8" standalone="no"?>
<!DOCTYPE svg PUBLIC "-//W3C//DTD SVG 1.1//EN"
  "http://www.w3.org/Graphics/SVG/1.1/DTD/svg11.dtd">
<svg xmlns:xlink="http://www.w3.org/1999/xlink" width="856.945pt" height="450.511661pt" viewBox="0 0 856.945 450.511661" xmlns="http://www.w3.org/2000/svg" version="1.1">
 <metadata>
  <rdf:RDF xmlns:dc="http://purl.org/dc/elements/1.1/" xmlns:cc="http://creativecommons.org/ns#" xmlns:rdf="http://www.w3.org/1999/02/22-rdf-syntax-ns#">
   <cc:Work>
    <dc:type rdf:resource="http://purl.org/dc/dcmitype/StillImage"/>
    <dc:date>2026-06-06T01:21:05.417720</dc:date>
    <dc:format>image/svg+xml</dc:format>
    <dc:creator>
     <cc:Agent>
      <dc:title>Matplotlib v3.10.0, https://matplotlib.org/</dc:title>
     </cc:Agent>
    </dc:creator>
   </cc:Work>
  </rdf:RDF>
 </metadata>
 <defs>
  <style type="text/css">*{stroke-linejoin: round; stroke-linecap: butt}</style>
 </defs>
 <g id="figure_1">
  <g id="patch_1">
   <path d="M -0 450.511661 
L 856.945 450.511661 
L 856.945 0 
L -0 0 
z
" style="fill: #ffffff"/>
  </g>
  <g id="axes_1">
   <g id="patch_2">
    <path d="M 61.995 371.815986 
L 849.745 371.815986 
L 849.745 38.992656 
L 61.995 38.992656 
z
" style="fill: #ffffff"/>
   </g>
   <g id="patch_3">
    <path d="M 97.801818 371.815986 
L 141.158717 371.815986 
L 141.158717 105.781896 
L 97.801818 105.781896 
z
" clip-path="url(#p52d94fe16f)" style="fill: #4c78a8"/>
   </g>
   <g id="patch_4">
    <path d="M 172.555092 371.815986 
L 215.911991 371.815986 
L 215.911991 209.261881 
L 172.555092 209.261881 
z
" clip-path="url(#p52d94fe16f)" style="fill: #4c78a8"/>
   </g>
   <g id="patch_5">
    <path d="M 247.308366 371.815986 
L 290.665265 371.815986 
L 290.665265 246.76684 
L 247.308366 246.76684 
z
" clip-path="url(#p52d94fe16f)" style="fill: #4c78a8"/>
   </g>
   <g id="patch_6">
    <path d="M 322.06164 371.815986 
L 365.418539 371.815986 
L 365.418539 299.090577 
L 322.06164 299.090577 
z
" clip-path="url(#p52d94fe16f)" style="fill: #4c78a8"/>
   </g>
   <g id="patch_7">
    <path d="M 396.814914 371.815986 
L 440.171812 371.815986 
L 440.171812 329.717298 
L 396.814914 329.717298 
z
" clip-path="url(#p52d94fe16f)" style="fill: #4c78a8"/>
   </g>
   <g id="patch_8">
    <path d="M 471.568188 371.815986 
L 514.925086 371.815986 
L 514.925086 325.835074 
L 471.568188 325.835074 
z
" clip-path="url(#p52d94fe16f)" style="fill: #4c78a8"/>
   </g>
   <g id="patch_9">
    <path d="M 546.321461 371.815986 
L 589.67836 371.815986 
L 589.67836 327.551928 
L 546.321461 327.551928 
z
" clip-path="url(#p52d94fe16f)" style="fill: #4c78a8"/>
   </g>
   <g id="patch_10">
    <path d="M 621.074735 371.815986 
L 664.431634 371.815986 
L 664.431634 321.319081 
L 621.074735 321.319081 
z
" clip-path="url(#p52d94fe16f)" style="fill: #4c78a8"/>
   </g>
   <g id="patch_11">
    <path d="M 695.828009 371.815986 
L 739.184908 371.815986 
L 739.184908 320.669822 
L 695.828009 320.669822 
z
" clip-path="url(#p52d94fe16f)" style="fill: #4c78a8"/>
   </g>
   <g id="patch_12">
    <path d="M 770.581283 371.815986 
L 813.938182 371.815986 
L 813.938182 331.034453 
L 770.581283 331.034453 
z
" clip-path="url(#p52d94fe16f)" style="fill: #4c78a8"/>
   </g>
   <g id="patch_13">
    <path d="M 97.801818 105.781896 
L 141.158717 105.781896 
L 141.158717 105.781896 
L 97.801818 105.781896 
z
" clip-path="url(#p52d94fe16f)" style="fill: #72b7b2"/>
   </g>
   <g id="patch_14">
    <path d="M 172.555092 209.261881 
L 215.911991 209.261881 
L 215.911991 105.781896 
L 172.555092 105.781896 
z
" clip-path="url(#p52d94fe16f)" style="fill: #72b7b2"/>
   </g>
   <g id="patch_15">
    <path d="M 247.308366 246.76684 
L 290.665265 246.76684 
L 290.665265 105.781896 
L 247.308366 105.781896 
z
" clip-path="url(#p52d94fe16f)" style="fill: #72b7b2"/>
   </g>
   <g id="patch_16">
    <path d="M 322.06164 299.090577 
L 365.418539 299.090577 
L 365.418539 105.781896 
L 322.06164 105.781896 
z
" clip-path="url(#p52d94fe16f)" style="fill: #72b7b2"/>
   </g>
   <g id="patch_17">
    <path d="M 396.814914 329.717298 
L 440.171812 329.717298 
L 440.171812 105.781896 
L 396.814914 105.781896 
z
" clip-path="url(#p52d94fe16f)" style="fill: #72b7b2"/>
   </g>
   <g id="patch_18">
    <path d="M 471.568188 325.835074 
L 514.925086 325.835074 
L 514.925086 105.781896 
L 471.568188 105.781896 
z
" clip-path="url(#p52d94fe16f)" style="fill: #72b7b2"/>
   </g>
   <g id="patch_19">
    <path d="M 546.321461 327.551928 
L 589.67836 327.551928 
L 589.67836 105.781896 
L 546.321461 105.781896 
z
" clip-path="url(#p52d94fe16f)" style="fill: #72b7b2"/>
   </g>
   <g id="patch_20">
    <path d="M 621.074735 321.319081 
L 664.431634 321.319081 
L 664.431634 105.781896 
L 621.074735 105.781896 
z
" clip-path="url(#p52d94fe16f)" style="fill: #72b7b2"/>
   </g>
   <g id="patch_21">
    <path d="M 695.828009 320.669822 
L 739.184908 320.669822 
L 739.184908 105.781896 
L 695.828009 105.781896 
z
" clip-path="url(#p52d94fe16f)" style="fill: #72b7b2"/>
   </g>
   <g id="patch_22">
    <path d="M 770.581283 331.034453 
L 813.938182 331.034453 
L 813.938182 105.781896 
L 770.581283 105.781896 
z
" clip-path="url(#p52d94fe16f)" style="fill: #72b7b2"/>
   </g>
   <g id="patch_23">
    <path d="M 97.801818 105.781896 
L 141.158717 105.781896 
L 141.158717 105.781896 
L 97.801818 105.781896 
z
" clip-path="url(#p52d94fe16f)" style="fill: #59a14f"/>
   </g>
   <g id="patch_24">
    <path d="M 172.555092 105.781896 
L 215.911991 105.781896 
L 215.911991 85.211955 
L 172.555092 85.211955 
z
" clip-path="url(#p52d94fe16f)" style="fill: #59a14f"/>
   </g>
   <g id="patch_25">
    <path d="M 247.308366 105.781896 
L 290.665265 105.781896 
L 290.665265 87.502599 
L 247.308366 87.502599 
z
" clip-path="url(#p52d94fe16f)" style="fill: #59a14f"/>
   </g>
   <g id="patch_26">
    <path d="M 322.06164 105.781896 
L 365.418539 105.781896 
L 365.418539 92.803493 
L 322.06164 92.803493 
z
" clip-path="url(#p52d94fe16f)" style="fill: #59a14f"/>
   </g>
   <g id="patch_27">
    <path d="M 396.814914 105.781896 
L 440.171812 105.781896 
L 440.171812 67.722528 
L 396.814914 67.722528 
z
" clip-path="url(#p52d94fe16f)" style="fill: #59a14f"/>
   </g>
   <g id="patch_28">
    <path d="M 471.568188 105.781896 
L 514.925086 105.781896 
L 514.925086 55.799592 
L 471.568188 55.799592 
z
" clip-path="url(#p52d94fe16f)" style="fill: #59a14f"/>
   </g>
   <g id="patch_29">
    <path d="M 546.321461 105.781896 
L 589.67836 105.781896 
L 589.67836 65.589185 
L 546.321461 65.589185 
z
" clip-path="url(#p52d94fe16f)" style="fill: #59a14f"/>
   </g>
   <g id="patch_30">
    <path d="M 621.074735 105.781896 
L 664.431634 105.781896 
L 664.431634 59.206653 
L 621.074735 59.206653 
z
" clip-path="url(#p52d94fe16f)" style="fill: #59a14f"/>
   </g>
   <g id="patch_31">
    <path d="M 695.828009 105.781896 
L 739.184908 105.781896 
L 739.184908 54.841386 
L 695.828009 54.841386 
z
" clip-path="url(#p52d94fe16f)" style="fill: #59a14f"/>
   </g>
   <g id="patch_32">
    <path d="M 770.581283 105.781896 
L 813.938182 105.781896 
L 813.938182 64.783964 
L 770.581283 64.783964 
z
" clip-path="url(#p52d94fe16f)" style="fill: #59a14f"/>
   </g>
   <g id="matplotlib.axis_1">
    <g id="xtick_1">
     <g id="line2d_1">
      <defs>
       <path id="md639b0fee6" d="M 0 0 
L 0 3.5 
" style="stroke: #111111; stroke-width: 0.8"/>
      </defs>
      <g>
       <use xlink:href="#md639b0fee6" x="194.233541" y="371.815986" style="fill: #111111; stroke: #111111; stroke-width: 0.8"/>
      </g>
     </g>
     <g id="text_1">
      <!-- 2016 -->
      <g style="fill: #111111" transform="translate(175.633541 389.555049) scale(0.15 -0.15)">
       <defs>
        <path id="STZhongsong-32" d="M 723 2714 
L 422 2675 
Q 397 2835 397 2989 
Q 397 3616 832 4025 
Q 1267 4435 1978 4435 
Q 2630 4435 3043 4064 
Q 3456 3693 3456 3098 
Q 3456 2669 3286 2349 
Q 3117 2029 2611 1603 
Q 2106 1178 1037 467 
L 2662 467 
Q 2963 467 3062 544 
Q 3162 621 3200 838 
L 3232 1018 
L 3494 1018 
L 3283 -154 
L 3085 -154 
L 3053 0 
L 320 0 
L 320 262 
L 819 640 
Q 1901 1453 2377 1977 
Q 2854 2502 2854 3066 
Q 2854 3507 2569 3788 
Q 2285 4070 1837 4070 
Q 1325 4070 1017 3753 
Q 710 3437 710 2918 
Q 710 2822 723 2714 
z
" transform="scale(0.015625)"/>
        <path id="STZhongsong-30" d="M 326 2182 
Q 326 3251 774 3843 
Q 1222 4435 1997 4435 
Q 2752 4435 3197 3827 
Q 3642 3219 3642 2144 
Q 3642 1139 3178 531 
Q 2714 -77 1952 -77 
Q 1229 -77 777 524 
Q 326 1126 326 2182 
z
M 3040 2182 
Q 3040 3104 2758 3616 
Q 2477 4128 1978 4128 
Q 1478 4128 1200 3590 
Q 922 3053 922 2118 
Q 922 1229 1210 733 
Q 1498 237 1971 237 
Q 2470 237 2755 752 
Q 3040 1267 3040 2182 
z
" transform="scale(0.015625)"/>
        <path id="STZhongsong-31" d="M 2150 4358 
L 2387 4358 
L 2387 742 
Q 2387 422 2464 342 
Q 2541 262 2822 262 
L 3130 262 
L 3130 0 
L 1069 0 
L 1069 262 
L 1408 262 
Q 1670 262 1766 348 
Q 1862 435 1862 742 
L 1862 3718 
L 1069 3718 
L 1069 3987 
Q 1709 4070 2150 4358 
z
" transform="scale(0.015625)"/>
        <path id="STZhongsong-36" d="M 3238 4442 
L 3238 4154 
Q 2131 4141 1603 3686 
Q 1075 3232 1037 2227 
Q 1446 2893 2240 2893 
Q 2880 2893 3289 2486 
Q 3699 2080 3699 1440 
Q 3699 742 3257 332 
Q 2816 -77 2093 -77 
Q 1286 -77 848 444 
Q 410 966 410 1926 
Q 410 3046 1056 3744 
Q 1702 4442 2995 4442 
L 3238 4442 
z
M 3072 1414 
Q 3072 1933 2800 2246 
Q 2528 2560 2099 2560 
Q 1658 2560 1363 2224 
Q 1069 1888 1069 1402 
Q 1069 890 1350 550 
Q 1632 211 2074 211 
Q 2509 211 2790 544 
Q 3072 877 3072 1414 
z
" transform="scale(0.015625)"/>
       </defs>
       <use xlink:href="#STZhongsong-32"/>
       <use xlink:href="#STZhongsong-30" transform="translate(61.999985 0)"/>
       <use xlink:href="#STZhongsong-31" transform="translate(123.999969 0)"/>
       <use xlink:href="#STZhongsong-36" transform="translate(185.999954 0)"/>
      </g>
     </g>
    </g>
    <g id="xtick_2">
     <g id="line2d_2">
      <g>
       <use xlink:href="#md639b0fee6" x="343.740089" y="371.815986" style="fill: #111111; stroke: #111111; stroke-width: 0.8"/>
      </g>
     </g>
     <g id="text_2">
      <!-- 2018 -->
      <g style="fill: #111111" transform="translate(325.140089 389.555049) scale(0.15 -0.15)">
       <defs>
        <path id="STZhongsong-38" d="M 2477 2419 
Q 3021 2208 3315 1923 
Q 3610 1638 3610 1197 
Q 3610 659 3152 291 
Q 2694 -77 1971 -77 
Q 1274 -77 816 272 
Q 358 621 358 1120 
Q 358 1485 633 1779 
Q 909 2074 1440 2259 
Q 1011 2451 800 2691 
Q 589 2931 589 3315 
Q 589 3814 998 4124 
Q 1408 4435 2035 4435 
Q 2618 4435 2998 4134 
Q 3379 3834 3379 3424 
Q 3379 2790 2477 2419 
z
M 2189 2534 
Q 2451 2707 2662 2918 
Q 2874 3130 2874 3418 
Q 2874 3706 2621 3923 
Q 2368 4141 1971 4141 
Q 1594 4141 1331 3926 
Q 1069 3712 1069 3430 
Q 1069 3168 1270 2989 
Q 1472 2810 1824 2675 
L 2189 2534 
z
M 1747 2131 
Q 1325 1939 1088 1670 
Q 851 1402 851 1126 
Q 851 762 1177 490 
Q 1504 218 1984 218 
Q 2438 218 2774 483 
Q 3110 749 3110 1082 
Q 3110 1594 2253 1933 
L 1747 2131 
z
" transform="scale(0.015625)"/>
       </defs>
       <use xlink:href="#STZhongsong-32"/>
       <use xlink:href="#STZhongsong-30" transform="translate(61.999985 0)"/>
       <use xlink:href="#STZhongsong-31" transform="translate(123.999969 0)"/>
       <use xlink:href="#STZhongsong-38" transform="translate(185.999954 0)"/>
      </g>
     </g>
    </g>
    <g id="xtick_3">
     <g id="line2d_3">
      <g>
       <use xlink:href="#md639b0fee6" x="493.246637" y="371.815986" style="fill: #111111; stroke: #111111; stroke-width: 0.8"/>
      </g>
     </g>
     <g id="text_3">
      <!-- 2020 -->
      <g style="fill: #111111" transform="translate(474.646637 389.555049) scale(0.15 -0.15)">
       <use xlink:href="#STZhongsong-32"/>
       <use xlink:href="#STZhongsong-30" transform="translate(61.999985 0)"/>
       <use xlink:href="#STZhongsong-32" transform="translate(123.999969 0)"/>
       <use xlink:href="#STZhongsong-30" transform="translate(185.999954 0)"/>
      </g>
     </g>
    </g>
    <g id="xtick_4">
     <g id="line2d_4">
      <g>
       <use xlink:href="#md639b0fee6" x="642.753185" y="371.815986" style="fill: #111111; stroke: #111111; stroke-width: 0.8"/>
      </g>
     </g>
     <g id="text_4">
      <!-- 2022 -->
      <g style="fill: #111111" transform="translate(624.153185 389.555049) scale(0.15 -0.15)">
       <use xlink:href="#STZhongsong-32"/>
       <use xlink:href="#STZhongsong-30" transform="translate(61.999985 0)"/>
       <use xlink:href="#STZhongsong-32" transform="translate(123.999969 0)"/>
       <use xlink:href="#STZhongsong-32" transform="translate(185.999954 0)"/>
      </g>
     </g>
    </g>
    <g id="xtick_5">
     <g id="line2d_5">
      <g>
       <use xlink:href="#md639b0fee6" x="792.259732" y="371.815986" style="fill: #111111; stroke: #111111; stroke-width: 0.8"/>
      </g>
     </g>
     <g id="text_5">
      <!-- 2024 -->
      <g style="fill: #111111" transform="translate(773.659732 389.555049) scale(0.15 -0.15)">
       <defs>
        <path id="STZhongsong-34" d="M 3494 1242 
L 2906 1242 
L 2906 518 
Q 2906 275 3213 250 
L 3213 45 
L 1882 45 
L 1882 250 
Q 2054 262 2156 336 
Q 2259 410 2259 518 
L 2259 1242 
L 550 1242 
L 550 1658 
L 2483 4365 
L 2906 4365 
L 2906 1581 
L 3494 1581 
L 3494 1242 
z
M 2259 1581 
L 2259 3462 
L 902 1581 
L 2259 1581 
z
" transform="scale(0.015625)"/>
       </defs>
       <use xlink:href="#STZhongsong-32"/>
       <use xlink:href="#STZhongsong-30" transform="translate(61.999985 0)"/>
       <use xlink:href="#STZhongsong-32" transform="translate(123.999969 0)"/>
       <use xlink:href="#STZhongsong-34" transform="translate(185.999954 0)"/>
      </g>
     </g>
    </g>
    <g id="text_6">
     <!-- 年份 -->
     <g style="fill: #111111" transform="translate(438.87 409.220049) scale(0.17 -0.17)">
      <defs>
       <path id="STZhongsong-5e74" d="M 1939 3827 
L 4794 3827 
L 5082 4237 
Q 5133 4314 5171 4314 
Q 5210 4314 5328 4224 
Q 5446 4134 5612 3993 
Q 5779 3853 5840 3789 
Q 5901 3725 5901 3686 
Q 5901 3616 5811 3616 
L 3744 3616 
L 3744 2496 
L 4474 2496 
L 4736 2874 
Q 4787 2938 4822 2938 
Q 4858 2938 4970 2858 
Q 5082 2778 5232 2643 
Q 5382 2509 5414 2461 
Q 5446 2413 5446 2368 
Q 5446 2272 5350 2272 
L 3744 2272 
L 3744 1043 
L 5254 1043 
L 5542 1427 
Q 5587 1485 5654 1485 
Q 5722 1485 6013 1213 
Q 6304 941 6304 883 
Q 6304 826 6195 826 
L 3744 826 
Q 3744 19 3750 -294 
L 3763 -864 
Q 3763 -909 3731 -941 
Q 3699 -973 3475 -1056 
Q 3251 -1139 3203 -1139 
Q 3155 -1139 3155 -1037 
L 3168 -390 
Q 3174 -38 3174 826 
L 653 826 
Q 480 826 384 781 
L 269 1075 
Q 403 1043 589 1043 
L 1498 1043 
L 1498 2170 
Q 1498 2643 1485 2739 
Q 1856 2630 2138 2496 
L 3174 2496 
L 3174 3616 
L 1798 3616 
Q 1440 3046 1136 2713 
Q 832 2381 339 1984 
L 243 2086 
Q 1261 3174 1741 4909 
Q 2259 4704 2400 4611 
Q 2541 4518 2541 4457 
Q 2541 4397 2435 4384 
Q 2330 4371 2253 4288 
Q 2176 4205 1939 3827 
z
M 3174 2272 
L 2054 2272 
L 2054 1043 
L 3174 1043 
L 3174 2272 
z
" transform="scale(0.015625)"/>
       <path id="STZhongsong-4efd" d="M 1190 2470 
Q 736 1830 237 1389 
L 141 1472 
Q 1158 2701 1702 4838 
Q 1894 4768 2115 4672 
Q 2336 4576 2374 4544 
Q 2413 4512 2413 4477 
Q 2413 4442 2326 4419 
Q 2240 4397 2205 4345 
Q 2170 4294 2099 4115 
Q 1888 3578 1530 2982 
Q 1837 2912 1837 2842 
Q 1837 2803 1709 2720 
L 1709 -806 
Q 1709 -883 1670 -928 
Q 1632 -973 1453 -1049 
Q 1274 -1126 1219 -1126 
Q 1165 -1126 1165 -1056 
L 1178 -563 
Q 1190 -262 1190 70 
L 1190 2470 
z
M 6272 2355 
L 6259 2227 
Q 6170 2240 6099 2240 
Q 5786 2240 5658 1971 
Q 5638 1926 5587 1926 
Q 5408 1926 4813 2630 
Q 4218 3334 4102 4806 
Q 4742 4742 4742 4627 
Q 4742 4589 4672 4570 
Q 4467 4518 4467 4323 
Q 4467 4128 4636 3712 
Q 4806 3296 5209 2925 
Q 5613 2554 6272 2355 
z
M 3174 4506 
Q 3635 4346 3753 4285 
Q 3872 4224 3872 4182 
Q 3872 4141 3753 4105 
Q 3635 4070 3546 3834 
Q 3034 2477 1888 1421 
L 1798 1491 
Q 2765 2810 3174 4506 
z
M 3232 1920 
L 3072 1920 
Q 2906 1920 2803 1875 
L 2662 2157 
Q 2797 2125 2982 2125 
L 4461 2125 
L 4614 2330 
Q 4659 2381 4704 2381 
Q 4749 2381 4937 2246 
Q 5126 2112 5212 2041 
Q 5299 1971 5299 1920 
Q 5299 1869 5139 1760 
Q 5114 1011 5066 432 
Q 5018 -147 4966 -355 
Q 4915 -563 4796 -700 
Q 4678 -838 4451 -944 
Q 4224 -1050 4169 -1050 
Q 4115 -1050 4090 -966 
Q 4038 -774 3856 -640 
Q 3674 -506 3328 -378 
L 3373 -243 
Q 3910 -384 4076 -384 
Q 4243 -384 4307 -326 
Q 4371 -269 4432 -73 
Q 4493 122 4528 541 
Q 4563 960 4576 1920 
L 3782 1920 
Q 3738 730 3389 125 
Q 3040 -480 1946 -1094 
L 1869 -1011 
Q 2669 -358 2934 237 
Q 3200 832 3232 1920 
z
" transform="scale(0.015625)"/>
      </defs>
      <use xlink:href="#STZhongsong-5e74"/>
      <use xlink:href="#STZhongsong-4efd" transform="translate(99.999985 0)"/>
     </g>
    </g>
   </g>
   <g id="matplotlib.axis_2">
    <g id="ytick_1">
     <g id="line2d_6">
      <path d="M 61.995 371.815986 
L 849.745 371.815986 
" clip-path="url(#p52d94fe16f)" style="fill: none; stroke: #ececec; stroke-width: 0.9; stroke-linecap: square"/>
     </g>
     <g id="line2d_7">
      <defs>
       <path id="m41d990a4cd" d="M 0 0 
L -3.5 0 
" style="stroke: #111111; stroke-width: 0.8"/>
      </defs>
      <g>
       <use xlink:href="#m41d990a4cd" x="61.995" y="371.815986" style="fill: #111111; stroke: #111111; stroke-width: 0.8"/>
      </g>
     </g>
     <g id="text_7">
      <!-- 0 -->
      <g style="fill: #111111" transform="translate(45.695 377.185517) scale(0.15 -0.15)">
       <use xlink:href="#STZhongsong-30"/>
      </g>
     </g>
    </g>
    <g id="ytick_2">
     <g id="line2d_8">
      <path d="M 61.995 318.609168 
L 849.745 318.609168 
" clip-path="url(#p52d94fe16f)" style="fill: none; stroke: #ececec; stroke-width: 0.9; stroke-linecap: square"/>
     </g>
     <g id="line2d_9">
      <g>
       <use xlink:href="#m41d990a4cd" x="61.995" y="318.609168" style="fill: #111111; stroke: #111111; stroke-width: 0.8"/>
      </g>
     </g>
     <g id="text_8">
      <!-- 20 -->
      <g style="fill: #111111" transform="translate(36.395 323.9787) scale(0.15 -0.15)">
       <use xlink:href="#STZhongsong-32"/>
       <use xlink:href="#STZhongsong-30" transform="translate(61.999985 0)"/>
      </g>
     </g>
    </g>
    <g id="ytick_3">
     <g id="line2d_10">
      <path d="M 61.995 265.40235 
L 849.745 265.40235 
" clip-path="url(#p52d94fe16f)" style="fill: none; stroke: #ececec; stroke-width: 0.9; stroke-linecap: square"/>
     </g>
     <g id="line2d_11">
      <g>
       <use xlink:href="#m41d990a4cd" x="61.995" y="265.40235" style="fill: #111111; stroke: #111111; stroke-width: 0.8"/>
      </g>
     </g>
     <g id="text_9">
      <!-- 40 -->
      <g style="fill: #111111" transform="translate(36.395 270.771882) scale(0.15 -0.15)">
       <use xlink:href="#STZhongsong-34"/>
       <use xlink:href="#STZhongsong-30" transform="translate(61.999985 0)"/>
      </g>
     </g>
    </g>
    <g id="ytick_4">
     <g id="line2d_12">
      <path d="M 61.995 212.195532 
L 849.745 212.195532 
" clip-path="url(#p52d94fe16f)" style="fill: none; stroke: #ececec; stroke-width: 0.9; stroke-linecap: square"/>
     </g>
     <g id="line2d_13">
      <g>
       <use xlink:href="#m41d990a4cd" x="61.995" y="212.195532" style="fill: #111111; stroke: #111111; stroke-width: 0.8"/>
      </g>
     </g>
     <g id="text_10">
      <!-- 60 -->
      <g style="fill: #111111" transform="translate(36.395 217.565064) scale(0.15 -0.15)">
       <use xlink:href="#STZhongsong-36"/>
       <use xlink:href="#STZhongsong-30" transform="translate(61.999985 0)"/>
      </g>
     </g>
    </g>
    <g id="ytick_5">
     <g id="line2d_14">
      <path d="M 61.995 158.988714 
L 849.745 158.988714 
" clip-path="url(#p52d94fe16f)" style="fill: none; stroke: #ececec; stroke-width: 0.9; stroke-linecap: square"/>
     </g>
     <g id="line2d_15">
      <g>
       <use xlink:href="#m41d990a4cd" x="61.995" y="158.988714" style="fill: #111111; stroke: #111111; stroke-width: 0.8"/>
      </g>
     </g>
     <g id="text_11">
      <!-- 80 -->
      <g style="fill: #111111" transform="translate(36.395 164.358246) scale(0.15 -0.15)">
       <use xlink:href="#STZhongsong-38"/>
       <use xlink:href="#STZhongsong-30" transform="translate(61.999985 0)"/>
      </g>
     </g>
    </g>
    <g id="ytick_6">
     <g id="line2d_16">
      <path d="M 61.995 105.781896 
L 849.745 105.781896 
" clip-path="url(#p52d94fe16f)" style="fill: none; stroke: #ececec; stroke-width: 0.9; stroke-linecap: square"/>
     </g>
     <g id="line2d_17">
      <g>
       <use xlink:href="#m41d990a4cd" x="61.995" y="105.781896" style="fill: #111111; stroke: #111111; stroke-width: 0.8"/>
      </g>
     </g>
     <g id="text_12">
      <!-- 100 -->
      <g style="fill: #111111" transform="translate(27.095 111.151428) scale(0.15 -0.15)">
       <use xlink:href="#STZhongsong-31"/>
       <use xlink:href="#STZhongsong-30" transform="translate(61.999985 0)"/>
       <use xlink:href="#STZhongsong-30" transform="translate(123.999969 0)"/>
      </g>
     </g>
    </g>
    <g id="ytick_7">
     <g id="line2d_18">
      <path d="M 61.995 52.575079 
L 849.745 52.575079 
" clip-path="url(#p52d94fe16f)" style="fill: none; stroke: #ececec; stroke-width: 0.9; stroke-linecap: square"/>
     </g>
     <g id="line2d_19">
      <g>
       <use xlink:href="#m41d990a4cd" x="61.995" y="52.575079" style="fill: #111111; stroke: #111111; stroke-width: 0.8"/>
      </g>
     </g>
     <g id="text_13">
      <!-- 120 -->
      <g style="fill: #111111" transform="translate(27.095 57.94461) scale(0.15 -0.15)">
       <use xlink:href="#STZhongsong-31"/>
       <use xlink:href="#STZhongsong-32" transform="translate(61.999985 0)"/>
       <use xlink:href="#STZhongsong-30" transform="translate(123.999969 0)"/>
      </g>
     </g>
    </g>
    <g id="text_14">
     <!-- 占比（%） -->
     <g style="fill: #111111" transform="translate(19.695 247.054321) rotate(-90) scale(0.17 -0.17)">
      <defs>
       <path id="STZhongsong-5360" d="M 3488 3277 
L 5037 3277 
L 5299 3693 
Q 5357 3782 5430 3782 
Q 5504 3782 5638 3642 
L 5933 3334 
Q 6099 3162 6099 3114 
Q 6099 3066 5997 3066 
L 3488 3066 
L 3488 1837 
L 4538 1837 
L 4678 2093 
Q 4704 2150 4771 2150 
Q 4838 2150 5056 2010 
L 5344 1818 
Q 5427 1766 5427 1712 
Q 5427 1658 5197 1491 
L 5197 -493 
Q 5197 -627 5203 -723 
L 5216 -883 
Q 5216 -915 5193 -940 
Q 5171 -966 5046 -1024 
Q 4922 -1082 4797 -1117 
Q 4672 -1152 4630 -1152 
Q 4589 -1152 4589 -1088 
L 4589 -371 
L 1792 -371 
L 1792 -877 
Q 1792 -934 1782 -953 
Q 1773 -973 1635 -1030 
Q 1498 -1088 1376 -1117 
Q 1254 -1146 1228 -1146 
Q 1203 -1146 1203 -1094 
L 1210 -870 
Q 1216 -768 1216 -653 
L 1216 1536 
Q 1216 1805 1197 2080 
Q 1574 1997 1894 1837 
L 2848 1837 
L 2848 4230 
Q 2848 4723 2835 4832 
Q 3366 4742 3552 4688 
Q 3738 4634 3738 4576 
Q 3738 4512 3488 4371 
L 3488 3277 
z
M 4589 -134 
L 4589 1626 
L 1792 1626 
L 1792 -134 
L 4589 -134 
z
" transform="scale(0.015625)"/>
       <path id="STZhongsong-6bd4" d="M 3789 2112 
Q 4435 2579 5126 3494 
Q 5299 3347 5481 3171 
Q 5664 2995 5693 2956 
Q 5722 2918 5722 2886 
Q 5722 2816 5523 2816 
Q 5325 2816 5056 2611 
Q 4493 2176 3789 1875 
L 3789 51 
Q 3789 -77 3808 -134 
Q 3827 -192 3875 -214 
Q 3923 -237 4102 -249 
Q 4282 -262 4499 -262 
Q 4717 -262 4934 -240 
Q 5152 -218 5219 -186 
Q 5286 -154 5334 -38 
Q 5382 77 5427 320 
Q 5472 563 5542 1062 
L 5696 1062 
Q 5690 582 5709 377 
Q 5728 173 5779 89 
Q 5830 6 5942 -64 
Q 6054 -134 6054 -192 
Q 6054 -250 5923 -448 
Q 5792 -646 5555 -732 
Q 5318 -819 4643 -819 
Q 3968 -819 3673 -774 
Q 3379 -730 3305 -602 
Q 3232 -474 3232 -90 
L 3232 4000 
Q 3232 4435 3213 4717 
Q 3674 4595 3862 4521 
Q 4051 4448 4051 4390 
Q 4051 4333 3789 4192 
L 3789 2112 
z
M 1568 2618 
L 2150 2618 
L 2426 3002 
Q 2496 3104 2569 3104 
Q 2643 3104 2889 2832 
Q 3136 2560 3136 2486 
Q 3136 2413 2995 2413 
L 1568 2413 
L 1568 141 
Q 2381 493 3085 762 
L 3162 634 
Q 1344 -563 1213 -675 
Q 1082 -787 1046 -787 
Q 1011 -787 953 -675 
Q 896 -563 723 -179 
Q 902 -90 956 -13 
Q 1011 64 1011 186 
L 1011 4083 
Q 1011 4410 992 4685 
Q 1190 4646 1516 4547 
Q 1843 4448 1843 4371 
Q 1843 4314 1568 4154 
L 1568 2618 
z
" transform="scale(0.015625)"/>
       <path id="STZhongsong-ff08" d="M 5747 4563 
Q 4781 3258 4781 1997 
Q 4781 1075 5011 480 
Q 5242 -115 5741 -826 
L 5587 -966 
Q 4864 -320 4515 368 
Q 4166 1056 4166 1990 
Q 4166 2688 4537 3395 
Q 4909 4102 5619 4698 
L 5747 4563 
z
" transform="scale(0.015625)"/>
       <path id="STZhongsong-25" d="M 224 3264 
Q 224 3808 502 4121 
Q 781 4435 1248 4435 
Q 1715 4435 1987 4115 
Q 2259 3795 2259 3245 
Q 2259 2714 1974 2400 
Q 1690 2086 1222 2086 
Q 774 2086 499 2406 
Q 224 2726 224 3264 
z
M 1830 3264 
Q 1830 3712 1673 3974 
Q 1517 4237 1242 4237 
Q 966 4237 809 3977 
Q 653 3718 653 3232 
Q 653 2790 813 2537 
Q 973 2285 1229 2285 
Q 1491 2285 1660 2547 
Q 1830 2810 1830 3264 
z
M 4518 4435 
L 1613 -77 
L 1242 -77 
L 4141 4435 
L 4518 4435 
z
M 3501 1101 
Q 3501 1645 3776 1955 
Q 4051 2266 4525 2266 
Q 4998 2266 5267 1949 
Q 5536 1632 5536 1075 
Q 5536 557 5248 240 
Q 4960 -77 4499 -77 
Q 4045 -77 3773 240 
Q 3501 557 3501 1101 
z
M 5101 1094 
Q 5101 1555 4947 1814 
Q 4794 2074 4518 2074 
Q 4250 2074 4090 1811 
Q 3930 1549 3930 1069 
Q 3930 634 4093 381 
Q 4256 128 4506 128 
Q 4787 128 4944 377 
Q 5101 627 5101 1094 
z
" transform="scale(0.015625)"/>
       <path id="STZhongsong-ff09" d="M 819 4787 
Q 1536 4166 1904 3433 
Q 2272 2701 2272 1904 
Q 2272 1107 1881 323 
Q 1491 -461 800 -973 
L 646 -832 
Q 1158 -179 1398 486 
Q 1638 1152 1638 1933 
Q 1638 2714 1382 3421 
Q 1126 4128 646 4653 
L 819 4787 
z
" transform="scale(0.015625)"/>
      </defs>
      <use xlink:href="#STZhongsong-5360"/>
      <use xlink:href="#STZhongsong-6bd4" transform="translate(99.999985 0)"/>
      <use xlink:href="#STZhongsong-ff08" transform="translate(199.999969 0)"/>
      <use xlink:href="#STZhongsong-25" transform="translate(299.999954 0)"/>
      <use xlink:href="#STZhongsong-ff09" transform="translate(389.999939 0)"/>
     </g>
    </g>
   </g>
   <g id="patch_33">
    <path d="M 61.995 371.815986 
L 61.995 38.992656 
" style="fill: none; stroke: #111111; stroke-width: 1.35; stroke-linejoin: miter; stroke-linecap: square"/>
   </g>
   <g id="patch_34">
    <path d="M 61.995 371.815986 
L 849.745 371.815986 
" style="fill: none; stroke: #111111; stroke-width: 1.35; stroke-linejoin: miter; stroke-linecap: square"/>
   </g>
   <g id="text_15">
    <!-- 企业动态变量年度占比结构 -->
    <g style="fill: #111111" transform="translate(329.87 22.992656) scale(0.21 -0.21)">
     <defs>
      <path id="STZhongsong-4f01" d="M 3232 4314 
Q 3174 4243 3130 4160 
Q 2726 3469 2377 3046 
Q 2029 2624 1542 2272 
Q 1056 1920 218 1459 
L 154 1562 
Q 1139 2291 1696 2979 
Q 2253 3667 2771 4832 
Q 3482 4576 3482 4506 
Q 3482 4467 3341 4410 
Q 4179 3034 6259 2554 
L 6246 2432 
Q 5946 2432 5786 2371 
Q 5626 2310 5472 2112 
Q 5427 2061 5389 2061 
Q 5318 2061 4774 2432 
Q 4230 2803 3852 3251 
Q 3475 3699 3232 4314 
z
M 3558 1414 
L 4179 1414 
L 4429 1754 
Q 4486 1830 4557 1830 
Q 4614 1830 4761 1721 
Q 4909 1613 5056 1472 
Q 5203 1331 5203 1286 
Q 5203 1216 5062 1216 
L 3558 1216 
L 3558 -461 
L 4870 -461 
L 5171 -45 
Q 5235 45 5280 45 
Q 5344 45 5696 -240 
Q 6048 -525 6048 -598 
Q 6048 -672 5933 -672 
L 723 -672 
Q 550 -672 454 -717 
L 339 -429 
Q 474 -461 659 -461 
L 1466 -461 
L 1466 1370 
Q 1466 1690 1453 1939 
Q 1971 1805 2076 1763 
Q 2182 1722 2182 1677 
Q 2182 1632 2016 1549 
L 2016 -461 
L 3034 -461 
L 3034 2413 
Q 3034 2733 3021 2982 
Q 3360 2899 3568 2816 
Q 3776 2733 3776 2682 
Q 3776 2611 3558 2502 
L 3558 1414 
z
" transform="scale(0.015625)"/>
      <path id="STZhongsong-4e1a" d="M 3552 -422 
L 3552 4154 
Q 3552 4646 3539 4755 
Q 3821 4698 4096 4608 
Q 4371 4518 4371 4448 
Q 4371 4378 4096 4243 
L 4096 768 
Q 4659 1626 5158 3341 
Q 5747 3053 5843 2989 
Q 5939 2925 5939 2873 
Q 5939 2822 5818 2810 
Q 5766 2803 5731 2771 
Q 5696 2739 5619 2618 
Q 4813 1210 4096 442 
L 4096 -422 
L 5056 -422 
L 5370 -26 
Q 5440 58 5485 58 
Q 5530 58 5616 -16 
Q 5702 -90 5862 -240 
Q 6022 -390 6092 -476 
Q 6163 -563 6163 -608 
Q 6163 -653 6048 -653 
L 640 -653 
Q 499 -653 416 -685 
L 282 -390 
Q 384 -422 538 -422 
L 2278 -422 
L 2278 4115 
Q 2278 4608 2266 4717 
Q 2886 4576 3001 4531 
Q 3117 4486 3117 4422 
Q 3117 4358 2822 4256 
L 2822 -422 
L 3552 -422 
z
M 787 3181 
Q 1357 2458 1645 2000 
Q 1933 1542 1933 1273 
Q 1933 1005 1757 758 
Q 1581 512 1434 512 
Q 1363 512 1340 557 
Q 1318 602 1318 781 
Q 1318 1754 698 3104 
L 787 3181 
z
" transform="scale(0.015625)"/>
      <path id="STZhongsong-52a8" d="M 4474 2957 
Q 4365 1498 3942 643 
Q 3520 -211 2400 -1075 
L 2317 -954 
Q 3296 58 3577 912 
Q 3859 1766 3930 2957 
L 3475 2957 
Q 3302 2957 3206 2912 
L 3091 3213 
Q 3226 3181 3411 3181 
L 3942 3181 
Q 3987 3840 3987 4813 
Q 4838 4595 4838 4493 
Q 4838 4448 4694 4371 
Q 4550 4294 4550 4160 
L 4493 3181 
L 5107 3181 
L 5299 3443 
Q 5344 3501 5389 3501 
Q 5434 3501 5632 3373 
L 5920 3181 
Q 6022 3110 6022 3059 
Q 6022 3008 5741 2861 
Q 5741 2470 5696 1548 
Q 5651 627 5606 252 
Q 5562 -122 5414 -346 
Q 5267 -570 4960 -726 
Q 4653 -883 4576 -883 
Q 4499 -883 4474 -762 
Q 4416 -486 4227 -339 
Q 4038 -192 3699 -83 
L 3731 64 
Q 4352 -64 4598 -64 
Q 4845 -64 4931 118 
Q 5018 301 5082 1030 
Q 5146 1760 5158 2957 
L 4474 2957 
z
M 2131 4090 
L 2381 4454 
Q 2426 4518 2474 4518 
Q 2522 4518 2675 4384 
L 2957 4128 
Q 3098 4013 3098 3952 
Q 3098 3891 2976 3891 
L 1088 3891 
Q 915 3891 819 3846 
L 704 4122 
Q 838 4090 1024 4090 
L 2131 4090 
z
M 2502 422 
Q 1581 230 1264 137 
Q 947 45 826 -45 
Q 781 -77 745 -77 
Q 710 -77 640 54 
Q 570 186 435 499 
Q 640 557 755 685 
Q 870 813 1139 1350 
Q 1408 1888 1574 2406 
L 685 2406 
Q 512 2406 416 2362 
L 301 2669 
Q 435 2637 621 2637 
L 2445 2637 
L 2682 2982 
Q 2739 3059 2803 3059 
Q 2867 3059 2940 3004 
Q 3014 2950 3148 2816 
Q 3283 2682 3350 2598 
Q 3418 2515 3418 2460 
Q 3418 2406 3302 2406 
L 1933 2406 
Q 2304 2272 2304 2195 
Q 2304 2112 2195 2106 
Q 2099 2099 2054 2016 
Q 1568 1248 1050 531 
L 2419 646 
Q 2285 979 2022 1293 
L 2099 1408 
Q 2694 1030 2899 796 
Q 3104 563 3104 355 
Q 3104 147 2982 -19 
Q 2861 -186 2726 -186 
Q 2592 -186 2576 16 
Q 2560 218 2502 422 
z
" transform="scale(0.015625)"/>
      <path id="STZhongsong-6001" d="M 2611 3514 
L 909 3514 
Q 774 3514 634 3475 
L 525 3744 
Q 659 3712 845 3712 
L 2675 3712 
Q 2822 4224 2854 4941 
Q 3091 4902 3414 4796 
Q 3738 4691 3738 4640 
Q 3738 4589 3603 4528 
Q 3469 4467 3433 4294 
Q 3398 4122 3283 3712 
L 4915 3712 
L 5222 4102 
Q 5267 4166 5315 4166 
Q 5363 4166 5478 4080 
Q 5594 3994 5754 3859 
Q 5914 3725 5971 3661 
Q 6029 3597 6029 3555 
Q 6029 3514 5914 3514 
L 3706 3514 
Q 4467 2170 6266 1926 
L 6266 1786 
Q 5920 1798 5789 1740 
Q 5658 1683 5523 1466 
Q 5491 1408 5446 1408 
Q 5350 1408 4854 1715 
Q 4358 2022 4044 2435 
Q 3731 2848 3520 3514 
L 3213 3514 
Q 3002 2970 2726 2624 
Q 3712 2445 3712 2010 
Q 3712 1843 3603 1696 
Q 3494 1549 3395 1549 
Q 3296 1549 3168 1818 
Q 2970 2234 2586 2477 
Q 1811 1670 179 1267 
L 147 1414 
Q 2118 2067 2611 3514 
z
M 2861 1530 
Q 3366 1210 3536 1027 
Q 3706 845 3706 656 
Q 3706 467 3616 336 
Q 3526 205 3404 205 
Q 3283 205 3238 422 
Q 3162 787 3059 988 
Q 2957 1190 2771 1421 
L 2861 1530 
z
M 4499 749 
Q 4506 352 4557 141 
Q 4608 -70 4813 -237 
Q 4902 -307 4902 -365 
Q 4902 -454 4732 -662 
Q 4563 -870 4304 -924 
Q 4045 -979 3238 -979 
Q 2630 -979 2358 -928 
Q 2086 -877 2000 -745 
Q 1914 -614 1914 -269 
L 1914 672 
Q 1914 934 1894 1197 
Q 2426 1043 2557 972 
Q 2688 902 2688 851 
Q 2688 768 2477 691 
L 2477 -128 
Q 2477 -384 2569 -425 
Q 2662 -467 3238 -467 
Q 3814 -467 3977 -419 
Q 4141 -371 4211 -150 
Q 4282 70 4358 755 
L 4499 749 
z
M 4851 1056 
Q 5376 749 5629 563 
Q 5882 378 5968 240 
Q 6054 102 6054 -83 
Q 6054 -269 5942 -416 
Q 5830 -563 5737 -563 
Q 5645 -563 5600 -512 
Q 5555 -461 5465 -166 
Q 5376 128 5235 365 
Q 5094 602 4768 966 
L 4851 1056 
z
M 1530 1037 
Q 1536 845 1536 685 
Q 1536 -141 1257 -419 
Q 979 -698 755 -698 
Q 608 -698 515 -611 
Q 422 -525 422 -384 
Q 422 -243 653 -77 
Q 1011 179 1139 380 
Q 1267 582 1370 1043 
L 1530 1037 
z
" transform="scale(0.015625)"/>
      <path id="STZhongsong-53d8" d="M 2912 3885 
Q 2835 4390 2330 4787 
L 2381 4915 
Q 2912 4787 3197 4643 
Q 3482 4499 3482 4301 
Q 3482 4211 3430 4092 
Q 3379 3974 3270 3885 
L 4819 3885 
L 5094 4288 
Q 5152 4365 5209 4365 
Q 5267 4365 5564 4080 
Q 5862 3795 5862 3728 
Q 5862 3661 5696 3661 
L 3968 3661 
L 3968 2445 
Q 3968 2182 3974 2048 
L 3987 1837 
Q 3987 1798 3929 1760 
Q 3872 1722 3709 1664 
Q 3546 1606 3469 1606 
Q 3418 1606 3418 1696 
L 3418 3661 
L 2733 3661 
L 2733 1779 
Q 2733 1722 2707 1696 
Q 2682 1670 2474 1600 
Q 2266 1530 2214 1530 
Q 2163 1530 2163 1606 
L 2176 1869 
Q 2182 2138 2182 2451 
L 2182 3661 
L 723 3661 
Q 550 3661 454 3616 
L 339 3917 
Q 474 3885 659 3885 
L 2912 3885 
z
M 1338 3277 
Q 2010 2938 2010 2835 
Q 2010 2784 1917 2768 
Q 1824 2752 1779 2717 
Q 1734 2682 1658 2573 
Q 1382 2150 1065 1859 
Q 749 1568 288 1235 
L 179 1338 
Q 627 1798 873 2214 
Q 1120 2630 1338 3277 
z
M 4275 3238 
Q 4870 2970 5174 2790 
Q 5478 2611 5580 2473 
Q 5683 2336 5683 2137 
Q 5683 1939 5580 1779 
Q 5478 1619 5370 1619 
Q 5306 1619 5261 1683 
Q 5216 1747 5114 1997 
Q 4832 2669 4205 3104 
L 4275 3238 
z
M 3104 -186 
Q 2003 -858 307 -1107 
L 288 -966 
Q 1830 -550 2746 77 
Q 2150 582 1862 1286 
L 1587 1286 
Q 1414 1286 1318 1242 
L 1203 1536 
Q 1338 1504 1523 1504 
L 4077 1504 
L 4288 1715 
Q 4326 1754 4365 1754 
Q 4448 1754 4707 1539 
Q 4966 1325 4966 1274 
Q 4966 1216 4844 1200 
Q 4723 1184 4640 1120 
Q 4557 1056 4378 858 
Q 4013 442 3552 109 
Q 4595 -333 6170 -371 
L 6170 -512 
Q 5830 -538 5622 -630 
Q 5414 -723 5306 -960 
Q 5274 -1018 5222 -1018 
Q 5146 -1018 4643 -874 
Q 4141 -730 3805 -576 
Q 3469 -422 3104 -186 
z
M 3098 333 
Q 3622 736 4026 1286 
L 2074 1286 
Q 2432 710 3098 333 
z
" transform="scale(0.015625)"/>
      <path id="STZhongsong-91cf" d="M 2054 4480 
L 4410 4480 
L 4576 4691 
Q 4608 4730 4640 4730 
Q 4691 4730 4969 4582 
Q 5248 4435 5248 4368 
Q 5248 4301 5024 4198 
L 5024 3738 
Q 5024 3552 5037 3341 
L 5043 3142 
Q 5043 3098 5030 3075 
Q 5018 3053 4922 2992 
Q 4826 2931 4685 2876 
Q 4544 2822 4509 2822 
Q 4474 2822 4474 2880 
L 4474 3046 
L 2016 3046 
Q 2029 2989 2006 2960 
Q 1984 2931 1897 2886 
Q 1811 2842 1660 2797 
Q 1510 2752 1475 2752 
Q 1440 2752 1446 2822 
Q 1478 3130 1478 3456 
L 1478 4198 
Q 1478 4467 1459 4742 
Q 1830 4608 2054 4480 
z
M 4474 3853 
L 4474 4294 
L 2016 4294 
L 2016 3853 
L 4474 3853 
z
M 4474 3213 
L 4474 3674 
L 2016 3674 
L 2016 3213 
L 4474 3213 
z
M 5171 2675 
L 5395 3040 
Q 5434 3110 5491 3110 
Q 5549 3110 5690 2989 
L 5984 2746 
Q 6138 2618 6138 2560 
Q 6138 2502 5990 2502 
L 640 2502 
Q 467 2502 371 2458 
L 256 2707 
Q 390 2675 576 2675 
L 5171 2675 
z
M 3482 672 
L 3482 166 
L 4666 166 
L 4864 416 
Q 4902 474 4950 474 
Q 4998 474 5251 285 
Q 5504 96 5504 38 
Q 5504 -19 5286 -19 
L 3482 -19 
L 3482 -550 
L 5203 -550 
L 5434 -230 
Q 5485 -160 5542 -160 
Q 5600 -160 5865 -390 
Q 6131 -621 6131 -691 
Q 6131 -736 5965 -736 
L 582 -736 
Q 410 -736 314 -781 
L 198 -518 
Q 333 -550 518 -550 
L 2931 -550 
L 2931 -19 
L 1274 -19 
Q 1101 -19 1005 -64 
L 877 198 
Q 1011 166 1197 166 
L 2931 166 
L 2931 672 
L 1843 672 
Q 1843 589 1824 569 
Q 1805 550 1725 505 
Q 1645 461 1481 413 
Q 1318 365 1296 365 
Q 1274 365 1280 422 
Q 1312 717 1312 1050 
L 1312 1747 
Q 1312 2074 1293 2355 
Q 1715 2253 1926 2150 
L 4544 2150 
L 4685 2362 
Q 4717 2413 4765 2413 
Q 4813 2413 4944 2333 
Q 5075 2253 5209 2157 
Q 5344 2061 5344 2029 
Q 5344 1971 5126 1850 
L 5126 1363 
Q 5126 1056 5133 954 
L 5139 762 
Q 5139 704 5091 669 
Q 5043 634 4880 592 
Q 4717 550 4627 550 
Q 4576 550 4576 627 
L 4576 672 
L 3482 672 
z
M 2931 1510 
L 2931 1978 
L 1843 1978 
L 1843 1510 
L 2931 1510 
z
M 3482 1978 
L 3482 1510 
L 4576 1510 
L 4576 1978 
L 3482 1978 
z
M 3482 1312 
L 3482 858 
L 4576 858 
L 4576 1312 
L 3482 1312 
z
M 2931 858 
L 2931 1312 
L 1843 1312 
L 1843 858 
L 2931 858 
z
" transform="scale(0.015625)"/>
      <path id="STZhongsong-5ea6" d="M 3296 3987 
Q 3219 4301 3120 4473 
Q 3021 4646 2810 4832 
L 2854 4915 
Q 3878 4736 3878 4365 
Q 3878 4269 3814 4166 
Q 3750 4064 3610 3987 
L 5075 3987 
L 5376 4346 
Q 5427 4410 5466 4410 
Q 5536 4410 5808 4163 
Q 6080 3917 6080 3859 
Q 6080 3802 5965 3802 
L 1754 3802 
Q 1754 3488 1741 2931 
L 2656 2931 
L 2656 3277 
Q 2656 3488 2637 3744 
Q 3059 3648 3200 3600 
Q 3341 3552 3341 3507 
Q 3341 3456 3174 3360 
L 3174 2931 
L 4179 2931 
L 4179 3270 
Q 4179 3482 4160 3738 
Q 4653 3629 4765 3581 
Q 4877 3533 4877 3501 
Q 4877 3450 4710 3354 
L 4710 2931 
L 5094 2931 
L 5363 3309 
Q 5402 3360 5434 3360 
Q 5498 3360 5750 3107 
Q 6003 2854 6003 2803 
Q 6003 2752 5888 2752 
L 4710 2752 
L 4710 2355 
Q 4710 2067 4717 1946 
L 4730 1747 
Q 4730 1702 4678 1673 
Q 4627 1645 4457 1590 
Q 4288 1536 4218 1536 
Q 4179 1536 4179 1600 
L 4179 1888 
L 3174 1888 
L 3174 1722 
Q 3174 1677 3164 1648 
Q 3155 1619 2934 1552 
Q 2714 1485 2672 1485 
Q 2630 1485 2630 1530 
L 2643 1754 
Q 2656 1920 2656 2150 
L 2656 2752 
L 1734 2752 
Q 1696 1491 1606 963 
Q 1517 435 1238 -51 
Q 960 -538 358 -1082 
L 275 -1005 
Q 832 -262 1011 477 
Q 1190 1216 1190 2477 
Q 1190 3738 1158 4320 
Q 1510 4198 1843 3987 
L 3296 3987 
z
M 4179 2752 
L 3174 2752 
L 3174 2074 
L 4179 2074 
L 4179 2752 
z
M 3674 -250 
Q 2842 -806 1139 -1069 
L 1139 -941 
Q 2432 -627 3354 19 
Q 2944 422 2669 1133 
L 2387 1133 
Q 2214 1133 2118 1088 
L 2003 1350 
Q 2138 1318 2323 1318 
L 4467 1318 
L 4602 1472 
Q 4653 1530 4697 1530 
Q 4742 1530 5024 1331 
Q 5306 1133 5306 1078 
Q 5306 1024 5206 1017 
Q 5107 1011 5062 995 
Q 5018 979 4954 902 
Q 4506 403 4090 51 
Q 4858 -294 6227 -416 
L 6182 -557 
Q 5894 -557 5721 -643 
Q 5549 -730 5459 -922 
Q 5427 -992 5376 -992 
Q 5280 -992 4681 -768 
Q 4083 -544 3674 -250 
z
M 3686 269 
Q 4166 685 4403 1133 
L 2848 1133 
Q 3187 602 3686 269 
z
" transform="scale(0.015625)"/>
      <path id="STZhongsong-7ed3" d="M 4499 3411 
L 4499 2304 
L 5011 2304 
L 5242 2598 
Q 5299 2675 5363 2675 
Q 5427 2675 5676 2435 
Q 5926 2195 5926 2144 
Q 5926 2093 5792 2093 
L 2995 2093 
Q 2822 2093 2726 2048 
L 2611 2336 
Q 2746 2304 2931 2304 
L 3930 2304 
L 3930 3411 
L 3174 3411 
Q 3002 3411 2906 3366 
L 2790 3654 
Q 2931 3622 3123 3622 
L 3930 3622 
L 3930 4288 
Q 3930 4621 3917 4877 
Q 4224 4819 4432 4755 
Q 4640 4691 4694 4662 
Q 4749 4634 4749 4608 
Q 4749 4544 4499 4390 
L 4499 3622 
L 5146 3622 
L 5382 3955 
Q 5440 4032 5485 4032 
Q 5530 4032 5645 3936 
L 5952 3674 
Q 6138 3514 6138 3462 
Q 6138 3411 6016 3411 
L 4499 3411 
z
M 1696 2515 
Q 838 2336 576 2208 
Q 531 2189 508 2189 
Q 486 2189 473 2205 
Q 461 2221 400 2358 
Q 339 2496 288 2675 
Q 563 2720 652 2819 
Q 742 2918 1008 3481 
Q 1274 4045 1542 4870 
Q 1786 4755 1984 4640 
Q 2182 4525 2224 4486 
Q 2266 4448 2266 4416 
Q 2266 4352 2106 4339 
Q 1971 4333 1843 4102 
Q 1389 3315 915 2701 
L 1818 2739 
Q 2093 3264 2291 3699 
Q 2528 3546 2678 3430 
Q 2829 3315 2857 3283 
Q 2886 3251 2886 3226 
Q 2886 3168 2726 3142 
Q 2650 3136 2547 2982 
Q 1971 2125 1286 1331 
L 2662 1453 
L 2669 1325 
Q 1107 902 870 787 
Q 800 755 774 755 
Q 749 755 739 771 
Q 730 787 672 954 
L 563 1286 
Q 787 1331 921 1392 
Q 1056 1453 1296 1840 
Q 1536 2227 1696 2515 
z
M 3578 1402 
L 4883 1402 
L 5037 1651 
Q 5082 1722 5123 1722 
Q 5165 1722 5286 1638 
L 5574 1446 
Q 5741 1338 5741 1277 
Q 5741 1216 5523 1114 
L 5523 -250 
Q 5523 -378 5530 -499 
L 5542 -691 
Q 5542 -755 5481 -800 
Q 5421 -845 5270 -896 
Q 5120 -947 5049 -947 
Q 4979 -947 4969 -918 
Q 4960 -890 4960 -826 
L 4960 -384 
L 3533 -384 
L 3533 -717 
Q 3533 -813 3478 -854 
Q 3424 -896 3254 -960 
Q 3085 -1024 3014 -1024 
Q 2970 -1024 2976 -941 
Q 3002 -685 3002 -371 
L 3002 1101 
Q 3002 1382 2982 1664 
Q 3379 1542 3578 1402 
z
M 4960 -166 
L 4960 1203 
L 3533 1203 
L 3533 -166 
L 4960 -166 
z
M 2720 358 
L 1549 -179 
Q 774 -538 745 -538 
Q 717 -538 701 -522 
Q 685 -506 592 -342 
Q 499 -179 416 6 
Q 883 45 2694 474 
L 2720 358 
z
" transform="scale(0.015625)"/>
      <path id="STZhongsong-6784" d="M 1965 3469 
L 2118 3469 
L 2349 3827 
Q 2394 3898 2426 3898 
Q 2458 3898 2624 3760 
Q 2790 3622 2892 3510 
Q 2995 3398 2995 3334 
Q 2995 3270 2906 3270 
L 1965 3270 
L 1965 2374 
Q 2368 2189 2601 2025 
Q 2835 1862 2835 1689 
Q 2835 1517 2716 1376 
Q 2598 1235 2524 1235 
Q 2451 1235 2412 1283 
Q 2374 1331 2336 1485 
Q 2195 2010 1965 2214 
L 1965 -762 
Q 1965 -806 1942 -825 
Q 1920 -845 1824 -889 
Q 1728 -934 1597 -972 
Q 1466 -1011 1434 -1011 
Q 1402 -1011 1408 -947 
Q 1434 -640 1434 -90 
L 1434 1869 
Q 1274 1459 1027 1104 
Q 781 749 262 179 
L 179 237 
Q 672 1050 909 1638 
Q 1146 2227 1408 3270 
L 851 3270 
Q 685 3270 576 3238 
L 403 3501 
Q 538 3469 723 3469 
L 1434 3469 
L 1434 4166 
Q 1434 4589 1414 4896 
Q 1600 4864 1891 4781 
Q 2182 4698 2182 4646 
Q 2182 4595 1965 4467 
L 1965 3469 
z
M 3699 3443 
Q 3302 2842 2656 2150 
L 2573 2214 
Q 3322 3264 3699 4890 
Q 4000 4781 4182 4685 
Q 4365 4589 4397 4560 
Q 4429 4531 4429 4499 
Q 4429 4435 4320 4416 
Q 4250 4403 4198 4339 
Q 4147 4275 4012 4006 
Q 3878 3738 3821 3642 
L 5267 3642 
L 5421 3878 
Q 5459 3936 5516 3936 
Q 5574 3936 5862 3741 
Q 6150 3546 6150 3475 
Q 6150 3386 5875 3270 
Q 5856 2054 5824 1059 
Q 5792 64 5757 -217 
Q 5722 -499 5603 -633 
Q 5485 -768 5158 -918 
Q 4832 -1069 4781 -1069 
Q 4698 -1069 4646 -909 
Q 4595 -749 4518 -643 
Q 4442 -538 4259 -445 
Q 4077 -352 3725 -243 
L 3744 -128 
Q 4538 -250 4778 -250 
Q 5018 -250 5088 -160 
Q 5158 -70 5193 205 
Q 5229 480 5267 1619 
Q 5306 2758 5306 3443 
L 3699 3443 
z
M 4416 845 
Q 3731 678 3484 582 
Q 3238 486 3002 307 
Q 2963 275 2908 275 
Q 2854 275 2822 313 
Q 2790 352 2579 800 
Q 2886 909 3008 1097 
Q 3130 1286 3395 1884 
Q 3661 2483 3840 3021 
Q 4102 2906 4268 2810 
Q 4435 2714 4460 2685 
Q 4486 2656 4486 2630 
Q 4486 2566 4387 2560 
Q 4288 2554 4224 2458 
L 3859 1888 
Q 3558 1421 3174 870 
L 4365 1030 
Q 4250 1427 4077 1792 
L 4160 1856 
Q 4557 1472 4771 1184 
Q 4986 896 4986 713 
Q 4986 531 4867 380 
Q 4749 230 4614 230 
Q 4525 230 4499 422 
Q 4461 666 4416 845 
z
" transform="scale(0.015625)"/>
     </defs>
     <use xlink:href="#STZhongsong-4f01"/>
     <use xlink:href="#STZhongsong-4e1a" transform="translate(99.999985 0)"/>
     <use xlink:href="#STZhongsong-52a8" transform="translate(199.999969 0)"/>
     <use xlink:href="#STZhongsong-6001" transform="translate(299.999954 0)"/>
     <use xlink:href="#STZhongsong-53d8" transform="translate(399.999939 0)"/>
     <use xlink:href="#STZhongsong-91cf" transform="translate(499.999924 0)"/>
     <use xlink:href="#STZhongsong-5e74" transform="translate(599.999908 0)"/>
     <use xlink:href="#STZhongsong-5ea6" transform="translate(699.999893 0)"/>
     <use xlink:href="#STZhongsong-5360" transform="translate(799.999878 0)"/>
     <use xlink:href="#STZhongsong-6bd4" transform="translate(899.999863 0)"/>
     <use xlink:href="#STZhongsong-7ed3" transform="translate(999.999847 0)"/>
     <use xlink:href="#STZhongsong-6784" transform="translate(1099.999832 0)"/>
    </g>
   </g>
   <g id="legend_1">
    <g id="patch_35">
     <path d="M 278.07 434.911661 
L 306.07 434.911661 
L 306.07 425.111661 
L 278.07 425.111661 
z
" style="fill: #4c78a8"/>
    </g>
    <g id="text_16">
     <!-- 新增占比 -->
     <g style="fill: #111111" transform="translate(317.27 434.911661) scale(0.14 -0.14)">
      <defs>
       <path id="STZhongsong-65b0" d="M 1754 3904 
Q 1683 3974 1651 4176 
Q 1619 4378 1532 4528 
Q 1446 4678 1312 4838 
L 1376 4922 
Q 1766 4781 1987 4595 
Q 2208 4410 2208 4275 
Q 2208 4102 2022 3904 
L 2445 3904 
L 2656 4205 
Q 2707 4275 2748 4275 
Q 2790 4275 2880 4211 
Q 2970 4147 3117 4019 
Q 3264 3891 3299 3846 
Q 3334 3802 3334 3770 
Q 3334 3706 3200 3706 
L 806 3706 
Q 634 3706 538 3661 
L 422 3936 
Q 557 3904 742 3904 
L 1754 3904 
z
M 4230 4051 
Q 4691 4211 5568 4755 
Q 6035 4166 6035 4083 
Q 6035 4045 5993 4045 
Q 5952 4045 5869 4077 
Q 5786 4109 5706 4109 
Q 5626 4109 5085 3993 
Q 4544 3878 4211 3853 
L 4166 2611 
L 5254 2611 
L 5542 2970 
Q 5600 3040 5632 3040 
Q 5683 3040 5964 2771 
Q 6246 2502 6246 2426 
Q 6246 2381 6118 2381 
L 5306 2381 
L 5306 -179 
Q 5306 -493 5312 -614 
L 5318 -845 
Q 5318 -896 5270 -931 
Q 5222 -966 5043 -1033 
Q 4864 -1101 4816 -1101 
Q 4768 -1101 4768 -1018 
L 4768 2381 
L 4154 2381 
Q 4109 1350 4061 1014 
Q 4013 678 3891 371 
Q 3770 64 3517 -249 
Q 3264 -563 2758 -1018 
L 2630 -909 
Q 3021 -493 3216 -147 
Q 3411 198 3500 643 
Q 3590 1088 3619 1606 
Q 3648 2125 3648 2976 
Q 3648 3827 3635 4326 
Q 3936 4218 4230 4051 
z
M 1971 2432 
Q 2214 3149 2304 3667 
Q 2752 3462 2838 3411 
Q 2925 3360 2925 3328 
Q 2925 3296 2819 3277 
Q 2714 3258 2650 3139 
Q 2586 3021 2195 2432 
L 2618 2432 
L 2880 2733 
Q 2938 2797 2986 2797 
Q 3034 2797 3286 2569 
Q 3539 2342 3539 2288 
Q 3539 2234 3392 2234 
L 2112 2234 
L 2112 1594 
L 2470 1594 
L 2656 1894 
Q 2701 1971 2742 1971 
Q 2784 1971 2941 1859 
Q 3098 1747 3216 1641 
Q 3334 1536 3334 1485 
Q 3334 1395 3174 1395 
L 2112 1395 
L 2112 -51 
Q 2112 -422 2061 -563 
Q 2010 -704 1782 -835 
Q 1555 -966 1488 -966 
Q 1421 -966 1389 -864 
Q 1338 -672 1245 -589 
Q 1152 -506 826 -358 
L 826 -243 
Q 1286 -326 1420 -326 
Q 1555 -326 1587 -275 
Q 1619 -224 1619 -77 
L 1619 1395 
L 787 1395 
Q 614 1395 518 1350 
L 403 1626 
Q 538 1594 723 1594 
L 1619 1594 
L 1619 2234 
L 698 2234 
Q 525 2234 429 2189 
L 314 2464 
Q 448 2432 634 2432 
L 1971 2432 
z
M 973 3629 
Q 1350 3366 1478 3228 
Q 1606 3091 1606 2950 
Q 1606 2810 1516 2650 
Q 1427 2490 1353 2490 
Q 1280 2490 1254 2534 
Q 1229 2579 1193 2790 
Q 1158 3002 1094 3168 
Q 1030 3334 877 3552 
L 973 3629 
z
M 915 1261 
Q 1101 1158 1273 1052 
Q 1446 947 1462 928 
Q 1478 909 1478 890 
Q 1478 832 1370 813 
Q 1312 800 1273 765 
Q 1235 730 1171 614 
Q 864 51 211 -589 
L 109 -506 
Q 653 326 915 1261 
z
M 2304 1210 
Q 2650 1005 2906 803 
Q 3162 602 3162 448 
Q 3162 294 3050 121 
Q 2938 -51 2851 -51 
Q 2765 -51 2720 128 
Q 2573 698 2221 1114 
L 2304 1210 
z
" transform="scale(0.015625)"/>
       <path id="STZhongsong-589e" d="M 5331 1907 
L 2982 1907 
Q 2982 1779 2947 1737 
Q 2912 1696 2720 1619 
Q 2528 1542 2470 1542 
Q 2438 1542 2445 1613 
Q 2477 1907 2477 2246 
L 2477 3501 
Q 2477 3770 2458 4045 
Q 2829 3917 3066 3738 
L 3501 3738 
Q 3437 3763 3357 4041 
Q 3277 4320 3161 4502 
Q 3046 4685 2880 4858 
L 2925 4954 
Q 3386 4762 3626 4576 
Q 3866 4390 3866 4186 
Q 3866 4064 3782 3920 
Q 3699 3776 3584 3738 
L 4352 3738 
Q 4678 4326 4890 4922 
Q 5491 4602 5491 4506 
Q 5491 4454 5379 4441 
Q 5267 4429 5132 4307 
Q 4998 4186 4627 3738 
L 5274 3738 
L 5389 3910 
Q 5466 4026 5526 4026 
Q 5587 4026 5830 3859 
Q 6074 3693 6074 3635 
Q 6074 3578 5862 3482 
L 5862 2522 
Q 5862 2170 5869 2067 
L 5882 1875 
Q 5882 1837 5834 1795 
Q 5786 1754 5597 1680 
Q 5408 1606 5357 1606 
Q 5331 1606 5331 1664 
L 5331 1907 
z
M 3898 2112 
L 3898 3552 
L 2982 3552 
L 2982 2112 
L 3898 2112 
z
M 3162 3354 
Q 3533 3066 3619 2957 
Q 3706 2848 3706 2704 
Q 3706 2560 3616 2454 
Q 3526 2349 3424 2349 
Q 3322 2349 3312 2646 
Q 3302 2944 3085 3277 
L 3162 3354 
z
M 4365 3552 
L 4365 2112 
L 5331 2112 
L 5331 3552 
L 4365 3552 
z
M 4794 3354 
Q 5261 3091 5261 3002 
Q 5261 2976 5241 2969 
Q 5222 2963 5136 2963 
Q 5050 2963 4909 2778 
Q 4685 2477 4493 2266 
L 4416 2336 
Q 4672 2906 4794 3354 
z
M 1082 2630 
L 621 2630 
Q 448 2630 352 2586 
L 230 2854 
Q 365 2822 550 2822 
L 1082 2822 
L 1082 4198 
Q 1082 4614 1056 4774 
Q 1408 4678 1625 4585 
Q 1843 4493 1843 4435 
Q 1843 4378 1613 4269 
L 1613 2822 
L 1715 2822 
L 1862 3072 
Q 1920 3162 1984 3162 
Q 2048 3162 2233 2970 
Q 2419 2778 2419 2704 
Q 2419 2630 2298 2630 
L 1613 2630 
L 1613 896 
L 2592 1203 
L 2656 1082 
L 1574 467 
Q 1152 230 1008 134 
Q 864 38 736 -70 
Q 685 -115 659 -115 
Q 634 -115 586 -44 
Q 538 26 288 512 
Q 550 563 1082 723 
L 1082 2630 
z
M 4966 -435 
L 3373 -435 
L 3373 -685 
Q 3373 -749 3357 -771 
Q 3341 -794 3257 -838 
Q 3174 -883 3040 -921 
Q 2906 -960 2870 -960 
Q 2835 -960 2842 -890 
Q 2874 -646 2874 -256 
L 2874 1075 
Q 2874 1344 2854 1619 
Q 3354 1472 3507 1395 
L 4922 1395 
L 5018 1581 
Q 5056 1651 5123 1651 
Q 5190 1651 5456 1497 
Q 5722 1344 5722 1289 
Q 5722 1235 5517 1146 
L 5517 -19 
Q 5517 -224 5530 -429 
L 5536 -614 
Q 5536 -678 5491 -710 
Q 5446 -742 5264 -806 
Q 5082 -870 5024 -870 
Q 4966 -870 4966 -819 
L 4966 -435 
z
M 3373 557 
L 4966 557 
L 4966 1203 
L 3373 1203 
L 3373 557 
z
M 4966 378 
L 3373 378 
L 3373 -250 
L 4966 -250 
L 4966 378 
z
" transform="scale(0.015625)"/>
      </defs>
      <use xlink:href="#STZhongsong-65b0"/>
      <use xlink:href="#STZhongsong-589e" transform="translate(99.999985 0)"/>
      <use xlink:href="#STZhongsong-5360" transform="translate(199.999969 0)"/>
      <use xlink:href="#STZhongsong-6bd4" transform="translate(299.999954 0)"/>
     </g>
    </g>
    <g id="patch_36">
     <path d="M 401.27 434.911661 
L 429.27 434.911661 
L 429.27 425.111661 
L 401.27 425.111661 
z
" style="fill: #72b7b2"/>
    </g>
    <g id="text_17">
     <!-- 持续占比 -->
     <g style="fill: #111111" transform="translate(440.47 434.911661) scale(0.14 -0.14)">
      <defs>
       <path id="STZhongsong-6301" d="M 3827 2586 
L 3827 3546 
L 3059 3546 
Q 2906 3546 2790 3494 
L 2662 3814 
Q 2797 3782 2982 3782 
L 3827 3782 
L 3827 4326 
Q 3827 4730 3808 4928 
Q 3981 4902 4301 4803 
Q 4621 4704 4621 4640 
Q 4621 4576 4371 4461 
L 4371 3782 
L 4928 3782 
L 5152 4077 
Q 5203 4147 5264 4147 
Q 5325 4147 5577 3900 
Q 5830 3654 5830 3603 
Q 5830 3546 5670 3546 
L 4371 3546 
L 4371 2586 
L 5370 2586 
L 5600 2874 
Q 5664 2957 5718 2957 
Q 5773 2957 6025 2704 
Q 6278 2451 6278 2400 
Q 6278 2349 6099 2349 
L 2714 2349 
Q 2547 2349 2445 2304 
L 2330 2618 
Q 2464 2586 2650 2586 
L 3827 2586 
z
M 1395 3078 
L 595 3078 
Q 435 3078 320 3046 
L 211 3347 
Q 346 3315 531 3315 
L 1395 3315 
L 1395 4166 
Q 1395 4538 1382 4858 
Q 2157 4627 2157 4538 
Q 2157 4486 1914 4384 
L 1914 3315 
L 2138 3315 
L 2330 3590 
Q 2381 3667 2425 3667 
Q 2470 3667 2713 3430 
Q 2957 3194 2957 3136 
Q 2957 3078 2810 3078 
L 1914 3078 
L 1914 1933 
L 2720 2221 
L 2790 2118 
L 1914 1568 
L 1914 -282 
Q 1914 -525 1846 -669 
Q 1779 -813 1561 -921 
Q 1344 -1030 1210 -1030 
Q 1107 -1030 1101 -896 
Q 1088 -685 957 -569 
Q 826 -454 435 -333 
L 474 -179 
Q 896 -262 1075 -262 
Q 1254 -262 1324 -217 
Q 1395 -173 1395 -45 
L 1395 1261 
Q 870 966 666 781 
Q 621 742 595 742 
Q 570 742 554 758 
Q 538 774 419 947 
Q 301 1120 173 1357 
Q 800 1536 1395 1747 
L 1395 3078 
z
M 5050 1523 
L 5338 1523 
L 5581 1818 
Q 5645 1894 5702 1894 
Q 5760 1894 6009 1657 
Q 6259 1421 6259 1360 
Q 6259 1299 6125 1299 
L 5050 1299 
L 5050 -493 
Q 5050 -774 4717 -960 
Q 4384 -1146 4282 -1146 
Q 4224 -1146 4192 -1024 
Q 4134 -781 3945 -656 
Q 3757 -531 3450 -429 
L 3475 -301 
Q 4083 -416 4246 -416 
Q 4410 -416 4448 -361 
Q 4486 -307 4486 -160 
L 4486 1299 
L 2714 1299 
Q 2554 1299 2438 1267 
L 2330 1555 
Q 2464 1523 2650 1523 
L 4486 1523 
Q 4486 2195 4474 2310 
Q 4608 2298 4905 2224 
Q 5203 2150 5203 2089 
Q 5203 2029 5050 1952 
L 5050 1523 
z
M 2842 1158 
Q 3296 947 3523 771 
Q 3750 595 3750 428 
Q 3750 262 3641 86 
Q 3533 -90 3405 -90 
Q 3315 -90 3280 -32 
Q 3245 26 3219 182 
Q 3194 339 3072 598 
Q 2950 858 2771 1075 
L 2842 1158 
z
" transform="scale(0.015625)"/>
       <path id="STZhongsong-7eed" d="M 3885 3802 
L 3149 3802 
Q 2976 3802 2880 3757 
L 2752 4026 
Q 2886 3994 3072 3994 
L 3885 3994 
Q 3885 4826 3872 4915 
Q 4640 4774 4640 4672 
Q 4640 4627 4410 4518 
L 4410 3994 
L 4986 3994 
L 5235 4358 
Q 5280 4422 5341 4422 
Q 5402 4422 5485 4346 
L 5747 4090 
Q 5939 3917 5939 3859 
Q 5939 3802 5818 3802 
L 4410 3802 
L 4410 3053 
L 5312 3053 
L 5453 3232 
Q 5510 3309 5555 3309 
Q 5632 3309 5917 3075 
Q 6202 2842 6202 2752 
Q 6202 2675 5990 2668 
Q 5779 2662 5590 2531 
Q 5402 2400 5184 2176 
L 5088 2234 
Q 5216 2483 5338 2854 
L 2931 2854 
Q 2758 2854 2662 2810 
L 2541 3072 
Q 2477 3008 2342 2816 
Q 1715 1907 1229 1312 
L 2502 1510 
L 2515 1389 
Q 1818 1139 1562 1033 
Q 1306 928 1165 848 
Q 1024 768 992 768 
Q 960 768 941 784 
Q 922 800 806 976 
Q 691 1152 589 1312 
Q 768 1350 912 1446 
Q 1056 1542 1177 1718 
Q 1299 1894 1645 2534 
Q 902 2374 768 2310 
Q 634 2246 611 2246 
Q 589 2246 573 2268 
Q 557 2291 496 2441 
Q 435 2592 378 2765 
Q 589 2810 710 2938 
Q 832 3066 1152 3728 
Q 1472 4390 1619 4832 
Q 1901 4717 2093 4605 
Q 2285 4493 2329 4448 
Q 2374 4403 2374 4378 
Q 2374 4314 2195 4307 
Q 2131 4307 2086 4268 
Q 2042 4230 1939 4083 
Q 1485 3430 934 2739 
L 1754 2752 
L 2221 3654 
Q 2650 3398 2717 3344 
Q 2784 3290 2784 3245 
Q 2784 3174 2669 3155 
Q 2605 3142 2547 3078 
Q 2688 3053 2854 3053 
L 3885 3053 
L 3885 3802 
z
M 3117 2694 
Q 3584 2554 3808 2416 
Q 4032 2278 4032 2067 
Q 4032 1926 3958 1804 
Q 3885 1683 3824 1683 
Q 3763 1683 3728 1708 
Q 3693 1734 3619 1891 
Q 3546 2048 3376 2269 
Q 3206 2490 3066 2592 
L 3117 2694 
z
M 4602 717 
Q 4563 582 4480 390 
Q 5050 218 5331 80 
Q 5613 -58 5715 -192 
Q 5818 -326 5818 -540 
Q 5818 -755 5744 -873 
Q 5670 -992 5564 -992 
Q 5459 -992 5370 -826 
Q 5043 -237 4390 218 
Q 4147 -211 3616 -489 
Q 3085 -768 1920 -1050 
L 1875 -909 
Q 2874 -576 3398 -189 
Q 3923 198 4090 717 
L 2598 717 
Q 2464 717 2323 678 
L 2214 941 
Q 2349 909 2534 909 
L 4141 909 
Q 4282 1498 4288 2605 
Q 4762 2502 4890 2441 
Q 5018 2381 5018 2329 
Q 5018 2278 4922 2240 
Q 4883 2221 4867 2166 
Q 4851 2112 4832 1933 
Q 4762 1280 4659 909 
L 5178 909 
L 5440 1286 
Q 5478 1350 5564 1350 
Q 5651 1350 5920 1078 
Q 6189 806 6189 761 
Q 6189 717 6054 717 
L 4602 717 
z
M 2694 1997 
Q 3181 1850 3433 1715 
Q 3686 1581 3686 1382 
Q 3686 1312 3644 1158 
Q 3603 1005 3482 1005 
Q 3392 1005 3315 1165 
Q 3136 1549 2650 1894 
L 2694 1997 
z
M 2662 422 
L 1466 -102 
Q 960 -320 832 -474 
Q 800 -512 774 -512 
Q 749 -512 723 -480 
Q 698 -448 608 -297 
Q 518 -147 397 77 
Q 922 128 1318 211 
Q 1715 294 2624 525 
L 2662 422 
z
" transform="scale(0.015625)"/>
      </defs>
      <use xlink:href="#STZhongsong-6301"/>
      <use xlink:href="#STZhongsong-7eed" transform="translate(99.999985 0)"/>
      <use xlink:href="#STZhongsong-5360" transform="translate(199.999969 0)"/>
      <use xlink:href="#STZhongsong-6bd4" transform="translate(299.999954 0)"/>
     </g>
    </g>
    <g id="patch_37">
     <path d="M 524.47 434.911661 
L 552.47 434.911661 
L 552.47 425.111661 
L 524.47 425.111661 
z
" style="fill: #59a14f"/>
    </g>
    <g id="text_18">
     <!-- 续认定占比 -->
     <g style="fill: #111111" transform="translate(563.67 434.911661) scale(0.14 -0.14)">
      <defs>
       <path id="STZhongsong-8ba4" d="M 4154 2906 
Q 3994 1318 3507 486 
Q 3021 -346 1766 -1088 
L 1690 -992 
Q 2906 -77 3280 1062 
Q 3654 2202 3712 4890 
Q 4320 4723 4425 4684 
Q 4531 4646 4531 4608 
Q 4531 4570 4409 4512 
Q 4288 4454 4269 4281 
Q 4250 4109 4224 3693 
Q 4518 1914 4969 960 
Q 5421 6 6163 -429 
L 6157 -550 
Q 5933 -499 5779 -499 
Q 5478 -499 5254 -755 
Q 5222 -794 5190 -794 
Q 5158 -794 5120 -755 
Q 5082 -717 4832 -166 
Q 4582 384 4422 1101 
Q 4262 1818 4154 2906 
z
M 1082 4883 
Q 1696 4717 2016 4515 
Q 2336 4314 2336 4032 
Q 2336 3834 2227 3658 
Q 2118 3482 1984 3482 
Q 1907 3482 1865 3530 
Q 1824 3578 1737 3843 
Q 1651 4109 1468 4336 
Q 1286 4563 1037 4774 
L 1082 4883 
z
M 3002 1562 
Q 2131 486 1827 60 
Q 1523 -365 1395 -672 
Q 1363 -742 1331 -742 
Q 1299 -742 1177 -544 
Q 1056 -346 947 -90 
Q 1056 32 1136 192 
Q 1216 352 1216 627 
L 1216 2586 
L 512 2586 
Q 397 2586 301 2554 
L 128 2822 
Q 237 2790 397 2790 
L 1184 2790 
L 1338 3040 
Q 1382 3117 1436 3117 
Q 1491 3117 1795 2947 
Q 2099 2778 2099 2707 
Q 2099 2637 1766 2490 
L 1766 576 
L 2899 1670 
L 3002 1562 
z
" transform="scale(0.015625)"/>
       <path id="STZhongsong-5b9a" d="M 2586 4928 
Q 3674 4774 3674 4346 
Q 3674 4205 3546 4029 
Q 3418 3853 3187 3853 
Q 3098 3853 3059 3913 
Q 3021 3974 2982 4179 
Q 2906 4608 2560 4858 
L 2586 4928 
z
M 1517 3827 
L 5133 3827 
L 5299 4064 
Q 5331 4122 5363 4122 
Q 5440 4122 5747 3878 
Q 6054 3635 6054 3532 
Q 6054 3430 5856 3430 
Q 5658 3430 5530 3356 
Q 5402 3283 5158 3021 
Q 5638 2637 5638 2541 
Q 5638 2490 5536 2490 
L 3469 2490 
L 3469 1402 
L 4346 1402 
L 4653 1798 
Q 4704 1869 4749 1869 
Q 4832 1869 5104 1609 
Q 5376 1350 5376 1254 
Q 5376 1190 5235 1190 
L 3469 1190 
L 3469 -134 
Q 3987 -230 5338 -230 
Q 5754 -230 6266 -224 
L 6266 -365 
Q 6010 -390 5834 -470 
Q 5658 -550 5574 -768 
Q 5536 -858 5472 -858 
Q 5286 -858 4489 -784 
Q 3693 -710 3369 -659 
Q 3046 -608 2768 -445 
Q 2490 -282 2237 -6 
Q 1984 269 1805 621 
Q 1574 154 1267 -211 
Q 960 -576 384 -1056 
L 294 -973 
Q 934 -256 1264 477 
Q 1594 1210 1696 2138 
Q 2125 1933 2275 1840 
Q 2426 1747 2426 1692 
Q 2426 1638 2323 1616 
Q 2221 1594 2150 1427 
L 1920 870 
Q 2374 230 2912 6 
L 2912 2490 
L 1382 2490 
Q 1210 2490 1114 2445 
L 998 2720 
Q 1133 2688 1318 2688 
L 4614 2688 
L 4896 3059 
Q 4954 3136 5011 3117 
Q 5082 3373 5126 3642 
L 1530 3642 
Q 1542 3309 1334 3059 
Q 1126 2810 890 2810 
Q 755 2810 659 2883 
Q 563 2957 563 3059 
Q 563 3226 816 3418 
Q 1069 3610 1174 3789 
Q 1280 3968 1325 4262 
L 1466 4262 
L 1517 3827 
z
" transform="scale(0.015625)"/>
      </defs>
      <use xlink:href="#STZhongsong-7eed"/>
      <use xlink:href="#STZhongsong-8ba4" transform="translate(99.999985 0)"/>
      <use xlink:href="#STZhongsong-5b9a" transform="translate(199.999969 0)"/>
      <use xlink:href="#STZhongsong-5360" transform="translate(299.999954 0)"/>
      <use xlink:href="#STZhongsong-6bd4" transform="translate(399.999939 0)"/>
     </g>
    </g>
   </g>
  </g>
 </g>
 <defs>
  <clipPath id="p52d94fe16f">
   <rect x="61.995" y="38.992656" width="787.75" height="332.82333"/>
  </clipPath>
 </defs>
</svg>
